<svg xmlns="http://www.w3.org/2000/svg" width="131.1" height="5.369" viewBox="0 0 131.1 5.369">
  <g id="Group_217" data-name="Group 217" transform="translate(-301.851 127.05)">
    <path id="Path_1967" data-name="Path 1967" d="M490.038-125.765c.194.026.125-.266.154-.319C489.867-126.019,490.046-125.689,490.038-125.765Z" transform="translate(-57.24 -0.294)" fill="#fff100"/>
    <path id="Path_1968" data-name="Path 1968" d="M485.283-124.727l.057-.119-.471.292Z" transform="translate(-55.68 -0.671)" fill="#fff100"/>
    <path id="Path_1969" data-name="Path 1969" d="M481.17-124.766c.282.5,1.083-.08,1.615.1l.088.113.24-.4A6.933,6.933,0,0,1,481.17-124.766Z" transform="translate(-54.555 -0.637)" fill="#fff100"/>
    <path id="Path_1970" data-name="Path 1970" d="M478.86-126.227c.1.193-.344.167.372.061a.509.509,0,0,1-.068-.049A2.215,2.215,0,0,1,478.86-126.227Z" transform="translate(-53.838 -0.25)" fill="#fff100"/>
    <path id="Path_1971" data-name="Path 1971" d="M479.3-126.243c.315-.014-.206-.162,0,0Z" transform="translate(-53.97 -0.223)" fill="#fff100"/>
    <path id="Path_1972" data-name="Path 1972" d="M477.141-126.224l.415-.173c-.087-.114-.456-.14-.319-.223C476.811-126.524,476.9-126.411,477.141-126.224Z" transform="translate(-53.268 -0.131)" fill="#fff100"/>
    <path id="Path_1973" data-name="Path 1973" d="M476.664-125.577l.215-.073C476.841-125.7,476.784-125.715,476.664-125.577Z" transform="translate(-53.184 -0.415)" fill="#fff100"/>
    <path id="Path_1974" data-name="Path 1974" d="M477.428-125.856l-.455.154c.06.08.066.241.209-.056C477.145-125.61,477.235-125.752,477.428-125.856Z" transform="translate(-53.278 -0.363)" fill="#fff100"/>
    <path id="Path_1975" data-name="Path 1975" d="M478-125.752c.232.109.533.176.117.348C478.908-125.472,478.791-125.822,478-125.752Z" transform="translate(-53.59 -0.392)" fill="#fff100"/>
    <path id="Path_1976" data-name="Path 1976" d="M480.951-123.969l.31.145.269-.167C481.4-123.908,480.931-124.125,480.951-123.969Z" transform="translate(-54.488 -0.92)" fill="#fff100"/>
    <path id="Path_1977" data-name="Path 1977" d="M473.517-126.42c-.026.105.139.281.17.417l.306-.122C473.836-126.2,473.538-126.263,473.517-126.42Z" transform="translate(-52.226 -0.192)" fill="#fff100"/>
    <path id="Path_1978" data-name="Path 1978" d="M473.563-125.821l-.459.181C473.513-125.619,473.588-125.7,473.563-125.821Z" transform="translate(-52.101 -0.374)" fill="#fff100"/>
    <path id="Path_1979" data-name="Path 1979" d="M476.494-124.9l.752-.381-.9.386Z" transform="translate(-53.089 -0.537)" fill="#fff100"/>
    <path id="Path_1980" data-name="Path 1980" d="M470.915-126.546l.26-.245-.463.37Z" transform="translate(-51.373 -0.079)" fill="#fff100"/>
    <path id="Path_1981" data-name="Path 1981" d="M468.948-126.582c.192-.2-.264-.343-.061-.468a1.977,1.977,0,0,0-.827.367A1.141,1.141,0,0,1,468.948-126.582Z" transform="translate(-50.567)" fill="#fff100"/>
    <path id="Path_1982" data-name="Path 1982" d="M467.476-126.295a2.411,2.411,0,0,0,.407-.228A1.227,1.227,0,0,0,467.476-126.295Z" transform="translate(-50.389 -0.16)" fill="#fff100"/>
    <path id="Path_1983" data-name="Path 1983" d="M471.825-125.768a.525.525,0,0,0-.36-.3l.18.3Z" transform="translate(-51.603 -0.298)" fill="#fff100"/>
    <path id="Path_1984" data-name="Path 1984" d="M471.56-125.64l-.006-.01c-.2-.006-.331-.013-.39-.017Z" transform="translate(-51.511 -0.421)" fill="#fff100"/>
    <path id="Path_1985" data-name="Path 1985" d="M472.028-125.635h-.045C472-125.607,472.011-125.6,472.028-125.635Z" transform="translate(-51.76 -0.43)" fill="#fff100"/>
    <path id="Path_1986" data-name="Path 1986" d="M474.607-125.124c-.269.166-.83.344-.287.6C474.513-124.73,474.2-124.874,474.607-125.124Z" transform="translate(-52.401 -0.586)" fill="#fff100"/>
    <path id="Path_1987" data-name="Path 1987" d="M472.37-125.191l.486.068c-.01-.079-.1-.193.036-.276Z" transform="translate(-51.878 -0.503)" fill="#fff100"/>
    <path id="Path_1988" data-name="Path 1988" d="M472.027-125.016l.238-.094-.18-.025Z" transform="translate(-51.774 -0.582)" fill="#fff100"/>
    <path id="Path_1989" data-name="Path 1989" d="M468.368-125.8a1.493,1.493,0,0,1-.7.161,4.088,4.088,0,0,0,.84.089C468.546-125.639,468.666-125.806,468.368-125.8Z" transform="translate(-50.447 -0.382)" fill="#fff100"/>
    <path id="Path_1990" data-name="Path 1990" d="M470.14-125.677c-.014.007-.033.01-.047.017C470.122-125.635,470.145-125.627,470.14-125.677Z" transform="translate(-51.185 -0.418)" fill="#fff100"/>
    <path id="Path_1991" data-name="Path 1991" d="M463.994-125.567c.014.017.026.037.041.054,0-.017,0-.034.009-.051Z" transform="translate(-49.33 -0.451)" fill="#fff100"/>
    <path id="Path_1992" data-name="Path 1992" d="M468.917-125.4a.463.463,0,0,0,.453-.107,2.816,2.816,0,0,1-.5.051C468.853-125.416,468.849-125.388,468.917-125.4Z" transform="translate(-50.81 -0.469)" fill="#fff100"/>
    <path id="Path_1993" data-name="Path 1993" d="M466.451-126.005a2.484,2.484,0,0,0,.362.163C466.707-125.936,466.489-126.083,466.451-126.005Z" transform="translate(-50.077 -0.311)" fill="#fff100"/>
    <path id="Path_1994" data-name="Path 1994" d="M469.983-125.792c.01,0,.02-.01.031-.013C469.945-125.869,469.954-125.838,469.983-125.792Z" transform="translate(-51.145 -0.368)" fill="#fff100"/>
    <path id="Path_1995" data-name="Path 1995" d="M469.871-125.771a1.2,1.2,0,0,0-.278.182,1.621,1.621,0,0,0,.348-.1A.385.385,0,0,1,469.871-125.771Z" transform="translate(-51.033 -0.389)" fill="#fff100"/>
    <path id="Path_1996" data-name="Path 1996" d="M462.647-123.635c.037-.276.587-.53,1.062-.234.468-.207.162-1.113-.246-1.62-.015.12-.015.231-.5.394.168.15,1.067.352.661.6-.637.142-.522-.1-.831-.243.263.343-.811.5-.671,1l.558-.178C462.695-123.832,462.492-123.706,462.647-123.635Z" transform="translate(-48.757 -0.475)" fill="#fff100"/>
    <path id="Path_1997" data-name="Path 1997" d="M464.973-125.627l.2-.034a1.784,1.784,0,0,1-.685-.374c-.329.134-.4.237-.42.328l.975.038Z" transform="translate(-49.352 -0.309)" fill="#fff100"/>
    <path id="Path_1998" data-name="Path 1998" d="M466.542-125.579c-.154.3-.63.428-.338.752.58-.021.406-.25.753-.381-.937.074.269-.167-.408-.337a2.609,2.609,0,0,1,.506-.079,3.687,3.687,0,0,1-.484-.137l.022.019h0v0c.04.038.054.061.008.039,0,0-.015,0-.02.006a.346.346,0,0,1-.042.113c-.271-.062-.042-.078.042-.113a.3.3,0,0,0,.012-.045l0,0-.939.164A3.321,3.321,0,0,0,466.542-125.579Z" transform="translate(-49.835 -0.392)" fill="#fff100"/>
    <path id="Path_1999" data-name="Path 1999" d="M473.665-123.368a.089.089,0,0,1-.031-.07C473.574-123.4,473.551-123.376,473.665-123.368Z" transform="translate(-52.247 -1.099)" fill="#fff100"/>
    <path id="Path_2000" data-name="Path 2000" d="M472.942-123.916a.378.378,0,0,1,.346-.131c.193.09,0,.143.009.242.134-.079.468-.215.049-.361l-.066.041c-.378-.1-.863-.477-.8-.518A2.027,2.027,0,0,0,472.942-123.916Z" transform="translate(-51.91 -0.732)" fill="#fff100"/>
    <path id="Path_2001" data-name="Path 2001" d="M469.657-124.439l-.782.147.4.26-.02-.156C469.7-124.127,469.6-124.319,469.657-124.439Z" transform="translate(-50.815 -0.794)" fill="#fff100"/>
    <path id="Path_2002" data-name="Path 2002" d="M463.713-125.92l.1-.317-.451.447Z" transform="translate(-49.138 -0.248)" fill="#fff100"/>
    <path id="Path_2003" data-name="Path 2003" d="M462.3-125.847l.038-.276-.268.166Z" transform="translate(-48.746 -0.282)" fill="#fff100"/>
    <path id="Path_2004" data-name="Path 2004" d="M379.931-120.816l-.23.078A.876.876,0,0,0,379.931-120.816Z" transform="translate(-23.685 -1.897)" fill="#fff100"/>
    <path id="Path_2005" data-name="Path 2005" d="M382.4-120.849l.04-.135C382.368-120.91,382.336-120.855,382.4-120.849Z" transform="translate(-24.496 -1.845)" fill="#fff100"/>
    <path id="Path_2006" data-name="Path 2006" d="M426.262-125.883c-.335-.257-.708-.656-.668-.346l.1.3A.874.874,0,0,1,426.262-125.883Z" transform="translate(-37.646 -0.215)" fill="#fff100"/>
    <path id="Path_2007" data-name="Path 2007" d="M402-123.178l.1.092c.081-.1.158-.2.226-.289C402.228-123.313,402.117-123.247,402-123.178Z" transform="translate(-30.469 -1.118)" fill="#fff100"/>
    <path id="Path_2008" data-name="Path 2008" d="M401.47-121.381l-.441-.195A1.656,1.656,0,0,0,401.47-121.381Z" transform="translate(-30.173 -1.665)" fill="#fff100"/>
    <path id="Path_2009" data-name="Path 2009" d="M366.864-120.356l-.269.307C367.015-120.051,366.83-120.206,366.864-120.356Z" transform="translate(-19.697 -2.037)" fill="#fff100"/>
    <path id="Path_2010" data-name="Path 2010" d="M447.14-125.647a2.33,2.33,0,0,0-.72-.182C446.768-125.656,447.048-125.4,447.14-125.647Z" transform="translate(-43.983 -0.371)" fill="#fff100"/>
    <path id="Path_2011" data-name="Path 2011" d="M380.886-125.42c-.141.054-.2.116-.2.183C380.834-125.289,380.916-125.346,380.886-125.42Z" transform="translate(-23.985 -0.496)" fill="#fff100"/>
    <path id="Path_2012" data-name="Path 2012" d="M445.222-125.883c.051.03.1.045.152.071a2.118,2.118,0,0,1,.681-.072A.748.748,0,0,0,445.222-125.883Z" transform="translate(-43.619 -0.316)" fill="#fff100"/>
    <path id="Path_2013" data-name="Path 2013" d="M319.616-120.732a.666.666,0,0,1-.074-.036C319.535-120.727,319.567-120.725,319.616-120.732Z" transform="translate(-5.382 -1.911)" fill="#fff100"/>
    <path id="Path_2014" data-name="Path 2014" d="M305.86-125.11a2.941,2.941,0,0,1,.394-.023A.9.9,0,0,0,305.86-125.11Z" transform="translate(-1.22 -0.579)" fill="#fff100"/>
    <path id="Path_2015" data-name="Path 2015" d="M456.532-125.925c.216-.019.034-.033,0,0Z" transform="translate(-47.059 -0.336)" fill="#fff100"/>
    <path id="Path_2016" data-name="Path 2016" d="M458-124.2a.193.193,0,0,0-.086.147A.244.244,0,0,1,458-124.2Z" transform="translate(-47.48 -0.867)" fill="#fff100"/>
    <path id="Path_2017" data-name="Path 2017" d="M442.13-123.127h-.019C442.175-123.069,442.164-123.081,442.13-123.127Z" transform="translate(-42.672 -1.193)" fill="#fff100"/>
    <path id="Path_2018" data-name="Path 2018" d="M456.878-125.758a1.378,1.378,0,0,0-.276-.09A1.35,1.35,0,0,0,456.878-125.758Z" transform="translate(-47.081 -0.366)" fill="#fff100"/>
    <path id="Path_2019" data-name="Path 2019" d="M456.935-125.936c.074.014.133.021.189.029C457.151-125.957,457.126-125.989,456.935-125.936Z" transform="translate(-47.182 -0.331)" fill="#fff100"/>
    <path id="Path_2020" data-name="Path 2020" d="M456.1-125.9a1.53,1.53,0,0,1,.349.031c-.042-.02-.06-.037-.049-.047C456.338-125.911,456.249-125.9,456.1-125.9Z" transform="translate(-46.928 -0.345)" fill="#fff100"/>
    <path id="Path_2021" data-name="Path 2021" d="M344.935-121.889a.45.45,0,0,1-.047-.029C344.671-121.793,344.766-121.813,344.935-121.889Z" transform="translate(-13.055 -1.561)" fill="#fff100"/>
    <path id="Path_2022" data-name="Path 2022" d="M418.494-121.188c.01,0,.015-.01.024-.015l-.032-.01Z" transform="translate(-35.484 -1.776)" fill="#fff100"/>
    <path id="Path_2023" data-name="Path 2023" d="M417.385-121.344c.329-.376.517-.329.766-.25l-.255-.87Z" transform="translate(-35.15 -1.395)" fill="#fff100"/>
    <path id="Path_2024" data-name="Path 2024" d="M352.521-122.464l.543.271c-.655.447-1.13.293-.62.674.077-.945,2.112-.1,2.187-1.041l.358.2c-.1-.01-.119.046-.221.037.7.452.518-.683,1.415-.549.313.072.532.209.318.322l.7-.234c.2.018.153.182-.049.164l1.063-.075-.008.028a4.342,4.342,0,0,1,.663-.475c.271.136-.135.1-.066.218l.589-.229c.24.245-.248.483-.655.447.55.943.488-.237,1.675.314l-.556.12c.358.536.792.342,1.421.676-.149-.175-1.258-.843-.619-1.078a.832.832,0,0,0,.762-.085c0,.336.34.253.76.234l-.029.445c.455-.128.42-.355.687-.555.508.044.613.389.733.679.812.071-.561-.552.4-.637a3.218,3.218,0,0,0,1.959-.278c.473.153-.083.272.087.4l.42-.355c.1.008.07.118.052.173.353-.138.029-.445.584-.566.15-.491,1.14.716,1.828.159.169.127-.082.273-.03.445a5.535,5.535,0,0,0,1.583-.757l.66.292c-.485-.335.134-.73.677-1.055a4.644,4.644,0,0,0-.417-.37l.866-.239c.1.073.017.226-.125.412.059-.037.115-.073.159-.106.31.164.149.421-.072.67-.106-.088-.21-.182-.312-.275a1.221,1.221,0,0,0-.369.83.647.647,0,0,1,.283-.12c-.056.073-.091.138-.065.183s.12-.051.261-.165l.2.5.048-.2,1.133.31a6.943,6.943,0,0,1,2.8-1.44c-.319.364-.069.594-.086,1.026-.351-.456-1,.193-1.663.1.348.048.271.253.183.325l1.189-.415c-.027.353.253.264.563.41-.234-.7.886-.464,1.37-.678.03.234-.086.473-.676.417.651.525.841-.819,1.481-.373-.144.006-.222-.03-.279.088.337-.207,1.159-.043.966.161l-.143,0c.957.083,2.912.006,3.054-.587a4.274,4.274,0,0,1-.183.833l1.707-1.991c-.15.509.427,1.719-.367,2.006a1.327,1.327,0,0,0,.99-.022c-.156-.072-.388-.735-.175-.781.583.566.4.3,1.123.785-.232-.109.026-.906.394-.88-.057.119.031.787-.1.87l.916-.783c-.229.141-.04.663.164.884-.095-.153.792.015,1.037-.063l-.388-.181c1.034.118,1.021-1.1,2.048-1.06-.125.162-.307.995.215,1.093.239-.4,1.059-1.927,1.967-2.235l.174.229.7-.261a15.2,15.2,0,0,1-2.316,2.366c.387.181.108.27.687.249.2.215-.316.326-.486.338l1.349.139c-.06-.468,1.033-.47.981-.859l-1.466.485c-.059-.467.847-1.328,1.8-1.245.243.186-.182.833-.162.989.124-.161.907-.308.995-.193l-.406.25c.532.176.869-.62,1.508-.174.221.03.66.6.7.326a3.9,3.9,0,0,1-.191-2.585,7.4,7.4,0,0,1,1.412.774c.363.419-.546,1-.237,1.357.013-.127.214-.285.3-.336.232.109-.1.4.408.338.084-.474,1.025.04.239-.4.493-.136.524.1,1.1.077-.184-.306.52-1.043,1.014-1.178-.029.12.082.278.136.349,1.01.043,1.552.258,2.494.262.087.115.541.254.348.458a.952.952,0,0,1,.55-.256c.563.41-.648.064-.219.557.037-.276.752-.381,1.165-.552-.127-.426-.956-.081-1.371.09,0-.587.719-1.2,1.7-1.474.783-.145.339.379.475.3,1.469.1,1.252-1.025,2.473-.6.484.374.022.744.129,1.014-.638.142-.979-.237-1.411-.223l.532.177a1.114,1.114,0,0,1-.86.11c.406.336,2.483.065,3.617.375.2-.125.55-.255.385-.406l-.358.052c-.33-.3.675-.417.221-.558a2.5,2.5,0,0,1,1.7-.375l.127.427c-.015-.125-.443-.255-.634-.125.282-.189,1.039.577,1.349.019l-.475-.3c.483-.214,1.081-.667,1.681-.532-.273-.422-.138.048-.565-.445.37.613-1.536-.026-.942.619-.438-.572-.758-.243-1.33-.731.017.141.2.269-.3.2a.6.6,0,0,1-.111.124.219.219,0,0,1-.034-.01c.01.006.017.012.028.017-.022.021-.024.026.01.006a.587.587,0,0,1,.257.214c-.25.323-1.052.313-1.323.48-.3-.067.125-.161-.038-.312l-.4.25c-.04-.313-.795-.519-.09-.7l-.635-.014a1.675,1.675,0,0,0-1.2-.113c-.3-.067-.756.346-.5.1l-.994.193-.009-.078c-.982-.04-2.021.517-3.143-.047a2.737,2.737,0,0,1-1.225.086l-.108-.27c-.424.094-1.274-.271-1.457.011-.457-.728-2.059-.159-2.8-.288l-.029.353a6.39,6.39,0,0,0-1.643.221l.039.312c-.55.256-1.413-.222-2.282-.19.059-.12.28-.088.436-.016-1.039-.7-2.192.513-3.134,0a.593.593,0,0,1-.569,0,.122.122,0,0,0,.058-.016.67.67,0,0,0-.1,0c-.1-.054-.21-.116-.326-.166a1.068,1.068,0,0,0,.274.167,3.2,3.2,0,0,0-.725.123l-.115-.335c-.022,0-.039,0-.062.01-.264-.124-.212.159-.072.41a1.344,1.344,0,0,0-.356.2c-.215-.541-.706.182-1-.395-.182.281-1.353.212-1.5.8-.009-.077-.088-.114.057-.119a1.117,1.117,0,0,0-.869.032l-.127-.426-.655.573c-.4-.26-.563-.41-.168-.738-.954.5-.774.19-1.586.69l.04-.276c-.29.011-.754.38-.929.152-.649-.524-3.211-.072-4.877-.559.323.811-.774-.363-.84.265-.1-.191-.329-.3-.059-.467-.85.189-1.277-.3-1.865.226-.1-.193.182-.281.1-.4-.068.042-.27.167-.358.052s.125-.161.259-.244c-.868.032-.956.623-1.019,1.178-.44-.262-.66-.225-.978.138-.153-.182-.408-.372.132-.436-.3-.027-1.855-.266-1.886.178-.1-.113-.424-.033-.5.019a9.663,9.663,0,0,0-1.41-.024l.185.072c-.264.536-.556.12-1.1.184l.015-.055c-1.236-.388-.534.185-1.753-.257l.066.334c-.113.718-1.081-.423-1.788-.149l.255.191c-.387.246-1.081-.976-1.469-1.066-.085-.063.134-.1.252-.146-1.017-.424-.132.437-.889.539-.14-.236.18-.6-.33-.644-.254-.191-1.479.766-2.174.314.154.182.305.363-.046.5-.54.065-1.458-.687-1.945-.114a.2.2,0,0,1-.1-.143c-.412.148-1.339.246-1.588.557-.381-1.153-2.563.56-2.554-.5l-1.268.057.033-.109a1.524,1.524,0,0,0-1.382.44c-.187-.072-.051-.172-.035-.228a2.5,2.5,0,0,0-2.3.36l-.1-.344c-.269.2-1.712-.541-2.874-.138a.239.239,0,0,1,.128-.155c-1.307.4-3.129-.957-3.608.3l-.863.309c1.116.1-.166.545.293.754-.439.074-1.135-.378-.6-.443l.085.063c.2-.655-1.387-.232-1.357-.678-2.2.033-4.335-.33-6.392-.358l.237.509-.717-.029c-.189-.118-.253-.4.259-.377-.269-.288-.859.241-.873.353-1-.207.392-.593.084-.606l-.417.038.095.059c-.339.208-.369.429-.984.4-.389-.1-.2-.314-.353-.334,0-.036-.051-.053-.235-.015l-.9-.043.362.4c-.4.2-.85-.021-.433.434-.612-.7-3.372-.252-3.747-.47a3.281,3.281,0,0,1-1.8.253c.171.083.273.535-.319.48.216-.932-1.084-.4-1.562-1.076.427.445-1.682.11-1.012.742-.493-.076-.03-.349-.4-.568-1.175.361-2.59-.234-4.042-.113-.023.122.221.31-.091.491l-.767-.612c-.287.06-.264.706-.788.282.074.1.184.258-.008.3-2.846-.6-5.814.488-8.7-.632.392.237.131.26-.168.269.195.057,0,.3.034.468l-1.21-.461c-.221.46-1.3.031-1.424.471l.383-.079c-.51.52.713,1.154.638,1.821.571-.59,1.5.875,2.441.029.207.136-.176.215-.066.369.238-.285.524-.345,1.055-.217l-.06.071a20.633,20.633,0,0,1,3.807.4l-.124-.33a1.319,1.319,0,0,1,.6.23c.413-.5-1.012-.029-.635-.58.478.671,2.54.01,2.862.772.555,0-.162-.381.392-.377l.147.207.14-.266a.6.6,0,0,1,.56.476,1.247,1.247,0,0,0-.345.064c.471.243,1.328-.083,1.49,0l-.532-.127c1.512-.193,3.358.078,4.818-.342l-.111-.155c1.115-.288.893.17,2.118.038l-.045.037a1.572,1.572,0,0,1,.908-.215c-.31.182.582.353.176.555,1.21-.309.6-.243,1.4-.82l.184.257a1.156,1.156,0,0,1,.907-.423c-.5.221.39.393-.171.686,1.283.564,1.906-.57,2.494.255.589-.714-1.11-.4-.781-.55-.276-.233.486-.534.889-.462.41.016.7.914,1.729.9-.1,0-.11.051-.212.047.386.182.756-.246,1.23.049.265-.432.614.025.691-.526l-.946.127c.536-.144,1.039-.788,1.923-.476a1.459,1.459,0,0,1-.512.339c.258.162.5-.108.765.059-.077.551-1.15.12-1.725.54.278.233,1.087-.4.8.2.415-.759,1.017.1,1.715-.484l-.046.33a1.264,1.264,0,0,1,.543-.2l-.368.428c.566-.365,1.09.319,1.632.121-1.135.01-.255-.4-.735-.639,1.4-.442.8.863,2.373.7-.212.047-.8-.2-.465-.351a2.136,2.136,0,0,1,.876.367c1.039-.068-.159-.34.282-.542.354.4.511-.164.966-.293l0,.336c1.184.215.314-.7,1.38-.44l-.45.465.555-.12-.114.382a1.727,1.727,0,0,1,1.385-.1c-.137-.237.078-.609.6-.619.358.2-.2.319.543.271-.168.21-.351.474-.675.165-.033.109-.166.21-.2.319.385.229.968.052,1.237.049a.7.7,0,0,1-.292-.078l1.078-.465c.17.126.035.228-.1.326.218-.036.369-.191.69-.219-.083.273-.063.555-.518.683l1.027-.3c.069.119.527.326.394.427.569.161,1.4-.529,2.151-.317a.466.466,0,0,1,.278-.143c.71.061,1.338.4,2.178.022l.477.489c.659-.111-.646-.616.451-.8.776-.156.289.417.562.553.385-.246,1.057-.748,1.77-.35A2.6,2.6,0,0,1,352.521-122.464Zm8.12-.217c-.158.07-.471.288-.587.09C360.233-122.976,360.372-122.791,360.64-122.681Zm12.343-.808c-.117.111-.3.056-.5-.071A.823.823,0,0,1,372.983-123.489Zm34.384-2.336a.075.075,0,0,0-.017.016C407-125.94,407.124-125.889,407.367-125.825Zm.728.145c.073-.047.068-.093.038-.141-.051.085-.215.091-.4.067C407.784-125.665,407.878-125.6,408.1-125.68Zm-78.262.132.142.088C329.655-125.363,329.745-125.45,329.834-125.548Z" transform="translate(-0.255 -0.162)" fill="#fff100"/>
    <path id="Path_2025" data-name="Path 2025" d="M401.661-121.584a.376.376,0,0,1-.067-.183C401.532-121.711,401.531-121.645,401.661-121.584Z" transform="translate(-30.333 -1.607)" fill="#fff100"/>
    <path id="Path_2026" data-name="Path 2026" d="M367.03-120.44c-.008,0-.017,0-.025,0a.154.154,0,0,0-.024.061Z" transform="translate(-19.815 -2.01)" fill="#fff100"/>
    <path id="Path_2027" data-name="Path 2027" d="M437.834-121.3a.6.6,0,0,1-.289-.173C437.536-121.391,437.6-121.321,437.834-121.3Z" transform="translate(-41.283 -1.697)" fill="#fff100"/>
    <path id="Path_2028" data-name="Path 2028" d="M459.533-126.134l-.467.088a.657.657,0,0,1,.42.11C459.476-126.015,459.387-126.128,459.533-126.134Z" transform="translate(-47.83 -0.279)" fill="#fff100"/>
    <path id="Path_2029" data-name="Path 2029" d="M465.5-123.237c.068-.042.145,0,.212-.047l-.019-.156C465.4-123.429,465.195-123.3,465.5-123.237Z" transform="translate(-49.741 -1.099)" fill="#fff100"/>
    <path id="Path_2030" data-name="Path 2030" d="M460.358-124.588c.037.282.33.186.657.134a.229.229,0,0,1-.058,0C461.053-124.849,460.7-124.718,460.358-124.588Z" transform="translate(-48.223 -0.71)" fill="#fff100"/>
    <path id="Path_2031" data-name="Path 2031" d="M461.411-124.389a1.157,1.157,0,0,1,.3-.007C461.751-124.554,461.591-124.429,461.411-124.389Z" transform="translate(-48.544 -0.784)" fill="#fff100"/>
    <path id="Path_2032" data-name="Path 2032" d="M455.381-125.732c.154.072.1-.361.185-.246C455.739-126.337,454.532-125.543,455.381-125.732Z" transform="translate(-46.616 -0.297)" fill="#fff100"/>
    <path id="Path_2033" data-name="Path 2033" d="M460.607-123.346l-.117-.349-.183.281Z" transform="translate(-48.208 -1.021)" fill="#fff100"/>
    <path id="Path_2034" data-name="Path 2034" d="M457.027-123.586l.523.1c-.008-.058.058-.093.14-.119C457.368-123.62,457.015-123.689,457.027-123.586Z" transform="translate(-47.21 -1.037)" fill="#fff100"/>
    <path id="Path_2035" data-name="Path 2035" d="M457.979-123.619a.82.82,0,0,0,.421-.058A1.881,1.881,0,0,0,457.979-123.619Z" transform="translate(-47.5 -1.026)" fill="#fff100"/>
    <path id="Path_2036" data-name="Path 2036" d="M459.483-123.086l-.154-.073-.369-.026Z" transform="translate(-47.798 -1.176)" fill="#fff100"/>
    <path id="Path_2037" data-name="Path 2037" d="M448.7-123.658l-.57.1c-.058.12.1.193.31.145C448.576-123.5,448.787-123.542,448.7-123.658Z" transform="translate(-44.499 -1.032)" fill="#fff100"/>
    <path id="Path_2038" data-name="Path 2038" d="M451.316-122.4c-.154-.072-.164-.15-.251-.265l-.017.432Z" transform="translate(-45.391 -1.333)" fill="#fff100"/>
    <path id="Path_2039" data-name="Path 2039" d="M448.863-122.141c-.057.12-.827.344-.105.317C448.816-121.943,449.387-122.043,448.863-122.141Z" transform="translate(-44.601 -1.493)" fill="#fff100"/>
    <path id="Path_2040" data-name="Path 2040" d="M436.694-123.239l.145-.005-.021-.709Z" transform="translate(-41.024 -0.942)" fill="#fff100"/>
    <path id="Path_2041" data-name="Path 2041" d="M425.779-120.728c.676.17.161-.438.771-.225.159-.168-.5-.173-.336-.318C425.806-121.094,425.592-121.194,425.779-120.728Z" transform="translate(-37.683 -1.758)" fill="#fff100"/>
    <path id="Path_2042" data-name="Path 2042" d="M426.434-121.318a1.484,1.484,0,0,0,.208-.107A.671.671,0,0,0,426.434-121.318Z" transform="translate(-37.903 -1.711)" fill="#fff100"/>
    <path id="Path_2043" data-name="Path 2043" d="M303.382-125.705l-.435-.148.281.238Z" transform="translate(-0.334 -0.364)" fill="#fff100"/>
    <path id="Path_2044" data-name="Path 2044" d="M302.214-125.082l-.1-.452-.261.408C301.949-125.146,302.14-125.185,302.214-125.082Z" transform="translate(0 -0.461)" fill="#fff100"/>
    <path id="Path_2045" data-name="Path 2045" d="M387.566-119.806l.033-.109c-.068-.118-.169-.126-.373-.145Z" transform="translate(-25.974 -2.127)" fill="#fff100"/>
    <path id="Path_2046" data-name="Path 2046" d="M379.206-120.356l.1.009-.19-.408Z" transform="translate(-23.507 -1.915)" fill="#fff100"/>
    <path id="Path_2047" data-name="Path 2047" d="M372.133-119.531c.2.017.439-.074.642-.056C372.335-119.514,372.078-120.04,372.133-119.531Z" transform="translate(-21.38 -2.219)" fill="#fff100"/>
  </g>
</svg>
