<svg xmlns="http://www.w3.org/2000/svg" width="26.5" height="62.282" viewBox="0 0 26.5 62.282">
  <g id="Group_229" data-name="Group 229" transform="translate(-373.786 -549.145)">
    <path id="Path_1949" data-name="Path 1949" d="M383.753,611.2a3.383,3.383,0,0,1-1.079-.248,5.009,5.009,0,0,0-.934-.241l-.1-.137-.145-.211-.052-.078h-.261l-.1-.192-.041-.091h-.319l-.183-.183V609.5l-.089-.029-.192-.1v-.423l-.092-.049-.1-.04-.1-.048v-.349h-.138v-.578h-.175l-.068-.359h.1V606.9h-1.182v.175l-.343.08-.1.029L378,607.2l-.038.065-.1.2h-.348v.222a1.148,1.148,0,0,1-.208.035c-.051.006-.129.006-.219.022l-.1.024-.032.108c-.079.367-.192.448-.664.448h-.18l-.1-.329-.008-.013-.021-.029a5.139,5.139,0,0,1-.28-1.853h.178v-1.69h.14v-.85h.143v-1.133h.14v-.709h.141v-.7h.141v-.28h.133v-.424h.156v-1.276h.143v-.423h.135v-.418h.138V597.14l.194-.094.068-.043.018-.078.113-.569h.129l.038-.118a1.837,1.837,0,0,0-.211-1.424,3.582,3.582,0,0,1-.2-.586h.13v-.469h-.137v-1.133h-.143v-1.416l-.138.006v-.056l.1-.094.275-.278h-.37v-.273h-.159l-.054-.745-.076-.957-.01-.138h-.135v-.432h-.133v-.564h-.141v-.566H376.3v-.564h-.14v-.569h-.143v-1.362l-.111-.038-.075-.024-.283-.084a1.6,1.6,0,0,1,.116-.745,1.136,1.136,0,0,0,.067-.245l.016-.189h-.159v-.276h-.132v-.706h-.145v-.567h-.135v-.28h-.143v-.85h-.151v-1.241l-.28-2.985-.014-.159h-.13V575l-.037-.2a2.771,2.771,0,0,1,.03-1.436l.084-.221h-.362V570.44h-.132v-1.754l-.089-.056a.146.146,0,0,1-.06-.111h.149v-.893h-.1c0-.025.006-.025.006-.035a.774.774,0,0,0,.089-.482h.124l.008-.164.278-3.373h.156v-.429h.132v-.7h.143v-.286h.151v-.465H374.9a2.075,2.075,0,0,1,.043-.313c.025-.2.056-.413.078-.621h.27l.021-.154.057-.451.059-.394h.16V559.2h.143v-.273h.146v-.5l.187-.1.1-.033v-.23h.127l.013-.146.071-.642.057-.543.2-.094.03-.024.032-.044a2.169,2.169,0,0,0,.3-1.195h.289v-.418h.459l-.043-.2a5.171,5.171,0,0,1,.029-1.7c.038-.307.092-.655.114-1.085h.238l.048-.106.052-.213.048-.094h.186v-.423h.065l.044-.068.045-.071a1.317,1.317,0,0,0,.245-.467l.33-.11.122-.046v-.14l.305-.1.067-.021.038-.071.106-.227a1.744,1.744,0,0,1,.518-.13,2.1,2.1,0,0,0,.547-.114l.113-.046v-.087h.427v-.186c.064,0,.14-.013.218-.013a3.583,3.583,0,0,1,1.212.332,6.676,6.676,0,0,0,.774.27v.3h.327l.241.731.043.122h.089v.5l.1.043.181.1h.01a8.846,8.846,0,0,1-.251,1.217l0,.024-.033.041a1.932,1.932,0,0,1-.367.883l-.091.062-.151.065-.073.035-.01.065-.1.3h-.332v.283h-.2l-.057.087a1.037,1.037,0,0,1-.551.372,2.28,2.28,0,0,0-.547.289,2.378,2.378,0,0,0-.437.893l-.124.338h-.211v.491l-.092.046-.091.049-.068.025-.011.087-1.276,6.212v1.43h-.138l-.014.167-.133,2.971v.127a4.963,4.963,0,0,1-.04.515,1.158,1.158,0,0,0,.04.667v.41h.47v-.233a4.577,4.577,0,0,0,.475-.545,2.007,2.007,0,0,1,1.214-.926l.153-.014V567.8a2.677,2.677,0,0,0,1.168-.292l.1-.046v-.1l1.279-.258.129-.036v-.111h.651v.167l.18-.016,1-.079.8-.057v.137h.427v.183l.2-.056.47-.111a.477.477,0,0,0,.361.13,1,1,0,0,0,.138-.016h.659v.149h.289v.137h.561v.1l.118.025.207.075.526.173v.192h.359l.2.253.176.248.526.456.432.358v.384h.2l.1.3.017.068.043.029.361.229v.364h.167l.114.437.035.124h.1v.426h.14v.418h.18l.084.345.025.1.029.127h.141l.106.5.143.637.03.078.057.043.189.094v.346h.14v.785l.091.038.2.1v.572l.092.043.091.049.1.041v.772h.135v.432h.141v.275h.143v.221l.1.043.13.071.116.06a2.6,2.6,0,0,1,.767,1.33.885.885,0,0,1-.13.078c-.111.087-.141.106-.535.137h-.122l-.035.114-.024.116a.368.368,0,0,0-.037.133h-.009s-.064.009-.111.021l-.132.029-.125.04.014.137c.013.189.032.3.041.381a1.1,1.1,0,0,1-.025.429,4.245,4.245,0,0,1-1.184-.313,5,5,0,0,0-.75-.243l-.27-.056.073.267.084.354h0l-.051.056a.421.421,0,0,1-.359.208,1.958,1.958,0,0,1-.354-.068.517.517,0,0,1-.16-.035l-.079-.245-.033-.089-.021-.054-.038-.03-.323-.218-.029-.022v-.5h-.532l-.062.071-.348.456-.443.6h-.362v.289h-.207l-.064.086c-.075.13-.075.13-.172.2l-.079.048-.048.127v.372l.092.056a1.457,1.457,0,0,1,.758.875l.029.1.1.025a1.661,1.661,0,0,1,1,1.158l.03.127h.276a.815.815,0,0,0,.138.4.976.976,0,0,1,.113.431l.027.143h.262v.57h.288v.643l.091.046.094.043.094.048v.5h.141v.566h.141v.7h.14v.71h.145v.836h.135V592.2h-.132l0,.162-.078.847-.052.689h-.154v.421h-.141v.577h-.141v.345c-.065.025-.132.052-.2.084l-.064.043-.016.075-.068.329-.049.253h-.1l-.041.089-.1.192h-.268l-.04.059-.289.357-.234.283h-.427l-.025-.01-.057.01-.03.013-.419.141-.114.044v.083h-.281v.386l.046.049a.292.292,0,0,1,.065.059.636.636,0,0,0,.032.156l.041.118h.27a.514.514,0,0,0,.261.335l.13,1.071.019.086.075.044.1.046.037.016-.025.04-.051.091-.125.248h.276l.049.218.068.348.014.067.054.038.221.146.135.1.143,1.624,0,.148h.17a5.334,5.334,0,0,1-.1,2.015l-.049.215a1.835,1.835,0,0,0-.71.281,1.709,1.709,0,0,1-.6.268l-.132.036v.55l.143.017.348.065.358.071.194.048v-.321h.5l.041-.07a2.524,2.524,0,0,1,.37-.478,2.55,2.55,0,0,0,.485-.674l.149-1.458h.149v-.432h.1l.035-.1.07-.224.033-.089h.332v-.276h.416v-.3l1.732-.13.17.224.207.277.073.1.11-.033.213-.072v.218h.61v-.075l.086.025v.467h.373l.049-.027a.7.7,0,0,1,.059-.065l.035.006-.021.046-.048.094-.092.17.189.049.381.137a1.046,1.046,0,0,1,.186.507l.025.1.024.091.1.024.122.029a.883.883,0,0,0,.129.046s.01.048.014.094l.049.146.027.124h.122l.038.245.084.45.021.153h.122v.283h.183a2.934,2.934,0,0,1-.124,1.107,1.173,1.173,0,0,0-.03.149l-.159.052-.187.065-.108.032v.089h-.278v.168l-1.12.111h-.737l-.091-.183-.057-.1H396.8v-.072l-.108-.043-.567-.289-.234-.121v.338a1.506,1.506,0,0,0-.338.488,1.759,1.759,0,0,1-.148.272h-.14l-.04.064-.38.489h-.289l-.043.071-.512.642h-.284l-.064.065-.2.289-.17.227-.923.127-.091,0-.043.086-.087.181h-.346V610H391.5v.152l-1.115.065-1.087.062v-.137h-.429V610h-.283v-.151h-.558a1.678,1.678,0,0,1-.4-.267c-.143-.1-.261-.194-.391-.267l-.249-.133v.573a1.572,1.572,0,0,0-.521.316l-.121.1-.068.062v.049H386v.149h-.283v.14H385.3v.133h-.434v.145h-.283v.133h-.561v.181a.973.973,0,0,1-.265.033" transform="translate(0.065 0.06)" fill="#fff" fill-rule="evenodd"/>
    <path id="Path_1950" data-name="Path 1950" d="M392.636,584.276l-1.8-2.81-1.435-1.431-1.757.4-3.433-.143-1.943-.809-1.883-1.406-1.522-2.585-.534-1.8v-1.821l.847-2.76-.362-2.429.335-5.411,1.8-6.709.291-.955-1.447-.726-1.9-.184-1.818,4.05-1.557,4.63-.446,5.16.831,9.561.742,5.519,1.149,5.483,1.063,6.8,5.413.3,2.469-.137.583-.267,1.171.637,1.627.685s1.8-.111,2.057-.111c.242,0,1.358-1.006,1.358-1.006l1.211-5.17m-5.413-2.042-1.77.316-1.153.448v-.941l-.763-.5-.394-1.951.2-.953.54-.9,1.552-.572h.265l1.273.618.736,1.018.079,1.43Z" transform="translate(0.164 2.093)" fill="#ffec00" fill-rule="evenodd"/>
    <path id="Path_1951" data-name="Path 1951" d="M383.824,549.755v.3h.3c.091.276.183.548.283.837h.135v.572c.092.046.187.092.283.13a6.019,6.019,0,0,1-.283,1.414,2.5,2.5,0,0,1-.418,1c-.094.041-.2.094-.3.14-.045.14-.092.286-.141.431H383.4v.276h-.281c-.267.416-.744.4-1.12.712a5.828,5.828,0,0,0-.578,1.265h-.133v.426c-.091.049-.2.084-.281.14q-.639,3.11-1.276,6.225v1.551h-.145c-.046,1.041-.091,2.067-.135,3.1,0,.524-.14.931,0,1.123v.294h.135v-.143c.572-.483.952-1.449,1.835-1.56v-.276a2.615,2.615,0,0,0,1.277-.283v-.143c.478-.1.945-.191,1.42-.284v-.14h.985V567c.655-.049,1.32-.087,1.98-.14V567h.419v.134c.186-.04.373-.088.566-.134a.36.36,0,0,0,.421.134V567h.145v.134h.707v.151h.28v.143h.575v.13c.273.1.561.2.842.292v.137h.284c.138.192.275.381.413.577.329.276.663.559.988.833v.294h.151c.043.133.092.283.143.423.134.091.278.183.419.286v.281h.138c.054.18.1.364.143.556h.137v.431H394v.423h.154c.046.183.094.375.138.562h.137c.1.412.189.85.284,1.271.092.051.2.1.281.146v.273h.14v.853c.094.046.188.1.28.143v.564c.1.048.2.1.286.143v.709h.138v.421h.137v.3h.157v.267c.091.046.183.1.283.148a2.752,2.752,0,0,1,.842,1.555c-.365.192-.237.248-.842.273-.113.394-.049.323-.44.424a2.136,2.136,0,0,1,0,.993,8.7,8.7,0,0,1-2.115-.564c.048.186.092.372.14.564h-.14c-.343.419-.618.249-1.131.143-.038-.143-.086-.286-.133-.424l-.426-.283v-.429h-.281c-.286.389-.561.755-.845,1.136h-.281v.276h-.288a.6.6,0,0,1-.273.3v.273a1.706,1.706,0,0,1,.842.993,1.86,1.86,0,0,1,1.126,1.268h.281c.068.612.2.373.278.99h.294v.566h.278v.71c.087.043.187.1.28.133v.426h.143v.57h.137v.707H394v.7h.154v.856h.138v2.393h-.138c-.067.57-.094,1.133-.154,1.687h-.14v.435h-.137v.558h-.143v.3c-.092.04-.192.089-.28.137-.054.232-.1.466-.145.7h-.134c-.051.094-.1.189-.143.286h-.284c-.192.232-.372.465-.572.7H391.6v.146c-.2.033.006-.038-.137-.146-.138.043-.288.094-.423.146v.137h-.281v.148c.156.146.048,0,.135.267h.281c.1.435.24.324.288.435.04.375.087.748.137,1.13.1.046.192.091.286.146-.057.083-.094.18-.148.273h.148c.043.242.091.474.135.7.146.1.289.2.427.286.054.567.1,1.131.145,1.71h.133a5.793,5.793,0,0,1-.133,2.529c-.653.079-.788.427-1.417.561v.289c.24.046.472.1.71.143v-.276h.562c.234-.4.663-.71.85-1.139.052-.521.087-1.03.141-1.557h.138v-.416h.143c.048-.133.094-.283.137-.426h.294v-.286h.426v-.281c.648-.044,1.306-.087,1.972-.146.141.192.283.391.421.583.14-.062.284-.1.426-.156v.286h.28v-.13c.138.035.3.087.432.13v.426h.138c.162-.124-.06-.124.143-.133.1.04.187.086.284.133a2.882,2.882,0,0,0-.145.28c.145.052.283.1.419.137a1.5,1.5,0,0,1,.286.707c.384.1.315.046.418.421h.143c.043.292.089.566.151.852h.138v.278h.143a3.262,3.262,0,0,1-.143,1.562c-.138.046-.289.1-.432.133v.146h-.283v.145c-.421.048-.84.1-1.262.137-.216.041.048.153-.137.146v-.146h-.716c-.046-.089-.1-.186-.145-.281h-.419v-.146c-.187-.087-.378-.183-.561-.28v.146c-.3.245-.346.531-.574.844h-.145c-.132.192-.28.381-.419.573h-.281c-.189.234-.375.462-.559.7h-.294c-.137.192-.28.378-.418.57-.329.041-.659.094-.991.137-.048.091-.092.183-.138.28h-.289v.149h-.283v.141c-.844.048-1.7.1-2.537.132v-.132h-.427v-.141h-.281v-.149h-.421c-.262-.111-.575-.41-.848-.556v.426a1.487,1.487,0,0,0-.705.421v.132h-.276v.141h-.284v.153h-.427v.137H385.1v.137h-.284v.146h-.567v.146c-.867.251-1.732-.388-2.544-.429-.092-.137-.2-.289-.288-.431h-.276a2.575,2.575,0,0,1-.138-.273h-.286l-.275-.28v-.286c-.1-.043-.191-.1-.288-.14V609.1c-.092-.041-.2-.091-.288-.14v-.283h-.14v-.564h-.145c-.046-.237-.091-.472-.135-.705h.135v-.291h-.845v.146c-.183.056-.378.1-.559.145-.044.1-.1.194-.154.283h-.28v.137c-.184.137-.249.1-.561.143-.129.58-.419.6-1.138.574-.043-.143-.087-.291-.137-.431a4.483,4.483,0,0,1-.28-2.119h.133v-1.7h.146v-.844h.137v-1.126h.159v-.713h.133v-.7h.143v-.286h.138v-.42h.14v-1.274h.132v-.416h.156v-.423h.137v-1c.1-.043.186-.089.281-.137.041-.238.1-.466.138-.7h.141c.28-.834-.435-1.452-.426-2.129h.146v-.133h-.146v-1.136h-.135V591.44s-.141.03-.137-.286l.137-.133h-.137v-.283H376.9c-.037-.613-.087-1.222-.132-1.84h-.14v-.42h-.138V587.9h-.143v-.558h-.133v-.569h-.159v-.564h-.137v-1.133h-.146v-.137h.146v-.133c-.146-.052-.28-.1-.424-.149-.184-.348.127-.958.145-1.13h-.145v-.28h-.13v-.71h-.146v-.567h-.146v-.283h-.143v-.844h-.135v-1.409c-.091-.99-.184-1.97-.283-2.97h-.14v-1.412a3.106,3.106,0,0,1,0-1.7h-.289v-2.679h-.143v-1.84a.375.375,0,0,1-.133-.427h.133v-.562H373.8c-.019-.161.365-.717,0-.717V567h.276c.089-1.176.184-2.347.289-3.526h.14v-.434h.146v-.705h.137v-.278h.135v-.146h-.135c-.022-.221.135-.813.135-1.263h.289c.045-.338.092-.664.146-.987h.13v-.572h.145v-.281h.133v-.419c.1-.062.2-.1.283-.146v-.288h.159c.044-.419.091-.845.133-1.26.1-.054.183-.106.281-.149a2.243,2.243,0,0,0,.272-1.273h.292v-.423h.419a12.481,12.481,0,0,1,.141-2.96h.28c.049-.14.11-.3.154-.427h.143v-.426h.13a1.2,1.2,0,0,0,.286-.57c.148-.044.284-.1.423-.137v-.146c.148-.043.288-.091.423-.13a3.207,3.207,0,0,0,.145-.3c.308-.2.759-.13,1.134-.276v-.141h.423v-.14c.853-.254,1.827.483,2.536.558m-4.512,1.7h-.286c-.046.13-.1.288-.137.427h-.148c-.049.23-.087.466-.14.705h-.146c.056.135.1.288.146.411-.025.214-.091-.046-.146.143v1.279c.286.049.286.145.286.145h.99v.132c.183.043.372.1.567.145v.137c.465.052.945.1,1.411.153.291-.494.427-.289.855-.566v-.145c.189-.146.375-.286.556-.426v-.418c.4-.11.323-.035.427-.435a2.487,2.487,0,0,0,.276-1.557c-.354-.3-.092-.38-.276-.7H383.4c-.135-.186-.281-.378-.419-.561-.229-.165-.327,0-.561-.276-.373-.056-.763-.1-1.133-.143-.483.118-.9.446-1.417.556a3.834,3.834,0,0,0-.559,1m-.71,44.082c2.027.192,4.051.372,6.074.558v-.133c.521-.052,1.034-.1,1.563-.137v-.151c-.461-.315-.215-.475-.439-.993h-.138v-.27h-.135v-.432h-.146v-.421h-.14v-.28H385.1v-1.136h-.148a.221.221,0,0,1,.148-.273c.092-.485-.178-.683-.148-1,.017-.2.17.062.148-.134h-.148v-.424h.148c.037-.276-.365-.718-.148-1.133.148-.049.284-.091.424-.146V588.9a2.688,2.688,0,0,0-.844-.42c-.094-.431-.188-.847-.284-1.277h-.133v-.283h-.141a8.365,8.365,0,0,1,.275-1.552c.235-1.141,1.663-1.859,3.108-1.837v.149c.232.033.472.086.709.13v.143h.288c.37.475.748.945,1.126,1.414.049.605.091,1.23.138,1.835h-.138v.847h-.141v.431H389.2v.42c-.052.13-.434.1-.28.566.094.052.186.1.28.141v.432h.143v1.257a8.394,8.394,0,0,1,.416,2.126h-.7c-.084-.153-.241-.227-.288-.289v-.283h-.137v-.7h-.145v-.993h-.133v-.133c.046-.149.086-.283.133-.426h-.133v-.145h.133c.019-.283-.31-.582-.289-.709h.156c.046-.089.086-.183.133-.278h-.133v-.152c-.678.124-1.878.164-2.556.294.049.934.092,1.884.154,2.825h.14v1.133h.145v.281h.137v.273c.1.056.189.1.284.153v.7h.138c.1.28.178.572.286.86a2.049,2.049,0,0,1,.84.559v.143c.181.046.388.092.566.137v.14h.709v.141a4.839,4.839,0,0,0,1.975-.141v-.14h.424v-.137a1.172,1.172,0,0,1,.567-.286,4.25,4.25,0,0,1,.559-1v-.28h.151c.043-.329.092-.651.143-.987h.134v-.421h.145v-2.269h.141c.046-.245-.133-.234-.141-.273v-.707h-.145v-.85h-.134v-.842h-.143v-.143c.086-.111.2.041.143-.151h-.143v-.28h-.151c-.038-.372-.086-.755-.133-1.13h-.145v-.276h-.138v-.3h-.143v-.275h-.146v-.419h-.135v-.286h-.148v-.287c-.091-.051-.187-.091-.275-.137-.27-.373.143-.257-.423-.429V584.1a2.937,2.937,0,0,1-1.136-1.419c-.391-.091-.391-.273-.419-.276-.415-.164-1.118.364-1.414.426-.059.011-.933-.143-1.271-.149a10.3,10.3,0,0,1-3.4-.276v-.143h-.419c-.043-.1-.092-.2-.138-.287-.191-.041-.372-.091-.564-.13-.051-.1-.1-.2-.143-.3h-.292c-.089-.13-.186-.276-.28-.419h-.276c-.044-.1-.091-.192-.143-.281h-.28c-.145-.187-.284-.38-.419-.566h-.288c-.056-.146-.092-.28-.151-.424-.137-.087-.276-.187-.421-.28v-.569h-.135v-.284c-.094-.041-.2-.091-.288-.14v-.423c-.094-.049-.184-.1-.275-.146v-.281h-.148v-.7h-.14c-.043-.192-.091-.378-.146-.564h-.13v-.845h-.143c-.044-.334-.1-.666-.154-.988h.154v-.143h-.154v-.153h.154v-1.126c.143-.09.273-.183.419-.28-.043-.092-.091-.183-.146-.284a2.976,2.976,0,0,0,.286-.137V571.8h.148a2.588,2.588,0,0,0-.148-1.273c-.049-1.222-.087-2.45-.14-3.673h.14V565.3h.148v-1.136h.137v-1.539h.138V562.2h.148v-.421h.14c.045-.481.089-.947.135-1.412h.145v-.292h.14v-.561h-.14v-.153h.14v-.828a5.423,5.423,0,0,0,.427-1.568h.423V556.4h.286v-.562a1.807,1.807,0,0,1-.286-.281h-.85c-.051-.1-.092-.2-.14-.289-.523-.046-1.039-.094-1.549-.133a1.343,1.343,0,0,1-.289.273v.431c-.092.038-.194.1-.286.13v.3h-.138v.423a2.854,2.854,0,0,1-.281.132c-.091.475-.183.95-.292,1.416h-.132v.292a2.37,2.37,0,0,0-.278.137v.27h-.143c-.043.388-.089.759-.133,1.134h-.159v.426h-.137v.423h-.146v.427h-.133v.85h-.145v.429h-.13v.7h-.146v.836a12.059,12.059,0,0,0-.561,4.8h.137c.006.2-.222.238-.137.574h.137V571.1h.135c-.045.427-.091.844-.135,1.263h.135v1.706h.143v1.126h.146v1.276h.146v1h.13v1.684h.145v.984h.133v.572h.146v1.266h.137v.567h.159v.569h.133c.1.378-.221.71,0,1.268h.143v.283h.138v.42h.14c.044.381.1.763.132,1.133h.156v.288h.137c.043.566.1,1.133.135,1.7h.146v.284a2.012,2.012,0,0,1,.28.143v1.12h.145v.572h.135v1.268a10.129,10.129,0,0,0,.3,1.266v1.422a5,5,0,0,1,.276,1.273m2.82-23.184c-.1.4-.032.329-.415.434-.157.156,0,.057-.286.14v.28c-.183.143-.375.286-.562.434v.273h-.151v.146h-.276v.137h-.419c-.059-.232-.1-.462-.148-.7h-.275a6.566,6.566,0,0,0,.137,3.116h.138v.272h.148c.089.426.184.848.275,1.276.1.048.192.1.284.14v.423h.137c.059.192.1.375.151.561.1.056.188.1.288.153v.273c.092.059.183.091.275.146.191.232.372.472.567.707h.276c.052.1.094.186.145.283H382v.138c.254.094.2-.073.28-.138.141.043.284.089.419.138v.143h.283c.044.1.091.194.138.289h.281c.046.091.091.186.146.273.184.056.373.1.572.152v.13h.7a13.967,13.967,0,0,0,3.537.143v-.143h.278v-.13c.343-.162.8-.168,1.123-.3.054-.13.1-.276.145-.419h.294c.278-.5.807-.658.977-1.271h.288c.1-.392.035-.323.423-.419.091-.338.181-.661.281-.99l.426-.286c.048-.28.1-.564.133-.85.1-.052.194-.092.294-.14v-.421h.134v-.423h.145V575.9h.141v-.99h.138v-.141h-.138v-1.555H393.3v-.28h-.145v-.421h-.134v-.426h-.143c-.052-.238-.1-.469-.151-.71h-.133v.287h-.707c-.094-.14-.191-.287-.286-.431h.421V571.1c-.45-.1-.518-.186-.558-.7.087-.081.365-.335.275-.575H391.6c-.137-.54-.411-.434-.559-.983-.842-.332-1.7-.661-2.548-.99H387.5v-.14h-1.549v.14h-1.417v.137c-.235.062-.464.1-.713.153-.141.183-.276.369-.423.555h-.135v.28c-.089.049-.194.091-.284.149v.424h-.138v.426H382.7v.707h-.135c-.176.55.038,1.325-.284,1.682v.153h-.435v-.153Zm6.5-4.089v.421h-.145v.146h-.7v-.146c-.234-.167-.777-.006-.99-.13v-.151c-.162-.156-.059,0-.14-.273a2.69,2.69,0,0,1,.98-.153v.153h.7c.027,0-.019.079.286.133m-1.686.85c.369.053.737.092,1.122.143v.424h-.14v.133h-.845a1.56,1.56,0,0,1-.137-.7m2.82,2.256c.046-.183.1-.37.14-.556h.284v-.85c-.806.037-.731.323-1.414.426.056-.507.17-.426.288-.852a5.969,5.969,0,0,1,1.265-.151c.229.4.354.261.418.856h.157v.146h-.157v.558a1.4,1.4,0,0,1-.556.28v.143Zm2.677.856a4.036,4.036,0,0,1-.979-.146v-.562a1.517,1.517,0,0,1,.566-.148c.154.16,0,.065.275.148a1.553,1.553,0,0,1,.138.709m-2.817,3.667v.852c-.7.4-1.343,1.384-2.121,1.7h-.559a3.658,3.658,0,0,1-1.7.137v-.137c-.235-.052-.464-.1-.713-.146-.276-.332-.558-.658-.842-.99v-.983c.091-.049.2-.1.284-.149-.048-.092-.089-.176-.146-.28.1-.043.192-.1.281-.138v-.283h.146c.045-.143.1-.286.135-.423h.437c.245-.17.172-.813.7-.717v.153c.431.151.707.238,1.134.418v.146h.705v.137h.275v.143c.24.049.467.089.7.143v.145h.286v.138c.337.043.659.1.995.138m-1.416,1.412c.089-.413.162-.456.566-.561-.054-.137-.1-.283-.145-.423-.286-.049-.564-.1-.84-.149v-.137c-.238-.04-.477-.1-.709-.143v-.138H385.8v-.138c-.273-.1-.559-.2-.844-.287-.043-.1-.089-.189-.137-.28l-.145.137c-.373.227-1.017,1.422-.7,1.84a.779.779,0,0,0,.7.7,1.83,1.83,0,0,0,1.419.281v-.133h.7v-.148a1.83,1.83,0,0,1,.705-.423m-12.58,3.252h.143v-.283h-.143Zm10.877,7.915v.556h.154V588.9h1.97v-.14h.432c.046-.472.086-.947.133-1.414h.145c-.051-.7-.087-1.412-.145-2.121-.78-.458-.812-1.066-2.115-1.125-.246.278-.329.118-.575.278v.137c-.229.2-.464.385-.7.566-.219.3.137.157-.284.431.056.192.2.241.137.562h-.137v.847a3.954,3.954,0,0,1,.284,1.13c.3.173.307.319.7.431m-7.345,7.911a8.4,8.4,0,0,1-.427,1.13c-.087.85-.184,1.694-.28,2.544h-.141v.426h-.138c-.049.462-.1.937-.146,1.409h-.135v.567h-.137v.85H376.9c-.037.6-.087,1.214-.132,1.829h-.14v.434h-.138c.04.094.1.176.138.283-.037.133-.1.276-.138.427v.13h.138a.263.263,0,0,1-.138.289v.13h.138v.707a.957.957,0,0,0,.7-.281v-.146h.426c.052-.087.1-.183.145-.28.245-.04.47-.091.709-.13v-.143h.288v-.146h1.692c.931-.049,1.891-.1,2.82-.13h.852c.038,0,.059.172.284.13v-.13h.99s-.03-.151.273-.151l.154.151v-.151c.47-.048.939-.1,1.406-.143v-.133h.709V605.7h.7v-.127h.427v-.156h.559v-.14h.145c.081.051.016.221.294.14v-.14c.273-.046.561-.092.842-.138v-.133h.559v-.153c.313-.335.159-1.648.138-2.243-.246-.313.067-.86-.138-1.279-.1-.046-.184-.1-.275-.146V600.9a2.363,2.363,0,0,1-.284-.14V600.2h-.146v-.424h-.135V599.5h-.141v-.434h-.146v-.423c-.089-.043-.183-.091-.273-.133v-.286h-.157c-.184-.313.072-.2-.281-.421-.458-.432-.612-.032-1.268-.283v-.137H388.2v-.146h-.421c-.044-.1-.091-.192-.141-.286h-.418v-.141c-.137-.1-.286-.184-.423-.276v-.143c-.234-.09-.262.13-.283.143l-2.262.137c-1.922-.091-3.862-.184-5.8-.28m16.954,5.8v.13h-.419v.143c-.138.046-.281.091-.415.149.075.267-.03.1.133.267v.146c.33.052.658.1.987.137.046.1.091.2.138.284.451.251.373-.238.577.423.691.648-.229,1.738.419,2.417a1.85,1.85,0,0,0,2.261.276,2.2,2.2,0,0,0,.141-.859h-.141c-.054-.326-.1-.651-.145-.983h-.137c-.044-.192-.094-.369-.138-.567h-.145v-.283c-.1-.035-.186-.091-.283-.133a3.963,3.963,0,0,0-2.834-1.546m-.985,1.406c-.091.462-.181.931-.275,1.412-.094.043-.2.089-.294.133v.434c-.18.127-.372.283-.559.416a3.166,3.166,0,0,0-.145.294h-.276v.13c-.289.162-.321,0-.567.289a4.349,4.349,0,0,1-1.692-.143c-.146-.2-.283-.384-.419-.57-.664.143-1.328.294-2,.424v.146h-.841v.143c-.524.149-.778-.078-1.122.276a1.016,1.016,0,0,1,.421.561h-.145v.146c.145.091.283.186.419.28v.283h.149c-.054.148-.108.291-.149.424h.149V608.4h.276v.276c.18.1.18.215.278.283h.286v.14h-.145v.146h.421v.137c.289.052.57.1.858.148v.14h.424v.137c.275.056.556.091.85.149v-.149h.137v.149c.288-.059.569-.094.853-.149v-.137c.226-.043.467-.1.7-.14.046-.1.108-.192.146-.284.234-.052.473-.1.71-.146.043-.091.092-.179.143-.276A1.641,1.641,0,0,1,394,608.4v-.287h.292l.137-.423c.327-.283.658-.574.985-.853V605.7h.145v-.561a1.9,1.9,0,0,0,0-1.273,11.216,11.216,0,0,0-1.13-.273m-8.762,3.946v-.281a.9.9,0,0,1-.421-.426h-.284v.146c-.089-.049-.181-.1-.281-.146v.146c-.051.086-.232.022-.138.28h.138c.329.405.543.342.987.281m.432.709h-.432v.148c-.2.016.062-.108-.135-.148h-.99c-.218-.345-.192-.094-.418-.283-.046-.143-.094-.28-.141-.426a2.36,2.36,0,0,1-.3-.137c-.038-.137-.091-.291-.135-.424h-3.1a2.071,2.071,0,0,0-.148.844h.148c.045.286.092.573.135.85.1.052.183.091.284.146a5.706,5.706,0,0,1,.423.984c.315.056.367.013.556.149v.13h.292v.149c.427.086.845.189,1.265.273v.141a.218.218,0,0,0,.281-.141h.855c.043-.084.092-.187.138-.273h.852c.092-.149.183-.28.273-.429.28-.186.213.072.439-.276h.137c.049-.238.1-.472.14-.707a.662.662,0,0,1-.421-.57" transform="translate(0 0)" fill="#0070c3" fill-rule="evenodd"/>
  </g>
</svg>
