<svg xmlns="http://www.w3.org/2000/svg" width="14.817" height="19.69" viewBox="0 0 14.817 19.69">
  <g id="Group_205" data-name="Group 205" transform="translate(-213.466 -648.174)">
    <path id="Path_1930" data-name="Path 1930" d="M224.962,653.388a4.184,4.184,0,1,1-4.183-4.184,4.184,4.184,0,0,1,4.183,4.184" fill="#fff"/>
    <path id="Path_1931" data-name="Path 1931" d="M228.282,662.237c0-.019-.01-.019-.012-.023v-.2h-.011v-.01h.011c.006-.027-.014-.031-.01-.047h.01v-.035h-.011l.011-.024-.011-.035h.011v-.035h-.01c0-.012.006-.023.01-.035h-.01l.01-.023v-.036h-.01v-.011h.01c0-.02-.011-.022-.011-.022,0-.016.007-.031.011-.049h-.01v-.068h.011c0-.016-.007-.031-.01-.047h.01l-.011-.047s.016-.008.011-.035h-.01a.228.228,0,0,1,.01-.035s-.016,0-.011-.024c0,0,.016,0,.011-.023,0,0-.015-.008-.011-.035s.012.006.011-.012a.1.1,0,0,1-.022-.012c-.01-.025.014-.031.012-.046s-.015-.008-.025-.01.01-.024.013-.035-.01-.024-.013-.035a.021.021,0,0,0,.013-.024h-.013v-.012a.025.025,0,0,0,.013-.025l-.013,0v-.012c0-.012.01-.023.013-.035h-.013v-.1s-.015,0-.012-.024a.031.031,0,0,0,.012-.033h-.012v-.106h-.013l0-.1H228.2l.009-.035H228.2v-.024h-.013c0-.011.008-.023.013-.035h-.013v-.023h-.011l.011-.024v-.011h-.011v-.071h-.012v-.009h.012v-.012h-.011v-.024h-.011c0-.015.018-.021.011-.046h-.011v-.061h-.012a.018.018,0,0,1,.012-.021V660.3h-.012v-.071h-.012c0-.011.009-.023.012-.035h-.012v-.023h-.011v-.014h.011a.423.423,0,0,1-.011-.045h-.012c0-.011.009-.023.012-.035h-.012l-.012-.07h-.012c0-.031-.006-.063-.012-.094h.012V659.9h-.012v-.021h-.011c-.005-.018.011-.022.011-.024a.318.318,0,0,0-.011-.033h-.023a.093.093,0,0,0,.012-.047h-.012a.2.2,0,0,1,.012-.035h-.012v-.025h-.012v-.057l-.023-.012c0-.015.008-.031.011-.046l-.022-.01a.021.021,0,0,1,.011-.026.384.384,0,0,1-.011-.046h-.012v-.047a.281.281,0,0,1-.036-.024c0-.015.009-.031.012-.047l-.036-.023c.008-.029-.019-.068-.029-.115h-.013c0-.014.022-.022.013-.047-.009,0-.016-.008-.024-.01a.365.365,0,0,0,.011-.037.233.233,0,0,0-.022-.01v-.023h-.012c0-.016.022-.024.012-.047a.149.149,0,0,1-.024-.014c0-.014.022-.021.011-.045l-.021-.011c0-.014-.018-.028-.013-.041l-.024-.012c.006-.016.007-.031.011-.045h-.011V658.9h-.012a.418.418,0,0,1-.023-.035h.023c-.01-.039.011-.019-.01-.043h-.013V658.8h-.011l.011-.035-.07-.059a.267.267,0,0,0,.013-.045l-.047-.035c0-.016.008-.033.012-.047l-.059-.047c-.005-.011.023-.023.013-.047-.013-.007-.024-.017-.036-.023a.092.092,0,0,0,0-.059l-.048-.035.013-.035h-.012v-.023a.277.277,0,0,1-.035-.024c0-.023-.007-.045-.011-.07a.469.469,0,0,1-.047-.035.322.322,0,0,1,.012-.033l-.024-.012v-.026a.27.27,0,0,1-.035-.021c0-.012.009-.024.012-.035s-.016,0-.024-.035c-.022-.006-.01,0-.022-.012h-.012a.405.405,0,0,1,.012-.047l-.036-.023v-.024s.023.012.018.012l-.011-.072-.047-.035a.271.271,0,0,0,.012-.034l-.036-.023v-.024h-.01a.352.352,0,0,0,.01-.035l-.058-.047v-.058c-.02-.014-.038-.029-.059-.047V657.5a.4.4,0,0,0-.046-.035v-.061a.352.352,0,0,1-.045-.033c0-.016.006-.031.01-.047-.018-.015-.037-.031-.058-.047v-.058l-.023-.012v-.023h-.01v-.047c-.022-.016-.041-.032-.06-.047,0-.012.007-.024.011-.033l-.022-.014a.06.06,0,0,1-.024-.057l.01-.011c-.019-.016-.039-.032-.055-.047v-.059l-.037-.023v-.024h-.011c0-.012.007-.023.011-.035l-.024-.012c-.029-.035-.037-.033-.022-.082l-.048-.033v-.06l-.022-.012c-.026-.031-.014-.022-.012-.07h-.024c0-.022-.007-.045-.012-.071a.067.067,0,0,0-.022-.009v-.024h-.011v-.047h-.012v-.023l-.012,0V656.3l-.024-.012v-.023h-.011a.205.205,0,0,0,.011-.035l-.034-.024-.011-.068c-.016-.014-.033-.026-.046-.037a.323.323,0,0,1,.01-.045l-.024-.012v-.059a.291.291,0,0,0-.034-.023V655.9l-.024-.011v-.059l-.034-.023a.358.358,0,0,1,.011-.047c-.012-.008-.025-.016-.035-.024a.14.14,0,0,0,.01-.035.105.105,0,0,0-.022-.012c-.013-.023,0-.05-.01-.082l-.024-.009v-.059h-.024v-.049h.012v-.01l-.035-.011a.017.017,0,0,1,.01-.024c0-.027-.01-.023-.01-.023v-.059h-.012v-.023a.083.083,0,0,1-.023-.012c0-.014.021-.023.013-.047a.2.2,0,0,1-.026-.011v-.059h-.022v-.023h.011c.006-.012-.019-.051-.023-.059h-.012c.006-.026.016-.022,0-.057h-.011v-.047c-.007,0-.016-.007-.025-.013v-.057c0-.008-.025-.006-.021-.023h.01c0-.032-.007-.063-.01-.094l-.025-.012c0-.013.022-.021.012-.047l-.023-.011c0-.016.007-.032.011-.045h-.011v-.061l-.024-.01.012-.049a.052.052,0,0,1-.024-.011.3.3,0,0,0,.012-.045.162.162,0,0,0-.021-.012.425.425,0,0,1,.009-.047l-.022-.011v-.059l-.024-.012c0-.015.02-.019.012-.047,0,0-.015,0-.012-.023h.012v-.012l-.025-.011a.223.223,0,0,0,.013-.047l-.023-.012c0-.016.007-.029.01-.047h-.01c0-.041-.009-.084-.012-.127H225.9a.227.227,0,0,0,0-.107h-.012a.334.334,0,0,0,.012-.045l-.023-.012c0-.016.008-.031.011-.047l-.023-.012V653.8h-.011c0-.016.018-.02.011-.047h-.011V653.7s-.015,0-.013-.025l.013-.012a.125.125,0,0,0-.024-.01v-.07h-.012c0-.019.012-.021.012-.023v-.012h-.012c-.007-.027.011-.031.012-.047l-.023-.012c0-.015.007-.033.011-.046l-.023-.012c0-.02.007-.039.012-.057H225.8v-.049h-.012a.025.025,0,0,1,.012-.023.359.359,0,0,0-.012-.035c.005-.012.008-.024.012-.035s-.017-.006-.012-.034h.012v-.011h-.012v-.047h-.012v-.071h-.012v-.011c.008-.008.021-.008.012-.035h-.012c0-.016-.009-.018-.009-.034h-.012v-.07c.009,0,0-.008,0-.01v-.011h-.012c0-.024.012-.024.012-.024s-.007-.023-.012-.035,0,0,0,0v-.023h.012c0-.012-.008-.022-.012-.034h-.012v-.023H225.7l.012-.012c0-.029-.012-.035-.012-.035s.008-.025.012-.035l-.022-.012V652.6s-.015,0-.012-.024a.018.018,0,0,0,.012-.023.15.15,0,0,0-.026-.012c.006-.016.009-.031.014-.047l-.036-.023a.463.463,0,0,0,.012-.047l-.023-.012.012-.035a.083.083,0,0,1-.023-.012.228.228,0,0,1,.011-.045h-.011V652.3h-.012c-.008-.027.014-.037.012-.049s-.025-.014-.037-.021a.471.471,0,0,0,.012-.047c-.01-.008-.012-.028-.02-.037l0,0,0,0a.39.39,0,0,1,0-.059c-.024-.008-.011,0-.024-.012h-.011a.455.455,0,0,1,.011-.047h-.011V652l-.024-.012c0-.015.007-.031.011-.047l-.023-.011a.028.028,0,0,1,.012-.036c-.005-.017-.022-.019-.024-.023v-.047l-.034-.023c-.012-.024.015-.033.01-.045l-.022-.012v-.025h-.013a.455.455,0,0,0-.012-.069s.021-.006.012-.023l-.033-.024.011-.046-.036-.024c.005-.015.008-.031.012-.047l-.034-.021c0-.014.02-.026.011-.049l-.033-.023a.225.225,0,0,1,.009-.045c-.009-.008-.022-.016-.033-.026s.021-.023.011-.045a.265.265,0,0,0-.036-.023v-.047h-.011v-.024h-.013v-.048a.138.138,0,0,1-.022-.01V651.1h-.012c0-.013.012-.023.012-.023s-.009-.023-.012-.035H225.2a.279.279,0,0,1-.011-.035.017.017,0,0,0,.011-.024l-.025-.011v-.022h-.011l-.011-.072-.024-.01a.33.33,0,0,1,.013-.035c-.016-.014-.031-.023-.047-.037l.011-.047c-.016-.01-.03-.022-.046-.033.013-.045,0-.045-.024-.082h-.01c0-.016.007-.032.01-.047h-.01c-.021-.026-.027-.006-.036-.047h-.024s.018-.029.012-.047h-.012a.238.238,0,0,1-.011-.035l-.037-.012a.091.091,0,0,1,.014-.045c-.054-.035-.014-.023-.036-.072h-.012c-.02-.039-.034-.068-.082-.08a.144.144,0,0,0-.035-.106l-.023-.011v-.047l-.058-.047v-.059l-.106-.093v-.059a.139.139,0,0,1-.034-.012v-.011a.608.608,0,0,1-.057-.047v-.022h-.012c-.017-.017-.006-.015-.036-.023v-.047c-.03-.035-.063-.07-.093-.1l-.036-.022v-.035a.056.056,0,0,0-.023-.012c-.022-.035-.013-.049-.058-.06v-.024c-.041-.012-.044-.041-.07-.068l-.059-.035v-.024a.169.169,0,0,0-.022-.012.384.384,0,0,0-.118-.1v-.023l-.048-.012V649.1c-.049-.014-.068-.047-.127-.059-.013-.049-.04-.041-.069-.068-.013-.016-.024-.034-.035-.049a.248.248,0,0,1-.036-.01V648.9a.068.068,0,0,0-.024.012c-.01-.017,0-.035-.01-.047H223.6v.012a.248.248,0,0,0-.035-.012l-.036-.047-.034-.011c0-.008-.009-.016-.012-.024h-.035v-.011h-.023v-.012H223.4a.217.217,0,0,1-.025-.037h-.047v-.012h-.023c-.008-.01-.015-.021-.023-.033l-.036.012c-.015-.02-.03-.04-.047-.059l-.092-.012v-.023l-.07-.012a.081.081,0,0,0-.013-.022h-.022v-.012h-.048l-.023-.035-.023,0V648.5h-.046l-.024-.037c-.018,0-.015.021-.024.023H222.8c-.006-.023,0-.01-.011-.023v-.01c-.025-.014-.036.016-.046.01l-.014-.024H222.7a.076.076,0,0,0-.024-.021v-.012a.209.209,0,0,0-.048.012s0-.016-.022-.012v.012H222.6a.091.091,0,0,0-.012-.024h-.022v-.011h-.024v-.012c-.018,0,0,.031-.023.023a.392.392,0,0,1-.023-.037.316.316,0,0,1-.035.014v-.014h-.035v-.011h-.058v-.01h-.012a.017.017,0,0,1-.024.01.224.224,0,0,0-.011-.022h-.06v-.012h-.023V648.3h-.011v.013c-.022-.007-.036-.031-.07-.023v.01h-.012l-.013-.022c-.024-.009-.03.014-.045.012v-.012h-.071c-.005,0,0-.015-.023-.011s.006.015-.01.011c0,0,0-.009-.024-.011v-.024h-.071v-.012c-.013,0-.019.022-.047.012a.328.328,0,0,0-.022-.035l-.012.012h-.035v.011a.018.018,0,0,1-.022-.011c-.023,0-.025.011-.025.011l-.057-.011a.018.018,0,0,1-.025.011l-.011-.023c-.015,0-.019.018-.047.012v-.012h-.012a.017.017,0,0,1-.024.012l-.009-.024-.048.024-.023-.036c-.014,0-.025.012-.025.012l-.023-.012h-.069s0,.016-.023.012v-.012h-.059v-.011h-.012v.011h-.047v.012H221.2v-.012h-.024v-.011c-.016,0,0,.01-.011.011h-.048v.012c-.016,0,0-.009-.011-.012l-.059.012v-.012h-.069v-.011h-.014v.011l-.067-.011a.133.133,0,0,0-.013.023l-.059-.012v.012l-.033-.012s-.006.016-.025.012a.031.031,0,0,0-.033-.012v.012h-.013v-.012h-.129v.012h-.011v-.012h-.058s0-.015-.023-.011v.011h-.048v.012l-.023-.012-.035.012a.034.034,0,0,0-.035-.012v.012h-.035v.012h-.013V648.2h-.057v-.012h-.012l-.034.012v.012l-.058-.012v.024a.779.779,0,0,0-.141.011c-.035.006-.07-.015-.083-.011s-.006.015-.01.023h-.047v-.012c-.025,0-.023.012-.023.012h-.071v.012h-.022l0,.012h-.069v.011h-.011s0-.017-.024-.011v.011h-.034v.012h-.036v.01c-.022.008-.016-.008-.024-.01s.005.006-.011.01H219.5c0,.009-.006.015-.01.025a.151.151,0,0,0-.036-.012v.012h-.035v.012h-.116c-.005.008-.008.015-.014.023l-.033-.013-.012.025h-.023v.012l-.023-.012-.012.023-.023-.011v.011h-.023v.012a.082.082,0,0,1-.047.012v.021c-.015,0-.043-.021-.07-.009a.126.126,0,0,0-.012.023H219v-.014l-.069.024-.013.023-.047-.011v.011h-.023a.1.1,0,0,1-.012.026l-.057.009v.014a.265.265,0,0,0-.036-.014c-.011.016-.023.032-.035.047h-.023v.012a.45.45,0,0,0-.046-.012v.024c-.045.011-.061.037-.117.047v.023l-.07.012c-.007.023,0,.009-.012.023v.012H218.4c-.008.01-.015.023-.023.035h-.025v.012h-.022v.012h-.036c-.01.015-.022.031-.034.046h-.069v.01h.011c0,.01-.008.016-.011.026h-.025v.023h-.024c-.015.053-.006.016-.046.035v.01l-.022,0-.06.07h-.034a.174.174,0,0,0-.069.08h-.025v.024l-.046.011c-.009.034,0,.028-.035.036v.023l-.034.012c-.019.021-.039.045-.056.066v-.019a.142.142,0,0,0-.02.023h-.007a.228.228,0,0,0-.018.025l-.02.01v.018l-.01.009-.05.032c-.026.027-.027.056-.07.068v.024c-.042.013-.035.025-.058.06h-.007v0l-.015.01v.035l-.035.022c-.031.037-.063.07-.093.1v.008l-.01,0v.035h-.023v.017l0,.006h-.02a.116.116,0,0,1-.011.037.432.432,0,0,0-.038.034v.009l0,0a.231.231,0,0,1-.032.01v.037h-.019c0,.012-.008.022-.012.033h-.013c-.023.03-.06.053-.069.094h-.023v.012c-.024.021-.007.025-.047.035,0,.012.008.023.011.035l-.046.024v.035l-.024.023h-.011l.011.024c-.014.011-.03.021-.046.035l.012.035h-.024v.023h-.024c0,.03,0,.041-.01.057l-.011,0,0,.023a.176.176,0,0,0-.023.012v.022l-.023.013v.045l-.024.012v.023h-.011v.024h-.013v.035l-.022.012-.058.187h-.024v.024h.012a.167.167,0,0,0-.012.047H216.6c-.005.023-.01.044-.013.068h-.024a.109.109,0,0,1-.01.049h-.013a.286.286,0,0,0,.013.033l-.024.012V651h-.012c0,.016.009.031.012.047h-.024v.035h-.011l.011.023-.021.012.01.012,0,.01h0v.008l-.009.04h-.024c.02.01,0,.055-.015.086l-.012.008v0h-.019v.022H216.4l.011.035-.023.012.012.011-.012.055-.005,0v0h-.007v.023h-.011v.043l0,0v0h-.009v.024h-.011v.033l-.022.013a.086.086,0,0,0,.011.024c0,.008-.029.006-.025.023s.02,0,.014.012a.083.083,0,0,0-.025.012c0,.014-.007.031-.01.047h-.025c0,.017-.007.084-.012.1a.169.169,0,0,0-.022.012l.012.01-.012.058h-.012a.024.024,0,0,0,.012.026c0,.021-.012.021-.012.021s.007.022.01.035h0v0l-.019.01v.035l-.026.012c.005.016.021.035.026.051-.03-.039-.035.043-.036.072,0,0-.045,0-.023.01h.012v.011h-.025c.005.032.009.061.013.092l-.017.01c0,.008,0,.014.007.022l0,.005v.022h0v.023h-.012c0,.008,0,.02.008.03l0,.015h-.011l0,.01-.008,0c0,.012.009.023.012.035a.115.115,0,0,0-.024.014.267.267,0,0,1,.012.045l-.033.023a.4.4,0,0,0,.011.047l-.024.012a.017.017,0,0,0,.013.023c0,.022-.012.02-.013.024v.058l-.023.012a.292.292,0,0,1,.01.035s-.012.006-.01.035l.01.012h-.01v.023h-.012l-.013.034h.013v.023c-.008,0,0,0-.005,0s-.008.023-.01.035.012,0,.01.024h-.01v.011c.007,0-.005.006,0,.01v.07H216c0,.016-.01.018-.009.034h-.012c-.01.027,0,.027.012.035v.011h-.012v.071h-.013v.047h-.012v.011h.012c0,.028-.012.034-.012.034a.207.207,0,0,0,.012.035.293.293,0,0,0-.012.035.023.023,0,0,1,.012.023h-.012v.049h-.011a.48.48,0,0,1,.011.057l-.023.012.012.046-.023.012c0,.016.016.02.011.047h-.011v.012s.016,0,.011.023h-.011v.07a.125.125,0,0,0-.024.01l.013.012c0,.027-.013.025-.013.025v.057h-.012c-.007.027.014.031.012.047h-.012v.058l-.024.012a.409.409,0,0,1,.013.047l-.025.012a.426.426,0,0,1,.012.045h-.012a.256.256,0,0,0,0,.107h-.022c0,.043-.008.086-.011.127H215.8c.005.018.008.031.013.047l-.024.012.011.047-.022.011v.012h.011c0,.021-.01.019-.011.023-.008.028.009.032.011.047l-.023.012v.059a.131.131,0,0,0-.024.011l.012.047a.176.176,0,0,0-.023.012.265.265,0,0,1,.01.047l-.022.011.012.047-.024.01v.061h-.01c0,.015.007.031.01.045l-.023.013c-.01.024.01.032.013.045l-.026.012c0,.031-.007.062-.01.094h.01c0,.017-.018.015-.022.023v.057a.192.192,0,0,1-.023.013v.047h-.012c-.016.035-.005.031,0,.057H215.6c0,.01-.027.047-.023.059h.011v.023h-.022v.059a.184.184,0,0,1-.025.011c-.008.024.009.033.013.047s-.016.01-.023.012v.023h-.013v.059s-.013,0-.011.023a.018.018,0,0,1,.011.024l-.034.011v.01h.011v.049h-.023v.059a.093.093,0,0,0-.023.009c-.013.032,0,.059-.013.082a.072.072,0,0,1-.023.012c0,.012.009.024.012.035l-.035.024.012.047c-.012.009-.023.015-.035.023v.059l-.024.011v.059c-.011.008-.023.014-.035.023v.059a.242.242,0,0,1-.023.012c0,.015.007.029.012.047a.291.291,0,0,0-.048.035c0,.021-.006.047-.01.068l-.036.024a.366.366,0,0,0,.013.035h-.013v.023l-.023.012v.047h-.011v.023h-.012v.047h-.011v.024l-.024.011q0,.036-.012.069h-.023c0,.048.014.039-.011.07l-.024.012v.06l-.048.033c.016.049.008.047-.022.082l-.025.012c0,.012.008.023.013.035h-.013v.024l-.035.025v.057l-.056.047.012.011a.069.069,0,0,1-.025.059.133.133,0,0,0-.024.012.165.165,0,0,1,.012.033c-.019.015-.039.031-.057.047v.047h-.012v.023l-.023.012v.058l-.058.047c.005.016.007.029.012.045a.034.034,0,0,1-.014.006l0,.01-.03.019v.045l-.01.022-.037.029v.02c0,.017-.011.019-.017.039l-.021.017a.035.035,0,0,0-.017.014l0,0v0c-.006.009-.01.025-.02.043h-.011v.023h-.011v.023l0,0-.023.009c-.007.024.005.041,0,.063l-.023.013v.022l-.023.014v.021c0,.008-.008.012-.01.018v0a.074.074,0,0,0-.019.068h-.023a.307.307,0,0,1-.012.045h.012v.012l-.023.013c-.009.026-.017.053-.024.08h-.024a.653.653,0,0,1-.022.094h-.024a.194.194,0,0,0-.012.106h-.023l-.006.033,0,0v.017l0,.006h-.01l0,.01H214.2l.011.025H214.2c0,.008,0,.016,0,.024l-.018.011a.06.06,0,0,0,0,.045h-.011a.1.1,0,0,1-.006.028l-.014.009a.032.032,0,0,0,.01.038l0,.011-.01.008h-.014v.012l-.033.025c.005.016.008.031.012.047a.56.56,0,0,1-.046.035.116.116,0,0,1,.005.028.108.108,0,0,1-.006.029c-.019.017-.039.031-.059.047a.357.357,0,0,1,.013.035H214v.023h-.009c-.023.024,0,0-.012.043H214l0,0v0h0a.279.279,0,0,1-.021.031h-.013v.024h-.009a.444.444,0,0,0,.009.045l-.022.012c.005.013-.016.027-.013.041l-.023.011c-.009.024.009.031.011.045a.088.088,0,0,1-.023.014c-.009.023.009.031.012.047h-.012v.023c-.007,0-.015.008-.021.01a.169.169,0,0,0,.01.037l-.024.012c-.009.023.011.031.012.045h-.012c-.01.047-.037.086-.03.117l-.035.021c0,.016.009.032.012.047s-.023.016-.034.026v.045h-.013c0,.017-.009.031-.011.046a.022.022,0,0,1,.011.026.114.114,0,0,0-.023.01c0,.015.009.031.012.046l-.023.012v.059h-.014v.023h-.01a.267.267,0,0,1,.01.035h-.01a.1.1,0,0,0,.01.047h-.022a.267.267,0,0,1-.012.033s.018.006.012.024h-.012v.023h-.011v.012h.011a.236.236,0,0,1-.005.037h0a.346.346,0,0,0-.006.059h-.01c0,.021-.009.045-.012.068h-.012a.114.114,0,0,0,.008.022l-.005,0,.007.011h-.01l-.006.024h0l0,0-.006.017h.012v0c-.006,0-.012,0-.021.01l.009.023h-.011l0,.012a.1.1,0,0,0,0,.059v.021h-.019v.014l.007,0v.01h0c0,.009-.013.021-.01.033h.007v.015l-.019.008.007.026a.015.015,0,0,0,0,.013.069.069,0,0,0-.019.01l.012.023h-.012v.024h-.012l.012.045h-.012v.105h0l0,.012,0,.008,0,0,0,.011h-.006v.024h-.011c0,.011.007.023.011.035h-.012v.1h-.011v.094h-.008v.012h0a.029.029,0,0,0,.012.033c0,.022-.011.02-.012.024v.044l-.007.026.007.006v.029H213.5c.005.012.008.023.012.035v.012H213.5a.02.02,0,0,0,.012.023v.012H213.5c0,.02.012.024.012.024s-.007.023-.012.035.007.023.012.035l-.023.012c0,.013.021.019.011.044a.123.123,0,0,1-.022.012c0,.018.009,0,.011.012s-.011.035-.011.035a.017.017,0,0,0,.011.023c0,.024-.011.024-.011.024s.007.023.011.035h-.011c0,.027.011.035.011.035l-.011.047h.011l-.011.047h.011v.068h-.011c0,.018.007.033.011.049,0,0-.015,0-.011.022l.011,0v.009h-.011v.036l.011.025h-.011c0,.01.007.021.011.033h-.011v.035h.011c0,.01-.007.024-.011.035l.011.024h-.011v.035h.011c0,.016-.017.02-.011.047h.011v.01h-.011v.2s-.017,0-.014.023h.014c0,.014-.01.024-.013.035h.013v.059h.011l.011.186h.012v.058h.011a.145.145,0,0,1-.011.026.225.225,0,0,0,.012.091c.006.028-.013.034-.012.047h.012v.035h.012c0,.041.007.079.011.118h-.012v.011h.011v.047h.012c0,.012-.008.022-.012.035h.012v.059l.012,0c-.005.014-.008.025-.012.035l.012,0v.033h.011v.082h.012v.035h.012v.082h.011v.036h.012v.009l-.012,0,.012.036c0,.007-.008.017-.012.025h.012v.033h.012v.047h.012v.035h.011v.033h.011c.009.039.017.079.024.118h.01v.058h.014v.035h.011l-.011.036h.011v.023h.012v.059l.024.011c-.005.012-.008.024-.013.035h.013v.024h.011v.047h.011c0,.039.009.076.012.117h.012v.021l.011,0v.045h.013v.035h.011v.036h.013v.046h.009c.005.016.008.032.012.047l.036.024c0,.021.007.047.011.07l.022.012c.006.019.008.039.013.058h.012l.012.045H214v.047a.148.148,0,0,1,.024.014v.045l.024.012v.023h.011v.023h.013v.036h.009v.023a.133.133,0,0,0,.025.01v.025a.565.565,0,0,0,.047.035c.008.028.014.055.022.082l.059.047v.022a.162.162,0,0,0,.023.011v.038c.019.035.04.033.047.093a.194.194,0,0,1,.034.01v.037h.025a.092.092,0,0,0,.023.045h.013v.047l.022.012v.023h.011c.025.031.051.043.06.092h.022c.009.037.026.043.035.084h.024c.007.014.017.014.023.023v.022l.035.023v.024l.024.011v.036c.017.027.041,0,.057.058l.071.024c.011.048.044.058.057.1h.025c0,.012.007.023.012.035h.034v.024h.023c.009.013.018.015.022.023v.024h.012a.169.169,0,0,1,.059.082h.023c.022.033.054.043.081.068l.152.164h.023a.17.17,0,0,1,.012.023l.059.012v.012a.082.082,0,0,1,.023.011v.024l.034.012.048.056h.023c.016.02.031.041.048.061a.5.5,0,0,0,.058.01.35.35,0,0,0,.022.035h.024a.263.263,0,0,1,.01.025h.036c.023.027.047.053.071.08l.046-.011.047.058h.023v.012a.11.11,0,0,1,.024.012v.023c.029,0,.057.008.086.01v0h.006v.023a.129.129,0,0,1,.059.035v.012h.024a.135.135,0,0,0,.012.024h.012V666.8c.016,0,.013.021.022.025a.09.09,0,0,1,.025-.011v.011h.022c.012.016.024.031.034.047a.031.031,0,0,0,.035-.012.194.194,0,0,1,.036.012v.024a.208.208,0,0,1,.036.011v.01a.134.134,0,0,0,.035.012l.012.023c.027.016.069,0,.092.026s.006,0,.013.023a.424.424,0,0,1,.062.012v.009l.032.012h.022v.012l.039.006v.006a.022.022,0,0,0,.015-.006.114.114,0,0,0,.027.006l.017.023.008,0a.116.116,0,0,0,.011.025h.07c.008.01.015.024.025.038l.064.009.008.012h.035v0l.011,0v0h.01l.011.023.071.018,0,.006a.035.035,0,0,0,.02,0v.023c.021,0,.045.006.069.01l.015.014.008,0v.014c.034.005.027.019.048.021v-.01l.016-.006v.006c.007,0,.012-.008.019-.011s.007.015.013.023h.021c.009,0,.009.016.025.022v.013c.019.008.016-.035.046-.025.012.015.024.031.035.047l.046-.01.005.01h.018a.157.157,0,0,0,.043.005l.009.018h.023v.012l.018-.006.014.018h0a.427.427,0,0,0,.045-.008l.01.021a.146.146,0,0,1,.027,0l.023.031a.017.017,0,0,0,.023-.013.024.024,0,0,1,.024.013l.046-.013v.025a.4.4,0,0,1,.047.012c.026-.059.028.031.058.023.006,0,0-.033.035-.023l.012.021c.019,0,.005-.031.024-.021s.023.029.035.045a.445.445,0,0,0,.046-.012l.011.023h.071v.012h.047l.01.024a.02.02,0,0,0,.025-.012c.035,0,.035.013.058.023v-.023h.023l.012.023.046-.011.013.023c.025.01.033-.014.046-.012a.266.266,0,0,0,.012.024h.023v.011l.034-.011.012.023h.07c.006,0,0,.016.024.012v-.012h.011a.26.26,0,0,1,.012.024l.047-.012.011.023c.026.01.036-.015.048-.011l.011.023h.023v.012a.02.02,0,0,0,.023-.012.023.023,0,0,1,.025.012l.034-.012v.012l.059-.012.011.024.035-.012v.012l.035.011v.012h.011v-.023l.035.011v.012c.015,0,.021-.02.047-.012l.012.024c.027,0,0-.022.012-.024a.246.246,0,0,1,.035.012v.012c.012,0,.023-.022.046-.012,0,0,.02.027.036.035v-.023h.023l.011.023.036-.012v.012l.059-.012a.086.086,0,0,0,.011.024c.017,0,.018-.018.046-.012v.012h.012a.029.029,0,0,1,.034-.012c0,.008.008.016.012.024.027.007.035-.016.047-.012a.126.126,0,0,1,.012.023l.093-.011v.011h.024v.012a.3.3,0,0,1,.035-.012v.012h.012a.029.029,0,0,1,.034-.012s0,.014.024.012a.017.017,0,0,1,.024-.012.092.092,0,0,1,.01.024.323.323,0,0,1,.059-.012v.012a.279.279,0,0,1,.035-.012s0,.014.023.012v-.012c.035,0,.025.02.035.023s.072-.025.082-.023l.012.023c.027.01.033-.015.045-.011v.011h.037v-.011a.207.207,0,0,1,.047.011v-.011c.018,0,.019.021.022.023h.152v.012c.021,0,.038-.01.059-.012v.012h.012a.015.015,0,0,1,.023-.012c.011,0,0,.027.034.024v-.012h.036v-.012c.028-.008.029.008.034.012s0-.01.012-.012c.046,0,.094.008.141.012v.012c.017,0-.005-.012.013-.012h.034v.012a.216.216,0,0,1,.036-.012c.01,0,.022.008.035.012v-.012a.372.372,0,0,1,.045.012.019.019,0,0,1,.025-.012.122.122,0,0,1,.01.023l.012-.011h.058v-.012h.012v.012c.036,0,.071-.01.106-.012,0,0,0-.018.024-.012v.012h.023v.012a.179.179,0,0,1,.035-.012v.012h.023v.011a.094.094,0,0,1,.035-.011.022.022,0,0,0,.023.011v-.011h.035v-.012h.057v-.012h.013v.012c.026,0,.033-.016.046-.012a.023.023,0,0,0,.025.012s0-.016.022-.012v.012h.012v-.012h.034v-.012a.029.029,0,0,1,.035.012h.081v-.012c.013,0,.04.02.071.012v-.012c.024,0,.047.006.07.012v-.012h.072v-.011c.012,0,.025.017.057.011v-.011h.011a.02.02,0,0,0,.024.011v-.011h.047v-.012a.36.36,0,0,1,.036.012v.011c.025-.006-.005-.011.011-.023.026.01.048,0,.08-.012l.011.012h.012v-.012a.573.573,0,0,1,.059.012l.1-.035v.023l.069-.011v-.012a.493.493,0,0,1,.048.012v-.012h.092v-.012c.016,0,.019.016.047.012v-.012c.026,0,.045.025.082.012l.011-.024h.035v-.011h.012a.018.018,0,0,0,.022.011v-.011h.037v-.012l.01.012.119-.024v-.011c.02,0,.016.033.045.023a.343.343,0,0,0,.023-.035h.094v-.012l.036.012v-.012h.01v.012h.013v-.012H223v-.012l.034.012s.005-.016.023-.012.005.016.023.012v-.012h.047l.013-.023.059.012.01-.024h.023v-.012c.016,0,.03.02.059.012v-.012h.059v.012h.01a.261.261,0,0,0,.013-.023h.047v-.012h.022v-.012a.158.158,0,0,1,.1,0v-.023c.036-.006.071-.016.1-.024v-.011h.013v.011l.115-.011a.264.264,0,0,0,.023-.035c.017,0,.032.009.048.011v-.011h.036v-.012a.025.025,0,0,1,.023.012.292.292,0,0,0,.057-.012c.008-.01.016-.024.024-.035a.019.019,0,0,1,.024.011c.026,0,.024-.011.024-.011h.068v-.01a.323.323,0,0,1,.059-.012c0-.01.008-.015.012-.025a.429.429,0,0,0,.045.012.39.39,0,0,0,.025-.036.77.77,0,0,0,.082-.011v-.01a.2.2,0,0,1,.069.01l.035-.047c.031-.01.026.031.048.025v-.013c.014-.006.015-.018.022-.022h.024a.1.1,0,0,1,.012-.023.127.127,0,0,1,.035.011v.01c.021,0,.014-.016.047-.021v-.024l.092-.012v-.023l.094-.024.012-.023.127-.023c.009-.012.016-.024.024-.036h.071c.006-.015.016-.031.023-.046.03,0,.063-.008.093-.012v-.012h.024v-.012a.6.6,0,0,1,.093-.021c.008-.025,0-.012.011-.023s.068-.01.094-.026l.011-.023a.092.092,0,0,0,.034-.012v-.01a.174.174,0,0,1,.037-.011v-.024a.236.236,0,0,1,.034-.012.034.034,0,0,0,.036.012l.035-.047h.023v-.011a.079.079,0,0,1,.023.011c.008,0,.006-.027.023-.025v.011l.012,0,.013-.024h.022v-.012a.131.131,0,0,1,.058-.035v-.023l.094-.012v-.023l.024-.012v-.012h.023c.016-.019.032-.039.046-.058l.047.011c.025-.027.046-.053.07-.08h.036a.147.147,0,0,1,.011-.025h.024c.007-.01.014-.024.022-.035a.323.323,0,0,0,.059-.012l.046-.059h.024c.014-.019.03-.037.046-.056l.036-.012v-.024a.082.082,0,0,1,.023-.011v-.012l.059-.012.01-.023h.024l.153-.164c.028-.028.059-.035.08-.068h.023a.185.185,0,0,1,.06-.082h.011v-.024c0-.008.015-.01.023-.023h.023v-.026h.036l.012-.033h.023c.012-.047.048-.057.06-.1l.069-.024c.016-.06.04-.031.058-.058v-.036l.023-.011v-.024c.01-.008.023-.015.035-.023v-.024c.005-.007.015-.009.023-.021h.023c.01-.041.028-.047.036-.084h.022c.008-.049.035-.061.058-.092h.013v-.023l.024-.012v-.047h.011a.12.12,0,0,0,.023-.045h.025v-.037a.154.154,0,0,1,.034-.01c.007-.06.028-.058.046-.093v-.038a.083.083,0,0,0,.023-.011v-.022c.021-.015.039-.031.06-.047s.014-.054.022-.082a.51.51,0,0,0,.047-.037V664.8a.117.117,0,0,0,.023-.01v-.023h.01v-.036h.012v-.023h.011v-.023l.024-.012v-.045a.148.148,0,0,1,.024-.014v-.047h.01l.012-.045h.013c0-.019.009-.039.01-.058l.024-.012a.634.634,0,0,0,.011-.07l.036-.024c0-.015.007-.031.012-.047h.011v-.046h.012v-.036h.012V664.2h.01v-.047h.013v-.021h.011c0-.041.009-.078.012-.117h.012v-.047h.012v-.024h.012a.112.112,0,0,1-.012-.035A.124.124,0,0,1,228,663.9v-.059h.011v-.023h.012c0-.012-.008-.024-.012-.036h.012v-.035h.012v-.058h.012c.007-.039.015-.079.022-.118h.012v-.033h.012V663.5h.012v-.047h.012v-.035h.011l-.011-.023c0-.012.007-.024.011-.038h-.011v-.009h.012v-.036h.012v-.082h.012v-.035h.011v-.082h.012v-.035h.011a.366.366,0,0,1-.011-.035h.011v-.057h.013a.36.36,0,0,0-.013-.035h.013V662.9h.009v-.011H228.2c0-.039.007-.077.009-.118h.013v-.035h.012c0-.013-.018-.019-.012-.047a.184.184,0,0,0,.012-.093c0-.006-.007-.016-.012-.024h.012v-.058h.013q0-.092.012-.186h.01v-.059h.012c-.005-.011-.007-.021-.012-.035Zm-11.853-10.945h0l0-.01,0,.01m1.41,1.07h.013c0-.029.009-.058.013-.088h.013c0-.011-.007-.023-.013-.037s.017-.008.025-.009v-.065h.013v-.023h.013v-.049h.013c0-.018-.009-.033-.013-.051h.013v-.025h.013c.009-.037.016-.073.024-.11h.027c.005-.07.015-.045.037-.088v-.023h.014a.057.057,0,0,0-.014-.023l.027-.014c.013-.031-.005-.063.013-.088s.042-.023.062-.037c.018-.057.035-.115.053-.172a.648.648,0,0,1,.063-.037V651.4l.025-.011v-.026h.014c0-.019.007-.041.012-.062l.025-.012c0-.014.009-.025.012-.037h.012l.015-.063.025-.011v-.049c.016-.037.051-.037.064-.088h.026c.015-.055.037-.045.076-.074l.027-.024v-.025l.036-.012a.532.532,0,0,0,.051-.076c.022.006.043.01.064.014a.036.036,0,0,1,.038-.014c.018,0-.005.016.013.014v-.014h.038v.014c.016,0,.023-.024.051-.014a.263.263,0,0,1,.012.026.172.172,0,0,0,.038-.012v.012h.027v.013c.021,0,.014-.019.026-.025s.02.017.051.012v-.012a.192.192,0,0,0,.038.012s0-.014.025-.012a.022.022,0,0,0,.025.012s.005-.016.026-.012v.012h.013v-.012h.025l.014-.024h.075l.014-.025.024.012v-.012h.026v-.014h.051l.013-.023a.483.483,0,0,1,.052-.012c.017-.07.022-.025.062-.051a.4.4,0,0,0,.027-.037h.025v-.011a.269.269,0,0,1,.1-.038v-.025h.011c.014-.016.026-.033.039-.049h.037l.027-.037h.024l.014-.025.051-.012c.012-.018.025-.033.038-.051h.026l.013-.023h.012v-.026c.047-.011.093-.025.14-.037V650.3a.1.1,0,0,0,.052-.014v-.012h.052v-.011h.025v-.012c.028-.012.034.012.051.012v-.012a.316.316,0,0,0,.063-.016c.022.028.042.051.065.077h.024c.018.019.035.041.052.06h.024a.159.159,0,0,1,.013.026h.039l.039.05h.037v.012c.018.012.034.023.052.037v.024c.059,0,.046-.02.088.013a.139.139,0,0,1,.013.024l.014-.012a.092.092,0,0,1,.064.025c.005.008.008.018.012.026l.013-.014c.025.006.051.01.075.014,0,0,0,.043.014.023.019,0-.005-.015.013-.012l.039.012c.007,0,.007-.031.024-.023l.013.023c.016.006.026-.012.026-.012l.039.012v-.012l.025-.011v.023c.016,0,.033.008.051.014a.022.022,0,0,1,.027-.014v.014h.125v-.014h.026v-.012h.052v-.011c.046,0,.093-.008.14-.014v-.012h.025v-.013c.034,0,.068-.008.1-.012a.082.082,0,0,1,.011-.025c.012.005.026.007.039.013v-.013h.025v-.012l.128-.012.013-.025.115-.012v-.025l.176-.012v-.014a.257.257,0,0,0,.039.014v.012l.051-.012v.012c.029,0,.05-.026.089-.012v.012h.026a.193.193,0,0,0,.013.025l.051-.012a.266.266,0,0,0,.012.024l.051-.012.013.023c.034.016.064,0,.089.014s.035.039.051.061h.063l.038.05h.015v.026a.134.134,0,0,1,.024.012.2.2,0,0,0-.012.025h.038c.026.027.05.057.077.086h.025v.012c.021.015.042.033.064.05v.01h-.014l.014.051c.058.049.119.1.178.148v.075l.09.062v.023l.026.012a.052.052,0,0,0,0,.051c.03.023.058.049.089.074-.005.012-.009.024-.013.037l.025.012v.025a.3.3,0,0,1,.038.014.243.243,0,0,1,.051.123c.052.014.016,0,.039.035l.026.014-.014.037c.017.012.036.026.052.035v.028l.025.011c-.005.012-.009.024-.013.037h.013v.026l.025.014v.046a.164.164,0,0,1,.026.014c.015.022-.008.006.012.023-.014.014,0,.006-.026.014a.318.318,0,0,1,.027.037h.013c.015.026.01.071.025.1l.025.012c-.005.013-.008.025-.013.037l.039.025c0,.018-.009.033-.013.051l.037.023v.061l.027.014c-.005.015-.009.033-.014.048a.165.165,0,0,0,.026.014c0,.014-.024.022-.012.049a.122.122,0,0,0,.026.012c0,.015-.024.023-.014.05l.026.012c0,.018-.008.033-.012.051l.038.023-.013.037h.013v.024h.011c-.005.014-.007.025-.011.039h.011c0,.064-.005.047-.024.086l-.1-.012c0-.01-.009-.017-.013-.025l-.038.012v.013h-.051v-.025h-.026c.008-.035.02-.129-.012-.16-.011-.035-.005-.03-.038-.038-.014-.048-.029-.039-.064-.06-.009-.014-.017-.027-.026-.039h-.05v-.012h-.026v-.011h-.065s0-.016-.024-.014c-.01.006,0,.017-.026.014,0,0,0-.016-.025-.014a.026.026,0,0,1-.027.014V652.3l-.165,0v-.014a.287.287,0,0,0-.052.014.02.02,0,0,0-.024-.014v.012h-.088s-.005.019-.026.014a.426.426,0,0,0-.079-.034c-.035.01-.054-.006-.088.008s0-.037-.072-.014c0,.01-.037.006-.042.014h-.013v-.014a.2.2,0,0,1-.039.014v-.014h-.037v.014c-.03,0-.067-.021-.114-.014v.014a.3.3,0,0,1-.039-.014s0,.016-.026.014.006-.014-.012-.014v.014h-.038v-.014h-.065s0-.015-.026-.011v.011h-.026v.014h-.05v-.014h-.012v.014h-.09v.012c-.039,0-.077.008-.115.014a.15.15,0,0,0-.038-.012v.012c-.046.011-.037,0-.076,0v.023a.165.165,0,0,0-.064.012v.013l-.052-.013a.128.128,0,0,0-.011.027h-.027c-.008.033-.031.068-.039.1a.021.021,0,0,0,.014.023c0,.022-.01.043-.014.063h-.012v.025h-.012a.172.172,0,0,0-.051.074h-.025l-.014.024h-.088v.013h-.078v.012h-.039v.014h-.1v.011h-.076v-.011l-.038.011h-.064s0-.017-.026-.011a.018.018,0,0,1-.025.011.2.2,0,0,0-.013-.025c-.02-.006-.064.027-.1.014a.157.157,0,0,0-.013-.026c-.017,0-.033.008-.051.012V652.7c-.062,0-.127-.01-.191-.013v.013c-.026,0-.051-.01-.076-.013v.013a.332.332,0,0,0-.04-.025l-.011.025h-.013v-.013H220.4s0,.015-.027.013c0,0,0-.015-.023-.013,0,0-.007.019-.027.013s-.006-.029-.027-.025v.012h-.2a.151.151,0,0,0-.025-.049h-.013c0-.016.009-.031.013-.049a.164.164,0,0,0-.026-.014v-.06h-.012c0-.02.011-.022.012-.026a.021.021,0,0,0-.012-.023c0-.018.008-.033.012-.051a.163.163,0,0,1-.062-.06H219.9v-.026a.449.449,0,0,1-.076-.037c0-.017-.023-.006-.028-.021-.021,0-.028-.02-.05-.016v.012l-.05-.014v-.012c-.021,0-.023.012-.026.014l-.011,0v-.012c-.023,0-.043.01-.064.012v-.012h-.014a.251.251,0,0,0-.011.026h-.014v-.012h-.052v-.014c-.03-.008-.047.014-.062.014v-.014h-.065v-.009c-.038,0-.077.007-.115.009v.012a.09.09,0,0,1-.075-.012v-.011c-.031-.01-.069.023-.089.025v-.014a.037.037,0,0,0-.039.014c-.024,0-.027-.014-.027-.014a.02.02,0,0,0-.024.014c-.012,0-.037-.027-.064-.014v.014c-.072,0-.06-.035-.115-.051v-.011c-.012,0-.063.031-.077.039-.014-.022-.007-.02-.038-.028v-.023h-.063s0-.016-.025-.014a.026.026,0,0,1-.027.014v-.014h-.012v.014h-.063a.251.251,0,0,0-.012.023c-.052.006-.1.035-.149.041a.208.208,0,0,1-.068.11v.011h-.039v.026h-.024v.025a.082.082,0,0,0-.065.049c-.044-.006-.085-.01-.127-.014,0,0,0,.016-.026.014v-.014l-.075-.012v.026a.541.541,0,0,0-.1-.026l.013-.048c0-.006-.018-.006-.013-.026m5.19.655a.067.067,0,0,0,.025.025v.014h-.025a.271.271,0,0,1-.025.06c-.056.008-.111.016-.167.026l-.012.023h-.039v.012a.53.53,0,0,1-.077-.012.084.084,0,0,1-.012.025h-.064v.012h-.012c-.024-.037-.037-.025-.064-.049-.009-.011-.017-.025-.025-.037l-.077-.012c-.008-.013-.016-.025-.025-.037l-.039.012v-.012l-.051.012v-.012h-.063v-.011H222.2v-.014a.107.107,0,0,0-.05-.025v-.026a.077.077,0,0,1-.026-.012c-.02-.044.009-.074,0-.111h-.013v-.049H222.1c0-.019.014-.023.014-.025v-.037H222.1v-.012h.014v-.111l.089-.012s.005.024.025.024c.052-.034.081.005.128,0v-.012h.013v.012h.065c.005,0,0,.025.025.025a.189.189,0,0,0,.012-.025h.014v.013c.012,0,.024-.01.037-.013v.013h.052v-.013h.039v-.012h.012c.012,0,0,.023.025.025l.013-.025h.013v.012a.029.029,0,0,0,.025-.012c.022,0,.026.012.026.012l.114-.012v-.012h.039v-.014a.354.354,0,0,0,.038.014.031.031,0,0,0,.026-.014c.017,0,0,0,.013.014s.025-.012.025-.012c.029-.007.033.01.051.012s0-.019.025-.014v.014c.022,0,.043.008.064.012.009.041.017.082.025.123-.013.01-.025.017-.037.025v.026h-.014c-.03.074.038.181-.063.209m-3.52-.3h-.024v.023h-.027c0,.024-.007.049-.011.074h-.014v.125l-.038.024v.023a.5.5,0,0,0-.064.113H219.3v.038a.233.233,0,0,0-.088.086l-.09.011v.014h-.178v-.014h-.027v-.011h-.038v-.014c-.043-.012-.086.019-.114.014v-.014h-.038V653.2h-.026v-.012c-.05-.017-.094,0-.115-.013l-.037-.024a.369.369,0,0,1,0-.162v-.047h.013a.117.117,0,0,0,.025-.05h.025v-.049h.014v-.014c0-.006-.032,0-.027-.037h.013c.006-.023.009-.049.014-.072.013-.008.025-.018.037-.026v-.025h.013c.011-.027-.01-.031-.013-.037s.011-.02.013-.049c.038-.014.076-.025.114-.039a.368.368,0,0,0,.039.014v-.014c.022.006.042.01.064.014.005-.008.008-.016.014-.024.049,0,.1.008.152.01a.905.905,0,0,1,.241-.01h.166a.283.283,0,0,0,.038.035v.026H219.5c0,.041.006.082.011.125m4.451.592c0,.017-.019.021-.012.048,0,0,.016,0,.012.026h-.012v.039h-.014c0,.015.022.019.014.047h-.014v.062h.014c0,.018-.008.037-.013.055l.023,0,0,.006h-.012v0h0v.011h0l0,.045-.013,0,.005.063h-.009l0,0v.011h0a.121.121,0,0,0,.01.024.133.133,0,0,0-.024.012v.019l.012.006,0,.025h-.012l.008.112-.025.013a.033.033,0,0,0,.015.037.362.362,0,0,0-.008.038h.011c.006.025-.01.025-.01.025l0,.06-.023.016c0,.012.025.02.019.047a.2.2,0,0,0-.026.016c0,.011.01.023.014.035h-.013l0,.025-.013,0c.007.016.01.033.016.049h-.013c-.006.014-.031.027-.022.051h.013l0,.025h-.026c.006.039.019.037.005.063a.137.137,0,0,0-.024.013l.016.061-.013,0c-.01.012,0,.008-.013.01v.007h-.009c0,.018,0,.008.013.02-.008.025-.013.051-.023.076l.017.012H223.8l-.011.039-.011.006v.007h-.013v0c0,.011.011.021.016.035a.217.217,0,0,0-.026.013l0,.01.008.027h-.007l0,.024a.107.107,0,0,1-.024.017l0,.022h.005c.006.008.009.016.014.023l-.023,0,0,.01,0,0-.01.023a.127.127,0,0,0-.009.042l.014,0c0,.008-.011.016-.016.024a.277.277,0,0,1-.008.061h-.013v.037l-.025.011c0,.03-.009.057-.013.088h-.013c-.009.024-.016.049-.026.074-.031.049-.012.045-.042.125l-.039.077a.1.1,0,0,1-.027.046h-.011v.026l-.027.012v.037h-.011c-.019.023-.032.029-.038.062l-.024.01v.006c-.032.031-.041.078-.073.111l0,.024-.024.013v.012a.241.241,0,0,1-.037.016v.025h.014c0,.012-.008.023-.011.035l-.025,0v.024l-.062.017,0,.026c-.039.05-.091.119-.129.169l-.026,0-.011.026c-.051.029-.057-.02-.072.054l-.026,0,0,.037-.025,0c-.005.032,0,.024-.023.04l0,.011a.054.054,0,0,0-.051,0c-.031.039-.062.08-.1.119-.011.006-.024-.023-.05-.008a.1.1,0,0,0-.011.026l-.037.025v.014l-.025,0,0,.012a.106.106,0,0,1-.049.027v.025c-.048.028-.1.036-.108.1l-.026,0,0,.023c-.033.012-.06.057-.088.032l-.006.008H222.3l0,.026c-.04.006-.072.008-.089.031s-.007.025-.009.037l-.077.006,0,.025c-.046.01-.092.022-.138.034l-.01.027-.027,0,0,.012-.051,0,0,.011-.027,0c0,.008-.007.018-.012.026l-.024,0,0,.011a.243.243,0,0,1-.12,0l0,0h-.005v.008l-.018,0v0h0v.008a.02.02,0,0,1-.027-.008h0l-.045.014v.013l-.039,0v.014l-.016.006v-.028a.253.253,0,0,1-.03-.009l-.027.037h-.088v.013h-.051v.012h-.077v.012h-.052v.012a.513.513,0,0,1-.05-.012v.012h-.076v-.012H221.1l-.013.025-.013-.013h-.013v.013h-.089v.012l-.077-.012v.012h-.012v-.012c-.013-.006-.025-.008-.039-.013v-.012c-.038-.008-.043.039-.089.025a.1.1,0,0,1-.011-.025.182.182,0,0,1-.1,0v-.012h-.089v.012l-.063-.012v.012h-.013c-.009-.012-.017-.024-.025-.037l-.09.025v-.012l-.038-.013V657h-.038v-.012l-.052-.013s0,.017-.025.013v-.013h-.025v-.012c-.023,0-.087.027-.128.012v-.012h-.025l-.013-.026h-.026v-.011h-.05v-.012h-.026l-.013-.025c-.046-.008-.094-.016-.14-.026v-.025h-.076c0-.012-.009-.023-.014-.035s-.049-.024-.089-.026v-.025h-.025v-.037c-.025.027-.058-.018-.091-.025v-.024h-.024c-.016-.059-.066-.064-.116-.086v-.025a.081.081,0,0,1-.05-.026v-.011h-.026V656.5l-.038-.024-.012-.025c-.028-.012-.04.018-.052.012-.034-.037-.069-.072-.1-.11a.047.047,0,0,0-.05,0v-.013c-.02-.014-.017-.006-.025-.037h-.026v-.037h-.026c-.02-.073-.023-.024-.076-.049-.005-.008-.009-.018-.013-.026h-.026c-.042-.048-.085-.1-.127-.148v-.024a.51.51,0,0,1-.064-.013v-.026h-.025a.142.142,0,0,1-.011-.035h.011v-.025l-.038-.012V655.9a.1.1,0,0,1-.026-.011v-.026l-.1-.086v-.023h-.011l.011-.025-.089-.075c0-.025-.007-.05-.012-.074l-.051-.037v-.025a.156.156,0,0,1-.025-.014c0-.01.008-.023.012-.035l-.024-.012v-.025a.328.328,0,0,0-.039-.026c0-.011.008-.025.013-.037l-.025-.012v-.025c-.018-.012-.035-.023-.053-.037v-.049a.3.3,0,0,0-.037-.025v-.061h-.013l-.038-.051h.026c-.012-.041-.029-.031-.04-.074h-.024c0-.008.008-.015.012-.023h.012v-.014c-.012-.006-.024-.017-.037-.023v-.063l-.026-.012.013-.037a.153.153,0,0,0-.025-.013l-.013-.036h-.012l.012-.013-.026-.074c.014-.014.005,0,.014-.026-.027-.006-.012,0-.027-.012h-.011c0-.021.008-.04.011-.062l-.025-.012c-.016-.023,0-.021,0-.062h-.026v-.024h.013c.008-.025-.017-.037-.026-.05h-.012c0-.016.007-.032.012-.049h-.012V654.4h-.013l.013-.035a.118.118,0,0,0-.025-.013c-.012-.028.016-.038.012-.049l-.025-.012v-.063s-.016,0-.013-.025h.014c-.006-.012-.009-.025-.014-.037a.033.033,0,0,0,.013-.037l-.025-.012v-.113h-.013v-.024s.019,0,.013-.023a.129.129,0,0,1-.026-.014c0-.013.009-.025.013-.037h-.014v-.06h-.013v-.063h-.013c-.025-.086.023-.2.013-.248h-.013c0-.017.019-.019.013-.049h-.013v-.013s.018,0,.013-.024c0,0-.014,0-.013-.023l.013-.028h-.013c0-.027.013-.029.013-.048v-.012h-.013l.013-.037s-.016,0-.013-.026c0,0,.016,0,.013-.023,0,0-.016-.006-.013-.025h.013c0-.042.009-.082.012-.124h.027v-.013h-.013a.437.437,0,0,1,.013-.061.021.021,0,0,1-.013-.025h.013v-.014h-.013v-.012h.013c.009-.033,0-.027.038-.035v-.013l.051.013v-.025a.251.251,0,0,0,.038-.014v-.011c.03.007.061.017.09.025v-.025a.293.293,0,0,0,.05-.012v.012h.052v.011h.013v.039h.012a.194.194,0,0,1-.077.073c.006.015.021.021.014.05h-.014v.012l.027.012v.062l.025.012c-.005.018-.009.033-.012.049a1.1,1.1,0,0,0,.09.074l-.015.051h.015c.021.033.045.033.05.088a.331.331,0,0,0,.089,0c.012.013.032.013.037.023v.024c.006.009.017.009.027.025l.062-.012v.026l.039.011v.012c.014,0,.027-.023.052-.012v.012c.021.016.018.008.025.037h.026l.014.026c.033,0,.066-.008.1-.014v.014l.014-.014c.046.006.093.01.139.014v.011h.025v.014a.225.225,0,0,1,.116,0v.012l.051-.012.011.023.052-.011v.011c.019,0,.022-.017.051-.011a.035.035,0,0,0,.038.011v-.011h.014a.134.134,0,0,0,.013.023l.1-.012.014-.023.051.012v-.012c.025,0,.039-.021.063-.021v.013a.21.21,0,0,1,.038-.013v.013a.166.166,0,0,0,.052.012c.016-.055.061-.025.077-.08h.026a.359.359,0,0,1,.024-.1h.014v-.023h.011c0-.014.008-.028.013-.039.044-.012.032-.026.077-.037,0-.024.008-.049.013-.075h.012a.27.27,0,0,1-.012-.037h.012v-.049a.079.079,0,0,0,.026-.025c.033-.012.068-.023.1-.037l.065.014v-.014h.037v-.012c.054-.015.056.022.089-.025.056,0,.043.01.077.025v.012h-.025l.011.049a.021.021,0,0,0-.011.025.023.023,0,0,1,.011.026h-.011v.171h.011c.005.028.01.051.014.075h.025v.062l.2.186.012-.012c.052.008.1.018.154.023l.025.039a.03.03,0,0,0,.038-.013c.014.01.026.015.039.025v-.012h.153s0-.017.026-.013v.013c.042,0,.084-.009.127-.013l.012-.026a.272.272,0,0,0,.053-.011.085.085,0,0,1,.011-.024h.026c0-.013.008-.025.013-.039s.033-.023.051-.035v-.063c.051-.015.014-.009.038-.037.008-.007-.026-.037-.009-.041s-.009-.037-.005-.054a.315.315,0,0,1-.037-.012v-.012c-.087,0-.067.008-.153.008a.15.15,0,0,0-.013-.025.483.483,0,0,0-.178,0v.011l-.09-.011v-.012H220.7v-.111a.275.275,0,0,1,.026-.012c.024-.059-.018-.106.027-.149l.011-.025h.064v.012h.013c.008,0,0-.02.038-.012v.012c.015,0,.023-.024.051-.012l.026.037.063-.012v.012l.1-.012a.2.2,0,0,1,.013-.025c.028-.012.048.014.063.012v-.012h.05l.015-.023h.074v-.014a.272.272,0,0,0,.065.014h.09v-.014h.012v.014c.039-.006.077-.01.115-.014a.085.085,0,0,0,.038.037v.063h.013c0,.013-.027.021-.013.048l.025.012v.051c.006.01.016,0,.027.035h.023l.014.026h.013V653.3h.077v.012h.114v.013h.026v.012c.02,0,.042.008.064.012v.013c.028.008.034-.013.05-.013.016.021.035.041.051.062s.036-.016.051-.014v.014h.025v.014c.018,0,0,0,.013-.014s.026.014.026.014h.063a.088.088,0,0,1,.014.023h.025a.134.134,0,0,1,.012.024h.027v.013h.013v-.013l.039.013a.048.048,0,0,1,.062-.025v.012h.027l.023.029a.137.137,0,0,0,.066.01.048.048,0,0,1,.063.023c.025-.008.049,0,.074-.008s.048.033.092.02v-.012h.026v-.012h.052l.013-.025h.038v-.012l.1.012v-.012a.126.126,0,0,1,.049-.025v-.023a.157.157,0,0,1,.039-.012v-.014h.026V653.4c.017.006.034.008.051.014.021-.074.054-.029.077-.062v-.024h.039v-.013h-.013c.008-.018.02-.016.025-.026v-.023c.017-.012.034-.026.051-.037v-.038h.012c0-.015.01-.033.014-.048l.076-.063v-.012c.005,0,.1-.025.1-.025a.024.024,0,0,0,.026.014s0-.02.024-.014,0,.018.014.014c0,0,.018-.024.026-.026s.008.026.012.037l.077-.011v-.014c.021,0,.015.022.024.025a.041.041,0,0,0,.04-.011l.077.011c0,.041.008.082.012.123a.266.266,0,0,0-.012.024.033.033,0,0,1,.012.039h-.012v.061Zm-2.092-1.46h.1v.014h.05v.012c.028.006.062-.029.1-.012.005,0,0,.018.038.024v.025s.031-.021.05-.012v.012c.018.012.034.025.051.037.011-.01.035-.047.065-.037l.012.025a.468.468,0,0,1,.051.012c.013-.023.018-.019.026-.049a.181.181,0,0,1,.1,0v.012h.026a.2.2,0,0,1,.013.025c.013,0,.025-.009.037-.013v.013h.027v.012c.022.006.023-.012.025-.012h.063v.012c.023,0,.044-.01.064-.012v.012c.02,0,.02-.019.052-.012v.012h.012a.035.035,0,0,1,.038-.012v.012h.014a.238.238,0,0,1,.038-.012v.012h.013a.276.276,0,0,1,.038-.012v.012c.02,0,.029-.01.051-.01s.015-.013.052,0c.028-.021.049,0,.076-.023l.012-.025h.026v-.012l.076-.012v-.014h.026c.006,0,.011-.017.026-.023v-.037h-.013a.272.272,0,0,1,.013-.037h-.013c0-.051.006-.065-.039-.074h-.037l-.027-.051c-.027-.012-.037.015-.05.014v-.014h-.027a.137.137,0,0,0-.012-.024c-.04-.017-.1.03-.128.024v-.012h-.025c-.009-.012-.017-.025-.025-.037l-.039.012v-.012h-.038s-.011-.018-.026-.023v.023h-.064s0-.016-.024-.014v.014h-.04v.012l-.063-.012v.012h-.089l.013.013v.012a.143.143,0,0,0-.052-.012v.024h-.013l-.012-.024-.038.012v-.012l-.038-.013v.013h-.052v.012c-.041.006-.024-.029-.064-.025v.013h-.013v-.013h-.229v-.012c-.06-.01-.145.074-.2.025a.148.148,0,0,0-.051.012c-.008.043-.018.1-.051.123v.063c.017.033.073.023.114.037Zm-3.581-.208c.017.046.049.017.024.085.031.018.036.04.077.049v.014c.018.008.006-.023.026-.023a.168.168,0,0,1,.011.023c.024,0,.051-.023.091-.014v.014c.025-.006.051-.01.076-.014v.014h.052l.013.023h.025v.014c.08-.006.161-.01.241-.014.005.008.03,0,.033.012.044.022.037.008.071,0l.038.012v-.012h.025c.014-.006.006-.035.038-.025a.066.066,0,0,0,.033.013c0-.008.014.006.018,0l.127-.023a.25.25,0,0,1,.039.012v-.012h.038v-.014h.051c.006-.008.009-.015.014-.023a.129.129,0,0,1,.089-.026v-.037h.012v-.011l.027.011v-.011c.02-.014.016-.008.025-.037.026-.008.011,0,.026-.014h.012v-.049a.225.225,0,0,0,.026-.014l-.014-.009c.005-.014.009-.026.014-.038a.128.128,0,0,1-.038-.05l-.026-.012c-.008,0-.009.021-.039.012v-.012h-.025v-.014c-.018,0,0,.006-.013.014s-.025-.014-.025-.014h-.065l-.013-.023a.019.019,0,0,0-.025.012.02.02,0,0,1-.025-.012h-.013v.012l-.128-.012v.012l-.051.011v.014h-.038v.012c-.051.013-.039-.037-.09-.026v.014H219c0,.008-.007.016-.011.025-.052-.006-.1-.009-.154-.013v-.012h-.013v.012h-.038v.013c-.031.006-.034-.015-.051-.013v.013c-.037-.006-.076-.009-.115-.013v.013H218.6v-.013h-.023v-.012l-.079.025a.112.112,0,0,0-.1-.025v.012h-.026v.013c-.029.01-.034-.013-.051-.013v.013c-.024.014-.027.034-.051.049.006.016.02.022.014.049h-.014v.012l.026.013a.213.213,0,0,0-.012.038m2.906,3.386h-.063c-.005,0,0,.016-.026.012,0,0-.007-.02-.026-.012s-.026.033-.038.051c-.043.018-.057-.022-.064-.025s-.019.011-.051.011a.372.372,0,0,0-.038.088.168.168,0,0,1-.089,0c-.012.022-.017.018-.027.049-.049.006-.036.018-.076-.012l-.012-.025-.115.012c-.028-.008-.058-.03-.089-.037-.011-.038-.056-.055-.052-.086l.014-.014c-.026-.008-.049,0-.077-.012v-.011H220.3c0-.008-.007-.018-.011-.026a.035.035,0,0,0-.038.014h-.014v-.014l-.064.012v-.012h-.139v.014c-.029.021-.036.052-.064.074v.023l.025.012v.014h-.011c0,.023.011.025.011.025s-.008.024-.011.037.041.065.024.112h-.013c0,.013-.008.033-.011.048a.089.089,0,0,1,.062.024v.014c.033.021.026-.014.038.037a.125.125,0,0,1,.078.037h.011c.005.019.01.041.014.062a.14.14,0,0,0,.076,0c0,.012.009.024.013.037.017-.005.034-.007.051-.013v.013h.027l.011.024.051-.012a.033.033,0,0,0,.026.024c.006,0,.012-.022.038-.012a.394.394,0,0,1,.024.037l.052-.012c0,.008.009.016.013.026s0-.006.013-.014c.029,0,.025.014.025.014h.128v-.026c.025.006.011,0,.025.012h.039v-.012l.038.012a.426.426,0,0,1,.026-.037l.05.012v-.012h.026l.013-.024.025.012a.405.405,0,0,0,.025-.037h.027v-.012l.076-.027c.018-.059.013-.012.051-.035.012-.018.025-.033.038-.049h.04c0-.018.007-.033.01-.051l.052-.012c0-.019.008-.043.013-.062l-.013-.012.05-.025c0-.024-.01-.049-.013-.074h.013c0-.012.009-.024.013-.037-.05-.024-.108-.08-.165-.086Z" fill="#0070c3"/>
    <path id="Path_1932" data-name="Path 1932" d="M220.67,658.011l.011-.024c.017,0,0,0,.012.012l.094-.012a.254.254,0,0,0,.011.024h.011V658h.07v.012l.071-.012.011.023.047-.011c.008.011.015.023.024.035s.02-.012.023-.012a.191.191,0,0,1,.093.012c.021.076.03.019.082.047v.011c.016.012.031.024.046.034.005.025.009.048.012.072h.011c0,.016-.016.018-.011.045h.011v.012s-.012,0-.011.023l.011.024a.018.018,0,0,0-.011.023.031.031,0,0,1,.011.035h-.011v.012h.011l-.011.047a.03.03,0,0,1,.011.035h-.011a.357.357,0,0,0,.024.035H221.3v.059h-.011v.011h.011v.012h-.011v.045h-.012a.266.266,0,0,1,.012.037h-.012v.033h-.011v.059h-.012v.012h.012v.011l-.023.012.011.012v.011h-.011v.047h-.012v.024l-.106.035v.012H221.1v.011c-.014,0-.022-.011-.022-.011-.017,0-.019.017-.047.011,0,0,0-.015-.024-.011v.011l-.047-.011v.011l-.116.012v-.012c-.039-.009-.074.016-.094.012v-.012l-.035.012v-.012l-.035-.011-.011.023-.012-.012H220.6v-.011l-.047.011c-.008,0,0-.027-.023-.023v.023l-.035-.011-.012-.024h-.059V658.9c-.052-.033-.012-.029-.035-.082l-.022-.011c-.005-.016,0,0,.01-.012v-.164h-.01v-.08s.014,0,.01-.024a.018.018,0,0,1-.01-.023s.014-.006.01-.023h-.01v-.047h-.012a.02.02,0,0,1,.012-.024c0-.023-.012-.023-.012-.023-.007-.028.009-.03.012-.047l-.024-.012a1.032,1.032,0,0,1,0-.176h.012l.012-.045h.01a.092.092,0,0,0,.024-.046h.094c.011-.016.024-.032.035-.047l.128-.012v.012Z" fill="#ffec00"/>
    <path id="Path_1933" data-name="Path 1933" d="M222.529,661.233l-.011-.021.011-.006c-.008,0-.015-.01-.022-.014l.015-.021a.153.153,0,0,0-.026-.025l.02-.012c-.007-.016-.007.01-.016,0-.011-.029-.022-.061-.033-.088h-.026c0-.014,0-.029.005-.043a.3.3,0,0,1-.043,0l-.011-.047-.011.006-.027-.051h-.025c-.007-.013.008-.029-.011-.047h-.028l-.021-.041-.011.006c-.012-.033-.025-.064-.038-.1l-.011,0-.027-.051-.011.006c-.009-.014.012,0,.006-.016s-.021-.016-.021-.016l-.033-.062H222.1c-.007-.018.009-.018.01-.031s-.03-.008-.032-.01-.007-.031-.011-.045h-.025c-.018-.024-.034-.045-.049-.068l.009,0,0-.012-.011.006-.028-.051-.01.006c-.019-.02,0-.039-.011-.047h-.026l-.012-.047a.109.109,0,0,0-.026,0l-.005-.012.009-.005-.037-.073-.01.006-.011-.019-.011,0-.006-.036a.285.285,0,0,1-.031-.009l.021-.012c-.029-.029-.036-.016-.065-.045l.021-.012-.005-.01a.092.092,0,0,1-.047-.013c0-.01.019-.02.009-.033a.118.118,0,0,0-.026,0l-.012-.047-.02.009c-.027-.033-.053-.068-.08-.1l-.011,0c-.013-.014,0-.022,0-.026l-.016-.031-.011.006,0-.01a.016.016,0,0,0,0-.025h-.026l-.006-.037-.01.006-.006-.01.011-.006-.022-.016s.012-.009,0-.027c0,0-.014.006-.021-.014l.01-.006c-.007-.019-.019-.011-.021-.015l-.027-.051-.011.006-.011-.022-.009.006c-.011-.013.01,0,0-.015s-.021-.016-.021-.016l-.032-.061-.01.006-.022-.043-.011.006-.01-.021-.011.006-.022-.041-.01.005-.006-.037-.01.006-.033-.035.021-.012-.005-.009a.077.077,0,0,1-.031-.006l.011,0v-.006l-.02-.026c-.005-.015-.023-.007-.026-.023H221.1v-.012l-.023.01v.006c-.011-.006-.023-.008-.035-.014v.024c-.016,0-.018-.018-.046-.01v.01c-.04.012-.07-.014-.094-.01v.01a.354.354,0,0,0-.047-.01v.01a.217.217,0,0,0-.034-.01v.01h-.106v.012c-.019,0-.019-.01-.022-.012a.163.163,0,0,0-.071.012.019.019,0,0,0-.023-.012v.012l-.105.011a.038.038,0,0,1-.012.016v0l-.006.01,0,0v0l-.021.031-.01-.006-.017.031-.01,0-.006.01.011.006c-.024.035-.047.072-.07.107l-.011-.006-.01.022-.011-.006-.017.031-.01,0-.016.031-.01-.006-.006.012a.019.019,0,0,1,0,.025l-.011-.006-.01.02-.01,0c-.019.025-.036.05-.054.076l-.01-.006c-.012.016.01.025.008.033l0,.01-.009-.006-.017.031h-.026l-.006.037-.01,0-.012.019-.009,0-.017.03-.01,0-.016.031-.011-.006-.048.067-.01-.006c0,.011,0,.025-.007.037l-.009-.006-.022.041c-.011.014-.009-.01-.015.006l.009,0c-.014.019-.028.039-.042.056l-.011,0c0,.012,0,.024-.006.036h-.026c-.023.037-.047.072-.071.107l-.009,0-.027.051-.011-.006-.027.053-.01-.006-.027.053-.011-.006-.032.06-.011,0c0,.012,0,.024-.006.035l-.01,0-.026.052-.012,0-.033.062-.009-.006-.022.041-.011-.006-.031.063-.011-.006,0,.012,0,.015-.011-.006-.01.022-.011-.006c-.034.057-.067.113-.1.17l-.01-.006-.016.031-.011,0-.006.037-.009-.006-.023.041-.011-.006-.032.062-.01-.005-.021.041-.01,0-.007.009.005.016-.01-.006-.086.141-.01-.006-.023.041L219,661.2l-.006.037-.01-.006-.017.032-.01-.006c0,.015-.008.031-.012.047l-.01,0-.038.07-.011,0-.015.029-.011,0c-.013.013,0,.023,0,.025s0,.021-.009.035c.035.012-.013.029,0,.037-.01.018.01.022.008.033l.037.028-.019.012.021-.006c.009,0-.006.013,0,.015l.012,0c.011.088.063.076.093.131l.005.045.063.041,0,.023h.011c0,.016-.016.022,0,.045l.076.051c.011.02,0,.02-.009.026l.039.042.035,0a.3.3,0,0,0-.008.037l.011,0c.015.011,0,0,.024.009.027.079.087.112.114.2.053.009.047.039.1.049.006.015.011.031.016.044h.012c0,.012-.006.024-.008.036l.012,0c.02.025.04.031.052.066l-.023,0,.078.074h0a.018.018,0,0,0,.008.02l-.005.027.009.006v.029l.036.006c.012.076.05.078.081.107a.028.028,0,0,0,0,.028l.012,0,0,.023.01.006v.014l.033.019.007.014h.017l.007,0,0,.018V662.8l0,.017h.01c0,.017-.014.021.006.046s.052.034.077.047,0,.02-.007.026l.041.043.035-.006a.306.306,0,0,0-.007.037l.011,0c.015.012,0,0,.025.008.028.078.09.109.12.2.054.008.048.039.1.045a.465.465,0,0,0,.018.045l.011,0a.349.349,0,0,1-.007.037l.012,0c.021.023.041.029.057.065h-.024c.026.024.053.047.079.073l.013,0c0,.015,0,.031,0,.047l.09.058-.007.037.033.016h-.019l.009.008c0,.012.011.023.007.035l.035.023c.022.036-.01.03,0,.059h.012v.023l.034.024c0,.012.027.023.031.033h.023v.023a.414.414,0,0,0,.047.012v.014h.1v.01h.024v-.01a.51.51,0,0,1,.047-.037l.018-.033h.012v-.024h.011v-.035l.023-.012v-.023l.036-.024,0-.021.007-.006,0-.033h.013v-.024h.012l0-.035.023-.009v-.024c.013-.006.024-.014.037-.021.005-.024.01-.045.016-.069a.114.114,0,0,1,.023-.01c.009-.023.019-.046.028-.068l.024-.012v-.023l.012,0v-.024c.012-.007.024-.015.037-.021v-.035c.02-.037.041-.03.052-.09h.024l.015-.057c.065-.017.01-.017.038-.056l.047-.022.015-.056h.012l-.009-.036.023,0a.2.2,0,0,1,.014-.035h.011l0-.033h.013l-.012-.023h.023v-.012a.1.1,0,0,0,.024-.01c.027-.033.009-.055.062-.066.01-.024.019-.045.028-.069l.023,0a.111.111,0,0,1,.026-.047l.011,0,0-.035.049-.033v-.021h0v0a.072.072,0,0,0,.023-.009c.008-.031.018-.061.027-.092h0v-.006l0-.006a.062.062,0,0,1,.024-.009v-.018l.009-.006h0l0,0,.005-.025.01,0,0-.02,0-.017.015,0c0-.01,0-.006-.006-.006l.015-.006.026-.07.024-.012v-.022h.011v-.023l.035-.023,0-.036c.02-.037.04-.027.05-.089h.024l.013-.059c.066-.018.011-.016.037-.057a.311.311,0,0,0,.047-.021c.005-.02.01-.039.014-.059l.012,0-.01-.035h.023a.245.245,0,0,1,.013-.035h.011l0-.035.011,0-.01-.024h.023v-.011a.118.118,0,0,1,.024-.01c.026-.035.007-.057.06-.069l.027-.068h.023a.111.111,0,0,1,.025-.047l.011,0,0-.035a.521.521,0,0,1,.048-.033v-.024l.024-.011c.009-.036.018-.071.028-.1l.023-.012v-.023l.011,0-.011-.025h0a.1.1,0,0,1,.021-.01v0l.025-.016.006-.008" fill="#ffec00"/>
    <path id="Path_1934" data-name="Path 1934" d="M221.032,663.519h-.253v-.026h-.073v-.025h-.048v-.024h-.075v-.017l-.069-.01-.1-.014v-.033h-.072l-.008-.016-.016-.033h-.027v-.013l-.047-.01-.1-.02-.011-.023-.015-.031h-.066a.125.125,0,0,1-.019-.028.22.22,0,0,0-.09-.08v-.052l-.045-.01a.4.4,0,0,1-.2-.153.729.729,0,0,0-.147-.134l-.087-.032-.033-.011v-.039h-.071l-.009-.018-.01-.021-.023-.008-.108-.035v-.042h-.074v-.007l-.039-.014-.108-.037v-.024l-.039-.013-.148-.049c-.029-.018-.07-.047-.111-.078a.873.873,0,0,0-.217-.131v-.043l-.032-.016-.2-.1-.048-.024-.028.045a.442.442,0,0,1-.183.145h-.12v.023h-.048v.043a1.951,1.951,0,0,1-.468.07c-.03,0-.057,0-.08,0v-.03l-.051-.006-.137-.017-.028,0,0-.006-.015-.031-.044-.018h-.038l-.014-.027-.039-.022-.093-.009-.053-.008v-.031h-.074v-.026h-.072v-.023h-.123v-.026h-.074v-.023h-.074v-.025h-.074V662l-.05-.006-.121-.018v-.033h-.05v-.015l-.049-.008-.086-.012-.036-.006v-.015l-.041-.012-.107-.037V661.8h-.049v-.026h-.049v-.023h-.049v-.025h-.083l-.032-.032-.017-.017h-.037l-.008-.016-.017-.033h-.049l-.008-.018-.016-.031h-.035l-.013-.012-.02-.015a.28.28,0,0,0-.082-.055v-.053l-.043-.011a.28.28,0,0,1-.13-.084c-.023-.02-.045-.043-.072-.063v-.062l-.044-.01a.307.307,0,0,1-.122-.086.184.184,0,0,0-.031-.031v-.057h-.083l-.015-.016v-.054l-.024-.018-.074-.055v-.046l-.02-.018-.176-.154v-.055l-.027-.016-.047-.033v-.041l-.017-.017-.032-.034V660.4h-.025v-.048h-.024v-.028l-.032-.015-.026-.014-.017-.072-.006-.026-.041-.019h0v-.121h-.026v-.1h-.024v-.1h-.025v-.121h-.024v-.148h-.024v-.1h-.025v-.074h-.024v-.1h-.025v-.172h-.025V659h-.023v-.434l-.017-.058a.476.476,0,0,1-.033-.184l.009-.021.012-.037.025-.077h-.046v-.054h.024v-.149h.018l.007-.05a.081.081,0,0,0-.008-.047h.009v-.123h.023v-.2h.025V657.5h.025v-.074h.012l.01-.043.014-.055h.037v-.1l.017-.007.032-.016v-.059l.013-.017.021-.026a.287.287,0,0,0,.048-.074h.065v-.072h.036l.011-.045a.257.257,0,0,1,.063-.1l.036-.047h.058l.014-.039.014-.043.212-.043.047-.008v-.039h.027l.016-.031.011-.022a.1.1,0,0,1,.043.01.193.193,0,0,0,.066.017h.058v-.023h.127l.009.018.017.031h.124v.012l.044.011.072.018.013.025.016.032h.03l.022.015.074.049a.66.66,0,0,1,.035.213h-.036v.049h-.025v.074h-.025v.074h-.015l-.008.047-.025.148-.016.1h-.033v.148h-.025v.157l.035-.035.007.107a.04.04,0,0,1-.031-.016l-.011-.033a.466.466,0,0,1-.011.063.458.458,0,0,0-.01.252l.013.039h.02l.015.054.01.043h.012v.075h.025v.072h.024v.074h.024v.074h.025v.1h.025v.049h.025v.1h.024v.075h.024v.074h.025v.123h.024v.027l.049.024h0v.1h.053l-.021.043.018.008v.092l.022.018.075.056v.057l.033.015.016.008v.049l.034.016.038.019.139.162.017.022h.046l.007.01.024.037.017.027h.166l.016-.033.008-.018h.047v-.07l.016-.01.024-.01.007-.027.018-.076.012-.008.043-.027.026-.018v-.07l.017-.008.033-.016v-.074l0,0,.032-.015.012-.043v-.028l.028-.021a.454.454,0,0,0,.068-.065h.077v-.064l.033-.012.02-.006.01-.017.032-.047h.055l.016-.033.008-.018h.044l.017-.025.032-.047h.08l.015-.033.008-.016h.049l.016-.033.013-.026.072-.017.044-.012v-.027l.108-.037.039-.012v-.025a.562.562,0,0,1,.158-.016,1.105,1.105,0,0,0,.189-.018l.029-.007.014.005.077.026v-.047h.1v-.035a.234.234,0,0,1,.038,0,1.332,1.332,0,0,1,.319.056.367.367,0,0,0,.088.012,1.211,1.211,0,0,0,.155-.017l.069-.014v.008l.04.013.075.024.043.016.024-.042c.023-.039.029-.039.051-.041a.21.21,0,0,0,.1-.037l.027-.017v-.03l0,0a.138.138,0,0,1,.074-.04l.034-.009.008-.031c.017-.067.049-.083.114-.112l.054-.025.03-.016v0h.074v-.025h.049v-.024h.1V658.2l.054-.013.044-.012v-.018l.048-.006.1-.013.051-.006v-.018h.049v-.039a1.97,1.97,0,0,1,.347-.043h.027v.034h.123v.023h.1v.025h.074v.026h.1v.008l.04.013.107.035v.041h.049v.008l.04.014.124.041.006.012.016.031.044.017h.017l.017.024.017.023.016.026h.044l.01.017.011.022.022.008.147.048.034.012v.041h.071l.008.016.015.033h.029v.023h.073v.012l.044.012.049.014h.006v.037h.073v.025h.072l.011.021.03.024.2.066.014.028.011.021.022.008.035.012v.027l.044.012.03.008.043.009h0l.011.026.016.033h.052v.012l.045.009.053.014v.037h.074v.026h.071l.009.015.015.033h.052v.024h.049v.025h.049v.026h.05v.023h.048v.025h.049v.024h.049v.012l.045.011.054.014v.023l.044.012.054.014v.037h.049v.014l.047.009.136.028.062.011v.02l.041.014.107.035v.041h.048v.025h.074v.024h.05v.025h.121l.015.033.034.012v.027h.1l.008.018.013.025.028.006.122.025c.012.008.034.028.058.047a.45.45,0,0,0,.154.092.318.318,0,0,0,.059.092l.015.018.018.021h.009l.011.033.008.024.022.011.022.012.021.117.007.049h.017v.049h.023v.1h.025v.048h.024v.1h.025v.072a.11.11,0,0,0,0,.053l.005.031,0,.012-.006.02.006.017,0,.012-.006.033a.221.221,0,0,0,0,.057v.134h.017a.153.153,0,0,0-.013.032h0v.031l0,.06h0v.053l-.016.008-.033.016v.076h-.016l-.008.049-.015.1h-.021l-.012.043-.013.055h-.028l-.008.047-.019.094-.023.011-.034.016v.058l-.057.047-.042.034-.024.019V662l-.027.023-.1.082-.008.008-.012.024-.007.011-.072.018-.026.008-.012.023-.008.018h-.071v.035l-.076.014-.047.009v.028l-.053.011-.045.012v.012h-.074v.025h-.294v.026h-.179v-.026h-.122v-.025h-.279a.351.351,0,0,0-.04-.024c-.023-.011-.047-.023-.075-.035v-.062h-.081l-.012-.012a.159.159,0,0,1-.029-.031.14.14,0,0,0-.073-.063v-.082l-.049-.008L222.4,662l-.061-.012-.007.063-.011.123-.008.07h-.018l-.01.045-.013.053h-.038v.121l-.018.01-.031.015v.028h-.024v.093l-.018.01-.024.014-.006.027-.013.061-.008.037-.053.037-.026.018v.068l-.016.008-.033.015v.055l-.047.031-.074.049-.026.018v.025l-.015.024-.031.046h-.047l-.018.024-.037.049-.023.031-.124.019-.03.006-.013.028-.012.021-.033.008-.061.012-.047.009v.014h-.049v.026h-.052l-.016.031-.008.017h-.049l-.017.034h0l-.024-.007-.077-.028Z" fill="#fff" fill-rule="evenodd"/>
    <path id="Path_1935" data-name="Path 1935" d="M214.562,656.532v.049c-.081.018-.163.033-.245.051-.009.023-.017.049-.025.072h-.049c-.04.072-.1.106-.122.2h-.049v.073h-.05a.283.283,0,0,1-.073.123h-.025v.074c-.016.008-.033.015-.05.025v.073h-.023c-.009.033-.017.066-.025.1H213.8v.072h-.024v.075h-.026v.2h-.023v.123H213.7c-.015.059.029.066.025.1H213.7v.148h-.024v.172h.024c-.007.023-.016.049-.024.074a.607.607,0,0,0,.049.244v.491h.023v.148h.026v.172h.024v.1h.025v.074h.025v.1h.023v.147h.025v.123h.025v.1h.025v.1h.024v.1a.45.45,0,0,1,.049.025c.009.032.017.065.024.1a.452.452,0,0,1,.049.025v.049h.026v.049h.024v.049l.049.049v.048c.025.016.049.034.074.049v.049c.065.059.131.115.2.172v.049l.1.074v.049l.049.049h.05v.025c.061.053.108.125.2.147v.048c.091.053.128.143.245.172v.049a.271.271,0,0,1,.122.074v.026h.05l.024.048h.05l.024.049h.049l.049.049h.049v.026h.05v.023h.049v.025h.048v.024c.049.017.1.033.148.051v.023l.172.025v.024h.049v.025l.171.024v.025h.074v.025h.073v.024h.074v.025h.123v.024h.073v.025h.075v.024c.064.007.13.017.2.025l.023.049h.075l.024.049c.065.007.131.017.2.025v.023a1.541,1.541,0,0,0,.663-.072V662.3h.049v-.026H218a.485.485,0,0,0,.22-.17c.067.032.131.065.2.1v.049a1.738,1.738,0,0,1,.368.221l.148.049v.025c.048.015.1.031.147.049v.023h.073v.026c.049.015.1.033.147.048l.025.049h.05v.026c.048.015.1.033.146.048.133.084.194.252.368.293v.051c.106.027.085.078.148.121h.048c.008.018.017.034.025.051l.123.023v.026h.049l.024.049h.05v.023c.057.01.114.018.171.026v.025h.074v.023h.049v.026h.073v.023h.368v-.049c.026.008.049.016.075.026.007-.018.016-.033.024-.049h.049c.008-.018.016-.033.025-.051h.073v-.023h.049V663.4l.123-.023c.008-.018.017-.033.024-.049.05-.01.1-.017.147-.025.026-.034.05-.065.074-.1h.049c.017-.025.032-.049.05-.074h.024v-.049l.147-.1v-.048l.049-.026v-.074c.025-.016.05-.031.074-.049.009-.041.017-.082.024-.121.017-.01.034-.018.049-.025v-.075h.026v-.048l.048-.024v-.1h.025c.008-.031.016-.064.024-.1h.024c.008-.082.017-.164.025-.246.049.01.1.017.148.025v.074c.09.026.065.051.122.1v.023h.074v.051a1.489,1.489,0,0,1,.172.072h.172v.026h.024V662.4h.024v.026h.123v.023h.294v-.023h.295V662.4h.074v-.023c.033-.008.065-.018.1-.025v-.024c.041-.01.081-.017.123-.025v-.026h.048a.363.363,0,0,0,.025-.048l.1-.024c.007-.017.016-.033.024-.049l.147-.123v-.049l.122-.1v-.049l.05-.023c.009-.041.017-.082.024-.124h.025c.008-.033.016-.066.025-.1h.024c.008-.051.016-.1.024-.149h.025v-.1a.456.456,0,0,0,.049-.026V661.2h.025v-.025h-.025c0-.041.025-.049.025-.049v-.074h-.025v-.026h.025c0-.035-.036-.037-.025-.1h.025c-.009-.024-.016-.049-.025-.072.009-.026.016-.049.025-.075h-.025c-.011-.049.011-.031.025-.049V660.7h-.025v-.1h-.024v-.1h-.025v-.049h-.025v-.1h-.024v-.051h-.024c-.009-.048-.017-.1-.025-.146l-.049-.025-.025-.073H224.6a.279.279,0,0,1-.073-.123c-.113-.021-.16-.1-.245-.148l-.123-.024-.024-.048h-.074V659.7h-.049c-.009-.015-.016-.033-.025-.049h-.1v-.025h-.049V659.6h-.074v-.026h-.048v-.023c-.05-.018-.1-.033-.148-.049v-.025c-.081-.016-.163-.034-.245-.049V659.4h-.05v-.023l-.1-.026v-.025l-.1-.023v-.024h-.049v-.025h-.05v-.026h-.049v-.023h-.05v-.025h-.048v-.024h-.049v-.025h-.074l-.024-.049h-.049v-.025h-.074v-.024l-.1-.025v-.024h-.074c-.008-.017-.017-.033-.025-.048l-.1-.026v-.023c-.023-.01-.049-.018-.073-.026l-.025-.049c-.073-.025-.147-.048-.22-.074l-.025-.049h-.049v-.025H221.8v-.023l-.1-.026v-.023h-.075v-.026h-.048c-.008-.015-.017-.031-.025-.048h-.049v-.026c-.073-.023-.147-.049-.221-.072-.008-.018-.017-.033-.024-.049h-.05l-.048-.074h-.049l-.026-.049c-.049-.018-.1-.033-.147-.049v-.025h-.048v-.024l-.148-.05v-.024h-.1v-.025h-.073v-.024h-.1v-.025h-.122v-.024a1.424,1.424,0,0,0-.491.049v.024h-.05v.025l-.2.024v.025l-.1.025v.024h-.1v.025h-.048v.024H219.3v.025c-.092.049-.166.059-.2.172a.278.278,0,0,0-.123.072v.026c-.082.054-.108-.008-.172.1l-.073-.023v-.026c-.051-.013-.24.053-.344.026a.984.984,0,0,0-.441-.049v.023h-.1v.026c-.025-.008-.049-.016-.074-.026v.026a2.09,2.09,0,0,0-.393.049v.023l-.146.051v.023l-.1.026a.525.525,0,0,0-.024.048h-.05c-.009.016-.017.034-.025.049h-.073c-.016.026-.033.049-.05.075h-.048c-.008.015-.017.031-.025.048h-.049c-.016.024-.033.049-.048.073l-.074.025v.049h-.05c-.033.06-.092.08-.123.123v.049l-.048.023v.074l-.049.026v.074c-.025.016-.05.031-.074.049-.008.031-.017.064-.025.1l-.049.026v.049h-.024c-.009.015-.017.031-.025.048h-.1c-.017-.025-.032-.048-.048-.074h-.05c-.05-.056-.1-.115-.147-.172l-.049-.023v-.049a.444.444,0,0,0-.049-.025v-.049c-.033-.026-.065-.051-.1-.074v-.1l-.048-.025c0-.036.005,0,.024-.024v-.025h-.024v-.074l-.049-.024v-.049h-.026v-.123h-.024v-.074h-.024v-.072h-.025v-.1h-.024v-.049h-.025v-.1H215.4V658.4h-.025v-.072h-.024v-.074h-.025v-.074H215.3l-.024-.1h-.025c-.034-.092.024-.24.025-.295-.018-.025-.033.01-.025-.023h.025v-.1h.024v-.146h.025c.016-.1.033-.2.049-.3h.025v-.073h.024v-.074h.025v-.049h.024a.488.488,0,0,0-.049-.32c-.024-.015-.049-.033-.073-.049v-.023h-.05c-.008-.018-.016-.033-.024-.051l-.1-.023v-.026h-.147a.442.442,0,0,1-.025-.049h-.22v.026c-.015,0-.094-.047-.148-.026a.442.442,0,0,1-.025.049Zm.957,3.043h.05v.049a.14.14,0,0,1,.122.123.209.209,0,0,1,.1.049v.025c.032.008.064.016.1.026l.025.047h.048l.026.05c.027.018.107.022.122.049v.172a.768.768,0,0,0-.048.416h.023v.172h.025v.1a1.353,1.353,0,0,1,.074.169c.067.018.056.034.122.051v.049h.123c.005,0,.009.031.049.024v-.024l.123-.025v-.075h-.049a.279.279,0,0,0-.074-.121h-.024v-.048l-.049-.026c-.009-.082-.017-.164-.025-.246h-.025v-.392h.025c.008-.04.016-.081.025-.122.015-.009.032-.017.049-.025v-.148h.024v-.047h.024v-.075h.026c.008-.033.015-.066.024-.1h.024c.008-.033.016-.067.025-.1l.049-.023c.008-.033.017-.067.025-.1a.37.37,0,0,1,.049-.025v-.049l.221-.2c.015-.024.033-.049.049-.075h.048l.025-.048h.05l.024-.049.148-.049c.006-.016.015-.031.023-.049h.05l.024-.049h.049v-.025h.049v-.024h.074v-.025h.049v-.023c.153-.067.327-.01.515-.049v-.026h.025v.026h.147v.023h.123v.026h.048v.023l.222.074a.545.545,0,0,1,.024.049h.074v.026l.048.023v.049l.1.074v.049h.025v.049h.023v.1H219v.072h.025v.049h.024a1.829,1.829,0,0,1-.024.369H219l-.025.1-.122.1-.026.051h-.048l-.025.048h-.049l-.024.049h-.049c-.008.016-.016.033-.025.049h-.049l-.024.049h-.049l-.221.246c-.034.023-.065.049-.1.072v.049h-.024c-.008.033-.016.066-.025.1H218.1c-.009.041-.016.082-.024.123h-.025v.072h-.024v.172H218v.3a.908.908,0,0,1,.025.343H218v.124h-.025v.171h-.024c-.008.032-.017.065-.025.1-.078.02-.112.072-.172.1h-.073v.025H217.6v.024h-.073v.025h-.1v.023c-.059.016-.064-.023-.1-.023,0,0-.02.031-.048.023v-.023h-.1l-.073-.1a1.3,1.3,0,0,0-.344-.049v-.05l-.172-.024-.025-.049H216.5v-.025l-.2-.023v-.026l-.1-.025v-.024h-.074v-.025l-.146-.049v-.023h-.05v-.026h-.049v-.025h-.049v-.024h-.048v-.025h-.05v-.023h-.049l-.049-.049h-.049c-.009-.018-.016-.033-.024-.051h-.05l-.024-.049h-.049l-.148-.172h-.049c-.016-.023-.033-.048-.048-.072h-.05c-.049-.059-.1-.115-.147-.172h-.024v-.051c-.068-.015-.056,0-.074-.072-.109-.029-.066-.058-.122-.123-.034-.023-.067-.049-.1-.074l-.024-.072c-.025-.018-.05-.034-.075-.049v-.051c-.024-.016-.048-.031-.073-.049v-.049l-.049-.048v-.049h-.024v-.049h-.025v-.049l-.074-.049v-.05h-.024c-.009-.032-.017-.065-.025-.1h-.024v-.072h-.025c-.024-.172-.049-.344-.074-.516h-.024v-.074h-.024v-.075H214.1v-.072h-.023v-.246h-.026v-.515h-.024v-.1H214a1.9,1.9,0,0,1,.048-.639v-.146h.026l.023-.2h.026v-.048h.024v-.073l.049-.025v-.049a.461.461,0,0,1,.049-.025l.025-.1c.016-.008.032-.018.049-.025.009-.032.016-.065.024-.1l.074-.025c.025-.032.049-.065.074-.1h.073c.017-.023.033-.049.049-.074h.025l.025-.049h.048c.025-.031.049-.064.075-.1h.2c.033.061.094.082.122.123s0,.057.049.1a.18.18,0,0,0-.025.1c.017.021.035-.008.025.025-.005.018-.05,0-.049.074.008.024.017.049.024.074H215.1v.073h-.024v.049h-.025v.05l-.049.024c.008.025.016.049.025.074,0,0-.026,0-.025.049h.025v.023H215c-.016.108-.033.213-.049.321h-.025c.009.023.017.048.025.074h-.025v.121h.025v.123h.025v.074H215v.123l.049.024v.123h.025v.074h.024v.072h.024v.049a.468.468,0,0,0,.05.025v.123h.025v.049h.023c.009.065.018.131.025.2h.025l.024.1h.025v.072c.016.01.033.018.049.026.025.072.049.146.074.221h.024a.216.216,0,0,1,.049.1m5.791-.908v.051c.1.031.2.064.295.1l.024.049h.075v.026l.1.023v.026h.074c.007.015.016.031.025.048h.073l.1.121h.074v.026l.1.025v.024c.041.007.081.017.121.025v.023h.05v.026h.1v.025l.147.047v.025h.074a.45.45,0,0,0,.024.049l.148.051c.008.016.016.031.024.049H223v.023h.075a.447.447,0,0,0,.024.049c.045.02.061-.014.073-.023l.05.023v.026l-.222.023v.025c-.048.016-.1.034-.147.049v.049h-.073a.27.27,0,0,1-.2.172v.049h-.049v.051l-.074.023c-.025.033-.049.066-.074.1h-.049l-.024.1h-.05l-.023.072h-.026c-.008.026-.015.051-.024.075-.017.008-.032.015-.049.025v.121c-.017.008-.033.018-.049.026v.048c-.016.008-.033.016-.05.026a.249.249,0,0,0-.048.146c-.068-.015-.056-.033-.123-.049v-.048l-.147-.1c-.008-.016-.017-.031-.024-.049h-.049c-.009-.015-.017-.031-.026-.049l-.1-.023c-.007-.018-.016-.033-.024-.049-.057-.01-.115-.017-.172-.025v-.024h-.049v-.025h-.122v-.026c-.026.008-.049.018-.075.026v-.026h-.172c-.005,0-.006-.031-.048-.023v.023h-.123v.026h-.123v.025h-.1v.024h-.1c-.009.015-.016.033-.024.049h-.123v.025l-.245.023v.049h-.049c-.009.018-.017.033-.026.049h-.048c.007.018.016.033.024.051h-.073v.023c-.041.034-.082.067-.123.1v.051h-.074v.023h-.024c-.051.07.044.065-.073.1-.019.068-.008.054-.074.074-.017.049-.033.1-.049.147-.017.007-.033.017-.05.025l-.023.146-.05.026v.074H219.3v.049h-.024c-.009.041-.017.082-.025.123h-.024v.146H219.2v.319h.025v.05h.024l-.024.073c.016.008.032.015.049.025v.221l-.123-.026c-.008-.015-.017-.031-.025-.048l-.1-.024a.484.484,0,0,1-.025-.051h-.048v-.023h-.05l-.049-.049h-.05c-.008-.017-.017-.033-.024-.049h-.049l-.073-.1-.075-.024c-.007-.017-.016-.033-.024-.049l-.122-.025c-.009-.016-.017-.033-.025-.049h-.049v-.025c-.067-.041-.046.023-.074-.072h.025v-.172h.024c-.009-.108-.015-.213-.024-.321a1.35,1.35,0,0,1,.049-.513h.024c.009-.033.018-.067.025-.1h.025v-.072l.122-.1v-.049l.049-.023.074-.1h.049l.049-.074c.048-.017.1-.033.148-.049.015-.025.032-.05.048-.074l.074-.025v-.024h.049l.049-.074h.049l.049-.049v-.049l.049-.025v-.072h.025V659.8h.024c.008-.147.017-.293.026-.442a.293.293,0,0,1-.05-.025v-.047H219.3c-.008-.058-.016-.115-.024-.174h-.025v-.048l-.049-.024v-.049l-.049-.025-.1-.123H219l-.048-.072c.072-.018.057-.043.073-.049h.122s0-.016.049-.026l.025-.074c.066-.015.056-.031.122-.049v-.074h.026c.037-.043.046-.021.1-.049v-.023h.049V658.4h.074c.008-.015.016-.033.025-.048h.1v.048c.049.016.021,0,.048.026a.718.718,0,0,0,.2-.1h.05l.025-.051h.073v-.023h.049v-.025h.074V658.2a.776.776,0,0,1,.368.072v.026h.073l.025.049a.987.987,0,0,1,.1.025c.009.016.018.031.026.049h.049c.007.016.016.033.025.049h.048c.017.023.033.049.05.074h.073c.009.015.016.033.024.049.075.023.148.049.221.072m-1.668.811v.1c.064.035.041.043.148.049v.051h.1v.072l.368.123.025.049h.1c.008.017.016.033.025.049a.4.4,0,0,0,.318.148c.024-.045.034-.039.05-.1-.066-.03-.1-.045-.123-.125l-.073-.024v-.023c-.025-.01-.05-.018-.074-.026l-.025-.049h-.049v-.025h-.073c-.009-.016-.017-.031-.025-.049l-.123-.023v-.026h-.049c-.016-.025-.033-.048-.049-.074h-.049a.447.447,0,0,1-.024-.049h-.075V659.5h-.073v-.025c-.1-.038-.147-.008-.245,0m4.393.466v.049h.024v.026h.1q.012.023.024.048l.124.073v.074c.024.015.048.033.072.049v.074h.026c.008.033.015.064.024.1h.025v.1h.024v.049h.024v.223h.025v.342H224.5c.009.033.017.066.025.1H224.5c-.024.086-.007.072,0,.147h-.048c-.016.048-.034.1-.049.146h-.026v.051h-.024c-.008.039-.016.08-.024.121a.455.455,0,0,1-.049.025v.049c-.058.049-.115.1-.172.149v.048h-.025l-.048.073-.2.05-.049.073h-.073v.025h-.246v.024H223.3v.025h-.025v-.025c-.17-.032-.367,0-.465-.1h-.025v-.074h-.025c-.009-.024-.016-.049-.024-.073h-.074v-.048h-.073c-.014-.1-.03-.086-.074-.149h-.024v-.123l-.05-.023-.024-.2h-.025c-.017-.048-.032-.1-.049-.146h-.024v-.1h-.025c.008-.05.017-.1.025-.148h-.025v-.195h.025l.024-.1h.024c.008-.049.017-.1.025-.147a.324.324,0,0,0,.049-.025v-.072l.05-.026v-.048l.1-.073v-.051c.057-.048.115-.1.171-.146.009-.016.017-.033.025-.049h.049c.041-.049.082-.1.123-.148H223l.026-.049h.049l.024-.049a1.191,1.191,0,0,1,.2-.049V659.8a1.727,1.727,0,0,1,.516.025l.024.049h.049v.024h.049v.025c.034.023.043.017.1.025m-3.878,3.018c-.109-.027-.087-.092-.2-.123v-.049h-.048v-.049a.176.176,0,0,1-.1-.049v-.023h-.049l-.073-.1h-.025v-.048l-.048-.024c-.009-.051-.017-.1-.025-.148h-.024v-.123h-.026v-.172h-.024v-.344h.024v-.072h.026v-.1h.024v-.072h.025c.007-.033.016-.067.024-.1h.024v-.051l.05-.023v-.049h.024v-.074c.024-.018.05-.033.073-.049v-.049l.147-.123V660.9h.026c.015-.025.032-.048.049-.074h.048l.074-.1h.049V660.7l.1-.023v-.026l.148-.023v-.026h.073v-.025h.074a.956.956,0,0,1,.466-.1v.026h.073v.023h.074v.026l.123.023c.008.018.017.033.025.051l.074.023c.023.034.049.067.073.1h.049c.008.018.017.033.025.051h.048l.1.121h.049l.049.049c.007.025.016.048.025.074.031.025.064.049.1.074.016.09.032.18.049.27h.024v.048h.024c.009.059.017.116.025.172h.025v.321h-.025c-.008.105-.016.211-.025.318h-.024L222,662.4h-.025c-.008.034-.017.067-.024.1h-.025v.049H221.9v.072l-.049.026c-.009.033-.018.064-.025.1-.016.008-.033.016-.049.026v.072c-.032.025-.066.051-.1.074v.049l-.1.074v.024h-.05c-.016.025-.033.048-.048.074h-.074v.025l-.1.024v.025h-.073l-.025.049h-.048l-.026.049h-.049a.312.312,0,0,1-.269.074v-.026H220.7v-.023h-.049c-.017-.025-.032-.051-.049-.074-.041-.008-.082-.016-.123-.026v-.023h-.049c-.009-.016-.016-.033-.024-.049h-.049v-.025h-.05v-.026c-.076-.043-.122-.048-.147-.146" fill="#0070c3" fill-rule="evenodd"/>
  </g>
</svg>
