<svg xmlns="http://www.w3.org/2000/svg" width="15.029" height="19.689" viewBox="0 0 15.029 19.689">
  <g id="Group_208" data-name="Group 208" transform="translate(-387.207 -648.19)">
    <g id="Group_207" data-name="Group 207">
      <path id="Path_1942" data-name="Path 1942" d="M399.1,653.279a4.337,4.337,0,1,1-4.336-4.338,4.336,4.336,0,0,1,4.336,4.338" fill="#fff"/>
      <path id="Path_1943" data-name="Path 1943" d="M402.022,662.254c0-.02-.009-.02-.01-.024v-.2H402v-.009h.012c.005-.028-.015-.034-.011-.047l.011,0v-.035H402l.012-.022a.21.21,0,0,1-.012-.035h.012v-.035H402a.246.246,0,0,1,.011-.036H402a.155.155,0,0,1,.011-.023v-.035H402v-.012h.011a.019.019,0,0,0-.012-.023.25.25,0,0,1,.012-.047H402V661.6h.012a.447.447,0,0,1-.011-.047h.011l-.012-.049s.016-.006.012-.033H402a.11.11,0,0,1,.011-.035s-.017,0-.012-.024a.017.017,0,0,0,.012-.021.035.035,0,0,1-.012-.038c0-.015.012,0,.012-.011a.1.1,0,0,1-.024-.012c-.01-.025.014-.031.013-.047a.2.2,0,0,1-.025-.012c0-.011.008-.021.012-.035a.263.263,0,0,1-.012-.033.02.02,0,0,0,.012-.023h-.012v-.012a.023.023,0,0,0,.012-.025l-.012,0v-.012a.352.352,0,0,1,.012-.035h-.012v-.106s-.015,0-.012-.023a.033.033,0,0,0,.012-.033h-.012v-.106h-.013l0-.1h-.012c0-.012.006-.024.01-.036h-.01v-.023h-.012a.181.181,0,0,1,.012-.035h-.012v-.024h-.01c0-.007.007-.015.01-.023v-.012h-.01v-.07H401.9v-.01h.014l0-.012h-.011v-.025h-.01c0-.014.018-.019.01-.045h-.011v-.06h-.012a.018.018,0,0,1,.011-.022v-.014h-.012v-.07h-.011c0-.01.008-.021.011-.033h-.011v-.023h-.013v-.014h.013a.312.312,0,0,1-.013-.045h-.011c0-.012.008-.024.011-.035h-.011c0-.024-.008-.049-.012-.071h-.012c0-.031-.007-.062-.012-.093h.012v-.012h-.012V659.9H401.8c-.005-.018.011-.022.011-.024l-.011-.035h-.024a.08.08,0,0,0,.013-.047h-.013l.013-.033h-.013v-.026h-.011v-.058a.114.114,0,0,1-.023-.01c0-.016.007-.031.011-.047l-.022-.012c-.006-.015.011-.023.011-.023a.266.266,0,0,1-.011-.047h-.013v-.047a.278.278,0,0,1-.036-.023.405.405,0,0,0,.011-.047l-.033-.023c.007-.03-.02-.069-.03-.116h-.013c0-.013.022-.023.013-.047a.143.143,0,0,0-.024-.009l.011-.038-.022-.011v-.024h-.012c0-.013.021-.021.012-.045a.074.074,0,0,1-.023-.013c0-.014.022-.022.01-.045l-.022-.012c0-.013-.017-.027-.013-.041a.121.121,0,0,0-.024-.01c.005-.017.008-.033.014-.049h-.014v-.023h-.011c-.007-.01-.016-.023-.024-.033h.024c-.009-.039.009-.02-.009-.043h-.014v-.023h-.012l.012-.036-.069-.058c0-.014.007-.029.013-.047l-.048-.035c0-.014.007-.032.011-.047l-.058-.045c0-.012.022-.023.012-.047a.177.177,0,0,0-.037-.023.074.074,0,0,0,0-.059c-.014-.012-.029-.023-.046-.035a.209.209,0,0,1,.013-.035h-.012v-.024a.37.37,0,0,1-.036-.023c0-.024-.006-.047-.01-.071a.325.325,0,0,1-.047-.035c0-.009.007-.023.011-.033l-.023-.013v-.024c-.012-.006-.023-.014-.035-.021a.249.249,0,0,0,.012-.036c0-.007-.016,0-.024-.035-.023-.008-.011,0-.023-.013h-.011l.011-.045-.035-.024v-.023s.022.012.018.012l-.013-.073c-.014-.012-.03-.023-.045-.035,0-.012.009-.023.01-.033l-.034-.025v-.022h-.011c0-.014.008-.023.011-.037l-.06-.045v-.059a.612.612,0,0,0-.057-.044v-.049l-.046-.036v-.058a.545.545,0,0,1-.045-.035c0-.014.006-.03.01-.045-.02-.016-.038-.033-.058-.047v-.059c-.008-.006-.015-.008-.022-.013V657.2H400.7v-.047l-.061-.047.013-.033-.022-.014a.06.06,0,0,1-.025-.058l.01-.012a.559.559,0,0,1-.056-.047v-.056c-.012-.01-.024-.016-.035-.024v-.025h-.011a.127.127,0,0,1,.011-.033l-.024-.012c-.029-.035-.038-.035-.023-.082l-.047-.035v-.059l-.023-.012c-.025-.031-.015-.023-.013-.07h-.022c-.005-.021-.007-.047-.011-.07a.139.139,0,0,0-.023-.01v-.025h-.013v-.047h-.011v-.022l-.012,0v-.044a.13.13,0,0,0-.023-.012v-.024h-.013c.005-.011.008-.023.013-.037-.013-.006-.023-.014-.035-.019,0-.026-.008-.049-.013-.073l-.046-.035c0-.015.007-.031.011-.045l-.022-.013V656l-.036-.023v-.057l-.023-.014v-.056l-.035-.024.012-.047c-.012-.007-.024-.017-.036-.023a.291.291,0,0,0,.012-.035.1.1,0,0,0-.023-.012c-.013-.023,0-.051-.01-.082l-.024-.012v-.058h-.025v-.047H400v-.01a.172.172,0,0,1-.034-.014c-.008-.015.01-.021.01-.021,0-.028-.01-.023-.01-.023v-.061h-.012v-.024a.079.079,0,0,1-.023-.009c0-.014.021-.024.012-.047l-.025-.012v-.059H399.9v-.023h.012c0-.012-.02-.051-.023-.058h-.013c.007-.026.016-.022,0-.057h-.011v-.047c-.008,0-.016-.01-.025-.014v-.056c0-.01-.026-.006-.022-.024h.011c0-.031-.008-.062-.011-.094a.113.113,0,0,1-.024-.013c0-.012.02-.022.012-.045l-.024-.012c.005-.015.008-.031.012-.047h-.012v-.058l-.023-.012c0-.016.007-.031.011-.047l-.023-.012c.005-.015.009-.031.012-.044a.08.08,0,0,0-.022-.012c0-.016.007-.031.01-.049a.067.067,0,0,1-.022-.012v-.057l-.025-.011c0-.016.02-.02.013-.049,0,0-.016,0-.013-.022h.013v-.011a.1.1,0,0,0-.025-.01.5.5,0,0,0,.012-.049l-.022-.011c0-.016.007-.03.01-.047h-.01c-.005-.041-.009-.086-.012-.129h-.023a.251.251,0,0,0,0-.106h-.012l.012-.045a.107.107,0,0,1-.023-.013c0-.016.007-.03.011-.045l-.025-.012v-.059H399.6c0-.015.018-.019.009-.046H399.6v-.059s-.016,0-.012-.023l.012-.012-.025-.012V653.6h-.012c0-.018.013-.022.012-.024v-.013h-.012c-.005-.028.01-.03.012-.047s-.015-.008-.022-.01.007-.033.01-.047-.015-.008-.022-.014.007-.039.012-.056h-.012v-.047h-.013a.02.02,0,0,1,.013-.023l-.013-.036.013-.035s-.018-.006-.013-.035h.012V653.2h-.013v-.045h-.01v-.07H399.5v-.012c.007-.007.019-.007.013-.035H399.5c0-.017-.009-.017-.009-.033h-.013v-.07c.009-.006,0-.008,0-.01v-.012h-.011c0-.025.011-.023.011-.023a.354.354,0,0,0-.011-.035c-.007,0,.005,0,0,0v-.024h.012a.248.248,0,0,0-.012-.035h-.011v-.023h-.013l.013-.012c0-.028-.013-.035-.013-.035s.009-.024.013-.036a.046.046,0,0,1-.022-.011v-.059s-.015,0-.013-.023a.017.017,0,0,0,.013-.022.262.262,0,0,0-.025-.011c0-.018.009-.032.012-.047l-.035-.024a.245.245,0,0,0,.011-.047l-.022-.011a.181.181,0,0,1,.011-.035l-.023-.012c0-.016.008-.031.012-.045h-.012v-.025h-.011c-.008-.026.014-.036.011-.047a.358.358,0,0,1-.035-.024c0-.014.007-.029.011-.045s-.012-.029-.021-.037l0,0,0,0c-.007-.015,0-.045,0-.058-.023-.008-.01,0-.023-.012h-.012c0-.016.008-.031.012-.047h-.012v-.023a.125.125,0,0,0-.023-.012c0-.016.007-.031.011-.047l-.023-.012c-.011-.025.012-.033.012-.037s-.023-.017-.024-.021v-.047l-.035-.024c-.012-.025.016-.035.011-.047l-.023-.009v-.026h-.012a.6.6,0,0,0-.011-.068.017.017,0,0,0,.011-.025.337.337,0,0,0-.034-.022c0-.016.007-.031.011-.047l-.035-.025c.005-.014.008-.029.012-.045l-.034-.022c0-.013.021-.025.01-.049l-.034-.023c0-.015.008-.031.011-.045a.268.268,0,0,0-.034-.025c0-.012.021-.024.012-.047-.012-.006-.024-.016-.036-.023v-.047h-.011V651.2H399v-.047l-.022-.009v-.024h-.012c0-.014.012-.025.012-.025l-.012-.033h-.024a.247.247,0,0,1-.011-.036.016.016,0,0,0,.011-.023l-.023-.012v-.021h-.012l-.012-.073-.023-.011.013-.034c-.016-.013-.032-.023-.047-.037,0-.015.007-.029.011-.046l-.046-.036c.013-.044,0-.044-.026-.08h-.009c0-.015.007-.033.009-.049h-.009c-.021-.023-.026-.005-.037-.045h-.022s.019-.029.011-.046h-.011a.251.251,0,0,1-.012-.036c-.012,0-.022-.009-.036-.013a.108.108,0,0,1,.014-.045c-.054-.033-.015-.023-.036-.07h-.012c-.021-.04-.034-.069-.082-.08a.148.148,0,0,0-.034-.108.138.138,0,0,1-.024-.012V650.1c-.019-.013-.039-.029-.058-.044V650l-.106-.094v-.058a.288.288,0,0,1-.034-.012v-.012a.63.63,0,0,1-.059-.047v-.023h-.01c-.017-.016-.006-.016-.036-.022v-.047c-.031-.035-.064-.07-.093-.1l-.036-.023v-.035l-.023-.012c-.022-.033-.013-.047-.059-.059v-.023c-.04-.012-.043-.043-.07-.071l-.058-.035V649.3c-.007-.006-.017-.008-.023-.014a.424.424,0,0,0-.117-.1v-.022l-.047-.012v-.035c-.051-.013-.069-.048-.129-.058-.012-.049-.039-.041-.069-.071-.012-.015-.024-.033-.035-.046a.218.218,0,0,0-.036-.01v-.012c-.006,0-.015.008-.023.012-.011-.02,0-.035-.011-.047h-.011v.012a.141.141,0,0,0-.034-.012c-.013-.018-.026-.033-.038-.049a.16.16,0,0,0-.035-.01.093.093,0,0,1-.009-.023h-.037v-.012h-.022v-.014h-.024a.344.344,0,0,1-.023-.035h-.047v-.011h-.023l-.024-.034-.035.012c-.015-.021-.031-.039-.047-.058-.03,0-.061-.008-.093-.014v-.022l-.07-.013-.012-.022h-.022v-.011H396.7c-.008-.012-.016-.024-.023-.036h-.024v-.009h-.047a.342.342,0,0,0-.022-.038c-.018-.005-.016.022-.024.024h-.023c-.007-.024,0-.01-.011-.024v-.011c-.024-.014-.037.017-.047.011l-.013-.023h-.022a.1.1,0,0,0-.024-.024v-.011l-.047.011s-.005-.015-.024-.011v.011h-.011l-.013-.023H396.3V648.4h-.025v-.011c-.017,0,0,.033-.022.023l-.024-.035-.035.012v-.012h-.034v-.012h-.058v-.012H396.1s-.007.02-.026.012a.21.21,0,0,0-.011-.021H396v-.012h-.023v-.014h-.011v.014c-.023-.008-.036-.033-.071-.025v.011h-.011a.169.169,0,0,0-.013-.021c-.024-.01-.031.013-.045.01v-.01h-.07c-.006,0,0-.018-.025-.012s.006.014-.009.012,0-.01-.025-.012v-.023h-.069v-.012c-.015,0-.021.022-.048.012-.007-.012-.016-.024-.022-.035l-.012.011h-.035v.012a.022.022,0,0,1-.023-.012c-.022,0-.024.012-.024.012l-.058-.012a.018.018,0,0,1-.024.012l-.011-.023c-.017,0-.019.017-.047.011v-.011h-.013a.015.015,0,0,1-.022.011l-.012-.025a.528.528,0,0,1-.048.025.259.259,0,0,0-.022-.035c-.015-.006-.024.01-.024.01l-.023-.01h-.07s0,.016-.024.01v-.01h-.057v-.012H395v.012h-.047v.01h-.011v-.01h-.025v-.012c-.017,0,.005.01-.01.012h-.048v.01c-.016,0,0-.008-.011-.01a.59.59,0,0,1-.06.01v-.01h-.069v-.012H394.7v.012l-.067-.012a.125.125,0,0,0-.012.022c-.02,0-.04-.006-.061-.01v.01a.251.251,0,0,1-.033-.01s-.006.016-.024.01c0,0-.007-.016-.033-.01v.01h-.013v-.01h-.129v.01h-.011v-.01h-.058c-.005,0,0-.015-.024-.012v.012h-.048v.01a.135.135,0,0,1-.021-.01.344.344,0,0,1-.036.01.032.032,0,0,0-.036-.01v.01h-.035v.014h-.011v-.014h-.057v-.01h-.015a.145.145,0,0,1-.033.01v.014c-.019-.006-.039-.008-.057-.014v.025a.686.686,0,0,0-.141.012c-.035,0-.07-.016-.083-.012a.13.13,0,0,1-.011.024h-.047v-.012c-.024,0-.022.012-.022.012h-.071v.011h-.023v.012h-.07v.012h-.012a.016.016,0,0,0-.023-.012v.012h-.035v.01h-.036v.011c-.021.008-.015-.008-.023-.011s.005.008-.011.011h-.036a.1.1,0,0,1-.012.026.211.211,0,0,0-.035-.012v.012h-.034v.009h-.116l-.014.024-.033-.012a.133.133,0,0,0-.012.024h-.022v.011l-.024-.011-.013.023a.086.086,0,0,1-.023-.012v.012h-.023v.012a.07.07,0,0,1-.046.011v.024c-.014,0-.044-.024-.07-.012,0,.008-.009.016-.012.024h-.013v-.012l-.069.023a.267.267,0,0,1-.012.024l-.047-.012v.012h-.023a.167.167,0,0,1-.012.023.556.556,0,0,1-.059.012v.012l-.034-.012-.034.047h-.025v.01l-.045-.01v.023c-.045.012-.061.037-.117.045v.026l-.071.011c-.007.024,0,.01-.01.024v.011h-.048c-.008.01-.015.024-.024.034h-.023v.011h-.024v.014h-.035c-.011.016-.023.031-.034.045h-.069v.012h.01l-.01.023H391.9v.026h-.022c-.016.052-.007.013-.048.035v.01h-.022c-.018.025-.04.046-.059.07h-.034a.187.187,0,0,0-.07.082l-.024,0v.025l-.046.012c-.01.031,0,.027-.035.035v.022a.253.253,0,0,1-.035.013l-.055.065v-.02l-.02.026h-.007a.2.2,0,0,0-.018.023l-.02.012v.015l-.009.012c-.018.01-.033.02-.051.029-.026.028-.026.059-.069.071v.023c-.044.012-.036.026-.059.059h-.008v0l-.014.008v.035l-.035.023-.094.1v.008l-.009,0v.037h-.022v.018l0,0h-.019a.15.15,0,0,1-.012.039c-.013.012-.026.02-.039.031v.012l0,0-.032.01v.037h-.018c0,.012-.009.021-.012.033h-.012c-.024.027-.06.053-.069.094h-.025v.011c-.023.022-.005.024-.047.036,0,.011.008.023.011.035-.014.008-.029.015-.046.023v.033a.249.249,0,0,0-.023.026h-.011l.011.023c-.015.012-.03.022-.046.033.005.012.008.026.012.038h-.024v.023h-.024c0,.029,0,.039-.01.057l-.012,0v.023a.2.2,0,0,0-.023.01v.023l-.024.012v.045l-.022.013v.024h-.012v.023h-.012v.035l-.025.012c-.018.061-.037.123-.056.186h-.025v.023h.013a.27.27,0,0,0-.013.049h-.021c0,.023-.01.045-.013.068H390.3a.109.109,0,0,1-.01.049h-.013a.188.188,0,0,0,.013.033l-.025.012v.024h-.011l.011.047h-.023v.033h-.012a.192.192,0,0,0,.012.025.1.1,0,0,1-.022.01l.01.014,0,.009h0v.008l-.009.039H390.2c.019.012,0,.055-.016.088l-.012.006v0h-.02v.023h-.01l.01.035-.022.012.012.01c0,.02-.008.039-.012.055l-.005,0h0l-.008,0v.023h-.012v.043l0,0v0H390.1v.021l-.013,0v.035a.1.1,0,0,0-.022.012l.011.024c-.005.005-.028,0-.024.021s.019,0,.013.014a.13.13,0,0,0-.024.011c0,.014-.007.03-.011.045H390c0,.02-.008.084-.012.106l-.023.01.013.011-.013.059h-.012a.02.02,0,0,0,.012.023c0,.024-.012.024-.012.024l.011.033,0,0v0l-.02.01v.035c-.007,0-.014.008-.023.012s.019.035.023.05c-.028-.039-.033.043-.034.071,0,0-.046,0-.023.011h.011v.012h-.024c.005.029.008.061.013.092a.065.065,0,0,0-.018.01c0,.006,0,.011.008.021l0,0v.022h0v.025h-.012a.287.287,0,0,1,.008.029l0,.014h-.009v.01l-.008,0a.245.245,0,0,1,.011.035l-.022.011a.45.45,0,0,1,.011.047l-.034.024a.219.219,0,0,0,.012.047.106.106,0,0,0-.024.011c-.006.018.011.022.012.024,0,.019-.012.019-.012.021v.059a.051.051,0,0,1-.025.011.252.252,0,0,1,.012.036s-.013.007-.012.035l.012.012h-.012v.023h-.01c-.005.014-.008.024-.013.035h.013v.024c-.008,0,0,0-.005,0s-.008.023-.011.035.012,0,.011.023h-.011v.012c.008,0,0,0,0,.01V653h-.01c0,.016-.012.016-.011.033h-.01c-.01.028,0,.028.01.035v.012h-.01v.07h-.013v.045h-.012v.012h.012c0,.029-.012.035-.012.035a.159.159,0,0,0,.012.035.376.376,0,0,0-.012.036.02.02,0,0,1,.012.023h-.012v.047h-.011c0,.019.008.039.011.056a.088.088,0,0,1-.023.014c0,.014.008.031.012.047s-.016.008-.024.01.017.019.012.047h-.012v.013s.017.006.012.024h-.012v.068l-.023.012.012.012c0,.027-.012.023-.012.023v.059h-.012c-.007.027.014.031.012.046h-.012v.059l-.024.012.012.045a.114.114,0,0,1-.024.013c0,.016.009.032.012.045h-.012a.235.235,0,0,0,0,.106h-.022c-.005.043-.007.088-.011.129h-.013c.005.017.008.031.013.047l-.024.011c0,.016.007.032.011.049a.117.117,0,0,0-.023.01v.011h.01c.006.022-.009.018-.01.024-.007.027.009.031.012.047l-.024.011v.057a.138.138,0,0,1-.024.012c0,.018.009.033.013.049a.078.078,0,0,0-.024.012.2.2,0,0,1,.01.044l-.022.014a.372.372,0,0,1,.012.045l-.023.012v.058h-.011a.246.246,0,0,0,.011.047l-.023.012c-.01.023.009.033.012.047l-.024.011c-.005.032-.008.063-.012.094h.012c0,.018-.019.014-.023.024v.056l-.023.014v.047h-.013c-.015.035,0,.031,0,.057h-.012c0,.009-.027.046-.023.058h.012v.023h-.023v.059l-.024.012c-.009.023.009.033.013.047l-.024.011v.024l-.012,0v.061s-.012-.005-.012.023c0,0,.019.006.012.023l-.035.012v.01h.011v.047h-.023v.058l-.023.012c-.012.031,0,.059-.012.082l-.023.012a.2.2,0,0,1,.011.035l-.034.023.011.047a.215.215,0,0,1-.035.024v.056a.145.145,0,0,1-.023.014v.057l-.034.023v.059l-.025.013a.461.461,0,0,1,.012.047c-.016.01-.031.022-.046.033l-.012.073a.362.362,0,0,0-.035.021c.005.012.008.024.013.035h-.013v.024l-.023.012v.046h-.012v.022H388.9v.047h-.011v.025a.256.256,0,0,0-.023.012c0,.021-.008.047-.014.068h-.021c0,.047.014.039-.012.07l-.024.012v.059c-.014.012-.031.023-.046.035.014.047.007.047-.023.082l-.025.012a.332.332,0,0,0,.013.033H388.7v.025l-.035.024v.056a.4.4,0,0,1-.057.047l.012.012a.069.069,0,0,1-.023.058l-.025.014a.151.151,0,0,1,.012.033l-.058.047v.047h-.012v.024a.1.1,0,0,0-.023.011v.059c-.019.014-.039.031-.058.047l.011.045-.013.006,0,.007a.218.218,0,0,1-.031.022v.045l-.008.021-.037.028v.019a.207.207,0,0,1-.017.041l-.021.018a.04.04,0,0,0-.017.013l0,0v0c-.007.01-.01.024-.021.043h-.01v.024h-.012v.021l0,0a.079.079,0,0,1-.021.012c-.008.021,0,.039,0,.064-.008,0-.016.008-.023.01v.024l-.023.011v.024a.043.043,0,0,0-.01.017l0,0h0a.086.086,0,0,0-.021.071h-.021a.24.24,0,0,1-.013.044h.013v.012l-.024.012c-.008.027-.017.054-.023.082h-.023a.711.711,0,0,1-.024.094h-.023c-.009.043-.024.07-.012.1h-.023a.154.154,0,0,1-.007.035l0,0v.018l0,.006h-.01l0,.009h-.019l.011.026h-.011a.1.1,0,0,1,0,.021l-.017.014a.065.065,0,0,0,0,.045H387.9a.181.181,0,0,1-.006.027l-.014.01a.031.031,0,0,0,.011.037l0,.012-.011.008h-.013v.011l-.033.024c.005.017.008.033.013.047-.015.013-.033.023-.048.037a.175.175,0,0,1,.007.027l-.007.029c-.021.016-.039.032-.058.047.005.012.008.024.013.036h-.013v.023h-.011c-.022.023,0,0-.011.043h.023l0,0h0v0a.181.181,0,0,1-.019.029h-.012v.023H387.7a.484.484,0,0,0,.011.049.074.074,0,0,0-.022.01c0,.014-.017.028-.014.041l-.024.012c-.009.023.008.031.012.045a.074.074,0,0,1-.023.013c-.009.024.009.032.011.045h-.011v.024l-.023.011.011.038a.119.119,0,0,0-.023.011c-.009.022.009.032.011.045H387.6c-.011.047-.038.086-.031.116l-.034.023c0,.016.009.031.012.047s-.024.015-.035.025v.045H387.5c0,.016-.009.031-.012.047,0,0,.017.008.012.023l-.023.012c0,.016.008.031.011.047a.137.137,0,0,1-.022.01v.06h-.014v.024h-.01c0,.012.008.023.01.033h-.01a.081.081,0,0,0,.01.049h-.022a.34.34,0,0,1-.012.033s.017.006.012.024h-.012v.023h-.012v.012h.012a.165.165,0,0,1-.005.037h0a.33.33,0,0,0-.007.058H387.4c0,.022-.008.045-.013.069h-.012l.009.021-.005,0,.007.012h-.011l-.006.023h0l0,0-.007.02h.013v0l-.02.012.007.023h-.01l0,.012a.108.108,0,0,0,0,.058v.022h-.019v.013l.008,0v.01h0c0,.01-.014.022-.012.033h.008v.016a.2.2,0,0,0-.02.008l.008.025a.013.013,0,0,0,0,.012.109.109,0,0,0-.019.01l.011.023h-.011v.025h-.013c.005.014.009.03.013.045h-.013v.106h0l0,.01,0,.007,0,.006,0,.012h-.005v.023h-.012c0,.012.008.024.012.036h-.013v.1h-.011v.094h-.007v.012h-.005a.031.031,0,0,0,.012.033c0,.021-.01.019-.011.023v.043c0,.01-.005.018-.008.028l.007.005v.03h-.011c0,.011.007.023.011.035v.012h-.011a.018.018,0,0,0,.011.023v.012h-.01c0,.019.01.023.01.023l-.01.033a.16.16,0,0,0,.011.035.149.149,0,0,0-.024.014c0,.014.022.02.013.045a.171.171,0,0,1-.024.012c0,.015.009,0,.011.011a.038.038,0,0,1-.011.038.016.016,0,0,0,.011.021c0,.024-.011.024-.011.024a.354.354,0,0,1,.011.035h-.011c0,.027.011.033.011.033l-.011.049h.011a.447.447,0,0,1-.011.047h.011v.068h-.011c0,.015.008.033.011.047s-.013,0-.011.023h.011v.012h-.011v.035a.1.1,0,0,1,.011.026h-.011a.142.142,0,0,1,.011.033h-.011v.035h.011a.34.34,0,0,1-.011.035l.011.022h-.011v.037h.011c0,.013-.016.019-.011.047h.011v.009h-.011v.2s-.016,0-.013.024h.013a.182.182,0,0,1-.012.035h.012v.059h.011c0,.062.008.125.013.185h.011v.059h.011l-.011.025a.262.262,0,0,0,.011.092c.006.027-.012.033-.011.047h.011v.035h.012c0,.039.008.078.012.117h-.013v.012h.012v.047h.012c0,.011-.009.021-.012.035h.012v.058h.011c0,.011-.007.025-.011.035h.011v.037h.012v.08h.012v.035h.011v.082h.01v.035h.013v.01l-.013,0c.005.012.01.023.013.033a.1.1,0,0,1-.013.026h.013v.035h.012v.045h.013v.035h.01v.035h.012q.014.059.024.117h.01v.059h.014v.035h.011c0,.012-.008.023-.011.035h.011v.023h.011v.059l.024.012-.012.035h.012v.023h.011v.047h.012c0,.039.009.076.012.118l.011,0v.023l.011,0v.045h.013v.035h.012v.035h.012v.047h.01l.012.047c.012.008.024.014.035.023.005.024.009.047.012.071l.022.011a.556.556,0,0,1,.013.059h.012l.011.045h.012v.047l.023.012v.046l.025.012v.023h.012v.024h.01v.035h.011v.023a.088.088,0,0,0,.025.01v.026l.045.035c.009.027.016.053.024.082.019.014.04.031.059.047v.023l.023.01v.035c.018.037.04.035.047.1a.2.2,0,0,1,.035.011v.034h.023a.092.092,0,0,0,.024.047h.013v.047l.021.011v.022h.012c.025.033.05.045.058.094h.024c.009.037.027.042.035.082h.023c.007.015.018.015.025.025v.021l.033.024v.025c.008,0,.017.008.023.01v.035c.019.028.043,0,.059.059l.07.023c.012.049.044.059.058.106h.024a.36.36,0,0,1,.012.035h.034v.023h.024c.007.014.017.016.022.024v.021h.012a.2.2,0,0,1,.059.084h.022c.022.033.055.041.082.068l.151.165h.025a.133.133,0,0,1,.01.021c.021.006.04.008.06.014v.011a.089.089,0,0,1,.022.01v.026l.035.011c.015.02.032.037.047.057h.023l.048.058a.273.273,0,0,0,.058.012.355.355,0,0,0,.024.035h.022c0,.01.009.016.012.026h.035l.07.08a.358.358,0,0,0,.047-.012l.046.059h.024v.012a.08.08,0,0,1,.023.011v.024l.087.009v0l.005,0v.024a.114.114,0,0,1,.058.035v.012h.024c0,.006.008.015.014.023h.009v-.014c.018,0,.015.022.025.026a.1.1,0,0,1,.023-.012v.012h.023a.329.329,0,0,1,.033.047.034.034,0,0,0,.036-.012.118.118,0,0,1,.036.012v.023a.246.246,0,0,1,.035.012v.01l.035.013.012.022c.027.015.07,0,.093.023s.006,0,.013.026a.247.247,0,0,1,.061.011v.01l.032.01v0h.024v.012l.038.005v0l.015,0,.027,0a.171.171,0,0,0,.017.026l.006,0a.2.2,0,0,0,.013.025h.069c.009.01.016.024.026.037l.063.01.01.012h.034v0l.011,0v0h.01l.01.023.072.018,0,.006a.058.058,0,0,0,.019,0v.021l.069.012.017.013h.007v.013c.033.006.025.02.049.022l0-.01.016-.006v.006c.007,0,.014-.008.02-.012s.007.016.013.024h.02c.009,0,.009.015.025.021v.014c.02.008.016-.035.047-.026l.036.047.045-.01,0,.01h.019a.292.292,0,0,0,.042.006l.009.018h.024v.011a.136.136,0,0,0,.019-.005c0,.005.01.011.012.017h0l.045-.008.01.022.027,0a.2.2,0,0,0,.024.033c.018.006.021-.014.021-.014a.021.021,0,0,1,.025.014c.015-.006.031-.008.047-.014v.024a.366.366,0,0,0,.047.011c.026-.056.027.032.058.026.006,0,0-.033.035-.026a.266.266,0,0,0,.012.024c.018,0,.005-.031.023-.024s.025.032.037.047l.044-.011.012.023h.07v.012h.047a.124.124,0,0,1,.011.023.02.02,0,0,0,.025-.011c.036-.006.036.013.057.023v-.023h.023l.012.023.047-.012.012.024c.026.009.034-.016.046-.012a.241.241,0,0,0,.012.023h.023v.012l.035-.012.013.024h.069c.005,0,0,.015.024.012v-.012h.01a.135.135,0,0,1,.013.023l.047-.011a.1.1,0,0,1,.011.023c.025.01.036-.016.047-.012l.011.024h.024v.011a.022.022,0,0,0,.024-.011.023.023,0,0,1,.024.011l.034-.011v.011l.058-.011a.251.251,0,0,0,.012.023.2.2,0,0,1,.034-.012v.012c.013,0,.025.008.035.01v.013h.012v-.023c.012,0,.024.008.035.01v.013c.015,0,.021-.021.046-.013l.013.025c.027.006,0-.023.013-.025l.034.013v.012c.011,0,.023-.023.045-.012,0,0,.021.026.036.036v-.024h.023a.092.092,0,0,1,.012.024l.035-.014v.014a.536.536,0,0,1,.06-.014c0,.008.006.016.009.025s.02-.017.048-.011v.011h.012a.028.028,0,0,1,.034-.011c.005.008.007.015.012.023.026.008.035-.015.047-.012a.067.067,0,0,1,.01.024c.034,0,.065-.01.1-.012v.012h.023v.011l.035-.011v.011h.012a.027.027,0,0,1,.035-.011s0,.014.023.011c0,0,.005-.019.024-.011a.069.069,0,0,1,.01.023.447.447,0,0,1,.06-.012v.012a.159.159,0,0,1,.035-.012s0,.014.022.012v-.012c.036,0,.027.018.035.024.025.006.073-.027.083-.024l.011.024c.028.008.032-.016.046-.012v.012h.036v-.012a.19.19,0,0,1,.047.012v-.012c.019,0,.02.022.023.022h.153v.011c.02,0,.038-.007.059-.011v.011h.01a.016.016,0,0,1,.023-.011c.011,0,0,.029.035.025v-.014h.035v-.011c.029-.006.029.009.034.011s0-.007.014-.011c.046,0,.092.009.14.011v.014c.017,0,0-.012.011-.014h.036v.014c.012,0,.022-.01.036-.014l.035.014v-.014l.045.014a.021.021,0,0,1,.024-.014c.005.008.008.018.012.024l.011-.01h.057v-.014h.014v.014l.105-.014s0-.015.023-.011v.011h.024v.014l.034-.014v.014h.024v.01l.035-.01s0,.014.023.01v-.01h.034v-.014h.058v-.011H395v.011c.024,0,.032-.013.046-.011a.021.021,0,0,0,.024.011s0-.013.022-.011v.011h.013v-.011h.034v-.01a.028.028,0,0,1,.035.01h.082v-.01c.013,0,.039.019.07.01v-.01l.071.01v-.01h.071v-.012c.011,0,.025.016.056.012v-.012h.012s.005.016.024.012v-.012h.046v-.012a.15.15,0,0,1,.036.012v.012c.026-.006,0-.012.011-.024.027.01.048,0,.08-.011l.012.011h.013V667.8c.019,0,.038.006.057.011.033-.011.063-.023.1-.035v.024c.024,0,.045-.01.069-.012v-.012a.458.458,0,0,1,.047.012v-.012h.093v-.011c.016,0,.019.015.047.011v-.011c.025-.006.045.025.081.011l.012-.025h.035v-.01h.012a.016.016,0,0,0,.022.01v-.01h.037v-.012l.011.012.118-.025v-.01c.02,0,.016.031.045.023.008-.013.017-.023.023-.035h.093v-.011l.036.011v-.011h.011v.011h.013v-.011h.022v-.012l.035.012c.005,0,.005-.016.024-.012,0,0,.005.015.022.012v-.012h.048l.013-.023.058.011.01-.023h.024v-.012c.014,0,.03.02.058.012v-.012h.06v.012h.01a.267.267,0,0,0,.012-.024l.048,0V667.6h.022v-.012a.146.146,0,0,1,.105,0v-.023l.105-.024v-.012h.013v.012l.116-.012a.354.354,0,0,0,.024-.035l.047.012v-.012h.036v-.012a.022.022,0,0,1,.022.012.555.555,0,0,0,.058-.012l.023-.035a.021.021,0,0,1,.025.012c.024,0,.022-.012.022-.012h.07v-.012l.058-.009a.161.161,0,0,0,.013-.026.443.443,0,0,0,.045.012.367.367,0,0,0,.024-.035l.082-.012v-.01a.226.226,0,0,1,.07.01l.035-.047c.031-.009.027.032.048.026v-.014c.013-.006.014-.017.023-.021h.023a.067.067,0,0,1,.011-.024.211.211,0,0,1,.035.012v.01c.022,0,.015-.016.046-.022v-.023l.094-.014v-.021l.094-.024.012-.023.127-.024c.009-.011.015-.023.024-.035h.069c.008-.016.018-.031.025-.047l.092-.011v-.012h.025v-.012a.439.439,0,0,1,.092-.021c.007-.026,0-.012.011-.026s.067-.008.094-.023l.011-.022.035-.013v-.01a.211.211,0,0,1,.035-.012v-.023a.122.122,0,0,1,.035-.012.033.033,0,0,0,.036.012.441.441,0,0,1,.035-.047h.023v-.012a.126.126,0,0,1,.023.012c.007,0,.005-.029.023-.026v.012l.011,0,.013-.023h.022v-.012a.133.133,0,0,1,.058-.035v-.026c.033,0,.065-.006.1-.009V666.7l.024-.011v-.012h.023l.046-.059a.32.32,0,0,0,.047.012c.024-.026.046-.053.069-.08h.036a.158.158,0,0,1,.012-.026h.023c.007-.009.015-.023.023-.035s.039-.006.059-.012l.046-.058H400l.047-.057.035-.011v-.026a.211.211,0,0,1,.023-.01V666.3c.021-.006.038-.008.059-.014.005-.006.008-.016.012-.021h.022c.053-.055.1-.11.154-.165.028-.027.059-.035.08-.068h.023a.21.21,0,0,1,.06-.084h.011v-.023c0-.006.015-.008.023-.022h.023v-.025h.035a.143.143,0,0,0,.011-.035h.023c.014-.045.048-.055.061-.1l.069-.023c.017-.061.041-.031.059-.059v-.035c.008,0,.015-.008.022-.01v-.025l.036-.024v-.023c0-.008.015-.01.023-.023h.021c.012-.04.03-.045.038-.082h.022c.008-.049.033-.061.058-.094h.011v-.022l.026-.011v-.047l.011,0a.112.112,0,0,0,.023-.045h.024v-.034a.13.13,0,0,1,.035-.011c.006-.061.028-.059.046-.1v-.035l.023-.01v-.025c.019-.014.039-.031.059-.045.007-.029.015-.055.023-.082l.047-.037v-.024a.09.09,0,0,0,.023-.01v-.023h.012v-.035h.012v-.024h.01v-.023l.024-.012v-.046l.023-.012v-.047h.012c0-.014.009-.031.012-.045h.011c0-.021.009-.039.012-.059l.024-.011c.005-.024.007-.047.01-.071l.036-.023c.005-.016.008-.031.013-.047h.011v-.047h.012v-.035h.011v-.035h.012v-.047h.012v-.023h.01c0-.04.008-.077.011-.116h.014v-.047h.011v-.023h.013c-.006-.012-.009-.025-.013-.035l.024-.012v-.059h.011v-.023h.012a.24.24,0,0,0-.012-.035h.012v-.035h.011V663.7h.013c.008-.039.015-.078.022-.117h.012v-.035h.012v-.035h.012v-.045h.011v-.035h.013a.079.079,0,0,1-.013-.026.322.322,0,0,1,.013-.035h-.013v-.01h.013v-.035h.011v-.082h.011v-.035h.01v-.082h.014v-.035h.01a.357.357,0,0,1-.01-.035h.01V663h.012c0-.014-.008-.024-.012-.035h.012v-.047h.01v-.012h-.01c0-.041.008-.078.01-.117h.013v-.035h.012c0-.014-.018-.022-.012-.047a.2.2,0,0,0,.012-.094.128.128,0,0,0-.012-.023h.012v-.059h.012c0-.06.007-.123.013-.185h.011v-.059h.01c0-.012-.006-.021-.01-.035ZM390.17,651.307h0l0-.01,0,.01m1.41,1.07h.013c.005-.027.008-.059.012-.086h.014c0-.012-.008-.023-.014-.037a.134.134,0,0,0,.027-.012v-.062h.012v-.024h.012v-.049h.015c-.006-.017-.009-.033-.015-.05h.015v-.026h.013c.007-.037.016-.072.023-.111l.026,0c.005-.072.016-.047.037-.088v-.025h.015c-.006-.008-.01-.016-.015-.024l.028-.012c.012-.033-.005-.062.012-.088s.042-.025.063-.037c.018-.056.035-.115.052-.173.02-.012.043-.024.064-.035v-.026a.161.161,0,0,0,.025-.014v-.023h.013c0-.022.008-.043.013-.062a.108.108,0,0,1,.024-.012.352.352,0,0,0,.013-.039h.013c0-.02.008-.039.013-.061l.026-.012v-.05c.016-.036.052-.038.063-.086h.026c.015-.055.037-.047.077-.075l.026-.025v-.025c.012,0,.024-.008.037-.01s.044-.065.051-.076l.064.013a.037.037,0,0,1,.039-.013c.017,0-.006.015.012.013v-.013h.037v.013c.017,0,.024-.023.051-.013a.122.122,0,0,1,.013.025l.038-.012v.012h.026v.014c.022,0,.015-.022.027-.026s.02.018.051.012v-.012l.038.012s0-.016.025-.012a.023.023,0,0,0,.024.012.023.023,0,0,1,.027-.012v.012h.013v-.012h.024l.015-.025h.075a.1.1,0,0,0,.012-.023l.026.011v-.011h.025v-.014h.052c0-.006.009-.016.013-.025a.449.449,0,0,0,.05-.012c.019-.068.023-.026.065-.049.008-.014.018-.024.024-.037h.027v-.012a.283.283,0,0,1,.1-.039V650.6h.012l.039-.051h.037l.027-.035h.024l.015-.026c.016-.006.032-.008.049-.013s.026-.032.038-.049h.027c0-.008.009-.016.013-.026h.011v-.023l.142-.037v-.023a.15.15,0,0,0,.051-.014v-.012h.051v-.014h.026v-.011c.029-.01.034.013.051.011v-.011a.548.548,0,0,0,.062-.014c.023.025.043.051.066.074h.025c.016.022.035.043.051.063h.024a.1.1,0,0,1,.013.025h.038c.015.018.027.033.04.051h.037v.01l.052.039v.023c.058,0,.046-.019.088.012l.013.025.014-.012a.1.1,0,0,1,.063.024c.005.008.008.018.013.025l.014-.011.074.011s0,.045.013.024c.018,0,0-.014.013-.012a.157.157,0,0,0,.039.012c.008,0,.008-.03.025-.024l.013.024a.022.022,0,0,0,.026-.012.25.25,0,0,0,.039.012v-.012l.024-.012v.024l.051.015a.025.025,0,0,1,.027-.015v.015h.127v-.015h.025v-.012h.052v-.012l.139-.011v-.014h.027v-.012c.034,0,.066-.007.1-.012l.012-.025.039.012v-.012h.024v-.012l.128-.011.013-.026c.038-.006.077-.008.115-.013v-.024c.059,0,.119-.008.177-.014v-.011c.013.006.024.008.038.014v.011a.438.438,0,0,0,.052-.014v.014c.028,0,.049-.025.089-.014v.014h.025c0,.008.01.016.013.024a.5.5,0,0,1,.051-.01l.012.023c.018-.006.035-.008.051-.013l.014.025c.033.016.064,0,.089.014s.035.039.051.06h.064l.038.049h.014v.027a.107.107,0,0,1,.024.012c0,.006-.007.016-.012.025h.037c.028.028.05.057.078.085h.025v.011c.021.018.042.035.064.051v.012h-.014c0,.017.009.035.014.051.058.048.119.1.178.148v.074l.089.063v.023l.025.012a.051.051,0,0,0,0,.049c.031.025.06.051.09.076l-.012.035a.148.148,0,0,0,.024.014v.025l.039.012a.255.255,0,0,1,.051.123c.052.016.015.006.039.037l.024.014-.011.037c.016.011.035.023.05.035v.025a.13.13,0,0,0,.027.012.205.205,0,0,0-.014.039h.014v.025l.024.012v.049l.025.012c.016.023-.008.007.013.025-.014.014,0,0-.025.014l.025.035h.013c.016.027.011.072.025.1l.026.011c-.005.012-.009.026-.013.037.013.01.025.016.039.026-.005.015-.01.033-.014.049a.365.365,0,0,1,.039.025v.06a.169.169,0,0,0,.026.014.462.462,0,0,1-.015.049l.027.012c0,.015-.024.023-.012.05a.146.146,0,0,0,.025.012c0,.014-.023.024-.013.051.008,0,.018.008.026.01s-.008.035-.013.051l.038.025-.012.037h.012v.024h.014c0,.013-.009.025-.013.039h.013c0,.064,0,.046-.025.086-.035,0-.069-.008-.1-.014l-.014-.024-.038.012v.012h-.051v-.024h-.025c.007-.037.021-.128-.013-.16-.01-.035,0-.029-.038-.039-.013-.047-.029-.037-.063-.06l-.025-.038h-.051v-.011h-.027v-.012h-.064s0-.015-.025-.014c-.009.006,0,.018-.025.014a.021.021,0,0,0-.025-.014.025.025,0,0,1-.028.014v-.014h-.165V652.3c-.015,0-.033.01-.051.013a.02.02,0,0,0-.025-.013v.013h-.088s-.005.02-.024.014a.592.592,0,0,0-.081-.035c-.033.012-.053,0-.086.008s-.006-.035-.073-.012c0,.008-.037,0-.042.012h-.013v-.012l-.038.012v-.012H396.3v.012c-.03,0-.068-.022-.113-.012v.012l-.041-.012s0,.016-.025.012.006-.014-.013-.012v.012h-.038v-.012h-.063c-.005,0-.005-.016-.028-.012v.012h-.025v.012H395.9v-.012h-.012v.012H395.8v.013a1.105,1.105,0,0,0-.116.014.145.145,0,0,0-.038-.014v.014c-.045.012-.037,0-.076,0v.023a.13.13,0,0,0-.063.012v.012a.434.434,0,0,1-.052-.012l-.012.026h-.026c-.009.035-.032.068-.038.1a.022.022,0,0,0,.014.024c-.005.021-.011.043-.014.062h-.014v.026h-.013a.16.16,0,0,0-.049.072h-.026l-.012.025h-.089v.012H395.1v.014h-.04v.011h-.1v.014h-.076v-.014a.239.239,0,0,1-.037.014h-.064s0-.018-.025-.014c0,0-.006.018-.027.014a.086.086,0,0,0-.013-.025c-.019-.006-.064.025-.1.011l-.013-.025-.051.014v-.014c-.064,0-.127-.008-.191-.012v.012c-.026,0-.05-.008-.077-.012v.012l-.039-.023-.011.023h-.013V652.7h-.076s0,.016-.027.012c0,0,0-.014-.024-.012a.019.019,0,0,1-.027.012c-.008,0-.006-.027-.025-.023v.011h-.2c-.009-.029-.014-.027-.028-.049H393.8a.334.334,0,0,0,.012-.048.094.094,0,0,0-.024-.014v-.061h-.013a.02.02,0,0,1,.013-.025.021.021,0,0,0-.013-.025c0-.016.009-.034.013-.051a.161.161,0,0,1-.062-.059h-.079v-.025a.683.683,0,0,1-.076-.039c0-.016-.022,0-.026-.02-.023,0-.029-.021-.051-.015v.011c-.016,0-.033-.007-.051-.013v-.012c-.021-.006-.023.012-.026.014l-.012,0v-.012l-.064.012v-.012h-.014a.174.174,0,0,0-.011.025H393.3v-.011h-.051v-.014c-.031-.008-.049.014-.065.014v-.014h-.063v-.012c-.039,0-.077.01-.115.012v.012a.1.1,0,0,1-.075-.012v-.012c-.032-.01-.069.024-.089.026v-.014a.033.033,0,0,0-.039.014c-.023,0-.027-.014-.027-.014a.02.02,0,0,0-.023.012c-.013,0-.038-.026-.066-.012v.014c-.07-.006-.059-.036-.114-.051v-.012c-.013-.006-.063.031-.077.037-.014-.021-.007-.017-.037-.025v-.026H392.4s0-.015-.024-.011a.026.026,0,0,1-.027.011v-.011h-.012v.011h-.064c0,.008-.008.018-.013.026-.051,0-.1.035-.149.041a.206.206,0,0,1-.067.109v.01H392v.025h-.025v.026a.085.085,0,0,0-.064.049l-.127-.012s-.006.015-.025.012v-.012c-.026,0-.051-.008-.075-.014v.026a.826.826,0,0,0-.1-.026c.005-.016.009-.033.013-.049s-.018,0-.013-.025m5.19.656c.009.016.009.014.025.026v.013h-.025a.228.228,0,0,1-.026.059c-.056.01-.111.017-.166.027a.266.266,0,0,0-.012.024h-.039v.011l-.077-.011-.012.025h-.064v.012h-.012c-.024-.037-.036-.026-.064-.049-.009-.012-.017-.025-.026-.039a.478.478,0,0,1-.076-.012c-.009-.012-.016-.023-.026-.035l-.038.012v-.012l-.051.012v-.012h-.063v-.012h-.078v-.013a.107.107,0,0,0-.05-.026v-.025l-.025-.012c-.02-.047.008-.076,0-.111h-.013v-.049h-.015a.019.019,0,0,1,.015-.023v-.04h-.015v-.011h.015v-.112c.031,0,.058-.009.088-.013,0,0,0,.025.026.025.052-.033.081.006.129,0v-.012h.011v.012h.064s0,.023.026.026c0-.008.009-.018.013-.026h.012v.012l.038-.012v.012h.051v-.012h.039v-.012h.013c.012,0-.005.024.025.024l.012-.024h.014v.012a.029.029,0,0,0,.025-.012c.022,0,.025.012.025.012l.115-.012v-.013h.039v-.012l.037.012a.028.028,0,0,0,.027-.012c.017,0,0,0,.012.012s.026-.012.026-.012c.029-.006.032.012.051.012s0-.018.025-.012v.012c.021,0,.043.01.063.013.01.041.018.082.027.123-.014.01-.027.016-.039.026v.025h-.013c-.03.074.038.18-.063.209m-3.519-.3h-.025v.026H393.2c0,.023-.007.048-.012.074h-.012v.123a.321.321,0,0,1-.038.023v.026a.558.558,0,0,0-.065.111h-.025v.039a.244.244,0,0,0-.088.084c-.03.006-.062.01-.09.014v.014h-.179v-.014h-.026v-.014h-.038v-.012c-.043-.013-.086.02-.113.012v-.012h-.039v-.011h-.027v-.012c-.05-.017-.094,0-.113-.014l-.038-.023a.341.341,0,0,1,0-.162v-.049h.012a.113.113,0,0,0,.026-.049h.025v-.051h.014v-.011c0-.006-.032,0-.027-.038h.013c0-.023.008-.048.014-.074a.4.4,0,0,0,.037-.025v-.023h.013a.027.027,0,0,0-.013-.038c0-.017.011-.019.013-.048l.114-.039c.013.005.026.007.039.013v-.013c.022.005.042.007.064.013.005-.008.007-.017.013-.025.05.006.1.008.153.012a.878.878,0,0,1,.241-.012h.166a.242.242,0,0,0,.039.037v.025h-.013c0,.041.007.082.013.123m4.45.594c0,.018-.019.02-.013.049,0,0,.017,0,.013.023h-.013v.039h-.013c0,.018.022.022.013.049h-.013v.063h.013a.391.391,0,0,1-.012.052l.022,0v.008h-.012v0h0v.012h0l0,.045-.012,0,.005.06-.009,0h0v.014h0l.011.022a.131.131,0,0,0-.023.013v.018l.012.007v.024l-.012,0,.007.111-.025.014a.036.036,0,0,0,.017.037l-.011.035h.013c.005.027-.011.027-.011.027l0,.061-.024.016c0,.011.025.019.017.047-.008.006-.017.009-.025.015s.011.024.015.035h-.012l0,.026-.013,0a.372.372,0,0,1,.016.047h-.013c-.006.015-.031.029-.022.052l.013,0,0,.026-.026,0c0,.039.018.037,0,.062l-.025.012c.006.021.011.043.017.062l-.014,0c-.01.012,0,.008-.012.01v.006h-.01c.005.019,0,.008.012.022-.007.025-.012.048-.021.076l.017.011h-.014l-.011.038-.012.007v.008h-.012v0l.015.033c-.007.006-.016.01-.024.016v.01a.145.145,0,0,1,.009.025H397.5l0,.026-.025.017a.177.177,0,0,0,0,.021h0a.139.139,0,0,1,.015.024l-.023,0v.01l0,0-.011.023a.129.129,0,0,0-.008.041l.014,0-.016.024a.264.264,0,0,1-.009.06h-.012v.037l-.026.012c-.005.029-.009.057-.013.088h-.012c-.01.023-.017.049-.026.074-.033.049-.012.045-.041.123l-.04.076a.114.114,0,0,1-.026.049h-.013v.026l-.026.011v.037h-.012c-.018.024-.031.03-.038.063a.08.08,0,0,0-.023.01v0c-.032.033-.041.08-.074.111l0,.025c-.009,0-.017.01-.025.014v.012c-.012.006-.023.009-.036.015v.024h.014a.226.226,0,0,0-.011.037l-.026,0,0,.023-.063.018,0,.025c-.039.051-.091.117-.129.17h-.027a.137.137,0,0,1-.01.027c-.051.03-.058-.019-.072.055l-.027,0,0,.037-.025,0c-.006.029,0,.024-.024.039l0,.012a.051.051,0,0,0-.051,0l-.1.119c-.011.006-.025-.024-.05-.01l-.012.028-.036.025,0,.013h-.025v.014a.094.094,0,0,1-.05.028l0,.025c-.048.027-.1.035-.109.1l-.024,0v.023c-.034.01-.062.057-.088.031l-.007.008h-.024l0,.025c-.039.006-.071.01-.088.032s-.007.027-.01.039l-.076.006,0,.025-.138.033a.158.158,0,0,0-.01.028l-.028,0,0,.011-.051,0,0,.014-.025,0a.129.129,0,0,1-.013.023l-.025,0,0,.012a.284.284,0,0,1-.12,0l0,0h-.006v.008h-.019v0h-.005v.009c-.018.008-.022-.006-.025-.009h-.005l-.047.015v.014l-.037,0v.014a.056.056,0,0,0-.017.005l0-.027a.226.226,0,0,1-.03-.01l-.025.037h-.089v.014h-.053l0,.01h-.077v.014h-.052v.011c-.016,0-.034-.008-.05-.011v.011h-.077v-.011h-.012l-.013.025-.014-.014h-.012v.014h-.09v.012c-.026,0-.05-.01-.076-.012v.012h-.011v-.012a.382.382,0,0,0-.04-.014v-.011c-.038-.008-.043.038-.089.025,0-.01-.009-.016-.013-.025a.217.217,0,0,1-.1,0v-.014h-.09v.014c-.021-.005-.041-.008-.062-.014v.014h-.013l-.026-.038-.09.024v-.01a.29.29,0,0,0-.038-.014v-.011h-.038V657c-.016,0-.034-.008-.051-.012a.018.018,0,0,1-.025.012v-.012h-.025v-.013c-.024,0-.087.029-.129.013v-.013h-.025l-.012-.024h-.026v-.012h-.05v-.011h-.026l-.014-.028c-.045-.005-.092-.015-.139-.023v-.026h-.076l-.014-.037a.133.133,0,0,0-.09-.025v-.023H393.3v-.038c-.026.028-.058-.017-.091-.025v-.023h-.026c-.013-.059-.064-.065-.115-.088v-.024a.1.1,0,0,1-.051-.025v-.012H393v-.013a.425.425,0,0,1-.038-.026.072.072,0,0,1-.012-.023c-.029-.012-.04.017-.052.011l-.1-.109a.045.045,0,0,0-.05,0v-.014c-.021-.013-.017-.006-.025-.037h-.027v-.037h-.025c-.02-.072-.023-.023-.077-.049l-.012-.025h-.026c-.042-.049-.085-.1-.127-.148v-.026l-.064-.012V656h-.025a.369.369,0,0,1-.012-.035h.012v-.025a.186.186,0,0,0-.038-.012v-.014a.1.1,0,0,1-.026-.012v-.025c-.034-.029-.067-.059-.1-.086v-.025h-.012l.012-.024c-.029-.025-.06-.051-.089-.074,0-.025-.007-.051-.013-.074s-.033-.026-.05-.037v-.026l-.025-.013.012-.036-.025-.013v-.026c-.011-.008-.026-.015-.039-.023,0-.012.008-.025.013-.037l-.025-.012v-.025l-.052-.037v-.049a.317.317,0,0,0-.038-.026v-.06h-.012c-.013-.018-.025-.035-.038-.051h.025c-.011-.043-.028-.031-.04-.074h-.023a.1.1,0,0,1,.013-.026h.01v-.011a.17.17,0,0,0-.037-.024v-.064c-.008,0-.016-.008-.025-.01a.389.389,0,0,0,.012-.037.1.1,0,0,0-.025-.014.179.179,0,0,1-.011-.037h-.012l.012-.011c-.01-.026-.019-.049-.028-.077.016-.011.007,0,.016-.023-.028-.006-.014,0-.028-.012h-.012c0-.021.009-.041.012-.062l-.025-.012c-.017-.026,0-.022,0-.063h-.026v-.025h.012c.009-.023-.016-.035-.025-.049h-.013c.005-.017.009-.031.013-.049h-.013v-.025h-.011c0-.014.007-.023.011-.035a.115.115,0,0,0-.024-.014c-.013-.027.017-.037.013-.049l-.027-.013v-.061s-.015,0-.012-.025h.013c-.005-.012-.009-.026-.013-.037a.033.033,0,0,0,.012-.037l-.024-.012v-.112h-.013V654s.019,0,.013-.025l-.027-.012a.177.177,0,0,1,.014-.037h-.015v-.063h-.012v-.06h-.013c-.025-.086.023-.2.013-.248h-.013c0-.018.019-.02.013-.049h-.013v-.014s.018,0,.013-.023c0,0-.014,0-.013-.026l.013-.025h-.013c-.005-.029.013-.031.013-.049v-.012h-.013c0-.013.009-.025.013-.039s-.017,0-.013-.023c0,0,.016,0,.013-.023a.025.025,0,0,1-.013-.028h.013c0-.041.009-.082.011-.123h.028v-.012h-.013a.526.526,0,0,1,.013-.062.017.017,0,0,1-.013-.023h.013v-.014h-.013V653h.013c.009-.033,0-.027.038-.037v-.012l.051.012v-.025l.039-.012v-.012l.088.024v-.024a.238.238,0,0,0,.05-.013v.013h.053v.012h.012v.037h.013a.18.18,0,0,1-.078.074c.007.014.022.022.015.051h-.015v.012l.028.011v.063l.025.012c-.005.017-.01.033-.013.048.03.026.058.051.089.075,0,.017-.008.035-.013.05h.013c.023.032.045.034.051.086a.227.227,0,0,0,.09,0c.012.014.031.016.037.026v.023c.006.01.017.01.026.026l.063-.012v.023c.015.006.026.008.039.012v.014c.013,0,.026-.026.051-.014v.014c.021.013.017.007.027.037h.024l.014.025c.034,0,.067-.01.1-.013v.013l.013-.013c.046,0,.094.009.14.013v.012h.025v.014a.226.226,0,0,1,.116,0v.011a.389.389,0,0,1,.051-.011.1.1,0,0,0,.011.023.435.435,0,0,1,.052-.012v.012c.018,0,.022-.017.051-.012a.033.033,0,0,0,.037.012v-.012h.015a.071.071,0,0,0,.013.024l.1-.012c.005-.01.01-.016.013-.023l.051.011v-.011c.026,0,.038-.022.064-.022v.012l.038-.012v.012a.091.091,0,0,0,.052.012c.015-.053.061-.024.076-.078h.026a.424.424,0,0,1,.024-.1h.014v-.026h.012l.013-.039c.044-.009.032-.025.077-.035,0-.023.008-.051.013-.074h.011l-.011-.037h.011v-.049a.125.125,0,0,0,.028-.025l.1-.037a.49.49,0,0,1,.065.013v-.013h.037v-.014c.053-.016.055.021.09-.024a.122.122,0,0,1,.076.024v.014H393.9c0,.015.007.033.011.048a.021.021,0,0,0-.011.026.019.019,0,0,1,.011.023H393.9v.174h.011c.005.025.009.051.014.074h.025v.063c.067.062.136.123.2.185l.013-.011.153.023a.343.343,0,0,0,.025.037.028.028,0,0,0,.038-.012.437.437,0,0,1,.039.026v-.014h.153s0-.017.025-.012v.012l.127-.012.013-.025a.3.3,0,0,0,.053-.014l.011-.023h.026l.013-.037c.014-.012.034-.024.05-.035v-.063c.052-.018.014-.01.039-.039.007-.008-.027-.035-.009-.039s-.01-.037,0-.055l-.038-.011v-.014c-.085,0-.067.008-.153.008l-.013-.026a.584.584,0,0,0-.177,0v.014c-.031,0-.06-.008-.09-.014v-.009h-.014v-.112a.1.1,0,0,1,.027-.011c.023-.059-.02-.108.025-.151l.013-.023h.063v.011h.014c.007,0,0-.019.038-.011v.011c.016,0,.023-.023.051-.011a.272.272,0,0,1,.024.035c.023,0,.043-.008.066-.012v.012a.889.889,0,0,0,.1-.012.08.08,0,0,1,.014-.023c.027-.012.049.013.062.011V653.1h.051l.014-.024h.075v-.013a.306.306,0,0,0,.064.013h.09v-.013h.013v.013c.038-.006.076-.009.113-.013a.114.114,0,0,0,.041.037v.062h.011c0,.014-.025.022-.011.049l.024.012v.051c.005.009.016,0,.026.035h.025l.012.025h.014v-.014h.076v.014h.114v.012h.026v.013c.019,0,.044.008.064.012v.014c.029.008.035-.014.051-.014l.051.061c.028.013.036-.012.051-.012v.012h.025v.013c.017,0,0,0,.013-.013s.025.013.025.013h.065c0,.008.007.018.012.026h.027a.239.239,0,0,0,.011.023h.027v.014h.012v-.014c.013,0,.026.01.041.014a.046.046,0,0,1,.061-.026v.012h.026l.024.03a.132.132,0,0,0,.066.007.049.049,0,0,1,.063.026c.025-.008.049,0,.075-.008s.047.033.091.02v-.012h.026v-.014h.053l.012-.023h.038V653.5l.1.012V653.5a.124.124,0,0,1,.05-.026v-.025l.039-.012v-.013h.025v-.012l.051.012c.022-.073.055-.03.076-.061v-.025h.041l0-.012h-.012c.008-.017.02-.015.024-.025v-.024a.46.46,0,0,0,.051-.039v-.035h.013c.005-.017.009-.033.013-.049.027-.021.05-.043.078-.062v-.012a.834.834,0,0,1,.1-.025s0,.015.025.013c0,0,0-.019.026-.013s-.005.017.012.013a.2.2,0,0,1,.026-.027.223.223,0,0,0,.014.039l.076-.012v-.013c.02,0,.014.021.023.025a.036.036,0,0,0,.04-.012l.077.012c0,.039.009.082.013.123,0,.008-.01.016-.013.023a.034.034,0,0,1,.013.04h-.013v.06Zm-2.093-1.459h.1v.014h.051v.012c.028.005.062-.03.1-.012.005,0,0,.015.037.023v.024s.032-.022.051-.012v.012c.017.013.033.027.052.039.01-.01.035-.047.063-.039l.013.027c.017,0,.033.008.051.012.012-.024.017-.02.026-.051a.214.214,0,0,1,.1,0v.012h.025a.225.225,0,0,1,.014.027.245.245,0,0,1,.038-.014v.014h.026v.012c.021,0,.023-.012.025-.012h.063v.012c.023,0,.044-.01.065-.012v.012c.018,0,.019-.02.051-.012v.012h.012a.033.033,0,0,1,.038-.012v.012h.015a.169.169,0,0,1,.038-.012v.012h.012a.238.238,0,0,1,.038-.012v.012c.02,0,.029-.01.051-.01s.015-.014.051-.006c.028-.02.05,0,.076-.023l.013-.024h.025V651.9l.077-.012v-.014h.025c.007,0,.011-.018.025-.025v-.037h-.011c0-.012.009-.024.011-.036h-.011c0-.05.005-.066-.039-.076h-.038l-.026-.049c-.027-.011-.037.016-.051.012v-.012h-.026a.2.2,0,0,0-.013-.025c-.04-.018-.1.031-.128.025v-.011h-.024l-.025-.037-.039.011V651.6H396.6s-.01-.02-.025-.026v.026h-.063s0-.018-.026-.014v.014h-.039v.011l-.063-.011v.011H396.3l.012.012v.014a.126.126,0,0,0-.051-.014v.025h-.013l-.013-.025-.037.014v-.014l-.038-.012v.012h-.052v.014c-.04.006-.024-.03-.063-.026v.012h-.014v-.012H395.8V651.6c-.06-.01-.145.074-.2.023a.137.137,0,0,0-.051.014c-.008.043-.019.1-.051.123v.06c.016.033.072.026.113.039Zm-3.581-.211c.017.047.05.018.025.088.031.018.036.039.077.049v.012c.017.009.007-.022.025-.024l.012.024c.023.006.051-.022.09-.012v.012l.077-.012v.012h.051c0,.007.008.017.012.025h.026v.012l.241-.012c.005.008.029,0,.032.012.044.021.037.007.072,0,.011,0,.024.007.038.013v-.013h.025c.014-.006.006-.033.038-.026a.081.081,0,0,0,.031.016c.007-.008.017.006.019,0,.044-.008.085-.018.128-.025l.038.011v-.011h.039V651.8h.051a.09.09,0,0,0,.012-.024.139.139,0,0,1,.089-.025v-.037h.014V651.7c.008.006.018.008.026.014V651.7c.021-.012.017-.006.025-.037.026-.006.011,0,.026-.012h.013V651.6l.025-.014-.014-.012c0-.011.009-.025.014-.037a.141.141,0,0,1-.038-.049.154.154,0,0,1-.026-.013c-.007,0-.008.023-.038.013v-.013h-.027v-.012c-.016,0,0,0-.011.012-.029,0-.026-.012-.026-.012h-.064a.161.161,0,0,0-.013-.023c-.02-.008-.023.009-.025.011a.024.024,0,0,1-.026-.011H393.1v.009c-.042,0-.084-.008-.127-.009v.011l-.053.012v.012h-.037v.013c-.051.012-.039-.039-.09-.025v.012h-.051l-.012.025-.153-.012v-.013h-.014v.013h-.037v.012c-.031.008-.034-.014-.051-.012v.012l-.115-.012v.012h-.013v-.012h-.024v-.013l-.078.025a.116.116,0,0,0-.1-.025v.013h-.026v.012c-.029.01-.035-.012-.052-.012v.012c-.023.016-.026.035-.05.049.005.017.02.023.013.051h-.013v.011l.026.012-.013.037m2.906,3.389h-.062c-.005,0-.005.016-.026.011,0,0-.007-.019-.027-.011l-.037.049c-.045.017-.058-.022-.065-.024s-.018.01-.05.012a.272.272,0,0,0-.037.088.172.172,0,0,1-.09,0c-.013.021-.019.017-.027.049-.049.005-.037.015-.077-.014l-.011-.024-.114.012c-.03-.007-.059-.029-.09-.037-.011-.037-.056-.057-.051-.086l.014-.014a.789.789,0,0,1-.079-.011v-.012h-.063c0-.008-.008-.017-.013-.025a.037.037,0,0,0-.038.011h-.013v-.011l-.064.011v-.011h-.14v.011c-.028.022-.036.053-.063.075v.025l.025.012v.013h-.011c0,.024.011.026.011.026a.205.205,0,0,0-.011.035c0,.027.041.066.024.113h-.013a.3.3,0,0,0-.011.049.074.074,0,0,1,.062.024v.013c.032.022.024-.013.038.035a.145.145,0,0,1,.078.039h.011c.005.02.009.04.014.061a.12.12,0,0,0,.075,0,.306.306,0,0,1,.014.039c.016-.006.035-.008.05-.014v.012l.027,0a.1.1,0,0,1,.011.023l.052-.011a.035.035,0,0,0,.027.023.026.026,0,0,1,.037-.012l.024.038c.018,0,.036-.01.051-.012l.015.023c.017.006,0,0,.012-.011.028,0,.025.011.025.011h.128v-.023c.025.006.01,0,.025.012h.039v-.012a.328.328,0,0,1,.038.012c.009-.012.016-.026.025-.038l.051.012V655.6h.026l.011-.023.026.012.026-.037h.026v-.014l.077-.025c.017-.059.012-.012.05-.036.012-.017.027-.033.038-.048h.04c0-.018.007-.036.011-.051s.035-.01.052-.012c0-.021.008-.043.013-.062l-.013-.012.049-.025c0-.024-.008-.049-.012-.075h.012l.015-.037c-.051-.023-.109-.08-.166-.086Z" fill="#0070c3"/>
      <path id="Path_1944" data-name="Path 1944" d="M394.41,658.027l.012-.023c.015-.006,0,0,.012.012l.093-.012c0,.008.008.014.012.023h.012v-.011h.069v.011c.024,0,.046-.009.07-.011l.012.023.046-.012a.17.17,0,0,1,.023.036.02.02,0,0,0,.025-.014.216.216,0,0,1,.092.014c.021.076.031.017.083.046v.012c.015.012.031.022.046.033s.007.049.011.071h.012c0,.017-.018.019-.012.047h.012v.011s-.013,0-.012.024a.259.259,0,0,1,.012.023.02.02,0,0,0-.012.023.033.033,0,0,1,.012.036h-.012v.011h.012l-.012.045a.034.034,0,0,1,.012.035h-.012l.024.038h-.012v.056h-.012v.014h.012v.012h-.012v.045h-.011l.011.037h-.011v.033h-.012v.058h-.011v.012h.011v.012l-.023.012.012.011v.012h-.012v.047h-.011v.023c-.036.01-.071.024-.105.033v.014h-.024v.012c-.014,0-.023-.012-.023-.012-.016,0-.018.018-.048.012a.017.017,0,0,0-.023-.012v.012l-.046-.012v.012l-.117.012v-.012c-.038-.01-.073.014-.093.012v-.012l-.035.012v-.012l-.035-.012a.267.267,0,0,1-.012.024l-.012-.012h-.057v-.012l-.047.012c-.009,0-.005-.027-.025-.026v.026l-.035-.012c0-.009-.007-.015-.009-.023h-.059v-.014c-.055-.031-.013-.027-.036-.08l-.024-.012c0-.015,0,0,.012-.011v-.164h-.012v-.08s.015,0,.012-.024a.021.021,0,0,1-.012-.023.02.02,0,0,0,.012-.024h-.012v-.049h-.01a.018.018,0,0,1,.01-.021c0-.026-.01-.024-.01-.024-.007-.027.009-.029.01-.047l-.022-.011a.935.935,0,0,1,0-.176h.012l.01-.045h.012a.1.1,0,0,0,.024-.047h.092a.375.375,0,0,0,.035-.047c.044,0,.087-.009.129-.011v.011Z" fill="#ffec00"/>
      <path id="Path_1945" data-name="Path 1945" d="M396.269,661.248l-.01-.02.01-.005-.021-.016.015-.019-.027-.028.021-.01c-.007-.015-.007.01-.016,0l-.033-.09-.026,0c0-.014,0-.03,0-.043a.3.3,0,0,1-.042,0c0-.016-.007-.032-.012-.047l-.01.006-.026-.053-.027,0c-.007-.014.009-.029-.011-.047h-.027l-.022-.041-.01.006-.038-.1-.011.006-.027-.051-.01,0c-.01-.012.01,0,.005-.015s-.022-.014-.022-.014l-.032-.063-.027,0c-.007-.019.009-.019.012-.033s-.032-.008-.034-.009l-.011-.045h-.026c-.016-.024-.032-.045-.048-.069l.009-.006,0-.01-.01.006-.028-.05-.011.006c-.018-.02,0-.04-.011-.049a.117.117,0,0,1-.026,0l-.011-.047h-.027l-.005-.01.01-.006-.037-.072-.011.006-.011-.022-.01.006c0-.012,0-.025-.006-.035a.173.173,0,0,1-.031-.01l.02-.012c-.028-.029-.035-.015-.063-.046l.02-.01-.006-.01a.071.071,0,0,1-.047-.016c0-.007.02-.017.01-.031a.113.113,0,0,0-.026,0l-.012-.049-.02.012c-.028-.033-.054-.068-.08-.1l-.012.006a.02.02,0,0,1,0-.027l-.016-.031-.01,0-.005-.008a.019.019,0,0,0,0-.027h-.026c0-.012-.005-.024-.007-.036l-.009.006-.006-.01.011-.005-.022-.016a.02.02,0,0,0,0-.027s-.015.005-.022-.014l.01-.006c-.006-.019-.018-.01-.02-.016l-.027-.05-.012,0-.01-.02-.011.006c-.009-.014.012,0,0-.016s-.02-.015-.02-.015l-.033-.061-.01,0-.022-.041-.011.006-.009-.022-.011.006-.022-.041-.01.006-.006-.037-.011.006c-.01-.014-.021-.024-.031-.037l.02-.01-.005-.01-.032,0,.011-.006v-.006l-.019-.027c0-.013-.023-.006-.027-.021h-.023v-.012l-.023.01v.006a.192.192,0,0,0-.036-.014v.023c-.016,0-.017-.019-.045-.009v.009c-.04.012-.07-.013-.1-.009v.009a.31.31,0,0,0-.046-.009v.009a.2.2,0,0,0-.035-.009v.009h-.1v.012c-.021,0-.021-.01-.025-.012-.028-.008-.063.012-.069.012a.02.02,0,0,0-.023-.012v.012l-.106.012a.029.029,0,0,1-.011.013v0l-.006.008,0,0v0l-.023.033-.009-.005-.017.031-.01-.006-.007.01.011.005c-.023.038-.047.073-.069.11l-.011-.006-.011.021-.01-.005-.016.031-.011-.006-.015.031-.011-.006-.006.01s.01.016,0,.026l-.011,0-.011.019-.01,0-.053.076-.011-.005c-.011.013.012.025.009.033l-.005.01-.01-.006-.015.031h-.028l-.005.035-.011,0-.011.02-.01-.006-.016.031-.011-.006-.016.032-.009,0c-.017.021-.033.043-.049.066l-.01-.006-.006.037-.011-.006-.022.042c-.01.013-.008-.01-.016.005l.011,0c-.015.02-.028.039-.043.057l-.01-.006-.007.037h-.025c-.023.037-.048.072-.07.108l-.01-.006-.028.052-.01-.005-.027.05-.01,0-.028.052-.009-.006-.034.061-.009-.006-.007.037-.011-.006-.026.053-.01-.006-.033.063-.01-.006-.022.041-.011-.006-.032.062-.01-.005-.005.009,0,.018-.01-.006-.011.02-.01,0-.1.17-.011-.006-.015.031-.011-.006-.006.037-.01-.006-.022.041-.01,0-.033.06-.011-.006-.02.041-.011,0-.006.01.005.016-.011-.006c-.028.047-.056.094-.085.139l-.01,0-.022.041-.011-.006c0,.013,0,.025-.006.037l-.009-.006-.017.031-.01-.006c-.005.016-.008.032-.012.047l-.01,0-.037.071-.012-.006-.016.031-.01,0a.015.015,0,0,0,0,.024c-.013.017,0,.021-.009.037.035.011-.012.029,0,.037-.009.017.011.021.008.033l.037.027-.02.012.023-.008c.009,0-.006.016,0,.018l.011,0c.013.088.064.076.094.129l.005.047.063.04,0,.024.011,0c0,.018-.015.021,0,.049l.075.049c.012.019-.005.019-.009.025l.04.043.035,0-.008.035h.011c.014.012,0,0,.024.01.026.078.087.111.114.2.053.008.045.039.1.049.006.016.011.031.017.045h.011a.308.308,0,0,0-.007.035l.011,0c.021.026.04.032.053.065l-.022,0c.025.023.05.048.077.074h.01l-.01,0a.018.018,0,0,0,.008.017l0,.028.008.005,0,.03.038.006c.012.076.049.078.081.107a.028.028,0,0,0,0,.027l.011,0,0,.024.011.006v.014l.032.017.008.016h.017l.006,0,0,.019v-.013l0,.017.01,0c0,.018-.015.022.006.047l.078.047c.012.019,0,.021-.009.025a.558.558,0,0,1,.041.043l.035-.006-.007.037h.011c.016.011,0,0,.026.007.029.078.091.108.12.2.054.005.048.039.1.045.006.015.012.031.019.045l.012,0c0,.011-.005.025-.008.037l.012,0c.021.023.041.029.055.062l-.022,0c.027.024.053.047.079.072l.013,0c0,.016,0,.032-.006.047l.091.059c0,.012,0,.025-.007.037s.021.01.033.016h-.02l.01.007c0,.012.011.024.006.035l.036.024c.022.035-.011.029,0,.059h.012v.023a.213.213,0,0,1,.034.024c0,.009.026.021.03.033h.024v.025a.451.451,0,0,1,.047.01v.012h.1v.011h.024V663.9c.014-.012.03-.022.046-.036l.018-.035h.013V663.8h.011v-.035l.023-.012v-.024l.035-.023,0-.021.008-.006v-.034h.013v-.023h.011v-.035c.009,0,.017-.008.025-.01v-.023l.037-.02c.005-.025.01-.047.015-.07l.023-.01c.01-.023.019-.047.028-.07a.111.111,0,0,0,.025-.01v-.024l.011,0v-.023l.037-.022,0-.035c.021-.037.04-.029.052-.091h.024l.014-.056c.066-.018.01-.018.038-.057a.415.415,0,0,0,.048-.021c.005-.018.011-.039.015-.057h.012l-.01-.035.023,0c0-.012.009-.023.014-.035h.012l0-.035.011,0-.01-.026.023,0v-.012c.007,0,.016-.005.023-.009.028-.033.01-.057.063-.067.009-.023.018-.047.027-.068l.024,0a.082.082,0,0,1,.025-.047l.012,0,0-.035c.016-.012.032-.022.049-.033v-.022h0v0l.023-.01.026-.091v-.006l0-.006a.118.118,0,0,1,.024-.01v-.02l.007,0h0v0c0-.01,0-.018.005-.026l.01,0,0-.019,0-.016h.017c0-.01,0-.008-.008-.006l.016-.005c.008-.026.017-.049.026-.071l.023-.011v-.024l.012,0v-.023a.337.337,0,0,1,.035-.022l0-.037c.02-.037.039-.027.05-.092l.023,0,.014-.056c.065-.02.011-.018.036-.059l.048-.021c.005-.02.009-.04.014-.057h.01l-.009-.035h.023a.36.36,0,0,1,.014-.035h.011v-.036h.012a.134.134,0,0,1-.011-.021h.024v-.012a.144.144,0,0,1,.023-.01c.027-.035.008-.056.062-.068.008-.023.015-.047.025-.07l.024,0a.08.08,0,0,1,.025-.047h.012v-.033l.047-.036v-.021l.025-.012c.008-.035.017-.07.026-.1l.024-.012v-.024h.011l-.01-.023h0a.061.061,0,0,1,.022-.01v0l.025-.015.005-.01" fill="#ffec00"/>
      <path id="Path_1946" data-name="Path 1946" d="M398.758,663.272h-.6v-.026h-.125v-.025h-.075V663.2h-.05v-.025h-.1v-.014l-.052-.011-.074-.014V663.1h-.05v-.026h-.051v-.025h-.074l-.008-.014-.018-.035h-.025v-.025h-.08l-.031-.047-.019-.029H397.3a1.467,1.467,0,0,1-.148-.448l-.009-.054h-.055a.859.859,0,0,0-.276.048l-.092.01-.13.014a.105.105,0,0,0-.065-.024h-.065l-.005.028h-.083v.025h-.2v.024h-.251v.025h-.075v.037a.538.538,0,0,1-.06,0,1.69,1.69,0,0,1-.337-.037H395.4l-.359.021v-.023h-.118l-.01-.031-.015-.043h-.041l0,0a.165.165,0,0,0-.069-.057l-.005-.025-.016-.133-.006-.057h-.005l.011-.048.015-.079h-.039v-.4l.013-.006.047-.023-.011-.051-.006-.02h.017l-.01-.072c0-.025-.008-.041-.012-.058a.351.351,0,0,1-.012-.075.068.068,0,0,0,.033-.048l.006-.034-.031-.039h.041l-.024-.076v-.125h.024v-.451h.025v-.1h.037l-.013-.074-.013-.076.012-.051a.294.294,0,0,0-.009-.15h.015l0-.069-.025-.4,0-.061h-.186l-.013.047-.042.155-.026.093-.024.012-.029.014-.005.031-.021.1-.006,0-.047.031-.028.019v.059l-.011.012-.081.1h-.174l.033.063-.012.023-.006.014h-.076l-.019.035-.007.015h-.074v.024h-.076l-.018.037-.008.02-.467.044a1.477,1.477,0,0,1-.4.088h-.032v-.039h-.074v-.023h-.1v-.008l-.043-.013a.393.393,0,0,0-.108-.018c-.039,0-.056-.006-.068-.018l-.006-.006-.022-.013-.01-.043-.049-.032a.279.279,0,0,1-.168-.093.59.59,0,0,0-.139-.1l-.052-.023-.03.047a.4.4,0,0,1-.092.082.711.711,0,0,0-.074.056l-.009.008-.005.01-.007.015h-.074l-.018.034-.008.015h-.1v.026h-.049v.025h-.027l-.016.037-.013.022-.072.019-.029.008-.013.026-.007.013h-.1v.025h-.05v.038l-.075.015-.05.01v.014h-.076v.023h-.126v.028h-.074v.023h-.126v.025h-.1v.026h-.151v.025h-.086a1.6,1.6,0,0,1-.332.059h-.005v-.033H390v-.051l-.086.029-.037.012-.023.007-.134-.021.034.041-.123.016a.051.051,0,0,1,.017-.049l.083.01a.08.08,0,0,0-.055-.043H389.6v-.016l-.052-.01-.073-.015v-.022l-.05-.011-.052-.014v-.039h-.124v-.01l-.049-.014-.053-.013v-.04h-.126v-.005l-.043-.016-.09-.029-.035-.012-.013-.027-.014-.026-.048-.013-.033-.006V660.5l-.051-.01a.383.383,0,0,1-.181-.1.53.53,0,0,0-.094-.072v-.061l-.045-.016c-.008,0-.015,0-.021,0l0,0-.007-.007v-.073l-.048-.011a.208.208,0,0,1-.048-.02.273.273,0,0,0-.054-.023v-.061h-.1a.2.2,0,0,0-.048-.066.111.111,0,0,1-.034-.061l-.009-.035-.035-.012a.087.087,0,0,0-.02,0l0,0c.012-.034-.021-.067-.048-.094-.006-.008-.013-.014-.018-.022l.007-.019.027-.086h-.049v-.063l-.052.024v-.033l-.034-.02-.014-.008v-.1l-.037-.018-.014-.008v-.1h-.025v-.022l-.029-.019-.027-.02.028-.056-.047-.024v0l-.026-.3,0-.06h-.009l.012-.075.013-.076h-.011a.1.1,0,0,0-.016-.052l.028-.024-.013-.025v-.145l.015-.008.065-.033-.04-.06-.014-.022v0h.024v-.076h.011l.013-.051.012-.049v0h.039V658l.014-.008.037-.016V657.9l.013-.007.035-.018v-.027h.008l.015-.043.014-.041.023-.016h.058l.007-.053.009-.051.008-.046H388l.012-.049c0-.016.006-.024.008-.03h0l.023-.013.007-.008h.063v-.059a.125.125,0,0,1,.049-.017l.052-.012V657.4h.076v-.068a.3.3,0,0,0,.034-.014.493.493,0,0,1,.149-.045.049.049,0,0,1,.034.01l.018.018h.025a.278.278,0,0,1,.075.008.117.117,0,0,1,.014.041l0,.013.011.014a.4.4,0,0,1,.034.1h-.024v.05h-.032l.008.071.025.226.006.059h.018v.2h.025v.045l.028.02.048.033v.054l.036.018.023.012,0,.013.015.059.007.027.027.014.015.008v.074h.057l.055.074.02.026h.052l.043.052.063.077.019.023h.054l.031.031.02.018h.012v.025h.075l.008.016.017.035h.05l.008.016.017.033h.051l.007.016.019.035h.15v.025h.1v.018l.056.007.116.016,0,0v.033h.076v.026h.1v.025h.075v.023h.151v.026h.076v.019l.058.006.225.024.071.009v-.033h.126v-.025h.251v-.026h.227v-.023h.04l.006,0,.021,0h.033v-.008l.1-.019.012,0,.011-.006.1-.065.178-.113.019-.012.007-.021.019-.055.057-.037.028-.019v-.051l.023-.02.051-.039.027-.017v-.026l.014-.023a.2.2,0,0,0,.021-.041l0,0,.045-.014.014-.049.011-.011c.052-.061.1-.119.157-.18h.084V658.2a.117.117,0,0,0,.038-.054.59.59,0,0,0,.063-.032.172.172,0,0,1,.074-.031l.052-.012V657.9h-.082l-.057-.076-.019-.025h-.055l-.014-.012v-.059l-.028-.019-.046-.031v-.047l-.026-.02-.064-.046-.012-.01v-.049l-.022-.02-.076-.06-.052-.045V657.3h-.035a.192.192,0,0,1,.028-.076.343.343,0,0,0,.017-.033.141.141,0,0,0,.046-.022.1.1,0,0,1,.045-.018l.049-.011v-.067l.018-.01a.491.491,0,0,0,.12-.085l.025-.067v0a.08.08,0,0,0,.07-.056.658.658,0,0,1,.306.08l.017.035.018.035h.051l.007.014.013.027.028.006.052.013v.022l.045.016.045.013,0,0,.012.026.014.029.033.006.094.019.011.022.017.035h.051l.006.014.017.037h.028v.025h.058l.021.014.037.025.01.006v.072l.055.008a.117.117,0,0,1,.087.043.27.27,0,0,0,.082.063v.052l.044.014.058.02.058.072.031.039.014.016.021.005.05.012.031.01.136.158.019.023h.041l.007.014.018.035h.037l.012.012a.4.4,0,0,1,.047.045.5.5,0,0,0,.13.1v.053l.047.014a.136.136,0,0,1,.057.029.258.258,0,0,0,.159.049l.077,0-.011-.076-.005-.037a.411.411,0,0,1-.007-.118h.038V658h.025v-.151l.015-.007.036-.018V657.8h.024v-.075h.025v-.007l.02.006.082.019V657.7h.026l.017-.035.007-.014h.021v.026h.154v-.026h.122v.026h.18v-.026h.3v-.031l.2-.018.035.018.093.045V657.6h.225v-.016l.1.016.047.005.02-.041.008-.013h.15v-.028h.272l0-.021.238,0h.065v-.025h.251v-.026h.076l.043.014.025-.049.007-.016h.149v-.013l.077.013.074.012V657.4h.252v-.025h.175v-.025h.226v-.024h.276V657.3h.152v-.026h.149v-.027l.274-.018v.02h.153v-.025h.05V657.2h.176v-.025h.076v-.024h.1v-.025h.126V657.1h.227v-.026h.147a.081.081,0,0,0,.022,0h.039a.5.5,0,0,0,.1.01h.037c.043,0,.056,0,.071.019l.034.018.02.4H401l-.01.053a.1.1,0,0,0,.022.088l-.022.236h0v.008l0,.039,0,0v.3h.18V658.2l.032,0a.506.506,0,0,1,.258.067l.028.045.015.019.018.029h.045l.017.032.016.033.017.035h.033l.022.016.048.031v.053l.033.017.016.008v.053l.036.015.014.01v.027l.008.014a.306.306,0,0,0,.044.059c.016.017.021.023.023.088l0,.045.043.013.039.012a1.038,1.038,0,0,0,.048.182l.01.017.02.012.014.006v.127h.031l.016.183a.107.107,0,0,0-.02.088l.007.055h.016v.224h.025v.4h.025v.072h-.025v.074H402.1l.023.076v.2H402.1v.127h-.026v.074h-.026v.076h-.025v.051h-.025v.074l-.013.008-.029.014-.006.031-.019.094-.022.009-.036.018v.027h-.025v.051h-.025v.088l-.032.031-.018.02v.041l-.046.031-.03.02v.052l-.013.022-.032.047h-.061l-.016.044-.01.03h-.068v.06l-.179.159-.022.017V662l-.164.131-.179.144-.14.045-.025.01-.012.023-.012.024-.073.018-.028.007-.014.028-.006.013h-.052l-.017.037-.007.014h-.076l-.017.035-.011.022-.1.019-.052.012v.012h-.049v.025h-.126v.039l-.034.006a.332.332,0,0,0-.137.041l-.015.01-.017.035-.01.016-.007.006-.08.06-.013.01-.007.013-.007.014h-.044l-.019.029-.029.043,0,0h-.056l-.017.035-.014.028-.051.015-.044.016v.026l-.533.185-.18,0h-.064Z" fill="#fff" fill-rule="evenodd"/>
      <path id="Path_1947" data-name="Path 1947" d="M392.324,657.412l.058-.185s.011-.127.1-.127.262-.014.262-.014l.12-.031s-.013.01.312.172.572.15.638.336a3.318,3.318,0,0,0,.241.462l.831.52-.162.3-.323-.463-.544-.358s.117-.087-.086-.087-.6.005-.6.005-.243.207-.347,0a2.477,2.477,0,0,0-.508-.531" fill="#ffec00" fill-rule="evenodd"/>
      <path id="Path_1948" data-name="Path 1948" d="M392.546,656.785c-.029.1-.017.025-.074.074q-.013.039-.027.075a1.063,1.063,0,0,1-.15.1v.051c-.068.016-.057.033-.125.049-.016.062-.089.125-.051.226h.026v.051l.15.125v.051l.1.074v.051l.077.051v.049l.049.05h.05c.026.034.05.067.075.1h.051v.049c-.085.017-.1.054-.176.076-.017.062-.013.041-.049.074v.026h-.051c-.059.068-.116.134-.176.2h-.025v.05c-.1.032-.031.006-.075.075h-.026v.05c-.032.026-.066.051-.1.077v.05l-.075.049c-.009.026-.016.051-.025.076-.093.057-.185.117-.276.176-.042.008-.083.016-.126.026-.029-.022.01-.032-.025-.026v.026h-.1v.023h-.226v.025h-.251v.026h-.126v.025l-.226-.025v-.026h-.075v-.025h-.15v-.023h-.076v-.026h-.1v-.025h-.075v-.026c-.06-.008-.118-.015-.177-.025v-.025h-.1v-.026h-.175c-.009-.015-.018-.033-.026-.049h-.049c-.008-.017-.017-.035-.026-.05h-.051a.447.447,0,0,0-.024-.049h-.051v-.026h-.049l-.05-.05h-.051l-.125-.151h-.051l-.075-.1h-.025v-.051l-.05-.024c-.008-.035-.017-.068-.025-.1l-.052-.025v-.049a.74.74,0,0,0-.074-.051v-.076h-.025v-.2h-.026l-.025-.225h.025v-.051h.026a.324.324,0,0,0-.051-.2c-.02-.09-.044-.1-.15-.1-.081-.076-.248.032-.327.051v.051h-.075v.023a.19.19,0,0,0-.1.051v.026H388v.025c-.037.033-.033.012-.051.074h-.05c-.008.051-.016.1-.025.151h-.025c-.028.029,0,.009-.05.025-.008.023-.017.051-.025.076h-.025v.049l-.051.025v.077a.468.468,0,0,0-.05.025v.074h-.025c-.009.033-.017.066-.024.1h-.026v.074h-.025v.051h-.025l.05.074a.474.474,0,0,1-.05.025v.151H387.5l.026.05a.063.063,0,0,0-.026.051.043.043,0,0,1,.026.051.044.044,0,0,0-.026.051h.026l-.026.148h.026c.008.1.017.2.025.3l-.025.023c.017.01.034.018.05.026l-.025.051c.025.017.051.033.075.05v.049h.025v.076a.47.47,0,0,1,.05.026v.1c.018.008.033.018.051.026v.025h-.025c.007.026.016.049.025.076l.05-.027v.027h.025c-.009.024-.017.049-.025.075h.025c.025.035.09.078.05.1.02.027,0,0,.025.024s0,.009.05.025c.025.1.074.078.1.176h.076v.05c.088.008.076.032.15.049v.076h.025c.028.03,0,.01.05.026v.051c.122.064.169.168.327.2v.049c.033.007.067.017.1.025.008.018.017.033.026.051l.15.049v.025h.125v.025l.1.026v.025h.127v.026l.1.023v.027l.126.024v.025h.125c.035.01-.01.024.026.026.027-.018-.009-.036.026-.026v.026c.049.007.1.017.149.025.026-.008.05-.018.075-.025V661h.152v.025a1.035,1.035,0,0,0,.4-.05h.151v-.026h.15v-.025h.1V660.9h.126v-.027h.075v-.023h.126v-.026h.074V660.8l.126-.026v-.025h.05v-.025h.076l.024-.049c.034-.01.067-.018.1-.026.008-.017.017-.033.025-.05h.05v-.026h.05v-.023h.075l.026-.051h.075c.009-.018.017-.033.025-.051.055-.051.135-.088.176-.15.125.058.167.179.327.2.015.059.007.045.049.074.054.053.122.024.2.051v.025h.1v.026h.075v.023a1.018,1.018,0,0,0,.5-.074c.168-.018.336-.033.5-.051.008-.015.016-.033.025-.049h.1V660.5h.049c.009-.018.017-.033.025-.051h.076a.334.334,0,0,0,.024-.051h.051c-.009-.015-.016-.033-.024-.048h.1c.033-.043.067-.084.1-.127h.025v-.075l.076-.05c.008-.041.016-.084.025-.125a.347.347,0,0,1,.051-.026c.024-.092.049-.183.074-.277h.076c.008.135.017.27.024.4h-.024c-.009.041.044.119.024.2h-.024c.008.051.017.1.024.151h-.024v.051h-.025v.025h.025v.025h-.025v.452h-.026v.125H394.7c.009.025.018.05.025.076H394.7c-.028.125.094.107,0,.15a.856.856,0,0,0,.025.176H394.7c.009.033.018.066.025.1l-.05.026v.226s-.034,0-.025.051h.025v.225h.025c-.008.041-.017.084-.025.125h.025c.009.068.018.135.025.2.072.021.061.031.1.076h.024l.026.074h.1v.026c.152-.008.3-.016.454-.026a1.387,1.387,0,0,0,.476.026v-.026h.075v-.023h.251v-.025h.026s.008.035.049.025v-.025h.126v-.026h.076v-.025a.039.039,0,0,1,.05.025l.251-.025a.855.855,0,0,1,.276-.051,1.387,1.387,0,0,0,.176.5h.025l.05.076h.05v.025h.05c.009.016.017.034.026.051h.05v.026h.049v.023h.051v.025l.126.026v.025h.1v.026h.05v.023h.075v.025h.126v.026h.728v-.026h.2l.578-.2v-.025c.025-.01.049-.018.075-.026l.024-.05h.051l.051-.076h.049c.008-.016.016-.034.025-.049l.1-.076a.5.5,0,0,1,.026-.051,1.1,1.1,0,0,1,.2-.049v-.025h.125v-.026h.05v-.025c.043-.008.084-.016.126-.026.009-.015.017-.033.025-.048h.075l.025-.051h.051c.008-.016.017-.033.025-.051l.1-.023a.346.346,0,0,1,.024-.051c.05-.018.1-.033.15-.051q.189-.15.377-.3v-.049l.2-.175v-.026h.05c.007-.023.017-.049.024-.074h.052l.049-.076h.025v-.074c.026-.018.051-.035.077-.051v-.051l.048-.049v-.051h.026v-.05h.025v-.051l.05-.024.026-.126c.016-.008.032-.018.049-.026v-.049h.025v-.05h.025V660.9h.026v-.076h.025V660.7h.025v-.2h.025c-.009-.025-.017-.051-.025-.076h.025v-.074h.025v-.2h-.025v-.4h-.025v-.226h-.025c-.008-.042.024-.043.025-.049-.008-.092-.016-.184-.025-.278h-.025v-.1c-.018-.008-.034-.018-.051-.026a1.23,1.23,0,0,1-.049-.2l-.076-.023c-.005-.127-.032-.1-.076-.176v-.051c-.017-.01-.032-.017-.048-.025v-.051l-.051-.025v-.049c-.026-.018-.051-.033-.076-.051v-.025h-.051c-.015-.034-.032-.067-.049-.1h-.05c-.017-.025-.035-.051-.051-.076a.572.572,0,0,0-.4-.074v.15a1.891,1.891,0,0,0,.277.15v.051c.158.041.148.178.226.3.017.008.034.016.049.025l.027.1.074.051v.051h.026v.074h.025v.051h.026c.006.048.016.1.023.15h.025v.275h.026v.176h.025a1.52,1.52,0,0,1-.025.5c-.008.15-.016.3-.026.451h-.025v.051h-.023c-.01.051-.018.1-.026.152l-.051.024V661h-.025v.049h-.025v.076c-.017.008-.033.018-.051.025a.813.813,0,0,0-.125.3c-.069.02-.056.008-.076.076h-.05a1.18,1.18,0,0,1-.275.3c-.068.076-.134.15-.2.227-.052.015-.1.033-.152.048-.016.026-.034.051-.051.077h-.049c-.008.017-.018.033-.026.05l-.1.024a.475.475,0,0,1-.025.051h-.076v.025c-.024.008-.05.018-.075.025-.008.016-.016.034-.024.051-.051.008-.1.016-.151.026a1.245,1.245,0,0,1-.352.125v.048H399.8l-.152.176H399.6c-.009.018-.017.033-.025.051l-.1.025c-.009.018-.018.034-.026.051l-.151.049c-.008.018-.017.033-.026.051h-.049v.025l-.151.025v.026h-.05v.025h-.251v.026c-.05-.01-.1-.018-.15-.026v.026h-.276v-.026a.452.452,0,0,1-.176.026v-.026h-.1v-.025h-.074v-.026h-.1v-.025h-.075v-.025h-.049v-.026h-.051v-.025h-.05l-.2-.15v-.051h-.026l-.05-.151h-.025v-.1h-.025v-.151h-.025l.025-.05h-.025c-.027-.11.052-.213.075-.278v-.1l.151-.375c.017-.008.033-.018.051-.026l.15-.176h.05l.025-.05.075-.026v-.025h.051q.012-.024.024-.051l.126-.023v-.026h.05v-.025h.076V661.1h.126v-.026a1.834,1.834,0,0,1,.651.051h.151v.025h.1c.018.026.034.049.051.076h.051a.445.445,0,0,0,.025.049h.05c.025.033.051.067.075.1a1.952,1.952,0,0,0,.628-.076h.275v-.026h.075v-.025h.1v-.024h.1l.025-.05h.075v-.026c.125-.111.03-.22.075-.4h.025c.023-.1-.04-.389,0-.553h.026c-.009-.082-.017-.166-.026-.25h.026v-.1h.026a.043.043,0,0,0-.026-.049c0-.029.03-.045.026-.1h-.026v-.027h.026v-.125h.023c-.008-.041-.016-.084-.023-.125h.023v-.176h.025v-.176h.026v-.25c0-.05.025-.05.025-.05v-.352h.025v-.451h.025a.042.042,0,0,0-.025-.051c.008-.092.017-.184.025-.277,0-.006-.032-.008-.025-.049h.025c-.008-.168-.017-.336-.025-.5a.47.47,0,0,0-.05-.026c-.065-.066-.141-.019-.251-.05v-.026h-.026v.026c-.056.01-.069-.03-.1-.026v.026h-.151v.025h-.225v.025h-.125v.026h-.1v.025h-.074v.024h-.176v.025h-.05v.025H399.7v-.025c-.133.01-.267.018-.4.025v.026h-.151v.025H399v.026h-.275v.025h-.227v.026h-.175v.025H398.2v-.025h-.127v.025c-.049-.01-.1-.018-.149-.025v.025h-.126a.439.439,0,0,0-.024.049c-.026-.008-.051-.016-.077-.026v.026h-.075v.025h-.251v.026h-.251c-.048,0-.05.025-.05.025h-.276v.023h-.126c-.008.018-.017.036-.024.051-.06-.008-.118-.015-.176-.025v.025h-.227v.026a.47.47,0,0,0-.05-.026c-.091.008-.183.016-.276.026v.025h-.3v.025h-.05v-.025h-.251v.025h-.025v-.025h-.126c-.009.017-.016.033-.025.049h-.05v.025c-.034-.008-.066-.015-.1-.025v.025h-.024v.074h-.025v.053l-.05.024v.127h-.026v.1h-.024a.453.453,0,0,0,0,.227c-.137-.008-.1-.047-.2-.076v-.049c-.091-.024-.138-.1-.2-.153v-.023h-.05c-.008-.018-.017-.035-.025-.051h-.05c-.05-.059-.1-.117-.151-.178-.034-.006-.067-.015-.1-.023-.034-.041-.068-.084-.1-.125a.735.735,0,0,0-.075-.025v-.051c-.124-.034-.08-.106-.227-.125v-.049c-.024-.018-.049-.035-.074-.051v-.025h-.051v-.026h-.049l-.027-.051H393.4c-.008-.015-.016-.033-.024-.05l-.126-.024-.026-.051-.076-.025v-.025c-.032-.008-.066-.016-.1-.026l-.025-.05h-.049l-.026-.049a.73.73,0,0,0-.4-.1m.879.727v.051c.109.046.3.181.326.3l-.477-.1H393.1v.025l-.2.024v-.024h-.049v-.025l-.151-.127v-.049l-.1-.076c-.009-.016-.017-.034-.026-.049h-.05l-.024-.051h-.025v-.051h-.027c.009-.023.018-.048.027-.074.068-.019.055-.008.074-.076h.051c.018-.086.053-.117.15-.125.047.053.115.059.176.1.016.026.034.051.051.077h.049a.478.478,0,0,1,.025.051c.034.007.068.015.1.025.009.015.018.033.026.049.033.008.067.015.1.025v.026a.321.321,0,0,0,.151.074m7.381-.3a4.575,4.575,0,0,1-.051,1.205v.4c-.05.174-.049.428-.1.6v.277h-.025v.225s-.023,0-.025.051c.009.025.017.049.025.074H400.6v.578h-.025v.2h-.025v.125s-.015,0-.025.051l-.151.025c-.034,0,.011-.027-.024-.025v.025h-.1v.024h-.176v.025h-.2a1.156,1.156,0,0,1-.325.1c-.052-.08-.036-.012-.1-.051-.025-.033-.051-.067-.075-.1H399.3V661h-.075v-.025c-.034-.01-.067-.016-.1-.026v-.025h-.3V660.9l-.15.024s0-.026-.05-.024c-.023.014.008.036-.026.024-.008-.016-.017-.033-.025-.051a1.936,1.936,0,0,0-.2.051l-.051-.024v.024h-.176v.025h-.076v.026h-.049V661h-.075v.025h-.051v.024h-.075c-.008.019-.016.033-.025.051h-.075c-.017.025-.034.05-.05.076-.076.052-.12.013-.151.125h-.05c-.034.041-.068.084-.1.125h-.025l-.025.1-.05.026c-.016.074-.035.15-.051.224h-.025v.051h-.025c-.024.125-.05.252-.075.377a.346.346,0,0,1-.176.025v-.025h-.1v.025l-.351.024a6.589,6.589,0,0,1-1.406.127c-.009-.026-.017-.051-.026-.076-.076-.077-.018-.155-.051-.278h-.024a.065.065,0,0,1,.024-.074c-.007-.041-.015-.084-.024-.125h.024v-.125h.027c.041-.142-.015-.387.024-.527v-.3h.026c-.009-.023-.017-.049-.026-.074v-.026h.026c0-.035-.019.01-.026-.025.009-.1.017-.2.026-.3v-.275h.025c-.009-.026-.018-.051-.025-.076h.025v-.076c-.006-.034-.03.011-.025-.024h.025v-.252c-.009-.025-.018-.049-.025-.076a1.559,1.559,0,0,0,.025-.477h-.025v-.224h-.026v-.1h.026v-.326h.025v-.3h.025v-.252h.025v-.125s.015,0,.025-.05l.953-.024v-.025h.3v-.028h.3v-.023h.2v-.025h.227v-.026h.326v-.025h.225v-.024h.176v-.025h.126v-.025h.477c.32-.092.763-.086,1.08-.176h.376v-.026h.15v-.023h.1v-.025h.149a1.856,1.856,0,0,1,.478-.1m-12.327.3.051.5.05.025v.051a.606.606,0,0,1,.1.176h.049v.1h.026v.051h.025c.058.076.116.15.176.227h.05l.025.05c.06.043.044-.027.075.075a.279.279,0,0,1,.126.076v.023c.05.018.1.033.151.051.008.017.016.033.024.051h.051v.025c.033.008.067.016.1.026v.023h.1l.026.051c.084.017.167.033.25.051v.025a.456.456,0,0,1,.05-.025c.01.015.017.033.026.048h.076v.026l.251.025v.026h.075v.025a1.587,1.587,0,0,0,.8,0h.15v-.025h.025v.025h.025l.025-.025v.025h.025v-.025h.176v-.026h.076v-.025h.049v-.026h.076v-.023h.075c.009-.018.016-.035.025-.051h.05l.025-.051h.05c.075-.054.023-.115.151-.15a.391.391,0,0,1,.1-.176c.017-.008.033-.017.05-.023v-.051a.39.39,0,0,1,.05-.025v-.051c.024-.018.051-.033.076-.051.1-.1.247-.287.4-.326v-.051a2.29,2.29,0,0,0,.277-.125.521.521,0,0,1,.251.026h.176v.025h.126v.025c.033.008.066.016.1.026v.023h.051l.05.076h.05c.008.018.017.033.025.051h.051l.049.074h.051c.065.047.042.1.151.127a.28.28,0,0,0,.075.125h.025v.051l.05.025v.075h.025v.076h.026c.008.176.015.349.024.525h-.024v.051h-.026c-.007.084-.016.168-.025.25a1.149,1.149,0,0,1-.477.578H393.9v.025h-.05v.026H393.7v.025h-.2a1.523,1.523,0,0,1-.526.125v-.025h-.1V660.4h-.1v-.025l-.175-.023-.076-.1h-.049v-.025l-.126-.1v-.051c-.1-.025-.1-.086-.227-.1l-.024.074h-.076v.051a.628.628,0,0,0-.175.1h-.051l-.074.1h-.076v.025l-.076.026-.024.048-.151.051c-.008.018-.017.033-.025.051h-.1v.025h-.05v.026h-.076v.023h-.05v.026h-.1v.025h-.075v.025h-.15v.026h-.1v.023h-.126v.026c-.033-.008-.066-.016-.1-.026v.026h-.151v.025l-.452-.025V660.7l-.326-.023v-.026h-.075v-.025l-.1-.025v-.026h-.075v-.023h-.05v-.026h-.126V660.5h-.05v-.025h-.075l-.05-.077c-.034-.007-.068-.015-.1-.025-.009-.016-.018-.031-.026-.049l-.1-.025c-.018-.026-.034-.051-.05-.076H388.6l-.024-.049h-.05l-.025-.051a.5.5,0,0,0-.2-.15v-.051c-.1-.027-.092-.084-.151-.15-.024-.018-.05-.034-.075-.051v-.074c-.018-.008-.033-.018-.05-.026v-.076a.477.477,0,0,1-.051-.025c-.007-.042-.016-.082-.025-.125-.017-.008-.033-.016-.05-.026v-.074h-.025v-.051h-.025v-.074h-.025v-.127a1.166,1.166,0,0,1,0-.652v-.1a.466.466,0,0,1,.05-.025v-.076h.025v-.049h.026c.007-.043.016-.084.024-.127h.025c.008-.026.017-.049.026-.074a.474.474,0,0,1,.05-.026c.007-.033.017-.068.025-.1l.075-.049v-.051l.051-.051h.05c.008-.015.016-.033.025-.049a1.255,1.255,0,0,0,.125-.1Zm6.226,1.054c.023.088.062.071.076.176-.063-.015-.042-.014-.076-.049h-.025v-.05h-.025a.172.172,0,0,1-.05-.127h.026c.027.044.014.035.074.05" fill="#0070c3" fill-rule="evenodd"/>
    </g>
  </g>
</svg>
