<svg xmlns="http://www.w3.org/2000/svg" width="20.433" height="25.445" viewBox="0 0 20.433 25.445">
  <g id="Group_189" data-name="Group 189" transform="translate(-49.327 -24.635)">
    <path id="Path_1583" data-name="Path 1583" d="M53.709,36.249h-.046v-.39h-.043v-.25l-.13-.44H53.4v-.1c-.22-.154-.239-.342-.616-.346v-.046l-.266-.053v.053l-.613.928V36.3l.173.1v.047h.091l.044.1.3.048.046.1h.047v-.047h.044v.047h.22v.05h.174v.048h.087v.048l.573.051-.046-.445h.046Z" transform="translate(0.989 3.832)" fill="none"/>
    <path id="Path_1584" data-name="Path 1584" d="M59.961,38.323l.045.145.128.1.134-.046v.046h.353l.086-.149.132.05.042-.1.312-.246.128-.243h.046l.042-.149.089-.05v-.1l.093-.046v-.1l.086-.05v-.2h.042v-.1h.045v-.147h.046l-.046-.839v-.195h-.045v-.1h-.042l-.138-.24-.4-.249v.046l-.222.149v-.046H60.84v-.049l-.219-.149-.138.095-.038.25-.09.046v.2h-.046V36h-.041v.3h-.046v.1H60.18v.3h-.046v.1l-.086.049v.149h-.042l.042.2h-.042l.042.838-.042.295Z" transform="translate(4.079 4.078)" fill="none"/>
    <path id="Path_1585" data-name="Path 1585" d="M53.063,27.009H53.02l.043.051Z" transform="translate(1.416 0.91)" fill="#fff"/>
    <path id="Path_1586" data-name="Path 1586" d="M62.061,31.2h.132l.086-.1V31l.088-.049.092-.292.086-.053.039-.242h.049v-.1h.041v-.152h.046l.046-.193h.046l.041-.443h-.041l-.046-.247-.092-.054-.613-.488.091.488-.053.495h.053v.743H62.1l.053.3H62.1Z" transform="translate(4.884 1.552)" fill="#fff"/>
    <path id="Path_1587" data-name="Path 1587" d="M51.812,30.217v.346h.048l.573.542.047-.3h-.047v-.444l.047-.1h-.047v-.148l-.046-.046h.046v-.1h.047l.043-.79-.445.051A1.324,1.324,0,0,0,51.812,30.217Z" transform="translate(0.943 1.743)" fill="#fff"/>
    <path id="Path_1588" data-name="Path 1588" d="M52.744,31.918h.046v.246h.042l-.042.444h.042v.246h.043v.2l.09.053v.2h.042l.089.54h.048l.043.2.09.051v.094h.04l.043.295.093.055v.094l.082.048.137.347.134.147.131.048v.05h.042l.133.149v.1H54.2v.094l.216.149v.048H54.5v.053l.136.094.048.1.165.048v.053h.094V36.2h.089l.091.1h.083l.046.1h.174v.05h.133V36.5l.313.048v.048h.174v.054h.131v.046h.091v.05h.349V36.8h.223v.046h.172v.047h.311v.05l.794.05v.048l.261-.048v.048H59V36.99h.841v-.05H60.1v-.05h.173v-.047h.174V36.8h.177v-.054h.268v-.05h.173v-.046H61.2v-.054h.133v-.048l.176-.048.086-.145h.091V36.3h.087v-.053h.134l.04-.1h.093V36.1h.082l.1-.1h.089l.087-.145.26-.1.046-.1.22-.053.089-.148h.086l.093-.148.394-.39v-.1h.087l.042-.148.091-.048v-.094l.13-.1v-.1h.089v-.048l.221-.39.086-.053v-.1h.051v-.148h.037v-.1h.05v-.1l.086-.053V33.25H64.6l.043-.2h.042l.046-.393.089-.048.048-.346.082-.05v-.2h.043v-.4l.043-.05-.043-.1h.043v-.2h.048v-.144h.042L65.078,30v-.546H65.03v-.2l-.13-.443-.394-.148h-.18v-.048h-.131l-.042-.1H63.93v-.047l-.306.047v-.047H63.58v.047h-.394v-.047l-.093.047v-.047h-.127v-.048h-.133l-.087-.147-.093-.05-.044-.2h-.216v-.046h-.176v-.048h-.1v-.054l-.477.1v.046l-.091-.046h-.044v.046h-.264v-.046l-.223.046v-.046h-.266v-.048h-.13v-.054h-.177v-.044l-.174.044v-.044h-.086l-.046-.1-.353-.048v-.048l-.264.048v.048l-.219-.048v.048h-.13v.048h-.224l-.086.149-.129-.054h-.311v-.044l-.22-.051-.087-.2v-.053l-.05.053-.043-.053H57.9v-.046h-.089v-.048l-.659.246v.048l-.4-.1v.048h-.086v.048h-.133v.048l-.35.051v-.1l-.09-.1h-.084l-.394.295v-.054H55.43v-.044l-.04-.1h-.134l-.22.345-.347.1-.048-.1h-.089v-.053l-.134-.046v.046l-.527.642v.148l-.174.148v.1l-.137.1v.048h-.127l-.093-.048v-.245l-.043-.048-.26-.053-.05.148h-.042v.2l-.09.048v.44l-.084.054-.046.937L52.7,31.72h.044Zm7.882.394h-.089v.1l-.394-.1-.042-.295.347-.1.089-.05.134.2Zm-.7-2.117.574-.4h.569v.05H61.2V29.9l.263-.051V29.9l.181.048v.1l-.091.05.091.1-.05.149-.216.048v-.048h-.134v-.054H60.72v.054h-.134v.048l-.178.046-.046.147-.219.054v-.054l-.267-.241Zm-1.854,2.167.181-.05v-.05l.529-.05.087.1-.044.1-.13.145L58.6,33l.221.05.134-.1.04-.2.529-.1.046.051.047.342h-.047v.1l-.131.047-.178.248-.174.1c-.5.024-1.01-.075-1.1-.491Zm-.043,3.049v-.291l.093-.1h.087v-.051l.79.1v.148l-.267.1v-.046h-.084v-.05l-.173-.048-.046.048-.091.444.174.05h.443v.1l-.177.1-.13.4.441.048-.046.1-.706.1-.129-.39.087-.248h-.174l-.134-.5Zm-.659-3.3v.148h-.046v.05l-.217.05v-.05l-.223-.394h.486l.04.2Zm-1.233-1.972.044-.1H56.4V30h.3v.044l.573.1.043.1H57.5v.05l.131.054-.04.2h-.048l.048.1-.137.1a10.022,10.022,0,0,0-1.366-.344l-.044-.25Z" transform="translate(1.294 1.075)" fill="#fff"/>
    <path id="Path_1589" data-name="Path 1589" d="M68.842,37.564H68.8v-.249h-.046v-.241h-.047v-.2h-.043v-.249h-.04v-.2H68.58v-.149h-.046v-.147h-.046v-.154h-.044l-.039-.342H68.36V35.5h-.046v-.1H68.27v-.1l-.13-.1v-.093l-.091-.054v-.1l-.214-.2v-.1l-.089-.048-.136-.2h-.084l-.091-.149h-.087v-.046l-.354-.393-.4-.248-.089-.147h-.089l-.04-.1L66.2,33.28l-.048-.1-.566-.2-.18.347h-.09v.1l-.176.147v.046h-.089l-.176.4-.22.148v.048l-.174.046-.046.1-.221.048v.053h-.086l-.042.1h-.133l-.042.1h-.093l-.131.194H63.6V34.9L63.3,35l-.091.149h-.087l-.086.147h-.087v.048l-.176.051v.048h-.136V35.5H62.5v.043h-.178v.054h-.306v.048h-.174v.051h-.137v.053h-.176v.046h-.264v.048l-.836.05-.09-.05v.05h-.264v.05l-.526-.05v.05l-.307.044-.05-.094h-.087v-.05H58.8v-.048h-.173v-.046l-.176-.053v-.051h-.176v-.048l-.8-.1v-.051h-.131V35.4l-.263-.051-.048-.1-.483-.05v-.047l-.266-.046v-.054H56.2V35l-.264-.046-.047-.1-.266-.048-.042-.1h-.134l-.044-.1h-.129l-.129-.2H55.1v-.1h-.087v-.1l-.22-.149V34.02h-.137l-.04-.148-.089-.048v-.1l-.174-.149v-.1l-.224-.2v-.1l-.086-.05-.046-.2-.13-.094v-.1h-.044v-.1h-.044v-.147h-.042V32.4h-.044l-.138-.548-.219.054v.046h-.13l-.046.1h-.089l-.04.1h-.09l-.046.1h-.13l-.043.1-.35.145v.1l-.183.1v.046h-.084l-.046.1h-.086l-.048.094-.174.048v.054l-.223.144v.1h-.083l-.354.49h-.084l-.178.3h-.087l-.224.344h-.043v.1l-.087.051-.044.2H50.3l-.046.145-.091.054v.149H50.12V35.2h-.04v.1l-.09.048-.037.347H49.9v.1H49.86l-.044.346H49.77q.025.537.046,1.083h.044v.094H49.9l-.044.1v.05H49.9v.248h.048l-.048.1h.048v.1l.167.4.137.05.087.292.268.295.174.149v.1l.083.094h.093l.087.149h.087l.087.1h.091v.048H51.4v.053h.086l.042.094h.27v.051h.176v.053h.26v.046h.138v.05h.26v.053h.18v.046l.569.048v.054l.441-.054a2.759,2.759,0,0,0,.924.2l.091-.4.089-.046.042-.4h.044v-.149l.087-.048v-.046h-.042L55.1,38.7l-.573-.147V38.5h-.089v-.051h-.13V38.4l-.441-.048V38.3h-.22v-.048h-.266V38.2h-.221v-.05l-.264-.048v-.1h-.173v-.051l-.138-.051v-.048H52.5l-.043-.1h-.086l-.093-.1v-.1l-.09-.051-.13-.2.046-.241-.046-.149h.046v-.147h.047v-.2l.082-.053.046-.243h.048v-.1h.044v-.2l.129-.094v-.1h.046l.129-.1.266-.4.219-.1.046-.093h.349l.047-.054v.054l.136-.054.042.1L54,35.2v.05l-.13.149h.046v.048l.3.051.048.1.436.493h.091l.176.347-.042.147.086.048v.445h.046l.042.342h.05v.05H55.1l.05.641h.037v.048h.137v.05h.083l.044.1h.311v.05l.351-.148h.044v-.3l-.089-.394-.094-.047v-.3l.094-.05-.044-.194h.044v-.047l.79-.1v.046L57,36.778v.046l.306.054v.093l.129.05.263.74.136.05-.044.148.133.1v.3l.087.048-.04.1h.04l.048.143.083.053.047.69-.047.047h.047v.4l.089.046-.044.05.044.3.086.053v.141H58.4v.295h.046v.3h.043v.046H58.45v.051l.083.053v.1h.047l.13.147.047.246H58.8V41.7h.267v.053h.042l.044-.053v.053h.093v.05h.7v-.05h.089V41.7l.13.053V41.7h.22v-.046h.137V41.6l.347.094v-.046h.093V41.6h.174v-.053l.13-.194h.046l-.046-.1.09-.054v-.194H61.4v-.148l.087-.152.264-.094v-.1l.13-.044v-.057l.138-.046.042-.1h.086l.093-.1h.086v-.047h.089l.044-.1h.13l.046-.1h.177l.394-.148.042-.292h.05v-.25l.046-.1-.046-.048.046-.1H63.3v-.2h.046v-.046H63.3v-.2h.046V38.3h.042v-.248h.047v-.148h.04v-.194h.047v-.149h.042v-.1H63.6l-.046-.1.087-.545h.046V36.73h.042v-.1l.09-.048.093-.3h.042l.086-.147h.047l.042-.051h.086v.051l.093-.051h.22v-.1H65.1l.04.1h.134l.042.094h.09v.054H65.5l.087.094h.086l.046.105H65.8l.134.2h.086l.264.445v.147h.039v.245h.054l-.054.1h.054l.04.542h-.04v.148h-.054l.054.147v.05h-.054l.054.148h-.054l-.083.34h-.09l-.167.4h-.093l-.306.295v.145l-.18.053v.1h-.09v.1l-.129.048v.054H65.1v.047l-.4.1.087.39.087.046-.046.1h.091v.444l.13.048-.039.05v.048h.039l-.039.292-.137.1.046.047.926.1.613-.292h.176V41.6l.174-.053.054-.1.173-.048.043-.1h.133V41.26l.173-.1v-.1h.093v-.094h.046l.04-.1h.09l.09-.1v-.1l.129-.048.133-.2h.087l.046-.1h.043v-.1h.04v-.1l.091-.054V39.98l.13-.1.044-.2.137-.1.176-.54V38.7h.04l.042-.688h-.042Z" transform="translate(0.17 2.767)" fill="#ffec00"/>
    <path id="Path_1590" data-name="Path 1590" d="M59.817,38.069l-.266.1v.05h-.088v.05H59.33v.049h-.09v.046h-.084l-.046.1h-.089l-.043.094h-.086v.054H58.8v.049l-.086.046v.1l-.086.045v.153H58.58v.1h-.047l-.036.543.174.143v.049l.174.054v.046l.793-.046v-.054l.661-.049v.049h.177l.354-.192.086-.3h.09l-.045-.2h.045l.038-.443h-.038v-.149h-.045v-.094h-.046v-.1l-.086-.046-.088-.193-.092-.055v-.1l-.834.051Z" transform="translate(3.517 5.115)" fill="#fff"/>
    <path id="Path_1591" data-name="Path 1591" d="M62.886,40.056l-.182-.143V39.76l-.13-.1v-.049h-.305l-.486-.1v.05l-.132.05-.046.1-.568.1-.093-.05v.05H60.77v.049L60.6,39.81v.049h-.134v.054l-.884.095v-.05l-.394-.045-.045-.1-.442-.1-.09-.293-.042-.1h-.086l-.046-.1-.789.053-.486.147.045.095v.543h.042l-.042.3.042.145H57.2v.053l.042.05-.042.686h.085l.045.494-.045.146h.045l-.045.493h.045v.1h.046l-.046.1h.046v.246l-.09.049.045.249-.045.538.181.049V43.7l.176.049.046-.095.834.046v-.046l.174.046v-.046h.176l.089.046v-.046h.35l.222.046v-.046h.045V43.7l.132-.046V43.7h.527v-.046H60.6l.128.046v-.046l.088.046v-.046h.617V43.7l.09-.046V43.7h.038v-.046h.357V43.6h.042l.088.049V43.6l.137.049L62.4,43.6v.049l.132-.049.441.094v-.046h.44V43.7l.265-.046V43.6h.047v.049l.484.046v-.046l.795-.1h.041V43.4l-.174-.342-.266-.247v-.1l-.086-.05v-.1l-.088-.1v-.1h-.045v-.1l-.092-.049-.042-.195-.088-.049-.043-.2-.085-.051v-.1l-.137-.1v-.1l-.09-.046v-.1h-.041v-.095h-.042l-.047-.147h-.088l-.041-.149h-.054l-.173-.149-.085-.3h-.082V40.4l-.266-.246Z" transform="translate(3.003 5.593)" fill="#fff"/>
    <rect id="Rectangle_188" data-name="Rectangle 188" width="0.049" height="0.097" transform="translate(60.199 47.126)" fill="#fff"/>
    <path id="Path_1592" data-name="Path 1592" d="M54.3,36.974h-.041v.2h-.049v.095h-.043v.2h-.046v.094h-.046v.147h-.042v.147h-.046v.149h-.042v.3l-.09.049v.294l-.042.1.262.049.046.243.266.2.13.051.045.1H54.7v.049l.659-.049v-.054l.263-.1v-.051l.223-.046v-.049l.177-.1L56.1,38.2h-.046v-.094h-.036l-.051-.4h-.042l-.046-.193-.128-.1V37.32l-.22-.2-.086-.147v-.053h-.178l-.615-.193Z" transform="translate(1.721 4.638)" fill="#fff"/>
    <path id="Path_1593" data-name="Path 1593" d="M53.792,38.987l.032-.008v.049h.22v.046h.042v-.046h.092v-.1l-.373-.232Z" transform="translate(1.712 5.392)" fill="#ffec00"/>
    <path id="Path_1594" data-name="Path 1594" d="M59.163,41.825h-.046v-.636h-.042l.042-.937-.042-.1.042-.144v-.054h-.042l.042-.147-.091-.248-.125-.046-.05-.1h-.173v-.046l-.176-.053v.2h-.047l.093.293H58.5v.1h-.047l.047.1-.047.49h-.089l-.26.2v-.05h-.046v.05l-.174-.05v-.053l-.263-.194v-.147l-.136-.048-.044-.445-.178-.149-.087-.44h-.043l-.131-.2-.487.1.048.243-.223.053-.481-.053v.053H54.67v.046h-.22v.048h-.394v-.048l-.133.048v-.048h-.178v.048l-.486.445-.173.147-.268.248-.264.439H52.47l-.4.592-.082.05v.1l-.313.293v.1l-.13.1v.1l-.134.1-.043.2-.133.1v.147l-.13.1-.044.246h-.087l-.133.392-.09.051v.2h-.043l-.042.242h.042l.439.054v-.054l.971-.048.354.048.083-.048v.048l.264.054v-.054H53.3V43.8h.046v.048h.22V43.9l.13-.054V43.9h.439v-.054h.046V43.9h.266v-.054h.357V43.9l.129-.054V43.9h.349v.094h.623v-.046h.083V43.9l.441.094v-.046H56.6V43.9h.357v.048l.129-.048.089.048V43.9l.664.048v.046h.524v.048l.659-.048.05-.046.174-.641-.042-.346C59.193,42.585,59.179,42.205,59.163,41.825Zm-1.5-1.13-.263.345h-.836a3.459,3.459,0,0,0-1.146,0v.046l-.356.055v-.055l-.349-.292-.09-.054V40.4l.09-.1h.259v-.048l.446.1V40.3h.263v.048l.883-.048h.57l.488.2.089.2Z" transform="translate(0.513 5.497)" fill="#fff"/>
    <path id="Path_1595" data-name="Path 1595" d="M55.105,36.828l.037.1.268.05a3.853,3.853,0,0,0-.4-1.283l-.134.053-.089-.053v.053l-.086.148h.046v.292h.04v.1h.05l-.05.1.174.4v.048Z" transform="translate(2.063 4.241)" fill="#fff"/>
    <path id="Path_1596" data-name="Path 1596" d="M56.038,39.944h-.57l-.883.048v-.048h-.263v.048l-.446-.1v.048h-.259l-.09.1v.34l.09.054.349.292v.055l.356-.055v-.046a3.459,3.459,0,0,1,1.146,0H56.3l.263-.345h.048l-.089-.2Z" transform="translate(1.611 5.853)" fill="#0070c3"/>
    <path id="Path_1597" data-name="Path 1597" d="M69.673,40.233H69.63v-.1h-.046v-.349h-.036V39.5H69.5v-.149l-.089-.053.046-.149-.091-.05v-.148h-.042l-.133-.735h-.046v-.1l-.133-.1v-.1l-.086-.046-.047-.2-.174-.145v-.1l-.174-.3h-.137l-.083-.147h-.091l-.042-.1-.133-.145H67.87l-.134-.147v-.054H67.65l-.22-.292h-.137l-.13-.2L66.945,36l-.219-.3h-.136l-.094-.149-.433-.048v-.046h-.044l.089-.148v-.1h.048V35.06h.082c.043-.375.281-.5.313-.883h.082l-.042-.148.089-.05v-.1h.047v-.25l.082-.046v-.148h.05v-.05h.263l.043-.1.18-.048.087-.246h.087v-.05l.263-.246v-.1l.136-.1v-.148L68,32.307v-.154l.086-.048.087-.39h.042v-.1h.046v-.443l-.087-.3h-.043l-.18-.241v-.1H67.87v-.1l-.134-.054-.04-.1H67.6l-.047-.1h-.089V30.14h-.084l-.042-.1h-.091v-.047l-.353-.1-.091-.538h-.04v-.1h-.042v-.2l-.094-.048v-.149l-.136-.1-.039-.2-.086-.048v-.149h-.048v-.1h-.043v-.094l-.087-.1v-.1l-.174-.149-.046-.143-.084-.055v-.147l-.09-.05v-.1l-.091-.05v-.1l-.174-.147-.221-.248-.219-.2v-.148H65l-.216-.25L64.7,26.05h-.138l-.037-.1-.223-.046-.042-.1h-.133v-.046h-.134V25.7h-.131v-.044l-.174-.05V25.56h-.134v-.053h-.087v-.047h-.131v-.048h-.093v-.054h-.174V25.31h-.129v-.047l-.181-.053v-.047h-.13l-.044-.1h-.129v-.048l-.093.048v-.048h-.173v-.046H62.05V24.92l-.084.048V24.92h-.134v-.054h-.176V24.82h-.173v-.048h-.221v-.054h-.706v-.044l-.129.044h-.706a3.016,3.016,0,0,0-1.584.054l-.445.048-1.317.49-.046.1H56.24l-.13.194h-.087l-.09.094v.1H55.89l-.221.3h-.091v.094l-.349.25v.1l-.22.148v.1l-.264.248-.136.44h-.04v.147h-.046v.1l-.087.192h.043v.051l-.043-.051h-.048v.148l-.089.05.05.1-.091.05-.044.148h-.046l-.043.346h-.042l-.046.246h-.044l-.044.2h-.042l-.09.491h-.046v.1h-.047v.244h-.036l-.046.2H53.6l-.093.344v.054l-.216-.054v-.048l-.791.145-.138.1v.1l-.13.1v.147l-.086.05v.194l-.089.493h.04v.1h.048v.192l.086.054.046.243.3.3.137.192.176.05.043.1h.084v.044h.091v.053h.13v.05l.224.1.04.642.093.145-.533.2-.046.094h-.084v.053l-.133.05-.174.148-.048.1h-.13v.051l-.127.046-.093.148H52.1l-.04.1H51.97l-.136.2h-.087L51.7,35.4l-.214.2-.353.2V35.9H51.04l-.219.3h-.09v.048l-.173.144v.148h-.044l-.042.148H50.38v.1l-.13.047-.127.2-.093.051v.151l-.09.044v.1l-.09.1h-.089l-.042.344h-.044v.147l-.087.05-.04.346H49.5v.1h-.047v.291l-.082.05.04.147h-.04v.1h-.046v.39h.046l-.046.2h.046v.143l.082.054-.042.241h.042v.3H49.5v.2h.047v.2l.089.046.039.2.223.493.131.144.13.048v.053l.22.145.221.444h.087l.094.147h.13l.044.1h.083l.046.1h.134v.053h.087v.046h.178v.048h.131v.054h.13v.047l.35.048v.053h.227v.044h.127v.051h.267v.046h.129v.057l.926.044v.05h.177v.05h.134v.048H54.3v.046h.31l.354.152.176.245-.089.151.026.131-.06.244-.63.064-.524-.046v.046h-.138v.053H53.6l-.093.148-.44.44v.1l-.083.05-.354.494h-.086l.037.147-.13-.1-.22.439h-.086v.2l-.176.1-.178.3H51.7l-.042.105-.264.241-.042.3-.09.048v.1l-.084.047v.1l-.093.046v.1H51.04v.1H51v.149l-.178.148v.1h-.039v.1h-.051v.149h-.043V48.8l-.087.046v.689h.087l.133.248.219.05v.048h.267v.048l.484-.1a8.053,8.053,0,0,0,1.321,0h.66l.136-.05v.05H54.3v.048l.527.048.046-.1.226.048v-.048h.747v.048h.137v.048h.65v-.048h.138v-.048l.046.048h.439v-.048l.524.048v-.048h.046v.048h.44v.048h.18v.053H58.8l.4.1.086-.149.224.053.174-.2v-.046l.176.046v.05h.087l.131.1v-.048h.136v-.048h.266v-.05h.349v-.046l.131.046v-.046h.267v.046l.126-.046h.576v-.05l.094.05H62.8v.046l.224-.046v.046l.439-.046,1.014.046,1.278-.046v.046l.086-.046.529.046v-.046h.042v.046H66.5v.05h.054v-.05h.217v.05h.04v-.05h.228v.05l.394.048v-.048h.087v-.05h.527v-.046l.57-.05.136-.246L68.615,49v-.148L68.53,48.8l-.046-.2-.091-.05v-.1l-.083-.05v-.1l-.22-.2v-.1l-.086-.1v-.1h-.05v-.1h-.039v-.1l-.136-.1v-.145l-.084-.051v-.1l-.227-.2v-.094l-.084-.055-.042-.192h-.05l-.13-.3h-.086l-.042-.154-.137-.094v-.1l-.131-.1v-.1h-.177l-.04-.2-.394-.246v-.1h-.093v-.1a1.7,1.7,0,0,0,.744-.248l.444-.048v-.046l.178-.053.087-.145.263-.1.046-.1L68,44.419l.086-.151h.087l.216-.3h.091l.091-.194h.083l.091-.148.129-.048v-.1h.047v-.094l.127-.1v-.1l.183-.141v-.1l.129-.1v-.094l.091-.053.043-.248.086-.046v-.349L69.673,42l.048-.786h.039Zm-2.691-8.272h.054v-.743h-.054l.054-.494-.091-.488.613.488.093.054.046.246h.04l-.04.444H67.65l-.046.192h-.047v.152h-.04v.1h-.048l-.039.241-.087.054-.091.292-.089.05v.1l-.086.1h-.133l.037-.494h.054Zm-13.559-.246h-.047v.1h-.046l.046.046v.148h.047l-.047.1v.444h.047l-.047.3-.573-.542h-.048v-.346a1.324,1.324,0,0,1,.266-.985l.445-.051Zm.614,0,.046-.937.084-.054v-.44l.09-.048v-.2H54.3l.05-.148.26.053.043.048v.245l.093.048h.127v-.048l.137-.1v-.1l.174-.148v-.148l.527-.642v-.046l.134.046v.053h.089l.048.1.347-.1.22-.345h.134l.04.1v.044h.183v.054l.394-.295h.084l.09.1v.1l.35-.051v-.048h.133v-.048h.086v-.048l.4.1v-.048l.659-.246v.048h.089v.046h.13l.043.053.05-.053v.053l.087.2.22.051v.044h.311l.129.054.086-.149h.224v-.048h.13v-.048l.219.048v-.048l.264-.048v.048l.353.048.046.1h.086v.044l.174-.044v.044h.177v.054h.13v.048h.266V29.1l.223-.046V29.1H62.8v-.046h.044l.091.046v-.046l.477-.1v.054h.1v.048h.176V29.1H63.9l.044.2.093.05.087.147h.133v.048h.127v.047l.093-.047v.047h.394v-.047h.044v.047l.306-.047v.047h.223l.042.1h.131v.048h.18l.394.148.13.443v.2h.048v.546l.042,1.129h-.042v.144h-.048v.2h-.043l.043.1-.043.05v.4h-.043v.2l-.082.05-.048.346-.089.048-.046.393h-.042l-.043.2h-.046v.094l-.086.053v.1h-.05v.1h-.037v.148h-.051v.1l-.086.053-.221.39V35.4h-.089v.1l-.13.1V35.7L65,35.75l-.042.148h-.087V36l-.394.39-.093.148H64.3l-.089.148-.22.053-.046.1-.26.1-.087.145h-.089l-.1.1h-.082v.053h-.093l-.04.1h-.134v.053H62.98v.048h-.091l-.086.145-.176.048v.048h-.133v.054h-.133v.046h-.173v.05H61.92v.054h-.177v.046h-.174v.047H61.4v.05h-.263v.05h-.841v.048h-.616v-.048l-.261.048v-.048l-.794-.05v-.05h-.311v-.047h-.172v-.046h-.223v-.054h-.349v-.05h-.091v-.046h-.131v-.054h-.174v-.048l-.313-.048v-.048h-.133v-.05h-.174l-.046-.1H56.42l-.091-.1H56.24V37.23h-.094v-.053l-.165-.048-.048-.1-.136-.094v-.053h-.087v-.048l-.216-.149V36.59H55.4v-.1l-.133-.149h-.042v-.05l-.131-.048-.134-.147-.137-.347-.082-.048v-.094l-.093-.055-.043-.295h-.04v-.094l-.09-.051-.043-.2h-.048l-.089-.54h-.042v-.2l-.09-.053v-.2h-.043v-.246h-.042l.042-.444h-.042v-.246h-.046v-.2h-.044Zm5.551,17.728-.05.046-.659.048v-.048h-.524v-.046l-.664-.048v.048l-.089-.048-.129.048v-.048h-.357v.048h-.173v.046l-.441-.094v.048H56.42v.046H55.8v-.094h-.349V49.34l-.129.054V49.34h-.357v.054H54.7V49.34h-.046v.054h-.439V49.34l-.13.054V49.34h-.22v-.048h-.046v.048h-.487v.054l-.264-.054v-.048l-.083.048-.354-.048-.971.048v.054l-.439-.054h-.042l.042-.242h.043v-.2l.09-.051.133-.392h.087l.044-.246.13-.1v-.147l.133-.1.043-.2.134-.1v-.1l.13-.1v-.1l.313-.293v-.1l.082-.05.4-.592h.083l.264-.439.268-.248.173-.147.486-.445v-.048h.178v.048l.133-.048v.048h.394v-.048h.22v-.046h1.191v-.053l.481.053.223-.053-.048-.243.487-.1.131.2h.043l.087.44.178.149L58,45.7l.136.048V45.9l.263.194v.053l.174.05v-.05h.046v.05l.26-.2h.089l.047-.49-.047-.1h.047v-.1h.046l-.093-.293h.047v-.2l.176.053v.046h.173l.05.1.125.046.091.248-.042.147h.042v.054l-.042.144.042.1-.042.937h.042v.636h.046c.017.38.03.76.046,1.134l.042.346Zm-2.732-8.817.05-.1h-.05v-.1h-.04v-.292H56.77l.086-.148v-.053l.089.053.134-.053a3.853,3.853,0,0,1,.4,1.283l-.268-.05-.037-.1H57.03v-.048Zm.134.934h.178v.053l.086.147.22.2v.094l.129.1.046.194h.043l.051.4h.036v.094h.046l-.082.79-.177.1v.048l-.223.046v.051l-.264.1v.054l-.659.048v-.048h-.136l-.044-.1-.13-.053-.266-.2-.047-.243-.261-.048.042-.1V42.99l.091-.048v-.3h.042v-.149h.046v-.147H55.8V42.2h.047v-.1h.046v-.2h.043v-.1h.048v-.2h.042l.351-.246Zm-1.1,2.759v.1H55.8v.046h-.042v-.046h-.22v-.048l-.032.008.012-.293Zm4.357,2.9H60.2v-.1h.048ZM66.156,46v.048h.082l.086.3.173.148h.054l.04.149h.089l.047.147h.042v.094h.04v.1l.091.046v.1l.137.1v.1l.084.051.043.2.089.048.042.2.091.048v.1h.046v.1l.087.1v.1l.087.051v.1l.266.248.174.342v.147H68l-.8.1v.047l-.483-.047V49.2h-.047v.048l-.266.047v-.047h-.44v.047l-.44-.1-.133.048V49.2l-.216.048-.137-.048v.048l-.087-.048h-.043v.048h-.357v.047h-.037v-.047l-.09.047v-.047h-.618v.047l-.087-.047v.047l-.129-.047h-.358v.047h-.527v-.047l-.131.047v-.047h-.044v.047l-.223-.047h-.35v.047l-.089-.047H61.7v.047l-.174-.047v.047l-.834-.047-.046.1-.176-.048v.048l-.18-.048.044-.538-.044-.249.09-.048V48.21h-.046l.046-.1h-.046v-.1h-.044l.044-.494h-.044l.044-.145-.044-.5h-.086l.042-.686-.042-.05v-.053h.042l-.042-.144.042-.3h-.042v-.544l-.044-.094.486-.148.79-.053.046.1h.086l.043.1.09.293.441.1.046.1.394.044V45.6l.883-.1v-.054H63.6V45.4l.174.048V45.4h.173v-.05l.093.05.569-.1.046-.1.133-.05v-.05l.486.1h.306v.05l.13.1v.152l.181.144v.1Zm-2.071-4.726h.042l-.042-.2h.042v-.148l.086-.048v-.1h.047v-.3H64.3v-.1h.046v-.3h.04v-.147h.047v-.2l.09-.046.037-.25.138-.094.219.149v.048H65v.046l.221-.149V39.4l.4.249.138.241H65.8v.1h.044v.2l.046.838h-.046v.147H65.8v.1h-.042v.2l-.087.05v.1l-.093.046v.1l-.09.05-.042.149H65.4l-.129.244-.311.245-.043.1-.131-.051-.087.149h-.353V42.6l-.134.046-.127-.1-.046-.145h.046l.042-.295Zm.082,1.818v.1l.093.057.087.192.087.046v.1h.046v.094h.044v.148h.037l-.037.444h-.044l.044.2h-.09l-.087.3-.354.192h-.177v-.048l-.66.048v.054l-.794.046v-.046l-.173-.054v-.048l-.174-.144.036-.544H62.1v-.1h.046v-.152l.087-.044v-.1l.086-.046V43.73h.093v-.054h.086l.044-.094h.089l.046-.1h.084v-.046h.09v-.048h.133v-.05h.087v-.05l.267-.1v-.046Zm4.845-1.623h-.04v.344l-.176.54-.137.1-.044.2-.13.1v.094l-.091.054v.1h-.04v.1H68.31l-.046.1h-.087l-.133.2-.129.048v.1l-.09.1h-.09l-.04.1H67.65v.094h-.093v.1l-.173.1v.048h-.133l-.043.1-.173.048-.054.1-.174.053v.048h-.176l-.613.292-.926-.1-.046-.047.137-.1.039-.292h-.039v-.048l.039-.05-.13-.048v-.444H65l.046-.1-.087-.046-.087-.39.4-.1v-.047h.087v-.054l.129-.048v-.1h.09v-.1l.18-.053V42.4l.306-.295h.093l.167-.4h.09l.083-.34h.054l-.054-.148h.054v-.05l-.054-.147h.054v-.148h.04l-.04-.542H66.5l.054-.1H66.5v-.245h-.039v-.147l-.264-.445h-.086l-.134-.2h-.084l-.046-.105h-.086L65.671,39h-.093v-.054h-.09l-.042-.094h-.134l-.04-.1H64.7v.1h-.22l-.093.051v-.051H64.3l-.042.051h-.047l-.086.147h-.042l-.093.3-.09.048v.1h-.042v.094h-.046l-.087.545.046.1h-.046v.1h-.042v.149H63.64v.194H63.6v.148h-.047v.248h-.042v.248h-.046v.2h.046v.046h-.046v.2h.046l-.046.1.046.048-.046.1v.25h-.05l-.042.292-.394.148H62.8l-.046.1h-.13l-.044.1h-.089v.047h-.086l-.093.1H62.23l-.042.1-.138.046v.057l-.13.044v.1l-.264.094-.087.152v.148h-.042v.194l-.09.054.046.1h-.046l-.13.194v.053h-.174v.048H61.04v.046l-.347-.094v.048h-.137v.046h-.22v.053l-.13-.053v.053h-.089v.05h-.7v-.05h-.093v-.053l-.044.053h-.042v-.053h-.267v-.046h-.042l-.047-.246-.13-.147H58.7v-.1l-.083-.053v-.051h.043v-.046H58.62v-.3h-.046v-.295H58.53v-.141l-.086-.053-.044-.3.044-.05-.089-.046v-.4h-.047l.047-.047-.047-.69-.083-.053-.048-.143h-.04l.04-.1-.087-.048v-.3l-.133-.1L58,40.577l-.136-.05-.263-.74-.129-.05v-.093l-.306-.054v-.046l-.138.046v-.046l-.79.1v.047H56.2l.044.194-.094.05v.3l.094.047.089.394v.3h-.044l-.351.148v-.05h-.311l-.044-.1h-.083v-.05h-.137v-.048H55.32l-.05-.641h.05v-.05h-.05l-.042-.342h-.046V39.4l-.086-.048.042-.147-.176-.347h-.091l-.436-.493-.048-.1-.3-.051v-.048h-.046l.13-.149v-.05l-.219-.047-.042-.1-.136.054v-.054l-.047.054h-.349l-.046.093-.219.1-.266.4-.129.1h-.046v.1l-.129.094v.2H52.5v.1h-.048l-.046.243-.082.053v.2h-.047v.147h-.046l.046.149-.046.241.13.2.09.051v.1l.093.1h.086l.043.1h.083v.048l.138.051v.051h.173v.1l.264.048v.05h.221v.05h.266v.048h.22v.05l.441.048v.05h.13v.051H54.7v.048l.573.147-.042.494h.042V42l-.087.048V42.2h-.044l-.042.4-.089.046-.091.4a2.759,2.759,0,0,1-.924-.2l-.441.054v-.054l-.569-.048v-.046H52.8v-.053h-.26v-.05h-.138V42.6h-.26v-.053H51.97v-.051H51.7l-.042-.094h-.086v-.053h-.087V42.3h-.091l-.087-.1H51.22l-.087-.149H51.04l-.083-.094v-.1l-.174-.149-.268-.295-.087-.292-.137-.05-.167-.4v-.1h-.048l.048-.1h-.048v-.248H50.03v-.05l.044-.1H50.03v-.094h-.044q-.021-.546-.046-1.083h.046l.044-.346h.044v-.1h.048l.037-.347.09-.048v-.1h.04v-.093h.046v-.149l.091-.054.046-.145h.042l.044-.2.087-.051v-.1h.043l.224-.344H51l.178-.3h.084l.354-.49H51.7v-.1l.223-.144V35.75L52.1,35.7l.048-.094h.086l.046-.1h.084v-.046l.183-.1v-.1l.35-.145.043-.1h.13l.046-.1h.09l.04-.1h.089l.046-.1h.13V34.67l.219-.054.138.548h.044v.094h.042V35.4h.044v.1h.044v.1l.13.094.046.2.086.05v.1l.224.2v.1l.174.149v.1l.089.048.04.148h.137v.047l.22.149v.1h.087v.1h.05l.129.2h.129l.044.1h.134l.042.1.266.048.047.1.264.046v.05h.083v.054l.266.046v.047l.483.05.048.1.263.051v.048h.131v.051l.8.1v.048h.176v.051l.176.053v.046h.173v.048h.309v.05h.087l.05.094.307-.044v-.05l.526.05v-.05h.264v-.05l.09.05.836-.05v-.048H61.7v-.046h.176V38.46h.137v-.051h.174v-.048h.306v-.054h.178v-.043h.13v-.051h.136v-.048l.176-.051v-.048H63.2l.086-.147h.087l.091-.149.309-.1v-.048h.087l.131-.194h.093l.042-.1h.133l.042-.1h.086v-.053l.221-.048.046-.1.174-.046v-.048l.22-.148.176-.4h.089v-.046l.176-.147v-.1h.09l.18-.347.566.2.048.1.178.051.04.1h.089l.089.147.4.248.354.393v.046H67.6l.091.149h.084l.136.2.089.048v.1l.214.2v.1l.091.054v.093l.13.1v.1h.044v.1h.046v.145h.046l.039.342h.044V38.9H68.7v.147h.046V39.2H68.8v.2h.04v.249h.043v.2h.047v.241h.046v.249h.04v.445h.042ZM54.7,40.725l-.573-.051v-.048h-.087v-.048h-.174v-.05h-.22V40.48H53.6v.047h-.047l-.046-.1-.3-.048-.044-.1h-.091v-.047l-.173-.1v-.695l.613-.928V38.46l.266.053v.046c.376,0,.4.192.616.346V39h.091l.13.44v.25h.043v.39H54.7v.2h-.046Z" transform="translate(0 0)" fill="#0070c3"/>
    <path id="Path_1598" data-name="Path 1598" d="M56.529,30.027l.137-.1-.048-.1h.048l.04-.2-.131-.054v-.05H56.4l-.043-.1-.573-.1v-.044h-.3v.044h-.223l-.044.1h-.09l.044.25A10.022,10.022,0,0,1,56.529,30.027Z" transform="translate(2.221 1.786)" fill="#0070c3"/>
    <path id="Path_1599" data-name="Path 1599" d="M55.724,30.676l.223.394v.049l.216-.049v-.05h.046v-.148h.041l-.041-.2Z" transform="translate(2.453 2.317)" fill="#0070c3"/>
    <path id="Path_1600" data-name="Path 1600" d="M56.829,33.82l-.086.247.128.39.705-.1.046-.1-.441-.049.13-.4.177-.1v-.1h-.443l-.174-.049.092-.445.045-.049.174.049v.05h.084v.046l.266-.1v-.148l-.789-.1v.051h-.088l-.092.1v.291h-.042l.134.5Z" transform="translate(2.759 3.163)" fill="#0070c3"/>
    <path id="Path_1601" data-name="Path 1601" d="M58.153,29.985l.219-.054.046-.147.178-.046v-.049h.134v-.053h.524v.053h.135v.049l.216-.049.049-.149-.091-.1.091-.05v-.1l-.181-.049v-.051l-.262.051v-.051h-.132v-.049H58.51l-.574.4-.049.149.266.242Z" transform="translate(3.283 1.73)" fill="#0070c3"/>
    <path id="Path_1602" data-name="Path 1602" d="M58.4,30.69l-.347.1.041.3.394.1v-.1h.089l.046-.247-.135-.2Z" transform="translate(3.346 2.303)" fill="#0070c3"/>
    <path id="Path_1603" data-name="Path 1603" d="M57.622,32.217l.174-.1.178-.248.131-.047v-.1h.047l-.047-.342-.046-.051-.529.1-.04.2-.134.1-.221-.05.091-.44.13-.145.044-.1-.087-.1-.529.05v.05l-.181.05-.084.688C56.612,32.142,57.121,32.241,57.622,32.217Z" transform="translate(2.759 2.398)" fill="#0070c3"/>
  </g>
</svg>
