<svg id="Component_19_1" data-name="Component 19 – 1" xmlns="http://www.w3.org/2000/svg" width="43" height="43" viewBox="0 0 43 43">
  <rect id="Rectangle_11" data-name="Rectangle 11" width="43" height="43" rx="3" fill="#fff100"/>
  <g id="Group_228" data-name="Group 228" transform="translate(-2712 -280)">
    <g id="layer_copy" transform="translate(2651.501 218.503)">
      <path id="Path_2052" data-name="Path 2052" d="M93.135,87.78c-.61-1.005-2.22-1.449-3.126-1.624-1.653-.319-3.782-.3-4.815.479-.34.255-.509.782-.549,1.709-.005.122-.008.241-.008.354a14.919,14.919,0,0,1-4.755-2.968l-.607-.6a14.807,14.807,0,0,1-2.982-4.721c.114,0,.234,0,.357-.008.93-.039,1.459-.207,1.715-.545.775-1.022.8-3.132.487-4.77-.175-.908-.621-2.523-1.638-3.133a5.39,5.39,0,0,0-3.2-.369A4.935,4.935,0,0,0,71.145,72.8a5.644,5.644,0,0,0-.644,2.524c0,.016,0,.032,0,.047a19.448,19.448,0,0,0,5.222,12.96l.013.016.923.921s.009.017.014.021A19.93,19.93,0,0,0,89.7,94.5h.008c.013,0,.026-.016.038-.017a5.739,5.739,0,0,0,2.535-.655,4.885,4.885,0,0,0,1.227-2.858A5.313,5.313,0,0,0,93.135,87.78Zm-.613,3.042a4.149,4.149,0,0,1-.9,2.252,5.838,5.838,0,0,1-1.934.4,18.673,18.673,0,0,1-12.34-4.921l-.909-.9A18.449,18.449,0,0,1,71.5,75.379a5.743,5.743,0,0,1,.4-1.919,4.2,4.2,0,0,1,2.268-.892A4.286,4.286,0,0,1,76.7,72.8a3.93,3.93,0,0,1,1.173,2.468c.312,1.615.186,3.313-.292,3.965a4.816,4.816,0,0,1-1.889.159.5.5,0,0,0-.558.744A15.774,15.774,0,0,0,78.36,85.6a.5.5,0,0,0,.059.077q.221.236.452.463t.466.45a.5.5,0,0,0,.077.059,15.9,15.9,0,0,0,5.49,3.2.5.5,0,0,0,.6-.074l.024-.025.006-.007a.49.49,0,0,0,.111-.452,4.739,4.739,0,0,1,.159-1.873c.661-.479,2.38-.6,4.014-.288A3.953,3.953,0,0,1,92.284,88.3,4.212,4.212,0,0,1,92.522,90.822Z" fill="#0081cc"/>
    </g>
    <path id="Path_2053" data-name="Path 2053" d="M2723.613,291.225l4.3-.85,1.35,1.5.65,5.95-1.1.7-2.25-.3,2.7,4.8,6.2,4.7,1.25.25v-2.25l1.6-.8,5.15.8,1.25,2.8-1.25,3.45-2.8.65-5.2-1.05-7.55-4.475-3.5-5.175-2.05-7.55Z" fill="#0081cc"/>
  </g>
</svg>
