<svg xmlns="http://www.w3.org/2000/svg" width="16.099" height="19.871" viewBox="0 0 16.099 19.871">
  <g id="Group_204" data-name="Group 204" transform="translate(-128.272 -648.084)">
    <path id="Path_1920" data-name="Path 1920" d="M142.6,652.723a3.864,3.864,0,1,1-4.625-2.907,3.863,3.863,0,0,1,4.625,2.907" fill="#fff"/>
    <path id="Path_1921" data-name="Path 1921" d="M144.035,663.783c.006-.017-.006-.021-.007-.025l.045-.2-.012,0,0-.011.01,0c.012-.024-.007-.033,0-.047l.009,0,.008-.035h-.011a.128.128,0,0,0,.017-.022c0-.011,0-.027,0-.039l.009,0,.009-.035-.011,0a.279.279,0,0,1,.018-.031h-.011a.079.079,0,0,1,.016-.022l.009-.035-.01,0,0-.014.009,0c.008-.019-.006-.025-.006-.025a.288.288,0,0,0,.021-.043l-.009,0,.015-.068h.011c0-.016,0-.034,0-.051l.01,0v-.049s.018,0,.02-.029l-.013,0a.169.169,0,0,1,.02-.035s-.017,0-.006-.026a.015.015,0,0,0,.015-.017s-.013-.012,0-.039.011.007.013-.008a.1.1,0,0,1-.02-.016c0-.029.021-.029.023-.045s-.014-.011-.024-.017c.006-.01.016-.02.022-.032s0-.023-.005-.035.015,0,.016-.021l-.011,0,0-.012a.026.026,0,0,0,.019-.021l-.015,0,.005-.012a.333.333,0,0,0,.021-.031l-.015,0,.025-.1c0-.006-.012-.006,0-.025a.035.035,0,0,0,.019-.031h-.012l.024-.106-.012,0,.025-.1-.012,0c.007-.01.012-.022.018-.03l-.01,0,0-.023-.01,0a.135.135,0,0,1,.019-.033l-.012,0,.006-.023-.011,0a.129.129,0,0,1,.016-.018l0-.014-.01,0,.015-.068-.013,0,0-.012.012,0,0-.011-.012,0,.006-.022-.011,0c0-.011.021-.013.02-.041l-.011,0,.015-.06-.012,0a.018.018,0,0,1,.016-.02l0-.011-.013,0,.017-.075-.01,0a.346.346,0,0,1,.018-.031l-.011,0,.005-.025h-.011l0-.014.011,0a.334.334,0,0,1,0-.045l-.011,0a.315.315,0,0,0,.019-.031l-.012,0c0-.025,0-.049,0-.072l-.01,0c0-.033.007-.063.008-.1l.012,0,0-.012-.013,0,.006-.02-.011,0c0-.017.015-.017.016-.019s0-.024,0-.036l-.022-.006s.022-.027.021-.043l-.011,0a.16.16,0,0,1,.021-.03l-.014,0,.005-.025-.012,0,.014-.056-.018-.016c.006-.014.013-.027.02-.043l-.019-.016a.02.02,0,0,1,.018-.021.278.278,0,0,1,0-.049l-.013,0,.01-.045a.409.409,0,0,0-.028-.033.479.479,0,0,0,.022-.045l-.029-.027c.014-.03,0-.073,0-.121l-.013,0c0-.012.027-.016.022-.041a.15.15,0,0,0-.021-.016.3.3,0,0,0,.019-.033l-.019-.018,0-.021-.011,0c.005-.012.025-.016.022-.041a.09.09,0,0,1-.019-.02c0-.009.026-.014.02-.043l-.019-.015c.008-.01-.01-.03,0-.041s-.015-.014-.021-.018l.023-.047-.012,0,0-.021-.01,0c-.005-.014-.011-.028-.016-.039l.024,0c0-.041.012-.016,0-.043l-.013,0,.007-.026-.013,0,.02-.031-.057-.074a.225.225,0,0,0,.024-.043c-.012-.014-.025-.027-.038-.043l.021-.045c-.015-.019-.033-.037-.048-.057s.026-.019.023-.042l-.032-.034a.072.072,0,0,0,.014-.056c-.013-.014-.024-.03-.039-.045.007-.012.015-.022.021-.032l-.011,0,0-.022a.286.286,0,0,0-.029-.031c0-.024,0-.049.005-.072l-.038-.043c.008-.01.014-.022.021-.032a.084.084,0,0,1-.02-.017l.005-.024a.217.217,0,0,1-.03-.031c.006-.01.014-.02.019-.029s-.014-.006-.014-.041c-.022-.012-.011,0-.022-.018l-.01,0c.007-.013.014-.029.023-.043l-.031-.031,0-.024.017.016,0-.072c-.012-.018-.025-.029-.036-.045a.24.24,0,0,0,.017-.031c-.008-.01-.02-.02-.028-.03l.006-.023-.013,0a.282.282,0,0,0,.021-.031c-.017-.02-.032-.039-.047-.059l.013-.06c-.015-.02-.03-.041-.046-.061l.009-.045c-.012-.013-.023-.029-.037-.043l.014-.058-.037-.045c.007-.016.013-.028.02-.045-.014-.018-.029-.037-.046-.057l.013-.058-.02-.018,0-.021-.011,0,.011-.047c-.017-.02-.033-.039-.048-.059a.236.236,0,0,1,.019-.031.152.152,0,0,1-.019-.018.059.059,0,0,1-.01-.062l.012-.008a.684.684,0,0,1-.045-.061l.013-.056c-.011-.01-.019-.022-.029-.031l.006-.024-.012,0c.006-.01.012-.021.019-.031l-.022-.016c-.021-.041-.029-.043,0-.088a.513.513,0,0,0-.038-.043l.014-.056a.094.094,0,0,0-.019-.016c-.019-.039-.01-.027,0-.074l-.022,0c0-.023,0-.047,0-.072a.134.134,0,0,0-.019-.016l0-.023-.012,0,.011-.045-.011,0,0-.022-.009-.005.011-.049a.157.157,0,0,1-.02-.018l.006-.021-.012,0a.182.182,0,0,0,.017-.034c-.01-.009-.018-.019-.028-.027,0-.025,0-.051,0-.072-.013-.016-.026-.031-.038-.047l.021-.041-.02-.018.014-.058a.412.412,0,0,0-.029-.03l.012-.056a.089.089,0,0,0-.02-.018l.014-.056c-.01-.012-.019-.02-.028-.032a.338.338,0,0,1,.02-.043.3.3,0,0,0-.03-.033.287.287,0,0,1,.019-.029.089.089,0,0,0-.021-.018c-.008-.025.015-.048.01-.082a.129.129,0,0,1-.022-.017l.013-.057-.023-.006.008-.047.012,0,0-.009c-.01-.008-.02-.012-.03-.02a.015.015,0,0,1,.013-.019c.009-.024,0-.024,0-.024l.015-.058-.012,0,.006-.024a.166.166,0,0,1-.022-.015c0-.012.026-.018.025-.043a.1.1,0,0,1-.023-.018l.013-.059-.023,0,.007-.022.011,0c.008-.01-.009-.053-.01-.062l-.011,0c.011-.024.021-.02.014-.057l-.013,0,.01-.047-.02-.019.014-.059c0-.01-.023-.01-.017-.027h.011c0-.031.008-.062.01-.1a.066.066,0,0,1-.02-.018c0-.01.025-.015.02-.041l-.019-.015c.008-.016.015-.032.023-.045l-.012,0,.014-.055-.022-.017.024-.043-.02-.016.021-.043-.02-.018a.352.352,0,0,1,.023-.043.13.13,0,0,1-.022-.017l.015-.057-.022-.016c.008-.015.024-.015.022-.042,0-.006-.014-.008-.006-.028l.012,0,0-.012a.146.146,0,0,1-.022-.017.287.287,0,0,0,.021-.043l-.018-.016a.342.342,0,0,1,.021-.043l-.011,0c.005-.041.011-.084.017-.127l-.023-.005a.191.191,0,0,0,.023-.1l-.01,0c.006-.014.014-.027.02-.043l-.016-.016.021-.042c-.008,0-.014-.012-.021-.016l.012-.059-.01,0c0-.015.022-.015.021-.043h-.01l.012-.061s-.013,0-.006-.027l.016-.008a.083.083,0,0,0-.023-.018l.019-.068-.013,0c0-.02.018-.02.016-.022l0-.011-.011,0c0-.03.018-.03.022-.043a.078.078,0,0,0-.02-.016.182.182,0,0,0,.02-.045l-.017-.015a.444.444,0,0,1,.022-.053l-.009,0,.01-.045-.012,0a.023.023,0,0,1,.017-.019.191.191,0,0,1,0-.039c.008-.01.012-.02.021-.032s-.017-.01-.006-.037l.012,0,0-.012-.013,0,.011-.045-.012,0,.016-.069-.012,0,0-.012c.007-.005.021,0,.019-.031l-.012,0c0-.015,0-.019,0-.035l-.013,0,.016-.07c.009,0,0-.006,0-.008l0-.012-.011,0c.005-.022.017-.018.017-.018a.146.146,0,0,0,0-.037c-.007,0,.006,0,0,0l.005-.023.012,0c0-.011,0-.025,0-.037l-.013,0,.006-.023-.013,0,.016-.008c.008-.027-.006-.037-.006-.037s.015-.021.023-.033l-.024-.016.014-.056s-.013-.006-.006-.026c0,0,.019,0,.016-.019s-.014-.012-.021-.02l.023-.041c-.011-.012-.021-.021-.029-.031s.014-.028.021-.043l-.02-.018.021-.035-.02-.015a.344.344,0,0,1,.023-.043l-.013,0,.007-.022-.014,0c0-.025.026-.031.025-.045a.144.144,0,0,1-.032-.029.434.434,0,0,0,.022-.043c-.008-.01-.006-.029-.012-.041l0,0v0c0-.016.013-.041.012-.056-.022-.014-.009,0-.02-.018l-.012,0c.007-.014.015-.027.021-.041l-.011,0,.005-.025c-.005-.006-.012-.01-.017-.016s.012-.029.018-.045-.012-.008-.018-.016a.031.031,0,0,1,.019-.033c0-.017-.017-.023-.018-.027l.011-.043-.028-.033c-.006-.026.023-.03.022-.043l-.02-.016,0-.023-.011,0c0-.024,0-.049,0-.073a.018.018,0,0,0,.018-.021l-.03-.029.021-.043a.407.407,0,0,0-.029-.03l.024-.044c-.01-.01-.02-.022-.029-.03.006-.011.026-.019.021-.045-.009-.011-.019-.019-.029-.031a.425.425,0,0,1,.023-.041l-.029-.031c0-.012.026-.02.02-.043a.268.268,0,0,0-.028-.032l.011-.046h-.011l0-.026-.014,0,.013-.046-.02-.014.005-.026-.012,0c0-.013.017-.021.017-.021l0-.039-.022-.006a.145.145,0,0,1,0-.037s.018,0,.015-.02a.073.073,0,0,0-.021-.017l.006-.022-.012,0c0-.023,0-.047,0-.07l-.018-.017.018-.032-.037-.045c.006-.015.013-.027.021-.043-.012-.015-.026-.029-.038-.045.023-.04.011-.045-.007-.085l-.009,0c0-.014.014-.03.019-.045l-.009,0c-.014-.03-.023-.012-.025-.053l-.022-.006s.025-.023.021-.043l-.012,0c0-.014,0-.025,0-.037a.162.162,0,0,0-.033-.02.1.1,0,0,1,.024-.042c-.045-.047-.009-.026-.019-.078l-.013,0c-.012-.043-.017-.075-.062-.1a.135.135,0,0,0-.009-.112l-.02-.017.01-.045c-.015-.019-.029-.039-.045-.061l.012-.056-.083-.114.014-.058a.16.16,0,0,1-.03-.02l0-.011a.465.465,0,0,1-.047-.059l.006-.025-.012,0c-.012-.022,0-.016-.029-.032l.009-.046-.069-.123-.03-.032.008-.035a.1.1,0,0,0-.02-.015c-.014-.039,0-.051-.043-.075l.005-.019c-.037-.022-.034-.053-.054-.084a.576.576,0,0,0-.05-.049l.005-.023-.019-.016a.356.356,0,0,0-.089-.129l.006-.023c-.016-.006-.029-.014-.046-.022l.009-.035c-.046-.025-.058-.061-.112-.088,0-.049-.03-.049-.055-.082-.008-.017-.016-.037-.025-.055l-.031-.019,0-.01-.024.006c-.007-.02.011-.035,0-.047l-.013-.006v.014a.157.157,0,0,0-.031-.02c-.008-.017-.017-.037-.025-.052a.3.3,0,0,0-.031-.022l-.006-.025-.034-.008,0-.012-.023,0,0-.013-.022,0c-.006-.014-.011-.028-.016-.041l-.046-.01,0-.012-.022-.006c-.005-.011-.01-.025-.015-.039a.227.227,0,0,1-.038,0c-.01-.023-.02-.043-.032-.068-.028-.01-.058-.022-.087-.031l0-.026a.6.6,0,0,1-.068-.027c0-.006-.005-.016-.006-.024l-.023-.005,0-.012-.046-.01q-.009-.021-.015-.039l-.022-.006,0-.01-.045-.011-.014-.041c-.016-.01-.02.017-.03.017l-.023,0c0-.025.005-.009-.006-.027l0-.01c-.021-.019-.039.008-.048,0s-.006-.017-.009-.027l-.022,0a.056.056,0,0,0-.016-.029l0-.014h-.05s0-.016-.018-.018l0,.014-.013,0a.255.255,0,0,0-.005-.027l-.024-.006,0-.01-.025-.006,0-.012c-.015,0-.011.032-.025.018s-.013-.027-.018-.041a.219.219,0,0,0-.035,0l0-.012-.038-.009,0-.012-.056-.012v-.012l-.012,0a.017.017,0,0,1-.026,0,.151.151,0,0,1,0-.021l-.061-.014v-.012l-.019-.005,0-.012-.014,0,0,.014c-.022-.014-.03-.041-.062-.041l0,.011-.013,0-.009-.023c-.014-.016-.027.008-.042,0v-.012l-.07-.013c-.006,0,0-.018-.025-.02s0,.016-.011.01,0-.01-.015-.016l.005-.021-.068-.016,0-.012c-.016-.005-.027.016-.053,0,0-.013-.008-.025-.011-.041l-.014.012-.04-.01v.01a.02.02,0,0,1-.02-.016c-.023-.007-.028.006-.028.006l-.053-.023a.021.021,0,0,1-.026.006l-.006-.026c-.016,0-.022.012-.049,0l0-.013-.011,0a.016.016,0,0,1-.026.005l-.006-.027a.387.387,0,0,1-.051.014c-.005-.014-.01-.025-.015-.039a.022.022,0,0,0-.026.006l-.018-.016-.07-.018c-.005,0-.008.016-.026.006l0-.009-.058-.014.006-.012-.013,0,0,.01-.044-.01,0,.012-.013,0,0-.012-.023-.006v-.011c-.014,0,0,.011-.011.007l-.051-.009,0,.011c-.015,0,.006-.009-.008-.013s-.042,0-.06,0l0-.012-.069-.015,0-.012-.013,0,0,.011-.064-.025a.189.189,0,0,0-.019.02c-.018-.008-.034-.016-.055-.024l0,.01c-.01-.006-.023-.012-.031-.018s-.008.014-.025,0c0,0,0-.015-.031-.019l0,.012-.012,0,0-.012-.125-.028,0,.01-.01,0,0-.009-.058-.014s0-.016-.02-.02l0,.014-.047-.012v.01a.173.173,0,0,1-.022-.015h-.037a.032.032,0,0,0-.033-.017l0,.01-.034-.006,0,.012-.012-.005,0-.011-.058-.012,0-.01-.012,0a.284.284,0,0,0-.037,0l0,.012c-.017-.01-.036-.017-.054-.027l-.005.025a.883.883,0,0,0-.141-.021c-.035,0-.064-.032-.078-.03a.06.06,0,0,1-.017.02l-.044-.01,0-.012c-.025-.007-.026.008-.026.008l-.071-.017,0,.011-.023-.006,0,.012-.067-.017,0,.011-.011,0s0-.017-.018-.015l0,.009-.035-.007,0,.011-.034-.007,0,.009c-.02,0-.014-.009-.019-.015s0,.008-.012.009l-.037-.007a.1.1,0,0,0-.015.019.18.18,0,0,0-.034-.017v.009l-.035-.007,0,.011-.113-.027-.019.021-.03-.019c-.005.008-.013.014-.016.019l-.026,0v.013c-.008-.006-.013-.012-.021-.019-.005.009-.012.013-.017.021a.109.109,0,0,1-.022-.017l0,.013-.021-.008,0,.014a.081.081,0,0,1-.05,0l0,.024c-.013-.008-.037-.032-.067-.028,0,.006-.011.012-.017.02l-.012,0,0-.01-.074.006-.018.021a.271.271,0,0,0-.042-.021l0,.012-.023-.006a.081.081,0,0,1-.018.019.568.568,0,0,1-.058,0l0,.014a.344.344,0,0,0-.031-.021.532.532,0,0,0-.047.039l-.022-.006,0,.01a.26.26,0,0,0-.043-.02l0,.022c-.048,0-.069.023-.127.019l0,.021a.588.588,0,0,1-.074,0c-.011.021,0,.009-.016.021l0,.01-.046-.01-.03.029-.025,0,0,.01-.021,0,0,.012-.034-.008c-.014.012-.03.024-.043.037l-.069-.015,0,.01.011,0a.129.129,0,0,0-.016.018l-.024,0-.007.025-.023-.005c-.027.048-.008.013-.052.023l0,.01-.02,0c-.025.017-.049.035-.076.055l-.031-.008a.2.2,0,0,0-.088.062l-.023-.006-.006.024a.216.216,0,0,0-.051,0c-.015.029-.011.027-.041.027l-.006.022a.231.231,0,0,0-.036,0l-.07.052,0-.019a.214.214,0,0,0-.026.019l-.007,0a.227.227,0,0,0-.022.022.1.1,0,0,0-.023,0l0,.017-.011.008-.055.018c-.033.021-.04.05-.086.052l-.005.024c-.043,0-.04.017-.07.045l-.007,0v0l-.017,0-.008.035a.411.411,0,0,0-.04.015c-.037.028-.076.053-.114.081l0,.007-.011,0-.009.037-.023,0V649l-.007,0-.017,0a.26.26,0,0,1-.02.035.325.325,0,0,0-.045.024v.009l-.008,0h-.035l-.008.035-.019,0c-.006.008-.013.02-.019.03l-.012,0c-.029.021-.071.037-.089.076l-.022-.006,0,.012c-.026.014-.012.021-.054.023a.205.205,0,0,0,0,.037l-.05.014-.007.033a.191.191,0,0,0-.029.018l-.01,0a.131.131,0,0,0,.006.025.536.536,0,0,1-.055.024c0,.014,0,.025.005.037l-.025,0-.006.024-.021-.008c-.011.029-.011.043-.024.056l-.011,0-.008.024c-.008,0-.016,0-.024,0l0,.021-.028.008-.009.045a.129.129,0,0,0-.026.008l0,.021-.012,0,0,.022-.012,0-.009.033-.025.008c-.032.056-.066.113-.1.168l-.023,0,0,.023.012,0a.243.243,0,0,0-.023.045l-.02,0a.611.611,0,0,0-.03.063l-.023-.006a.158.158,0,0,1-.022.047l-.011,0c0,.01,0,.025,0,.037l-.027.006-.005.025-.012,0c0,.018,0,.035,0,.049l-.024-.006-.008.035h-.012l.005.027a.1.1,0,0,0-.023,0l.006.015,0,.01h0v.008a.321.321,0,0,0-.018.037l-.022-.008c.017.016-.013.055-.036.082l-.013,0v0l-.018,0-.007.024-.01,0,0,.037-.026.008.009.013a.438.438,0,0,0-.022.049l-.006,0v0l-.008,0-.005.025-.01,0-.011.043h0v0l-.008,0-.006.021-.011,0-.007.033c-.009,0-.018,0-.026.008l.005.024c-.005.007-.028,0-.028.017s.02,0,.01.016a.109.109,0,0,0-.026.006c-.008.013-.013.029-.021.043l-.024-.006c-.007.017-.026.082-.035.1a.116.116,0,0,0-.025.006l.01.014-.026.053-.012,0a.022.022,0,0,0,.007.025c0,.022-.017.022-.017.022l0,.033,0,0v0l-.022,0-.009.035a.083.083,0,0,1-.025,0c0,.017.012.043.012.058-.02-.045-.041.031-.048.061,0,0-.047-.01-.026.006l.011,0,0,.01-.024,0c0,.028-.005.061-.009.092a.071.071,0,0,0-.019.006l0,.021,0,0c0,.01-.005.014-.007.022h0l-.005.021v0l-.014,0c0,.01,0,.022,0,.031l-.008.014-.009,0v.012H134.3c0,.014,0,.023,0,.037l-.026.006a.268.268,0,0,1,0,.049c-.011.006-.024.009-.035.014a.129.129,0,0,0,0,.048.09.09,0,0,0-.026.008.017.017,0,0,0,.005.024c0,.021-.014.017-.016.019l-.014.059a.1.1,0,0,1-.026.007.222.222,0,0,1,0,.038s-.015,0-.019.029l.009.016-.012,0,0,.023-.012,0c-.008.014-.014.022-.021.033l.013,0,0,.024c-.009,0,0,0-.006,0a.207.207,0,0,0-.017.033s.011,0,.005.023l-.012,0,0,.012c.006.006,0,0,0,.012l-.015.068-.009,0c-.005.016-.016.014-.02.031h-.011c-.015.025,0,.025,0,.035l0,.011-.011,0-.015.069-.014,0-.011.045-.01,0,0,.012.012,0c0,.027-.018.031-.018.031a.154.154,0,0,0,0,.037.283.283,0,0,0-.021.031.021.021,0,0,1,.006.026l-.01,0-.009.047-.014,0a.349.349,0,0,1,0,.056l-.025.008c0,.014,0,.031,0,.047a.121.121,0,0,1-.026.006c0,.015.012.023,0,.051l-.012,0,0,.011a.019.019,0,0,1,.005.026l-.01,0-.017.074-.025.006.007.013c0,.026-.017.022-.017.022l-.012.057-.013,0c-.013.025.005.033,0,.049l-.012,0-.012.058a.137.137,0,0,1-.026.006v.049l-.029.006a.188.188,0,0,1,0,.047h-.012a.2.2,0,0,0-.024.1l-.022,0a1.266,1.266,0,0,0-.04.123l-.013,0c0,.017,0,.031,0,.048l-.027.006c0,.018,0,.031,0,.049l-.024.006,0,.012h.011c0,.023-.013.017-.015.023-.013.023,0,.031,0,.049l-.025,0-.014.058-.026.006c0,.016,0,.031,0,.049a.146.146,0,0,0-.027.006.2.2,0,0,1,0,.049l-.025.006a.248.248,0,0,1,0,.048l-.023,0-.013.059-.013,0a.262.262,0,0,0,0,.049l-.026.006c-.016.021,0,.035,0,.049a.122.122,0,0,1-.026.005c-.011.03-.022.061-.033.094h.011c0,.022-.023.012-.029.022l-.013.054a.091.091,0,0,0-.025.008l-.01.047-.012,0c-.021.029-.013.027-.013.053l-.012,0c-.005.008-.037.043-.037.053l.012,0-.005.024-.022-.006-.013.057-.026.005c-.015.02,0,.036,0,.049l-.024.006-.006.022-.012,0-.012.058s-.012-.008-.017.02c0,0,.016.012.005.025a.207.207,0,0,0-.035,0l0,.012.01,0-.01.047-.023-.006-.013.056-.026.006c-.02.026-.011.057-.03.076a.067.067,0,0,1-.025.008.225.225,0,0,1,0,.037.278.278,0,0,1-.037.014c0,.018,0,.031,0,.049a.212.212,0,0,1-.04.016l-.013.056c-.008,0-.018,0-.026.008l-.013.057-.04.013-.013.057a.148.148,0,0,0-.025.008c0,.015,0,.031,0,.049l-.053.023c-.009.022-.019.043-.027.067l-.041.015a.206.206,0,0,0,0,.039l-.013,0,0,.022a.079.079,0,0,1-.026.007l-.011.045h-.014l0,.021-.014,0-.009.045-.01,0-.006.025a.232.232,0,0,0-.026.006c-.009.022-.018.045-.028.065l-.024,0c-.008.047.006.041-.026.066l-.025.006-.013.057a.352.352,0,0,0-.054.023c0,.051,0,.049-.041.076l-.027.006.005.035-.012,0-.006.024a.182.182,0,0,1-.041.015l-.013.057c-.021.012-.043.022-.065.033l.01.016c-.008.031-.02.035-.037.051a.114.114,0,0,0-.027.006.127.127,0,0,1,0,.035c-.02.012-.044.021-.066.035l-.012.045-.012,0-.005.023a.105.105,0,0,0-.024.006l-.013.059c-.023.008-.046.021-.068.031a.369.369,0,0,0,0,.047l-.015,0,0,.008a.353.353,0,0,1-.035.013l-.01.045a.178.178,0,0,0-.014.02l-.043.019,0,.018c-.01.02-.017.02-.026.041l-.025.012a.028.028,0,0,0-.019.009l0,0v0c-.01.01-.016.022-.032.039l-.01,0-.006.022-.011,0,0,.025h0a.09.09,0,0,0-.026.006c-.011.02,0,.039-.018.061a.116.116,0,0,0-.025.006l-.005.021-.025.008-.006.022c0,.007-.012.009-.013.015h0c-.019.02-.037.035-.033.067l-.023-.008a.113.113,0,0,1-.023.041l.012,0,0,.013-.026.006c-.014.025-.028.049-.041.074l-.024-.005a.378.378,0,0,1-.044.085l-.022,0c-.02.04-.039.063-.035.1l-.022-.006c-.006.012-.01.024-.015.033l0,0,0,.016,0,.008-.01,0v.008l-.018,0,0,.027-.009,0-.008.02-.02.01a.076.076,0,0,0-.014.044l-.009,0c0,.01-.01.018-.014.026l-.016.008c-.011.011,0,.025,0,.037l0,.01-.011.006-.014,0v.009l-.038.02a.383.383,0,0,0,0,.047.541.541,0,0,0-.055.025.086.086,0,0,1,0,.027.163.163,0,0,1-.011.028c-.023.011-.045.023-.068.033,0,.012,0,.025,0,.037l-.013,0,0,.023-.011,0c-.028.017,0,0-.021.041l.024.005-.005,0v0h0l-.027.026-.012,0-.006.021H130.7a.379.379,0,0,0,0,.049.047.047,0,0,0-.023.006c0,.012-.023.023-.023.035l-.024.006c-.014.022,0,.033,0,.049a.107.107,0,0,1-.027.006c-.012.023,0,.035,0,.049l-.011,0,0,.021a.157.157,0,0,1-.026.008c0,.01,0,.025,0,.039a.232.232,0,0,0-.026.006c-.014.021,0,.033,0,.049l-.012,0c-.021.043-.057.074-.058.107a.328.328,0,0,0-.038.012.269.269,0,0,1,0,.049.375.375,0,0,1-.04.017l-.009.043-.012,0c-.008.016-.017.03-.023.043a.024.024,0,0,1,.006.028.078.078,0,0,0-.026.006c0,.015,0,.031,0,.046l-.024.006-.014.059-.013,0-.005.021-.009,0v.037h-.008c-.009.013,0,.044,0,.046l-.021-.005c-.007.011-.012.021-.019.031s.014.01.006.025h-.012l-.006.022-.011,0,0,.011.011.005a.271.271,0,0,1-.014.033l0,0c-.006.019-.012.037-.02.058l-.007,0c-.011.022-.019.043-.03.065l-.01,0v.023l0,0,0,.014-.01,0-.011.024h0l-.011.02.012,0v0a.069.069,0,0,1-.022.006l0,.025-.011,0v.012a.134.134,0,0,0-.016.059l-.005.021-.021-.006,0,.014.006.006v.006l0,0c0,.01-.017.016-.016.03l.006,0,0,.013-.021,0v.028l0,.011-.023.006.007.024h-.009l-.008.021-.01,0v.047l-.011,0-.024.1,0,0v.021l0,0,0,.012-.005,0-.005.023-.012,0a.14.14,0,0,1,0,.037l-.011-.005-.026.105-.011,0-.021.094h-.006l0,.01,0,0a.034.034,0,0,0,0,.037c0,.019-.014.015-.016.019l-.009.043a.11.11,0,0,0-.015.026l.005.006-.006.027h-.01a.15.15,0,0,0,0,.035l0,.012-.01,0a.018.018,0,0,0,.006.023l0,.014-.01,0c-.008.018.006.023.006.023s-.013.022-.02.032,0,.025,0,.039-.016,0-.024,0,.015.025,0,.048a.172.172,0,0,1-.027.006c0,.018.01,0,.008.014s-.018.033-.018.033c-.008.016.005.022.005.022,0,.025-.016.021-.016.021s0,.027,0,.039l-.01,0c-.013.03,0,.039,0,.039l-.02.045.008,0a.425.425,0,0,1-.02.043l.011,0-.015.068-.012,0v.049s-.014,0-.015.02l.009,0,0,.012-.009,0-.009.034a.216.216,0,0,1,.006.027l-.012,0c0,.012,0,.024,0,.035h-.011l-.008.031.011.005c-.007.009-.013.021-.02.031l.005.025-.009,0-.009.035.01,0c0,.014-.021.014-.02.039l.011,0,0,.01-.011,0-.045.2s-.016,0-.018.02l.014,0c-.007.012-.014.021-.02.031l.012,0-.013.057.01,0-.03.185.011,0-.014.059.011,0a.171.171,0,0,1-.016.021.228.228,0,0,0-.01.094c0,.027-.019.031-.021.043l.01,0-.008.033.013,0c-.007.045-.011.082-.016.121l-.013,0v.012l.011,0-.009.045.009,0a.167.167,0,0,1-.018.032l.012,0-.014.054.013,0a.246.246,0,0,0-.02.033l.012,0-.009.035.012.005-.018.078.011,0-.008.035.01,0-.02.08.012,0-.008.035.014,0,0,.012-.012-.005.006.038a.124.124,0,0,0-.019.021h.011l-.007.037.012,0-.011.045h.012l-.008.033.012,0-.009.033.012,0a.968.968,0,0,0,0,.12h.007l-.013.067.012,0-.008.031.01,0a.1.1,0,0,1-.016.025l.012,0-.007.024.013,0-.016.068.021.018c-.007.007-.013.011-.015.017l.009,0,0,.023.009,0-.011.052.011,0c-.006.047-.007.068-.014.119l.01,0,0,.028.01,0-.012.052.013,0,0,.018.011,0-.008.041.011,0-.012.051.01,0a.378.378,0,0,0,0,.041.088.088,0,0,1,.031.03c0,.025,0,.053-.008.082a.067.067,0,0,1,.02.017c0,.016,0,.03,0,.047l.012,0c0,.018,0,.037,0,.057l.012,0-.012.047.02.015-.008.039a.1.1,0,0,0,.02.02l-.007.027.012,0-.007.024.013,0-.007.033h.011l-.006.021.021.016,0,.023a.529.529,0,0,0,.036.051c0,.027,0,.055.005.08a.556.556,0,0,1,.045.063l-.005.021a.175.175,0,0,1,.02.016l-.007.035c.011.039.033.043.025.1a.267.267,0,0,1,.031.02l-.008.035.023.006a.132.132,0,0,0,.011.051l.013,0-.011.043a.147.147,0,0,0,.022.015l-.006.024.011,0c.017.039.042.056.038.109l.023,0c0,.039.016.051.014.094l.022.006c0,.013.015.017.021.027l-.007.021a.162.162,0,0,1,.028.03l-.005.023c.006,0,.013.012.02.016l-.008.035c.011.031.042.008.043.07.024.012.045.026.066.037,0,.053.031.071.032.118l.024.005c0,.012,0,.024,0,.036l.034.007-.005.026.022,0c0,.017.014.021.016.029l0,.023.01,0a.167.167,0,0,1,.039.094l.023.006c.013.037.046.053.067.086l.111.195.023,0c0,.01,0,.018.006.027a.549.549,0,0,1,.055.026v.01c.005.005.012.009.019.015l-.007.022.032.019c.011.024.023.047.034.07l.021,0,.034.069a.336.336,0,0,0,.055.023.239.239,0,0,1,.015.039l.023.006a.2.2,0,0,1,.005.028l.034.005a1,1,0,0,0,.053.1.4.4,0,0,1,.049,0c.01.022.021.043.031.065l.025.007,0,.01a.109.109,0,0,0,.02.018l0,.023a.435.435,0,0,0,.079.029v0l0,0,0,0-.008.028a.087.087,0,0,1,.05.046v.01l.022.006a.228.228,0,0,0,.007.026l.01,0,0-.013c.018,0,.01.023.018.029l.027-.006,0,.012.021,0c.008.017.017.037.023.054a.031.031,0,0,0,.038,0l.033.019-.005.024.03.019,0,.01a.161.161,0,0,0,.032.021l.006.026c.022.019.069.015.087.043s0,0,.006.025l.059.027v.01l.028.018,0,0,.025,0,0,.011.035.014v.006l.015,0c.01.006.017.006.026.012s.006.019.009.027h.008l.007.027.068.016a.229.229,0,0,1,.017.043l.059.023.007.014.034.008v0l.012,0v0l.009,0,.006.025a.57.57,0,0,0,.066.035v.006l.017,0-.005.022c.023.007.047.017.069.025l.012.018c.005,0,.007,0,.007,0v.013c.031.014.02.024.043.033v-.011h.017v0a.082.082,0,0,0,.021-.006l.006.025.022.006c.008,0,.006.016.018.025l0,.014c.018.012.024-.031.051-.016l.025.057a.3.3,0,0,1,.044,0l0,.012.019,0a.208.208,0,0,0,.04.013l.005.02.024.006,0,.011h.018l.009.019h0l.047,0,.005.021a.234.234,0,0,1,.026.01.354.354,0,0,0,.015.037.017.017,0,0,0,.025-.008.02.02,0,0,1,.02.018h.051l-.006.022c.016.007.026.015.042.023.039-.053.021.037.054.035.005,0,.011-.029.039-.015l.007.027c.019,0,.012-.031.027-.02s.017.037.025.055h.047l.007.025.069.016,0,.01.045.009a.242.242,0,0,1,.006.026.019.019,0,0,0,.027-.006c.036,0,.033.022.052.035l0-.021.02,0,.008.025a.414.414,0,0,0,.05,0l.007.025c.022.018.034-.005.046,0l.006.028.026,0,0,.013.037-.005.006.027.069.015s0,.016.021.016l0-.012.01,0a.176.176,0,0,1,.006.028c.016,0,.033,0,.049,0l.006.027c.022.014.039-.008.05,0a.122.122,0,0,0,.006.026l.021,0,0,.012a.021.021,0,0,0,.026,0c.018,0,.021.014.021.014a.216.216,0,0,0,.036,0l0,.012c.022,0,.04,0,.062,0a.156.156,0,0,0,.007.023.3.3,0,0,0,.037,0l0,.014c.011,0,.02.014.031.017l0,.012.012,0,.006-.023.031.017v.014c.012,0,.023-.016.047,0l.007.025c.025.012,0-.021.016-.019a.145.145,0,0,1,.033.021l0,.01c.014,0,.029-.016.049,0,0,0,.015.029.028.043l.005-.024.025.006.006.026a.208.208,0,0,1,.037,0l0,.012h.06a.136.136,0,0,0,0,.027c.019,0,.023-.014.049,0l0,.012.013,0a.03.03,0,0,1,.036-.006l.007.025c.023.016.037-.006.049,0s0,.018.006.025l.093.01v.012l.022.006,0,.012a.249.249,0,0,1,.035,0l0,.011.013,0a.035.035,0,0,1,.037,0s0,.016.021.018c0,0,.007-.016.028-.006l.006.025a.39.39,0,0,1,.059,0l0,.009c.013,0,.025,0,.037,0s0,.014.019.016l0-.01c.036.006.022.024.029.029.023.012.077-.007.085,0l.007.025c.024.016.036-.008.048,0l0,.01.037.008v-.01l.045.019V667.4c.017.007.015.025.019.025l.147.037,0,.012c.021,0,.04,0,.062,0l0,.009.01,0s.007-.017.027-.006,0,.028.029.03l0-.01.034.008,0-.012c.029,0,.026.016.031.018s0-.008.016-.008l.134.043,0,.012c.017,0,0-.012.015-.008l.034.006,0,.013a.245.245,0,0,1,.04,0l.027.02.005-.012c.015.006.028.014.044.022a.016.016,0,0,1,.025-.006l.006.025.015-.008.054.012,0-.012.015,0,0,.012c.035,0,.07.006.107.012,0,0,.005-.016.027-.008l0,.014.023.006,0,.009.037,0,0,.01.022.006v.012a.21.21,0,0,1,.038,0s0,.015.019.017l0-.011.033.007,0-.011.056.011,0-.009.014,0,0,.011c.026.01.036-.005.047,0s0,.016.023.016c0,0,.005-.014.024-.006l0,.012.011,0,0-.01.033.008,0-.012a.031.031,0,0,1,.033.022l.079.015,0-.01c.013,0,.032.026.067.026v-.012l.069.029,0-.011.071.015,0-.011c.012,0,.021.023.05.027l0-.014.013,0a.018.018,0,0,0,.021.016l0-.01.046.01,0-.01a.131.131,0,0,1,.03.018l0,.009c.03,0,0-.009.017-.017a.1.1,0,0,0,.083.006l.011.015.013,0v-.009a.268.268,0,0,1,.055.025c.034-.006.065-.012.1-.016l-.007.026c.019,0,.043,0,.069,0l0-.012a.328.328,0,0,0,.042.021l0-.011.093.023v-.014c.017,0,.015.022.045.024l0-.012c.026,0,.038.035.076.029.006-.005.011-.013.018-.019l.035.006v-.01l.012,0s0,.016.02.014l0-.01.034.008v-.012l.009.016.123,0v-.011c.019.006.008.035.038.033.012-.012.023-.02.033-.029l.09.021,0-.012a.231.231,0,0,0,.034.02l0-.012.01,0v.01l.015,0v-.01l.022,0,0-.01c.011,0,.02.012.032.018s.007-.014.025-.006c0,0,0,.016.018.013l0-.007.048.01.017-.024a.338.338,0,0,0,.054.026c.005-.006.009-.014.014-.02l.026.006,0-.014c.013.006.023.029.054.026v-.01l.061.013,0,.012.011,0a.2.2,0,0,1,.016-.02l.045.01,0-.011.022.006,0-.012a.162.162,0,0,1,.1.023l0-.023a.984.984,0,0,0,.109,0l0-.012.013,0,0,.012c.039.006.08.009.117.013a.214.214,0,0,0,.031-.029c.016.008.029.016.043.022l0-.012.037.01,0-.012a.02.02,0,0,1,.019.015.539.539,0,0,0,.058,0l.032-.029a.018.018,0,0,1,.02.016c.026.01.026,0,.026,0l.068.014,0-.01a.568.568,0,0,1,.059,0,.175.175,0,0,0,.017-.02.335.335,0,0,0,.043.02c.01-.01.022-.018.031-.028.03,0,.057,0,.086.008l0-.014a.262.262,0,0,1,.067.028.294.294,0,0,1,.042-.037c.033,0,.021.037.041.035l0-.014c.015,0,.019-.013.028-.017l.023.005a.158.158,0,0,1,.018-.019l.031.019,0,.01c.023,0,.018-.011.05-.011l.008-.024c.028.006.059.008.093.012l0-.024c.033,0,.064,0,.1,0l.016-.019.132.006c.011-.01.021-.018.032-.03l.067.016a.212.212,0,0,0,.035-.039l.1.01,0-.012.024.006v-.012a.4.4,0,0,1,.1,0c.014-.021,0-.01.016-.021.029-.016.068.008.1,0l.016-.02a.226.226,0,0,0,.036,0v-.009a.283.283,0,0,1,.04,0l0-.024a.252.252,0,0,1,.037,0s.011.024.033.02l.042-.037.024,0,0-.012a.133.133,0,0,1,.021.02c.01,0,.013-.032.03-.024l0,.012.01,0,.019-.022.021.006,0-.012a.144.144,0,0,1,.067-.019l.005-.028c.033,0,.062.01.094.012l0-.023a.07.07,0,0,0,.028-.008l0-.008.022,0c.02-.014.039-.031.059-.047a.293.293,0,0,0,.043.022l.087-.063.035.008.015-.02.024,0c.009-.01.02-.019.031-.029a.289.289,0,0,0,.059,0l.06-.047.023.008c.02-.016.04-.029.06-.045l.038,0,.005-.023.024-.006,0-.012c.021,0,.039,0,.061,0a.18.18,0,0,0,.014-.019l.025.005c.062-.043.123-.086.185-.127.034-.021.067-.021.1-.05l.022.006c.019-.038.049-.047.077-.067l.012,0,0-.025c.006-.006.016,0,.027-.018l.021.006.006-.024.034.008a.366.366,0,0,0,.021-.033l.022,0c.026-.039.062-.043.085-.084.025,0,.045-.006.072-.008.031-.057.049-.021.071-.045l.008-.033.025-.006.006-.023a.153.153,0,0,1,.04-.016l.005-.025c.007-.006.017-.006.029-.02l.021,0c.018-.033.038-.035.054-.072l.022.006c.018-.049.047-.053.08-.078h.01l0-.021a.121.121,0,0,0,.026-.006l.011-.045.011,0a.122.122,0,0,0,.034-.041l.023.006.007-.033a.231.231,0,0,1,.038,0c.019-.057.041-.049.066-.084l.01-.033.022,0,.006-.022c.023-.013.044-.023.07-.035.014-.029.03-.051.042-.072s.036-.016.054-.026l.007-.023.024-.008.006-.023h.01l.008-.029h.012l0-.017h.011l0-.021a.092.092,0,0,1,.029-.01l.011-.051a.128.128,0,0,1,.025,0l.009-.037.01,0c.009-.016.017-.033.025-.049l.01,0a.4.4,0,0,0,.025-.055.092.092,0,0,0,.024,0,.4.4,0,0,0,.028-.07c.014-.006.028-.014.042-.019s.015-.032.019-.03l.011,0,.012-.049h.011l.01-.037h.011l.012-.043.01,0,.007-.029.01,0,.008-.025h.009l.038-.109.013,0,.013-.053.011,0,.006-.025.01,0c0-.014,0-.026,0-.037a.112.112,0,0,1,.026,0l.012-.055h.012l.005-.025.012,0a.156.156,0,0,0,0-.038l.01,0,0-.029.014,0,.014-.061.012,0c.016-.037.033-.07.046-.105l.012,0,.01-.039.012,0,.007-.036.012,0,.009-.045.012.005.007-.034.012,0a.293.293,0,0,1-.006-.029c.006-.01.014-.02.02-.031l-.012,0,0-.01.012,0,.009-.035.009,0,.019-.08.013,0,.008-.035.01,0,.019-.078.012,0,.007-.037.011,0c0-.014,0-.025,0-.039l.01,0,.013-.055.012,0c0-.012,0-.023-.005-.037l.013,0,.011-.047.009,0,.005-.016-.011,0c.011-.037.025-.072.037-.111l.013,0,.007-.037.012,0c.005-.012-.015-.024,0-.047a.171.171,0,0,0,.033-.09.158.158,0,0,0-.005-.025l.01,0,.014-.055.013,0c.016-.065.036-.121.056-.182l.008,0,.015-.058h.012c0-.013,0-.023,0-.037Zm-9.172-13.445h0l0,0,0,0,.008-.01,0,.01m1.145,1.375h.012c.013-.028.023-.057.034-.086l.012,0a.167.167,0,0,0,0-.039.113.113,0,0,0,.029-.006l.015-.061.011,0,.006-.023.014,0,.009-.047.012,0c0-.018,0-.033,0-.051l.013,0,.006-.025.01,0a.889.889,0,0,0,.05-.1l.026.008c.022-.068.028-.043.056-.078l.006-.024.014,0a.12.12,0,0,0-.008-.027l.027-.006c.021-.027.01-.062.035-.084s.047-.014.069-.02l.09-.16.071-.021.005-.024a.162.162,0,0,0,.028-.007l0-.024.014,0c.008-.019.017-.039.026-.058a.166.166,0,0,1,.027-.006.223.223,0,0,0,.021-.036l.013,0,.026-.058.028-.006.011-.049c.026-.033.059-.025.083-.07l.026.006c.028-.055.049-.039.093-.061l.033-.017.005-.024.038,0a.65.65,0,0,0,.067-.062c.02.009.042.017.059.027a.04.04,0,0,1,.042,0c.015.006-.008.014.009.014l0-.012.037.008,0,.012c.017.006.029-.016.053,0a.069.069,0,0,1,.006.026.27.27,0,0,0,.042,0l0,.012.025.008,0,.011c.02.006.018-.015.032-.019s.015.023.047.023l0-.012a.132.132,0,0,0,.035.022s0-.016.026-.008a.023.023,0,0,0,.021.02.025.025,0,0,1,.03-.008l0,.014.012,0,0-.013.026.006a.092.092,0,0,0,.017-.022l.076.018c.006-.006.011-.014.018-.02s.014.01.021.018l0-.012.023.006,0-.014.051.012a.179.179,0,0,1,.018-.02.449.449,0,0,1,.052,0c.033-.064.028-.019.073-.033a.358.358,0,0,0,.034-.033l.025.006,0-.012a.277.277,0,0,1,.11-.011l0-.026.011,0c.018-.014.034-.025.051-.039l.037.008.032-.029.024.005a.109.109,0,0,1,.022-.021h.054a.287.287,0,0,1,.047-.039l.026,0,.017-.022.012,0,.006-.025c.049,0,.1,0,.147,0l.005-.024a.088.088,0,0,0,.054,0v-.01l.052.01,0-.012.025.006,0-.012c.032,0,.03.021.047.023l0-.011c.034,0,.044,0,.065,0,.018.031.031.06.046.089l.027,0a.316.316,0,0,0,.038.073l.024.007a.071.071,0,0,1,.007.026l.037.01a.513.513,0,0,1,.027.058l.037.008,0,.01c.013.017.027.033.041.049l-.005.023c.057.008.049-.008.083.031,0,.012,0,.02.006.03l.016-.01a.089.089,0,0,1,.057.037c0,.01.005.021.008.029l.015-.008.072.028s-.011.043.007.027c.018,0,0-.015.015-.01a.179.179,0,0,0,.037.022c.007,0,.014-.029.027-.018l.008.026a.025.025,0,0,0,.028-.006.168.168,0,0,0,.038.019l0-.01.029-.005-.009.021.05.028a.021.021,0,0,1,.027-.01l0,.015.124.028,0-.014.025.006v-.01l.051.012,0-.014c.048.006.094.014.141.022l0-.014.026.006,0-.014a.88.88,0,0,0,.1.012.131.131,0,0,0,.018-.022.323.323,0,0,0,.034.022l0-.012.025.006,0-.012.127.016a.2.2,0,0,1,.022-.02l.112.012,0-.023.181.027,0-.012c.015.01.023.014.033.022l0,.012.058,0,0,.014c.023.01.055-.014.086.008l0,.014.025,0a.25.25,0,0,1,.009.029.449.449,0,0,0,.053,0,.14.14,0,0,0,.009.029l.048,0c0,.012.007.018.011.03.03.021.063.009.084.031s.025.047.036.072l.062.014c.008.019.018.039.024.058l.016,0-.006.024a.048.048,0,0,1,.021.017c0,.006-.012.014-.017.02l.036.01c.021.033.036.066.057.1l.024.006,0,.01a.541.541,0,0,0,.053.062l-.005.014-.013,0a.47.47,0,0,1,0,.053c.047.06.1.123.145.185l-.017.079c.024.025.047.052.073.08l0,.023.022.017a.057.057,0,0,0-.014.049c.027.03.049.063.074.092-.009.012-.014.024-.021.035s.014.01.021.018l-.006.023c.011.008.023.014.036.022a.271.271,0,0,1,.02.133c.048.025.015.006.031.045l.02.017a.124.124,0,0,1-.021.033.481.481,0,0,0,.044.047l-.006.026a.165.165,0,0,1,.02.017c-.006.012-.012.022-.02.035l.013,0-.006.026.023.017-.011.047a.12.12,0,0,0,.021.018c.011.027-.011.006.007.027-.017.012,0,.006-.029.006.006.015.013.027.018.043l.014,0c.007.031-.008.074,0,.1l.025.018a.354.354,0,0,0-.023.035c.012.01.022.022.034.031l-.025.047c.011.012.022.022.031.031l-.013.063.022.016c-.009.015-.015.031-.025.046l.025.018c-.006.014-.03.018-.025.045.009.006.015.014.024.02-.007.015-.031.017-.026.048a.127.127,0,0,1,.021.018.478.478,0,0,1-.022.045l.031.033-.02.033.012,0,0,.024.011,0-.02.035.013,0c-.016.06-.017.046-.047.08-.033-.014-.064-.026-.1-.037l-.008-.028-.039,0,0,.01-.052-.01.005-.025-.024-.006c.014-.031.048-.121.024-.158,0-.037,0-.03-.029-.045,0-.053-.021-.045-.048-.076-.007-.018-.011-.032-.017-.047l-.049-.012,0-.012-.026,0,0-.013-.062-.014s.006-.012-.022-.018c-.012,0,0,.016-.028.008,0,0,0-.017-.021-.019,0,0-.01.015-.029.008v-.016l-.162-.035,0-.014-.056,0a.021.021,0,0,0-.02-.019l-.006.011-.083-.019s-.011.017-.03.005c0,0-.056-.042-.07-.048-.035,0-.051-.016-.088-.012s0-.037-.067-.029c-.007.007-.038,0-.044,0l-.012,0,0-.012c-.013,0-.026,0-.04,0l0-.014-.036-.008,0,.012c-.034,0-.063-.035-.108-.039l-.005.014a.4.4,0,0,0-.037-.022s0,.014-.03.006.009-.012-.008-.015l0,.011-.038-.008,0-.011-.062-.014s0-.018-.027-.02l0,.014-.02-.006,0,.014-.056-.014,0-.013h0l0,.011-.091-.019,0,.011c-.045-.007-.079-.007-.12-.015-.009,0-.02-.012-.034-.018v.012c-.046,0-.038-.006-.076-.017l-.007.023a.124.124,0,0,0-.066,0l0,.014c-.018-.008-.033-.018-.048-.024a.1.1,0,0,0-.017.024l-.028-.006c-.014.031-.044.06-.057.088a.017.017,0,0,0,.007.025c-.01.02-.019.039-.028.061l-.013,0,0,.023-.013,0c-.025.022-.048.03-.066.061l-.026,0c-.007.006-.01.013-.018.021l-.087-.019,0,.011-.075-.015,0,.01-.036-.008,0,.012-.1-.024,0,.012-.075-.016,0-.014a.21.21,0,0,1-.042.005l-.064-.014s.006-.018-.021-.018a.021.021,0,0,1-.028.006.156.156,0,0,0-.008-.029c-.017-.008-.068.012-.1-.01l-.008-.027a.49.49,0,0,1-.053,0l0-.014c-.061-.016-.123-.035-.184-.055l0,.012c-.025-.01-.05-.02-.072-.027l0,.011c-.013-.011-.023-.023-.033-.033l-.017.022-.014,0,0-.012-.076-.02s-.007.016-.028.006c0,0,0-.013-.021-.017a.022.022,0,0,1-.03.008c-.007-.006,0-.028-.02-.03l0,.012-.2-.047a.145.145,0,0,0-.015-.055l-.011,0,.023-.045c-.007-.005-.014-.013-.022-.019l.014-.061-.012,0c0-.019.015-.017.017-.021a.023.023,0,0,0-.006-.027c.007-.016.015-.03.024-.047a.147.147,0,0,1-.049-.074l-.076-.018.009-.025c-.033-.018-.04-.036-.068-.055,0-.018-.022-.01-.024-.027-.022,0-.023-.028-.046-.026l0,.01-.048-.025.005-.01c-.019-.012-.026.006-.029.006l-.012,0,0-.014c-.023,0-.046,0-.065,0l0-.012-.015,0a.144.144,0,0,0-.016.024l-.013-.006,0-.01-.051-.011,0-.012c-.03-.016-.051,0-.065,0v-.012l-.06-.016,0-.009c-.038-.006-.078-.012-.117-.016l0,.01a.09.09,0,0,1-.07-.029v-.012c-.026-.016-.072.008-.092.006v-.014a.036.036,0,0,0-.041,0c-.021,0-.022-.018-.022-.018a.018.018,0,0,0-.026.006c-.013,0-.031-.035-.061-.027l0,.014c-.069-.022-.053-.047-.1-.077l0-.009c-.01-.008-.068.015-.083.017-.008-.023,0-.019-.031-.033l0-.023-.063-.014s0-.016-.02-.018a.029.029,0,0,1-.03.006l0-.014h-.011l0,.011-.062-.013a.158.158,0,0,1-.016.019c-.054-.008-.1.012-.157.006a.233.233,0,0,1-.093.1l0,.012-.039-.008,0,.025-.024-.008-.007.026a.088.088,0,0,0-.075.033,1.243,1.243,0,0,0-.122-.039.022.022,0,0,1-.027.006v-.012l-.07-.031,0,.025a.786.786,0,0,0-.1-.049c.008-.013.016-.029.024-.045s-.018-.008-.007-.025m4.952,1.816a.05.05,0,0,0,.017.031v.012l-.025-.006a.35.35,0,0,1-.037.053c-.058,0-.116-.008-.17-.01a.058.058,0,0,0-.018.02l-.038-.008,0,.012c-.024-.01-.048-.022-.072-.031l-.018.023-.063-.016,0,.014-.011,0c-.018-.043-.032-.033-.051-.062-.006-.014-.011-.032-.018-.045l-.076-.028a.331.331,0,0,0-.013-.041l-.044,0,0-.011h-.051l0-.011-.061-.016,0-.011-.077-.018.005-.012a.157.157,0,0,0-.048-.035l.006-.025a.075.075,0,0,0-.021-.018c-.013-.051.028-.072.026-.109l-.014-.006.01-.047-.015,0c0-.02.02-.018.021-.021l.007-.037-.014-.005,0-.009.015,0,.026-.11c.034,0,.057.006.093.008,0,0,0,.024.015.029.062-.019.076.024.128.032l0-.014.011,0,0,.012.064.017c.006,0,0,.024.019.029a.123.123,0,0,1,.019-.021l.014,0,0,.012.037,0,0,.012.05.009,0-.009.038.007,0-.011h.011c.011.006-.009.024.019.032a.245.245,0,0,0,.018-.024l.012,0,0,.014a.032.032,0,0,0,.028-.006c.022,0,.022.016.022.016l.115.013,0-.011.038.009,0-.013c.012.008.022.015.033.021a.028.028,0,0,0,.028-.006c.018,0,0,0,.012.016s.025-.008.025-.008c.033,0,.032.02.049.026s0-.02.026-.01l0,.015a.337.337,0,0,1,.062.026c0,.043,0,.086,0,.125-.016.008-.03.011-.043.017l-.006.026-.014,0c-.05.066,0,.183-.11.189m-3.392-1.088-.025-.006-.005.024-.027-.006c-.009.022-.018.047-.027.07h-.013l-.028.121-.044.013-.005.026a.447.447,0,0,0-.088.095l-.025-.005-.009.037a.243.243,0,0,0-.1.062l-.1-.008,0,.012-.175-.041,0-.012-.025-.006,0-.011-.039-.01,0-.012c-.038-.023-.088,0-.114-.011l0-.014-.038-.01,0-.012-.025-.006,0-.011c-.044-.028-.091-.018-.109-.037a.23.23,0,0,0-.031-.032.372.372,0,0,1,.037-.16l.011-.047.012,0a.132.132,0,0,0,.036-.045l.025.008.01-.051.015,0,0-.013c0-.006-.032-.008-.019-.041h.014c.011-.023.019-.044.031-.07l.042-.013.006-.026.012,0c.014-.025,0-.031,0-.039a.241.241,0,0,0,.024-.045l.121-.012a.351.351,0,0,1,.034.024l0-.014.059.026.017-.02.148.043c.072.012.221.02.241.047l.164.035a.241.241,0,0,0,.029.045l-.007.025-.012,0c-.006.041-.01.082-.015.125m4.241,1.59c-.005.018-.023.016-.025.045,0,.006.016.008.008.027l-.012,0-.011.039-.012,0c0,.015.017.021,0,.048h-.014l-.014.058.013,0c-.007.018-.016.035-.023.049l.021,0,0,.006-.012,0v0l0,0,0,.011v0l-.008.045-.013,0-.011.065h-.007l0,0,0,.013h0a.066.066,0,0,0,0,.024l-.022.008,0,.017a.022.022,0,0,0,.009.008l0,.027-.013,0-.017.111-.029.008a.033.033,0,0,0,.01.039.106.106,0,0,0-.018.035l.013,0c0,.027-.017.023-.017.023l-.012.061-.027.008c0,.013.021.025.008.05-.01,0-.021.006-.029.01s.005.026.007.039l-.014,0,0,.026h-.012c0,.015,0,.031,0,.05l-.013,0c-.008.013-.037.021-.031.046h.012l0,.028-.025-.006c0,.041.01.041-.009.06l-.029.01c0,.02,0,.043.005.065l-.015,0c-.013.012-.006.009-.015.009v.005l-.009,0c0,.019,0,.007.008.023-.014.023-.024.047-.04.07l.014.014h-.012c-.007.01-.013.021-.02.033l-.013,0,0,.008-.011,0v0a.362.362,0,0,0,.006.037l-.027.008,0,.012c0,.007,0,.017,0,.027l-.008,0,0,.025-.027.012-.011.021h.006a.141.141,0,0,1,.01.029l-.024-.006,0,.01,0,0a.118.118,0,0,1-.016.021.145.145,0,0,0-.019.037l.017,0-.023.018a.264.264,0,0,1-.024.062l-.013,0-.009.037-.025.006c-.011.028-.023.053-.033.082h-.014l-.041.068c-.043.039-.021.041-.068.109l-.057.069a.113.113,0,0,1-.036.039l-.013,0,0,.025a.16.16,0,0,0-.029.006l-.007.035-.011,0c-.025.018-.039.022-.053.053a.1.1,0,0,0-.024,0l0,.006c-.037.023-.059.068-.1.09l0,.025-.027.008,0,.013-.041.006,0,.026.013,0c0,.009-.012.021-.018.033l-.025,0-.006.025-.064,0,0,.026c-.052.041-.116.095-.169.138l-.025-.006a.144.144,0,0,0-.016.024c-.058.017-.054-.031-.084.037l-.023,0-.008.035-.025,0c-.014.03-.008.024-.032.036v.009a.049.049,0,0,0-.05-.006c-.042.037-.08.067-.12.1-.013.006-.021-.027-.049-.019a.2.2,0,0,0-.017.023l-.042.018,0,.011-.024,0,0,.012a.1.1,0,0,1-.055.016l0,.025c-.053.016-.1.012-.126.068l-.027,0-.005.023c-.035,0-.075.043-.095.012l-.005.005-.024,0,0,.025a.126.126,0,0,0-.1.01.376.376,0,0,1-.018.035l-.079-.012,0,.025c-.042,0-.089,0-.143,0a.072.072,0,0,0-.017.023l-.021,0v.014l-.055-.01,0,.012-.02,0-.019.021-.028,0v.012a.278.278,0,0,1-.118-.029l0,0-.006,0,0,.007h-.017l0,0,0,0,0,.01c-.02,0-.021-.011-.022-.015h-.005a.371.371,0,0,0-.049,0v.013l-.038-.008,0,.014-.017,0,0-.025-.027-.018a.207.207,0,0,1-.035.031l-.086-.019,0,.011-.051-.011,0,.011-.073-.017,0,.012-.053-.012,0,.012c-.015-.006-.032-.016-.048-.024l0,.012-.075-.016,0-.011-.01,0-.019.019-.01-.016-.015,0,0,.013-.087-.019,0,.012c-.024-.01-.048-.02-.072-.032v.012l-.013,0,0-.01-.035-.021,0-.014c-.036-.016-.05.029-.092.006a.162.162,0,0,1-.005-.029.192.192,0,0,1-.1-.022l0-.013-.088-.018,0,.012c-.019-.01-.038-.018-.057-.026l0,.012-.012,0-.018-.043a.75.75,0,0,1-.1,0l0-.012-.035-.021,0-.012-.038-.008,0-.013c-.016-.006-.029-.016-.046-.024,0,0-.008.016-.028.008l0-.016-.024-.005,0-.012a.244.244,0,0,1-.127-.014v-.014l-.025,0-.007-.027-.024-.006,0-.013-.049-.012,0-.01-.026-.006-.007-.029c-.042-.018-.087-.035-.132-.055l.006-.025-.076-.018-.005-.039c-.013-.023-.044-.031-.081-.045l.005-.023-.025-.006.008-.035c-.028.019-.051-.031-.081-.045l.006-.025-.025-.006c0-.061-.05-.076-.094-.112l.006-.023a.12.12,0,0,1-.046-.035l0-.012-.025-.006,0-.013a.138.138,0,0,1-.029-.034l-.008-.023c-.026-.02-.043.006-.054,0-.025-.045-.051-.088-.077-.131a.044.044,0,0,0-.048-.012l0-.013c-.017-.018-.015-.01-.016-.041l-.025-.006.008-.039-.026-.006c0-.078-.017-.029-.062-.068l-.007-.028-.026,0c-.031-.058-.061-.117-.09-.175l0-.024c-.02-.01-.039-.016-.059-.025l0-.026-.023-.005a.291.291,0,0,1,0-.04l.01,0,.007-.023a.313.313,0,0,0-.036-.02l0-.015a.249.249,0,0,1-.022-.016l.006-.023c-.027-.037-.055-.073-.083-.11l.006-.023-.012,0a.147.147,0,0,1,.017-.02l-.071-.093a.638.638,0,0,0,0-.077c-.015-.015-.027-.031-.041-.046l.006-.026a.162.162,0,0,1-.022-.017.283.283,0,0,1,.021-.034l-.022-.017.005-.025-.032-.034c.007-.011.014-.019.02-.029l-.021-.022.006-.025c-.013-.013-.029-.029-.042-.045l.011-.051-.032-.031.014-.06-.012,0c-.009-.022-.018-.039-.027-.059l.026.006c0-.043-.02-.037-.021-.082l-.024-.006.017-.021.011,0,0-.013-.031-.033.015-.063-.023-.018a.245.245,0,0,0,.02-.035l-.02-.017a.267.267,0,0,1,0-.039l-.013,0,.015-.01c0-.025-.007-.051-.008-.078.015-.012,0,0,.018-.022-.023-.011-.011,0-.022-.017l-.013,0c.008-.02.018-.039.026-.059l-.023-.017c-.01-.03,0-.024.015-.063l-.026,0,.008-.027.01,0c.015-.022-.008-.037-.014-.053l-.012,0c.008-.017.015-.031.024-.047l-.014,0,.008-.025-.015,0,.022-.033a.2.2,0,0,0-.023-.02c0-.029.024-.033.024-.045l-.023-.017.013-.063s-.016,0-.007-.025l.014,0a.218.218,0,0,1,0-.039.032.032,0,0,0,.021-.034l-.023-.017.027-.109-.014,0,.008-.024s.019,0,.016-.021a.136.136,0,0,1-.022-.02c.007-.008.013-.019.022-.031l-.013,0,.012-.06-.011,0,.013-.063-.011,0c-.007-.09.068-.2.068-.244l-.012,0c.006-.016.024-.016.024-.045l-.013,0,0-.013a.018.018,0,0,0,.018-.02s-.013,0-.006-.027c.006-.008.013-.016.018-.024l-.012,0c0-.029.021-.027.023-.043l0-.015-.013,0,.021-.034s-.015-.005-.006-.027c0,0,.013,0,.016-.021a.024.024,0,0,1-.006-.028l.013,0c.012-.041.027-.08.038-.119l.027.006,0-.012-.014,0c.011-.017.016-.039.027-.056a.02.02,0,0,1-.007-.028l.013,0,0-.014h-.013l0-.012.013,0c.017-.033.011-.028.045-.028l0-.013.05.025,0-.025.041,0,0-.014c.027.016.055.031.082.045l0-.023a.149.149,0,0,0,.054,0l0,.011.052.012,0,.012.012,0-.01.037.014,0a.238.238,0,0,1-.092.055c0,.015.013.025,0,.05l-.014,0,0,.012.026.018-.015.062a.1.1,0,0,0,.021.016l-.022.045a1.147,1.147,0,0,0,.071.093.293.293,0,0,1-.028.047l.017,0c.013.039.034.045.028.1a.3.3,0,0,0,.087.019c.01.018.028.024.031.034l-.005.023c0,.01.015.012.019.029.023,0,.046,0,.066,0l-.005.026.035.019,0,.016c.013,0,.035-.022.055,0l0,.014c.018.017.016.009.017.039l.024.008.008.025c.032.006.067.008.1.012l-.005.011.015-.01c.046.016.089.032.135.045v.012l.023.006,0,.012a.287.287,0,0,1,.113.025l0,.014.055,0a.1.1,0,0,0,0,.029l.053,0,0,.016c.019,0,.027-.016.057,0a.031.031,0,0,0,.03.021l.005-.013.013,0a.268.268,0,0,0,.008.029.813.813,0,0,1,.1.01.177.177,0,0,1,.021-.024l.047.024,0-.012c.025,0,.043-.012.067-.006l0,.012.039,0v.013a.109.109,0,0,0,.046.022c.029-.049.065-.01.1-.059l.025.006a.383.383,0,0,1,.044-.091l.015,0,.005-.023.011,0c.008-.012.015-.025.021-.035.047,0,.037-.018.086-.018.008-.023.018-.049.027-.07l.012,0c0-.014,0-.026,0-.037h.013l.012-.047a.1.1,0,0,0,.032-.018c.035,0,.072-.007.109-.013.02.009.041.017.06.027l0-.016.037.01,0-.01c.055-.005.048.032.091-.005.054.015.041.017.071.04l0,.014-.025-.008c0,.02,0,.037,0,.053a.019.019,0,0,0-.016.021.024.024,0,0,1,.005.028l-.011,0-.038.168.009,0c0,.027,0,.053,0,.078l.026,0-.016.062c.053.075.1.155.157.233l.015-.01.148.057c.005.015.01.029.016.043a.027.027,0,0,0,.039,0,.329.329,0,0,1,.032.033l0-.012.15.033c.005,0,.007-.015.027-.005v.011c.04.006.083.012.126.016l.018-.022a.446.446,0,0,0,.053,0,.182.182,0,0,1,.017-.021l.025,0a.4.4,0,0,1,.025-.035l.055-.026.015-.06c.056-.006.018-.006.048-.03.008-.007-.018-.041,0-.041.007-.015,0-.039.007-.054a.318.318,0,0,1-.033-.02l0-.014c-.087-.019-.071-.007-.154-.025a.137.137,0,0,0-.008-.029.544.544,0,0,0-.171-.041l0,.013c-.031-.009-.056-.023-.085-.033l0-.01-.014,0,.024-.11.031,0c.036-.053,0-.109.058-.142a.175.175,0,0,1,.017-.02l.064.014,0,.012h.013c.008,0,0-.017.04,0l0,.011c.014.006.027-.017.053,0a.384.384,0,0,1,.016.041c.022,0,.043,0,.066,0l0,.012.1.012a.22.22,0,0,1,.021-.022c.026,0,.042.025.056.025l0-.011.051.011a.209.209,0,0,0,.02-.021l.072.018,0-.012a.265.265,0,0,0,.062.025l.086.022V653.2l.016,0,0,.012c.04.006.078.009.114.013a.107.107,0,0,0,.032.047l-.015.061.012,0c0,.013-.03.013-.023.045l.021.017-.011.049c0,.012.016,0,.018.043l.023.006a.182.182,0,0,0,.006.025l.014,0,0-.011.078.017,0,.012.109.023,0,.014.028.006,0,.013c.022.008.037.016.06.026l0,.014c.03.015.041,0,.051,0l.043.072c.018.017.033-.008.049,0l0,.014.026.005,0,.014c.013.006,0,0,.012-.012.032.008.025.022.025.022l.061.012a.246.246,0,0,1,.011.027l.024,0c0,.011,0,.019,0,.027l.027.008,0,.012.013,0,0-.014.036.021a.044.044,0,0,1,.066-.009l0,.011.024.006c.013.024.006.008.019.033a.126.126,0,0,0,.062.024.046.046,0,0,1,.055.037c.027,0,.05.012.077.008.021.011.038.047.083.043l0-.012.025.006v-.014l.053.014.019-.022.035.008,0-.013c.033.013.063.025.1.037l0-.012a.143.143,0,0,1,.055-.014l.006-.023a.283.283,0,0,0,.04,0l0-.012.025.006,0-.012a.4.4,0,0,1,.048.022c.037-.065.059-.018.088-.043l.006-.022.038.008,0-.011-.012,0c.012-.014.022-.012.028-.018l.008-.025c.02-.008.038-.018.057-.026l.009-.037.012,0c.007-.016.016-.029.025-.045a.714.714,0,0,1,.089-.041l0-.014c.006,0,.1,0,.106,0s0,.017.022.017c0,0,.008-.016.026-.006s-.008.016.009.014a.176.176,0,0,1,.033-.018.148.148,0,0,0,.005.041c.026,0,.052,0,.079,0l0-.012c.019,0,.01.026.017.032a.04.04,0,0,0,.042,0l.073.029c-.006.039-.009.084-.016.123-.005.008-.013.014-.018.022a.029.029,0,0,1,0,.039l-.012,0-.014.06Zm-1.725-1.908.1.024,0,.011.045.01,0,.014c.03.011.072-.016.109.011.006,0,0,.018.026.032l0,.025s.04-.014.058,0l0,.012c.012.013.023.029.04.046.015-.007.044-.037.07-.021a.13.13,0,0,0,.008.027l.044.024c.02-.022.025-.016.041-.043a.2.2,0,0,1,.1.023l0,.01.026.006.008.029a.231.231,0,0,1,.038,0l0,.014.027.006,0,.012c.018.007.024-.008.028-.008l.063.013,0,.012.064,0,0,.012c.021,0,.027-.014.056,0l0,.012.012,0a.037.037,0,0,1,.041,0l0,.011.013,0a.119.119,0,0,1,.038,0v.01l.012,0,.041,0,0,.012c.02.005.032,0,.052,0s.019-.008.053.007c.034-.013.051.008.08-.005a.1.1,0,0,0,.017-.02l.025,0,.005-.01.077,0,0-.013.024.007a.07.07,0,0,1,.03-.017l.008-.037-.012,0a.206.206,0,0,0,.02-.036h-.011c.008-.05.02-.064-.021-.083l-.037-.008c0-.018-.009-.036-.014-.055-.025-.021-.041.006-.053,0l0-.012-.024-.006a.1.1,0,0,0-.008-.027c-.038-.025-.111.008-.133,0l0-.012-.022-.005a.284.284,0,0,1-.016-.043l-.043,0,0-.01-.038-.01a.061.061,0,0,0-.018-.029l-.005.023-.065-.013s0-.018-.018-.02l-.005.014-.036-.01-.005.013c-.02-.007-.038-.019-.058-.027l-.005.012-.085-.018.008.014,0,.012a.085.085,0,0,0-.047-.024l-.006.024-.013,0a.192.192,0,0,0-.005-.026.258.258,0,0,0-.041.006l0-.013a.167.167,0,0,0-.035-.022v.014l-.052-.014,0,.014c-.043-.006-.017-.035-.058-.041l0,.013-.011,0,0-.012-.227-.053.005-.014c-.055-.019-.161.043-.207-.019a.109.109,0,0,0-.053,0c-.017.041-.04.094-.082.105l-.014.063c.009.035.067.039.108.062Zm-3.476-1.018c.007.049.045.03.005.092.027.024.027.045.065.065l0,.011c.015.012.011-.019.029-.017l.007.027c.022.01.055-.01.1.008l0,.012.077.006,0,.011.05.012a.18.18,0,0,0,.007.025l.025.006,0,.014c.081.014.161.027.241.043,0,.008.027.008.028.018.039.031.034.015.07.017l.035.022,0-.012.024.006c.016,0,.015-.031.044-.018a.068.068,0,0,0,.03.024c.007-.008.012.007.019,0,.042,0,.084,0,.129.005a.22.22,0,0,1,.037.022v-.012l.039.006v-.012l.05.012c.01-.006.013-.014.02-.02a.134.134,0,0,1,.093-.005l.007-.035.014,0,0-.012.024.017v-.011c.025-.006.02,0,.033-.032.028,0,.01.006.028-.005l.013,0,.012-.048a.193.193,0,0,0,.027-.008l-.011-.014a.316.316,0,0,0,.022-.033.131.131,0,0,1-.025-.057l-.024-.019c-.007,0-.012.019-.042,0l.005-.012-.027-.006,0-.012c-.015-.01,0,0-.015.01s-.02-.02-.02-.02l-.063-.013c0-.01-.005-.018-.008-.027a.021.021,0,0,0-.029.007.024.024,0,0,1-.021-.019l-.012,0,0,.012c-.039-.014-.078-.028-.121-.04l0,.01a.493.493,0,0,0-.053,0l0,.012-.039-.01,0,.012c-.053,0-.031-.045-.082-.047l0,.016-.049-.012a.168.168,0,0,0-.017.021c-.05-.017-.1-.033-.149-.047l0-.013-.013,0,0,.012-.037-.006,0,.012c-.032,0-.03-.024-.048-.026l0,.014c-.036-.014-.072-.028-.109-.039l0,.011h-.014l0-.014-.023-.006,0-.012c-.028,0-.055,0-.082.006a.131.131,0,0,0-.095-.047l0,.012-.025-.006,0,.014c-.031,0-.031-.02-.047-.024l0,.012c-.027.008-.035.027-.061.037,0,.016.017.026,0,.051l-.013,0,0,.014.023.017c-.007.012-.016.024-.022.033" fill="#0070c3"/>
    <path id="Path_1922" data-name="Path 1922" d="M137.51,657.9l.016-.019c.016,0,0,0,.008.015a.515.515,0,0,1,.094.01l.006.024.013,0v-.011l.071.016,0,.011c.025,0,.047,0,.071,0l.007.025a.378.378,0,0,0,.047,0,.233.233,0,0,1,.015.042c.018.011.024-.006.024-.006a.216.216,0,0,1,.093.033c0,.08.024.025.071.064l0,.012.037.043c0,.024,0,.049,0,.072l.009,0c-.005.016-.022.014-.021.045l.01,0,0,.012s-.012,0-.016.019l.006.024s-.017,0-.016.023a.03.03,0,0,1,0,.035l-.011,0,0,.012.011,0-.022.041a.032.032,0,0,1,0,.037l-.011,0,.014.037h-.01l-.013.057-.012,0v.012l.01,0,0,.011-.009,0-.011.047-.011,0,0,.037-.012,0-.008.033-.012,0-.012.057-.013,0,0,.011.012,0,0,.012-.027.006.009.014,0,.011-.011,0-.012.047-.011,0-.005.022-.11.015,0,.01-.023,0,0,.012c-.016,0-.02-.018-.02-.018-.018,0-.024.014-.051,0,0,0,0-.017-.021-.017l0,.011a.223.223,0,0,1-.043-.023l0,.014-.117-.018,0-.01c-.035-.017-.074,0-.092-.009l0-.01-.038,0,0-.012-.031-.017-.015.019-.011-.014-.056-.015,0-.01h-.048c-.008,0,0-.027-.021-.027l0,.023c-.01-.008-.021-.014-.031-.021l-.006-.024-.058-.014,0-.013c-.045-.047-.006-.031-.016-.09a.14.14,0,0,0-.022-.016c0-.017.006,0,.015-.01l.038-.16-.012,0,.02-.079s.013,0,.015-.021a.017.017,0,0,1,0-.024.024.024,0,0,0,.016-.023l-.013,0,.011-.045-.01,0a.017.017,0,0,1,.016-.019c.008-.022-.007-.026-.007-.026,0-.029.016-.027.023-.043l-.022-.017a1.017,1.017,0,0,1,.039-.17l.013,0c.009-.016.015-.028.022-.043l.012,0a.094.094,0,0,0,.031-.043l.094.023a.418.418,0,0,0,.044-.039l.13.018,0,.011Z" fill="#ffec00"/>
    <path id="Path_1923" data-name="Path 1923" d="M138.606,661.492l-.005-.025.011,0a.08.08,0,0,1-.016-.02.072.072,0,0,0,.018-.017c-.006-.008-.012-.02-.019-.029l.021,0c0-.018-.008.005-.013-.008,0-.033-.008-.067-.014-.1l-.026,0a.239.239,0,0,0,.015-.039.218.218,0,0,0-.041-.014l0-.05-.009,0-.014-.055-.03-.006c0-.014.018-.025,0-.049a.092.092,0,0,0-.023,0l-.014-.045-.01,0a.763.763,0,0,1-.013-.1l-.012,0-.019-.057-.011,0c-.006-.014.011,0,.007-.014s-.012-.019-.012-.019l-.021-.066-.03-.01c0-.018.013-.014.018-.028s-.023-.013-.024-.015l0-.047-.029-.008c-.013-.025-.017-.049-.03-.076l.013,0,0-.012-.014,0-.019-.058-.007,0c-.013-.022.006-.038,0-.047a.118.118,0,0,0-.028-.006c0-.018,0-.034,0-.049a.127.127,0,0,0-.022-.006v-.01l.007-.006-.02-.082-.015,0,0-.021-.01,0a.277.277,0,0,0,0-.037.188.188,0,0,1-.031-.018l.025-.006c-.024-.037-.034-.021-.052-.058l.021-.006,0-.012a.088.088,0,0,1-.046-.025c.006-.01.027-.012.016-.03l-.024-.006a.232.232,0,0,1,0-.046l-.023,0a1.269,1.269,0,0,1-.058-.117l-.01,0c-.011-.019,0-.025,0-.027l-.009-.033-.011,0,0-.014s.017-.006.005-.025a.1.1,0,0,0-.025,0c0-.012,0-.026,0-.038l-.011,0,0-.012.011,0-.017-.02s.014-.007,0-.027c0,0-.015,0-.016-.018l.009,0c0-.021-.014-.015-.017-.019l-.014-.055-.012,0-.006-.023-.013,0c-.006-.016.014,0,.01-.016s-.016-.02-.016-.02l-.02-.068-.011,0-.012-.045-.01,0-.006-.021-.012,0-.014-.043h-.01c0-.013,0-.025,0-.037l-.009,0-.026-.043.025-.005,0-.012a.084.084,0,0,1-.031-.012l.013,0,0-.006-.015-.029c0-.014-.019-.01-.02-.025l-.023-.008,0-.012a.147.147,0,0,0-.024.006v0l0,.014,0-.008c-.011-.008-.023-.014-.035-.022l0,.026c-.016,0-.015-.024-.043-.024l0,.012c-.04,0-.064-.029-.09-.031l0,.011a.3.3,0,0,0-.044-.023l0,.012a.155.155,0,0,0-.03-.02l0,.012-.1-.025,0,.011c-.021,0-.017-.015-.02-.017a.18.18,0,0,0-.07,0,.021.021,0,0,0-.022-.016l0,.012c-.036-.006-.07-.008-.1-.012l-.017.01v0l0,.008-.005,0,0,0a.144.144,0,0,0-.027.023l-.009-.008-.023.028-.009-.008-.009.01.01.007c-.035.03-.064.059-.1.09l-.009-.007-.015.017-.009-.008-.023.026-.01-.006-.022.025-.009-.006-.008.008s.007.018-.007.026l-.009-.008-.014.017-.009-.008c-.024.024-.047.043-.07.065l-.01-.008c-.014.012.006.025,0,.033l-.009.01-.01-.008-.02.028c-.01,0-.017,0-.027-.008l-.013.033-.009,0-.016.016-.008-.008-.023.025-.01-.007-.023.027-.009-.008-.061.055-.008-.008c-.006.012-.01.023-.015.033l-.01-.008-.031.037c-.013.012-.005-.011-.017,0l.01.006-.054.049-.01-.01-.014.035a.1.1,0,0,1-.025-.007l-.094.093-.009-.008-.041.047-.008-.007-.039.042-.008-.005-.04.043-.009-.008-.044.053-.009-.008a.253.253,0,0,0-.014.035l-.009-.008-.038.045-.008-.008-.048.055-.009-.008-.032.037-.009-.01-.043.053-.01-.006-.006.006v.02l-.01-.008-.017.015-.008-.007-.137.144-.012-.008-.021.026-.009-.008c0,.012-.008.023-.013.033l-.009-.008-.031.04-.009-.008-.047.054-.008-.009-.031.035-.009-.008-.009.01,0,.017-.008-.009c-.037.041-.079.078-.118.117l-.009-.008-.03.037-.008-.008a.16.16,0,0,0-.015.035l-.009-.01-.023.028-.01-.008a.434.434,0,0,1-.022.043l-.007-.008L135,660.8l-.011-.008-.021.025-.011-.007a.015.015,0,0,0,0,.023c-.016.014,0,.023-.018.035.032.018-.017.025-.011.035-.013.016.006.026,0,.039l.03.035-.023.006h.023c.008,0-.008.012,0,.014l.011.01c-.007.088.045.086.063.15l-.007.043.053.053,0,.025.012,0c0,.018-.022.018-.006.047s.042.045.065.066c.006.02-.011.018-.016.022a.439.439,0,0,1,.027.053l.036,0c0,.011-.011.023-.016.035l.012,0c.012.013,0,0,.021.013.01.082.061.129.067.223.048.02.035.047.084.068,0,.016,0,.034.006.049l.013,0a.342.342,0,0,0-.018.033l.012,0c.016.028.033.038.039.076l-.025,0c.022.029.04.06.06.091h0a.018.018,0,0,0,.005.02.184.184,0,0,0-.01.025l.006.008a.185.185,0,0,1-.008.028l.033.013c0,.078.033.088.059.123a.026.026,0,0,0-.008.026l.012,0,0,.023.008.01v.013l.027.026.005.013.018,0,0,.006v.028h.008c0,.015-.017.019,0,.048l.063.069c.01.019-.008.017-.013.019.01.02.021.033.032.051l.035,0-.016.035.012,0c.012.014,0,0,.023.014.011.082.063.125.073.219.05.019.038.047.088.066,0,.016.005.033.008.047l.012,0q-.008.018-.015.033l.011,0c.016.029.033.037.041.072h-.024l.066.088h.011c0,.016-.012.033-.016.049.025.027.051.051.075.074a.322.322,0,0,1-.014.033l.029.024-.02,0,.008.012c-.008.011.005.029,0,.039l.03.029c.014.035-.015.023-.013.053l.013,0-.008.027c.011.01.019.024.029.033s.019.028.022.039l.022,0,0,.02c.014.008.029.011.042.019l0,.012.1.022,0,.013.022.006V663.7a.459.459,0,0,1,.056-.019l.024-.024.011,0,.006-.027.012,0,.009-.039a.133.133,0,0,0,.027-.008l.006-.021.036-.01.006-.02.01,0,.009-.039.012,0,.008-.025.011.006.009-.034a.123.123,0,0,1,.027,0l.006-.022a.292.292,0,0,0,.042-.01l.031-.068.027-.006.04-.057.026-.007.008-.024.01,0,.008-.023.039-.012.01-.035c.028-.03.048-.016.072-.075l.021.006.028-.052c.069,0,.016-.012.053-.045a.306.306,0,0,1,.051-.01c.008-.02.018-.037.028-.057l.01,0v-.035l.02.006.022-.029.012,0,.009-.038.011.006a.076.076,0,0,0,0-.027l.022.006.005-.018a.113.113,0,0,0,.026,0c.034-.025.021-.051.075-.049.015-.021.03-.043.045-.062l.019.008a.1.1,0,0,1,.038-.039l.011,0,.01-.035c.017-.005.034-.013.056-.019l.008-.022h0v0a.1.1,0,0,0,.024,0c.015-.029.029-.056.045-.085h0v0l0-.008.029,0,0-.02.008,0,0,0,0-.006c0-.005.008-.017.011-.021l.009,0a.121.121,0,0,0,0-.019l.006-.016.013,0c0-.01,0-.008,0-.006l.016,0c.016-.019.03-.041.046-.06l.022-.006.005-.026.01,0,.005-.023.047-.012.009-.033c.022-.035.041-.02.068-.08l.024.006.023-.053c.074,0,.01-.016.051-.047a.239.239,0,0,0,.048-.012c.008-.017.019-.033.027-.052l.013,0,0-.04.026.008.023-.031.006,0,.009-.033.011,0a.139.139,0,0,1-.006-.024l.023.006,0-.012a.132.132,0,0,1,.028,0c.03-.03.022-.055.073-.055l.042-.061.02,0a.2.2,0,0,1,.04-.043l.011,0,.01-.031a.5.5,0,0,1,.053-.022l.006-.023c.009,0,.019,0,.026,0l.05-.1c.008,0,.016,0,.027-.006l.006-.021.012,0-.006-.023,0,0,.022,0v0l.028-.01.007-.006" fill="#ffec00"/>
    <path id="Path_1924" data-name="Path 1924" d="M136.3,657.047l-.028-.172-.163-.42-.087-.139,0-.072.047-.021.067.005.3.278.11.391.032.39-.035.156-.058.137-.088.2-.171-.047-.329.315.115.365.241.314.4.4.37.385.377.326.3.185.422.2.7.162.808.129.748-.028,1.047-.1.792-.43.84-.7s.366-.578.373-.612.39-.64.39-.64l.1-.061.079.018.091.144-.008.184-.164.451-.65.912-.589.568-.538.336-.775.247-.94.084-.98-.028-.721-.158-.647-.25-.795-.365-.648-.455-.376-.471-.312-.5-.337-.389.133-.177.358-.479Z" fill="#fff" fill-rule="evenodd"/>
    <path id="Path_1925" data-name="Path 1925" d="M135.818,656.313l.276.2.125.539-.03.344-.047.313-2.256,1.793-1.118.838-.888.393-.684-.057-.862-.217-.335-.211-.548-.264-.575-.859-.214-.463-.155-.41.006-.752.046-.6.473-1.125.534-.562.884-.455,1.2-.078.21.006.408.145,1.191.586.806.307,1.533.59" fill="#ffec00" fill-rule="evenodd"/>
    <path id="Path_1926" data-name="Path 1926" d="M138.69,655.066l.054.012a3.439,3.439,0,0,1-.1.563.114.114,0,0,1-.028-.008l-.054.24c-.03,0-.058,0-.087.008,0,0,.022.1,0,.139l-.033.017a.989.989,0,0,0-.282.133.207.207,0,0,0-.125-.059.074.074,0,0,1-.086.01.081.081,0,0,1,.005-.027c-.034-.01-.069-.016-.105-.024a.343.343,0,0,1-.2-.353,1.2,1.2,0,0,1,.077-.569l.026.008c.01-.045.02-.09.03-.133a.059.059,0,0,1,.026.006c.006-.027.012-.054.02-.08a.157.157,0,0,1,.026.006c0-.017.007-.037.012-.055a.156.156,0,0,0,.026.008c.009-.037.017-.07.024-.107a.2.2,0,0,0,.027.008l.024-.106a.117.117,0,0,1,.027.006c.028-.041.028-.066.052-.1a.579.579,0,0,0,.183-.07c.137.057.309.129.432.184a.5.5,0,0,1,.032.343m-.4-.343-.113.254c-.021,0-.041.009-.062.013,0,.026-.011.053-.018.08a.11.11,0,0,0-.026-.007c0,.029,0,.058.009.085l-.026-.005a.327.327,0,0,0-.013.052c-.02,0-.039.01-.059.016-.006.064-.01.125-.016.189l-.027-.005c-.009.035-.015.072-.024.1l.026.008c-.018.078-.036.158-.055.238l.026.006c0,.047,0,.092-.005.139.048.041.038.052.121.084.038-.026,0-.012.061-.014a1.191,1.191,0,0,0,.285-.635c.017-.078.036-.156.055-.236-.011-.115-.021-.229-.034-.342-.034-.01-.07-.018-.1-.025" fill="#0070c3" fill-rule="evenodd"/>
    <path id="Path_1927" data-name="Path 1927" d="M138.69,655.066l.054.012a3.439,3.439,0,0,1-.1.563.114.114,0,0,1-.028-.008l-.054.24c-.03,0-.058,0-.087.008,0,0,.022.1,0,.139l-.033.017a.989.989,0,0,0-.282.133.207.207,0,0,0-.125-.059.074.074,0,0,1-.086.01.081.081,0,0,1,.005-.027c-.034-.01-.069-.016-.105-.024a.343.343,0,0,1-.2-.353,1.2,1.2,0,0,1,.077-.569l.026.008c.01-.045.02-.09.03-.133a.059.059,0,0,1,.026.006c.006-.027.012-.054.02-.08a.157.157,0,0,1,.026.006c0-.017.007-.037.012-.055a.156.156,0,0,0,.026.008c.009-.037.017-.07.024-.107a.2.2,0,0,0,.027.008l.024-.106a.117.117,0,0,1,.027.006c.028-.041.028-.066.052-.1a.579.579,0,0,0,.183-.07c.137.057.309.129.432.184A.5.5,0,0,1,138.69,655.066Zm-.4-.343-.113.254c-.021,0-.041.009-.062.013,0,.026-.011.053-.018.08a.11.11,0,0,0-.026-.007c0,.029,0,.058.009.085l-.026-.005a.327.327,0,0,0-.013.052c-.02,0-.039.01-.059.016-.006.064-.01.125-.016.189l-.027-.005c-.009.035-.015.072-.024.1l.026.008c-.018.078-.036.158-.055.238l.026.006c0,.047,0,.092-.005.139.048.041.038.052.121.084.038-.026,0-.012.061-.014a1.191,1.191,0,0,0,.285-.635c.017-.078.036-.156.055-.236-.011-.115-.021-.229-.034-.342C138.366,654.738,138.33,654.73,138.295,654.723Z" fill="none" stroke="#0062af" stroke-width="0.043"/>
    <path id="Path_1928" data-name="Path 1928" d="M136.175,656.188c0,.089.134.14.181.209a.676.676,0,0,1,.1.238,5.591,5.591,0,0,1,.128.556.759.759,0,0,1-.192.569c-.1.148.114.144.228.144a2.164,2.164,0,0,0,.387-.019.515.515,0,0,0,.241-.168.827.827,0,0,0,.2-.25.954.954,0,0,0-.03-.735,1.168,1.168,0,0,0-.388-.539.636.636,0,0,0-.509-.213c-.147.028-.253.151-.376.221" fill="#ffec00"/>
    <path id="Path_1929" data-name="Path 1929" d="M135.623,656.156c0-.054.009-.053-.03-.082.033-.062.14-.019.222,0,0,.008,0,.016-.005.024l.117.027c.118-.08.234-.158.351-.24l.093.021a.637.637,0,0,1,.415.022l0,.023c.1.033.2.065.3.094,0,.018-.009.031-.012.047a.9.9,0,0,1,.158.062c0,.016-.007.032-.011.047l.066.041c.008.026.02.053.03.08l.046.012-.005.023a.323.323,0,0,1,.047.01l.013.053a.4.4,0,0,0,.137.154c-.014.117.028.08.032.18l.048.012c-.007.062-.014.129-.021.191.014.014.029.025.041.035l-.038.066a.105.105,0,0,1,.023.005c-.01.046-.022.093-.033.14l.023.006c-.015.061-.029.125-.043.187l-.052.012a.13.13,0,0,0-.005.024.047.047,0,0,0,.023.006c-.031.091-.058.183-.088.275-.15.051-.206.248-.4.228l-.01.047-.175.01-.005.023c-.048-.009-.093-.021-.14-.033a.1.1,0,0,0,0,.024l-.142-.034a.21.21,0,0,0-.006.024c-.048,0-.027-.02-.041-.033l-.021,0c0,.006,0,.015-.007.021-.07-.023-.138-.047-.206-.072l.006-.023a.357.357,0,0,1-.047-.012l.006-.024-.123,0c-.051.1-.127.09-.171.208a.09.09,0,0,0,.023,0c0,.01,0,.018-.005.026l-.006.021.024.006c.015.037.008.047,0,.1l.048.011a.248.248,0,0,0-.011.047.445.445,0,0,1,.045.012c0,.117.063.131.068.236a.268.268,0,0,1,.1.1.209.209,0,0,0-.006.024l.089.044c.009.028.02.055.031.082l.07.016c0,.016.009.035.013.053.028.013.058.031.087.045a.331.331,0,0,1-.012.045l.089.046-.01.047a.258.258,0,0,1,.1.1l-.007.024.219.123c.015.045.028.089.044.134.037.018.073.034.112.051l.012.051.129.08c0,.059,0,.045.031.082.108.064.217.131.323.2,0,.018.009.035.015.053.037.016.073.033.11.051a.1.1,0,0,1-.006.023.335.335,0,0,1,.048.012l0,.021c.076.018.155.038.235.055,0,.008,0,.016-.006.023.03.008.061.016.093.022a.129.129,0,0,1-.006.025c.029.01.047-.029.1,0l-.005.025c.119.025.234.053.351.08.039.01.079.018.118.027a.087.087,0,0,0,0-.025.061.061,0,0,0,.023.006c0,.008,0,.017,0,.023a.762.762,0,0,0,.092.022l.006-.022.539.123.005-.021.117.025a.126.126,0,0,0,.006-.023c.086.021.173.039.258.06a.124.124,0,0,0,.005-.025c.04.01.077.019.117.027l.007-.023.116.029c0-.01.005-.017.005-.023a.55.55,0,0,1,.071.015.1.1,0,0,1,0-.023l.1.021a.113.113,0,0,1,.006-.023l.145.008,0-.024a.227.227,0,0,0,.048.012l.007-.023c.07.017.139.033.209.048l.006-.023.047.012,0-.026.1.024a.1.1,0,0,1,0-.024l.047.01a.087.087,0,0,1,.006-.023l.067.015a.1.1,0,0,0,.007-.021.407.407,0,0,0,.048.01l.005-.024c.04,0,.082,0,.123,0a.07.07,0,0,1,.006-.024c.047,0,.1.008.145.01a.374.374,0,0,0,.033-.043l.071.018.034-.041a.59.59,0,0,0,.071.013c.011-.011.022-.025.034-.038.032,0,.067,0,.1,0a.3.3,0,0,1,.011-.047c.014,0,.03.005.046.011.079-.072.167-.025.229-.144l.1,0a.352.352,0,0,1,.184-.156.1.1,0,0,1,0-.024l.047.012.039-.067a.136.136,0,0,0,.023.006c.022-.017.043-.039.064-.058l.046.012c.014-.022.026-.043.04-.067l.077-.006,0-.023a.549.549,0,0,0,.219-.2.238.238,0,0,1,.046.011c.016-.058.02-.084.05-.111l.025,0c0-.016.007-.029.01-.045.018-.006.036-.01.052-.014l.013-.047c.017,0,.033-.009.051-.013.025-.043.052-.086.079-.129l.052-.014c.022-.051.042-.1.061-.156a.1.1,0,0,1,.024.006l.044-.09a.455.455,0,0,0,.053-.014l.011-.045c.008,0,.017,0,.023,0,.005-.023.011-.045.017-.068a.041.041,0,0,1,.022.006c.007-.026.012-.049.018-.071a.1.1,0,0,1,.023,0c.007-.031.014-.06.022-.093l.022.005c.011-.039.018-.078.029-.117l.023,0c0-.021.011-.045.016-.068.008,0,.015,0,.023,0,.006-.022.012-.047.017-.071a.048.048,0,0,0,.022.006.717.717,0,0,0,.016-.07l.024.006c.01-.041.019-.078.028-.117a.174.174,0,0,0,.023,0l.017-.068.022.006c.005-.016.009-.031.013-.049a.107.107,0,0,0,.022.006c.042-.113.085-.227.128-.34l.168.014c0,.008,0,.017,0,.023a.839.839,0,0,0,.093.022.056.056,0,0,1,0,.023c.031.016.059.031.09.045l-.006.026c.015,0,.03.007.046.009l0,.024c.031.013,0-.006.029-.018l.063.039a.629.629,0,0,1-.015.071c.061.031.05.019.054.085l.024.006c-.017.112-.036.223-.052.334a.1.1,0,0,0-.024,0c-.019.043-.037.088-.056.133l.023.006c-.032.068-.064.133-.1.2l-.051.012c0,.016-.007.031-.01.047a.1.1,0,0,0-.024,0c-.009.037-.018.076-.026.115l-.024-.006c-.005.026-.012.049-.017.072-.008,0-.015-.005-.022-.005-.017.062-.031.125-.044.187l-.052.012q-.018.07-.033.141l-.053.011c-.018.039-.033.076-.049.114l-.054.011c-.014.029-.029.059-.045.088l-.052.012c0,.017-.008.033-.011.049l-.08.029a.4.4,0,0,1-.012.047.757.757,0,0,1-.081.031c-.012.022-.026.043-.04.065-.013,0-.031-.006-.046-.01-.034.076-.077.1-.114.172l-.047-.012c-.033.064-.044.07-.114.072-.008.031-.015.063-.022.094-.083.031-.02.035-.069.08-.025,0-.051.008-.076.01l0,.023-.083.029a.358.358,0,0,1-.011.047c-.036.018-.074.034-.11.049,0,.016-.007.034-.009.049l-.023-.008-.065.061c-.033,0-.065,0-.1,0-.03.025-.06.05-.091.078l-.047-.012-.064.059a.337.337,0,0,0-.046-.008c-.022.018-.042.037-.063.057l-.123,0a.1.1,0,0,1-.007.023.275.275,0,0,0-.047-.01c-.009.014-.023.028-.033.041-.031,0-.065,0-.1,0-.01.014-.022.028-.034.043a.343.343,0,0,0-.048-.013c-.01.013-.021.029-.033.043-.015-.006-.031-.008-.046-.014l-.034.043c-.023-.006-.047-.012-.07-.016l-.008.024c-.015,0-.029-.006-.046-.012a.071.071,0,0,1-.005.023l-.048-.009-.032.041c-.026,0-.051,0-.077.008l-.005.023c-.022-.014-.045-.027-.065-.041a.411.411,0,0,1-.011.047l-.227.023c-.024-.008-.046-.011-.071-.017a.533.533,0,0,0-.033.043c-.03-.01-.063-.016-.094-.024,0,.008,0,.016-.006.024l-.07-.016a.123.123,0,0,0-.005.021c-.024,0-.048-.009-.07-.013a.078.078,0,0,0-.006.023.63.63,0,0,0-.07-.015l-.006.021c-.08,0-.163,0-.244-.008a.12.12,0,0,0-.005.026c-.039-.01-.079-.02-.117-.028-.123.008-.294-.006-.421,0l-.257-.058a2.88,2.88,0,0,1-.615-.118l-.259-.058a.208.208,0,0,0,.006-.024c-.053-.031-.093,0-.122,0a.172.172,0,0,1,0-.026c-.056-.011-.109-.023-.165-.037l.007-.023c-.039-.008-.08-.018-.118-.028a.188.188,0,0,0,.005-.023l-.257-.059.006-.023c-.032-.006-.063-.016-.094-.022a.154.154,0,0,1,.006-.023l-.025-.006-.075.006a.21.21,0,0,0,0-.021,1.431,1.431,0,0,0-.134-.057l0-.024-.116-.027.007-.023-.119-.028a.063.063,0,0,0,.005-.023.693.693,0,0,1-.069-.016.079.079,0,0,1,0-.023c-.032-.008-.062-.016-.093-.022l.005-.023-.093-.022a.085.085,0,0,0,.005-.023c-.024-.006-.046-.012-.07-.016a.114.114,0,0,1,.006-.025c-.033-.006-.063-.016-.1-.022l-.013-.052-.218-.123-.012-.053-.048-.012.007-.023c-.053-.02-.105-.039-.158-.061l.005-.023a.216.216,0,0,0-.083-.069c.005-.015.007-.031.011-.047l-.1-.021c0-.019-.008-.035-.012-.051a.419.419,0,0,0-.07-.015c-.005-.02-.009-.038-.013-.055l-.046-.012c-.01-.025-.02-.052-.03-.082-.015-.01-.026-.019-.041-.031s0-.051-.009-.076l-.046-.012-.012-.053-.072-.015c-.04-.077-.08-.151-.121-.227a.4.4,0,0,1-.045-.01l-.037-.056c0-.016.009-.034.012-.047-.037-.051-.076-.1-.115-.15-.015-.005-.031-.006-.046-.01l.006-.024a.355.355,0,0,0-.12-.127c0-.07.006-.054-.052-.086a.312.312,0,0,1,.009-.046l-.066-.042,0,.024c-.092.027-.085.056-.15.115-.027.01-.054.018-.081.029,0,.016-.008.032-.011.047l-.052.012a.263.263,0,0,0-.01.047c-.029.012-.055.021-.082.031-.016.03-.029.059-.044.088-.065.025-.128.055-.192.08,0,.016-.008.031-.011.047-.026.01-.053.02-.081.029l-.017.071-.023-.006c-.006.025-.01.049-.016.072l-.053.012a.514.514,0,0,0-.165.185.278.278,0,0,0-.048-.011c-.063.123-.218.154-.285.277a.364.364,0,0,1-.047-.01c-.021.02-.043.039-.064.061l-.023-.006-.011.047-.052.011-.01.047-.024-.006c-.069.075-.094.147-.207.149,0,.018-.008.033-.011.049a.357.357,0,0,1-.047-.012c-.032.063-.019.051-.087.057-.014.019-.026.041-.04.062-.007,0-.014,0-.024,0,0,.016-.006.029-.009.045l-.052.012c-.007.023-.013.049-.018.072l-.051.012c0,.015-.006.031-.011.047l-.024-.006c-.039.027-.02.029-.081.031a.4.4,0,0,1-.306.153c-.016.037-.035.074-.051.111l-.047-.012c0,.016-.008.031-.01.045-.1.008-.029.014-.087.057a.081.081,0,0,1-.022-.006l-.008.023-.149.014c-.028.055-.019.041-.064.06a.17.17,0,0,0-.005.026c-.057-.006-.114-.014-.17-.018-.006.033-.014.065-.022.094-.025,0-.051.006-.076.008a.44.44,0,0,1-.034.041c-.033,0-.066,0-.1,0a.121.121,0,0,0-.005.023c-.042,0-.083,0-.124,0a.381.381,0,0,1-.034.043l-.069-.017c-.012.015-.024.027-.035.043-.047-.012-.094-.024-.142-.033a.076.076,0,0,0,0,.023c-.018,0-.033-.008-.049-.01l-.006.024c-.124-.03-.251-.061-.373-.088a.082.082,0,0,0-.006.021l-.07-.015-.007.023-.7-.184a.129.129,0,0,0,.006-.025c-.039-.008-.079-.016-.118-.027,0-.008,0-.014.006-.024l-.07-.015,0-.024a.461.461,0,0,1-.046-.012l.006-.023-.23-.076.005-.024c-.022-.006-.046-.011-.07-.015l.006-.024-.141-.033a.078.078,0,0,1,.007-.023l-.142-.034c0-.007,0-.015.006-.023-.041-.008-.079-.017-.117-.027l.005-.024c-.047-.009-.093-.021-.141-.031a.037.037,0,0,1,.006-.023l-.048-.012a.143.143,0,0,0,.006-.024c-.031-.007-.063-.013-.092-.021a.209.209,0,0,0,0-.023c-.042-.036-.125-.067-.147-.108,0-.025,0-.051-.007-.078-.061-.072-.108-.021-.113-.148-.071-.036-.043-.047-.13-.079,0-.033,0-.066,0-.1-.1-.045-.108-.1-.19-.143.005-.023.01-.047.017-.07-.111-.061-.05-.076-.086-.168l-.076-.092a.328.328,0,0,1,.01-.045c-.028-.025-.055-.047-.082-.07,0-.016.007-.033.011-.047l-.024-.006c0-.016.007-.031.012-.047l-.043-.033.011-.047-.059-.064c0-.024-.005-.049-.007-.076l-.065-.039c0-.024.01-.047.015-.069a.444.444,0,0,0-.041-.035c0-.016.007-.031.012-.047l-.023-.006q0-.05,0-.1l-.024-.006.017-.069a.1.1,0,0,0-.024-.007c0-.014.007-.03.01-.045a.459.459,0,0,0-.04-.035c-.005-.049-.01-.1-.014-.151l-.024-.006c.008-.064.014-.129.02-.193a.035.035,0,0,0,.034-.041c-.019-.022-.04-.043-.059-.063,0-.015.006-.031.011-.046l-.024-.008c.025-.069.048-.135.071-.2l-.022-.006c.005-.024.01-.045.016-.071l-.024-.005c.021-.092.043-.188.067-.282a.119.119,0,0,0-.024,0c.017-.037.034-.076.049-.113l-.022,0c.021-.1.042-.189.063-.281a.062.062,0,0,1-.006-.076l.024.006c.017-.045.037-.09.056-.137a.39.39,0,0,1-.047-.01c.013-.023.026-.045.039-.064l.025.006a.467.467,0,0,1,.011-.047.1.1,0,0,1,.022.006c.039-.063.012-.124.014-.172l.042.035.006-.024.023.006c.013-.054.027-.109.038-.164a.094.094,0,0,1,.023.006c0-.016.008-.031.012-.047l.021,0c.012-.047.023-.094.034-.141l.024.006c.013-.027.03-.058.045-.088l.023.006c.019-.045.039-.089.057-.134.006,0,.014,0,.022.005.015-.031.03-.06.046-.09l.022.006c.008-.031.016-.062.023-.093l.024.005c.027-.043.052-.085.078-.128l.048.009c.027-.08.045-.064.078-.129a.331.331,0,0,1,.047.01.407.407,0,0,1,.161-.158l.053-.012c0-.019.007-.033.011-.048a.48.48,0,0,0,.051-.014.1.1,0,0,0,.005-.024l.048.012a.33.33,0,0,1,.183-.156c0-.008,0-.016.006-.024l.069.018.006-.024a.3.3,0,0,1,.048.012.1.1,0,0,1,.005-.025l.047.012a.094.094,0,0,0,.005-.024.181.181,0,0,1,.1-.025c.05-.086.013-.03.087-.055a.128.128,0,0,0,.006-.023c.015,0,.032.009.047.011l.006-.023a.346.346,0,0,0,.044.01.115.115,0,0,0,.006-.022l.076-.008a.385.385,0,0,0,.035-.043c.023.008.048.012.071.018.011-.014.021-.027.034-.041.074,0,.149,0,.221,0a.07.07,0,0,0,.006-.024.2.2,0,0,0,.047.012l0-.023c.04.01.079.019.119.027l.005-.023c.023,0,.045.012.07.015,0-.008.005-.015.006-.023.046.012.091.021.139.033,0-.008,0-.015.006-.023l.142.031a.091.091,0,0,1,.005-.021l.069.015a.078.078,0,0,0,.005-.023c.023.006.048.011.071.015l0-.023c.1.006.2.011.293.019a.156.156,0,0,1,.006-.023.532.532,0,0,1,.227.076l.005-.023.025.005c0,.008,0,.016-.006.024.046.012.094.021.14.033l0,.024.052-.014a.139.139,0,0,0,0,.023l.093.022a.1.1,0,0,1-.005.023l.119.028-.007.023.07.018-.006.023.046.01a.036.036,0,0,1-.005.023c.032.008.064.016.1.022a.121.121,0,0,0-.005.023l.046.012-.005.021c.044.02.089.039.134.057a.14.14,0,0,1-.006.024c.109.035.217.066.323.1l-.006.022c.033.007.064.013.1.021a.184.184,0,0,0-.006.025l.1.02-.007.025.047.01a.208.208,0,0,1-.005.024l.07.017,0,.022c.068.025.136.048.206.072,0,.008,0,.016-.006.023.069.018.139.034.211.051a.181.181,0,0,1-.006.022c.071.015.139.033.212.048a.163.163,0,0,0-.007.026c.07.014.141.031.211.047l-.005.023.117.027-.005.026c.107.031.214.064.322.1a.052.052,0,0,1-.006.023.454.454,0,0,0,.048.01l0,.023c.046.012.092.022.138.033a.1.1,0,0,1,0,.024l.165.037a.157.157,0,0,1,0,.023c.092.022.187.045.28.065a.94.94,0,0,0,.411.146m-5.307-1.277c0,.016-.006.031-.01.047-.025,0-.05,0-.076.008-.01.013-.023.027-.035.041a.339.339,0,0,0-.046-.01.107.107,0,0,0-.005.021c-.042.026-.035.006-.063.061-.084,0-.1.029-.181.031-.038.072-.1.094-.155.137a.084.084,0,0,1-.022,0c-.005.014-.007.029-.012.047l-.052.012a.378.378,0,0,0-.01.046l-.081.032a.217.217,0,0,0-.01.047l-.055.011c0,.016-.007.032-.009.047-.039.016-.074.031-.111.049a.266.266,0,0,1-.011.047l-.051.011c-.035.042-.052.139-.091.178l-.052.012-.01.047-.024-.006c-.022.053-.041.107-.062.16l-.053.012c-.005.023-.01.047-.014.07l-.024-.006c-.033.1-.062.2-.1.3l-.021,0c-.006.022-.013.047-.018.071a.086.086,0,0,0-.023-.006c-.015.062-.027.123-.042.187a.123.123,0,0,0-.024,0c-.008.039-.019.077-.027.115l-.023-.005c-.018.072-.033.142-.05.211l-.024,0c-.008.078-.019.158-.031.238l.024.006c-.016.068-.032.141-.047.211a.077.077,0,0,0,.022,0c-.01.047-.021.094-.034.14a.182.182,0,0,0,.025.006c-.011.047-.021.094-.033.141l.025.006c-.007.031-.015.062-.023.093l.024.006c-.011.045-.022.094-.034.141a.109.109,0,0,1,.025.006c-.006.023-.012.045-.017.07a.084.084,0,0,1,.024.006c-.006.021-.011.045-.016.068a.123.123,0,0,1,.024.006c-.005.057-.01.113-.016.17a.114.114,0,0,0,.023,0c0,.018-.006.031-.01.047l.023.006c-.005.023-.012.047-.015.07.019.021.038.043.059.065l-.011.044c.014.014.028.024.042.036,0,.033,0,.066,0,.1.027.031.053.065.078.094,0,.031,0,.066,0,.1.021.019.039.041.06.062a.408.408,0,0,1-.012.047l.043.033c0,.018-.008.031-.012.047.027.031.052.061.077.094l-.009.047c.012.009.026.023.04.033,0,.016-.007.031-.011.047l.024.006a.183.183,0,0,1,.025.1c.08.041.107.123.155.184,0,.007-.005.015-.006.023.017,0,.032.01.047.012.01.027.022.054.031.08a.676.676,0,0,0,.189.144c0,.016-.008.03-.012.047l.025,0c0,.01,0,.016,0,.026s.014,0,.024,0l.023.006.047.11.047.009,0,.026.046.01L129.6,660l.07.016-.005.021c.021.008.047.012.07.018,0,.008-.005.014-.006.023.047.01.094.022.142.031l-.007.024c.064.016.127.029.189.045l-.007.025c.033.006.063.012.1.02a.2.2,0,0,0-.006.023c.031.008.063.014.094.02,0,.01,0,.017,0,.025l.117.028-.007.023c.023.006.047.01.071.015a.14.14,0,0,1-.006.024c.067.029.219-.031.317.023a.212.212,0,0,0-.006.024c.031.008.063.014.094.023l-.005.022c.092.021.187.045.28.064a2.154,2.154,0,0,0,.767.1.1.1,0,0,0,0-.024c.034,0,.066,0,.1,0l0-.025.047.014a.5.5,0,0,1,.035-.041l.048.009.06-.058a.47.47,0,0,0,.048.01l.12-.094a.348.348,0,0,0,.047.009l.034-.04a.267.267,0,0,1,.047.011l.006-.023a.261.261,0,0,1,.134-.045c.005-.023.012-.047.017-.07l.021.005c.034-.019,0-.007.054-.013a.272.272,0,0,1,.1-.1.117.117,0,0,0,.025,0c.015-.027.029-.059.044-.086l.053-.013a.354.354,0,0,1,.01-.047.1.1,0,0,0,.024.005c.006-.031.014-.062.022-.093l.052-.014c.015-.021.027-.043.04-.064l.022.005c.046-.095.094-.193.143-.289l.022.006a.29.29,0,0,1,.011-.047l.023.006.094-.3c.008,0,.015,0,.023,0,.008-.031.016-.06.021-.091l.025.005a2.05,2.05,0,0,0,.11-.592c.021-.044.038-.089.058-.134l-.024-.006c.032-.1.063-.2.095-.3l-.024,0c.01-.039.018-.078.026-.117l-.023-.006c.006-.023.01-.047.017-.07l-.024,0c.006-.023.01-.049.015-.072l-.022,0c.017-.078.037-.157.054-.237a.156.156,0,0,1-.04-.033c.011-.086.023-.175.035-.263a.119.119,0,0,1-.024,0c-.005-.051-.01-.1-.013-.153a.17.17,0,0,1-.025-.005c.008-.032.015-.063.024-.092a.128.128,0,0,1-.026-.008c0-.049-.008-.1-.013-.15l-.024,0c.006-.026.011-.049.017-.073a.092.092,0,0,1-.024,0c0-.015.008-.031.011-.046l-.023-.006a.451.451,0,0,1,.016-.071l-.077-.091c.005-.024.01-.047.016-.071-.021-.091-.076-.138-.063-.261-.054-.032-.036-.02-.06-.063l-.024-.006a.4.4,0,0,0,.011-.047l-.023-.006c.005-.023.011-.046.016-.07a.411.411,0,0,1-.04-.033c0-.025-.006-.051-.008-.076l-.023-.006c0-.041,0-.082,0-.123-.027-.03-.052-.061-.078-.092,0-.014.007-.031.01-.047a.518.518,0,0,0-.043-.033c.007-.023.012-.047.018-.07a.186.186,0,0,0-.12-.125c0-.018.008-.033.012-.049l-.064-.039,0-.024a.25.25,0,0,0-.046-.009.122.122,0,0,0,.006-.026c-.068-.031-.135-.064-.2-.1a.215.215,0,0,0,.007-.023c-.016,0-.033-.008-.047-.01l.006-.023c-.045-.02-.09-.037-.136-.055a.09.09,0,0,1,.007-.023c-.063-.024-.123-.047-.183-.067-.005-.019-.01-.035-.014-.054-.022,0-.046-.012-.07-.016l.006-.024c-.039-.007-.077-.017-.117-.027l.006-.023-.025-.006c-.015,0-.009.035-.052.012l.006-.022c-.137-.049-.274-.1-.412-.144a.106.106,0,0,1-.005.023.46.46,0,0,1-.046-.012.539.539,0,0,1-.034.043l-.14-.033-.006.026c-.038-.012-.077-.02-.117-.03a.136.136,0,0,1-.007.024c-.023-.006-.047-.012-.071-.016l0,.023-.07-.017-.005.023-.043-.033,0,.024c-.1-.016-.191-.028-.286-.043-.011.015-.024.029-.036.043l-.076.005a.13.13,0,0,1,0,.024c-.075,0-.148,0-.223,0-.02.021-.042.041-.063.06a.663.663,0,0,1-.071-.017.461.461,0,0,1-.034.043l-.123,0m5.951,1.375.111.051a.392.392,0,0,0,.015.052c.029.008.061.016.091.022a.114.114,0,0,1,0,.023c.022.014.044.026.067.039,0,.026,0,.051,0,.079a.19.19,0,0,1,.024,0l-.012.049a.108.108,0,0,1,.025,0c-.005.016-.008.031-.012.047.02.022.04.041.06.062-.005.024-.01.047-.016.071l.041.035c0,.047-.006.1-.008.147a.2.2,0,0,1,.04.033c0,.023-.01.047-.016.07a.1.1,0,0,1,.023.006c0,.033,0,.066,0,.1l.024,0c0,.049-.006.1-.01.147l.024.006a.765.765,0,0,1-.173.427c-.035.022,0,.01-.053.014,0,.014-.007.029-.01.045a.608.608,0,0,0,.291.02l.034-.041c.023.005.047.009.07.015.032-.025.062-.051.092-.078l.024.006c0-.014.006-.031.011-.047l.08-.031a.23.23,0,0,0,.011-.047.11.11,0,0,0,.025.006.364.364,0,0,0,.1-.2,1.079,1.079,0,0,0,.067-.5c-.079-.4-.152-.739-.693-.852-.045.033-.05.008-.1.026l-.005.023-.047-.012-.007.024-.167.084c-.005.023-.011.046-.016.07m-2.9-.672c.06.033.05.018.054.088l.046.01c0,.015-.008.031-.011.048a.407.407,0,0,1,.048.01.2.2,0,0,0,.024.106.054.054,0,0,1,.024.006.435.435,0,0,1-.012.045l.043.035c0,.05.009.1.015.15.012.012.026.023.04.035a.247.247,0,0,1-.011.047c.016.01.027.022.043.033,0,.033,0,.067,0,.1.014.012.027.021.041.035,0,.051.01.1.015.15a.338.338,0,0,0,.042.034l.012.154a.48.48,0,0,1,.043.033c0,.031,0,.065,0,.1l.025,0c0,.052.008.1.014.154l.024.006c-.01.031-.016.06-.023.092l.023.005c0,.034,0,.067,0,.1l.023.006c0,.049-.007.1-.009.144l.041.036c-.013.088-.024.176-.037.263l.024,0c-.007.065-.013.131-.02.194l.024.006c-.005.023-.012.046-.018.07a.045.045,0,0,1,.024.006c-.015.1-.029.205-.047.31a.109.109,0,0,0,.024,0c-.009.039-.017.08-.026.117a.092.092,0,0,0,.022.006c-.018.076-.036.158-.054.234l.024.006c-.015.063-.029.125-.043.188a.053.053,0,0,0-.024-.006c-.058.217-.118.434-.175.652l-.023-.007c-.006.025-.011.047-.017.07-.018,0-.036.01-.05.012-.01.033.018,0,.015.029a.415.415,0,0,1-.059.16c.022,0,.046.012.069.016,0-.008,0-.014.006-.024.063-.029.017-.009.062-.06a.164.164,0,0,1,.024.007c0-.023.011-.048.017-.072l.051-.011a.543.543,0,0,0,.131-.143l.048.01c.053-.059.121-.084.161-.16.016.005.031.007.047.011.052-.1.143-.1.194-.2l.046.012c.065-.194.278-.234.362-.385a.435.435,0,0,1,.046.01.633.633,0,0,1,.166-.182c.027-.012.054-.021.082-.031,0-.018.007-.031.01-.049l.08-.029.013-.049.05-.012.007-.023.051-.012c0-.015.008-.031.012-.047.047-.021.091-.045.139-.066,0-.016.007-.031.011-.047a.48.48,0,0,1,.051-.014c0-.013.008-.029.011-.045l.081-.031a.471.471,0,0,1,.012-.047c.025-.01.054-.019.081-.031,0-.016.007-.029.011-.045l.254-.14.01-.045.024,0c.03-.023.026-.04.061-.058.049-.17.1-.342.145-.51a4.694,4.694,0,0,0-.073-.535c-.024-.006-.048-.012-.071-.016-.005-.052-.011-.1-.015-.152-.1-.025-.2-.049-.3-.07a.063.063,0,0,1-.076.006l.006-.024a.391.391,0,0,0-.047-.01l.006-.023-.118-.028.005-.023-.07-.015.005-.026c-.055-.012-.109-.023-.163-.037l.005-.024-.023-.005-.007.023a.127.127,0,0,1-.022-.006.1.1,0,0,1,.006-.021.329.329,0,0,1-.047-.012.22.22,0,0,0,0-.023c-.032,0-.065.025-.121,0a.11.11,0,0,1,.007-.024.058.058,0,0,1-.026-.006c-.031.014,0,.034-.029.02l.006-.024c-.063-.015-.126-.031-.189-.044l-.012-.051c-.026,0-.049,0-.075.008l.005-.024c-.076-.027-.153-.052-.228-.08a.2.2,0,0,1,.006-.023l-.236-.053c0-.008,0-.016.006-.023l-.069-.016.006-.024c-.043,0-.083,0-.124-.005,0-.006,0-.014,0-.024-.1-.021-.2-.045-.3-.068-.115-.065-.29-.119-.4-.192,0,.016-.007.032-.009.045.019.034.008.006.012.053m10.577,2.5c-.051.15-.146.129-.193.3l-.071-.018a.952.952,0,0,1-.123.317c-.014.064-.028.127-.043.187a.092.092,0,0,0-.023,0,.446.446,0,0,0-.01.047l-.052.012c-.019.039-.034.076-.051.111a.455.455,0,0,0-.053.014c-.03.066-.064.133-.1.2a1.18,1.18,0,0,0-.11.047c-.017.037-.034.074-.052.111l-.022-.006c-.057.045-.069.04-.1.125a.228.228,0,0,1-.045-.011c-.007.031-.015.064-.021.093-.048.018-.139.047-.1.1l-.07-.016c-.034.075-.071.079-.108.147a.477.477,0,0,0-.047-.01c-.022.02-.043.039-.065.061a.187.187,0,0,0-.022-.008c-.005.023-.011.047-.017.07-.06.063-.136.008-.2.127l-.076.008c-.005.023-.012.047-.016.07-.033,0-.066,0-.1,0-.046.092-.093.076-.175.11l-.064.058-.068-.016-.011.047a1.789,1.789,0,0,0-.261.063c-.005.018-.007.031-.012.047a.211.211,0,0,0-.152.013l0,.026c-.024-.006-.047-.012-.072-.016,0,.006,0,.014,0,.022-.013-.012-.028-.024-.041-.034l-.01.047-.152.014c0,.006,0,.016,0,.024-.04-.008-.08-.02-.119-.028a.349.349,0,0,1-.034.041l-.187-.041,0,.022c-.025,0-.048-.01-.073-.016-.01.014-.021.027-.033.041-.048-.012-.094-.022-.139-.031l-.006.023c-.024-.008-.048-.011-.072-.017l0,.023a.453.453,0,0,0-.048-.01.11.11,0,0,0,0,.024c-.024-.008-.046-.012-.071-.018l-.034.041c-.032-.006-.062-.014-.092-.021,0,.009,0,.017-.007.023s-.031-.008-.046-.01l-.007.024c-.076-.018-.155-.037-.233-.053l-.005.022-.071-.016,0,.023-.328-.076a.12.12,0,0,1-.005.022l-.1-.02,0,.024-.281-.065c-.007,0-.014.029-.053.014a.163.163,0,0,1,.007-.026l-.306-.07a.1.1,0,0,0,0,.023l-.357-.058.006-.022a.52.52,0,0,0-.078.008l.007-.025-.048-.012.005-.023c-.027-.012-.047.031-.1,0l.005-.024-.117-.025,0-.026c-.053-.011-.108-.023-.161-.037a.089.089,0,0,1,0-.023.334.334,0,0,0-.045-.01.063.063,0,0,1,.006-.023l-.1-.024a.361.361,0,0,1-.012-.05c-.055-.012-.108-.026-.165-.04a.115.115,0,0,0,.005-.023c-.042-.025-.085-.053-.128-.08l0-.023a.42.42,0,0,1-.046-.01.071.071,0,0,1,.006-.024c-.023-.006-.048-.01-.071-.015a.21.21,0,0,0,.006-.024.271.271,0,0,0-.048-.009c0-.01.005-.018.006-.026a.391.391,0,0,1-.047-.01c0-.019-.008-.035-.012-.052-.038-.018-.074-.036-.112-.051l-.013-.053a.437.437,0,0,1-.047-.01c0-.008,0-.015.006-.025-.032,0-.061-.014-.1-.02l-.012-.052-.046-.012c-.01-.026-.019-.053-.03-.08-.038-.02-.075-.035-.113-.051l-.012-.053a.365.365,0,0,1-.047-.011l-.012-.051c-.017,0-.032-.008-.047-.01-.017-.037-.032-.074-.05-.111a.384.384,0,0,1-.045-.012l-.012-.053c-.031-.013-.06-.029-.09-.043-.01-.027-.021-.054-.03-.082a.367.367,0,0,0-.048-.009l-.012-.053-.047-.012-.012-.053a.407.407,0,0,1-.069-.015.2.2,0,0,1,0-.024l-.046-.011-.03-.08c-.083-.075-.114.023-.119-.125-.085-.045-.058-.088-.143-.133l-.006.023.132.178c0,.019.008.035.014.052l.046.012.157.283a.35.35,0,0,1,.046.01c0,.028,0,.051.008.076.021.014.043.026.064.039,0,.018.008.038.013.053a.361.361,0,0,0,.147.11c0,.013-.006.029-.009.047.056.068.115.14.17.21.012.03.022.055.034.082.021,0,.046.012.069.016l-.006.024.047.011-.006.024.136.054c.011.028.02.055.031.082.03.006.063.016.093.022a.1.1,0,0,0-.006.023.367.367,0,0,1,.047.012.155.155,0,0,1-.006.023l.136.055,0,.024c.029.015.058.031.087.045a.156.156,0,0,0-.006.023l.07.018-.005.023.229.076a.156.156,0,0,1-.006.023c.031.006.063.016.1.022l-.008.023c.024.006.048.012.072.016a.158.158,0,0,0-.006.026l.1.021a.087.087,0,0,0-.006.023l.141.034-.008.021c.057.014.11.027.165.039l-.005.024.235.054-.007.024c.064.013.126.029.188.043l-.005.023c.1.031.2.063.3.092l.007-.022c.007,0,.016,0,.023,0,.194.047.39.09.585.137l.006-.023c.072.015.141.033.21.049a.109.109,0,0,1,.007-.024c.038.01.078.018.118.025a.1.1,0,0,1,0-.021l.187.043a.068.068,0,0,0,.005-.023l.071.015.006-.021c.039.007.077.015.117.025l0-.024c.023.005.047.012.071.016a.059.059,0,0,1,.005-.023c.023.006.047.01.07.015a.051.051,0,0,0,0-.021c.017,0,.033.008.049.01a.209.209,0,0,1,.006-.024l.367.012a.155.155,0,0,1,.006-.023l.047.011.006-.023a.526.526,0,0,0,.068.015.156.156,0,0,0,.006-.023c.05-.006.1-.01.152-.014l.005-.025a.459.459,0,0,0,.047.012.085.085,0,0,0,0-.024l.124,0,.034-.041.071.016a.1.1,0,0,1,.005-.024l.046.012a.29.29,0,0,1,.036-.043l.15-.014a.547.547,0,0,0,.035-.043.185.185,0,0,0,.046.012.087.087,0,0,0,.006-.023l.047.011.057-.035a.344.344,0,0,1,.047.01c.022-.02.042-.039.063-.061a.387.387,0,0,0,.046.012c0-.008,0-.016.006-.023l.077-.006a.53.53,0,0,1,.034-.043l.047.012.062-.059a.407.407,0,0,1,.048.01c.012-.014.022-.028.034-.043.065-.032.129-.067.195-.1l.012-.047c.035-.015.074-.031.11-.048,0-.016.007-.032.01-.045a.513.513,0,0,1,.052-.014.69.69,0,0,0,.254-.236l.047.009c.03-.025.06-.05.09-.078l.026.006c0-.023.01-.049.015-.07l.052-.012c.027-.045.052-.088.079-.131l.054-.011c.014-.03.029-.059.044-.09l.052-.012a.266.266,0,0,0,.011-.047.5.5,0,0,1,.052-.014c.017-.037.033-.072.05-.111l.023.006.012-.045a.1.1,0,0,1,.024,0c.005-.024.01-.047.016-.07l.024.006c0-.024.01-.047.015-.071.1-.139.219-.318.308-.471.014-.064.028-.125.044-.189l.022.006.011-.047a.1.1,0,0,1,.024.006c.011-.047.02-.094.032-.141a.087.087,0,0,0,.022,0c.017-.037-.012-.043-.012-.051.01-.046.022-.093.032-.14-.023,0-.045-.012-.069-.016m-7.622-1.615-.047-.012c0-.068,0-.055-.056-.086l.007-.023-.093-.024a.149.149,0,0,0-.005.026c.024.029.051.06.076.092s-.014.107.059.062c-.007.029-.014.063-.022.094l.018.029a.076.076,0,0,1,.024.006c0-.008,0-.018.006-.024l.061.063c.005-.023.008-.049.014-.07a.145.145,0,0,1-.042-.133m.059.383a.34.34,0,0,1,.046.011c-.014-.031,0,0-.018-.029,0-.025-.005-.051-.007-.076l-.023-.006c-.005.016-.008.031-.012.047.02.033.011,0,.014.053m.055.086c0,.06,0,.044.029.082a.178.178,0,0,0-.029-.082m.019.129c-.024.142-.051.285-.074.427a.119.119,0,0,1,.024,0c-.021.053-.042.108-.063.16l.024,0a.132.132,0,0,1,.006-.023.108.108,0,0,0,.024.006c.006-.032.014-.063.021-.094l.023.006c.008-.039.017-.078.026-.118a.087.087,0,0,0,.006-.023l.023.006c0-.108,0-.215,0-.322-.015-.01-.029-.024-.041-.033m-.744,1.185c.1.033.087.078.143.133l-.008-.078a.049.049,0,0,1-.023-.006c-.022-.1.055-.069-.073-.115a.761.761,0,0,1-.039.066" fill="#0070c3" fill-rule="evenodd"/>
  </g>
</svg>
