<svg xmlns="http://www.w3.org/2000/svg" width="18.182" height="19.869" viewBox="0 0 18.182 19.869">
  <g id="Group_206" data-name="Group 206" transform="translate(-454.642 -648.101)">
    <path id="Path_1936" data-name="Path 1936" d="M459.775,652.854a3.983,3.983,0,1,1,3.182,4.647,3.985,3.985,0,0,1-3.182-4.647" fill="#fff"/>
    <path id="Path_1937" data-name="Path 1937" d="M469.4,663.548c.01-.018-.005-.02,0-.026l.037-.195-.014,0v-.014l.016,0c.005-.027-.008-.033-.005-.05l.01,0,.007-.034-.011,0a.132.132,0,0,1,.016-.021.166.166,0,0,0,0-.039l.012,0,.006-.033-.013,0c.007-.012.012-.022.021-.036h-.014a.093.093,0,0,1,.018-.021l0-.035h-.01l0-.012h.01c.007-.019-.006-.023-.006-.023a.266.266,0,0,1,.021-.045l-.012,0,.012-.07h.013a.351.351,0,0,1,0-.048l.009,0V662.8s.017,0,.02-.03l-.015,0a.272.272,0,0,0,.019-.034s-.017,0-.007-.023c0,0,.017,0,.017-.022,0,0-.014-.011,0-.039,0-.013.008.01.011-.007a.059.059,0,0,0-.02-.014c0-.029.017-.033.017-.047a.066.066,0,0,0-.017-.016c.006-.009.01-.021.017-.031a.182.182,0,0,0-.007-.035s.016,0,.019-.023l-.014,0,0-.012a.023.023,0,0,0,.018-.022l-.013,0,0-.009c.006-.012.014-.02.021-.035l-.015,0,.021-.1c0-.006-.016-.006-.006-.025a.033.033,0,0,0,.016-.034l-.011,0,.02-.1-.012,0,.02-.1-.012,0,.019-.034-.013,0,0-.023-.013,0a.077.077,0,0,0,.018-.033h-.009l0-.024-.011,0c.007-.007.011-.013.018-.021v-.01l-.009,0,.012-.07h-.012l0-.012.011,0,0-.012-.011,0,.005-.022-.009,0c0-.014.02-.019.019-.045l-.013,0,.013-.058h-.013a.019.019,0,0,1,.014-.022l.005-.012h-.012l.012-.071-.012,0,.019-.031-.013,0,.006-.021-.013,0v-.014l.012,0c0-.016,0-.031,0-.047l-.012,0a.124.124,0,0,0,.016-.033l-.009,0v-.07h-.01c0-.033,0-.067,0-.1l.012,0,0-.01-.013-.006.005-.023h-.011c0-.02.016-.02.016-.02s-.005-.027-.006-.039l-.024,0a.067.067,0,0,0,.024-.043h-.015l.021-.034-.013,0,0-.025h-.013l.011-.059c0-.008-.013-.011-.019-.015s.015-.03.019-.043-.013-.012-.019-.02a.016.016,0,0,1,.015-.019c0-.018,0-.032,0-.049l-.012,0,.01-.045a.282.282,0,0,1-.031-.029c.008-.016.013-.032.021-.045a.3.3,0,0,1-.031-.03c.013-.027-.006-.072-.009-.119l-.011,0c0-.015.025-.021.02-.045a.092.092,0,0,0-.021-.015.39.39,0,0,1,.019-.035.142.142,0,0,1-.023-.014l.007-.023-.013,0c.005-.016.025-.018.022-.045a.139.139,0,0,1-.022-.014c.005-.016.025-.022.02-.049l-.023-.012c.008-.011-.011-.033,0-.043a.075.075,0,0,1-.024-.015c.008-.014.014-.029.024-.047l-.015,0,.005-.021-.01,0c-.008-.014-.012-.028-.019-.039l.023,0c0-.043.016-.015,0-.043l-.009,0,0-.023-.011,0a.163.163,0,0,1,.018-.033c-.02-.022-.038-.047-.059-.07.006-.014.014-.03.021-.043a.433.433,0,0,0-.042-.043c.009-.018.014-.03.021-.047-.017-.018-.032-.037-.05-.057,0-.014.027-.017.021-.043-.011-.008-.021-.021-.031-.029a.083.083,0,0,0,.01-.059c-.01-.011-.022-.029-.037-.043a.218.218,0,0,1,.018-.033l-.011,0,0-.023a.386.386,0,0,0-.029-.028v-.072l-.04-.045a.252.252,0,0,1,.019-.031.239.239,0,0,0-.022-.016l0-.025c-.009-.01-.02-.018-.03-.029a.079.079,0,0,0,.017-.034c0-.005-.012,0-.015-.037-.022-.011-.01,0-.022-.017l-.009,0c.005-.014.012-.028.018-.045l-.03-.029,0-.022.02.014,0-.072a.393.393,0,0,1-.035-.043.1.1,0,0,1,.018-.032.369.369,0,0,0-.031-.029l0-.025h-.011a.3.3,0,0,1,.018-.036.523.523,0,0,1-.049-.056l.01-.057a.576.576,0,0,1-.05-.058l.009-.045c-.014-.014-.027-.03-.042-.043l.013-.059c-.014-.014-.025-.027-.042-.043a.422.422,0,0,0,.021-.043c-.016-.019-.032-.041-.05-.06l.012-.055a.142.142,0,0,1-.019-.018l0-.021-.012,0,.009-.047c-.016-.02-.031-.037-.048-.057a.134.134,0,0,1,.019-.035l-.024-.013a.08.08,0,0,1-.013-.063l.016-.008a.7.7,0,0,0-.05-.056l.011-.059a.229.229,0,0,0-.032-.031l.008-.026h-.014a.2.2,0,0,0,.019-.033l-.022-.015c-.022-.039-.031-.042-.007-.088-.012-.01-.026-.028-.041-.041l.012-.059c-.01,0-.013-.008-.019-.016-.022-.037-.012-.025,0-.066l-.025-.01a.613.613,0,0,1,0-.072.1.1,0,0,1-.022-.014l0-.021-.011,0,.009-.045-.011,0,0-.023-.013,0,.01-.047c-.01,0-.013-.012-.023-.014l0-.025-.012,0a.348.348,0,0,0,.018-.033c-.008-.01-.02-.018-.029-.03v-.07c-.012-.012-.026-.029-.039-.041l.018-.047a.06.06,0,0,0-.02-.014l.011-.06c-.009-.008-.022-.02-.032-.031l.011-.053a.176.176,0,0,0-.017-.02l.009-.054c-.012-.012-.021-.024-.03-.032.007-.015.014-.031.021-.044-.012-.01-.021-.02-.032-.028a.31.31,0,0,1,.02-.035.1.1,0,0,1-.023-.016c-.009-.027.012-.052,0-.082-.007-.006-.014-.011-.016-.017l.009-.059-.025,0,.007-.047.013,0,0-.013a.1.1,0,0,1-.034-.018c0-.016.019-.017.019-.017,0-.028-.009-.028-.009-.028l.009-.06h-.009l0-.022a.173.173,0,0,0-.019-.018c.005-.013.026-.019.019-.044a.129.129,0,0,1-.021-.014l.012-.059-.022,0,0-.023.013,0c.007-.012-.011-.051-.013-.063l-.009,0c.009-.022.017-.02.009-.055h-.012l.01-.047a.084.084,0,0,0-.021-.018l.009-.058c0-.008-.025-.008-.019-.028l.014,0c0-.033,0-.064,0-.095a.041.041,0,0,0-.022-.016c.008-.014.029-.018.022-.047l-.022-.015a.21.21,0,0,0,.022-.045h-.012l.009-.059-.02-.016a.294.294,0,0,0,.02-.044.067.067,0,0,1-.019-.014.218.218,0,0,1,.019-.045c-.009,0-.014-.012-.022-.016a.349.349,0,0,1,.022-.043l-.022-.019.013-.055-.022-.016c0-.017.022-.019.02-.046,0,0-.016,0-.008-.026l.01,0,0-.01a.184.184,0,0,0-.023-.015.223.223,0,0,0,.018-.045l-.018-.016a.305.305,0,0,0,.018-.045l-.01,0c.005-.043.01-.086.012-.129l-.02,0a.306.306,0,0,0,.018-.1l-.011,0a.191.191,0,0,1,.02-.047.069.069,0,0,1-.022-.014.226.226,0,0,1,.022-.044.073.073,0,0,1-.022-.016l.011-.059-.013,0c0-.013.024-.013.022-.043l-.014,0,.012-.058s-.015,0-.007-.024l.014-.009c-.007-.006-.014-.01-.022-.018l.012-.068-.012,0c0-.018.019-.018.019-.02v-.013h-.009c0-.028.014-.028.019-.045l-.021-.016a.279.279,0,0,1,.021-.043c-.007-.006-.014-.01-.021-.017s.014-.036.021-.057l-.01,0,.007-.045-.009,0a.017.017,0,0,1,.014-.021c0-.012,0-.026-.005-.037a.137.137,0,0,1,.019-.034s-.016-.009-.007-.037l.013,0v-.014l-.011,0,.011-.041-.013-.005.013-.069-.013,0,0-.015c.011-.006.021,0,.018-.03l-.01,0c0-.013-.008-.017,0-.033l-.015,0,.015-.07c.009,0,0-.006.005-.008l0-.011-.008,0c0-.021.013-.021.013-.021a.138.138,0,0,1,0-.035c-.009,0,0,0,0,0l0-.024.01,0a.184.184,0,0,1,0-.039l-.013,0,.005-.019-.013,0,.015-.012c.007-.029,0-.037,0-.037s.011-.021.016-.033a.044.044,0,0,0-.021-.014l.012-.058c0-.006-.012-.006-.007-.026a.018.018,0,0,0,.016-.021.063.063,0,0,1-.021-.016.213.213,0,0,1,.019-.043l-.029-.033c0-.012.012-.025.019-.041s-.015-.01-.019-.018l.017-.031c-.007,0-.015-.014-.022-.015.007-.016.015-.03.02-.043l-.011,0,.006-.024-.013,0c0-.027.022-.033.02-.045a.2.2,0,0,1-.031-.029.191.191,0,0,0,.018-.043c-.007-.008-.007-.029-.014-.041l0,0,0,0a.448.448,0,0,0,.01-.059c-.021-.011-.01,0-.021-.017h-.012a.327.327,0,0,0,.019-.047h-.012l.007-.021c-.007-.008-.017-.012-.022-.02l.02-.043c0-.006-.015-.01-.02-.016,0-.027.015-.033.015-.033,0-.015-.015-.023-.018-.027l.008-.049a.153.153,0,0,0-.026-.025c-.01-.03.018-.032.018-.045l-.021-.016,0-.021-.01,0v-.071a.023.023,0,0,0,.019-.023.291.291,0,0,1-.031-.029c.006-.014.012-.03.019-.043-.011-.014-.019-.02-.031-.034l.022-.041c-.01-.009-.022-.021-.032-.029.007-.012.028-.019.019-.045a.118.118,0,0,0-.031-.027.316.316,0,0,0,.022-.047.191.191,0,0,1-.029-.027c0-.016.026-.02.022-.045a.326.326,0,0,1-.032-.03l.01-.048-.013,0,0-.02-.014-.006.009-.045-.02-.015,0-.026h-.01a.017.017,0,0,1,.012-.019c0-.014,0-.026,0-.039l-.024-.006c0-.008,0-.024-.005-.035s.021,0,.017-.02a.075.075,0,0,0-.024-.015l.007-.024-.011,0v-.074a.059.059,0,0,1-.02-.016l.015-.031c-.009-.014-.025-.027-.037-.043.007-.014.012-.031.02-.047-.013-.009-.029-.029-.042-.039.022-.045.009-.045-.007-.09h-.012a.482.482,0,0,0,.019-.045h-.008c-.015-.029-.023-.011-.028-.054l-.023,0s.025-.024.021-.043l-.012,0a.323.323,0,0,0,0-.037l-.032-.018a.09.09,0,0,1,.02-.043c-.047-.045-.011-.027-.023-.08h-.011a.128.128,0,0,0-.065-.1.177.177,0,0,0-.014-.111c-.012-.006-.016-.014-.025-.017l.009-.045-.047-.059.01-.055c-.029-.037-.058-.074-.086-.115l.009-.059a.091.091,0,0,1-.032-.017l0-.008a.7.7,0,0,0-.049-.057l0-.027h-.01c-.012-.019,0-.013-.03-.031l.01-.045c-.026-.041-.05-.082-.076-.121a.112.112,0,0,0-.032-.029l.009-.036a.064.064,0,0,1-.02-.017c-.016-.035-.007-.047-.048-.067l.005-.021c-.039-.024-.036-.053-.057-.084a.614.614,0,0,0-.053-.049l0-.019a.032.032,0,0,0-.02-.016.407.407,0,0,0-.092-.127v-.023l-.042-.022.007-.033c-.048-.023-.064-.059-.12-.082,0-.051-.03-.051-.055-.082a.337.337,0,0,1-.024-.055c-.012,0-.023-.012-.035-.015l0-.014a.049.049,0,0,1-.023.008c-.011-.02.01-.033,0-.049l-.012,0,0,.014a.146.146,0,0,0-.031-.018.247.247,0,0,1-.027-.057.091.091,0,0,1-.034-.017.045.045,0,0,0-.007-.024l-.035-.008,0-.011-.023,0,0-.014-.024-.006c-.005-.009-.009-.025-.015-.037l-.048-.008v-.013l-.017,0c-.009-.008-.014-.027-.021-.037s-.023,0-.034,0a.437.437,0,0,1-.036-.067l-.092-.027.006-.022a.507.507,0,0,0-.069-.025l-.007-.025-.022,0V649l-.045-.01c-.007-.013-.012-.027-.018-.039l-.024,0,0-.013-.045-.008a.2.2,0,0,1-.019-.039c-.015-.008-.018.015-.025.019l-.026,0c0-.023.007-.011,0-.027l0-.01c-.023-.019-.038.01-.048,0s-.005-.017-.01-.027l-.021,0a.1.1,0,0,0-.021-.028l0-.011-.046,0s0-.012-.023-.016v.012l-.013,0a.131.131,0,0,1-.006-.025l-.023,0,0-.012-.024,0,0-.01c-.019-.006-.012.03-.026.018a.119.119,0,0,1-.018-.039l-.038,0,0-.008-.036-.008,0-.014-.057-.009v-.01l-.008,0a.019.019,0,0,1-.028.006.249.249,0,0,0-.007-.026l-.057-.009v-.014l-.02,0,0-.012-.011,0,0,.012c-.023-.012-.033-.037-.067-.035l0,.012h-.011a.214.214,0,0,1-.007-.03c-.025-.011-.036.01-.047,0v-.012l-.071-.011s0-.016-.019-.016,0,.016-.014.01,0-.01-.024-.016l.009-.023-.072-.014v-.012c-.01,0-.024.018-.045,0a.138.138,0,0,1-.017-.037l-.016.008-.036-.008v.016a.023.023,0,0,1-.018-.02c-.023,0-.028.01-.028.01a.422.422,0,0,0-.057-.023.016.016,0,0,1-.024.008.071.071,0,0,0-.006-.026c-.018,0-.024.014-.05,0l0-.012-.01,0s-.009.02-.026.008l-.007-.025a.415.415,0,0,0-.05.016c-.006-.014-.011-.028-.018-.042s-.024.006-.024.006a.057.057,0,0,1-.021-.015l-.07-.012s0,.014-.026.008l0-.014-.057-.012,0-.009-.012,0,0,.011-.045-.009,0,.011-.012,0,0-.011-.022,0v-.012c-.014,0,0,.012-.012.01l-.046-.01,0,.012c-.017,0,.005-.008-.008-.012h-.062l0-.012-.067-.013v-.01l-.013,0v.014c-.023-.008-.047-.018-.069-.028a.031.031,0,0,1-.016.022.5.5,0,0,1-.056-.024v.014a.2.2,0,0,0-.032-.018c-.005,0-.009.016-.025,0,0,0-.007-.015-.034-.015v.011H464.5v-.012l-.129-.024,0,.012-.009,0v-.01l-.056-.011s0-.016-.024-.018v.014l-.048-.01v.012l-.022-.016a.208.208,0,0,0-.036.008.033.033,0,0,0-.034-.02l0,.01-.035-.008,0,.014-.011,0,0-.012-.059-.011.005-.01-.012,0a.228.228,0,0,1-.038,0l0,.014c-.017-.008-.036-.014-.057-.022v.024a1.107,1.107,0,0,0-.142-.016c-.034,0-.065-.029-.08-.026l-.015.02-.046-.01,0-.01c-.025-.005-.026.006-.026.006l-.069-.009v.009l-.025,0v.008l-.069-.01v.01h-.013s0-.015-.022-.013l0,.009-.033-.006,0,.01-.034-.006v.012c-.028,0-.019-.012-.024-.019s0,.009-.013.013l-.037-.008a.053.053,0,0,1-.015.024c-.012-.006-.021-.016-.032-.02l0,.012-.036-.008,0,.014-.114-.022c-.007,0-.011.014-.016.022a.315.315,0,0,0-.033-.022.1.1,0,0,1-.016.024l-.022-.006,0,.012-.022-.016c0,.008-.012.014-.014.02a.09.09,0,0,1-.022-.016l-.005.014-.019,0,0,.01a.092.092,0,0,1-.051,0l0,.024a.088.088,0,0,0-.068-.025.058.058,0,0,0-.013.023l-.015-.006,0-.012c-.023.006-.05.008-.074.012,0,.008-.012.014-.015.022a.43.43,0,0,1-.043-.022l0,.014-.023-.006c0,.006-.011.014-.015.021h-.06l0,.012c-.008-.006-.021-.012-.03-.018a.613.613,0,0,1-.045.042l-.023,0-.005.009a.149.149,0,0,0-.04-.019l0,.021a.609.609,0,0,1-.125.028l0,.021c-.025,0-.049,0-.072,0-.011.022,0,.01-.019.022v.011l-.044-.009c-.009.009-.018.021-.03.033l-.025-.006v.01l-.025,0,0,.014-.033-.008a.386.386,0,0,0-.041.039l-.07-.014,0,.014.013,0-.018.019-.021-.006-.005.026-.023,0c-.027.049-.011.014-.054.025l0,.014-.023-.008a.641.641,0,0,1-.072.063l-.032-.008a.182.182,0,0,0-.084.066l-.025,0-.005.026a.189.189,0,0,0-.047,0c-.016.027-.007.023-.041.027l0,.021a.122.122,0,0,1-.037,0,.8.8,0,0,1-.066.055l0-.017c-.011.007-.019.013-.027.017H461.3a.206.206,0,0,0-.021.022c-.007,0-.018,0-.024,0l0,.018-.009.01a.267.267,0,0,1-.056.021c-.03.02-.039.051-.08.057l-.006.023c-.047,0-.039.018-.068.045h-.008v0a.129.129,0,0,0-.018.006l-.006.033c-.012,0-.025.012-.039.016-.037.027-.076.058-.112.086l0,.009-.007,0-.007.033-.024,0,0,.019,0,0-.022,0c-.007.02-.01.03-.017.035a.3.3,0,0,0-.043.024l0,.01,0,0c-.014,0-.025,0-.036,0l-.007.037-.021-.006a.09.09,0,0,1-.016.033l-.011,0c-.03.027-.071.041-.086.08l-.023,0v.01c-.032.016-.012.023-.054.027,0,.014.006.026.006.037a.379.379,0,0,0-.051.016l-.007.031a.265.265,0,0,0-.029.024l-.01,0a.042.042,0,0,0,.007.023c-.019.01-.036.018-.053.028a.175.175,0,0,0,0,.035l-.022,0-.007.021-.021,0a.108.108,0,0,1-.022.053h-.014l0,.022c-.01,0-.017.007-.025.007l-.006.022-.022.01-.012.044-.025.008-.005.022-.008,0-.005.023h-.015l0,.034-.025.007c-.031.059-.064.119-.093.178l-.025-.008,0,.026h.011c0,.009-.014.017-.02.044l-.025,0c-.007.025-.016.045-.023.068l-.022,0a.307.307,0,0,1-.02.043h-.015c0,.01,0,.023.006.035l-.027.008,0,.022-.011,0c0,.017,0,.035,0,.048l-.024,0-.007.037-.014,0a.04.04,0,0,1,.01.023l-.025.008.008.012v.015l0,0v.006c-.006.012-.01.026-.015.039l-.023,0c.013.016-.013.051-.035.08l-.01.008-.02,0,0,.022h-.012l0,.035a.131.131,0,0,0-.025.01l.012.007-.023.055h-.005v0H459.6l-.005.022-.009,0-.01.041,0,0v0l-.007,0,0,.025-.013-.006-.008.037a.067.067,0,0,0-.024.008.049.049,0,0,1,.006.025c0,.006-.027,0-.027.018s.021,0,.01.016a.085.085,0,0,0-.024,0,.181.181,0,0,1-.022.044h-.023c-.007.015-.023.08-.033.1l-.021.008.012.012-.026.056h-.013c-.006.014.01.024.01.024,0,.021-.016.019-.016.019s0,.026,0,.037h0v0l-.022.008,0,.033a.176.176,0,0,0-.028.008c0,.018.015.041.016.055-.023-.043-.043.035-.048.064,0,0-.048-.007-.027.006l.013,0,0,.01-.024-.006c0,.031,0,.061-.008.092a.031.031,0,0,1-.016.01c0,.005,0,.015.006.023l0,0a.06.06,0,0,1-.009.021h0l-.005.02v0h-.014a.045.045,0,0,1,.005.025c0,.008-.005.01-.005.02l-.014,0v.012h-.009c0,.011.005.027.007.037a.092.092,0,0,0-.025.01.326.326,0,0,0,.005.044l-.041.02a.435.435,0,0,0,.006.047.071.071,0,0,1-.029.006.023.023,0,0,0,.007.027c0,.02-.012.016-.014.02l-.01.06a.1.1,0,0,0-.027,0c0,.014,0,.025.005.037s-.015.006-.017.033l.01.014-.013,0,0,.025-.013,0a.212.212,0,0,1-.018.029l.013,0-.007.025h0a.252.252,0,0,1-.021.033s.015,0,.011.024l-.015,0v.012c.008.005-.006.005,0,.009l-.012.071h-.01c-.005.013-.014.013-.016.031l-.012-.006c-.013.027,0,.027,0,.039l0,.012-.01,0-.015.07-.008,0-.01.047-.012,0,0,.014h.013c0,.029-.02.033-.02.033a.258.258,0,0,1,.005.039.078.078,0,0,1-.017.027.029.029,0,0,1,.007.03l-.01,0-.011.045-.01,0v.058a.042.042,0,0,1-.024.01v.047a.076.076,0,0,1-.022.008c0,.017.01.023,0,.051l-.009,0,0,.011a.019.019,0,0,1,.007.024h-.011l-.014.07c-.008,0-.014,0-.027.006l.014.014c-.007.025-.021.021-.021.021l-.009.059-.011,0c-.012.025.007.031,0,.047h-.011l-.013.058a.064.064,0,0,0-.024.006c0,.016,0,.029,0,.047l-.023.008c0,.015,0,.031,0,.047H458.6a.184.184,0,0,0-.017.1l-.025,0c-.011.041-.024.082-.037.123l-.01,0a.345.345,0,0,0,0,.049l-.024.01c0,.012,0,.031,0,.047a.078.078,0,0,0-.025.006l0,.013h.008c0,.022-.011.018-.013.022-.011.025.005.033,0,.049l-.026.006-.008.06a.047.047,0,0,0-.027.01v.045l-.024.01a.329.329,0,0,1,.005.045.223.223,0,0,0-.028.009.366.366,0,0,1,0,.047l-.025.008-.009.059-.014,0a.243.243,0,0,1,0,.047l-.023.007c-.016.026,0,.033,0,.047s-.018.008-.024.01a.778.778,0,0,0-.03.09l.011,0c0,.017-.02.009-.027.017l-.011.057a.076.076,0,0,0-.026.01l-.008.045-.011,0c-.022.031-.01.031-.01.058l-.012,0c-.006.008-.036.041-.033.059h.01v.021l-.028,0-.009.058a.12.12,0,0,0-.027.008c-.011.02.005.033.005.045a.088.088,0,0,1-.026.01l0,.023-.011,0-.01.059s-.016-.008-.018.019c0,0,.018.01.009.026a.272.272,0,0,1-.038,0l0,.013h.014l-.012.047-.021-.006-.011.061c-.009,0-.016.006-.028.008-.017.027-.009.056-.024.078l-.027.006a.12.12,0,0,1,0,.037c-.009.006-.025.011-.036.017v.049c-.012,0-.024.012-.039.018l-.01.056a.19.19,0,0,0-.026.006l-.008.057a.253.253,0,0,1-.044.019l-.009.057c-.005,0-.016,0-.025.01s0,.031,0,.047a.333.333,0,0,0-.053.027c-.007.023-.016.043-.025.066l-.038.016.006.033h-.013l0,.026-.027,0-.01.049h-.009l-.005.022-.012,0-.01.047-.009,0-.006.023a.039.039,0,0,0-.023.01c-.008.022-.016.043-.026.065l-.025,0c0,.048.007.041-.023.066a.072.072,0,0,1-.025.01l-.011.056c-.018.006-.034.018-.052.024,0,.053,0,.049-.039.078-.009,0-.015,0-.025.008a.164.164,0,0,0,.005.037H457.2l-.005.021c-.012,0-.024.012-.038.016l-.011.059a.387.387,0,0,0-.065.037l.008.011a.073.073,0,0,1-.033.053.166.166,0,0,1-.027.008.156.156,0,0,1,.005.037c-.02.01-.045.025-.065.037l-.01.043h-.011l-.005.022a.076.076,0,0,1-.025.009l-.011.055-.064.037v.045a.016.016,0,0,1-.014.006l0,.008-.034.015-.01.043a.2.2,0,0,0-.01.022l-.044.019v.02c-.01.016-.017.019-.029.037a.1.1,0,0,1-.019.012.052.052,0,0,0-.023.013l0,0c-.008.01-.015.026-.027.041l-.012,0-.006.024-.01,0-.006.023,0,0a.115.115,0,0,0-.021.008c-.013.02-.006.037-.015.061a.109.109,0,0,0-.027.006l0,.023-.027.01-.006.019a.029.029,0,0,1-.01.016h0v0c-.017.021-.037.037-.035.068l-.02-.006c-.007.026-.016.028-.02.045h.012l0,.012a.05.05,0,0,0-.021.008.728.728,0,0,0-.041.076l-.025,0c-.01.035-.026.055-.04.092l-.022-.008c-.019.043-.037.066-.032.1l-.024,0a.32.32,0,0,0-.011.033h0l0,.016,0,.007-.012,0v.012l-.017,0,.009.026-.014,0c0,.009,0,.013-.007.023s-.013.006-.017.01a.058.058,0,0,0-.014.045l-.011,0c-.005.014-.008.015-.009.025l-.016.006c-.012.018,0,.029,0,.039v.014l-.014.006-.014,0v.01a.125.125,0,0,0-.036.021v.049l-.051.025a.083.083,0,0,0,0,.028l-.016.027a.65.65,0,0,1-.064.037.136.136,0,0,0,0,.039h-.011l-.005.02-.011,0c-.024.019,0,0-.019.041l.024.006h-.005a.128.128,0,0,0-.024.029l-.012,0-.005.023-.01,0v.05a.148.148,0,0,1-.025.008c0,.012-.02.024-.02.037l-.028.006c-.01.024.005.033.008.049a.151.151,0,0,1-.026.006c-.015.025,0,.035,0,.049l-.008,0-.007.023-.022.006c0,.012,0,.025,0,.037a.164.164,0,0,0-.026.01c-.014.019.005.035,0,.047l-.01,0c-.017.047-.053.076-.048.109-.016,0-.029.012-.042.016s0,.031,0,.051a.12.12,0,0,0-.038.015l-.008.047-.013,0c-.007.012-.013.029-.02.041s.017.012.009.025l-.027.01c0,.018,0,.032,0,.047a.049.049,0,0,1-.023.008l-.011.057h-.014l0,.023-.014,0c0,.012,0,.024.007.037l-.011,0a.121.121,0,0,0,0,.049l-.022-.008a.248.248,0,0,1-.019.037.014.014,0,0,1,.005.024l-.01,0,0,.023-.009,0-.006.014h.012a.085.085,0,0,1-.012.037v0c-.007.02-.012.037-.017.057h-.009c-.008.019-.018.045-.028.066l-.008,0a.14.14,0,0,0,0,.028h-.005l.005.009h-.01l-.01.02h0l0,0a.047.047,0,0,0-.01.02h.01v0a.071.071,0,0,0-.019.006l0,.026-.013,0,0,.009c-.015.032-.018.041-.015.059l0,.023-.02,0v.009l.005.006v.016s-.013.011-.016.027l.006,0,0,.01a.037.037,0,0,1-.019.008.069.069,0,0,0,0,.025.027.027,0,0,0,0,.014.034.034,0,0,0-.018.006l0,.025-.012,0,0,.027-.01-.005c0,.017,0,.033,0,.048l-.014,0-.017.106,0,0,0,.012v0l0,0,0,0v.014h-.007l-.005.02-.011,0a.274.274,0,0,1,0,.037l-.009,0-.018.105-.013,0-.016.092-.009,0,0,.012-.005,0a.031.031,0,0,0,.007.035c0,.026-.016.02-.018.023l-.007.042-.014.027.008.006-.005.031h-.014c0,.008,0,.025.007.033l-.005.012h-.009a.02.02,0,0,0,.007.025l0,.01h-.012c-.008.02.007.027.007.027l-.018.03a.138.138,0,0,1,0,.035.061.061,0,0,1-.023.01c-.005.013.018.021,0,.045a.125.125,0,0,1-.023.009c-.006.016.009,0,.009.014s-.019.031-.019.031a.019.019,0,0,0,.008.026c0,.025-.016.021-.016.021s.005.026.005.037l-.01,0c-.012.026.005.037.005.037l-.021.045.012,0a.126.126,0,0,0-.019.043h.009l-.012.072h-.013c0,.013,0,.029,0,.048,0,0-.014,0-.014.018l.009,0v.013h-.011l-.007.033a.112.112,0,0,0,.007.023H454.8c0,.01,0,.024.005.035H454.8l-.007.034h.012c-.008.012-.012.022-.019.032a.134.134,0,0,1,.007.029l-.009,0-.01.033h.012c0,.018-.02.018-.02.045l.01,0,0,.012-.008,0-.037.2a.017.017,0,0,0-.018.02l.013,0a.246.246,0,0,0-.02.031h.014l-.012.057.012,0c-.01.063-.015.127-.025.188l.011,0-.011.058.015,0c-.005,0-.01.012-.018.02a.228.228,0,0,0,0,.1c0,.027-.021.027-.023.044h.015l-.006.038h.01c0,.037-.007.078-.01.117l-.014,0,0,.012.014,0-.012.045.017,0a.124.124,0,0,0-.021.032l.011.006-.009.056.009,0a.308.308,0,0,1-.016.031l.009,0,0,.033.011,0-.013.08.01,0-.008.036h.011l-.013.082.011,0-.007.033.012,0,0,.009-.011,0c0,.016,0,.028,0,.039l-.015.024h.013l-.007.033.013,0-.01.047.011,0-.007.031.014,0-.007.033.012,0v.121l.011,0-.011.057.012,0-.005.035h.011c-.007.01-.011.021-.018.033l.009,0,0,.024h.011l-.009.057c.006,0,.014.014.019.016s-.013.023-.017.033l.012,0-.005.023.011,0-.01.047.012,0c0,.041-.007.08-.008.115l.01.006,0,.02.014,0-.01.044.012,0-.009.038h.012l0,.034.011,0-.009.047h.012v.05a.181.181,0,0,1,.033.028c0,.023,0,.047,0,.072a.091.091,0,0,0,.022.015v.059l.011,0a.267.267,0,0,0,0,.049l.011,0-.008.047.022.015-.01.047a.049.049,0,0,1,.021.016l-.005.023h.013l0,.024.012,0-.006.033.011,0-.005.023a.136.136,0,0,0,.022.014l-.006.025c.015.014.028.03.042.043a.46.46,0,0,0,.007.086c.016.02.031.037.05.059l-.005.021a.093.093,0,0,0,.02.014l-.006.037c.011.039.034.041.027.1.014,0,.021.011.037.015l-.01.037.026,0a.078.078,0,0,0,.013.051l.012,0-.01.047c.007,0,.015.01.023.012l-.007.027h.015c.019.037.04.053.038.107l.024,0c0,.035.018.045.018.09l.024,0c.007.018.016.02.017.029v.02a.309.309,0,0,1,.029.033l-.005.02a.1.1,0,0,0,.022.015l-.005.037c.013.032.041,0,.046.071.022.009.045.021.067.031,0,.049.032.07.036.117l.023.008a.083.083,0,0,1,0,.035l.035.006,0,.023.025,0c0,.014.015.016.018.026l0,.025.011,0a.189.189,0,0,1,.04.094l.025,0c.016.037.046.054.067.084.042.062.081.127.121.189l.024,0a.055.055,0,0,1,.006.025c.018.008.037.014.057.024l0,.012a.067.067,0,0,1,.018.015l0,.024a.14.14,0,0,1,.033.015c.011.026.025.047.036.069l.023,0a.536.536,0,0,0,.037.067c.019.008.035.018.054.025s.01.024.016.036l.022,0a.19.19,0,0,1,.009.024l.038.008c.015.033.036.064.053.095a.34.34,0,0,1,.046,0c.014.024.025.045.036.065l.023.008,0,.011a.073.073,0,0,1,.024.016l0,.022a.7.7,0,0,0,.082.023v.006l0,0,0,.006,0,.021c.033.014.034.024.049.045v.01l.025.008a.129.129,0,0,1,.006.023l.01,0,0-.01c.02,0,.011.022.02.028a.042.042,0,0,1,.027-.006l-.005.01.024,0a.521.521,0,0,0,.027.053c.018.014.036-.006.036-.006l.031.02,0,.021a.126.126,0,0,0,.033.02l0,.012a.284.284,0,0,1,.034.015l.007.026c.023.023.07.019.089.041s0,0,.006.025l.06.025,0,.012c.008.006.02.01.029.016l.023,0,0,.013a.231.231,0,0,0,.036.008v.008h.017a.062.062,0,0,1,.024.01q.008.012.015.027l.007,0a.108.108,0,0,0,0,.023l.072.012a.22.22,0,0,0,.015.043l.064.022,0,.013.038,0v0l.008.006.011,0,0,.024c.026.009.044.023.07.031v.006a.021.021,0,0,0,.018.007l0,.02.066.023c.007.006.011.014.014.016h.008v.014c.029.013.018.023.042.033l0-.016h.016l0,.006c.006,0,.012-.006.022-.006a.265.265,0,0,0,.007.026l.02,0c.009,0,.009.013.021.027l0,.01c.018.011.023-.03.052-.01a.543.543,0,0,1,.025.049.238.238,0,0,1,.048-.006v.016l.02,0a.239.239,0,0,1,.041.01l0,.02.026,0,0,.011a.074.074,0,0,0,.021,0,.1.1,0,0,0,.009.024v0c.017,0,.033,0,.046,0l.008.023a.11.11,0,0,0,.027.01c0,.014.011.022.016.037s.024-.011.024-.011c.019,0,.02.017.02.017a.466.466,0,0,1,.052,0l-.005.022c.014.007.03.013.045.019.035-.049.019.041.052.035.007,0,.007-.031.039-.017a.056.056,0,0,1,.005.027c.022,0,.014-.031.032-.019a.165.165,0,0,0,.024.05h.048l.007.028.07.009,0,.012.048.01c0,.008.005.017.005.025a.015.015,0,0,0,.022-.008c.041,0,.038.018.058.034l0-.022.023,0,.007.027a.163.163,0,0,1,.048-.005l.007.025c.023.016.037-.01.051,0a.109.109,0,0,1,0,.025l.028,0,0,.012.034,0,.009.026.067.009c.005,0,0,.016.024.02v-.012l.012,0c0,.006,0,.014.007.022a.126.126,0,0,0,.048,0l.01.029c.021.016.035-.01.045-.006a.077.077,0,0,0,.009.027l.02,0,0,.012a.019.019,0,0,0,.026-.008.024.024,0,0,1,.021.018.185.185,0,0,0,.037-.006l0,.012c.021,0,.044,0,.062,0a.07.07,0,0,1,.006.025.35.35,0,0,1,.039-.008l0,.016a.134.134,0,0,1,.034.016l0,.009.011.006.007-.023a.087.087,0,0,0,.03.013v.014c.011,0,.025-.016.047,0l.007.028c.028.007,0-.024.017-.024a.267.267,0,0,0,.03.02v.011c.011,0,.027-.017.047,0,0,0,.016.032.029.041l.006-.019.023,0a.177.177,0,0,0,.007.027l.036-.01,0,.016a.6.6,0,0,1,.06,0,.143.143,0,0,0,.007.022c.016,0,.023-.01.051,0l0,.009.011.006a.033.033,0,0,1,.037-.006.04.04,0,0,0,.007.024c.022.013.036-.01.047,0s.007.015.007.025a.8.8,0,0,0,.1.006l0,.012.025,0,0,.015a.29.29,0,0,0,.039-.007l-.005.015.011,0a.037.037,0,0,1,.036-.01c.006,0,.005.02.025.02a.015.015,0,0,1,.023-.01.217.217,0,0,0,.009.027h.058v.01c.011,0,.022-.006.036-.006s0,.014.02.014l0-.008c.037.006.023.024.032.032s.075-.014.084-.01l.009.025c.023.016.032-.01.047,0v.01l.035.01v-.014c.016.01.03.014.042.023l0-.013a.027.027,0,0,1,.019.025l.152.03v.013a.568.568,0,0,0,.058,0v.01l.009.006s.01-.022.028-.01-.008.029.029.029v-.007l.035,0,0-.012c.028,0,.026.013.033.017s0-.007.016-.007c.042.009.088.027.136.037l0,.009c.014,0-.005-.009.01-.007l.038.006,0,.009h.036a.205.205,0,0,1,.034.014l0-.01c.014.006.03.014.043.018s.006-.014.025,0c0,.006,0,.015.009.025l.011-.012.06.012,0-.012.008,0v.012c.035,0,.073.01.105.01,0,0,.007-.018.024-.01l0,.014.026,0,0,.01a.118.118,0,0,0,.037,0l0,.009.022,0v.016a.249.249,0,0,1,.038-.006s0,.018.021.018v-.014l.036.006v-.01l.061.012,0-.012h.008v.014c.027.006.038-.008.046,0a.024.024,0,0,0,.023.019.019.019,0,0,1,.024-.011v.011l.014,0,0-.013.034.009,0-.011a.027.027,0,0,1,.032.015l.079.016,0-.012c.012,0,.034.028.07.024v-.008a.426.426,0,0,1,.069.023l0-.011.07.013,0-.013c.012,0,.022.023.054.025l0-.014h.009a.02.02,0,0,0,.022.018l0-.012.048.01v-.01a.087.087,0,0,1,.034.018l0,.009c.026,0,0-.013.015-.019a.109.109,0,0,0,.084,0l.009.016h.014v-.015c.021.01.038.015.056.025.033-.008.069-.011.1-.019l0,.021a.4.4,0,0,0,.07,0V667.9a.293.293,0,0,0,.047.024l0-.014.09.018v-.01c.02,0,.017.018.047.018v-.01c.027,0,.043.033.082.027a.069.069,0,0,1,.014-.021l.033,0,0-.011.013,0a.016.016,0,0,0,.021.015l0-.009.034.006,0-.012.009.013h.122v-.012c.019.008.011.037.041.031l.033-.027.09.015,0-.011.033.017v-.01h.015l-.006.016h.014l0-.012.021,0,.005-.014c.012.01.023.014.031.022s.007-.016.029-.01a.016.016,0,0,0,.017.018l0-.014.048.01.016-.022a.254.254,0,0,0,.054.022c.007,0,.011-.014.016-.02l.024,0,0-.011c.014.005.026.027.055.023v-.012l.059.012v.012h.013l.013-.02.049.008,0-.012.02.006,0-.012a.173.173,0,0,1,.1.022l.005-.026.106,0,0-.014.012.006,0,.01c.041,0,.079.007.118.007a.118.118,0,0,0,.03-.029c.016.01.03.014.045.022l0-.012.033,0,0-.01a.02.02,0,0,1,.02.018.607.607,0,0,0,.061,0,.2.2,0,0,0,.028-.03.018.018,0,0,1,.022.014c.027.008.027-.008.027-.008l.067.016,0-.012a.306.306,0,0,1,.06,0,.076.076,0,0,0,.016-.021.352.352,0,0,0,.044.021c.012-.01.02-.021.029-.029a.548.548,0,0,1,.084.008l0-.012c.016-.006.065.021.065.021a.4.4,0,0,0,.045-.039c.034,0,.019.036.042.03l0-.01c.016-.008.018-.016.028-.016l.023,0a.059.059,0,0,1,.018-.021c.009.006.018.01.031.019l0,.01c.023,0,.016-.014.05-.016l.007-.023c.029,0,.061,0,.093.008l0-.024c.032,0,.064,0,.1-.006l.018-.023h.13l.031-.027.066.015a.43.43,0,0,0,.034-.047c.035,0,.064.006.1.006v-.009l.023,0v-.011a.6.6,0,0,1,.1-.006c.009-.022,0-.006.015-.022s.069.008.1-.005l.015-.02c.012,0,.025,0,.037,0v-.012l.038-.005.007-.026.036,0s.01.024.032.02a.2.2,0,0,1,.043-.039l.024,0,0-.01c.008,0,.013.01.022.014s.008-.024.026-.018l0,.012.011,0,.017-.02.025,0v-.012a.161.161,0,0,1,.065-.025l0-.02c.032,0,.064,0,.1,0l0-.023a.113.113,0,0,1,.025-.006l0-.014.025.006c.019-.017.036-.033.057-.049a.14.14,0,0,1,.044.022c.026-.023.054-.047.083-.07l.036,0c.008,0,.01-.013.017-.021l.022.006.03-.031h.059c.02-.018.039-.036.057-.049l.023,0c.023-.018.036-.032.057-.049a.2.2,0,0,0,.037-.006l.006-.023a.057.057,0,0,0,.025-.006l0-.014h.059c0-.006.014-.012.016-.019l.023,0c.059-.045.121-.089.181-.131.032-.023.067-.027.094-.056l.024,0c.017-.035.044-.047.071-.07l.014,0,0-.029c.005-.006.016-.006.028-.018l.023.006.005-.023.034.008.015-.034.025,0c.021-.043.057-.048.077-.095l.074-.006c.029-.059.045-.024.067-.049l.008-.035c.008,0,.017,0,.026-.008l0-.021c.013-.008.029-.012.039-.02l0-.02c.007-.007.02-.007.03-.017h.024c.015-.035.034-.037.05-.07l.024,0c.014-.051.042-.059.073-.086l.014.007,0-.025.024-.006.01-.049.012,0a.088.088,0,0,0,.032-.041l.021.006.007-.035.038-.006c.017-.057.038-.051.062-.082l.009-.037c.01,0,.015-.008.026-.008l0-.021c.022-.014.043-.024.065-.037s.025-.049.039-.077l.052-.027.007-.019a.091.091,0,0,1,.025-.008l0-.026.015,0,0-.033.014,0,0-.023.009,0,.006-.024a.054.054,0,0,1,.025-.006l.009-.049a.09.09,0,0,1,.025,0l.009-.049.01,0c.008-.016.014-.03.022-.043h.011l.023-.055.024-.008c.01-.023.017-.043.028-.066a.2.2,0,0,1,.037-.02.315.315,0,0,0,.019-.043l.013,0,.009-.049.013,0,0-.029h.012l.007-.039.011,0,.008-.047h.012l0-.022h.017c.009-.035.016-.07.029-.111l.013,0,.007-.045.014,0,0-.021.011,0a.2.2,0,0,0-.005-.038c.01,0,.019-.007.028-.007l.008-.057.012,0,.005-.024.011,0a.1.1,0,0,0-.007-.04l.013.006.006-.035h.011l.014-.056h.01c.015-.037.029-.072.046-.111l.009,0,.007-.033h.012l.006-.033.009,0,.012-.047.012,0,.006-.036.011,0a.11.11,0,0,0-.007-.024c.007-.012.012-.021.019-.035h-.012l0-.014.012.006.007-.037.011,0,.016-.082.012,0,.006-.035.011,0,.014-.082.013,0,.006-.034.01,0a.151.151,0,0,0-.006-.033h.011l.014-.059.013,0c0-.013-.006-.027-.006-.039l.009,0,.011-.047h.011l0-.007-.015,0c.011-.039.024-.077.036-.116l.009,0,.007-.035.013,0c0-.016-.014-.021,0-.049a.2.2,0,0,0,.026-.088.257.257,0,0,0,0-.029l.009,0,.009-.057.013,0c.016-.06.033-.121.048-.185l.011,0,.01-.061.012,0c0-.01,0-.02,0-.033ZM459.677,650.5h0c0-.006,0-.006,0-.01s0,0,0,.01m1.2,1.326.014,0c.008-.029.02-.058.03-.084l.011,0a.1.1,0,0,0-.007-.039.052.052,0,0,1,.027-.008l.011-.062h.017v-.026l.015,0,.008-.049.013,0a.311.311,0,0,0,0-.052l.011,0,.005-.026.013,0c.017-.033.03-.072.045-.1l.028.007c.018-.07.023-.046.052-.082l.005-.025.014,0a.076.076,0,0,1-.009-.025.056.056,0,0,1,.029-.008c.018-.03.005-.063.028-.084l.072-.026c.024-.054.055-.109.082-.164.021-.008.046-.015.067-.025l.006-.022a.045.045,0,0,1,.027-.007l.005-.024.013,0a.262.262,0,0,1,.025-.06l.026-.006.019-.037.014,0a.353.353,0,0,1,.025-.061.176.176,0,0,0,.028-.006l.008-.049c.021-.033.056-.027.078-.074l.025,0c.024-.053.045-.037.088-.057l.032-.021.006-.024a.2.2,0,0,0,.04-.007.314.314,0,0,0,.063-.067.24.24,0,0,0,.062.027.035.035,0,0,1,.036,0c.019.005,0,.013.014.013l0-.013.038.005,0,.016c.015,0,.025-.018.052-.006a.056.056,0,0,0,.007.03.283.283,0,0,1,.04,0l0,.011.025,0v.012c.018.006.016-.018.03-.018s.016.02.048.02v-.01a.2.2,0,0,1,.036.018s0-.018.027-.01a.022.022,0,0,0,.023.017.019.019,0,0,1,.027,0l0,.011.014,0,0-.013.027,0a.1.1,0,0,0,.014-.023l.078.016c0-.008.013-.016.016-.022a.239.239,0,0,0,.024.018l0-.012.026.006,0-.014.047.008a.033.033,0,0,0,.016-.021l.056,0c.028-.065.027-.024.072-.039a.346.346,0,0,1,.033-.032l.024.006,0-.011a.309.309,0,0,1,.107-.022l.008-.021h.011c.015-.015.031-.027.045-.041l.041.006a.363.363,0,0,0,.03-.035l.026.008c.006-.008.01-.016.018-.02a.308.308,0,0,1,.053-.007.574.574,0,0,1,.046-.037l.025,0c0-.009.013-.013.017-.023l.014,0,.006-.025.144-.008,0-.028a.123.123,0,0,0,.054,0v-.015l.052.009,0-.013.023.008,0-.012c.031-.006.031.017.047.021l0-.013a.392.392,0,0,0,.069,0,.689.689,0,0,0,.05.086l.021,0a.725.725,0,0,1,.04.07l.028.008a.065.065,0,0,0,.006.025l.038.006a.608.608,0,0,0,.028.057l.039.006,0,.013c.014.016.029.029.044.047l-.005.025c.059.006.052-.011.086.03,0,.006.005.015.009.025l.014-.01a.079.079,0,0,1,.06.037.065.065,0,0,0,.008.026l.015-.012.074.029s-.014.045.007.028c.018,0,0-.02.015-.012l.037.02s.009-.03.029-.02l.007.025c.016.008.028-.009.028-.009a.131.131,0,0,0,.035.021l0-.012.024-.007,0,.025a.383.383,0,0,0,.051.023s.006-.013.026-.007l0,.011.127.022,0-.01.026.006,0-.016.053.01v-.012c.045,0,.091.008.139.014l.005-.012.024,0,0-.01c.035,0,.069,0,.1,0l.017-.021a.323.323,0,0,0,.037.021l0-.013.025,0v-.014c.045.006.087.01.129.014a.114.114,0,0,0,.015-.024l.119.01,0-.026c.059.01.118.016.18.022v-.01a.093.093,0,0,1,.038.02l0,.01.052,0v.009c.026.012.054-.015.09.006l0,.012.024,0c0,.012.005.021.007.029l.056,0a.193.193,0,0,1,.007.028.5.5,0,0,1,.054,0,.121.121,0,0,0,.007.027c.032.018.064.008.086.027s.028.049.039.071l.064.011.029.055.014,0-.007.027a.088.088,0,0,0,.025.016l-.018.023.036.006c.02.033.041.069.062.1l.025.006,0,.011c.018.022.035.039.056.063l0,.01h-.013a.418.418,0,0,1,.005.051c.049.058.1.119.148.179l-.012.072.075.081,0,.023.022.017a.045.045,0,0,0-.009.049c.023.03.05.059.076.092l-.023.033c.008,0,.014.012.025.016l-.007.025a.329.329,0,0,0,.036.02.239.239,0,0,1,.027.131c.051.025.016.006.035.049l.02.013a.157.157,0,0,1-.019.033c.016.016.029.034.044.047l-.006.024a.075.075,0,0,0,.024.017.152.152,0,0,0-.018.036h.011l0,.026.02.013-.008.051a.252.252,0,0,0,.024.02c.01.025-.011,0,.007.025-.018.01,0,0-.026.008.007.014.01.027.017.041h.012c.012.031,0,.074.008.1a.059.059,0,0,1,.02.018.346.346,0,0,1-.016.035c.01.01.024.02.032.03a.293.293,0,0,0-.02.046.174.174,0,0,1,.031.03l-.011.064a.092.092,0,0,1,.023.016.185.185,0,0,1-.023.047l.023.017c0,.014-.024.02-.023.047.011.006.017.014.026.016-.007.013-.027.019-.02.047a.041.041,0,0,0,.02.015c-.007.02-.013.033-.02.049l.03.031-.017.032.011.005,0,.024.01,0c0,.014-.01.021-.017.037l.014,0c-.014.062-.014.047-.041.08-.034-.01-.063-.022-.1-.031a.129.129,0,0,0-.009-.028.25.25,0,0,1-.039.006l0,.012-.05-.01,0-.023-.025-.006c.013-.033.046-.121.018-.162,0-.035.005-.028-.033-.041,0-.051-.017-.043-.049-.072a.345.345,0,0,0-.021-.043l-.047-.01,0-.014-.027,0,.005-.013-.064-.012s.005-.014-.026-.018c-.008,0,0,.018-.026.006,0,0,0-.016-.024-.016,0,0-.005.016-.026.008l0-.01-.164-.031,0-.013h-.054a.019.019,0,0,0-.021-.015l0,.012-.088-.018s-.007.02-.028.006a.449.449,0,0,0-.071-.043c-.036,0-.052-.018-.089-.008s0-.039-.07-.027c-.005.008-.039,0-.043,0h-.011l0-.012a.15.15,0,0,0-.041.006l0-.014-.038-.006,0,.012c-.031,0-.06-.033-.111-.033l-.005.01a.2.2,0,0,0-.034-.018s0,.014-.027.008.006-.014-.011-.018v.016l-.039-.008,0-.014-.065-.011s0-.02-.022-.018l0,.016-.027-.006,0,.013-.049-.011,0-.014h-.014l0,.012-.089-.018,0,.016c-.038,0-.077-.01-.115-.012a.226.226,0,0,0-.036-.017l0,.009c-.048,0-.038,0-.076-.013l0,.023a.192.192,0,0,0-.068,0v.016a.194.194,0,0,1-.047-.026.216.216,0,0,1-.019.026l-.025,0c-.014.031-.045.06-.056.088a.021.021,0,0,0,.008.027l-.024.059-.012,0-.007.025-.011,0c-.025.02-.048.029-.064.067l-.025-.008a.228.228,0,0,0-.017.021l-.089-.013,0,.007-.075-.011,0,.011-.039-.007v.013l-.1-.019,0,.013-.074-.015,0-.012a.156.156,0,0,0-.041.006l-.062-.012s0-.015-.022-.019a.021.021,0,0,1-.029.009l-.007-.027c-.019-.012-.071.016-.105-.006a.139.139,0,0,0-.009-.027.24.24,0,0,0-.053,0l.005-.014c-.064-.014-.128-.031-.19-.051l0,.018a.482.482,0,0,0-.073-.027v.009a.329.329,0,0,1-.035-.031.092.092,0,0,1-.017.022h-.014l.005-.016-.077-.012s0,.016-.025.008c0,0,0-.016-.026-.018a.019.019,0,0,1-.028.008c-.008-.006,0-.031-.02-.031l0,.014-.2-.039a.062.062,0,0,0-.019-.051l-.012-.006a.162.162,0,0,0,.024-.045.071.071,0,0,0-.024-.016l.01-.062-.01,0c0-.02.017-.018.017-.02a.021.021,0,0,0-.007-.027c0-.016.014-.031.021-.049a.154.154,0,0,1-.05-.072l-.078-.014.007-.025a.264.264,0,0,1-.073-.051c0-.015-.02-.008-.02-.025-.023,0-.025-.024-.046-.024l0,.012a.373.373,0,0,1-.05-.023v-.012a.017.017,0,0,0-.025.008l-.012,0v-.012h-.064l0-.012-.013,0c-.007,0-.01.014-.016.02l-.014,0,0-.014-.052-.007.005-.012c-.034-.014-.05,0-.067,0l0-.012-.064-.012,0-.013a1.142,1.142,0,0,1-.117-.008v.012a.1.1,0,0,1-.074-.024v-.013c-.027-.018-.072.007-.093,0l0-.011a.041.041,0,0,0-.041.006c-.021,0-.021-.018-.021-.018a.021.021,0,0,0-.027.008c-.015,0-.031-.033-.063-.024v.012c-.071-.018-.053-.045-.1-.07l0-.012c-.013-.008-.07.019-.084.021-.012-.021,0-.017-.035-.029l.005-.025-.06-.012s0-.019-.026-.019a.021.021,0,0,1-.027.009l0-.011-.012,0,0,.013-.063-.009c-.007,0-.012.011-.019.019-.052,0-.1.018-.151.012a.237.237,0,0,1-.089.1l0,.013-.038-.008-.005.024-.03,0v.023a.089.089,0,0,0-.072.037c-.041-.011-.082-.023-.126-.037a.018.018,0,0,1-.026.01v-.014c-.021-.007-.049-.019-.071-.025l0,.024a.938.938,0,0,0-.1-.043c.007-.016.017-.034.023-.045s-.016-.006-.009-.026m5.028,1.61c.006.017,0,.015.021.029l-.006.012-.022,0c-.013.023-.025.033-.037.052l-.17-.005a.147.147,0,0,0-.018.025l-.036-.01,0,.01a.639.639,0,0,1-.074-.024.049.049,0,0,0-.016.024l-.064-.012,0,.012-.013,0c-.017-.047-.03-.035-.055-.063-.005-.015-.012-.027-.018-.042-.026-.008-.048-.018-.074-.026-.006-.014-.012-.029-.017-.039l-.041,0,0-.012a.469.469,0,0,1-.053,0l0-.014-.064-.011,0-.01-.078-.016,0-.013a.123.123,0,0,0-.048-.033l.007-.026a.09.09,0,0,1-.025-.016c-.011-.048.025-.076.021-.111h-.014l.008-.051-.008,0c0-.021.014-.021.014-.021l.009-.037-.015,0,0-.016.013,0,.021-.109a.735.735,0,0,0,.09,0s0,.025.022.029c.055-.023.079.019.125.023l.005-.013.012.006,0,.013.064.008c.005,0,0,.025.02.027a.1.1,0,0,1,.019-.017h.011v.01h.038v.007l.049.012.006-.012.035.006,0-.013.013.005c.011,0-.009.024.022.03a.1.1,0,0,1,.017-.026l.012,0,0,.012a.031.031,0,0,0,.029-.006c.022,0,.022.016.022.016.039,0,.077.008.118.01v-.012l.039.008,0-.012a.293.293,0,0,0,.037.016.024.024,0,0,0,.027-.008c.018,0,0,.006.009.017.027,0,.027-.009.027-.009.033,0,.033.017.051.021s0-.018.027-.006l0,.01a.287.287,0,0,0,.061.025v.129c-.012,0-.027.012-.041.018l0,.023-.014,0c-.044.071,0,.19-.1.2m-3.436-.948-.028-.006,0,.028-.029-.008a.383.383,0,0,1-.025.072h-.013l-.02.119a.208.208,0,0,1-.043.016l-.005.027a.4.4,0,0,0-.085.1l-.024-.008-.006.037a.255.255,0,0,0-.108.07c-.027,0-.057,0-.088,0l0,.013-.175-.033,0-.014-.028-.005,0-.012-.036-.006,0-.012c-.04-.025-.088,0-.115-.01l0-.013-.039-.008v-.014l-.024,0,0-.011c-.048-.028-.1-.018-.111-.034a.167.167,0,0,0-.034-.031.345.345,0,0,1,.032-.16l.009-.051.01,0a.118.118,0,0,0,.035-.047l.026.006.009-.049h.013l0-.008c0-.009-.032-.009-.017-.042l.013,0c.009-.025.016-.05.025-.072a.143.143,0,0,1,.043-.017l.005-.026.008,0c.019-.027,0-.033,0-.039s.011-.017.021-.045c.038-.006.082-.014.123-.019.011.009.022.013.034.021l0-.012c.019.01.04.016.06.026a.175.175,0,0,0,.017-.024c.05.012.1.028.151.039a1.125,1.125,0,0,1,.24.034l.166.033a.321.321,0,0,0,.032.043l-.007.025-.01,0c-.005.041-.007.082-.01.125m4.3,1.414c0,.018-.023.016-.023.045,0,.006.018.008.012.028h-.014l-.009.035-.009,0c-.006.015.016.023,0,.051l-.009,0-.014.06.014,0a.234.234,0,0,0-.021.053l.021,0v0H466.7v0l0,0,0,.009h0l-.005.045h-.012l-.007.061h-.007l0,0,0,.01a.116.116,0,0,0,0,.027.03.03,0,0,0-.022.01l-.005.017.008.008,0,.025-.01,0-.014.113-.027.01a.031.031,0,0,0,.008.037c-.006.011-.01.023-.019.039h.015c0,.025-.015.023-.015.023l-.008.059-.027.011c-.007.014.021.026.009.049a.053.053,0,0,1-.028.012.2.2,0,0,0,.01.037h-.011l-.008.026-.01,0c0,.017,0,.033.007.052l-.014,0c-.01.01-.037.02-.03.045l.01.006v.02h-.024c0,.037.01.037-.011.062a.167.167,0,0,0-.024.008c0,.022,0,.043.007.065h-.013c-.015.007-.007,0-.017,0v0h-.011c0,.018,0,.01.011.022-.013.025-.024.049-.034.072l.01.014-.013,0a.111.111,0,0,0-.015.033c-.005,0-.01,0-.013.006l0,.006-.013,0v0a.23.23,0,0,0,.01.037.233.233,0,0,0-.028.009v.012a.061.061,0,0,0,0,.025H466.3l-.005.027a.15.15,0,0,0-.026.012c0,.007,0,.015-.007.023h0a.128.128,0,0,1,.01.025h-.022l0,.007h0a.035.035,0,0,1-.017.02.353.353,0,0,0-.013.043h.012a.057.057,0,0,1-.019.019.2.2,0,0,1-.019.059l-.015,0,0,.039-.03.008c-.009.027-.021.055-.028.082l-.011,0a.615.615,0,0,1-.042.072c-.04.041-.019.045-.062.116l-.055.066a.145.145,0,0,1-.031.043l-.014,0-.005.025a.167.167,0,0,0-.027.008l-.009.035h-.012c-.023.02-.037.024-.049.055a.089.089,0,0,0-.025,0v.006c-.04.025-.055.07-.093.1l0,.023a.078.078,0,0,1-.028.01v.011a.35.35,0,0,1-.04.008l-.005.026.014,0a.086.086,0,0,0-.014.035l-.028,0v.027c-.026,0-.046,0-.069,0v.025c-.046.045-.113.1-.16.145h-.024l-.016.021c-.056.02-.053-.029-.082.043l-.029-.005v.039l-.025-.006c-.013.031-.009.027-.032.035l0,.014a.05.05,0,0,0-.049-.006c-.039.031-.077.068-.115.1-.013,0-.023-.027-.05-.017a.076.076,0,0,0-.017.023c-.012,0-.026.014-.039.018l0,.013-.022,0-.006.013a.113.113,0,0,1-.054.02v.025c-.051.018-.1.018-.123.072l-.028,0v.024c-.035,0-.07.045-.091.016l-.008,0-.027,0-.006.028c-.036,0-.07-.006-.09.013,0,.012-.011.022-.016.036l-.077-.008,0,.025c-.049,0-.1.006-.142.01a.061.061,0,0,0-.018.021h-.026v.009l-.055,0v.012l-.025,0-.014.022-.028,0v.011a.245.245,0,0,1-.117-.023l0,0-.006,0v.01l-.022,0v0l0,0,0,.011c-.016,0-.018-.011-.022-.013l-.005,0-.048.008,0,.011-.039,0v.014a.058.058,0,0,0-.018,0l0-.027a.211.211,0,0,0-.028-.014.4.4,0,0,0-.033.029l-.087-.015,0,.015-.05-.009v.009l-.076-.013,0,.011-.051-.009,0,.011c-.017-.006-.029-.015-.048-.023v.014l-.078-.014,0-.014h-.011l-.018.02-.01-.012-.011,0,0,.012-.091-.018-.005.012a.642.642,0,0,0-.07-.025l0,.013-.01,0v-.013a.146.146,0,0,0-.036-.018l0-.012c-.036-.015-.049.03-.093.008a.137.137,0,0,0-.006-.029.177.177,0,0,1-.1-.018l0-.011-.091-.016,0,.014-.061-.028v.014l-.012,0c-.007-.014-.012-.027-.019-.043-.029.006-.06.006-.09.01v-.012a.178.178,0,0,0-.035-.021l0-.01-.041-.008,0-.016a.27.27,0,0,1-.045-.019.022.022,0,0,1-.03.008l0-.014-.026,0,.006-.012c-.027,0-.092.012-.131-.011l0-.014-.026,0a.22.22,0,0,1-.01-.025l-.025-.006,0-.012-.053-.008,0-.015-.022,0a.174.174,0,0,1-.006-.028c-.046-.015-.091-.033-.137-.052l0-.02-.075-.019a.334.334,0,0,0-.007-.036c-.014-.027-.045-.035-.084-.043l.008-.025-.028,0,.008-.037c-.03.023-.05-.027-.084-.041l0-.025-.025,0c0-.059-.051-.075-.1-.108l.005-.025a.1.1,0,0,1-.045-.033v-.01l-.023-.006.005-.012a.169.169,0,0,1-.037-.033.3.3,0,0,0-.007-.029c-.026-.016-.04.012-.053.006-.028-.043-.054-.088-.08-.129a.052.052,0,0,0-.051-.012v-.01c-.017-.019-.013-.011-.017-.041l-.024-.008,0-.035-.024-.005c-.005-.075-.019-.026-.067-.061a.122.122,0,0,0-.009-.027l-.022,0c-.032-.061-.068-.114-.1-.174l0-.022a.51.51,0,0,0-.06-.025l.005-.023-.026,0c0-.016-.005-.028-.005-.043l.015,0v-.026l-.032-.017v-.012c-.006-.006-.016-.012-.022-.018l.005-.025c-.029-.037-.058-.072-.087-.1l.007-.025-.016,0a.078.078,0,0,0,.019-.021c-.025-.032-.051-.059-.075-.09V655.1c-.012-.016-.029-.032-.041-.049l.005-.024-.026-.017c.006-.01.016-.022.021-.032l-.024-.019,0-.024c-.009-.011-.02-.019-.032-.031l.02-.037-.023-.015.005-.026c-.017-.016-.026-.031-.043-.045l.007-.049c-.009-.009-.02-.021-.033-.033l.013-.06-.013,0c-.01-.018-.02-.035-.028-.053l.025,0c-.005-.045-.022-.037-.025-.08l-.026-.006c.005-.008.013-.014.016-.022l.017,0v-.013c-.01-.01-.023-.02-.035-.032l.012-.062a.155.155,0,0,0-.023-.014.107.107,0,0,0,.018-.035l-.018-.017a.17.17,0,0,1-.01-.039l-.009,0,.012-.012c0-.026-.006-.049-.011-.078.018-.014.006,0,.018-.022-.025-.011-.012,0-.023-.017h-.013c.008-.02.018-.041.024-.061a.24.24,0,0,1-.023-.016c-.011-.027,0-.023.012-.06l-.025-.008,0-.025.016.006c.012-.024-.014-.041-.018-.055l-.011,0a.47.47,0,0,1,.02-.047l-.014,0,.007-.025-.011,0a.1.1,0,0,1,.018-.033.049.049,0,0,0-.025-.018c0-.029.025-.033.025-.047l-.025-.017.01-.061s-.013,0-.005-.029l.011.006a.316.316,0,0,1-.006-.041.031.031,0,0,0,.019-.036l-.022-.015.021-.111-.012,0,0-.025s.023,0,.018-.023a.136.136,0,0,0-.023-.014c0-.01.015-.023.021-.035l-.014,0,.014-.063h-.016l.011-.062h-.011c-.008-.09.059-.2.059-.246h-.013c.006-.018.02-.016.02-.047l-.01,0V652.9a.02.02,0,0,0,.017-.023s-.012,0-.01-.024.013-.017.021-.023l-.013,0c0-.029.02-.029.021-.045v-.011l-.011,0a.151.151,0,0,0,.019-.034.025.025,0,0,1-.008-.031s.017,0,.02-.019c0,0-.016-.012-.01-.026l.014,0c.01-.041.025-.08.036-.123l.024.008,0-.016-.015,0c.008-.017.017-.037.027-.054,0,0-.019-.012-.01-.028h.015v-.011l-.013,0,0-.014.013,0c.016-.029.009-.025.045-.029v-.012a.358.358,0,0,0,.048.019l0-.021a.162.162,0,0,1,.041,0l.005-.014a.76.76,0,0,0,.082.039l0-.025a.1.1,0,0,0,.055,0l0,.012.05.01,0,.015h.013l-.008.035.015,0a.207.207,0,0,1-.092.061c.005.017.017.023.007.051l-.015,0,0,.011.026.016-.015.061a.062.062,0,0,0,.026.019l-.024.045a1.016,1.016,0,0,0,.078.092c-.008.017-.018.031-.024.045l.013,0c.016.039.039.041.034.1a.481.481,0,0,0,.089.018c.011.015.028.017.034.029l-.005.026c.005.009.014.009.021.025h.065l0,.025c.009.01.023.012.034.022l0,.01c.012,0,.033-.02.055,0l0,.011c.019.02.016.01.019.043l.026,0c0,.008,0,.02.006.028.035,0,.071.005.1.005l0,.014.016-.01c.045.016.091.026.137.039v.012l.022,0,0,.014a.257.257,0,0,1,.117.021l0,.012a.407.407,0,0,1,.051,0,.079.079,0,0,0,.008.023.457.457,0,0,0,.053,0l0,.012c.021,0,.026-.013.056,0a.032.032,0,0,0,.033.018l0-.01h.013a.137.137,0,0,1,.007.029c.034,0,.071,0,.105.006a.056.056,0,0,0,.016-.025l.05.023,0-.012c.025.008.041-.013.066-.009v.013l.041-.006-.006.014a.109.109,0,0,0,.051.02c.024-.053.067-.012.09-.063l.025.008a.5.5,0,0,1,.044-.1h.013l0-.019.012,0a.273.273,0,0,0,.02-.037c.046,0,.037-.018.082-.022.008-.023.02-.045.027-.07l.014,0a.17.17,0,0,1-.008-.039l.015,0,.008-.047a.122.122,0,0,0,.03-.024c.037,0,.073-.009.11-.015l.058.021v-.01l.041.008v-.013c.057-.006.052.031.1-.008.052.013.041.015.068.039v.014l-.027,0c0,.013,0,.029,0,.049,0,0-.017,0-.017.023,0,0,.014.006.007.027l-.011,0-.031.172.01,0c0,.026,0,.051,0,.076l.027,0-.013.061c.059.074.114.15.168.224l.016-.011.148.052c.008.014.012.03.02.045a.031.031,0,0,0,.036-.007.331.331,0,0,1,.035.029l0-.012.152.031s.007-.015.029-.009l-.005.015c.041,0,.087.008.13.008a.055.055,0,0,1,.018-.019l.051,0c.006-.006.011-.014.02-.024l.023,0a.087.087,0,0,0,.017-.033l.061-.028.012-.058c.053-.008.014-.01.044-.031.009-.01-.018-.041,0-.041.007-.02,0-.039,0-.059a.3.3,0,0,1-.033-.018l0-.011c-.084-.016-.067,0-.151-.022a.162.162,0,0,0-.01-.025.406.406,0,0,0-.178-.035l0,.013c-.028-.009-.054-.017-.085-.025l0-.016-.013,0,.02-.109a.16.16,0,0,1,.027-.006c.036-.056,0-.109.054-.142,0-.008.012-.018.017-.026l.064.014,0,.012h.011c.012,0,0-.018.041,0v.009c.012,0,.028-.019.051,0a.241.241,0,0,1,.018.04h.069l0,.011c.031,0,.068.006.1.008.008-.008.013-.016.02-.019.029-.01.045.019.058.019l.005-.012.049.01a.166.166,0,0,1,.017-.019l.075.009,0-.007a.482.482,0,0,0,.06.023l.089.016v-.014l.014,0-.005.01c.042.005.078.007.116.013a.089.089,0,0,0,.032.041l-.009.065h.009c0,.017-.026.017-.02.047.01.005.016.013.025.017l-.011.049c0,.01.018,0,.021.039l.024,0a.2.2,0,0,1,.005.031h.016l0-.012.074.016v.012l.113.019v.01l.025.01,0,.012a.438.438,0,0,1,.061.023v.012c.028.013.037-.006.052,0,.012.023.025.045.039.07s.038-.006.052,0l0,.014.025,0,0,.015c.015,0,0-.009.015-.013s.021.019.021.019l.064.01a.048.048,0,0,1,.01.029l.025,0a.083.083,0,0,0,.007.026l.027.008-.005.011h.012l.005-.01c.012,0,.022.012.037.018a.049.049,0,0,1,.066-.014l0,.014.027.006c.008.023,0,.01.016.031a.1.1,0,0,0,.063.022.049.049,0,0,1,.059.035c.025,0,.048.01.075.008s.041.041.087.035l0-.01.024,0,.005-.014.05.012.019-.025.036.007v-.009a.892.892,0,0,1,.1.029l0-.012a.154.154,0,0,1,.054-.015l.007-.024a.283.283,0,0,1,.042,0l0-.013.021,0,0-.009.049.019c.034-.068.059-.017.088-.047l0-.027.036.008,0-.01h-.014c.011-.019.021-.014.029-.021l.007-.026a.347.347,0,0,0,.055-.027l.009-.035h.011c.007-.016.017-.032.023-.047l.086-.047,0-.012a.451.451,0,0,1,.105,0s0,.016.023.016a.019.019,0,0,1,.026-.008c.017.008-.007.02.012.014a.189.189,0,0,1,.027-.02.166.166,0,0,1,.008.037c.026,0,.054,0,.079.006l0-.013c.021,0,.012.025.021.029a.029.029,0,0,0,.038,0,.489.489,0,0,1,.076.027c-.006.037-.007.082-.011.127a.05.05,0,0,0-.017.018.034.034,0,0,1,0,.041l-.012,0-.01.058Zm-1.8-1.834.1.016,0,.018.053.007,0,.008c.025.012.066-.015.1.01.005.006,0,.018.034.031l-.005.024s.034-.016.053,0v.009a.476.476,0,0,0,.041.047c.014-.006.046-.037.071-.023a.057.057,0,0,0,.008.023.215.215,0,0,0,.048.024c.013-.02.022-.016.035-.043a.2.2,0,0,1,.1.017l0,.012.026.008a.04.04,0,0,0,.01.023l.038,0,0,.012.024,0v.014a.021.021,0,0,0,.026-.006l.063.01,0,.011c.026,0,.046,0,.068,0l0,.012c.021,0,.025-.012.055,0l0,.014.013,0a.034.034,0,0,1,.039-.008l0,.016h.013a.1.1,0,0,0,.041-.007v.013l.011,0,.043,0-.005.012a.466.466,0,0,1,.053,0,.057.057,0,0,1,.052,0c.03-.016.051.006.08-.01a.067.067,0,0,1,.018-.021l.024,0,0-.014.078.006,0-.014.029,0s.01-.02.029-.02l.007-.037-.017,0a.246.246,0,0,0,.021-.035l-.011,0c.008-.049.017-.06-.025-.082l-.037-.006c-.007-.019-.012-.037-.018-.052-.024-.018-.039.006-.053.006l0-.016-.025-.006a.1.1,0,0,1-.007-.025c-.041-.026-.111.007-.135,0l.005-.012-.024-.006a.236.236,0,0,1-.019-.039l-.041,0,0-.008-.038-.01s-.008-.017-.021-.029l0,.024-.065-.012s0-.018-.024-.014v.01l-.036-.006-.005.01c-.021-.006-.041-.018-.062-.024l0,.014-.086-.019.009.017,0,.012a.154.154,0,0,0-.048-.022l-.005.024-.013,0a.069.069,0,0,0-.009-.029c-.011,0-.023.005-.04.005l0-.011a.1.1,0,0,1-.036-.02l0,.016-.051-.01,0,.01c-.04,0-.021-.033-.059-.037v.013l-.016,0,.005-.013-.228-.041,0-.014c-.059-.021-.158.049-.209-.014a.181.181,0,0,0-.051,0c-.018.041-.038.1-.074.114l-.012.062c.012.037.068.037.105.057Zm-3.515-.875c.009.051.045.028.011.092.025.024.025.047.068.065l-.006.011c.017.012.013-.019.032-.019a.083.083,0,0,0,.008.025c.021.012.052-.013.088.006l0,.01c.028,0,.056,0,.079,0v.015l.049.01.009.026.026,0,0,.013c.079.012.159.022.241.031,0,.01.027.006.029.016.042.029.034.018.07.018a.135.135,0,0,1,.036.019v-.014l.028,0c.012,0,.012-.031.043-.015a.192.192,0,0,0,.031.017c0-.006.011.01.018,0h.13a.355.355,0,0,0,.034.024l0-.014.039.006,0-.014.05.01a.125.125,0,0,0,.016-.023.16.16,0,0,1,.094-.006l.007-.035.012,0,0-.015c.01.006.017.012.024.017l0-.011c.021-.012.02-.006.031-.031.025,0,.012,0,.028-.01l.013,0,.01-.051a.146.146,0,0,0,.027-.006l-.009-.016c0-.011.011-.021.018-.035a.188.188,0,0,1-.029-.054.167.167,0,0,1-.021-.018c-.012.006-.014.018-.043.008l.005-.018-.028,0,0-.012c-.016-.005,0,0-.014.008s-.024-.013-.024-.013l-.063-.014a.172.172,0,0,0-.009-.027c-.017-.01-.025.007-.029.007a.017.017,0,0,1-.019-.017l-.013,0-.005.014c-.038-.014-.081-.026-.122-.038l0,.012a.24.24,0,0,1-.052,0l0,.01-.036-.006v.014c-.055,0-.034-.045-.086-.041l0,.011-.05-.009a.173.173,0,0,0-.017.021c-.051-.012-.1-.027-.149-.037l0-.016-.013,0,0,.014-.037,0,0,.008c-.034,0-.034-.02-.05-.02l0,.012-.112-.035,0,.014-.013,0v-.012l-.022,0v-.013l-.081.009c-.018-.009-.046-.049-.093-.043l-.008.014-.024,0,0,.012c-.028,0-.03-.016-.048-.022l0,.01c-.025.012-.033.031-.058.041,0,.016.016.025,0,.053l-.011,0,0,.012.024.017a.32.32,0,0,1-.02.033m2.255,3.9-.064-.008s0,.01-.027,0c0,0,0-.02-.022-.014s-.032.028-.046.039c-.048.01-.052-.029-.062-.037s-.02.01-.051.006a.245.245,0,0,0-.053.076.243.243,0,0,1-.094-.015c-.01.017-.017.013-.031.043-.05,0-.04.011-.072-.028a.12.12,0,0,1-.009-.027,1.1,1.1,0,0,1-.115-.008c-.027-.012-.052-.039-.084-.053,0-.039-.043-.066-.035-.095l.017-.01c-.022-.014-.046-.012-.073-.028l0-.011-.064-.01c0-.01-.007-.019-.009-.027-.018-.014-.039,0-.039,0l-.013,0,0-.012c-.023,0-.045,0-.067,0l0-.014-.138-.025,0,.014c-.036.013-.044.046-.078.062l-.005.021.023.018,0,.012-.012,0c0,.025.009.027.009.027a.183.183,0,0,0-.019.037c0,.024.029.073,0,.114l-.013,0a.482.482,0,0,1-.023.046c.036.01.043.014.059.036l0,.011c.027.03.024-.007.031.045a.134.134,0,0,1,.071.053l.012,0v.064a.141.141,0,0,0,.077.012.269.269,0,0,0,0,.039.511.511,0,0,1,.056,0l0,.012.023.008a.067.067,0,0,1,.007.023l.055,0s0,.024.02.03a.032.032,0,0,1,.042-.006.187.187,0,0,0,.021.043l.051,0a.192.192,0,0,1,.007.027c.015.008.005-.006.015-.012.028,0,.027.016.027.016l.123.025,0-.025c.025.014.01,0,.025.016l.036.009,0-.013.036.019a.133.133,0,0,1,.032-.031.534.534,0,0,0,.05.02v-.012l.028.006a.125.125,0,0,1,.016-.024l.022.018c.008-.01.024-.022.034-.033l.025.006,0-.01a.6.6,0,0,1,.079-.014c.029-.055.013-.01.057-.027a.39.39,0,0,0,.046-.039l.039,0c.007-.012.015-.032.023-.045s.036-.006.055-.006a.576.576,0,0,1,.022-.055l-.011-.016.054-.017c0-.024,0-.049,0-.074l.013,0a.333.333,0,0,0,.019-.038c-.045-.029-.092-.1-.148-.113Z" fill="#0070c3"/>
    <path id="Path_1938" data-name="Path 1938" d="M462.777,658.011a.051.051,0,0,0,.019-.02c.015,0,0,0,.009.014l.094.006a.1.1,0,0,1,.005.025l.012,0,0-.01.07.01,0,.012.073,0,.007.025.047,0,.02.039c.015.008.022-.008.024-.008a.188.188,0,0,1,.088.03c.005.076.024.023.071.058l0,.012a.3.3,0,0,1,.041.047.512.512,0,0,1,0,.068l.015,0c-.008.016-.023.014-.023.043l.012,0v.012a.025.025,0,0,0-.018.019c.005.01.005.018.01.026s-.016,0-.016.019a.039.039,0,0,1,0,.039l-.011,0v.01l.009,0a.449.449,0,0,0-.018.047.033.033,0,0,1,0,.035l-.013,0a.319.319,0,0,0,.018.041l-.012,0-.01.057h-.015v.012l.012,0v.009l-.012,0-.009.047-.012,0a.113.113,0,0,1,.005.039l-.012,0-.007.033-.009,0-.012.058-.013,0v.012l.011,0,0,.012c-.007,0-.016,0-.024,0l.011.015-.005.01-.009,0-.01.047-.011,0,0,.023c-.036,0-.074.012-.112.014v.014l-.025-.006,0,.012c-.014,0-.017-.016-.017-.016-.02,0-.024.014-.051,0,0,0,0-.018-.024-.018V659c-.015-.006-.025-.014-.045-.023v.015c-.041-.006-.079-.006-.118-.011v-.014c-.036-.014-.072,0-.091,0v-.014l-.036.006,0-.012a.307.307,0,0,0-.029-.017.111.111,0,0,1-.019.019l-.009-.011-.057-.01,0-.014a.424.424,0,0,1-.048,0c-.009,0,0-.027-.02-.027l-.005.025c-.009-.008-.023-.013-.033-.021l-.005-.024-.059-.01,0-.011c-.049-.043-.007-.032-.023-.088l-.02-.016c0-.017.007,0,.016-.01l.029-.16-.012,0,.017-.08s.013.006.013-.019a.027.027,0,0,1-.006-.027.02.02,0,0,0,.016-.02l-.01,0,.007-.047-.011,0a.021.021,0,0,1,.015-.021c.007-.022-.009-.026-.009-.026,0-.027.016-.027.023-.041s-.015-.011-.023-.019a.992.992,0,0,1,.035-.17l.009,0a.441.441,0,0,0,.02-.045l.012,0a.088.088,0,0,0,.034-.041l.092.019c.015-.017.029-.029.042-.045.044.008.086.012.128.016v.01Z" fill="#ffec00"/>
    <path id="Path_1939" data-name="Path 1939" d="M464.021,661.538l-.007-.021.009,0a.042.042,0,0,0-.017-.02.059.059,0,0,0,.017-.019.075.075,0,0,0-.021-.03l.023,0c0-.016-.007,0-.013-.01-.006-.03-.011-.061-.018-.092l-.024,0c0-.014.007-.029.009-.041l-.038-.01a.215.215,0,0,0-.005-.051l-.01,0-.019-.054-.022-.006c-.007-.016.01-.028-.007-.049l-.023,0-.013-.045-.012,0a.981.981,0,0,1-.022-.1l-.01.005-.018-.056-.011,0c-.007-.014.011,0,.009-.014s-.018-.017-.018-.017l-.021-.069-.027-.006c-.005-.017.012-.013.016-.027s-.027-.014-.031-.016c0-.017,0-.031,0-.047l-.027-.005c-.009-.024-.024-.051-.036-.077l.012,0,0-.009-.008,0-.019-.055-.009,0c-.019-.022,0-.039-.006-.049a.1.1,0,0,1-.024,0c0-.015,0-.035-.005-.051a.093.093,0,0,0-.023,0l-.006-.015h.013l-.026-.078-.012,0-.007-.024-.01,0c0-.012,0-.027,0-.037a.117.117,0,0,1-.029-.018l.025-.008c-.025-.033-.034-.017-.058-.056l.024,0,0-.012a.073.073,0,0,1-.045-.023c.005-.01.022-.016.014-.03l-.026,0a.247.247,0,0,0-.005-.049l-.019.01c-.019-.043-.041-.08-.06-.12l-.01,0a.016.016,0,0,1,0-.025l-.009-.033-.015,0v-.012s.017-.012,0-.023a.129.129,0,0,0-.024-.008.238.238,0,0,1,0-.037l-.014,0,0-.012h.01a.139.139,0,0,0-.016-.02s.012-.008,0-.027c0,0-.016,0-.018-.018l.01,0c0-.023-.016-.017-.016-.021l-.019-.055-.011,0-.008-.023-.011,0c-.007-.012.011,0,.01-.012s-.018-.02-.018-.02l-.023-.066-.011,0-.014-.045-.013,0,0-.021-.014,0-.011-.047-.012.006v-.039l-.011,0c-.007-.015-.019-.027-.026-.043l.022,0v-.011a.056.056,0,0,1-.031-.012l.012,0v0l-.016-.033c0-.016-.02-.01-.02-.028l-.023,0,0-.01s-.013,0-.026.006v0l0,.015,0-.009a.226.226,0,0,0-.035-.018v.021c-.02,0-.02-.021-.045-.019l0,.012c-.042,0-.066-.03-.091-.03l0,.014c-.013-.01-.028-.014-.04-.023l-.005.013c-.01,0-.021-.013-.031-.017l0,.009-.1-.017,0,.012c-.019,0-.017-.016-.019-.018a.143.143,0,0,0-.073,0,.02.02,0,0,0-.019-.018l-.005.016a.949.949,0,0,0-.106-.012s-.008.014-.014.014v0l-.007,0-.005,0v0a.166.166,0,0,0-.026.027l-.011-.01-.023.03-.009-.008,0,.01.007.005c-.031.034-.059.065-.09.094l-.007,0-.016.018-.01-.008-.019.027-.01-.007-.022.027-.009-.008-.01.01s.01.016,0,.025l-.009-.006-.014.02-.01-.01a.541.541,0,0,0-.066.069l-.011-.008c-.015.009.009.025,0,.033l-.007.01-.01-.01-.019.029a.129.129,0,0,0-.028,0,.087.087,0,0,1-.011.032l-.009-.006-.013.019-.01-.006-.019.026-.013-.006-.02.025-.012-.008a.318.318,0,0,1-.059.057l-.007-.006c-.006.014-.009.026-.013.037l-.012-.007-.026.037c-.014.009-.007-.012-.019,0l.008.005a.453.453,0,0,1-.051.047l-.007-.007c-.007.013-.009.025-.015.035a.1.1,0,0,1-.023-.006c-.032.033-.06.06-.092.1l-.009-.008-.036.045-.009-.008-.034.049-.008-.01-.038.047-.011-.006-.043.057-.01-.01-.011.035-.011-.008-.036.047-.009-.01-.044.057-.007-.006-.029.037-.011-.008-.041.055-.013-.008-.007.01,0,.018-.009-.008-.017.017-.008-.006c-.044.051-.087.1-.133.149l-.008-.008-.023.027-.01-.007a.358.358,0,0,1-.01.035l-.009-.008-.031.039-.008-.008-.043.057-.01-.008-.029.037-.01-.01-.007.01v.02l-.009-.01-.109.121-.008-.006-.03.035-.01-.006a.125.125,0,0,0-.013.036l-.009-.006-.02.023-.01-.006c-.008.016-.013.03-.02.045l-.009-.008-.05.063-.012-.006-.021.029-.008-.007c-.016.011-.007.023-.007.023-.014.016,0,.023-.014.035.033.016-.016.026-.011.035-.011.018.006.024,0,.035l.031.034-.019,0h.019c.01.005-.007.015,0,.017l.012.008c-.006.092.05.088.07.144l-.005.049c.019.016.035.036.055.051l0,.022.012,0c0,.015-.021.015-.005.046s.046.043.066.063-.01.019-.015.023a.425.425,0,0,1,.031.049l.036.006c-.007.01-.009.021-.016.031l.012,0c.014.016,0,.006.023.016.012.08.063.125.078.219.05.013.036.043.086.064a.362.362,0,0,1,.006.049h.012a.143.143,0,0,0-.013.035h.013a.208.208,0,0,1,.038.076l-.022,0c.02.03.044.059.063.086h.011v0l-.011,0a.014.014,0,0,0,.005.02.108.108,0,0,1-.012.027s.007.006.01.01-.005.016-.01.027a.294.294,0,0,1,.037.014c0,.074.036.082.061.117a.035.035,0,0,0-.007.027H461l0,.026s.007,0,.01.008v.013a.1.1,0,0,1,.026.028s.005.007.005.013h.019l.005.006v.026h.011c0,.015-.018.017,0,.044l.068.065c.009.019-.01.017-.014.023a.476.476,0,0,1,.033.049h.037a.359.359,0,0,1-.016.035h.012c.016.016,0,0,.025.014.014.084.068.123.082.215.052.017.041.045.091.062a.243.243,0,0,1,.008.047l.012,0a.324.324,0,0,1-.012.033h.01c.018.03.036.037.046.073h-.026c.022.029.047.054.068.086h.012a.284.284,0,0,1-.017.046c.026.026.054.051.081.077a.121.121,0,0,0-.013.031l.028.025-.019-.008.01.012c-.006.012.005.026,0,.035a.437.437,0,0,0,.03.032c.014.039-.016.027-.011.056l.011,0,0,.026a.179.179,0,0,1,.03.027c0,.01.017.027.022.041l.023,0-.008.023a.172.172,0,0,1,.046.02v.011l.1.018,0,.01.025.006v-.014l.052-.025.024-.032.015,0,0-.021h.01l.008-.037a.127.127,0,0,0,.025,0l.007-.022a.143.143,0,0,1,.037-.019l.007-.018.006-.008.009-.031.014,0,.005-.021.01,0,.009-.036a.085.085,0,0,0,.026,0l.006-.023c.011-.006.026-.008.039-.016a.493.493,0,0,0,.027-.064c.009,0,.015,0,.027,0,.012-.021.027-.043.039-.062a.121.121,0,0,1,.025-.008l.007-.02.009,0,.007-.025a.1.1,0,0,1,.039-.012l.008-.035c.028-.035.046-.022.069-.082l.023.01.024-.057c.07-.006.016-.014.048-.049.019-.006.036-.008.053-.012a.45.45,0,0,1,.027-.054l.009,0,0-.037.022,0a.086.086,0,0,0,.019-.03l.012,0,.008-.035.014,0a.047.047,0,0,1-.008-.026l.022.006.005-.013a.109.109,0,0,0,.024,0c.032-.028.022-.055.075-.055.013-.021.025-.041.039-.062l.023,0a.109.109,0,0,1,.033-.037h.012l.01-.031a.345.345,0,0,1,.051-.021l.006-.026v0l.028,0c.011-.027.029-.056.042-.087h0V662.6l0,0c.01,0,.019,0,.029,0l0-.018.008-.006.005,0,0,0a.166.166,0,0,0,.012-.026h.011l0-.021a.05.05,0,0,0,0-.016l.015,0c0-.01,0,0,0-.008a.027.027,0,0,0,.016-.006.343.343,0,0,0,.038-.06.047.047,0,0,0,.026-.01l.006-.02.01,0,.007-.023a.241.241,0,0,1,.037-.016l.008-.035c.027-.033.046-.02.066-.082l.023.008.025-.055c.068-.006.013-.016.047-.051a.473.473,0,0,0,.05-.013.428.428,0,0,0,.025-.053h.012l-.005-.035.023,0c.006-.008.014-.022.02-.032l.013,0,.007-.033h.01l-.007-.025.026.006,0-.012c.006,0,.017-.006.024-.006.032-.027.016-.055.071-.055a.661.661,0,0,1,.041-.062l.021,0a.086.086,0,0,1,.036-.039h.009l.009-.033a.329.329,0,0,1,.053-.022l0-.025a.126.126,0,0,1,.026,0c.016-.035.031-.069.048-.1a.094.094,0,0,1,.025-.006l0-.025.012.006a.19.19,0,0,1-.007-.028h0a.039.039,0,0,0,.024-.007v0l.029-.01.007-.008" fill="#ffec00"/>
    <path id="Path_1940" data-name="Path 1940" d="M467.705,663.739l-1.309-.82-1.334-.258-.048-.2.1-.541,1.644-5.152.8.111.16-.43.854.283.343-.354.373.158.772.566.113-.053,1.392.453.539.219.043.174-.127.656.131.168.5.395-1.918,2.855-.565.918.387.35.032.318-.437.693-.635.615-.586.123-.887-.213-.2-.078-.337-.471Z" fill="#fff" fill-rule="evenodd"/>
    <path id="Path_1941" data-name="Path 1941" d="M468.789,656.272a1.939,1.939,0,0,0,.2.039l0,.024a.268.268,0,0,1,.043.012l0,.019c.026,0,.048-.006.074-.01a.082.082,0,0,1-.006.026c.073.029.146.054.218.088,0,.013-.006.029-.01.043a.674.674,0,0,1,.153.054c0,.057,0,.043.032.075l0,.023c.038.008.075.016.114.021a.3.3,0,0,0,.013.051c.043.022.082.047.125.071a.079.079,0,0,1,0,.021.292.292,0,0,1,.042.01.4.4,0,0,1,.015.049l.067.013c.042.028.078.084.12.118,0-.018.006-.032.008-.045a.635.635,0,0,1-.086-.043c0-.03,0-.061-.007-.092a1.179,1.179,0,0,1,.236.115l.157.029,0,.022c.112.029.223.06.337.088a.136.136,0,0,0-.005.025l.579.133,0,.023.311.084a.113.113,0,0,1,0,.024c.072.019.148.043.222.064a.075.075,0,0,1-.008.024l.091.015a.055.055,0,0,1,0,.024c.057.021.118.037.179.056,0,.018.006.036.01.051.082.022.163.049.243.07v.022c.013,0,.03.006.045.01s.009.031.013.047a.346.346,0,0,1,.062.041c-.012.056-.02.117-.033.175-.05.139-.1.278-.151.416-.01,0-.015,0-.023,0-.059.113.008.171-.007.279.04.008.075.013.111.021a.254.254,0,0,1,.016.049c.038.014.07.029.11.043a.31.31,0,0,0,.011.051c.064.027.13.055.2.088.005.014.01.029.014.045.029,0,.037-.014.093-.006-.011.019-.022.045-.034.064l.023,0c.018.032,0,.008.042.033-.005.014-.008.03-.013.045.071.026.092.039.1.11a.076.076,0,0,0,.02.006c.016.048-.034.115-.048.13-.006,0-.014,0-.022,0-.005.029-.012.058-.017.089a.066.066,0,0,0-.024,0l-.01.044a.581.581,0,0,0-.072.034c-.008.019-.01.043-.017.066a.273.273,0,0,0-.047.012l-.014.07a.337.337,0,0,1-.05.01c0,.025-.009.049-.012.072a.043.043,0,0,0-.022-.006.758.758,0,0,0-.039.088.182.182,0,0,0-.025-.006c0,.024-.009.043-.01.067l-.023-.006a.218.218,0,0,0-.01.045.053.053,0,0,1-.023,0c-.022.045-.047.086-.071.129a.071.071,0,0,0-.022-.006c-.007.031-.014.062-.018.09a.043.043,0,0,1-.022,0,.442.442,0,0,0-.01.045.033.033,0,0,0-.019,0c-.008.031-.013.058-.02.09a.035.035,0,0,1-.021-.006c-.006.023-.01.047-.015.07l-.022-.006c-.014.028-.025.057-.041.088a.074.074,0,0,1-.021-.006c-.007.024-.009.043-.014.069-.006,0-.013-.006-.022-.006a.382.382,0,0,0-.007.045l-.053.015a.386.386,0,0,1-.008.045l-.022-.006c-.006.032-.011.063-.017.09-.016.008-.034.01-.049.016-.005.029-.013.058-.017.088a.369.369,0,0,1-.053.015c-.039.09-.082.186-.12.282a.049.049,0,0,0-.025-.006.911.911,0,0,1-.038.086.1.1,0,0,1-.023-.008c0,.017-.005.031-.009.049a.078.078,0,0,0-.02,0c-.018.035-.03.072-.046.107a.4.4,0,0,1-.05.012c-.013.039-.03.074-.044.109a.217.217,0,0,1-.05.014c-.007.039-.013.076-.023.113l-.02,0c0,.014-.006.03-.011.047l-.048.012-.027.135a.077.077,0,0,1-.021,0c0,.015-.007.031-.009.043-.025.013-.049.021-.077.033-.048.084-.093.17-.141.256-.025,0-.05,0-.073.008,0,.029,0,.062.007.093l-.051.016c0,.016-.006.027-.008.045a.089.089,0,0,0-.025-.008.338.338,0,0,1-.008.047h-.022c-.026.023-.023.031-.038.082a.188.188,0,0,1-.046-.01c-.007.039-.013.076-.022.115-.014,0-.031,0-.044-.009-.027.111-.075.125-.113.211a.612.612,0,0,1-.069.009,1.045,1.045,0,0,0-.091.219.121.121,0,0,0-.045-.01.657.657,0,0,1,.009.073c.11.07.285.175.292.31.058.03.049.018.054.082a.079.079,0,0,1,.022.006c-.006.029-.011.057-.018.09a.458.458,0,0,1,.046.008c.007.051.013.1.017.144a.128.128,0,0,1-.019,0,.262.262,0,0,0,.01.046.335.335,0,0,1-.042-.006c-.012.026.041.077.022.122-.006,0-.016-.006-.022-.006-.005.031-.012.064-.019.091a.043.043,0,0,1-.021,0c0,.008,0,.017,0,.023a.075.075,0,0,0,.023,0c-.032.084-.065.162-.094.242a.205.205,0,0,1-.049.012c-.01.047-.017.094-.025.137a.127.127,0,0,1-.026,0c-.012.035-.029.072-.043.107l-.022-.006a.275.275,0,0,1-.009.045l-.022,0c0,.02-.01.043-.012.067l-.051.015c-.01.028-.026.057-.038.084l-.052.014c-.012.021-.021.041-.034.062-.008,0-.014,0-.023,0a.188.188,0,0,0-.064.082.252.252,0,0,0-.043-.008c0,.015-.005.029-.009.045-.016,0-.03-.008-.043-.01,0,.014-.007.029-.011.045a.071.071,0,0,1-.022,0c-.045.035-.093.076-.138.113-.016,0-.032-.008-.043-.008-.024.018-.04.039-.062.057a.721.721,0,0,1-.093.006.319.319,0,0,0-.032.041l-.045-.01,0,.022a.337.337,0,0,1-.065-.012c-.013.014-.022.029-.034.041a.418.418,0,0,0-.07.01c-.03.025-.058.051-.085.076a.345.345,0,0,0-.045-.006l-.005.021c-.05.008-.1.01-.144.018l-.007.024-.088-.018v.021c-.056-.007-.107-.019-.161-.029a.049.049,0,0,0,0,.024c-.105-.022-.209-.041-.316-.061a.085.085,0,0,0,0-.025.149.149,0,0,1-.043-.01l0-.02-.092-.019a.07.07,0,0,0,.007-.022c-.018,0-.029-.006-.045-.008l0-.023c-.021,0-.043-.008-.065-.014,0-.006,0-.013,0-.021l-.448-.11a.118.118,0,0,1,.007-.023,1.009,1.009,0,0,1-.133-.049.29.29,0,0,1-.013-.047c-.027-.015-.057-.025-.086-.041,0-.015-.009-.033-.014-.048l-.084-.042c-.018-.033-.034-.066-.053-.1-.012-.008-.026-.016-.041-.027.006-.018.006-.032.012-.047-.023-.018-.042-.039-.061-.057-.037-.088.009-.144,0-.258a.049.049,0,0,1-.02,0,.6.6,0,0,1,.018-.088.064.064,0,0,1,.02,0,.545.545,0,0,0-.011-.073c.018,0,.035-.008.052-.011s0-.032.007-.045c.032-.039.083-.08.116-.12-.023-.017-.024-.044-.034-.054a.179.179,0,0,1-.046-.01.176.176,0,0,0,0-.019c-.023-.006-.045-.008-.068-.016a.073.073,0,0,0,0-.022.3.3,0,0,0-.044-.007.156.156,0,0,1,0-.024l-.131-.049a.058.058,0,0,0,.005-.021l-.068-.014.007-.019a.476.476,0,0,0-.071-.016l.006-.022a.621.621,0,0,0-.067-.013l0-.02c-.036-.009-.075-.019-.109-.025,0-.008,0-.014,0-.022a.283.283,0,0,0-.047-.007.1.1,0,0,0,0-.024l-.066-.014c-.005-.017-.012-.033-.016-.048-.1-.061-.194-.116-.293-.174-.155-.039-.311-.078-.468-.113a.117.117,0,0,0,0-.028.4.4,0,0,1-.091-.015.085.085,0,0,1,0,.023.127.127,0,0,1-.026,0,.108.108,0,0,0,.007-.025c-.043-.014-.05.017-.05.017a.067.067,0,0,1-.064-.039.263.263,0,0,1-.05.016.652.652,0,0,0-.2-.063c-.1-.019-.21-.041-.314-.058,0-.018-.01-.035-.013-.053-.036-.014-.041.035-.055.037-.046-.006-.091-.015-.138-.025a.069.069,0,0,0,.006-.024c-.032,0-.063.006-.095.008a.258.258,0,0,0-.013-.051l-.069-.013a.09.09,0,0,0,.006-.022.317.317,0,0,0-.1-.092c0-.021.008-.043.009-.066s.157-.055.074-.127a.251.251,0,0,0,.045.01c0-.045,0-.094,0-.139.023-.023.026.014.026-.017a.065.065,0,0,0-.021-.008c0-.014.006-.028.008-.043l-.022,0c0-.016.007-.029.009-.043-.026-.031-.052-.057-.078-.086-.02-.08.1-.275.116-.354-.023-.011-.046-.025-.066-.033a.127.127,0,0,0,0-.025.125.125,0,0,0,.026.006c.006-.039.013-.074.021-.114l.02,0c.011-.054.023-.107.032-.156a.082.082,0,0,0,.022,0c0-.014.005-.031.009-.043a.1.1,0,0,0,.024,0v-.113a.093.093,0,0,1,.022,0,.3.3,0,0,1,.009-.043.073.073,0,0,1,.02,0c.034-.129.064-.252.1-.381a.176.176,0,0,0,.045.009.209.209,0,0,1-.007-.095.072.072,0,0,0-.022,0c0-.037.046-.022.054-.037l0-.022c-.008,0-.016,0-.023,0,.007-.037.015-.076.021-.111a.1.1,0,0,1,.024,0c.024-.049-.005-.061-.005-.092l.05-.017q-.006-.033-.009-.069a.13.13,0,0,1,.022,0,.359.359,0,0,1,.007-.047.064.064,0,0,1,.022.006l.007-.023-.024,0q.033-.172.063-.342a.058.058,0,0,0,.025.006c0-.029.012-.059.015-.09.01,0,.017,0,.023,0,.005-.055.008-.107.01-.162l.024,0c.036-.059.04-.108.077-.172a.05.05,0,0,0,.024.006c.048-.17.1-.34.145-.51l.047-.014c-.008-.033-.018-.066-.026-.1h.022l.1-.284.018.03a.445.445,0,0,0,.047-.016c0-.062-.016,0,.017-.066a.136.136,0,0,0-.026,0c-.029.017,0,.008-.048.015a.946.946,0,0,1,.1-.169c.009-.055.018-.1.029-.157l.023,0a.426.426,0,0,0,.011-.064h.025c.025-.069-.058-.063-.02-.143a.078.078,0,0,1,.023,0l.01-.066a.1.1,0,0,0,.023,0c.025-.08.047-.163.073-.243a.036.036,0,0,1,.02.006c.01-.039.016-.078.023-.115a.084.084,0,0,0,.023.006c.006-.024.007-.047.013-.07l.022.007c.055-.1-.022-.171,0-.236a.092.092,0,0,0,.022.006c.03-.07.06-.147.087-.217a.108.108,0,0,0,.024,0,.614.614,0,0,1-.008-.07.151.151,0,0,1-.026-.006c0-.035.033-.035.033-.039v-.117c.013,0,.031.006.045.007,0-.021-.007-.048-.012-.07a.422.422,0,0,1,.051-.014c.007-.046.017-.091.026-.136a.063.063,0,0,1,.022.008c.015-.042.029-.075.044-.11a.043.043,0,0,1,.023,0,.08.08,0,0,0,.005-.023l.111.019a.116.116,0,0,0,0,.024l.135.027c0,.008,0,.014-.005.023l.2.061a.09.09,0,0,1,.007-.024c.021.008.043.008.066.016a.117.117,0,0,1,0-.025l.179.037a.167.167,0,0,1,.055-.037c.008-.047.015-.092.025-.137.041-.072.092-.16.14-.23.07.007.139.011.207.019a.052.052,0,0,1-.006.022c.046.007.092.017.135.025a.1.1,0,0,0,0,.023c.052.012.1.02.154.034a.072.072,0,0,1,0,.019l.446.108c.031-.108.092-.12.134-.206.014,0,.032,0,.043.008l.052-.133m-.943,1.852-.046-.006c-.03.11-.082.139-.114.231a.381.381,0,0,1-.045-.006.164.164,0,0,1-.067.1.064.064,0,0,1-.021,0c-.021.022.006.012.017.026-.012.049-.031.039-.031.039-.007.039-.016.074-.022.115a.335.335,0,0,0-.048.014c-.033.072-.062.142-.089.216l-.024-.005c0,.013,0,.031-.008.043a.089.089,0,0,1-.023,0c-.039.049-.041.117-.08.171-.007,0-.016,0-.021,0,0,.017-.008.031-.01.045h-.024c-.029.084-.065.171-.094.255l-.05.018a.81.81,0,0,0-.039.084.093.093,0,0,1-.025,0c-.014.029-.026.057-.039.084l-.023,0a.527.527,0,0,0-.014.067l-.049.013c-.005.024-.007.045-.013.069a.068.068,0,0,0-.019,0,.131.131,0,0,0-.012.043.09.09,0,0,1-.022-.006c0,.017-.007.031-.01.047l-.048.013c-.006.022-.008.047-.015.067a.086.086,0,0,1-.021,0c0,.021-.009.043-.012.066-.009,0-.015,0-.025,0-.013.028-.027.057-.038.086l-.022,0a.214.214,0,0,1-.012.043.562.562,0,0,1-.075.033c0,.022-.006.045-.011.069-.027.01-.051.021-.076.029-.007.039-.017.076-.022.113l-.024,0a.4.4,0,0,1-.009.043.036.036,0,0,1-.02-.006c-.006.026-.011.045-.015.069a.085.085,0,0,1-.021,0,.306.306,0,0,0-.008.045.107.107,0,0,0-.022,0c-.006.012-.006.029-.011.043a.224.224,0,0,1-.049.014c0,.023-.009.045-.014.068-.014,0-.031.01-.05.014,0,.023-.009.043-.011.066a.048.048,0,0,1-.023,0c-.015.029-.027.059-.039.088a.128.128,0,0,0-.025-.006c0,.014,0,.029-.006.047a.055.055,0,0,0-.023,0,.17.17,0,0,0-.01.043.045.045,0,0,0-.023,0c-.023.041-.048.082-.072.127,0,0-.014-.006-.022-.006,0,.024-.01.047-.013.071a.077.077,0,0,0-.023-.006c-.011.027-.026.056-.037.084l-.023,0c-.006.029-.011.058-.016.09l-.025,0c-.025.043-.045.084-.074.125a.149.149,0,0,1-.022,0c-.038.094-.082.185-.122.279-.034.049-.087.074-.118.141a.236.236,0,0,1-.045-.01c0,.025.005.051.007.074a.05.05,0,0,0-.023-.006l-.009.047a.059.059,0,0,0-.021-.006,1.28,1.28,0,0,0-.177.315l.021.006c.037.064.079.074.139.121l0,.023c.024.006.043.006.066.014a.072.072,0,0,1,0,.019.281.281,0,0,0,.048.008l-.007.024c.031.006.061.011.091.019a.412.412,0,0,0,.013.047c.023.006.047.01.067.016a.2.2,0,0,1,.015.049c.03,0,.059.011.089.017,0,.016.011.035.015.049.094.033.189.066.283.1,0,.006,0,.014,0,.024l.066.012a.049.049,0,0,0,0,.023.434.434,0,0,1,.046.01l-.006.019c.025.006.045.01.07.014,0,.018.007.035.01.051.031.006.063.012.092.015a.072.072,0,0,0,0,.024.632.632,0,0,0,.089.017.071.071,0,0,1-.006.022c.054.01.106.019.16.031a.069.069,0,0,0-.005.024.3.3,0,0,1,.046.007.488.488,0,0,0,.013.049c.03.016.056.028.086.041a.068.068,0,0,0-.005.022l.115.023a.054.054,0,0,0-.005.024c.022,0,.043.007.068.009a.043.043,0,0,0-.007.022.382.382,0,0,0,.068.015l.013.047.069.016-.007.023a.165.165,0,0,1,.046.008.116.116,0,0,1,0,.024l.129.047,0,.025a.338.338,0,0,1,.043.006.113.113,0,0,0,0,.023c.031.006.06.012.09.016a.106.106,0,0,1,0,.025c.041.014.086.032.131.047l0,.024.043.005c0,.01,0,.018,0,.026l.191.082a.069.069,0,0,1,0,.025l.047.006c0,.01,0,.016-.006.024.1.054.185-.034.244-.045a.768.768,0,0,1,.323.015c.019-.137.036-.273.057-.412a.058.058,0,0,0,.02.006c.025-.043.051-.084.073-.129.027-.008.036-.027.055-.033a.287.287,0,0,0,.045.006.369.369,0,0,1,.03-.039.176.176,0,0,0,.043.006.463.463,0,0,0,.034-.039.206.206,0,0,0,.043.009.064.064,0,0,0,.005-.021c.063,0,.122.006.183.012l.007-.024c.046,0,.091.006.137.006a.086.086,0,0,1,0,.021c.038.006.075.014.111.022a.058.058,0,0,1,0,.019c.03.01.057.014.088.022a.417.417,0,0,1,.014.049,1.132,1.132,0,0,1,.114.021c.013-.021.051-.035.052-.037.007-.031.012-.06.019-.09.025-.009.051-.021.077-.029,0-.02,0-.033.006-.049.019,0,.034-.01.05-.014s.007-.029.01-.045a.285.285,0,0,0,.072-.009c.071-.031.037-.073.15-.065l0,.024c.087,0,.171,0,.255,0,.038.007.075.011.114.019l0-.019a.127.127,0,0,1-.036-.057c.1-.041.063-.111.129-.184a.415.415,0,0,0,.051-.013.505.505,0,0,1-.014-.051c.025-.01.051-.021.077-.029,0-.041.012-.077.019-.116a.8.8,0,0,0,.1-.146.4.4,0,0,0,.042.012c.032-.123.062-.082.1-.168.018,0,.031.008.046.008-.01-.1.023-.082.074-.149a.224.224,0,0,0,.01-.043h.022a1.312,1.312,0,0,0,.048-.127.112.112,0,0,0,.025,0c0-.014,0-.029.007-.045l.077-.031a.209.209,0,0,1,.009-.045.1.1,0,0,0,.021,0c0-.012.006-.027.011-.043a.173.173,0,0,1,.024.006c0-.024.007-.047.009-.07l.023.007c.005-.025.01-.046.015-.07l.023.006a.384.384,0,0,1,.007-.047.088.088,0,0,1,.021.008c.016-.039.03-.076.045-.111l.025,0c.015-.048.033-.1.05-.152a.053.053,0,0,1,.024.008c.012-.033.029-.061.039-.09l.022,0c.005-.014.005-.029.009-.043l.024,0c0-.02.008-.043.012-.067.007,0,.015,0,.024,0s.007-.029.009-.044a.162.162,0,0,1,.023.005c0-.015,0-.031.007-.045a.053.053,0,0,1,.024,0c0-.013.005-.031.006-.045a.109.109,0,0,0,.024,0c.007-.029.011-.062.016-.09a.106.106,0,0,0,.023,0c0-.015.006-.029.009-.045.008,0,.016.006.022.006.016-.043.035-.089.051-.131a.038.038,0,0,0,.023,0c.013-.035.026-.07.042-.107l.023,0c.016-.027.025-.055.042-.084a.071.071,0,0,1,.019,0,.3.3,0,0,0,.01-.045.1.1,0,0,0,.023,0c0-.022.008-.045.013-.065a.071.071,0,0,1,.022,0l.007-.047c.007,0,.017,0,.026.008a.864.864,0,0,1,.045-.109.087.087,0,0,1,.02,0c.005-.02.009-.043.014-.065a.066.066,0,0,1,.02,0,.35.35,0,0,0,.01-.047c.008,0,.016.006.022.006,0-.023.01-.047.013-.066a.074.074,0,0,1,.024,0c0-.026.009-.047.014-.069a.064.064,0,0,0,.02,0c0-.019.01-.043.016-.064l.02,0c0-.022.01-.047.014-.067a.071.071,0,0,1,.022,0c0-.017.008-.029.01-.047.015,0,.031-.009.048-.013l.013-.069c.009,0,.016.006.024.006a.253.253,0,0,1,.008-.045.123.123,0,0,1,.023,0c.023-.041.045-.084.071-.125a.11.11,0,0,1,.023,0c0-.025.008-.045.012-.07l.02.006a.266.266,0,0,0,.011-.045l.021,0a.222.222,0,0,0,.009-.045c.086-.1.153-.106.2-.291-.065-.026-.091-.084-.138-.117-.025-.006-.045-.008-.069-.014,0-.008,0-.016.005-.027a.386.386,0,0,1-.086-.038l0-.021-.068-.012a.183.183,0,0,0-.014-.05c-.043-.024-.083-.049-.124-.071v-.021c-.013,0-.029-.006-.045-.01l.007-.023-.046-.008c0-.008,0-.014,0-.022a.162.162,0,0,0-.043-.008.092.092,0,0,1,.005-.025l-.046-.01a.054.054,0,0,1,.005-.021.405.405,0,0,1-.069-.014c-.005-.016-.008-.031-.013-.047a.11.11,0,0,0-.044-.008c0-.009,0-.017,0-.027a.708.708,0,0,1-.085-.037c0-.01,0-.016,0-.022-.023,0-.046-.009-.068-.013,0-.01,0-.016,0-.022a.432.432,0,0,0-.046-.013.037.037,0,0,0,.005-.02c-.041-.021-.085-.047-.126-.07a.06.06,0,0,0,0-.022c-.019-.008-.044-.009-.063-.015V658.2a.271.271,0,0,0-.043-.008.145.145,0,0,0,0-.025c-.023,0-.045-.008-.067-.01a.11.11,0,0,1,.005-.025c-.045-.022-.084-.045-.127-.068a.237.237,0,0,1,0-.026.36.36,0,0,1-.046-.006.1.1,0,0,1,.006-.023c-.018,0-.03-.008-.047-.01a.031.031,0,0,1,0-.021l-.044-.008a.2.2,0,0,0,0-.024c-.029-.015-.056-.027-.086-.041a.041.041,0,0,0,.005-.021c-.023-.006-.046-.008-.065-.014l0-.023c-.028-.012-.055-.026-.084-.039a.09.09,0,0,0,0-.024.871.871,0,0,1-.084-.037c-.005-.018-.01-.035-.016-.051-.028-.011-.056-.025-.085-.039a.065.065,0,0,1,.005-.025c-.044-.022-.083-.045-.127-.071a.213.213,0,0,1,0-.021c-.024,0-.044-.008-.07-.01a.374.374,0,0,0-.01-.054c-.045-.014-.091-.03-.133-.047a.061.061,0,0,1,.006-.022c-.046-.023-.085-.049-.128-.07a.119.119,0,0,1,0-.023.277.277,0,0,1-.045-.01.086.086,0,0,0,0-.024c-.028-.013-.057-.023-.085-.039a.315.315,0,0,1-.016-.049l-.128-.072.008-.021-.046-.01a.191.191,0,0,0-.017-.049c-.012,0-.026-.006-.043-.008a.065.065,0,0,0,.006-.021.191.191,0,0,0-.046-.01.082.082,0,0,0,0-.022l-.066-.015a.168.168,0,0,0,.005-.022c-.029-.013-.057-.027-.084-.041a.059.059,0,0,1,0-.019l-.045-.012c0-.014-.009-.031-.012-.049l-.045-.007a.075.075,0,0,1,0-.022.151.151,0,0,0-.044-.008c0-.01,0-.015,0-.025-.023,0-.043-.008-.066-.012a.071.071,0,0,0,.006-.023c-.046-.022-.087-.047-.128-.071,0-.007,0-.015,0-.025a.33.33,0,0,1-.044-.006.137.137,0,0,0,.005-.023c-.08-.038-.158-.077-.236-.116a.117.117,0,0,1,0,.026c-.08.006-.1.025-.133.09-.007.029-.012.06-.019.087l-.05.016c-.005.022-.007.045-.013.069a.083.083,0,0,0-.021-.006.274.274,0,0,0-.009.045.092.092,0,0,0-.023,0c0,.023-.009.045-.013.068-.025.01-.051.018-.075.029-.005.026-.009.045-.015.071a.085.085,0,0,1-.021-.006c-.005.025-.01.047-.014.066a.078.078,0,0,1-.022,0c0,.014-.005.032-.007.041h-.027c0,.02-.005.045-.007.067l-.027,0a.256.256,0,0,1-.008.045l-.021-.006c-.019.045-.031.09-.049.135a.091.091,0,0,0-.023-.008c-.012.023-.026.043-.036.064-.017,0-.033.008-.051.014a.891.891,0,0,1-.016.09.073.073,0,0,0-.022,0c-.005.029-.012.058-.02.09l-.019,0a.372.372,0,0,0-.009.043.112.112,0,0,0-.026,0,.654.654,0,0,1-.01.068.085.085,0,0,0-.023,0l-.035.061-.052.013a.169.169,0,0,1-.007.045.49.49,0,0,1-.047.014.517.517,0,0,1-.017.068.07.07,0,0,0-.019,0c0,.014-.007.028-.01.043a.178.178,0,0,0-.048.014.51.51,0,0,0-.015.068c-.037.055-.069.053-.1.143m-1.478,1.607a.194.194,0,0,0,.045.01c.013-.021.022-.041.036-.062a.071.071,0,0,0,.022,0q.006-.033.012-.069a.343.343,0,0,1,.05-.011c.005-.026.01-.047.012-.069a.1.1,0,0,1,.024,0,.2.2,0,0,1,.01-.045l.021,0c0-.012.005-.029.008-.045l.051-.011c0-.016.007-.03.009-.047a.051.051,0,0,1,.02.009c.016-.039.03-.076.045-.109l.077-.035c.019-.059.04-.119.058-.174a.114.114,0,0,1,.023,0,.239.239,0,0,1-.013-.051l.019,0a.211.211,0,0,0,.009-.045.13.13,0,0,0,.023.006l.009-.045a.04.04,0,0,1,.023,0c.005-.021.009-.047.014-.068a.3.3,0,0,1,.05-.012c.006-.041.013-.078.021-.113a.092.092,0,0,1,.022,0c0-.032.011-.061.016-.09l.022,0c.014-.028.028-.055.041-.086a.076.076,0,0,0,.024.006c.007-.03.011-.059.017-.088l.024,0,.006-.043.026,0c.016-.041.029-.088.045-.131a.117.117,0,0,0,.025,0c.006-.038.014-.075.021-.112.017-.006.034-.008.05-.015s.007-.043.013-.065a.064.064,0,0,1,.02,0,.273.273,0,0,0,.01-.043c.054-.068.066-.021.1-.146.016,0,.03.006.045.009a.38.38,0,0,1,.084-.2.765.765,0,0,0,.077-.029.277.277,0,0,1,.01-.047l.054-.037a.352.352,0,0,1,.008-.045.064.064,0,0,0,.021.006.364.364,0,0,0,.011-.045.064.064,0,0,0,.02,0,.466.466,0,0,0,.138-.233.546.546,0,0,0,.074-.009c.036-.063.071-.123.107-.188l.02,0c.021-.051.035-.1.055-.154A.194.194,0,0,1,468.3,657c0-.025.01-.045.012-.07l.022.006a.266.266,0,0,1,.012-.045.583.583,0,0,1,.072-.034.5.5,0,0,0,.041-.084c-.217-.08-.435-.162-.652-.244-.016.043-.035.088-.051.131l-.02,0a.623.623,0,0,0,.009.071.052.052,0,0,1-.021-.006.374.374,0,0,1-.013.047.033.033,0,0,0-.021,0c0,.021-.007.043-.012.064a.1.1,0,0,1-.024,0c-.022.082-.046.162-.07.242-.024.012-.05.02-.075.034-.012.06-.025.119-.036.181a.116.116,0,0,0-.024-.008c-.019.075-.04.149-.062.223a.086.086,0,0,1-.024-.008c-.007.033-.01.063-.017.092a.093.093,0,0,1-.024,0c-.006.043-.018.09-.024.135a.1.1,0,0,0-.026,0c0,.023-.009.045-.01.064h-.024c-.007.03-.011.059-.018.09a.063.063,0,0,0-.023-.006c-.017.059-.036.118-.056.176a.11.11,0,0,1-.023,0,.242.242,0,0,1-.01.045l-.022,0c-.021.037.007.033.013.047-.006.031-.013-.01-.025.022s-.017.087-.024.132l-.023,0c-.006.031-.011.062-.018.091a.068.068,0,0,1-.023-.008c-.018.055-.035.1-.052.155a.1.1,0,0,1-.024,0c-.011.053-.019.1-.029.158a.108.108,0,0,0-.025,0c0,.03-.01.061-.016.09a.068.068,0,0,0-.023,0c-.008.037-.012.074-.019.111l-.025,0c-.008.046-.016.087-.026.136a.027.027,0,0,0-.02-.006c-.007.024-.009.045-.016.067-.014.006-.033.01-.049.015-.013.067-.027.135-.038.2l-.053.015a.8.8,0,0,1-.015.09.119.119,0,0,1-.021-.006.136.136,0,0,1-.012.045l-.019,0a.661.661,0,0,0-.013.067c-.018.027-.018-.014-.027.017l.019,0,0,.024-.023,0c-.005.029-.011.056-.018.087a.036.036,0,0,0-.019,0l-.013.044-.02,0c-.014.031.005,0,.018.029-.011.021-.024.041-.036.06m3.753-2.617c.022.032,0,.01.041.032-.021-.032,0-.008-.041-.032m.927.647c0,.015-.008.031-.009.045.016,0,.031,0,.045.009a.333.333,0,0,1-.009.045l.091.018c0,.016,0,.029-.009.045l.131.049a.061.061,0,0,0-.005.023c.021.031.008,0,.015.047l.115,0c0,.025.008.051.013.076.029,0,.054.012.088.014a.059.059,0,0,0,.005-.02.045.045,0,0,1,.022.006l0,.022a.986.986,0,0,1,.108.045c0,.019.007.046.01.07.02.012.042.021.063.035s.009.047.03.078c0-.033,0-.064,0-.1l.132.046c.033-.125.063-.252.1-.377a.042.042,0,0,1,.02.006c.019-.052.034-.1.055-.156-.039-.029-.029-.035-.084-.061a.183.183,0,0,0,.006-.025.24.24,0,0,1-.05.016.069.069,0,0,0,0-.024.237.237,0,0,1-.046-.007.147.147,0,0,1,.005-.024c-.039-.006-.075-.016-.112-.019a.115.115,0,0,1,0-.026c-.065-.012-.13-.025-.2-.037a.1.1,0,0,0,0-.023c-.09-.024-.177-.049-.267-.077a.038.038,0,0,0,.005-.021l-.07.012,0-.024c-.1-.021-.212-.039-.312-.062v-.02q-.132-.028-.27-.054l.007-.022c-.049-.027-.1-.051-.151-.074l0,.019c-.168,0-.211-.144-.337-.062a.067.067,0,0,1,.02,0,.061.061,0,0,0,0,.023.534.534,0,0,0,.066.037c0,.014.007.03.009.049a.906.906,0,0,1,.09.041.318.318,0,0,0,.011.047c.073.029.145.062.216.088.005.017.01.033.016.051.037.017.071.029.107.043a.494.494,0,0,1,.014.05l.085.041c0,.018.01.032.015.049l.067.012c0,.016.01.035.014.049l.14,0m-4.219-.9a.691.691,0,0,1-.05.268.072.072,0,0,1-.022,0c-.03.145-.057.285-.084.43a.051.051,0,0,0-.024,0c0,.047,0,.092,0,.139a.047.047,0,0,0-.023-.006c0,.015-.006.029-.009.045a.084.084,0,0,0-.022,0c-.014.068-.027.136-.04.2-.008,0-.015,0-.02,0-.042.164-.082.326-.12.49a.038.038,0,0,1-.022,0c0,.014-.005.031-.01.047a.066.066,0,0,0-.02-.006.319.319,0,0,0,.01.073.22.22,0,0,1-.024,0c-.007.031-.013.058-.017.088a.089.089,0,0,0-.023,0c-.035.093-.069.189-.1.283a.165.165,0,0,1-.045-.01c.019.031,0,.01.038.031a1.271,1.271,0,0,1-.1.262c-.018.094-.037.182-.052.272l-.023,0c-.007.037-.013.074-.023.113a.1.1,0,0,1-.021,0,.679.679,0,0,0-.016.088.147.147,0,0,0-.024,0c-.011.055-.021.1-.03.156l-.024,0c0,.026-.008.049-.012.069a.1.1,0,0,0-.023,0c.009.031.019.064.027.1a.075.075,0,0,0-.023,0c-.007.03-.01.061-.017.09a.118.118,0,0,1-.022-.008c-.021.077-.045.151-.067.223a.318.318,0,0,0-.044-.008c.01.065.024.057-.022.112l.022,0c.024.033,0,.011.041.033a.356.356,0,0,0,.009-.047.231.231,0,0,0,.041.031.05.05,0,0,0,.005-.021l-.023,0c.012-.053.022-.106.029-.159.008,0,.017,0,.024.006,0-.017.007-.033.007-.046h.024c0-.027.012-.054.016-.086a.231.231,0,0,1,.023,0,.315.315,0,0,0,.009-.044h.022c0-.019.01-.044.015-.066a.1.1,0,0,1,.023.006c0-.016,0-.031.006-.045l.025,0c0-.029.01-.061.018-.09a.093.093,0,0,1,.018.006c.041-.117.078-.232.119-.352.006,0,.014,0,.021,0,.005-.029.013-.06.017-.09a.05.05,0,0,0,.024,0c.006-.037.013-.074.02-.109h.026a.39.39,0,0,1,0-.045.164.164,0,0,1,.024.006c0-.025.009-.045.012-.068a.078.078,0,0,1,.024,0,.323.323,0,0,1,.009-.045.145.145,0,0,0,.022.005c0-.023.007-.046.012-.07a.13.13,0,0,0,.023.006c.022-.074.042-.146.063-.223l.026.006.018-.09.047-.013c.009-.055.021-.106.032-.157a.078.078,0,0,0,.022,0c.007-.037.014-.072.022-.111a.072.072,0,0,1,.022,0,.668.668,0,0,1,.014-.067.057.057,0,0,1,.022,0,.673.673,0,0,0,.012-.067.1.1,0,0,0,.025,0c.04-.137.082-.277.127-.418a.057.057,0,0,0,.021.006c.006-.031.011-.061.018-.092a.077.077,0,0,0,.023.006c0-.016.006-.029.008-.047a.079.079,0,0,0,.022.006c.022-.076.045-.146.065-.223a.06.06,0,0,0,.025.006.206.206,0,0,1,.009-.043.1.1,0,0,1,.023,0c.009-.06.023-.121.031-.18l.023,0a.482.482,0,0,0,.014-.068.1.1,0,0,0,.022,0c.005-.027.012-.061.019-.09.015,0,.032-.01.049-.014.007-.043.02-.087.026-.13.029-.057.075-.11.1-.172-.1-.018-.2-.039-.292-.057a.084.084,0,0,1-.005.025.915.915,0,0,0-.091-.017.119.119,0,0,0,0-.024c-.046,0-.09,0-.139,0m2.1,2.672a.144.144,0,0,1,.008-.045c-.006-.021-.043-.019-.035-.054a.04.04,0,0,1,.02,0c.005-.024.009-.047.015-.067a.445.445,0,0,1,.048-.015.171.171,0,0,1,.009-.045l.049-.014a.386.386,0,0,0,.009-.047.106.106,0,0,1,.022.006c.019-.051.036-.1.053-.15a.38.38,0,0,1,.051-.018c.014-.035.028-.072.044-.109l.047-.012.009-.047a.1.1,0,0,0,.024.006c.006-.029.011-.059.016-.092a.052.052,0,0,0,.022.006.877.877,0,0,0,.132-.186c-.052-.017-.1-.033-.154-.052-.005-.024-.005-.049-.01-.073a.131.131,0,0,1,.023.006.086.086,0,0,1,.005-.023c.039,0,.077,0,.115,0a.116.116,0,0,0,.005-.022c.023.006.046.008.066.012a.166.166,0,0,0,.007-.021l.043.009a.29.29,0,0,1,.2-.033c.028.043.12.071.164.1a.182.182,0,0,1-.007.045c-.078.035-.115.111-.175.177l-.02-.005a.31.31,0,0,0-.009.046.055.055,0,0,1-.023-.005.238.238,0,0,1-.012.044h-.02l-.007.043-.054.037a.323.323,0,0,0-.009.045.161.161,0,0,0-.05.015c0,.022-.009.043-.014.063h-.022a.322.322,0,0,0-.007.045c-.009,0-.016,0-.026,0a.185.185,0,0,1-.005.041.082.082,0,0,1-.024,0c0,.013-.007.029-.009.047a.088.088,0,0,0-.023-.006c0,.023-.009.047-.011.066a.108.108,0,0,1-.025,0,.751.751,0,0,1-.039.086.093.093,0,0,0-.022,0c-.064.078-.094.184-.182.221a.09.09,0,0,0-.005.021c-.054,0-.109-.005-.164-.007-.018-.03,0-.01-.038-.03m1.331-.609a.552.552,0,0,1,.255.119c.027.006.046.008.071.012l.029.078c.062.061.108.033.115.139.018,0,.03,0,.045.007,0,.073,0,.143,0,.213,0,0-.013,0-.019,0a.434.434,0,0,0-.01.045c-.01,0-.014,0-.023,0a.466.466,0,0,1-.013.067.057.057,0,0,1-.024-.008c0,.02-.005.033-.006.049a.408.408,0,0,0-.05.014c-.066.068-.082.142-.194.148a.252.252,0,0,1-.007.045c-.1.008-.386.191-.5.045a.432.432,0,0,1-.136-.121c0-.016,0-.032.006-.045a.111.111,0,0,1-.023,0c-.015-.031-.008-.047-.031-.076.072-.418.193-.578.5-.655a.543.543,0,0,1,.012-.064m.919.318c.285.045.572.168.581.391a.1.1,0,0,1-.026,0c-.015.049-.034.1-.053.152a.057.057,0,0,0-.022,0c0,.022-.008.045-.008.065l-.028,0c-.009.029-.025.057-.036.086a.132.132,0,0,0-.025,0,.3.3,0,0,0-.006.045l-.023-.006a.565.565,0,0,1-.018.068c-.012,0-.032.008-.046.014-.005.029-.012.059-.018.088-.017.006-.033.012-.049.016a.136.136,0,0,0-.006.045l-.053.013c-.045.037-.094.076-.138.115a.206.206,0,0,0-.046-.009l0,.021c-.035.018-.049.01-.077.033a.745.745,0,0,1-.414-.15l0-.023c-.025-.026-.049-.055-.077-.085s.011-.05-.028-.1l.033-.039a.063.063,0,0,1-.01-.072c.008,0,.016,0,.023,0a.35.35,0,0,1,.01-.044.5.5,0,0,1,.049-.014.215.215,0,0,1,.009-.047l.021.006c.007-.039.016-.074.023-.113a.023.023,0,0,1,.019.007.179.179,0,0,0,.01-.048.113.113,0,0,0,.025,0c0-.019.007-.044.011-.066.019-.006.034-.008.051-.014l.006-.046a.332.332,0,0,0,.05-.012.3.3,0,0,1,.011-.045c.015-.006.032-.01.046-.016a.344.344,0,0,0,.01-.043c.026-.011.052-.021.076-.033a.271.271,0,0,1,.01-.043c.015-.006.031-.01.05-.018a.127.127,0,0,1,.009-.042c.013-.014.048-.008.074-.032m-1.164.475.089.017c.041-.046.093-.054.135-.089a.2.2,0,0,1,.009-.045.027.027,0,0,1,.019.006.264.264,0,0,1,.036-.043.325.325,0,0,0,.045.007c.044-.115.13-.156.169-.293-.049-.076.015-.1-.113-.138-.07.041-.138.082-.21.123,0,.015-.006.033-.008.045a.434.434,0,0,0-.049.013.359.359,0,0,1-.01.047c-.017.014-.048.006-.075.03l.023,0c-.019.067-.041.133-.06.2v.117m1.387-.291c0,.021.005.045.01.072l-.023-.006a.074.074,0,0,0,0,.022.917.917,0,0,0-.093-.016c-.037.031-.073.063-.112.094a.04.04,0,0,0-.023,0,.3.3,0,0,1-.009.045c-.034.016-.066.033-.1.051a.411.411,0,0,1-.01.045.44.44,0,0,0-.048.013c0,.016-.006.032-.009.045l-.021,0c-.015.03-.029.057-.041.086a.206.206,0,0,1-.024-.006.64.64,0,0,0-.01.071.053.053,0,0,0-.024-.006c-.009.047-.018.088-.027.135l-.021,0-.007.021a.056.056,0,0,0,.026.006c-.007.031-.014.059-.019.09l.065.035a.049.049,0,0,1,0-.021.384.384,0,0,1,.07-.01.1.1,0,0,0,0-.024c.066-.029.04.034.08-.054.1-.01.03,0,.08-.055.019,0,.034-.01.053-.014,0-.017,0-.027.007-.045a.038.038,0,0,1,.022.006c.007-.023.009-.047.016-.07a.445.445,0,0,0,.046-.012c.012-.023.024-.043.036-.062a.1.1,0,0,0,.024,0c0-.014.005-.028.008-.045a.075.075,0,0,0,.023.006c.014-.045.033-.088.046-.133.02,0,.035-.008.051-.01.013-.07.027-.137.039-.2-.028-.014-.057-.027-.085-.039m-2.815.531a.324.324,0,0,1,.171.08c.059.02.118.037.179.057a.194.194,0,0,0-.006.023c.018,0,.029.006.046.008a.1.1,0,0,1,0,.022c.037,0,.075.015.113.021a.037.037,0,0,1-.006.023l.112.022a.051.051,0,0,1,0,.021c.107.024.212.045.315.065v.017c.029.008.058.016.088.022a.073.073,0,0,0,0,.023c.022,0,.045.008.068.01a.129.129,0,0,0,0,.024c.052.011.107.021.157.029a.065.065,0,0,1-.005.025c.052.01.108.018.158.032l0,.021c.164.041.326.078.489.117a.155.155,0,0,0,0,.024,1.2,1.2,0,0,1,.135.027c.047.021.083.07.145.1,0,.023-.009.047-.014.068a.045.045,0,0,0-.024-.006v.024c-.055-.01-.106-.022-.159-.03,0-.007,0-.017,0-.023-.061-.01-.12-.022-.18-.037a.042.042,0,0,1,.005-.022c-.051-.007-.106-.021-.16-.029a.046.046,0,0,1,.008-.023c-.13-.026-.257-.051-.385-.073a.06.06,0,0,1,0-.023c-.055-.012-.107-.022-.159-.031a.091.091,0,0,0,.006-.022c-.022-.006-.047-.008-.07-.013a.111.111,0,0,0,.005-.022l-.066-.014a.06.06,0,0,0,0-.023c-.054-.008-.106-.02-.157-.031a.1.1,0,0,0,.005-.02c-.122-.033-.24-.064-.358-.094a.066.066,0,0,0,.005-.023c-.022,0-.046-.01-.069-.012l.007-.023-.071-.014a.162.162,0,0,0,.007-.019.615.615,0,0,0-.07-.014l.007-.023c-.105-.067-.205-.055-.25-.167h-.021c0-.026.01-.047.011-.069m-3.017.867a.77.77,0,0,0-.015.088.069.069,0,0,0,.019.006c.007-.029.012-.059.02-.092l-.024,0m3.943,2.584c-.062-.007-.123-.009-.187-.015a.044.044,0,0,0,.005-.022c-.027-.013-.055-.027-.083-.039-.026-.043-.046-.088-.07-.129l-.085-.041a.06.06,0,0,0,0-.023c-.113-.069-.313.013-.4.017-.031.067-.082.09-.119.141a.183.183,0,0,0-.009.043.038.038,0,0,1-.022-.006c-.051.084,0,.168,0,.215l-.03.039a.089.089,0,0,1,.02.006c0,.053,0,.109-.007.16-.066,0-.063.029-.075.035-.1.018-.264-.072-.365-.049l0,.022-.044-.008a.18.18,0,0,0-.031.043c-.017-.006-.031-.008-.046-.012-.027.026-.057.051-.086.076-.014.006-.033.01-.05.016a.162.162,0,0,1-.007.047c-.025.008-.051.02-.075.029-.017.037-.03.073-.046.108a.041.041,0,0,1-.023,0c-.007.033-.013.06-.018.092a.072.072,0,0,0-.022-.006.034.034,0,0,1-.005.023.106.106,0,0,0,.022.006c-.009.059-.022.117-.033.18.072.072.032.156.144.213l-.005.046a.266.266,0,0,0,.042.008q.006.024.015.051c.143.027.283.053.429.084a.05.05,0,0,0,0,.02l.179.035c0,.007,0,.015-.005.023.111.027.223.057.335.086a.086.086,0,0,1,0-.021l.089.017a.175.175,0,0,0,0-.025c.033,0,.063,0,.1,0a.1.1,0,0,0,0-.024c.048,0,.094,0,.141,0,.011-.013.02-.027.032-.041a.135.135,0,0,0,.02.006.5.5,0,0,1,.036-.043.265.265,0,0,1,.044.01c.027-.025.054-.053.084-.076.03,0,.062,0,.094-.006.01-.014.023-.027.031-.041a.112.112,0,0,0,.045.006c0-.006,0-.012,0-.02.106-.025.1.055.151-.064.093-.006.084-.053.178-.061.01-.019.023-.041.033-.064a.083.083,0,0,0,.025.008c0-.016.006-.03.008-.045.018-.008.034-.01.048-.018a.114.114,0,0,0,.008-.043.471.471,0,0,1,.078-.029.986.986,0,0,1,.047-.112.1.1,0,0,1,.019.006c0-.013.006-.033.011-.046l.018,0a.477.477,0,0,0,.043-.088.053.053,0,0,0,.021.006c.018-.052.036-.1.055-.152a.066.066,0,0,1,.022,0c0-.016.005-.029.007-.045l.025,0c.019-.051.034-.1.052-.154l.02.005c.007-.062.01-.125.014-.183l.024,0c.017-.09.036-.182.051-.27a.092.092,0,0,1-.022-.006.179.179,0,0,0,.009-.045.167.167,0,0,1-.038-.031c0-.012,0-.029.005-.043a.038.038,0,0,0-.022-.006c0-.023-.007-.046-.011-.072a.214.214,0,0,1-.08-.062.086.086,0,0,1,0-.022.663.663,0,0,1-.067-.017l0-.018a.831.831,0,0,0-.434-.037c-.021.017-.04.037-.06.055h-.022a1.091,1.091,0,0,0-.105.166c-.006,0-.013,0-.022,0-.021.072-.043.148-.064.222m-4.415-.853c.085.033.175.062.258.1a.065.065,0,0,0,0-.023c.049.01.094.018.137.025a.5.5,0,0,0,.064.037l0-.021a.787.787,0,0,1,.091.016l-.005.021a.309.309,0,0,0,.188-.008,1.167,1.167,0,0,1-.314-.177c-.032-.006-.062-.016-.092-.02a.05.05,0,0,0,0-.021.214.214,0,0,1-.046-.01.069.069,0,0,1,.005-.024c-.022,0-.046-.006-.069-.011a.058.058,0,0,1,.006-.022.372.372,0,0,0-.045-.01.189.189,0,0,0,0-.021l-.065-.037a.059.059,0,0,1,0,.025c-.079.026-.1.094-.126.184" fill="#0070c3" fill-rule="evenodd"/>
  </g>
</svg>
