<svg xmlns="http://www.w3.org/2000/svg" width="14.685" height="24.302" viewBox="0 0 14.685 24.302">
  <g id="Group_211" data-name="Group 211" transform="translate(-387.207 -21.68)">
    <path id="Path_1956" data-name="Path 1956" d="M401.725,24.068a1.5,1.5,0,0,0-1.4-.957,7.06,7.06,0,0,0-1.179.089,1.5,1.5,0,0,0-1.015.7,1.909,1.909,0,0,0-.266.3c-.024.033-.045.067-.066.1a1.508,1.508,0,0,0-.282.428,1.458,1.458,0,0,0-.192.322,1.435,1.435,0,0,0-.128.19,1.479,1.479,0,0,0-.2.335c-.021.038-.127.247-.127.247a1.5,1.5,0,0,0-.5,1.325c.007.056.019.1.029.153-.04,0-.077-.02-.118-.021a4.46,4.46,0,0,0-.46-.1,1.483,1.483,0,0,0,.211-.615,1.529,1.529,0,0,0,.068-.529,1.475,1.475,0,0,0,.069-.449v-.269a1.617,1.617,0,0,0,.062-.348,3.156,3.156,0,0,0,.032-.6,1.509,1.509,0,0,0,.1-.494,1.931,1.931,0,0,0-.826-1.816,1.563,1.563,0,0,0-.211-.157,1.5,1.5,0,0,0-.787-.223c-.034,0-.066,0-.1,0s-.065,0-.1,0a1.506,1.506,0,0,0-.3.03l-.325.066a1.5,1.5,0,0,0-1.191,1.3l-.019.166a1.5,1.5,0,0,0-.121.592v.076a1.5,1.5,0,0,0-.066.443v.539c-.041.193-.071.4-.1.606a2.626,2.626,0,0,1-.066.41,1.24,1.24,0,0,0-.032.159,1.511,1.511,0,0,0-.344-.6l0,0a1.5,1.5,0,0,0-.3-.491,1.408,1.408,0,0,0-.141-.244,1.482,1.482,0,0,0-.27-.485,1.5,1.5,0,0,0-1.156-.973,1.562,1.562,0,0,0-.516-.088,3.135,3.135,0,0,0-1.122.165,1.5,1.5,0,0,0-.944,1.645l.064.391a1.533,1.533,0,0,0,.1.344,1.5,1.5,0,0,0,.181.412,1.5,1.5,0,0,0,.186.444,1.5,1.5,0,0,0,.23.4,1.521,1.521,0,0,0,.27.409c.021.036.044.071.068.1a1.441,1.441,0,0,0,.212.394,1.5,1.5,0,0,0,.607.635,1.6,1.6,0,0,0,.186.115c-.057.058-.132.136-.147.156a1.415,1.415,0,0,0-.163.156l-.229.257a1.506,1.506,0,0,0-.761.969,1.6,1.6,0,0,0-.116.216,1.5,1.5,0,0,0-.242.454,1.492,1.492,0,0,0-.219.467c-.021.039-.042.08-.059.121a1.485,1.485,0,0,0-.189.729v.288a6.6,6.6,0,0,0,0,2.238,1.288,1.288,0,0,0,.061.16,1.151,1.151,0,0,0,.047.128,1.348,1.348,0,0,0,.07.209c.01.035.019.07.031.1a1.435,1.435,0,0,0,.056.237,1.42,1.42,0,0,0,.1.427,1.436,1.436,0,0,0,.06.182,4.54,4.54,0,0,0,.348.768c.017.04.081.166.092.19a1.469,1.469,0,0,0,.146.3,3.762,3.762,0,0,0,.623.862,1.48,1.48,0,0,0,.268.338,1.522,1.522,0,0,0,.291.353l.028.031a42.95,42.95,0,0,0,.533.664l.02.028c0,.011.02.057.023.069a1.465,1.465,0,0,0,.041.312l-.022.339a1.449,1.449,0,0,0-.056.66,1.493,1.493,0,0,0-.021.453,1.754,1.754,0,0,0-.007.366c0,.019,0,.076,0,.076a1.486,1.486,0,0,0-.066.439s0,.846,0,.878a1.5,1.5,0,0,0,.375,1.1,2.72,2.72,0,0,0,.142.235,1.51,1.51,0,0,0,.145.183,1.468,1.468,0,0,0,.272.335c.032.045.066.089.1.133a1.5,1.5,0,0,0,1.156.656c.081,0,.178.015.283.026a8.57,8.57,0,0,0,.876.058,2.94,2.94,0,0,0,1.127-.195,1.377,1.377,0,0,0,.244-.133,1.582,1.582,0,0,0,.366-.283,1.5,1.5,0,0,0,.615-.946,4.123,4.123,0,0,1,.179-.57l.1-.287a1.5,1.5,0,0,0,.076-.469v-.144a1.549,1.549,0,0,0,.064-.442v-.4a1.508,1.508,0,0,0,.067-.443v-.02a1.516,1.516,0,0,0,.063-.515,1.567,1.567,0,0,0,.051-.228,1.516,1.516,0,0,0,.146-.257c.018-.031.034-.063.05-.095.054-.028.11-.06.169-.1a1.349,1.349,0,0,0,.115-.083A1.472,1.472,0,0,0,397.2,40l.012-.015a1.511,1.511,0,0,0,.4-.322,1.671,1.671,0,0,0,.149-.154,1.53,1.53,0,0,0,.294-.323,1.943,1.943,0,0,0,.257-.317l.049-.036a9.3,9.3,0,0,0,.65-.762,1.5,1.5,0,0,0,.275-.351,1.537,1.537,0,0,0,.227-.4,1.672,1.672,0,0,0,.095-.177,1.508,1.508,0,0,0,.148-.359,1.54,1.54,0,0,0,.134-.341l.01-.024a1.5,1.5,0,0,0,.21-.537c.007-.015.014-.029.02-.045a1.492,1.492,0,0,0,.189-.579l.016-.152a1.4,1.4,0,0,0,.075-.212,1.533,1.533,0,0,0,.161-.478,1.563,1.563,0,0,0,.073-.323l.018-.16a1.492,1.492,0,0,0,.124-.6,1.464,1.464,0,0,0-.009-.165,1.388,1.388,0,0,0,.009-.16v-.52a1.4,1.4,0,0,0-.067-.425,1.427,1.427,0,0,0-.069-.4,1.409,1.409,0,0,0-.106-.434,1.117,1.117,0,0,0-.04-.128,1.373,1.373,0,0,0-.125-.4,1.505,1.505,0,0,0-.273-.484l-.056-.114a1.553,1.553,0,0,0-.153-.315,1.508,1.508,0,0,0-.695-.776l-.14-.164c0-.005-.011-.008-.015-.013a1.646,1.646,0,0,0,.181-.069,1.6,1.6,0,0,0,.724-.554,1.478,1.478,0,0,0,.3-.433,1.472,1.472,0,0,0,.343-.49,1.431,1.431,0,0,0,.122-.184,1.488,1.488,0,0,0,.2-.329,1.51,1.51,0,0,0,.2-.324,1.644,1.644,0,0,0,.112-.164,1.509,1.509,0,0,0,.334-.467l.07-.1a1.489,1.489,0,0,0,.254-1A2.1,2.1,0,0,0,401.725,24.068Zm-9.363,3.252-.017,0,0-.016Z" fill="#fff"/>
    <path id="Path_1957" data-name="Path 1957" d="M392.384,41.925c.455,0,.7,0,1.238,0l.064-.064V41.6c-.432-.044-.866-.089-1.3-.131Z" fill="#fff"/>
    <path id="Path_1958" data-name="Path 1958" d="M392.321,42.838a.654.654,0,0,0,.259.066c.248-.216.5.088.716,0v-.066a.624.624,0,0,1,.26-.13v-.195l-1.172-.2C392.365,42.491,392.34,42.664,392.321,42.838Z" fill="#fff"/>
    <path id="Path_1959" data-name="Path 1959" d="M392.452,42.969l-.068.064h-.063v.2c.159.1.038.062.131.194l.128.066v.195l.393.324.064-.066h.193l.133-.127v-.392l-.651-.13Z" fill="#fff"/>
    <path id="Path_1960" data-name="Path 1960" d="M398.047,31.577v-.195l-.128-.067v-.13h-.066v-.128h-.064v-.2h-.067l-.062-.261-.2-.127V30.34H397.4l-.13-.195h-.129v-.064a.792.792,0,0,0-.391-.2v-.13l-.261-.131v-.065l-.2-.065-.065-.13h-.13V29.3l-.26-.065v-.064h-.258V29.1h-.456v-.065a2.443,2.443,0,0,0-.913.065h-.652v.067h-.519v.064h-.391V29.3h-.262v.066h-.194v.064h-.13v.066l-.39.065-.065.13-.262.066-.193.26-.131.066v.129h-.063a.669.669,0,0,0-.2.327h-.13l-.129.323-.13.066v.131l-.131.064v.131h-.065v.194l-.131.066-.13.39h-.065l-.065.261h-.065v.325h-.066c-.019.305-.044.608-.065.91h.065v.587h.066v.262h.065v.259h.065v.13h.065v.389h.066v.262h.064v.261h.067l.129.39h.065v.2h.066v.129h.065v.13l.128.066.066.261h.065l.13.26h.133l.063.2.194.129v.13h.066v.129l.131.066.2.261h.065v.129h.065a.692.692,0,0,1,.194.327h.131a2.066,2.066,0,0,0,.261.456v.13h.063a4.266,4.266,0,0,1,.068,1.626c.391.106.351.462.844.521a1.279,1.279,0,0,1,.521-.2l.2-.522v-.195h.066l.129-.391h.065v-.129l.13-.066v-.131l.195-.128v-.131l.261-.195v-.064l.262-.066V38.8l.194-.067.066-.13h.129c.195-.217.389-.434.585-.651h.13l.2-.26.13-.065V37.5l.261-.194.066-.195.131-.065.063-.26.131-.065.129-.391h.065V36.2h.065l.13-.391h.068v-.259h.062l.067-.261h.064c.023-.153.043-.3.066-.456h.063v-.195h.065c.023-.152.045-.3.066-.455h.065V33.92h.065v-.392h.066a5.352,5.352,0,0,0-.2-1.951Z" fill="#ffec00"/>
    <path id="Path_1961" data-name="Path 1961" d="M389,25.2l-.063.13.129.066v.13h.064v.26l.129.066v.194l.131.067.066.257.2.131v.13l.131.065.065.326h.065l.066.195h.131l.064.131.326.064v-.064l.324-.064.066-.327-.131-.065-.065-.391h-.131l-.193-.519-.2-.13-.064-.263-.131-.063-.066-.326-.13-.065-.131-.391h-.2v-.066a2.009,2.009,0,0,0-.651.066l.065.391Z" fill="#0070c3"/>
    <path id="Path_1962" data-name="Path 1962" d="M394.142,26.694v.066h.066v-.066h.2a.494.494,0,0,1,.066-.261h.065v-.322h.064l-.064-.2h.064v-.327h.067v-.649h.065v-.065h-.065v-.067h.065c.1-.371-.078-.741.129-.974.011-.366-.04-.523-.325-.586V23.18l-.131.066h-.066V23.18l-.324.066c-.022.194-.044.39-.065.586h-.065v.519h-.066v.716c-.118.416-.118.985-.261,1.366l.327.261Z" fill="#0070c3"/>
    <path id="Path_1963" data-name="Path 1963" d="M399.221,32.1h-.065v-.327h-.066v-.194h-.067v-.262h-.062v-.13l-.131-.064V30.99h-.066v-.13H398.7v-.13h-.064V30.6l-.133-.127V30.34l-.194-.065c-.131-.152-.262-.305-.39-.456h-.13l-.067-.13h-.062l-.068-.13h-.13v-.065a.694.694,0,0,0-.324-.2l-.066-.129V29.1h-.26l-.065-.13h-.131v-.066h-.13v-.064h-.261v-.064h-.2a3.636,3.636,0,0,0-1.822-.13H393.3v.065h-.259v.065l-.129-.065v.065c-.24.022-.479.044-.718.064v.064h-.13v.066h-.2v.065h-.325V29.1h-.2v.067l-.261.064V29.3h-.126l-.263.326h-.131l-.128.131-.065.2h-.131c-.174.195-.346.39-.521.587h-.131l-.065.389-.131.064v.195l-.193.13v.2h-.067v.131l-.13.064-.063.325h-.067v.131H388.8v.391a6.753,6.753,0,0,0-.066,1.693h.066v.194h.065v.195h.067v.195H389v.261h.066v.325h.064v.194h.067v.2l.129.066v.195l.13.066v.195h.065v.13h.065v.131l.131.13v.129l.13.066.065.195.326.259v.13l.261.2v.13h.129v.13l.13.065.065.2.2.131.063.194h.131c.05.367.157.208.26.392v.195h.066v.13h.066l-.066.131h.066v.324h.065c-.023.348-.044.694-.065,1.041l-.066.131h.066l.065.325h-.065v.131h-.066l.066.327h-.066c-.031.152.075.174.066.257h-.066v.457h-.066v.782h.066l-.066.2c.135.11.158.237.262.39l.129.066.065.193h.131c.036.275.091.214.2.391a4.521,4.521,0,0,0,1.628,0v-.066h.13V44.27l.2-.13a9.143,9.143,0,0,1,.326-1.041v-.521h.064v-.065h-.064v-.066h.064v-.779h.067V41.21h.065l-.065-.325h.065V40.69h.064v-.327h.065l.066-.259.13-.066v-.13h.066l.063-.326h.131c.1-.346.272-.231.52-.39l.064-.129h.131l.26-.327.2-.064v-.131h.13c.049-.177.016-.147.2-.194v-.131c.272-.072.234-.218.391-.391l.259-.195V37.5l.26-.194v-.129l.26-.2v-.131l.131-.064V36.59l.13-.067v-.13h.066v-.259l.13-.066v-.195h.064l.065-.262h.068l.064-.39h.064v-.129h.066c.021-.195.044-.391.064-.586h.067v-.2h.062v-.129h.067V33.92h.066c.022-.195.042-.392.065-.587h.067c0-.083-.112-.161-.067-.325h.067v-.52h-.067Zm-5.858,11.718-.133.127h-.193l-.064.066-.393-.324V43.49l-.128-.066c-.093-.132.028-.092-.131-.194v-.2h.063l.068-.064.26.325.651.13Zm.193-1.108a.624.624,0,0,0-.26.13V42.9c-.212.088-.468-.216-.716,0a.654.654,0,0,1-.259-.066c.019-.174.044-.347.063-.522l1.172.2Zm.13-.847-.064.064c-.543,0-.783,0-1.238,0v-.454c.436.042.87.087,1.3.131Zm3.384-4.286-1.859,1.572-.725.891-.5,1.315-1.8-.258-.153-.575.03-.108-.247-1.514-1.072-1.511-1.072-1.571-.468-1.992V32.075l.8-1.419.765-.8,1.238-.665,2.145-.315,1.722.1,1.54.907,1.087,1.645.121,3.007Z" fill="#0070c3"/>
    <path id="Path_1964" data-name="Path 1964" d="M399.415,24.676c-.076.281-.205.222-.325.391V25.2l-.2.13-.064.259-.13.066-.064.261-.133.066-.064.194h-.066V26.3h-.064v.131h-.066c-.127.229-.171.391-.39.522.031.241.113.277.194.455.163.035.384.132.521,0,.267-.075.077-.023.2-.195l.13-.064v-.2l.327-.261.067-.261.127-.065.066-.194h.064V25.98l.195-.13.066-.263.129-.063v-.13l.261-.2v-.131h.063l.133-.194a.683.683,0,0,0-.065-.262A5.531,5.531,0,0,0,399.415,24.676Z" fill="#0070c3"/>
    <path id="Path_1965" data-name="Path 1965" d="M397.417,29.889l-1.54-.907-1.722-.1-2.145.315-1.238.665-.765.8-.8,1.419v1.749l.468,1.992,1.072,1.571,1.072,1.511.247,1.514-.03.108.153.575,1.8.258.5-1.315.725-.891,1.859-1.572,1.555-3.034-.121-3.007Zm.892,3.639h-.066v.392h-.065v.261h-.065c-.021.152-.043.3-.066.455h-.065v.195h-.063c-.023.152-.043.3-.066.456h-.064l-.067.261h-.062v.259h-.068l-.13.391H397.4v.131h-.065l-.129.391-.131.065-.063.26-.131.065-.066.195-.261.194v.131l-.13.065-.2.26h-.13c-.2.217-.39.434-.585.651h-.129l-.066.13-.194.067v.064l-.262.066V39l-.261.195v.131l-.195.128v.131l-.13.066v.129h-.065l-.129.391h-.066v.195l-.2.522a1.279,1.279,0,0,0-.521.2c-.493-.059-.453-.415-.844-.521a4.266,4.266,0,0,0-.068-1.626h-.063V38.8a2.066,2.066,0,0,1-.261-.456h-.131a.692.692,0,0,0-.194-.327h-.065v-.129h-.065l-.2-.261-.131-.066v-.129h-.066v-.13l-.194-.129-.063-.2h-.133l-.13-.26h-.065l-.066-.261-.128-.066v-.13h-.065v-.129H390.3v-.2h-.065l-.129-.39h-.067v-.261h-.064v-.262h-.066v-.389h-.065v-.13h-.065v-.259h-.065v-.262h-.066V33.4h-.065c.021-.3.046-.6.065-.91h.066v-.325h.065l.065-.261h.065l.13-.39.131-.066v-.194h.065v-.131l.131-.064v-.131l.13-.066.129-.323h.13a.669.669,0,0,1,.2-.327h.063v-.129l.131-.066.193-.26.262-.066.065-.13.39-.065v-.066h.13v-.064h.194V29.3h.262v-.065h.391v-.064h.519V29.1h.652a2.443,2.443,0,0,1,.913-.065V29.1h.456v.067h.258v.064l.26.065v.066h.13l.065.13.2.065v.065l.261.131v.13a.792.792,0,0,1,.391.2v.064h.129l.13.195h.065v.132l.2.127.062.261h.067v.2h.064v.128h.066v.13l.128.067v.195h.066A5.352,5.352,0,0,1,398.309,33.528Z" fill="#0070c3"/>
  </g>
</svg>
