<svg id="圖層_1" data-name="圖層 1" xmlns="http://www.w3.org/2000/svg" viewBox="0 0 22.6 22.62"><defs><style>.cls-1{fill:#0070c3;}</style></defs><path id="Path_4" data-name="Path 4" class="cls-1" d="M106.47,17.33H96.84v3.16h6.44a12.78,12.78,0,0,1-1.11,4.25,5.32,5.32,0,0,1-4.94,3.4h-.15V31.3h.15A8.54,8.54,0,0,0,105,26.11a15.91,15.91,0,0,0,1.43-5.62h2v1.27a12.4,12.4,0,0,0,1.32,6.16c1.38,2.38,4.25,3.59,8.5,3.59h.23V25.37h-3.15V28.2a3.94,3.94,0,0,1-2.86-1.87,9.47,9.47,0,0,1-.88-4.57V20.49h7.81V17.33h-9.78V10.76a2.13,2.13,0,0,0-.52-1.4,1.67,1.67,0,0,0-1.27-.47h-1.4v8.44m8.07-6.8a1.2,1.2,0,0,0-1,.7,16.92,16.92,0,0,0-1.79,4.54l0,.19h3.14l0-.1a48.82,48.82,0,0,1,2.34-5.1l.12-.23ZM99,10.77a48.82,48.82,0,0,1,2.34,5.1l0,.1h3.14l0-.18a16.89,16.89,0,0,0-1.78-4.54,1.21,1.21,0,0,0-1-.71H98.82Z" transform="translate(-96.84 -8.88)"/></svg>