<svg id="圖層_1" data-name="圖層 1" xmlns="http://www.w3.org/2000/svg" viewBox="0 0 21.54 21.61"><defs><style>.cls-1{fill:#0070c3;}</style></defs><path id="Path_8" data-name="Path 8" class="cls-1" d="M200.21,9.84h-.58v2.05H197V10.84h-4.16a.87.87,0,0,0-.26-.61,1.17,1.17,0,0,0-.78-.3h-2v.92h-4.21V13.1h11v1.25h2.84a14.09,14.09,0,0,1-.69,3.28c-.36-.34-.72-.65-1.07-.93l-.09-.07-.05.07-1.32,2,0,0c.07.06.67.56,1.45,1.32a12.29,12.29,0,0,1-2.22,3l-.07.05.73.61h-1.95v2.44H186.7v2.25h7.63v.82H185.2v2.26h21.54V29.19h-9.41v-.82h8.18V26.12h-8.18V24.55l.08.06,0,0a12.51,12.51,0,0,0,2.13-2.67,17.94,17.94,0,0,1,1.25,1.75l0,.07,2-1.39,0-.06a17.1,17.1,0,0,0-2-2.74,16.78,16.78,0,0,0,1.2-5.18h1.32v8.47c0,1.69,1,2.48,3.07,2.49h.07V22.75h-.72V13.64a1.74,1.74,0,0,0-.49-1.32,2.11,2.11,0,0,0-1.42-.48h-1.75v-.19a1.74,1.74,0,0,0-.49-1.32,2,2,0,0,0-1.35-.49m-14,3.62v4.41h9.84V15.32a1.79,1.79,0,0,0-1.75-1.85h-8.09Zm7.4,2.66h-5v-.9h5Zm-7.42,2.12v1.9h5.39l-.65.57-5.26.38v2l5.06-.36v.81h-2.94v1.9h3.95a1.21,1.21,0,0,0,1.39-1.29V22.58l2.92-.2v-2l-2.24.16.95-.81L196,18.58s0,0,0-.15v-.17h-9.85Z" transform="translate(-185.2 -9.84)"/></svg>