<svg id="圖層_1" data-name="圖層 1" xmlns="http://www.w3.org/2000/svg" viewBox="0 0 10.19 10.41"><defs><style>.cls-1{fill:#0070c3;}</style></defs><path id="Path_14" data-name="Path 14" class="cls-1" d="M6.12,4.62v.06a10.87,10.87,0,0,1-1.44,4.1v.07c0,.14.13.61.34,1.81l0,.16.51-.61V15h1.4V7.57s0-.07,0-.15.4-1.34.44-1.5h.19V15H9v-.4h4.28V15h1.52V5.83a.71.71,0,0,0-.2-.57A.89.89,0,0,0,14,5H7.61l0-.43H6.12M13.46,6.4v6.94H8.91V6.41h1.61v.8h-1V8.45h1v.77h-1v3.4h3.28V9.67a.42.42,0,0,0-.11-.32.55.55,0,0,0-.35-.12h-.52V8.45h1V7.64a.44.44,0,0,0-.44-.43h-.54v-.8Zm-1.69,3.93v1.22H10.56V10.33Z" transform="translate(-4.66 -4.61)"/></svg>