<svg xmlns="http://www.w3.org/2000/svg" width="19.885" height="28.7" viewBox="0 0 19.885 28.7">
  <g id="Group_191" data-name="Group 191" transform="translate(-213.466 -23.731)">
    <path id="Path_1614" data-name="Path 1614" d="M221.066,37.291l-2.474.959-2.36,2.913-1.144,4.647-.109,1.7-1.255,1.475.074,1.255,1,.664.847-.074,1.256.995,1.917-.109,2.1-1.107,2.471.7,2.95.7,1.955.075L230.1,50.6l.773-1.255,1.844-.516.516-1.216-1.289-1.142.036-4.721-1.513-3.309L228.98,36.85l2.448-4.613.259-1.549,1.327-1.549-.553-1.328-1.55-.7-2.357-2.691-5.152-.533-2.55,1.33-1.965,3.038-1.648.254-.49,1.479s.222.959.369,1.033a7.773,7.773,0,0,0,1.181.109l.374,3.808" transform="translate(0.109 0.066)" fill="#fff" fill-rule="evenodd"/>
    <path id="Path_1615" data-name="Path 1615" d="M220.792,30.248l.76.152c.05.152.1.3.152.456l.61-.152c.116-.456.092-.4.608-.456.172.172,0,.06.3.152a1.507,1.507,0,0,1-.153.611,2.973,2.973,0,0,1-1.52.455c-.3-.456-.43-.145-.608-.762h-.152Z" transform="translate(3.083 2.742)" fill="#0070c3" fill-rule="evenodd"/>
    <path id="Path_1616" data-name="Path 1616" d="M221.418,35.4l.445-.919.742.475-.15,2.017.326,1.246-.591,2.611-1.07.623-.505-.889.237-2.789.384-1.188" transform="translate(3.009 4.525)" fill="#ffec00" fill-rule="evenodd"/>
    <path id="Path_1617" data-name="Path 1617" d="M228.292,24.272c.018.051.037.107.053.159a1.022,1.022,0,0,1,.215.054.08.08,0,0,1,.107-.054v.054h.105v.053h.108v.053h.105v.053c.072.048.092.036.213.054V24.8a1.518,1.518,0,0,1,.635.426c.02.036.037.071.053.105h.108c.036.053.07.107.107.159h.055c.132.139.04.249.264.32v.159c.337.078.178.109.318.318l.158.105c.094.124-.055.1.162.162.033.143.068.119.107.264h.105c.041.2.129.206.158.425.321.053.639.105.958.161v.1c.21.058.175.156.32.267v.053h.105v.161l.105.053c-.016.071-.036.142-.053.213h.159a1.606,1.606,0,0,1,.054.371h.107v.213h-.054c.018.053.036.105.054.159-.018.213-.035.425-.054.637-.036-.018-.07-.036-.107-.053.018.034.037.071.054.107l-.107.053v.107h-.054v.159c-.047.075-.132.006-.21.055.018.051.034.105.053.158-.072.139-.185.023-.212.318-.148.04-.121.016-.161.159h-.107v.108h-.107c-.017.105-.036.212-.053.318l-.107.053a.811.811,0,0,1,.054.32h-.054V31.6h-.053v.054h.053v.054h-.053v.051h.053v.054h-.053v.212H231.9v.107h-.053c-.016.061.094.092.053.213h-.053v.105H231.8v.213h-.051c-.037.178-.072.355-.108.533h-.053v-.054h-.161v.107h.161c-.028.132-.065.111-.107.213h.055v.051c-.038.02-.072.037-.109.054v.107h-.053v.159h-.051v.107h-.054v.107l-.105.053c-.054.161-.107.318-.161.477h-.108c-.016.124-.034.249-.053.372-.3.092-.054.068-.158.266-.054.036-.108.071-.159.107v.161c-.037.017-.072.034-.107.053v.053c-.036.018-.071.036-.109.053v.107h-.051a.557.557,0,0,0-.159.267h-.107a.983.983,0,0,1-.213.371c-.087.018-.176.034-.264.053-.011.014.078.129.053.213,0,0-.035,0-.053.107a.359.359,0,0,0-.213.053v.054h-.213v.053l.108.054v.053h-.108l-.053.159h.053v.053h.053c-.017.054-.033.107-.053.159h-.053v-.159h-.105v.054l-.108-.054v.054c-.128.078-.082.156-.158.213h-.107v.051h-.105v.054c-.146.09-.1-.048-.162.159l-.264.053v.213h-.267c-.05.1-.071.084-.105.212h-.107v.108l-.267.053c-.034.054-.07.107-.105.159h-.212v.054c.061.06.018,0,.054.105h.051c.072-.084.115-.091.266-.105l-.054.159h.054c.06.06,0,.021.108.053.027.2.018.226.053.428h-.107c.034.051.07.105.107.158h-.107a1.41,1.41,0,0,1,0,.425h-.108c.011.111.007.051.054.105l-.054.159h-.053v.108h-.053c.018.053.036.105.053.158h-.1q.026.109.051.213h-.158l.051.053c.01.067-.077.09-.051.213a.139.139,0,0,1,.051.159h-.051v.107h-.054v.108c-.035.016-.071.036-.108.053v.318H226.8c-.034.107-.068.213-.1.317-.053.02-.107.036-.161.054.018.107.037.212.054.321h-.054c-.06-.061,0-.023-.105-.054v.107h.105c-.017.088-.036.178-.053.264h-.159v.051h.212c-.053.18-.064.107-.159.215h-.053v.161c-.037.017-.071.036-.107.053l.053.105h-.053c-.016.162-.036.32-.053.48h-.107c.072.185.037.233,0,.423h-.107V44.3h-.107c.018.037.036.072.055.109h-.055c-.017.068-.034.139-.053.21h-.054c-.016.144-.034.283-.053.426h-.107c.02.034.036.071.053.105h-.053c-.033.054-.07.107-.105.159-.054.02-.108.037-.161.054v.213h-.054v.053c-.053-.018-.105-.036-.159-.053v.053c-.128.119-.075.1-.053.266h-.264v.054h.159v.107h-.107c-.122.18-.141.038-.212.1.016.036.034.072.053.107h-.053v.054c-.074-.017-.144-.036-.212-.054-.02.054-.038.107-.055.161a1.687,1.687,0,0,0-.531-.107c-.146-.216-.257-.077-.266-.479h-.053c.018-.07.034-.142.053-.212h-.053l.053-.105h-.053V45.31c-.017-.071-.06.023-.053-.053a.1.1,0,0,0,.053-.107h-.053a.779.779,0,0,1,.053-.425h-.105a.964.964,0,0,0-.054-.372H223.3v-.422h-.054v-.375h-.054v-.583h-.051v-.161h-.055c.018-.425.037-.851.055-1.274h-.055v-.426h-.054v-.107h-.053a.138.138,0,0,1,.053-.159c.017-.109-.053-.1-.053-.1v-.852a10.816,10.816,0,0,1,.162-1.274c.161.051.108.017.318,0-.02.036-.035.071-.053.105h.158c.064.055.047.149.054.267.118.139-.036.222,0,.425h.053c-.017.053-.036.105-.053.158.017.161.036.32.053.479h.159c.05-.1.072-.082.108-.212h.1c.144-.267.284-.531.428-.8-.092-.061-.074-.034-.108-.159-.145-.034-.121-.07-.266-.107-.017-.088-.034-.176-.054-.266l-.742-.159V38.3h-.269v-.054h-.159v-.051l-.158.051c-.017-.034-.036-.071-.054-.1H222.5v-.055H222.4c-.02-.033-.034-.07-.055-.105-.3-.072-.6-.142-.9-.213-.02-.037-.034-.07-.054-.107-.071.018-.141.037-.212.054v.053c-.091.02-.091-.048-.109-.053h-.317v.105l-.531.054v.054h-.1c-.02.036-.037.07-.057.105a1.185,1.185,0,0,1-.531.108V38.3a.724.724,0,0,0-.371.213c-.017.036-.034.071-.054.107l-.212.053v.053a.6.6,0,0,1-.264.161v.107h-.161c-.088.122-.178.247-.266.372-.036.017-.071.033-.107.053-.017.053-.035.105-.053.158h-.105l-.266.479h-.108c-.018.071-.036.144-.053.213-.068.018-.141.036-.213.053.047.17.06.119-.053.266h-.053v.107c-.037.018-.072.036-.105.055.016.033.033.068.051.1h-.051v.107l-.108.053-.054.159c-.034.018-.071.038-.107.055.048.107.048-.054.107.053-.034.105-.071.212-.107.318-.034.017-.07.037-.105.053.017.054.035.107.054.161h-.054c-.017.088-.036.176-.051.264h-.108a1,1,0,0,1,0,.531H216.5v.107h-.055c-.016.09-.034.176-.053.267-.034.017-.07.033-.107.053v.213h-.053c-.017.07-.034.141-.053.212h-.053v.105h-.053l-.054.375h-.053v.1h-.054v.054h.054c-.017.09-.038.178-.054.266h-.053v.108h-.054v.158h-.053v.107H215.7c-.018.124-.037.249-.054.372H215.6v.159h-.055v.159h-.053q-.051.85-.105,1.7c.105-.018.213-.036.318-.053v-.053a2.058,2.058,0,0,1,.742.105v.053h.426c.195.057.479.118.691.161v.107c.124.013.136.007.212.053v.053h.213c.017.036.037.072.054.107h.053v-.054h.267a1.6,1.6,0,0,1,.158-.689h.054v-.054h-.054c.018-.053.037-.107.054-.159l.054.053c.033-.017.068-.036.105-.053-.061-.061,0-.021-.105-.054a1.165,1.165,0,0,1,.053-.212h-.053V46.32h.105v-.054h-.053c.036-.087.07-.176.105-.264.036-.018.072-.037.107-.053-.014-.061-.1-.148-.054-.266l.107-.054c.038-.1-.033-.078-.053-.105l.053-.161c.054-.017.107-.034.159-.054-.016-.122-.034-.246-.053-.371h.159c.018-.159.037-.32.054-.477.053-.037.1-.072.159-.108-.006-.061-.1-.145-.055-.266.037-.018.074-.034.108-.054v-.1h.108c-.018-.091-.037-.178-.055-.267h.108v-.108h.212V43.5c-.06-.061-.021,0-.053-.105.107-.018.213-.037.321-.053V43.4c.144.038.117.013.158.158.139.158.009.261-.054.375h-.051c.016.05.036.1.051.156h-.1a1.61,1.61,0,0,0,.053.159h-.053v.107c-.037.018-.072.036-.108.055v.317h-.053v.054h-.161v.053h.107c-.016.09-.036.178-.054.266-.034.018-.071.034-.105.053v.266h-.053v.108c-.037.017-.072.036-.107.053l.053.107h-.053v.158h-.055c-.016.178-.036.355-.053.531-.034.018-.071.037-.108.054v.212h-.051v.107h-.053v.215h-.054v.264h-.053v.159H219.1v.159l-.105.053c-.018.178-.034.355-.054.533l.213.053v.105a1.783,1.783,0,0,0,.371.055v-.213l.48-.053c.018.034.036.071.051.105h.057v-.053h.053v.053h.422l.055.105c.114.047.151-.044.21-.053v.053h.108v.055l.637.051.054.108c.037.007.294-.145.423-.159.018-.055.037-.108.053-.161.144-.017.287-.034.426-.053v-.053h.107v-.053h.371V47.97h.109v-.055h.318V47.86h.212v-.053h.267v-.053h.318V47.7h.161v-.054h.423v-.054h.264v-.053h.159v-.053c.125-.017.25-.037.372-.053v-.054h.32a4.016,4.016,0,0,1,1.647,0v-.107h-.053v-.159a.537.537,0,0,0,.212-.053c-.014-.053-.036-.105-.053-.159h.053V46.8l.107-.054v-.158a1.078,1.078,0,0,1,.108-.053c.041-.084-.036-.219.053-.269h.212v-.159h.053c.158-.178.5-.175.745-.266a.58.58,0,0,0,.053-.212h.161v-.053H229.2V45.31c.053-.016.105-.036.158-.053v-.107c-.075,0,.021.04-.053.054-.048.091-.105-.263-.105-.266h.105v.053h.053v-.053h.213c-.017-.09-.037-.176-.053-.267H229.3c.017-.053.037-.105.053-.158h.161c-.02-.053-.037-.105-.053-.161h.053c.077-.064-.192-.051-.213-.054v-.053h.161a.724.724,0,0,0-.054-.315h.054v-.055h.21c-.033.105-.07.212-.105.318h.053c.031.105,0,.047.053.105v-.053a.4.4,0,0,0,.159-.213h.053v.533h-.053c.02.105.037.213.053.32-.033.016-.068.036-.105.053v.053h.053c-.016.054-.034.107-.053.159l.105.054-.053.053c.02.159.037.32.053.477.178.018.354.037.534.053v.054h.318V45.9h.158v.054l.162-.054v.054h.107V46h.105c.017.036.034.071.054.105.158.02.317.037.476.053a2.886,2.886,0,0,1,.107-.425v-.584h.054a4.272,4.272,0,0,0-.107-1.434V43.4H231.8v-.32h-.051l.051-.158h-.051v-.108h-.054v-.264h-.054v-.161h-.053v-.32h-.051v-.161h-.055V41.7h-.054v-.266h-.053v-.107h-.051v-.213h-.054v-.107h-.053c-.02-.159-.036-.318-.053-.477h-.054c.017-.053.036-.107.054-.161-.037-.017-.071-.034-.107-.053-.018-.105-.038-.213-.054-.32l-.108-.053c-.016-.124-.034-.247-.053-.372l-.105-.053v-.105h-.053v-.107h-.054V39.2l-.105-.109v-.1l-.107-.053v-.108c-.054-.034-.109-.07-.161-.107v-.105c-.034-.017-.072-.036-.1-.054v-.105H230.1a.437.437,0,0,1-.107-.215h-.108v-.1c-.144-.04-.118-.017-.158-.161h-.159v-.053c-.128-.115-.043-.176-.105-.267h-.054c-.031.024-.007.088-.107.054v-.054a.44.44,0,0,1-.161-.266c.1-.048.085-.072.213-.105v.105c.119-.024.1-.067.213.054-.06.061-.02,0-.053.105h.264v.107h.105c-.016.037-.033.07-.053.107h.108v-.053h.053v.053c.064.047.065.132.107.161.075.05.152,0,.21.053-.016.036-.033.072-.051.105.162.125.239-.072.318.213h.054a1.118,1.118,0,0,0-.054.213c.189.021.162.065.318.107l.054.212h.108c.008.256.088.277.107.533h.159a.635.635,0,0,0,.158.371c.037.017.071.036.107.054-.017.053-.036.105-.051.158.034.018.07.036.1.053V40.1h.054c.017.143.034.286.054.426l.105.053c.018.162.037.32.053.477h.107a4.952,4.952,0,0,0,.372,1.171v.264h.054v.213h.053v.159h.054v.425h.053v.318h.053v.372h.054v.48h.053v.053H232.7a.089.089,0,0,0,.053.105l-.053.107h.053a2.876,2.876,0,0,1-.107,1.169v.425H232.6c-.017.159-.037.32-.053.479.179.045.136.109.317.161a.467.467,0,0,0,.107.21h.053v.107h.054v.161h.053v.105h.054v.266c.034.017.071.037.107.053v.215h.053a.69.69,0,0,1-.053.372h-.054c.018.053.034.105.054.158-.054.034-.107.072-.161.108v.21h-.053v.053h-.107q-.051.081-.107.162H232.7c-.018.036-.038.07-.054.105h-.159c-.018.036-.036.071-.053.105h-.161V49.4c-.335.037-.675.072-1.009.107a3.378,3.378,0,0,1-.212.851h-.108a.948.948,0,0,1-.318.479c-.037.017-.071.034-.105.053-.114.158-.1.266-.318.318-.057.216-.166.186-.267.318-.018.054-.036.109-.055.162-.068.016-.139.034-.212.053.02.034.035.071.054.105l-.69.213v.054c-.071.016-.142.034-.213.053v.053h-.158v.054h-.107v.054c-.054-.02-.105-.036-.161-.054v.054h-.212v.051c-.232.018-.462.034-.69.054v-.054h-.371v-.051h-.161v-.054l-.372-.054v-.053a.136.136,0,0,0-.159.053l-.32-.053-.107.053v-.053h-.053v-.053c.107-.031.045.006.107-.054H225.9v.107a1.682,1.682,0,0,1-.48-.107h-.372v-.053h-.105v-.053l-.425-.054c-.017-.034-.037-.071-.053-.107l-1.169-.105V51.58c-.1.033-.168.088-.269,0v-.107h-.053c-.043.074-.1.055-.21.053-.159-.016-.32-.036-.48-.053v-.053c-.051.018-.105.036-.161.053v-.105l-.263.053-.054-.105-.583-.108c-.018-.034-.038-.07-.054-.105h-.109c-.016-.037-.033-.07-.053-.107h-.051v.053c-.054.017-.108.037-.161.054v.053c-.169.105-.26.038-.318.266L220,51.58v.055H219.9v.053c-.054-.02-.107-.037-.159-.053v.105l-.053-.053c-.089.034-.178.07-.267.105-.018.036-.034.072-.055.107h-.158v.054h-.212v.053h-.266v.053l-.425-.053v.107c-.2-.077-.259-.024-.48,0v-.107c-.141.017-.283.034-.423.053-.017-.036-.034-.071-.053-.105l-.584-.054-.054.054c-.017-.037-.036-.072-.051-.108-.108-.017-.216-.034-.32-.053V51.74h.051c-.017-.053-.034-.105-.051-.161-.287-.051-.195-.112-.266-.159v.053h-.213v-.105l-.159-.053v-.053h.053c.061-.063,0-.023.107-.055V51.1a4.866,4.866,0,0,1-.956,0h-.425v-.054a.419.419,0,0,1-.215-.105v-.054h-.105c-.034-.053-.072-.107-.107-.159h-.107c-.068-.09-.141-.178-.212-.266h-.053V50.3h-.054a.426.426,0,0,1-.107-.318h-.053v-.212h.053v-.053h-.053a1.2,1.2,0,0,1,.107-.479V48.87h.053v-.107h.054v-.212l.1-.053c.1-.136-.055-.1.161-.159a.605.605,0,0,1,.48-.426c.033-.145.067-.121.105-.266.129-.033.1-.018.159-.107h.053c.018-.09.037-.176.053-.266-.034-.016-.07-.034-.105-.053.02-.054.036-.107.053-.159,0-.009-.078-.02-.053-.105.036-.02.071-.038.105-.054-.016-.054-.034-.107-.053-.161h.053c.02-.071.037-.141.054-.21h-.107c.041-.172.082-.117.107-.32h.054c-.054-.071-.108-.142-.161-.213.053-.037.107-.07.161-.107.034-.088-.051-.1-.054-.108a.856.856,0,0,1,.054-.583c.06-.061,0-.02.105-.054.011-.23.053-.178.053-.371l-.053-.054h.053c.018-.071.036-.142.054-.212h.054v-.267h.051c.061.061,0,.023.105.053.007-.283.08-.246.108-.476h-.108v-.107c.057.017.108.037.162.053v-.053h-.054c.02-.108.036-.213.054-.318h.053v-.215a1.117,1.117,0,0,0,.161-.158H215.6c.105-.389.21-.78.317-1.168.115-.065.116-.121.266-.161v-.107h-.212v-.053a.255.255,0,0,0,.159-.213h.053l-.105-.161c.091-.06.071-.031.105-.159h.161c-.018-.053-.036-.105-.055-.159h.107c-.017-.036-.034-.071-.051-.1.034-.02.07-.037.1-.055v-.264h.055c.06-.061,0-.023.107-.055.033-.105.07-.212.105-.318l.212.053c-.061-.06,0-.02-.107-.053.044-.217.166-.314.215-.531h.212l.053-.105s-.114-.009-.053-.053h.107v-.105h.159v-.163h.107c.088-.3.151-.1.32-.21v-.054a.211.211,0,0,1-.109-.107h.161v-.159c.242-.031.134-.047.267-.159v-.053h.212V38.3c.037-.017.071-.034.107-.054v-.1l.159-.055c.017-.033.036-.07.053-.105h.107c.053-.072.107-.142.159-.213h.107c.017-.037.037-.07.053-.107l.318-.053.055-.105c.107-.018.212-.037.318-.054v-.054H220v-.053h.425v-.053c.124-.037.213-.011.318-.054v-.053c-.226-.009-.182-.034-.318-.107v-.159l-.264-.053v-.054h-.053V36.65h-.161c-.038-.146-.017-.119-.161-.161v-.105l-.212-.053c-.036-.146-.068-.121-.108-.266h-.108v-.108h-.1v-.053L219.1,35.8V35.64l-.159-.105a.445.445,0,0,1,0-.32h-.107c-.017-.071-.033-.142-.053-.212h-.053c-.017-.124-.037-.247-.053-.372l-.107-.054v-.159h-.054c.018-.053.037-.105.054-.158-.036-.018-.07-.037-.107-.054V34.1h-.053c.017-.053.037-.107.053-.159-.036-.017-.071-.036-.105-.054V33.78H218.3c.018-.07.034-.141.054-.212H218.3v-.105h-.053a.139.139,0,0,1,.053-.161c.028-.128-.045-.135-.053-.213h.053v-.053l-.159-.053c-.044-.084.053-.374.053-.374l-.107-.053v-.266c.061-.06.021,0,.054-.107h-.107v-.159h.159c-.024-.121-.216-.4-.107-.479h-.107V31.5c-.051.017-.107.036-.161.051a1.04,1.04,0,0,0-.053-.105h-.264V31.39c-.107-.036-.213-.071-.318-.108-.05-.176-.165-.246-.267-.371h-.053v-.105h-.054V30.7h-.051v-.159h-.054v-.107h-.051v-.264s-.071.011-.054-.105a.094.094,0,0,0,.054-.108.091.091,0,0,1-.054-.107h.054v-.477c.034-.018.068-.036.105-.053v-.054h-.054a.95.95,0,0,0,.054-.213h.105v-.159h.161l.054-.212a.4.4,0,0,0,.264-.107V28.52h.105c.017-.034.037-.07.054-.105.124-.018.249-.037.371-.053v-.055c.2.018.392.036.585.055l.053.105c.068,0,.082-.048.213-.053v-.267c.148-.038.118-.014.159-.158h.159v-.054c-.159-.017-.143-.007-.213-.107.09-.053.179-.105.266-.159.119-.186-.134-.17.161-.264.018-.108.035-.215.053-.32.051-.018.107-.036.159-.053.071-.067.048-.188.053-.32h.108v-.158c.146-.041.119-.017.159-.162.146-.036.119-.014.161-.159H220v-.053c-.031-.006-.158.033-.107-.054h.054v-.053h.161v-.105h.1a.534.534,0,0,1-.051-.21c.166-.047.171-.108.264-.215h.053c.017-.054.037-.107.053-.161h.213v-.053a.418.418,0,0,1,.213-.053v-.107h-.108c.048-.216.155-.269.428-.266-.018-.07-.036-.142-.053-.212.286-.03.25-.139.423-.212h.213c.017-.037.034-.072.053-.107.108-.094.165-.1.371-.107.018-.054.036-.107.053-.162.09-.016.18-.034.269-.051v-.054c.105.02.212.036.318.054v-.054h.158v-.053h.426c.018-.036.034-.071.053-.108h.159v-.053c.09.02.178.036.267.053v-.053c.088-.013.105.053.105.053.089-.017.176-.033.266-.053V23.9h.161v-.055h.053v-.053h-.053v-.051h.159c.092.064.259-.041.477,0v.051h.053v-.051h.213a4.773,4.773,0,0,1,1.38.212.211.211,0,0,0-.1.107h.1c.017-.034.038-.071.054-.107l.744.053a3.068,3.068,0,0,0,.69.267m-5.152.477a.506.506,0,0,1-.055.213l-.213-.054v.054l-.212.053c.063.06,0,.021.108.053.053.2.156.168.21.372.166.03.223.051.267.212h.107v.109c-.3.014-.6.033-.9.051v.053h-.108v.053c-.088.017-.176.037-.266.054v.053c-.338.115-.5-.131-.53-.372.043-.016.18-.036.213-.053.018-.036.035-.07.053-.107h.159c.017-.034.037-.071.053-.107h.053v.054h.266v-.159h-.053v-.053h-.161c-.158.237-.236.078-.53.158,0,0,0,.047-.105.054l-.053-.054c-.089.107-.178.213-.266.32h-.109c-.244.3-.494.6-.742.9-.017.071-.034.142-.053.213-.054.034-.105.071-.158.107-.037.107-.072.212-.108.318-.036.017-.07.036-.107.053v.159c-.036.018-.07.036-.107.053v.108c-.035.017-.071.034-.105.053-.072.195-.143.389-.215.585.249-.02.5-.036.744-.054.017-.036.036-.07.054-.107.146-.037.128.1.159.107.089-.017.176-.036.266-.054V28.1h-.053c-.06-.084.129-.048.158-.053a.47.47,0,0,1,.107-.372H220.8c.02-.053.036-.107.053-.161h.054v-.053h-.054c.02-.07.037-.141.054-.212h.374v-.054h.105v-.053h.212v-.053h.107v-.053l.213.053v-.053h.266V26.98h.105v-.053h.48v-.054c.087-.014.091.051.1.054h.534c.017.034.033.071.053.107l.318.053a.5.5,0,0,0,.053.212l.161-.053V27.3a.811.811,0,0,0,.426.053V27.3c.068-.017.138-.036.212-.053v-.054h.53v.054c.084.011.269-.1.477-.107v.107l.213.053v-.107c-.107-.03-.045.006-.107-.053l.266.053.054-.158.266-.213v-.054h.159v-.053h.317s0-.07.109-.053v.053h.264v-.053c.129-.034.226.057.267.053v-.053c.105-.017.064.027.105.053.053,0,.084-.044.212-.053v.105l.159-.053v.053h.372c.017,0,.017.068.107.054v-.054h.318c.009,0,.02-.088.107-.053v.053c.148.038.119.016.161.161h.158v.053c.07.057.082.108.161.159l-.053.053a.089.089,0,0,0,.053.107v.053h-.053c.011.082.117.1,0,.159v.054h.053v.054h.371v-.054h.054v.054a4.792,4.792,0,0,0,1.115,0,2.062,2.062,0,0,0-.266-.584l-.212-.161v-.107l-.107-.053v-.107c-.087-.071-.178-.141-.266-.213V26.29c-.1-.088-.213-.176-.32-.266l-.158-.212h-.053v-.107l-.108-.107h-.105c-.053-.07-.108-.141-.161-.213-.071-.017-.141-.034-.21-.053l-.055-.105h-.107v-.054l-.212-.053v-.054l-.585-.053v-.053h-.159v-.054h-.212v-.053h-.267c-.016-.036-.034-.071-.053-.107-.085-.027-.1.051-.1.053h-.213V24.75h-.426V24.8l-.318-.053V24.8c-.112.016-.107-.053-.107-.053h-.745V24.8h-.423v.054h-.054V24.8h-.266V24.75h-.213V24.7c-.121-.017-.313.142-.531.105-.072-.011.021-.043-.053-.053-.023.011-.037.091-.159.053V24.75h-.107V24.7c-.125.018-.25.034-.371.053m-.48.584v.107l.161-.054v-.053Zm5.527.213-.054.159h.266c-.017.088-.034.176-.054.266h.054v.053h-.423a.851.851,0,0,0-.639-.107s0,.065-.107.054a.1.1,0,0,0-.1-.054.139.139,0,0,1-.161.054l-.053-.107-.32.053v.054c-.161.036-.284-.08-.425-.107a.749.749,0,0,1-.107-.318h.053v-.054l1.222-.053.108-.054v.054h.105v.053c.07.009.091-.1.212-.053l.053.107c.077,0-.021-.05.054-.054l.32.054m-1.117.105h.055v-.105h-.055Zm1.117.109c.06.058,0,.018.105.051-.061-.061,0-.021-.105-.051m-8.074.368c.058.061,0,.023.1.054-.061-.06,0-.021-.1-.054m-.161.428c.026.021.064.1.161.051v-.051Zm6.534,1.858h-.107a1.093,1.093,0,0,1,.107.477.7.7,0,0,1,.213.159l.266-.053v-.054h.371v-.053h.32c.017.036.034.071.053.107.082.014.068-.1.105-.107l.215.053v-.053c.142-.061.222-.1.264-.266.09-.1.054-.284.107-.425h.055v-.212h.051v-.054h-.051v-.159h.051l.054-.479-.32-.053v-.054h-.32v-.053l-1.327.107V27.3c.273.082.094.068.107.266h.053v.054c-.036.017-.071.034-.105.053v.159l-.108.053v.161h-.053a.634.634,0,0,0,0,.372m-5.1.159v.159h-.105V29h-.053v.053h.053v.108a2.5,2.5,0,0,0,.742.053c.153-.138.4-.031.531-.107v-.054a.7.7,0,0,0,.425-.425h.053v-.212h.054v-.108h.055v-.159h.051v-.105h.054V27.83h.054c-.018-.034-.038-.07-.054-.105v-.054h.054c0-.075-.018.013-.054-.053.016-.108.035-.212.054-.32l-1.063.053v.055h-.109v.051c-.24.1-.446-.068-.53.213h-.053c.018.036.036.071.053.107h-.053v.105h-.053v.054s.071.05.053.107l-.105.053c-.033.068.028.033.053.053v.108c.053.034.105.07.159.107.04.156-.135.2-.266.212m4.038-.85c.075.114.126.105.318.105.061-.061,0-.02.107-.053v-.053ZM225,28.786v.107l.212-.053v.053h.107v.053h-.054c-.06.06,0,.021-.105.054-.061.267-.246.28-.584.266v-.053h-.426V29.16c-.07-.02-.141-.036-.21-.054V29l-.267-.054v.107h-.107v.161h-.053c-.061.061,0,.021-.105.053v.159l-.161.053v.055h-.105v.051l-.587.053v.054H222.4v.053c-.125.037-.141-.053-.213-.053v.053h-.743a.139.139,0,0,1-.159.054v-.054l-.32-.053c-.054-.072-.108-.142-.161-.213h-.053a1.744,1.744,0,0,1-.161-.8l-.317-.054a.147.147,0,0,1-.158.054v-.054h-.161v.107l-.533.053v.054a1.132,1.132,0,0,0-.213-.054c-.016.09-.036.178-.053.266H219.1v.108h-.053c-.017.193-.034.388-.053.583h-.054V29.9h-.053v.266h-.054v.479h-.053v.159h-.053a.137.137,0,0,0,.053.159v.8h.053c-.017.107-.033.215-.053.318.107.639.213,1.276.318,1.914h.054V34.1h.053v.161c.037.017.072.034.107.053v.105h.051v.213h.055v.159h.053V34.9h.053v.159l.108.053v.159l.107.054v.107l.105.054c.018.088.038.178.054.264h.054c.017.054.034.107.053.159.156.037.173.06.212.213.155.037.175.06.213.213.216.051.186.169.318.264l.159.054.054.107c.051.018.1.034.159.053v.107a.562.562,0,0,1,.266.159v.054c.054.017.107.034.159.053l.053.107h.107c.036.053.072.105.107.159h.107V37.5h.105v.051h.161v.054h.158v.053h.161v.054h.108l.051.105h.161v.054h.107v.054h.213v.053h.159v.053h.212v.053h.212v.055h.159v.053h.159v.051h.159V38.3l.321.054c.016.034.033.071.053.107h.159v.053h.054v-.053l.69-.054c.018-.036.036-.07.053-.107h.159v-.054l.531-.051v-.053h.107l.053-.108h.267l.105-.159.318-.107c.02-.037.035-.07.055-.107l.264-.053c.017-.034.034-.071.054-.105h.105l.159-.213h.105c.125-.142.25-.283.374-.425l.212-.054c.055-.088.107-.178.161-.266l.158-.054.107-.105v-.105h.055a.915.915,0,0,0,.263-.374h.108c.017-.053.036-.105.053-.159l.213-.159v-.105c.036-.018.068-.037.105-.054v-.107l.159-.107v-.107c.037-.017.072-.036.105-.053.02-.071.037-.142.055-.212.034-.018.071-.036.107-.054.016-.071.034-.141.053-.213l.108-.053v-.107h.051v-.105h.051v-.161l.109-.053v-.107h.053c.017-.07.034-.142.054-.213h.051v-.212c.036-.017.072-.034.108-.054.034-.176.07-.352.105-.53l.105-.054c.124-.55.25-1.1.374-1.648.054-.2-.1-.368-.105-.476-.01-.075.036.02.053-.054v-.213h.107c-.02-.389-.037-.779-.054-1.168a4.515,4.515,0,0,1-.212-1.169c-.108-.017-.215-.036-.32-.054V28.2h-.053v-.054h-.266c-.011,0-.018.074-.109.054v-.054h-.1V28.1l-1.01-.053a.411.411,0,0,1-.108.159v.105h.053a1.728,1.728,0,0,0-.053.213h-.105a.784.784,0,0,1,0,.479h-.053c-.018.07-.037.141-.053.213h-.108v.107a.444.444,0,0,0-.212.105v.053h-.32v.055l-.159-.055v.055h-.745v.051a5.572,5.572,0,0,1-1.009-.051v-.108a.487.487,0,0,1-.32-.264h-.053q-.028-.162-.051-.32h-.055v-.32H225.8v-.372h-.054l-.053-.105h-.107c.02-.053.036-.107.053-.161h-.053v.054c-.09.041-.271-.08-.32-.107v-.053l-.476.053v.053c-.054.02-.107.037-.159.054-.037.054-.074.107-.107.159h-.105v.053l-.108.054v.105h-.053c-.065.117.037.321.053.374h-.053v.053h.318v.053Zm6.906-.266a3.4,3.4,0,0,0,.266,1.222.25.25,0,0,1,.213-.159c.034-.276.274-.527.161-.9h-.054l-.107-.691c-.037-.017-.07-.036-.107-.054.017-.054.037-.107.054-.159H231.8a.583.583,0,0,0-.051.213c.051.142.105.283.158.425-.034.018-.071.036-.107.053v.053Zm-1.7-.691c.058.06,0,.021.1.053-.058-.058,0-.02-.1-.053m-.267.107c.026.023.065.1.159.054v-.054Zm.585.107c.06.061,0,.021.105.053-.06-.061,0-.02-.105-.053m-12.807,1.009v.108h-.105l-.054.159-.107.053v.161l-.105.051c-.016.045.082.273.053.425h-.053c-.007.075.04-.02.053.055v.423h-.053c.018.053.036.107.053.161h.107c.017.087.034.176.053.264a4.123,4.123,0,0,0,.425.107.228.228,0,0,1,.107-.107.708.708,0,0,1-.053-.264h.107v-.32h.053l-.053-.107.159-.053c-.016-.082-.1-.1-.107-.105v-.215h.054V29.8h.318v-.054h-.318V29.69h.053c-.033-.112-.067-.1,0-.213h.054c-.02-.036-.036-.07-.054-.105.071-.036.143-.071.212-.107v-.053H218.3v-.107h.107a.662.662,0,0,1-.053-.266c-.119.018-.1.05-.107.053h-.267c-.017.036-.036.071-.051.107-.071.017-.141.036-.215.053M224.787,29c-.038.053-.072.107-.107.161h.107c.041-.071.036-.064.107-.108-.06-.06,0-.021-.107-.053m-.266.107c.06.06,0,.021.107.054-.061-.063,0-.023-.107-.054m8.128.266h.054v-.107h-.054Zm-14.665,1.753c.061.06,0,.02.107.053-.06-.06,0-.021-.107-.053m7.12,7.917v.107c.072.016.143.036.213.054v.054c.121.038.151-.07.213-.054v.054h.105v.051a.527.527,0,0,0,.268.054c-.02.033-.037.07-.055.105h.055c.016.036.033.072.051.105h.107c.071.09.143.178.212.267h.054v.212h.053V40h.159v-.053h.054v-.372c.054-.033.107-.07.159-.105-.017-.053-.036-.105-.053-.159h.053v-.318h.051c.017-.107.038-.213.054-.32h-.105v-.053l-.318.105v.054h-.426v.053l-.318.108v.053c-.193.016-.389.036-.585.053m-.21.8H225c-.062.061,0,.021-.105.053.016.088.034.178.053.266-.112.064-.118.121-.266.159.058.061,0,.021.107.053v.108c-.054-.02-.107-.036-.159-.053.016.105.034.21.053.32h-.212v.051h.105v.159c.232.156.03.212.477.212.053-.07.107-.141.159-.212h.053v-.159h.054v-.161h.053v-.477a1.8,1.8,0,0,0,.108-.533.718.718,0,0,1-.267-.263h-.053v.053a.466.466,0,0,0-.264.425m1.114.53h.054v-.105h-.054Zm.054.426a.442.442,0,0,1-.107.264H225.9c.016.054.033.107.051.162h-.107c.036.124.071.246.107.371h.107c.018-.107.035-.213.053-.318.037-.017.071-.037.107-.053v-.162c.036-.016.07-.034.107-.053v-.159h.053c-.017-.088-.034-.176-.053-.266-.146-.033-.121-.07-.266-.105.018.053.035.105.053.158h-.053c-.036.054-.07.109-.107.161Zm-2.124.053c-.047.217-.142.217-.161.479h.053c.017.088.036.178.053.266.061-.061.021,0,.055-.107.225-.176.141-.345.1-.638Zm2.92.107c.061.061,0,.021.108.053-.06-.06,0-.02-.108-.053m-2.709,2.178c.018.053.037.108.053.159-.034.018-.07.036-.105.055V43.5h-.054v.105h-.051v.323l-.108.05v.213h-.053c-.017.053-.037.105-.053.159.3.074.378.416.371.8h-.107c.054.159.107.321.159.479h.055v-.053l.318-.213v-.107h.107c.046-.183.108-.135.159-.318.054-.017.107-.037.159-.053.017-.107.036-.215.053-.32l.107-.053v-.161h.053c.018-.107.037-.212.053-.32h.054v-.1h.053v-.055h-.053c.036-.159.071-.32.107-.477h.054v-.108h.053v-.159h.053c-.017-.07-.033-.141-.053-.21h-.053V42.23h-.054c-.023-.158.1-.132.107-.161.036-.149-.09-.115-.107-.161v-.264h-.054c-.107-.1-.3-.009-.476-.053v-.053h-.213v-.054c-.072-.021-.007.017-.053.054-.2.185-.011.2-.054.369h-.053v.108h-.053c-.018.125-.037.249-.053.372-.038.016-.074.036-.108.053a.138.138,0,0,0,.053.159c.023.135-.053.159-.053.159-.03.128.057.139.053.215l-.053.053h-.053v.053h-.374v.053Zm5.473.108.32.051c-.018.036-.036.071-.055.108h.055c.058-.061,0-.023.107-.053a.525.525,0,0,0,.053.21h-.215V43.5h-.053l-.053.053v.053h.267c-.04.148-.014.119-.162.161v.107h.108v.105h-.161v-.105l-.264-.053c0-.109.016-.117-.053-.159v-.055c.053-.017.105-.033.158-.053-.009-.1-.1-.084-.105-.105a.944.944,0,0,0,.053-.212m-9.829.477c.026.023.068.1.161.053v-.053Zm9.458.692h.105v.105h-.105Zm.318.21c.038.148.014.119.159.161v-.161Zm-.426.053h.161v.054h-.161Zm-9.988.479c.063.061,0,.021.107.054-.061-.061,0-.02-.107-.054m10.362.426c-.02.053-.037.107-.053.158h.053c.061-.061,0-.018.105-.051v-.107Zm-.531.85v.108h-.105a2.044,2.044,0,0,1-.639.583c.017.036.037.071.053.107h.053v.053h-.053c-.051.1-.072.082-.105.213h-.107c.018.036.036.07.053.105h-.053V47.7l-.105.053c-.02.159-.037.32-.055.477.055.018.108.037.161.053v.055l.264.051v.055h.109V48.5h.212c.017.036.033.07.051.105h.162v.054h.158v.054h.161v.051h.158v.054l.9.053v.053c.195.017.391.037.584.053v-.053h.321V48.87h.53v-.053c.088-.02.178-.036.266-.054.017-.034.034-.071.053-.105h.107l.107-.159h.107l.107-.108v-.107l.107-.053c.016-.141.036-.283.053-.425h-.053c-.018-.125-.037-.249-.054-.371h-.053v-.161c-.006-.01-.08-.057-.107-.107-.1.048-.149.061-.266.107v.054h-.054c-.074,0,.02-.038-.053-.054-.126-.021-.142.057-.212.054h-.054v-.054c-.138-.092-.114-.3-.107-.531.061-.061.021,0,.053-.107a.482.482,0,0,1-.1-.1h-.213c-.02-.037-.037-.072-.054-.108h-.105v-.054c-.161-.016-.321-.036-.479-.053v-.054c-.125.018-.249.037-.375.054v-.054h-.53v.054h-.264v.053c-.09-.016-.176-.036-.266-.053-.02.037-.036.071-.053.107Zm-1.117.479v.054h-.054c-.1.044.107.053.107.053V46.96h.055c-.062-.061,0-.023-.108-.054m-1.434.477h-.107v.054h.053v.053h.054Zm-11.955,3.19c.06.223.212.172.477.158v-.053c.105.016.213.034.318.053v-.053c.088-.02.179-.037.266-.053.017-.053.036-.108.055-.161h.21s0,.108.054.053v-.107a.48.48,0,0,0,.266-.053V50.3h.213c.017-.033.034-.071.051-.107.161.02.32.036.479.054V50.2a.858.858,0,0,1,.425,0v-.05l.32.05v.054c.09.018.092-.048.105-.054h.372v.054h.107V50.2c.072-.05.141-.1.213-.158-.018-.054-.036-.107-.053-.159h.053c.017-.159.037-.32.053-.48h.053a.5.5,0,0,0,.054-.263h.159v-.054h-.053c-.071-.149.092-.182.105-.266a1.886,1.886,0,0,1-.105-.533c-.071-.016-.142-.034-.213-.053v-.105c-.118-.017-.141-.006-.212-.053v-.053h-.107c-.018-.037-.036-.072-.054-.108h-.107V47.86c-.122-.016-.246-.036-.371-.053l-.054-.105H217.4v-.054h-.159v-.054h-.212v-.053h-.69v-.053c-.075-.009.018.038-.055.053h-.317v.053c-.107.02-.213.036-.32.054-.034.054-.071.107-.107.159h-.107c-.016.037-.035.071-.051.107h-.108c-.034.055-.071.108-.105.161-.054.017-.108.034-.161.053-.07.088-.141.178-.213.264h-.053c-.017.037-.033.071-.053.108h-.105c-.088.105-.176.213-.267.318v.105h-.054v.32h-.053V49.4h-.053v.055a.092.092,0,0,1,.053.105h-.053v.213h-.053v.054c.07.229.142.458.212.689.054.017.108.036.161.055m11.263-2.5-.584.053v-.053h-.264c-.021.053-.037.105-.054.158l-.159-.053v-.105h-.107v.105a2.11,2.11,0,0,1-.426.053v.053h.053c.1.047-.105.055-.105.055v.051h-.266v-.051l-.212.051v.161a2.012,2.012,0,0,0-.426-.053v.053h-.051c.03.107-.009.047.051.107v.054h.267v.051h.105v.054h.374a5.753,5.753,0,0,0,1.54.212l.426.054V49.03h.1v-.054h.266v-.053h.161V48.87h.159v-.053c.159-.088.32-.179.477-.266v-.105c.146-.037.122-.07.266-.107v-.108c-.036-.017-.07-.036-.107-.053v-.21h.107a.643.643,0,0,1-.054-.215h-.369c-.018.036-.036.07-.055.105h-.371v-.053a.144.144,0,0,0-.159.053c-.145.037-.318-.075-.372-.053v.053c-.156.037-.175.058-.213.215m-1.86.158c.061.061,0,.023.108.053-.063-.058,0-.02-.108-.053m-4.3.426c-.055.018-.108.034-.161.054a1.206,1.206,0,0,0,.105.105c.077.192-.088.233-.105.266V49.3h-.055V49.4h-.051v.107h-.053v.108h-.054a.975.975,0,0,0,0,.48,13.383,13.383,0,0,1,1.436.263l.477-.054v.054h.108c.07.09.139.176.212.267h.105v.053h.107v.053h.159v.053h.212v.054h.161v.053l.745.054V51h.213v.053l.53.054v.053h.32v.053h.21v.055h.216v.053h.212v.053h.159v.053h.264v.053h.212v.053h.32v.054h.266v.055h.372v.053h.372a2.59,2.59,0,0,0,1.168.158v-.053h.32V51.74c.107-.037.212-.072.318-.105V51.58h.107v-.054h.161v-.053l.158-.053.055-.105h.21c.02-.036.036-.072.053-.108a.9.9,0,0,1,.426-.264c.051-.18.064-.1.159-.213h.053v-.105h.105c.06-.23.172-.183.27-.321V50.2c.031-.017.07-.034.1-.05a2.129,2.129,0,0,0,.267-.692,2.441,2.441,0,0,0-.479-.055V49.3l-.32.053V49.3h-.212V49.19a.539.539,0,0,1-.426-.053h-.158v-.054h-.161V49.03H228.5c-.037-.054-.071-.107-.107-.159-.129-.108-.293-.1-.531-.107-.087.134-.189.124-.318.212-.037.054-.068.108-.105.162h-.108c-.036.053-.07.105-.107.158h-.1c-.02.036-.036.072-.055.105h-.158c-.018.037-.036.072-.055.107h-.371v.054h-.107v.054h-.159v.053c-.242.08-.577-.084-.743-.053v.053a1.175,1.175,0,0,1-.426-.107h-.423v-.054h-.372v-.051h-.318V49.4h-.215v-.053h-.371V49.3h-.267v-.053h-.371V49.19H222.5v-.053h-.213v-.054h-.213V49.03l-.689-.054v-.053h-.212V48.87h-.213v-.053c-.266-.02-.531-.036-.8-.054a.91.91,0,0,1-.053-.105h-.161V48.6H219.9c-.044.034.018.077-.054.054V48.6h-.158v-.053c-.054-.017-.107-.037-.162-.053v.053c.061.061.023,0,.055.107m3.4-.054c.063.061,0,.021.107.054-.058-.06,0-.021-.107-.054m-4.2,1.912c-.05.19-.139.169-.371.161v-.053c-.111-.064-.22.063-.266.053v-.053a2.916,2.916,0,0,0-1.223.105h-.212v.053H216.6v.054h-.215v.053h-.051v.159c.176.1.286.22.476.32v.053l.479.053v.053h.213v.054h.426v-.054a.151.151,0,0,1,.158.054c.195-.036.389-.07.585-.107v-.053l.212-.053v-.053h.107v-.053c.105-.02.212-.037.318-.055v-.053h.107V51.1h.213v-.054h.159c.018-.036.037-.07.053-.105h.108v-.054h.213v-.053H220V50.73H219.9v.053c-.209.041-.016-.078-.212,0v-.105h-.054v.053h-.372c-.017-.037-.036-.072-.054-.105H219.1v-.108c-.17.063-.132.034-.318,0m7.333,1.489c.026.023.067.1.159.053v-.053Z" transform="translate(0 0)" fill="#0070c3" fill-rule="evenodd"/>
  </g>
</svg>
