<svg xmlns="http://www.w3.org/2000/svg" width="32.231" height="27.498" viewBox="0 0 32.231 27.498">
  <g id="Group_190" data-name="Group 190" transform="translate(-128.272 -24.866)">
    <path id="Path_1604" data-name="Path 1604" d="M145.793,37.279l7.284-1.965.216.982.024,4.361-.791,4.768-6.422,1.51-.839-.455-1.006-.1-.431-.5-.671-.048L137,43.029V35.314l.144-.6,7.068,2.3.946.039Z" transform="translate(4.656 5.255)" fill="#ffec00" fill-rule="evenodd"/>
    <path id="Path_1605" data-name="Path 1605" d="M143.156,32.414l2.756-6.11,3.785-.575s3.532-.1,3.564,0,2.451,2.9,2.451,2.9l1.391,4.217.359,1.27-1.389,2.443-1.75,1.248.167.371,2.205.779,1.486,2.037,1.2,2.372.336,3.043.359.863-.767,1.676-1.317.408-1.175-.408-.478-1.293.406-1.414,1.127-.767-.192-4.792-.36-.528-6.732,1.869-.958-.169-.863.169-1.869-.958-5.032-1.606-.239.311-.169,1.294-.623-.072-4.768.767-2.731.359-.574.072-.123-.5-1.221-.12-.816.1-1.365-.695-.767-1.917.767-2.11,1.606-.287.431-1.379-1.486-3.989.672-1.2.981-.36,1.15.288.791.911.336,2.54s-.121.934-.121,1.006,1.247,2.9,1.247,2.9l1.054.147,4.289.4,2.995.1,2.78-.359-1.126-1.415-1.583-3.354" transform="translate(0.104 0.437)" fill="#fff" fill-rule="evenodd"/>
    <path id="Path_1606" data-name="Path 1606" d="M130.592,31.9c.071.071,0,.025.121.06C130.644,31.892,130.712,31.938,130.592,31.9Z" transform="translate(1.238 3.753)" fill="#0070c3" fill-rule="evenodd"/>
    <path id="Path_1607" data-name="Path 1607" d="M144.641,27.984v-.063a1.488,1.488,0,0,1-.238.063c-.023.1-.043.205-.06.307.195.173.078.242.475.248v-.063H145v-.061h.121c.04-.06.081-.124.118-.187a3.885,3.885,0,0,0-.357-.244Z" transform="translate(8.574 1.63)" fill="#0070c3" fill-rule="evenodd"/>
    <path id="Path_1608" data-name="Path 1608" d="M141.437,48.423a.087.087,0,0,1,.011.055.446.446,0,0,1,.12,0c.06.081.118.164.179.247h.12v.063h.118v.061h.179v.061h.238v.061c.1.02.2.041.3.063v.06h.12v.061l.419.063v.061l.238.061V49.4h.179c.02.041.038.083.061.124h.118v.063c.138.018.279.04.417.06v.063h.178v.061l.239.061V49.9h.181c.02.041.037.083.058.123l.3.063c.037.061.08.123.118.182h.123v.063c.216.083.436.164.655.247.018.04.041.083.058.124h.121v.061l.239.061v.063h.236v.06h.12V51c.12.023.241.041.362.061v.063h.178v.063h.179v.06h.178v.063c.179.02.36.041.538.06.118.166.239.33.357.5h.239c.291.1.491,0,.836,0v.186h.061v.06h.179c.021.041.04.083.06.123l.475.063v.063l.9-.126V52.3h.058v-.063c.1-.021.2-.04.3-.06v.06c.279-.021.558-.04.836-.06v-.063h.181v-.06h.238v-.063l.776-.063v-.06h.3v-.061c.2-.043.4-.083.6-.124v-.06h.178v-.063h.178V51.5c.179-.017.357-.04.538-.06v-.063l.357-.123v-.06l.54-.063v-.063h.118V51c.3-.04.6-.083.9-.121.018-.1.038-.207.058-.31h.058v-.492c.021,0,.04-.006.058,0,.029-.063.031-.138.1-.173.094-.049.262.008.362.02.186.023.374-.037.56-.032v-.061c.21-.1.152.048.3,0v-.061h.121v-.061c0,.028.23-.021.253-.038s.034-.084.067-.11.1-.006.144-.031.035-.054.061-.1c.078-.146.219-.264.31-.4a2.774,2.774,0,0,0,.15-.255c.018-.035.049-.15.086-.167l.063,0v-.124c.037-.02.078-.041.12-.06v-.124h.06v-.371h.06v-.37h-.06c.018-.081.037-.164.06-.247-.041-.02-.081-.04-.12-.061v-.123c-.063-.041-.12-.084-.181-.123v-.186h-.058c.018-.1.041-.2.058-.308h.061c.018-.451.037-.9.057-1.357h-.057v-.121H160.2c-.017-.187-.04-.371-.058-.557-.043-.02-.08-.041-.121-.063.02-.061.041-.123.063-.182h-.063V44.1h-.058c-.021-.141-.041-.287-.063-.431h-.057c-.021-.081-.04-.164-.061-.245h-.058v-.245h-.061c-.04-.126-.08-.248-.117-.371h-.063c-.018-.081-.038-.164-.058-.247-.04-.02-.081-.04-.121-.063-.018-.1-.038-.2-.058-.308L159.008,42v-.121h-.061c-.058-.083-.117-.166-.176-.248l-.121-.061v-.245h-.058V41.2h-.061v-.123l-.118-.064v-.123h-.058v-.123l-.12-.123v-.126c-.041-.017-.081-.04-.123-.06v-.123h-.058v-.123h-.06c-.11-.195-.124-.308-.36-.371v-.123c-.077-.043-.078-.1-.117-.123h-.121c-.041-.061-.078-.123-.12-.184h-.118c-.018-.043-.04-.083-.061-.126-.06-.02-.12-.041-.178-.063v-.06c-.08-.02-.158-.041-.239-.063-.021-.04-.04-.08-.06-.123H156.5c-.021-.04-.041-.08-.06-.123h-.121c-.018-.041-.04-.081-.058-.123h-.182v-.063h-.118v-.06h-.178v-.063l-.239-.063a.1.1,0,0,1-.121.063V38.49h-.238c-.018-.038-.038-.081-.06-.123-.2-.1-.152.094-.3-.123a.647.647,0,0,0,.3-.123v-.06h.12V38h.12l.12-.126h.12c.06-.081.118-.164.179-.245h.118v-.061c.089-.084.084-.032.121-.187.08-.018.158-.038.239-.061.018-.061.04-.123.058-.184h.121a1.929,1.929,0,0,1,.477-.678l.118-.063v-.123c.06-.043.121-.083.179-.124.02-.081.04-.164.06-.244.041-.021.078-.043.12-.061.02-.063.04-.127.06-.187h.061c.018-.081.038-.164.058-.245l.12-.126v-.121c.04-.021.081-.041.12-.063v-.245h.061c.038-.123.078-.247.118-.371h.178v-.061h.063v.061l.6-.061c.018-.061.04-.123.058-.186.126-.144.012-.3,0-.492q-.087-.554-.179-1.11h-.06v-.186h-.058v-.061h.058c-.018-.227-.041-.451-.058-.676h-.061v-.247h-.058v-.186h-.06v-.245h-.058v-.311h-.06v-.247h-.06V30.29h-.063v-.184h-.06c-.02-.081-.037-.164-.058-.248h-.06v-.367h-.06v-.124c-.038-.021-.081-.041-.12-.061v-.247c-.038-.021-.08-.041-.12-.063-.02-.083-.038-.164-.061-.247-.037-.018-.078-.04-.117-.061v-.124l-.241-.182v-.124l-.357-.308c-.018-.061-.041-.124-.06-.186-.06-.021-.12-.04-.179-.061-.1-.123-.2-.245-.3-.37h-.061v-.123H156.2v-.061c-.161-.144-.321-.287-.48-.432v-.124c-.038-.018-.077-.04-.118-.06v-.063h-.239v-.124c-.253-.084-.17-.043-.12-.245h-.06c-.038-.061-.08-.123-.12-.186h-.118l-.06-.123h-.3c-.023-.041-.041-.083-.061-.123h-.357l-.061-.123c-.158-.021-.317-.043-.477-.063v-.06h-.179v-.061h-.3V25.3h-.3v-.063h-.3v-.063h-.538v-.061H151.6V25.05h-.12v-.061h-.3v-.06h-.6v-.063h-.777c-.02.041-.041.083-.061.123-.058-.021-.118-.04-.179-.06v.06h-.3v.061c-.06-.018-.12-.04-.181-.061v.061c-.379.021-.756.043-1.135.061v.061h-.179v.063H147.6V25.3h-.179v.063h-.178v.061c-.08.018-.161.038-.242.06v.063h-.179c-.018.04-.037.08-.06.123h-.3v.061h-.179v.061h-.179v.063h-.12v.06h-.118c-.021.043-.04.084-.063.124l-.238.061c-.041.061-.08.123-.117.186l-.3.06v.063a.514.514,0,0,1-.241.124v.121c-.058.021-.12.043-.179.063v.061h-.178c-.041.061-.078.123-.121.186l-.178.061v.124h-.12c-.086.15-.187.172-.238.37-.164.044-.133.015-.178.184H143.6a3.342,3.342,0,0,1-.241.37c-.057.021-.117.041-.178.061v.124c-.1.083-.2.166-.3.245-.02.061-.04.126-.06.186h-.12l-.181.555c-.06.04-.12.083-.179.124-.04.124-.08.247-.118.37-.04.021-.08.04-.118.06v.124l-.181.124v.184c-.058.043-.118.083-.178.123v.187c-.041.018-.08.04-.12.061v.186h-.06c-.021.08-.04.164-.06.247h-.06c-.02.121-.04.245-.06.368h-.061v.184c-.04.023-.078.043-.118.061v.31h-.06a2.485,2.485,0,0,0-.12.863c.11.058.094.084.238.124v.123c.221.02.439.04.658.061v.061h1.015c.066.129.1.107.12.307.058.021.12.043.181.063.018.205.038.413.06.616h.057V34.3h.061v.184h.06v.124h.06v.186l.181.123v.247h.06v.121h.058v.186c.037.021.08.043.12.061v.248c.078.063.159.124.238.184.02.1.043.205.06.308.06.04.12.083.178.123v.063c.043.021.08.041.121.061v.124c.04.018.08.04.118.061v.123h.06c.055.084.041.109.06.247.15.043.1.032.181.123h.058v.123l.48.432v.063h.12c.017.06.038.123.06.186h-.06c-.144.127-.535.038-.778.063-.478.038-.955.08-1.434.12v.063H142.7v-.063h-1.435v-.06h-.178v-.06h-.537V38a.1.1,0,0,0-.121.063c-.1-.023-.2-.043-.3-.063v.063a.157.157,0,0,1-.178-.063h-.839v-.063h-.774a5.283,5.283,0,0,0-1.316-.123c-.12-.021-.238-.043-.359-.063-.021.041-.037.08-.06.123h-.06v-.06h-.178v-.063h-1.015c-.06-.1-.121-.205-.181-.31-.038-.017-.078-.04-.12-.061-.078-.245-.16-.492-.238-.738-.081-.061-.161-.124-.238-.186v-.123h-.061c-.02-.084-.04-.166-.058-.247h-.06c-.021-.124-.041-.245-.061-.373h-.061v-.121h-.057c-.02-.143-.04-.287-.06-.431H134.1q-.028-.524-.061-1.049h.061v-.432s.077.008.061-.123H134.1a.105.105,0,0,1,.061-.124c-.021-.038-.04-.083-.061-.123h.061c.015-.115-.061-.123-.061-.123.021-.061.04-.123.061-.184a.118.118,0,0,1-.061-.123h.061c.015-.107-.055-.106-.061-.126v-.615h-.061c-.018-.205-.037-.413-.058-.616h-.061c-.017-.084-.035-.164-.058-.247H133.8c-.021-.1-.04-.205-.06-.308-.04-.02-.078-.041-.118-.06v-.124c-.061-.043-.12-.084-.181-.124v-.123c-.04-.02-.078-.041-.12-.064-.078-.1-.159-.2-.238-.305h-.12v-.063h-.12v-.061c-.141-.02-.279-.041-.417-.06v-.064h-.182v-.063c-.337-.018-.673-.038-1.015-.061-.379.146-.754.29-1.133.432-.078.31-.33.406-.42.681-.017.327-.037.653-.06.983h.06v.126c.041.018.08.04.123.06-.021.1-.043.207-.061.308h.061c.06.186.118.37.178.557h.12c.021.123.04.245.058.368.04.021.081.04.121.061v.308h.06v.184h.058c.021.124.043.248.058.371l-.058.063c.043.02.081.04.12.061v.061h.12c.084-.006-.061.061-.061.061h-.058a2.14,2.14,0,0,0,.3.926c.058.041.118.081.178.121q-.032.094-.06.184H131c-.021.29-.041.577-.06.866h-.06a.488.488,0,0,0-.12.307l-.955.186v.061h-.538V37.2c-.1.041-.156.026-.239.061-.181.31-.359.616-.538.925v.186h-.06v.123h-.061c.023.041.041.084.061.126h-.061v.491h-.057a3.581,3.581,0,0,0,0,.988h.057c.023.083.041.164.061.247h.06c.04.182.08.371.118.554h.061v.123l.178.124c.021.063.041.124.06.187.1.078.2.163.3.245l.12.247c.078.02.158.04.238.063v.06h.179c.018.038.04.083.061.123h.178v.061h.178v.061h.239v.063h.836v.063l1.015-.063a2.326,2.326,0,0,0,.48.123v.186h.06a.619.619,0,0,0,.477.186.1.1,0,0,1,.12-.063c.006,0,.123.222.3.124v-.061c-.12-.038-.049.006-.12-.063a5.4,5.4,0,0,0,1.55-.245h.42v-.063c.535-.02,1.075-.041,1.615-.06v-.063h.356v-.063h.3v-.061h.837v-.061h.477V42h.362v-.061h.238v-.06h.178v-.063h.419v-.061h.239V41.7h.356v-.061l.241-.061c-.021.1-.038.205-.06.31h.06V42h.06v.8h.058v.557h.06v.305h-.06c-.006.044.1.161.06.308h-.06v.308c-.017.084-.048-.023-.058.061.015.041.078,0,.058.124h-.058v.063c.02.06.04.123.058.182h-.058c-.015.107.055.106.058.124v.308h.06v.063h-.06c-.015.086.043-.025.06.061l-.06.124c0,.189.141.118.121.305h-.061v.557h.061c-.021.061-.038.126-.061.184a1.96,1.96,0,0,1,.061.742h-.061v.244h-.06c.02.124.041.244.06.368-.081-.015-.078.146-.067.209s.049.087.058.144-.015.1,0,.147S141.413,48.373,141.437,48.423Zm7.119-2.72h.06c-.021.1-.038.207-.06.31h.06c-.021.061-.038.124-.06.184h.06v1.543l.058.616h-.058v.494h-.06c-.155.551.207,1.69-.121,2.035v.06h-.178v-.06c-.141-.023-.279-.041-.419-.063V50.76h-.178V50.7h-.118v-.061H147.3v-.063h-.179v-.061H147V50.45h-.12c-.02-.04-.037-.081-.06-.123H146.7v-.063l-.357-.121v-.061c-.123-.021-.239-.043-.359-.063-.021-.04-.041-.081-.06-.123h-.121c-.037-.061-.08-.123-.117-.184h-.121v-.063c-.117-.041-.239-.08-.357-.123v-.063l-.359-.061v-.061h-.121V49.28h-.178v-.061h-.239v-.063c-.077-.021-.16-.038-.239-.061v-.06H143.9v-.063c-.081-.02-.163-.04-.239-.061v-.061h-.179v-.061c-.472-.2-1.3-.284-1.434-.8-.1-.11-.069-.463-.06-.678.02-.417.083-.969.06-1.48-.014-.325-.06-.759-.06-1.17v-.8h-.06V42.437h-.058v-.063c-.021-.141.067-.17.058-.247h-.058v-.184h.058c.02-.127-.058-.123-.058-.123v-.739h.058v-.31h.06v-.431a.749.749,0,0,0,.121-.123l.776.368.6.126v.06h.12v.061l.3.061v.061h.238v.061h.6v.064h.3v.06h.181V41.2h.179v.061c.078.018.161.04.239.063v.061c.117.017.239.041.357.06v.063c.219.02.439.04.656.061v.061l.357.124v.061h.121v.063h.121v.06h.118V42h.181v.061h.178v.061h.176v.061c.189.072.351,0,.48.126h.058v.368l.121.063a.968.968,0,0,1-.061.432,1.125,1.125,0,0,1,.121.061v.986h.058c.02.106-.055.106-.058.121V45.52S148.53,45.544,148.556,45.7Zm1.254-.554v.063h-.061V45.7h-.058c-.006.09.048-.023.058.063l-.058.678h-.06c-.026.189.086.12.118.186v.063h-.058v.738l.058.124h-.058c-.023.166.058.186.058.186.109.417-.041,1.041.061,1.417l.06,2.342h-.777q.03-.552.061-1.107c0-.166-.067-.506-.061-.555h.061V49.4h.06a.107.107,0,0,0-.06-.123c-.02-.13.06-.124.06-.124v-.431h.06c-.041-.2-.081-.411-.12-.618h.06c-.021-.06-.041-.123-.06-.184h.06v-.494h-.06v-.244h.06v-.679a2.661,2.661,0,0,1-.121-1.109h.061v-.618h.06v-.371h.06c.006-.086-.043.025-.06-.061V44.1h-.06v-.554a2.271,2.271,0,0,1,0-.863,2.327,2.327,0,0,1,.656-.123,5.908,5.908,0,0,1-.061,2.467C149.721,45.145,149.784,45.107,149.81,45.148Zm8.424.063a2.455,2.455,0,0,0,.12-.678c-.011-.086-.069.025-.06-.063h.06v-.186h.058c-.02-.267-.041-.532-.058-.8h-.06v-.061h.06v-.494h.058v-.061h-.058c.017-.041.038-.083.058-.123v-.063h-.058v-.431h.058v.063c.074.064.061.109.118.182h.061v.126l.179.123v.123h.06c.018.123.04.247.058.371.04.018.08.04.12.061v.123h.058v.123h.063c.02.123.038.248.058.368a5.612,5.612,0,0,1,.417,2.222.47.47,0,0,1-.238-.124V45.95h-.179v-.06h-.241v-.064h-.238v-.061c-.06.009-.284.141-.416.061v-.061C158.2,45.667,158.225,45.4,158.234,45.211Zm-.241,1.294c.067-.084.109-.094.241-.121V46.2a.765.765,0,0,1,.475-.123v.063c-.161.037-.159.069-.238.184h.058v.064h.179v.058c.08.021.161.041.238.063v.063h.182l.058.123h.118v.061c.04.018.081.04.121.061v.245c.058.021.121.041.178.063l.121.123v.123l.176.126v.862c0,.021-.118.132-.136.156a1.345,1.345,0,0,0-.127.218c-.038.071-.054.15-.086.221a.865.865,0,0,1-.161.182c-.063.064-.1.06-.189.1s-.149.112-.232.158a.91.91,0,0,1-.4.06c-.092,0-.156.043-.25.043a1.6,1.6,0,0,0-.271,0,.594.594,0,0,1-.215,0,1.36,1.36,0,0,0-.207-.051c-.058,0-.084.02-.129,0-.008,0-.224-.118-.224-.107V49.28h-.118c-.018-.041-.04-.083-.061-.124h-.118c-.02-.061-.041-.121-.06-.184h-.06c-.06-.089-.052-.152-.06-.308a1.678,1.678,0,0,1-.12-.865h.06v-.37c.121-.4.319-1.008.716-1.109v-.061h.178c.071.069,0,.025.121.061C157.8,46.506,157.791,46.484,157.993,46.506Zm-.477-5.673a2.746,2.746,0,0,1,.058.8c.1.149-.026.647.058,1.047h.061a.107.107,0,0,1-.061.124l.061.123h-.061c.023.391.041.781.061,1.17a8.025,8.025,0,0,0-.178,1.974h-.241v.063a1.593,1.593,0,0,0-.537.37c-.02.041-.04.083-.06.123H156.5v.063h.058a2.917,2.917,0,0,1-.239.676h-.058v.555h-.06v.184h-.061v.248h.061c.018.166.04.33.06.494h.058c.02.123.041.245.061.37h.06q.028.092.06.184l.178.061v.063c.081.021.159.043.239.063a.476.476,0,0,1,.06.37h-.06v.06h.06v.063h-.06v.431a2.546,2.546,0,0,0-.839.186h-.3v.061H155.6v.061h-.181v.063c-.159.018-.317.038-.475.06V51h-.179v.061h-.178v.063h-.182v.063h-.12v.06h-.178v.063h-.3v.06h-.178v.063h-.419v.06l-.6.064v.063h-.179v.06h-.3v.063c-.422.018-.837.04-1.253.061-.015,0-.021.081-.121.061v-.061h-.178v-.061h-.063v-.432h.063v-.063h-.063V50.7h-.06V50.45h.06v-.307h-.06q.032-.462.06-.925h-.06v-.184h-.06c-.018-.106.057-.107.06-.124v-.432h-.06c.023-.1.041-.205.06-.307h-.06v-.248h-.058c.021-.244.04-.494.058-.738h-.058a.9.9,0,0,1,.058-.432c.08-.494.011-1.218.06-1.48v-.557h.06v-.862h.063v-.06c-.048-.071-.081.021-.063-.063h.063v-.986c.061-.032.1-.113.12-.123h.179V42.56c.077-.02.156-.04.238-.063v-.06h.178v-.063c.08-.02.161-.041.239-.06v-.063l.359-.063v-.061h.12v-.061h.36V42h.178v-.061h.359v-.06c.138-.023.278-.043.416-.063v-.061h.181V41.7h.179v-.061h.239v-.061c.379-.061.756-.124,1.133-.184v-.061h.179v-.063h.359V41.2h.3v-.063h.3v-.06h.179A3.46,3.46,0,0,1,157.516,40.833Zm-2.391-14.8V26.1c-.118-.037-.052.009-.117-.061Zm-9.557,10.911c-.017-.083-.041-.164-.058-.245-.081-.061-.161-.123-.241-.186v-.124c-.1-.083-.2-.166-.3-.247l-.061-.244c-.1-.084-.2-.166-.3-.248-.08-.267-.163-.534-.241-.8h-.06v-.123h-.06v-.124l-.12-.061v-.124h-.06V34.3h-.06q-.087-.492-.178-.988c.259-.02.518-.04.778-.061.1.021.2.041.3.061.023-.04.041-.081.061-.123.241-.121.33.035.419-.307.222-.284-.049-1.02.061-1.419h.058c.037-.147-.063-.164-.058-.247h.058v-.431h.058v-.311h.061v-.305h.06V29.8h.057c.041-.205.083-.409.123-.613h.058V29h.06l.06-.615.118-.063c.02-.061.041-.124.058-.186h.063v-.184h.06v-.124h.061V27.64c.037-.021.077-.041.118-.061.178-.2.155-.189.535-.184v-.063h.061v.063h.478v.061h1.372v-.061h.359v-.063h1.133v-.061c.2-.021.4-.043.6-.061v-.061h.12v-.061a3.514,3.514,0,0,1,1.2.061h.952v.061h.181v.061h.3v.061a.571.571,0,0,0,.239.124c.035.153.032.1.121.184V27.7h.117v.061l.179.061c.021.063.04.124.061.186h.061v.123h.058v.186h.061c.037.123.075.245.118.37h.06l.06.247c.061.041.118.083.178.124v.124h.06l.06.675h.06v.127h.06v.305h.058v.31h.061c-.018.245-.04.494-.061.739h-.058c-.006.052.1.158.058.307h-.058v.373a3.776,3.776,0,0,0-.179,1.354h.06c.018.083.041.166.06.247.118.063.245.195.359.245l1.552.371a2.111,2.111,0,0,1-.417,1.11c-.021.081-.038.166-.06.247l-.12.061v.06c-.04.023-.08.044-.118.064V35.9c-.06.04-.12.08-.181.123v.121c-.04.021-.078.041-.118.064-.021.06-.04.123-.061.182h-.061a.545.545,0,0,0-.118.248h-.118c-.071.253-.179.236-.359.368-.061.083-.12.167-.179.247h-.12a1.309,1.309,0,0,1-.06.123h-.117a1.344,1.344,0,0,0-.061.126c-.078.018-.163.04-.238.061-.021.04-.043.081-.061.121-.12.041-.241.083-.36.126l-.06.123h-.118V38h-.178v.063h-.121c-.018.038-.037.08-.06.12h-.179v.063l-.357.123v.063h-.3v.06h-.12v.063h-.181v.063h-.236v.06H152.2v.063h-.238v.06l-.242.063v.06h-.236v.063h-.239v.06h-.118v.063h-.719a.151.151,0,0,1-.178.063v-.063h-.12v-.123a3.615,3.615,0,0,1-1.073-.186c-.32-.018-.638-.041-.957-.06v-.063h-.12v-.06h-.179c-.018-.041-.04-.084-.058-.126h-.178v-.06h-.121v-.063c-.08-.021-.161-.041-.239-.061v-.061c-.1-.018-.2-.04-.3-.063-.02-.04-.037-.081-.06-.12H146.7c-.078-.106-.159-.209-.238-.311-.058-.021-.12-.041-.179-.063-.121-.143-.239-.287-.359-.431C145.806,37.156,145.69,37.053,145.568,36.949Zm-14.812-3.02V33.8h.061v.061h.058C130.805,33.937,130.874,33.889,130.756,33.929Zm1.313,7.336c-.06.04-.118.081-.178.124-.021.06-.041.123-.061.184h-.656v.37h-.538v-.06c-.078-.023-.158-.043-.239-.063v-.061h-.239V41.7h-.12v-.061h-.118v-.061q-.087-.062-.179-.124c-.123-.205.1-.2-.239-.308a.48.48,0,0,0-.118-.308h-.06q-.03-.244-.06-.492h-.06v-.123h-.06c-.021-.1-.04-.207-.06-.308h-.06c.038-.514.08-1.027.12-1.543.178-.126.026-.051.12-.186l.178-.12.06-.189h.239v-.245a2.355,2.355,0,0,1,1.2-.371c.071.086.107.1.238.123a.92.92,0,0,1,0,.557v.245h-.058v.124h-.061v.184H131c-.021.063-.041.126-.06.186l.179.123v.063h.176c.179.06.36.123.538.182a1.818,1.818,0,0,1-.178.8h-.061v.123h-.06a.936.936,0,0,0-.239.371h.06c.021.041.041.083.061.123h.178a2.143,2.143,0,0,1,.419.186v.123A.4.4,0,0,1,132.069,41.266Zm.419.555c.034-.241.074-.219.181-.371h.058v-.184c.113-.314-.006-.454-.058-.742h-.121V40.4l-.419-.126c.021-.06.04-.123.058-.184h.06V39.97h.06v-.184h.06V39.6h.063a1.791,1.791,0,0,0,.118-.681c-.14-.038-.278-.08-.419-.123v-.06h-.359s0-.038-.118-.063v-.06h.058V38.43c.04-.021.081-.041.12-.063v-.245h.061V38h.06v-.432a.089.089,0,0,0,.058-.126h-.058c-.038-.146-.02-.113-.121-.184a.911.911,0,0,0-.478-.184.5.5,0,0,1,.12-.247h.06c.02-.1.043-.205.06-.308h.061v-.247c.066-.2.1-.538.178-.741a.413.413,0,0,1-.239-.308l-.178-.06v-.186h-.121a3.739,3.739,0,0,0-.118-.925h-.12c.126-.373-.064-.517-.178-.8v-.184c-.041-.021-.081-.043-.12-.061-.023-.084-.04-.166-.061-.248-.06-.04-.121-.081-.179-.123v-.247h-.061V32.2H130.4v-.616h.058c-.015-.06-.037-.121-.058-.184h.058v-.184h.061c.041-.123.081-.247.12-.371.4-.235.8-.627,1.494-.371h.178v.064c.123.018.241.04.362.061v.061c.117.107.046.14.118.248.06.04.12.08.179.123.018.121.038.245.058.368h.061v.124h.058c.02.121.041.245.06.368h.06v.432h.06c.02.225.041.451.06.679-.011.086-.057-.028-.06.061l.06.061c-.018.04-.083,0-.06.123h.06c-.018.535-.04,1.069-.06,1.6h.06c.02.205.04.413.06.615h.061c.02.083.038.166.058.245h.061v.248h.058v.184h.06v.247h.06v.124l.236.186v.123h.061c.021.083.04.163.061.247h.06c.04.205.078.411.118.615l.121.063v.123c.058.041.12.083.179.126.017.1.037.205.058.307h.06c-.021.411-.04.822-.06,1.234h-.058v.184h-.06q-.062.308-.12.616h-.06c-.041.123-.081.245-.123.371h-.057v.121l-.241.184a1.164,1.164,0,0,1-.061.124H133.8c-.08.1-.159.205-.239.308A2.577,2.577,0,0,1,132.487,41.821Zm.537.554c-.12-.035-.051.009-.118-.06h.118Zm.3-.06h-.179v-.063h.179Zm8.065-2.159a2.675,2.675,0,0,0-.121,1.173h-.238c-.1-.092-.353-.072-.537-.063l-1.078.247c-.894.1-1.791.205-2.685.308v.063c-.15.038-.222-.063-.3-.063v.063h-.362v.06h-.894V42h-.12v.061h-.238v.061h-.478c-.187.055-.82.232-1.015.061.46-.041.621-.394,1.015-.492.02-.061.04-.123.061-.184h.118V41.45h.061v-.121c.06-.023.118-.044.178-.063V41.2c.06-.043.12-.084.178-.123v-.126H135v-.123c.04-.02.08-.04.117-.061v-.123h.061v-.126h.06v-.245h.061V39.97h.06v-.184h.058V39.6h.06v-.123h.06c-.018-.123-.041-.25-.06-.373h.06v-.862a6.943,6.943,0,0,1,1.552.061h.359v-.061l.779.061v.061h.6l.359.063v-.063l.779.063v.06h1.073v.063h.359v.063h1.552v.06l.3-.06v.06c.123.017.117-.06.117-.06h.6v-.063l1.673-.063h.716v.063c.138.021.279.04.416.063v.06h.12v.063l.6.123v.123a3.358,3.358,0,0,1,.715.186c.261.018.517.043.776.06v.063c.12.043.241.083.359.126v.061h.12v.061a5.422,5.422,0,0,0,1.673.123V39.6c.2-.043.4-.084.593-.123v-.061h.3v-.061h.12v-.064h.3v-.063h.121v-.06h.3v-.063h.12v-.063c.178-.038.356-.08.537-.123.041-.06.077-.123.12-.182h.06v.06l.656-.245a1.092,1.092,0,0,0,.776.368V38.8a1.836,1.836,0,0,1,.718.308v.063c.14.043.278.081.419.123.018.043.04.083.058.126h.121c.018.04.038.081.06.123a2.232,2.232,0,0,1,.894.863c-.6.12-1.193.245-1.791.368v.123a.315.315,0,0,1-.239-.123l-.537.184h-.179v.061h-.12v.064c-.279.02-.558.038-.836.06l.058.124h-.3c-.176.161-.377.025-.6.124l-.06.123h-.239v.061h-.178v.061h-.42V41.7h-.118v.063l-.419.061v.063c-.181.06-.359.121-.537.182v.123c-.161.021-.321.043-.482.063v.063h-.058v-.063c-.12-.02-.239-.041-.357-.063v-.061c-.3.023-.6.04-.9.061v-.061l-.239-.061-.058-.123c-.419-.143-.837-.287-1.253-.431V41.39c-.36-.124-.721-.248-1.077-.373h-.478v-.061h-.118c-.021-.04-.04-.081-.063-.123h-.176v-.061h-.12v-.06h-.3v-.063h-.3v-.063h-.537v-.063h-.179v-.06h-.179V40.4H143.9v-.063h-.118v-.063h-.121v-.06h-.3v-.063h-.178v-.061h-.12v-.061h-.178V39.97h-.121v-.06h-.117v-.063h-.123v-.061h-.238v-.061c-.08-.02-.159-.043-.239-.061V39.6a.964.964,0,0,0-.477.061c-.092.074-.012.178-.06.307h-.06v.186Z" transform="translate(0 0)" fill="#0070c3" fill-rule="evenodd"/>
    <path id="Path_1609" data-name="Path 1609" d="M141.607,28.214h.181c.074-.058.052-.175.058-.308-.058-.021-.118-.041-.179-.061v-.061c-.118-.023-.238-.043-.356-.063v.063h-.181v.061h-.061v.307c.071.071.026,0,.061.123.212.026.181.078.359.124C141.528,28.335,141.569,28.274,141.607,28.214Z" transform="translate(6.827 1.523)" fill="#0070c3" fill-rule="evenodd"/>
    <path id="Path_1610" data-name="Path 1610" d="M140.882,27.512h.178v.064a.839.839,0,0,0,.6-.126h.538V27.39h.419v-.06h.06v-.248l-.181-.061c-.113-.135-.124-.058-.3-.123v-.061c-.337.021-.679.04-1.017.061a3.879,3.879,0,0,1-.417.184,1.173,1.173,0,0,0-.118.308c.135.021.15.009.239.061Z" transform="translate(6.6 1.051)" fill="#0070c3" fill-rule="evenodd"/>
    <path id="Path_1611" data-name="Path 1611" d="M145.244,27.572s0,.08.118.061v-.061h.239v.061h.178v-.121h.121v-.187c-.069-.037-.09-.1-.121-.123h-.118v-.061h-.178v-.063h-.121v-.061h-.3v-.061l-.955.061v.308c.058.021.118.041.179.061C144.5,27.629,144.865,27.488,145.244,27.572Z" transform="translate(8.449 1.115)" fill="#0070c3" fill-rule="evenodd"/>
    <path id="Path_1612" data-name="Path 1612" d="M141.931,29.319V29.5c-.041.025-.083.043-.12.064v.308c-.008.452.078.833.417.925v.061h.239v.061h.12v.061a2.142,2.142,0,0,0,.955-.061v-.184h-.058c-.192-.225-.6-.2-.9-.31-.02-.205-.041-.413-.061-.616.121-.106.051-.143.121-.245h.058c.083-.1.161-.209.239-.31.06.021.121.04.179.063a.1.1,0,0,1,.118-.063v.063h.123v.061c.087.057.144.051.3.06v-.184H143.6c-.092-.109-.112-.057-.238-.123v-.061a5.016,5.016,0,0,0-.957-.184c-.021.04-.04.081-.061.121l-.238.063a.608.608,0,0,1-.118.247Z" transform="translate(7.223 2.144)" fill="#0070c3" fill-rule="evenodd"/>
    <path id="Path_1613" data-name="Path 1613" d="M143.635,31.717c-.04.061-.081.123-.123.186a1.4,1.4,0,0,1-.716.121c-.112-.189-.293-.184-.357-.429h-.178a.81.81,0,0,1-.121-.494,4.656,4.656,0,0,0-.716-.124c-.055.112-.083.1-.12.247h.06c.084.15-.044.325.118.494.1.129.221.15.36.245l.058.124h.12c.02.041.04.083.061.123h.12c.018.043.038.083.06.124h.118c.02.041.04.081.06.121h.3v.064h.12v.063a2.21,2.21,0,0,0,1.254-.187l.06-.124h.118c.1-.121.2-.247.3-.368h.06v-.247l.117-.061a.667.667,0,0,0,.124-.432c-.261-.057-.317-.172-.658-.186l-.359.679Z" transform="translate(6.953 3.26)" fill="#0070c3" fill-rule="evenodd"/>
  </g>
</svg>
