<svg xmlns="http://www.w3.org/2000/svg" width="18.532" height="19.678" viewBox="0 0 18.532 19.678">
  <g id="Group_203" data-name="Group 203" transform="translate(-49.327 -648.18)">
    <path id="Path_1898" data-name="Path 1898" d="M51.257,658.544l.412.25.426.127.7-.035L52.135,660l-.967.016-.538-.107" fill="#fff" fill-rule="evenodd"/>
    <path id="Path_1899" data-name="Path 1899" d="M55.1,653.3a3.964,3.964,0,1,1,3.964,3.963A3.965,3.965,0,0,1,55.1,653.3" fill="#fff"/>
    <path id="Path_1900" data-name="Path 1900" d="M66.524,662.235c0-.017-.009-.017-.011-.023v-.2H66.5V662h.011c.006-.029-.012-.031-.009-.049h.009v-.033H66.5l.011-.024a.354.354,0,0,1-.011-.035h.011v-.035H66.5a.226.226,0,0,1,.009-.035H66.5a.058.058,0,0,1,.009-.021v-.038H66.5v-.009h.009c0-.022-.011-.024-.011-.024,0-.017.007-.031.011-.047H66.5l0-.07h.011a.389.389,0,0,1-.009-.047h.009l-.011-.049s.017-.006.011-.035l-.009,0a.144.144,0,0,1,.009-.037s-.016,0-.011-.022c0,0,.015,0,.011-.025,0,0-.014-.008-.011-.033s.011,0,.011-.012a.172.172,0,0,0-.024-.013c-.009-.026.016-.034.015-.047a.279.279,0,0,1-.027-.01c0-.012.008-.024.012-.037a.266.266,0,0,1-.012-.034s.016,0,.012-.023h-.012v-.012a.019.019,0,0,0,.012-.023h-.012v-.01c0-.014.01-.025.012-.035h-.012v-.107s-.013,0-.011-.024a.033.033,0,0,0,.011-.035h-.011v-.1h-.012v-.106h-.013a.125.125,0,0,0,.013-.035h-.013v-.022h-.01l.01-.035h-.01v-.023h-.01c0-.01.008-.018.01-.026v-.011h-.01v-.071h-.012v-.009h.012l0-.014h-.01v-.022H66.4c0-.013.017-.019.011-.046H66.4l0-.059h-.012a.018.018,0,0,1,.01-.024l0-.011h-.012v-.071h-.012a.163.163,0,0,1,.012-.035h-.012v-.023l-.014,0v-.012h.014a.438.438,0,0,0-.014-.047h-.009c0-.013.007-.023.009-.037h-.009c0-.021-.01-.047-.013-.068h-.011c0-.031-.007-.063-.013-.094h.013V659.9h-.013v-.021H66.3c0-.018.01-.022.01-.026l-.01-.033h-.026a.066.066,0,0,0,.014-.047h-.014a.16.16,0,0,0,.014-.035h-.014v-.023h-.01v-.057l-.023-.012c0-.015.008-.031.011-.046a.076.076,0,0,0-.024-.012.021.021,0,0,1,.013-.025.334.334,0,0,1-.013-.045h-.01v-.047a.372.372,0,0,1-.036-.024.5.5,0,0,1,.012-.049.13.13,0,0,1-.035-.021c.007-.031-.021-.068-.031-.117H66.12c0-.014.022-.022.012-.045a.087.087,0,0,0-.022-.01.324.324,0,0,0,.01-.035l-.02-.014v-.023h-.013c0-.012.02-.022.013-.047a.114.114,0,0,1-.025-.012c0-.014.022-.021.01-.045l-.021-.011c0-.012-.018-.028-.012-.041l-.026-.012a.315.315,0,0,0,.013-.045h-.013V658.9h-.011c-.006-.011-.016-.023-.024-.037h.024c-.008-.037.011-.017-.008-.041h-.015V658.8h-.011c0-.012.008-.024.011-.035-.022-.02-.046-.039-.069-.059a.268.268,0,0,0,.012-.045.382.382,0,0,0-.047-.035.349.349,0,0,1,.013-.049.5.5,0,0,1-.058-.045c-.006-.011.021-.023.012-.047l-.038-.023a.074.074,0,0,0,0-.057.436.436,0,0,0-.047-.035.182.182,0,0,1,.013-.035H65.77v-.025a.17.17,0,0,0-.035-.022c0-.025-.006-.049-.009-.072l-.048-.033.012-.037a.151.151,0,0,1-.023-.01v-.026a.38.38,0,0,1-.035-.019l.011-.037c0-.008-.015,0-.023-.035-.022-.006-.01,0-.022-.012h-.013a.275.275,0,0,1,.013-.047l-.035-.023v-.024l.016.012-.01-.072a.207.207,0,0,1-.046-.035c0-.01.007-.024.009-.034a.259.259,0,0,0-.035-.023v-.022h-.011a.3.3,0,0,0,.011-.037c-.017-.013-.037-.031-.057-.047v-.056a.423.423,0,0,0-.059-.047V657.5c-.015-.01-.03-.023-.046-.033v-.059a.415.415,0,0,1-.045-.035c0-.016.006-.031.009-.047-.019-.014-.036-.029-.058-.047v-.058s-.014-.006-.021-.012v-.022H65.21v-.048c-.022-.014-.041-.032-.062-.045a.208.208,0,0,1,.013-.035.074.074,0,0,1-.023-.014.059.059,0,0,1-.025-.057l.012-.011-.058-.047v-.057c-.013-.01-.024-.016-.035-.025v-.024H65.02a.161.161,0,0,1,.012-.033.133.133,0,0,0-.024-.012c-.031-.037-.038-.033-.023-.082a.467.467,0,0,0-.049-.035V656.6a.05.05,0,0,0-.021-.01c-.025-.033-.014-.024-.013-.072H64.88a.588.588,0,0,0-.013-.071c-.007,0-.015-.008-.022-.01v-.025h-.01v-.045h-.012v-.023l-.012,0V656.3a.215.215,0,0,1-.025-.014v-.021h-.012c0-.012.007-.026.012-.037-.012-.006-.021-.014-.035-.022a.641.641,0,0,0-.012-.07l-.046-.035a.231.231,0,0,1,.013-.045l-.025-.014v-.057a.176.176,0,0,0-.036-.023V655.9a.1.1,0,0,0-.022-.013v-.057a.271.271,0,0,1-.033-.023c0-.016.007-.032.009-.047a.26.26,0,0,0-.034-.024.359.359,0,0,0,.012-.035l-.024-.012c-.013-.023,0-.05-.011-.082a.075.075,0,0,1-.022-.011v-.057H64.5v-.049h.012v-.012a.09.09,0,0,1-.034-.011c-.007-.014.009-.022.009-.022,0-.027-.009-.025-.009-.025v-.059h-.015v-.021l-.022-.012c0-.014.022-.023.014-.049a.039.039,0,0,1-.025-.01v-.058H64.4v-.022h.014c0-.013-.02-.05-.025-.06h-.011c.006-.026.016-.022,0-.057h-.01v-.047a.1.1,0,0,1-.026-.011v-.059c0-.008-.026,0-.022-.023h.01c0-.03-.006-.063-.01-.094a.225.225,0,0,1-.025-.014c0-.01.023-.019.013-.043l-.023-.013a.435.435,0,0,1,.01-.045h-.01v-.059l-.025-.012a.36.36,0,0,0,.012-.047l-.024-.011a.3.3,0,0,0,.012-.047.093.093,0,0,0-.022-.012c0-.016.008-.031.01-.047a.185.185,0,0,1-.02-.012v-.058l-.026-.01c0-.015.021-.021.013-.049,0,0-.016,0-.013-.021h.013v-.014l-.024-.01.011-.045-.021-.013a.158.158,0,0,1,.01-.047h-.01c-.006-.043-.009-.086-.013-.129h-.024a.232.232,0,0,0,0-.1h-.011l.011-.045a.047.047,0,0,0-.022-.012c0-.018.009-.031.011-.047a.088.088,0,0,0-.024-.012V653.8H64.1c0-.016.017-.02.011-.047H64.1V653.7s-.014,0-.012-.025l.012-.012a.121.121,0,0,0-.024-.01v-.072h-.011c0-.017.011-.021.011-.023v-.01h-.011c-.008-.029.011-.031.011-.047a.1.1,0,0,1-.022-.014c0-.015.007-.031.011-.045l-.022-.011c0-.02.006-.039.011-.059h-.011v-.047h-.014c0-.015.014-.023.014-.023a.342.342,0,0,1-.014-.037c0-.01.008-.022.014-.034s-.018-.007-.014-.035h.013v-.01h-.014v-.048h-.011v-.069H64v-.011c.006-.008.02-.008.012-.034H64c0-.017-.008-.019-.008-.035h-.015v-.07c.01-.006,0-.006.005-.01V652.9h-.011c0-.023.011-.023.011-.023s-.006-.023-.011-.035,0,0,0,0v-.023h.01a.2.2,0,0,0-.01-.036h-.014v-.023h-.01l.01-.012c0-.027-.01-.035-.01-.035a.292.292,0,0,0,.01-.035.127.127,0,0,1-.023-.012V652.6s-.012,0-.008-.022a.015.015,0,0,0,.008-.023.062.062,0,0,0-.023-.012c.005-.016.009-.031.015-.047-.015-.008-.026-.016-.037-.021.005-.018.008-.034.011-.049a.156.156,0,0,1-.021-.012.343.343,0,0,1,.01-.033.162.162,0,0,0-.022-.012.161.161,0,0,1,.012-.047h-.012V652.3h-.013c-.008-.026.015-.037.013-.047a.277.277,0,0,0-.036-.024.383.383,0,0,0,.011-.046c-.011-.008-.013-.028-.02-.038h0c-.008-.013,0-.044,0-.058-.024-.008-.011,0-.024-.012h-.011c0-.017.008-.031.011-.047h-.011v-.021a.145.145,0,0,0-.023-.014.393.393,0,0,1,.01-.047c-.006,0-.014-.006-.022-.012a.023.023,0,0,1,.012-.033c0-.019-.024-.021-.024-.025v-.047l-.035-.021c-.011-.026.017-.036.01-.047l-.021-.012v-.025h-.012c0-.022-.008-.045-.013-.071,0,0,.02,0,.013-.021a.226.226,0,0,1-.035-.026c0-.013.007-.029.011-.044a.352.352,0,0,1-.034-.024c.005-.016.007-.031.011-.045a.177.177,0,0,0-.035-.023c0-.014.021-.026.011-.049a.313.313,0,0,0-.033-.022.288.288,0,0,1,.011-.047.292.292,0,0,1-.034-.023c0-.012.021-.025.009-.047a.212.212,0,0,0-.035-.023v-.047h-.01v-.022H63.5v-.048l-.023-.01v-.026h-.012c0-.013.012-.021.012-.021l-.012-.037h-.024c0-.012-.005-.022-.009-.035s.018,0,.009-.024a.133.133,0,0,0-.021-.01v-.023H63.41c0-.023-.008-.047-.012-.07a.12.12,0,0,0-.023-.012c.005-.012.01-.025.013-.035l-.046-.035a.354.354,0,0,1,.009-.047c-.014-.012-.031-.024-.045-.035.011-.045,0-.045-.026-.082h-.009c0-.014.007-.032.009-.045h-.009c-.021-.026-.026-.008-.035-.047h-.024s.018-.031.013-.049h-.013a.239.239,0,0,1-.011-.035.223.223,0,0,0-.037-.01.126.126,0,0,1,.013-.047c-.053-.033-.013-.023-.033-.07H63.13c-.021-.039-.033-.068-.082-.082a.142.142,0,0,0-.035-.106l-.022-.009v-.047c-.021-.016-.039-.031-.058-.047v-.059l-.106-.093v-.057c-.012-.006-.023-.008-.034-.014v-.011a.714.714,0,0,1-.058-.047v-.024h-.013c-.015-.015-.005-.014-.034-.023v-.045c-.032-.035-.064-.071-.093-.106l-.037-.023v-.035a.118.118,0,0,1-.022-.012c-.023-.035-.016-.047-.06-.059v-.021c-.04-.016-.043-.045-.07-.072l-.057-.033v-.026a.09.09,0,0,1-.024-.012.366.366,0,0,0-.117-.1v-.024c-.014,0-.031-.007-.047-.009V649.1c-.05-.014-.068-.047-.127-.059-.014-.049-.04-.041-.068-.07a.539.539,0,0,1-.037-.047l-.035-.01v-.012a.067.067,0,0,0-.024.012c-.01-.018,0-.035-.01-.047h-.012v.012a.174.174,0,0,0-.034-.012c-.013-.016-.024-.031-.038-.047l-.033-.012-.013-.023h-.035v-.012h-.022v-.011H61.65a.375.375,0,0,1-.024-.036h-.047v-.011h-.023c-.008-.012-.016-.024-.025-.035a.2.2,0,0,1-.032.011c-.018-.019-.033-.039-.049-.056l-.094-.016V648.6c-.022,0-.046-.008-.07-.012a.057.057,0,0,0-.011-.022l-.022,0v-.011h-.048l-.024-.033h-.023v-.012h-.046a.207.207,0,0,0-.023-.037c-.018,0-.015.021-.024.025h-.021c-.009-.025,0-.01-.014-.025v-.01c-.023-.014-.035.016-.047.01a.128.128,0,0,0-.011-.024h-.023a.249.249,0,0,0-.024-.021l0-.012a.343.343,0,0,0-.048.012s-.005-.016-.023-.012v.012h-.013l-.01-.024h-.024v-.011h-.025v-.012c-.017,0,0,.031-.021.023l-.024-.035a.169.169,0,0,0-.034.012v-.012H60.67v-.014h-.058v-.009H60.6s0,.017-.025.009-.006-.015-.01-.021h-.06v-.012h-.024v-.011h-.009v.011c-.024-.007-.039-.033-.073-.023v.012h-.01a.141.141,0,0,0-.013-.024c-.024-.01-.031.014-.045.012v-.012h-.07c-.005,0,0-.015-.025-.012s.005.014-.01.012,0-.01-.022-.012v-.023h-.072v-.012c-.014,0-.02.022-.047.012-.006-.012-.015-.022-.021-.033l-.014.011h-.034v.01a.021.021,0,0,1-.024-.01c-.022,0-.022.01-.022.01-.021,0-.04-.008-.059-.01,0,0,0,.016-.024.01a.1.1,0,0,0-.011-.021c-.016,0-.019.015-.045.011v-.011h-.014s0,.015-.023.011a.078.078,0,0,1-.01-.025c-.015.01-.032.016-.049.025-.008-.011-.013-.025-.021-.037a.026.026,0,0,0-.025.012l-.023-.012H59.6s0,.016-.022.012v-.012h-.058l0-.011H59.5v.011h-.045v.012h-.012v-.012h-.022v-.011c-.018,0,0,.011-.012.011h-.048v.012c-.015,0,.005-.01-.011-.012l-.059.012v-.012h-.068v-.011h-.013v.011c-.025,0-.047-.009-.069-.011l-.013.023-.058-.012v.012l-.035-.012a.019.019,0,0,1-.023.012s-.008-.015-.034-.012v.012h-.013v-.012h-.128v.012h-.013v-.012h-.056s0-.015-.024-.011v.011H58.7v.012l-.021-.012-.035.012a.033.033,0,0,0-.038-.012v.012h-.033v.014h-.013V648.2H58.5v-.012h-.011l-.035.012v.014L58.4,648.2v.025a.882.882,0,0,0-.14.01c-.033.006-.07-.015-.083-.01a.226.226,0,0,1-.011.022h-.047v-.012c-.023,0-.022.012-.022.012h-.069v.014H58v.009h-.071v.012h-.011s0-.017-.024-.012v.012h-.035v.012h-.036v.012c-.021.005-.016-.01-.022-.012s0,.006-.012.012h-.035a.168.168,0,0,0-.012.023l-.035-.012v.012h-.035v.012h-.116l-.013.023a.292.292,0,0,1-.033-.014.1.1,0,0,0-.012.026h-.021v.012a.167.167,0,0,1-.026-.012l-.011.023-.025-.011v.011h-.022v.012a.081.081,0,0,1-.046.012v.021a.1.1,0,0,0-.072-.009.1.1,0,0,0-.011.023h-.012v-.014c-.021.01-.046.016-.068.024a.118.118,0,0,0-.014.025.294.294,0,0,0-.047-.014v.014H57.1l-.011.024c-.022,0-.039.007-.059.011v.012c-.011-.006-.025-.008-.034-.012a.58.58,0,0,0-.036.047h-.024v.01a.241.241,0,0,0-.045-.01v.022c-.044.011-.062.037-.118.046v.026c-.023,0-.047.008-.07.01-.006.023,0,.011-.011.023v.012h-.047l-.023.035H56.6v.012h-.025v.011h-.034c-.011.016-.022.032-.034.047h-.069v.012h.01c0,.006-.007.014-.01.023h-.025v.024h-.023c-.017.053-.007.014-.047.035v.01h-.022c-.02.025-.041.047-.058.072h-.035a.174.174,0,0,0-.069.08l-.026,0v.026l-.046.011c-.008.032,0,.028-.035.035v.024l-.033.012c-.02.021-.04.043-.057.064v-.02a.292.292,0,0,0-.02.026h0a.059.059,0,0,0-.018.025.168.168,0,0,0-.022.008v.018l-.011.009a.2.2,0,0,1-.048.032c-.026.027-.028.056-.07.072v.021c-.044.014-.036.024-.058.059H55.7v.006a.052.052,0,0,0-.016.006v.035l-.035.023c-.032.035-.062.071-.092.106v.008l-.008,0v.035h-.026v.019l0,0H55.5a.1.1,0,0,1-.014.039c-.012.012-.025.022-.037.033v.01l0,0a.151.151,0,0,0-.032.012v.035H55.4a.13.13,0,0,0-.012.033h-.014c-.021.029-.058.053-.068.094h-.023v.012c-.025.019-.007.023-.048.035a.1.1,0,0,0,.013.033.3.3,0,0,1-.047.025v.036a.214.214,0,0,0-.024.023h-.011c0,.008.007.016.011.021l-.046.038c0,.011.007.023.011.033h-.024v.025H55.1c-.006.029,0,.039-.012.057h-.012v.023c-.006,0-.014.008-.022.012v.022l-.025.013v.047a.137.137,0,0,0-.022.01v.025h-.014v.022h-.011v.037l-.024.011c-.019.061-.037.125-.057.186h-.023v.025h.013a.2.2,0,0,0-.013.045H54.85c0,.024-.009.047-.013.071h-.024a.163.163,0,0,1-.009.047H54.79c0,.009.009.023.014.033l-.025.013V651h-.012a.322.322,0,0,0,.012.047h-.024v.037h-.012l.012.021-.022.012.01.014,0,.01v.007c0,.012-.006.026-.008.041h-.022c.018.008,0,.053-.016.084l-.011.008h-.019v.024h-.012l.012.037c-.009,0-.018.008-.025.009l.013.012c-.006.02-.007.037-.013.055l0,0v0h-.008v.023h-.012v.045l0,0H54.6v.024l-.009,0v.033a.07.07,0,0,0-.023.011.1.1,0,0,0,.009.024c0,.006-.026.006-.023.023s.019,0,.014.012a.15.15,0,0,0-.026.012c0,.013-.008.031-.011.045h-.022c0,.021-.008.086-.014.1a.051.051,0,0,1-.021.01l.011.014-.011.056h-.012a.025.025,0,0,0,.012.026c0,.021-.012.021-.012.021a.354.354,0,0,1,.01.035h0v0l-.02.01v.035a.118.118,0,0,0-.024.014c0,.013.018.035.024.051-.029-.039-.033.041-.034.068,0,0-.046,0-.025.014H54.4v.009h-.023c0,.032.008.063.011.09a.1.1,0,0,1-.016.014c0,.006,0,.01.007.021l0,0,0,.022h0v.023h-.013a.243.243,0,0,1,.008.029l0,.014h-.01v.008l-.005.008c0,.01.007.019.009.033l-.021.014c0,.013.007.029.012.047a.185.185,0,0,0-.036.021.4.4,0,0,0,.011.047l-.022.012a.015.015,0,0,0,.011.023c0,.022-.009.018-.011.022v.058a.067.067,0,0,1-.024.012.323.323,0,0,1,.01.035s-.012.008-.01.035l.01.012h-.01v.023h-.01c-.006.014-.009.024-.015.036h.015v.023c-.009,0,0,0-.006,0a.151.151,0,0,0-.009.035s.01,0,.009.023h-.009v.012c.006,0-.008.006,0,.01v.07h-.01c0,.016-.012.018-.012.035h-.01c-.008.026,0,.026.01.034v.011h-.01v.069h-.011v.048H54.2v.01h.012c0,.028-.012.035-.012.035a.1.1,0,0,0,.012.034.2.2,0,0,0-.012.037.023.023,0,0,1,.012.023H54.2v.047h-.013c0,.02.008.039.013.059l-.023.011c0,.014.008.03.01.045l-.02.014c0,.016.014.018.01.047h-.01v.01s.014.006.01.023h-.01v.072a.1.1,0,0,0-.026.01l.012.012c0,.025-.012.025-.012.025v.057h-.011c-.008.027.011.031.011.047h-.011v.058a.08.08,0,0,0-.025.012c0,.016.009.029.013.047a.08.08,0,0,0-.025.012.33.33,0,0,1,.012.045H54.1a.247.247,0,0,0,0,.1h-.021q-.008.064-.012.129h-.013a.414.414,0,0,1,.013.047l-.024.013c0,.014.006.028.011.045s-.015.006-.021.01v.014h.009c0,.021-.009.019-.009.023-.01.026.008.032.01.047l-.021.01v.058l-.028.012c.006.016.01.031.015.047a.141.141,0,0,0-.025.012.246.246,0,0,1,.01.047.124.124,0,0,1-.021.013.33.33,0,0,1,.011.045l-.021.012v.059h-.014c0,.015.009.031.014.045l-.025.013c-.01.024.008.033.011.043a.1.1,0,0,1-.021.014c-.005.031-.01.064-.012.094h.012c0,.019-.022.015-.026.023v.059a.086.086,0,0,1-.021.011v.047h-.012c-.016.035-.006.031,0,.057h-.014c0,.01-.025.047-.023.06h.012v.022h-.022v.058a.044.044,0,0,1-.024.01c-.01.026.008.035.013.049l-.026.012v.023l-.012,0,0,.059s-.014,0-.011.027c0,0,.016.006.008.02a.08.08,0,0,1-.033.011v.012h.012v.049h-.023v.057a.127.127,0,0,1-.024.011c-.012.032,0,.059-.012.082a.126.126,0,0,1-.023.012c.005.012.008.025.012.035-.012.01-.025.016-.035.024s.007.031.01.047a.181.181,0,0,1-.034.023v.057c-.006.006-.016.007-.025.013v.059a.377.377,0,0,1-.034.023v.057c-.005,0-.015.008-.023.014l.013.047a.459.459,0,0,0-.048.033c0,.023-.007.049-.012.07a.238.238,0,0,1-.035.023c.006.012.008.024.014.036h-.014v.021l-.021.014v.047h-.011v.023h-.013v.045H53.4v.025c-.006,0-.014.008-.022.012,0,.022-.008.045-.013.069h-.022c0,.048.011.039-.012.072a.147.147,0,0,0-.024.01v.058c-.013.012-.031.022-.047.035.016.049.009.045-.023.082a.268.268,0,0,0-.025.012c.007.012.01.024.015.033H53.21v.024c-.01.009-.021.015-.033.025v.057c-.02.015-.039.031-.058.047l.013.011a.065.065,0,0,1-.026.059l-.022.012a.2.2,0,0,1,.011.035c-.019.013-.039.031-.058.047v.046h-.01v.022a.169.169,0,0,1-.023.012v.058c-.02.018-.041.033-.06.047.005.016.007.031.011.047l-.012,0,0,.01c-.012.006-.018.015-.032.021v.045c0,.008-.006.014-.008.022l-.038.025v.022c0,.019-.009.021-.016.04a.14.14,0,0,0-.02.016.036.036,0,0,0-.019.014l0,0v0a.469.469,0,0,1-.02.043h-.011v.023h-.012v.026a.089.089,0,0,0-.024.011c-.007.022,0,.039,0,.063-.007,0-.015.008-.023.011v.022l-.024.014v.021l-.008.018h0v0c-.018.025-.032.043-.022.07h-.022a.329.329,0,0,1-.011.045h.011v.013c-.008,0-.015.008-.025.01-.007.028-.015.057-.021.082h-.026a.59.59,0,0,1-.022.094h-.022c-.01.045-.025.07-.013.106h-.023l0,.035h0v.017l0,.008h-.01l0,.008h-.018l.011.025h-.011l0,.022a.108.108,0,0,0-.015.015.052.052,0,0,0,0,.043h-.011a.282.282,0,0,1-.007.028l-.013.009a.036.036,0,0,0,.01.038l0,.011-.011.01h-.012v.01l-.033.023a.437.437,0,0,1,.012.049c-.014.012-.03.022-.047.035a.115.115,0,0,1,.007.028.174.174,0,0,1-.007.029c-.02.015-.038.031-.057.047l.012.035h-.012v.023h-.012c-.021.024,0,0-.01.041h.022v0h0v0c-.008.012-.014.02-.02.031h-.013v.024H52.2c0,.014.009.029.012.045l-.023.012c.005.013-.015.029-.012.041l-.024.011c-.009.024.008.031.011.045a.083.083,0,0,1-.023.012c-.007.025.008.035.012.047h-.012v.023l-.022.014c0,.01.007.023.012.035a.142.142,0,0,0-.025.012c-.009.021.012.031.013.045H52.11c-.009.047-.037.084-.028.117a.329.329,0,0,1-.037.019c.005.018.01.032.013.049-.013.01-.023.016-.035.026v.045h-.012c0,.015-.009.031-.012.045a.022.022,0,0,1,.012.025.076.076,0,0,0-.024.012.392.392,0,0,1,.012.046l-.022.012v.059h-.015v.021h-.008c0,.014.006.026.008.035h-.008c-.007.018.008.047.008.049H51.94a.285.285,0,0,1-.011.031s.017.008.011.026h-.011v.023h-.013v.012h.013a.2.2,0,0,1,0,.035h0a.578.578,0,0,0-.005.061h-.009a.455.455,0,0,0-.012.066h-.013l.008.022,0,0a.035.035,0,0,0,.008.013h-.012l-.005.022h0v.006l-.008.019h.013v0l-.021.008.008.023h-.011l0,.014a.136.136,0,0,0,0,.059v.021h-.017v.014l.008,0v.007l0,0c0,.007-.014.021-.01.031h.008v.015c-.008,0-.015.008-.02.008l.007.028s0,.005,0,.011-.013.008-.021.01l.014.023h-.014v.022h-.009a.465.465,0,0,1,.009.049h-.009v.105h0l0,.01v.025h0v.022H51.79l.012.035h-.013v.106h-.011v.093h-.009v.01h0a.031.031,0,0,0,.012.035c0,.022-.011.02-.012.024v.043l-.007.029.007.006v.029h-.011a.208.208,0,0,1,.011.035v.01h-.011a.019.019,0,0,0,.011.023v.012h-.011c0,.022.011.023.011.023s-.007.024-.011.034.006.025.011.037l-.023.012c0,.011.02.019.012.045a.13.13,0,0,0-.024.013c0,.016.009-.006.012.012s-.012.033-.012.033c0,.02.012.022.012.025,0,.022-.012.022-.012.022a.224.224,0,0,0,.012.037h-.012c0,.027.012.031.012.031l-.012.049h.012c-.005.016-.008.031-.012.047h.012v.07h-.012a.25.25,0,0,0,.012.047s-.016,0-.012.024h.012v.009h-.012v.038a.154.154,0,0,1,.012.023h-.012c0,.01.007.021.012.033h-.012v.035h.012c-.005.012-.008.024-.012.037l.012.022h-.012v.033h.012c0,.018-.016.02-.012.049h.012v.01h-.012v.2c0,.006-.017.006-.013.023h.013c0,.012-.009.022-.013.036h.013v.058h.012c0,.063.008.125.012.188h.011v.058h.01l-.01.022a.232.232,0,0,0,.012.1c.006.026-.014.032-.012.045h.012v.035h.012l.012.116h-.013v.013H51.8v.045h.012l-.012.035h.012v.059h.01a.125.125,0,0,0-.01.035l.01,0v.033h.012v.082h.013v.036h.009v.08h.011v.037h.013v.009h-.013a.145.145,0,0,1,.013.036.067.067,0,0,1-.013.025h.013v.033H51.9v.047h.012v.035h.009v.035h.013c.007.039.017.077.025.118h.008v.056h.015v.037h.01c0,.012-.007.022-.01.034h.01v.025H52v.059a.127.127,0,0,1,.024.011.227.227,0,0,0-.012.034h.012v.023h.012v.047h.01c.005.039.01.078.013.117h.009v.021l.015,0v.045h.011v.035H52.1v.038h.014v.044h.011a.291.291,0,0,1,.011.047l.037.024c0,.023.008.047.01.072a.048.048,0,0,1,.023.01c.005.019.008.039.013.058h.011a.472.472,0,0,0,.013.047h.011v.047l.024.01v.047a.114.114,0,0,0,.022.013v.022h.013v.023h.011v.036h.011v.023a.17.17,0,0,0,.023.012v.023l.046.037c.01.026.017.053.025.08s.039.03.058.047v.022a.047.047,0,0,0,.024.011v.038c.018.037.039.031.045.093a.178.178,0,0,1,.035.01v.035h.026a.078.078,0,0,0,.023.049h.012v.045a.043.043,0,0,0,.023.012v.021h.009c.026.033.053.045.059.1h.024c.009.035.027.043.035.082h.023c.008.014.018.014.025.023v.022a.134.134,0,0,0,.034.023v.024a.072.072,0,0,1,.022.013v.034c.019.027.042,0,.06.056.023.01.047.018.069.026.012.047.046.056.058.1h.024c.005.01.008.022.013.035h.033v.022h.024c.007.015.017.017.021.025l0,.024h.013c.022.027.048.043.057.08h.023c.022.035.053.043.083.07.048.055.1.109.15.164h.023c.006.006.008.016.013.022a.48.48,0,0,1,.06.015v.01a.061.061,0,0,1,.02.01v.025c.015,0,.025.008.036.01a.57.57,0,0,0,.047.056h.025c.014.022.03.042.046.063a.505.505,0,0,0,.059.008l.021.037h.025c0,.01.008.014.012.023h.035a1.043,1.043,0,0,0,.07.082l.046-.011c.015.019.03.039.046.058h.023v.01c.008.006.017.008.026.014v.023c.026,0,.055.006.084.012h.007v.023a.111.111,0,0,1,.057.033v.014h.024l.014.024h.01V666.8c.017,0,.015.021.024.023a.047.047,0,0,1,.024-.009v.009h.02c.012.018.026.032.036.047a.031.031,0,0,0,.036-.01.113.113,0,0,1,.035.01v.026a.217.217,0,0,1,.035.009v.012a.288.288,0,0,0,.035.012l.012.023c.025.016.069,0,.092.024s.006,0,.014.023c.016,0,.04.008.06.012v.012l.033.009,0,0h.024v.012a.145.145,0,0,1,.04.006v0l.014,0,.026,0c.006.008.01.017.017.025l.008,0a.077.077,0,0,0,.012.026h.07c.006.009.016.023.026.035l.06.01.011.013h.035v0l.011,0v0h.01l.009.022c.024,0,.045.011.073.019l0,.006a.027.027,0,0,0,.018,0v.022c.023,0,.045.007.069.009l.016.016.008,0v.012c.034.006.027.019.049.023v-.01a.03.03,0,0,1,.016-.005v.005c.008,0,.014-.007.019-.013a.2.2,0,0,1,.013.025H55.5c.009,0,.009.014.022.02v.015c.022.006.016-.035.049-.025.011.013.024.031.035.047,0,0,.026-.008.046-.012l0,.012h.02l.043.006.008.015h.023v.012a.05.05,0,0,0,.019,0s.008.012.012.016h0l.045-.006a.112.112,0,0,1,.009.019.138.138,0,0,1,.028,0,.261.261,0,0,0,.023.032.016.016,0,0,0,.022-.012.024.024,0,0,1,.026.012l.045-.012v.023l.046.012c.028-.059.03.033.059.023.006,0,.005-.033.035-.023l.012.023c.019,0,.006-.031.025-.023a.258.258,0,0,0,.035.047.182.182,0,0,1,.044-.012l.012.022h.071v.011h.045c.005.008.007.016.013.026a.02.02,0,0,0,.024-.012c.035-.006.035.012.058.021v-.021h.021l.014.021.046-.011.012.025c.027.008.035-.015.048-.014a.139.139,0,0,0,.01.026h.024v.012a.1.1,0,0,1,.033-.012l.012.021h.071c.005,0,0,.018.023.012v-.012h.012l.013.024c.013,0,.03-.006.047-.012s.006.016.01.025c.027.008.036-.017.048-.013a.217.217,0,0,0,.01.025l.023,0v.012a.02.02,0,0,0,.024-.01c.02,0,.025.01.025.01l.034-.01v.01c.019,0,.039-.006.058-.012l.012.024.033-.012v.012c.014,0,.026.009.037.011v.014h.01v-.025c.014,0,.025.009.036.011v.014c.015-.006.021-.022.046-.014l.012.026c.027,0,0-.024.013-.026a.25.25,0,0,1,.034.014v.012c.011,0,.025-.024.046-.012,0,0,.022.025.036.035v-.023h.022a.242.242,0,0,1,.013.023.253.253,0,0,1,.035-.014v.014c.019-.006.039-.01.058-.014a.267.267,0,0,0,.012.024c.018,0,.018-.02.047-.01v.01h.011a.026.026,0,0,1,.034-.01l.013.022c.025.007.034-.014.046-.012s.007.016.011.023l.094-.011v.011h.023v.012l.036-.012v.012h.011s.008-.017.035-.012a.024.024,0,0,0,.024.012.017.017,0,0,1,.023-.012.086.086,0,0,1,.01.024c.022,0,.041-.01.061-.012v.012l.035-.012s0,.014.02.012v-.012c.039,0,.027.02.036.023.026.008.073-.027.083-.023l.011.023c.027.01.035-.013.045-.011v.011h.038V667.8l.046.011V667.8c.018,0,.02.023.023.023H58.5v.01a.515.515,0,0,0,.059-.01v.01h.013s0-.018.022-.01,0,.028.036.026v-.016h.034v-.01c.028-.008.029.008.033.01s0-.008.014-.01c.047,0,.093.008.139.01v.016c.018,0,0-.014.011-.016H58.9v.016c.013-.006.025-.01.036-.016s.024.01.037.016v-.016c.013.006.028.01.045.016s0-.02.023-.016l.012.025.013-.009h.057v-.016h.011v.016l.1-.016s0-.014.025-.01v.01h.023v.016c.01-.006.022-.01.035-.016v.016h.022v.009a.177.177,0,0,1,.036-.009s.005.011.023.009v-.009h.035v-.016h.058v-.01h.01v.01c.027.006.035-.014.047-.01a.02.02,0,0,0,.025.01s0-.014.022-.01v.01h.013v-.01h.034v-.012a.028.028,0,0,1,.035.012h.082v-.012c.011,0,.038.02.072.012v-.012l.067.012v-.012h.072V667.8c.012,0,.027.015.057.014V667.8h.011a.023.023,0,0,0,.026.011V667.8h.046v-.012l.034.012v.011c.027,0,0-.009.012-.023a.1.1,0,0,0,.08-.012l.012.012h.013v-.012l.058.012.1-.035v.023l.067-.011v-.012l.048.012v-.012h.094v-.012c.015,0,.019.018.047.012v-.01c.024-.006.046.026.081.01l.012-.024H60.8v-.009h.011a.02.02,0,0,0,.024.009v-.009h.035v-.012l.011.012c.04-.01.079-.018.12-.026v-.011c.018,0,.016.033.045.025.006-.014.016-.025.021-.037h.093v-.01l.038.01v-.01h.009v.01h.013v-.01l.022,0v-.01a.164.164,0,0,1,.035.01s0-.015.025-.01c0,0,0,.016.021.01v-.01h.048l.011-.025a.527.527,0,0,0,.06.012c0-.006.006-.014.011-.024h.023V667.6c.015,0,.03.019.057.009V667.6h.061v.009h.01l.012-.021h.048v-.012h.023v-.014a.187.187,0,0,1,.1,0v-.021c.033-.01.07-.018.1-.025v-.012l.011,0v.01c.039,0,.081-.006.116-.01.007-.012.018-.024.025-.035l.047.011v-.011h.035v-.012a.021.021,0,0,1,.023.012c.019,0,.039-.01.057-.012l.025-.035c.016-.008.024.012.024.012.023,0,.021-.012.021-.012h.071v-.014a.492.492,0,0,0,.057-.01.084.084,0,0,0,.013-.025.218.218,0,0,0,.045.012l.024-.034.081-.011v-.012a.242.242,0,0,1,.071.012c.012-.016.023-.034.035-.047.032-.01.027.031.047.025v-.015c.015-.006.017-.018.025-.02h.022a.144.144,0,0,1,.011-.025l.035.013v.01c.022,0,.016-.017.047-.023v-.024l.094-.011v-.022c.031-.01.061-.016.094-.025l.01-.022c.045-.008.085-.017.129-.023.008-.012.015-.024.023-.035h.07c.007-.016.016-.032.024-.049.031,0,.061-.006.093-.01v-.012h.024l0-.011a.435.435,0,0,1,.091-.024c.007-.023,0-.01.01-.023s.068-.008.095-.024l.011-.023a.194.194,0,0,0,.034-.012V666.9l.036-.009v-.026a.113.113,0,0,1,.035-.01.03.03,0,0,0,.036.01l.035-.047h.022v-.009a.037.037,0,0,1,.022.009c.01,0,.006-.027.025-.023v.012l.013,0a.133.133,0,0,1,.011-.024h.022v-.014c.022-.015.029-.027.058-.033v-.023c.032-.006.065-.008.094-.012v-.023c.008-.006.016-.008.024-.014v-.01h.024c.015-.019.028-.039.046-.058l.047.011c.023-.027.045-.054.07-.082h.035l.011-.023h.023l.024-.037a.263.263,0,0,0,.057-.01.744.744,0,0,0,.047-.061h.024a.456.456,0,0,0,.046-.056.222.222,0,0,0,.037-.01v-.025a.072.072,0,0,1,.022-.01v-.01a.237.237,0,0,1,.061-.015l.008-.022h.025l.15-.164c.03-.027.061-.035.08-.07h.026a.223.223,0,0,1,.058-.08h.012v-.024c.005-.008.015-.01.024-.025h.022v-.022h.035a.319.319,0,0,0,.012-.037h.023c.013-.047.047-.056.062-.1l.068-.026c.015-.058.039-.029.058-.056v-.034a.077.077,0,0,1,.023-.013v-.024a.291.291,0,0,0,.035-.023v-.024c0-.007.015-.007.023-.021h.023c.008-.039.028-.047.035-.082H65.5c.008-.051.033-.063.06-.1h.012V665.3a.074.074,0,0,0,.023-.012v-.045l.013,0a.11.11,0,0,0,.022-.045h.023v-.035a.228.228,0,0,1,.035-.01c.005-.062.03-.058.046-.093v-.038a.059.059,0,0,0,.025-.011v-.022a.311.311,0,0,1,.059-.047c.006-.027.014-.054.022-.08l.047-.039V664.8a.119.119,0,0,0,.022-.012l0-.023h.011v-.036h.01v-.023h.011v-.022l.026-.013v-.047a.21.21,0,0,0,.021-.01v-.047H66a.3.3,0,0,0,.013-.047h.012c0-.019.008-.039.012-.058a.054.054,0,0,1,.022-.01c.006-.025.008-.049.013-.072l.034-.024c0-.015.009-.031.013-.047h.009v-.044h.013v-.038h.011v-.035h.012v-.047h.012v-.021h.011c0-.039.006-.078.012-.117h.014v-.047h.01v-.023h.01c-.005-.01-.006-.024-.01-.034l.023-.013v-.057h.011v-.025h.012a.229.229,0,0,0-.012-.034h.012v-.037h.01v-.056h.014c.008-.041.016-.079.022-.118h.013v-.035h.011v-.035h.013v-.047h.009v-.035h.014l-.014-.023a.21.21,0,0,0,.014-.036H66.36v-.009h.014v-.037h.012v-.08h.01l0-.036h.011v-.082h.012v-.035h.01c0-.011-.007-.023-.01-.035h.01v-.059h.01a.169.169,0,0,0-.01-.035h.01V662.9h.013v-.013h-.013a.876.876,0,0,0,.013-.116h.012v-.035h.011c0-.013-.017-.019-.011-.045a.205.205,0,0,0,.011-.1.046.046,0,0,0-.011-.022h.011v-.058h.012c0-.063.008-.125.015-.188h.009v-.058h.011l-.011-.036ZM54.679,651.3h0l0-.012,0,.012m1.411,1.068H56.1c0-.025.007-.056.012-.086h.013a.183.183,0,0,0-.013-.037.151.151,0,0,1,.028-.01v-.064h.01v-.021h.014v-.051h.014c-.006-.018-.01-.035-.014-.051h.014v-.023h.013c.008-.038.016-.077.022-.112h.029c0-.07.015-.045.035-.088V651.8h.016l-.016-.024.029-.011c.012-.032-.006-.061.012-.086a.707.707,0,0,1,.062-.039c.018-.057.036-.114.053-.172.02-.014.042-.024.063-.037V651.4l.024-.011v-.024h.014c0-.021.009-.043.013-.064l.024-.01a.137.137,0,0,0,.013-.039H56.6c0-.018.008-.039.012-.061.01-.006.018-.007.028-.013v-.049c.014-.037.051-.037.064-.086h.024c.015-.057.037-.047.077-.076l.025-.024v-.025l.036-.012a.365.365,0,0,0,.053-.076c.022,0,.043.01.064.016a.035.035,0,0,1,.038-.016c.018,0-.005.016.013.016v-.016h.035v.016c.02,0,.026-.024.052-.016.005.01.011.02.014.027l.038-.011v.011H57.2v.012c.022,0,.015-.019.026-.023s.021.017.05.011v-.011l.039.011s0-.015.025-.011a.023.023,0,0,0,.024.011s0-.017.028-.011v.011H57.4v-.011h.026a.158.158,0,0,1,.013-.026h.075l.013-.023a.155.155,0,0,1,.026.012V650.8h.025v-.016h.051l.014-.023a.45.45,0,0,0,.05-.012c.018-.07.023-.025.063-.049a.262.262,0,0,0,.025-.039h.026v-.012a.294.294,0,0,1,.1-.037v-.023h.012c.016-.018.025-.033.039-.051H58a.253.253,0,0,0,.025-.035h.026a.112.112,0,0,1,.014-.025l.05-.014c.014-.016.026-.033.038-.049h.027c0-.008.007-.017.012-.025H58.2v-.026c.047-.009.093-.023.141-.037V650.3a.11.11,0,0,0,.05-.014v-.012h.052v-.013h.026v-.012c.029-.01.033.014.051.012v-.012c.031-.008.041-.006.063-.014.02.026.043.051.063.075h.026l.052.062h.023a.209.209,0,0,1,.015.025H58.8c.013.016.027.032.039.049h.037v.012c.017.014.035.025.053.039v.025c.057-.005.045-.021.088.01,0,.01.009.018.012.025l.013-.011a.1.1,0,0,1,.066.023l.012.026.014-.012a.733.733,0,0,0,.075.012s0,.045.013.023c.017,0,0-.014.012-.012a.164.164,0,0,0,.038.012c.008,0,.008-.029.025-.023l.014.023c.016.006.024-.012.024-.012s.027.01.039.012v-.012l.024-.011v.023c.018.006.035.01.052.014a.028.028,0,0,1,.028-.014v.014H59.6v-.014h.026v-.012h.053V650.6c.047,0,.093-.008.14-.012v-.014h.026v-.012l.1-.011a.252.252,0,0,1,.014-.024l.039.01v-.01h.022v-.015c.044,0,.088-.008.131-.01l.011-.025.114-.014v-.023c.061-.006.119-.01.178-.014l0-.012a.181.181,0,0,0,.037.012v.014a.515.515,0,0,1,.053-.014v.014c.027,0,.048-.028.086-.014v.014h.029a.07.07,0,0,0,.011.023.4.4,0,0,0,.05-.012c0,.008.009.016.013.026s.034-.01.05-.014.011.017.015.025c.033.014.064,0,.088.014l.05.06h.065c.013.016.025.036.038.049h.015v.026a.081.081,0,0,0,.023.011l-.012.026h.038c.027.029.049.056.076.086h.027v.013c.02.016.041.034.063.049v.01h-.012c0,.02.01.035.012.053.059.049.119.1.179.148v.074c.027.02.059.04.09.063v.023l.023.012a.058.058,0,0,0,0,.049c.032.023.06.049.09.074l-.012.039a.129.129,0,0,1,.025.01v.025a.18.18,0,0,1,.038.014.261.261,0,0,1,.051.123c.051.014.014,0,.039.035l.025.014a.318.318,0,0,1-.014.037.464.464,0,0,1,.051.037v.025l.029.012a.2.2,0,0,0-.015.037h.015v.026l.022.011v.049l.028.014c.014.021-.01.006.011.023-.015.014,0,.006-.025.014.01.012.017.024.026.037h.011c.015.026.012.07.026.1a.057.057,0,0,1,.026.012c-.005.011-.008.023-.013.037l.04.023a.384.384,0,0,0-.015.049.355.355,0,0,1,.038.025v.061l.026.013c-.005.016-.007.034-.013.049a.156.156,0,0,0,.025.014c0,.014-.023.022-.012.049l.026.012c0,.013-.023.025-.014.05a.177.177,0,0,0,.026.01c0,.02-.008.035-.012.051.012.008.027.017.037.025l-.01.039h.01v.022h.014c-.006.014-.01.025-.014.037h.014a.12.12,0,0,1-.024.088c-.036,0-.069-.008-.1-.014a.1.1,0,0,1-.015-.023l-.038.011v.012h-.049v-.023h-.028c.008-.035.02-.129-.011-.159-.01-.037-.005-.031-.04-.039-.012-.048-.027-.037-.062-.062-.008-.014-.018-.025-.025-.037h-.05v-.012h-.028v-.012H61.63s0-.015-.024-.013c-.009.007,0,.017-.026.013,0,0,0-.015-.024-.013a.023.023,0,0,1-.028.013V652.3h-.164v-.012c-.015,0-.033.008-.053.012a.02.02,0,0,0-.025-.012v.012H61.2s-.007.019-.025.013a.577.577,0,0,0-.082-.033c-.033.01-.053-.006-.086.008s-.005-.037-.073-.014c0,.01-.036.006-.042.014H60.88v-.014a.223.223,0,0,1-.039.014v-.014H60.8v.014c-.031,0-.069-.023-.114-.014v.014l-.04-.014s0,.016-.025.014.005-.014-.012-.014v.014h-.038v-.014h-.064s0-.015-.029-.011v.011h-.024l0,.014h-.053v-.014H60.4v.014h-.088v.012c-.04,0-.077.007-.117.013a.239.239,0,0,0-.035-.013v.013c-.048.012-.039,0-.078,0v.024a.16.16,0,0,0-.064.012v.011a.33.33,0,0,1-.05-.011l-.014.025h-.026c-.006.035-.03.07-.037.1a.017.017,0,0,0,.012.022c0,.021-.008.041-.012.063h-.012v.023h-.013a.186.186,0,0,0-.051.074h-.026a.085.085,0,0,1-.014.025h-.087v.014H59.6v.012h-.038v.014h-.1v.011h-.077v-.011l-.037.011h-.064s0-.017-.024-.011c0,0,0,.015-.027.011a.142.142,0,0,0-.012-.025c-.02,0-.067.027-.1.014l-.012-.026c-.017,0-.034.008-.052.012V652.7l-.191-.014v.014l-.077-.014v.014a.194.194,0,0,0-.04-.025.092.092,0,0,0-.009.025h-.014v-.014h-.078s0,.016-.025.014a.02.02,0,0,0-.023-.014s-.007.02-.028.014-.005-.029-.025-.025v.011h-.2c-.008-.029-.013-.027-.028-.048h-.011c0-.018.008-.032.011-.051l-.025-.012v-.06h-.01a.021.021,0,0,1,.01-.026.02.02,0,0,0-.01-.025l.01-.051a.173.173,0,0,1-.061-.059h-.079v-.025a.473.473,0,0,1-.075-.037c0-.016-.023-.006-.028-.021-.021.005-.026-.02-.05-.016v.012l-.051-.012v-.014c-.02,0-.022.014-.025.014h-.012v-.014l-.064.014v-.014h-.012c-.006.01-.008.018-.013.026h-.014v-.012h-.051v-.014c-.03-.008-.047.014-.063.014v-.014H57.63v-.01c-.036,0-.076.006-.115.01v.014a.1.1,0,0,1-.075-.014v-.012c-.031-.009-.069.022-.088.026v-.014c-.031,0-.039.014-.039.014-.023,0-.027-.014-.027-.014-.02,0-.023.014-.025.014s-.036-.027-.063-.014v.014c-.073,0-.06-.035-.116-.049v-.014c-.013,0-.062.032-.077.039-.014-.021-.006-.017-.038-.025v-.025H56.9s0-.016-.024-.014a.028.028,0,0,1-.028.014v-.014h-.011l0,.014h-.063a.144.144,0,0,0-.012.025c-.051,0-.1.035-.149.039a.206.206,0,0,1-.067.109v.01H56.51v.026h-.026v.027a.091.091,0,0,0-.065.047l-.125-.012s-.006.016-.025.012l0-.012-.074-.012v.024a.6.6,0,0,0-.1-.024.368.368,0,0,0,.011-.05s-.019,0-.011-.026m5.185.657c.009.015.009.013.025.025v.012h-.025a.208.208,0,0,1-.024.06c-.058.01-.111.02-.168.026,0,.009-.009.017-.012.025h-.039v.012c-.025,0-.051-.008-.076-.012a.052.052,0,0,1-.014.025H60.88v.012h-.012c-.025-.037-.039-.025-.064-.049a.327.327,0,0,1-.026-.039c-.027,0-.052-.006-.076-.012s-.017-.023-.026-.035l-.04.012v-.012l-.049.012v-.012h-.063v-.013h-.078v-.012a.1.1,0,0,0-.051-.025v-.026l-.025-.012c-.02-.047.01-.076,0-.111h-.014v-.049h-.013c0-.019.013-.021.013-.027v-.035h-.013v-.014h.013v-.109l.09-.012a.033.033,0,0,0,.026.023c.052-.033.081.006.128,0v-.011h.013v.011h.064c.005,0,0,.024.026.026l.014-.026h.01v.012l.039-.012v.012h.051v-.012h.039v-.011h.013c.012,0-.005.023.024.023a.134.134,0,0,0,.013-.023h.014v.011a.028.028,0,0,0,.023-.011c.024,0,.028.011.028.011l.113-.011v-.012h.037v-.014a.171.171,0,0,1,.04.014.023.023,0,0,0,.025-.014c.017,0,0,0,.015.014s.024-.014.024-.014c.031-.006.034.012.051.014s0-.02.025-.014v.014c.021,0,.043.008.064.012.01.041.016.082.025.123l-.037.025v.025h-.014c-.03.075.038.18-.063.21m-3.518-.295h-.025v.021h-.026c0,.025-.006.049-.012.076h-.013v.123l-.037.026v.023a.513.513,0,0,0-.065.111h-.025v.038a.278.278,0,0,0-.09.087l-.088.012v.014H57.2v-.014h-.027v-.012h-.038v-.013c-.044-.014-.086.019-.114.013v-.013h-.038v-.012h-.025v-.012c-.052-.017-.1,0-.117-.013l-.036-.024a.369.369,0,0,1,0-.162v-.049h.012a.108.108,0,0,0,.026-.049h.023v-.05h.016v-.012c0-.006-.031,0-.028-.039h.012c.006-.024.01-.047.016-.07s.024-.018.037-.026v-.025h.014a.027.027,0,0,0-.014-.037c0-.018.012-.02.014-.051.036-.012.074-.023.113-.037l.038.014v-.014a.541.541,0,0,0,.066.014.257.257,0,0,1,.011-.024c.049,0,.1.008.154.01a.906.906,0,0,1,.241-.01h.166a.217.217,0,0,0,.037.035v.028h-.012c0,.039.008.08.012.123m4.45.591c0,.018-.021.02-.013.049,0,0,.016,0,.013.026h-.013v.039h-.015c0,.015.023.019.015.047h-.015v.062h.015a.41.41,0,0,1-.014.053H62.2l0,.006H62.19v0h0v.009h0l0,.047H62.18l.006.063-.009,0,0,0v.009h0a.151.151,0,0,1,.012.026.156.156,0,0,0-.022.01v.017a.011.011,0,0,0,.01.008l0,.027h-.01l.006.112-.026.011a.034.034,0,0,0,.018.037.361.361,0,0,0-.01.038h.012c0,.027-.012.025-.012.025l0,.062-.023.014c0,.012.025.02.017.047a.132.132,0,0,1-.025.016l.015.035h-.013l0,.025-.014,0c.006.014.01.031.016.047h-.013c-.007.015-.031.029-.023.051h.012l0,.025-.024,0c0,.039.017.037,0,.062l-.028.012a.421.421,0,0,1,.019.063h-.013c-.011.011-.006.008-.013.011v.006h-.009c.005.018,0,.008.011.02-.006.025-.011.049-.02.076l.015.012h-.012l-.01.039-.013.006v.009h-.012v0a.267.267,0,0,1,.014.034l-.023.013v.01l.008.025h-.007l0,.026a.068.068,0,0,1-.023.017.116.116,0,0,1-.006.022h.007a.277.277,0,0,1,.014.025h-.024v.01l0,0a.069.069,0,0,1-.012.023.151.151,0,0,0-.006.041h.013a.088.088,0,0,1-.016.022.218.218,0,0,1-.009.06h-.013v.038l-.026.011c0,.03-.007.057-.011.088H61.88c-.01.026-.016.049-.025.074-.032.049-.014.045-.041.123l-.041.077a.092.092,0,0,1-.025.048h-.013v.026a.13.13,0,0,1-.027.012v.037H61.7c-.02.023-.033.029-.039.062a.081.081,0,0,0-.023.01v.006c-.034.031-.039.08-.075.109l0,.026a.093.093,0,0,0-.025.015v.01l-.036.016v.025h.014l-.012.035-.026,0,0,.023-.063.018,0,.025c-.039.051-.092.118-.129.17h-.027a.163.163,0,0,1-.011.028c-.052.029-.058-.02-.073.054l-.025,0,0,.037h-.026c0,.032,0,.026-.022.043l0,.01a.06.06,0,0,0-.052,0c-.031.041-.062.08-.095.121-.011,0-.026-.023-.051-.01a.157.157,0,0,0-.01.028c-.011.006-.025.017-.037.025v.012l-.025,0,0,.014a.167.167,0,0,1-.051.027l0,.025c-.047.028-.1.034-.11.1l-.025,0,0,.023c-.034.01-.062.055-.089.03l-.006.009-.023,0,0,.024c-.041.006-.073.01-.089.031s-.007.027-.009.039l-.078.006,0,.025-.139.034a.072.072,0,0,0-.01.027h-.027l0,.014-.052,0,0,.013-.027,0c0,.008-.006.018-.011.026H60.1l0,.012a.243.243,0,0,1-.12,0l0,0h0v.006h-.021v0h-.005v.01c-.017.007-.021-.008-.023-.01h-.006l-.045.016v.013l-.039,0,0,.012-.016.008,0-.03a.238.238,0,0,1-.031-.009c-.008.013-.017.025-.025.039h-.09v.011h-.051l0,.012h-.078v.014h-.051v.011l-.051-.011v.011h-.076v-.011h-.013l-.014.025-.013-.014h-.011v.014h-.089v.01c-.028,0-.051-.008-.078-.01v.01h-.01v-.01a.368.368,0,0,0-.039-.014v-.011c-.039-.008-.044.039-.091.025,0-.01-.01-.017-.011-.025a.2.2,0,0,1-.1,0v-.014H58.8v.014c-.02-.006-.043-.008-.061-.014v.014h-.014a.4.4,0,0,0-.026-.037c-.028.008-.059.017-.09.023v-.012c-.014,0-.025-.009-.038-.011V657h-.039v-.012l-.049-.013s0,.019-.025.013v-.013h-.026v-.012c-.024,0-.087.029-.128.012v-.012h-.024a.188.188,0,0,1-.013-.023h-.028v-.012h-.05v-.012h-.026a.082.082,0,0,0-.013-.025l-.138-.028v-.023h-.075c-.006-.012-.011-.025-.016-.037a.124.124,0,0,0-.088-.026v-.025h-.027l0-.035c-.025.025-.057-.018-.09-.026v-.023h-.026c-.014-.059-.065-.064-.115-.088v-.023a.118.118,0,0,1-.051-.026v-.011H57.5v-.014c-.014-.008-.024-.016-.039-.026l-.012-.023c-.026-.012-.039.016-.051.012-.035-.037-.068-.074-.1-.112a.054.054,0,0,0-.051,0v-.011c-.022-.014-.017-.008-.025-.037H57.2v-.037h-.025c-.021-.073-.025-.024-.078-.049a.079.079,0,0,0-.013-.026h-.024c-.044-.049-.086-.1-.127-.148v-.026c-.022,0-.042-.007-.067-.009v-.028h-.023c-.005-.011-.008-.023-.013-.035h.013v-.025a.15.15,0,0,0-.038-.012V655.9c-.009,0-.018-.009-.027-.011v-.026c-.033-.027-.066-.058-.1-.088v-.023h-.011c.005-.008.008-.018.011-.023-.028-.024-.059-.049-.088-.075a.371.371,0,0,0-.013-.074c-.016-.014-.033-.023-.051-.037v-.025a.153.153,0,0,1-.024-.014l.013-.037a.138.138,0,0,1-.026-.01v-.025a.405.405,0,0,0-.038-.026.359.359,0,0,1,.013-.035l-.025-.014v-.025c-.017-.012-.035-.023-.053-.037v-.049c-.012-.01-.025-.016-.036-.025v-.061h-.014c-.012-.017-.024-.033-.037-.049h.025c-.011-.045-.028-.033-.041-.074h-.023a.157.157,0,0,1,.014-.025h.009V655a.136.136,0,0,0-.035-.021v-.065a.073.073,0,0,1-.025-.012.221.221,0,0,0,.009-.037l-.023-.013-.012-.035h-.013l.013-.014c-.009-.026-.019-.049-.027-.074.014-.014.006,0,.014-.026-.028-.006-.013,0-.028-.01h-.009c0-.023.006-.043.009-.064a.108.108,0,0,1-.025-.012c-.016-.025,0-.021,0-.06H56.1v-.026h.012c.01-.025-.015-.037-.023-.049h-.013a.23.23,0,0,1,.013-.05h-.013V654.4h-.013a.19.19,0,0,1,.013-.035.1.1,0,0,1-.025-.014c-.012-.027.015-.037.012-.046l-.026-.014v-.063s-.018,0-.013-.025h.015a.12.12,0,0,1-.015-.037.033.033,0,0,0,.013-.037l-.025-.01v-.113H56v-.026s.019,0,.012-.021a.282.282,0,0,1-.026-.016.317.317,0,0,1,.014-.035h-.017l0-.062h-.012v-.063h-.013c-.026-.084.021-.2.013-.246h-.013c0-.018.018-.021.013-.049h-.013v-.013a.02.02,0,0,0,.013-.024s-.015,0-.013-.023a.12.12,0,0,1,.013-.028h-.013c-.005-.027.013-.031.013-.049v-.013h-.013a.208.208,0,0,1,.013-.035s-.017,0-.013-.026a.02.02,0,0,0,.013-.023s-.017-.008-.013-.026h.013c0-.041.007-.084.009-.125h.029v-.011H56a.387.387,0,0,1,.012-.063.018.018,0,0,1-.012-.025h.012v-.012H56v-.012h.012c.007-.033,0-.027.039-.037l0-.011.051.011v-.023a.211.211,0,0,1,.04-.014V652.9c.028.008.059.016.086.026V652.9a.176.176,0,0,0,.051-.013v.013h.053v.012h.014v.037h.011a.172.172,0,0,1-.078.075c.006.013.021.021.016.05h-.016v.012l.029.012v.062l.024.012c-.005.017-.008.033-.012.049.03.025.058.051.088.074a.351.351,0,0,1-.013.049h.013c.023.035.045.035.052.09a.384.384,0,0,0,.089,0c.012.013.031.013.037.023v.024c.007.009.017.009.025.023a.317.317,0,0,0,.063-.01v.024a.412.412,0,0,1,.04.011v.014c.013,0,.028-.025.051-.014v.014c.022.016.019.008.027.037h.024l.013.026c.035,0,.067-.01.1-.016v.016l.012-.016c.046.006.094.012.139.016v.009h.025v.014a.255.255,0,0,1,.117,0v.012l.05-.012a.083.083,0,0,0,.012.025l.052-.013v.013c.018,0,.02-.019.052-.013,0,0,.008.017.037.013v-.013h.013a.064.064,0,0,0,.012.025l.1-.012a.2.2,0,0,1,.013-.025l.05.012v-.012c.027,0,.038-.02.064-.02v.012a.25.25,0,0,1,.039-.012v.012a.09.09,0,0,0,.05.012c.016-.053.061-.024.077-.078h.026a.487.487,0,0,1,.025-.1h.013v-.023h.012c.005-.016.01-.028.013-.039.044-.012.032-.026.078-.038,0-.023.009-.048.01-.074h.015a.26.26,0,0,1-.015-.037h.015v-.049a.079.079,0,0,0,.025-.025l.1-.037c.021.006.045.008.066.012v-.012h.038v-.014c.053-.015.054.022.086-.023a.138.138,0,0,1,.079.023v.014h-.026c0,.015.009.033.013.049a.019.019,0,0,0-.013.025.023.023,0,0,1,.013.025h-.013v.172h.013c0,.028.008.051.013.075h.026v.062c.066.063.134.123.2.186l.012-.012c.052.008.1.015.154.021.009.014.016.028.023.041a.031.031,0,0,0,.04-.013.394.394,0,0,0,.039.023v-.01h.153s0-.019.026-.013v.013c.039-.005.083-.011.126-.013a.175.175,0,0,1,.013-.028l.051-.009c0-.008.007-.016.013-.026h.024a.179.179,0,0,0,.014-.037l.049-.037v-.061c.053-.017.015-.009.04-.039.006-.007-.025-.035-.009-.039s-.009-.037,0-.054a.289.289,0,0,1-.039-.012v-.014c-.086,0-.067.008-.152.008a.1.1,0,0,0-.012-.023.453.453,0,0,0-.18,0v.011l-.089-.011v-.014h-.013v-.109a.084.084,0,0,1,.028-.012c.021-.057-.02-.106.025-.151a.156.156,0,0,1,.011-.023h.065v.012h.013c.007,0,0-.018.038-.012v.012c.015,0,.022-.024.051-.012a.35.35,0,0,1,.023.035c.023,0,.043-.006.067-.012v.012c.032,0,.066-.006.1-.012,0-.007.008-.015.012-.023.029-.012.049.014.064.012v-.012h.051l.014-.025h.075v-.012a.3.3,0,0,0,.064.012h.089v-.012h.013v.012l.115-.012a.094.094,0,0,0,.037.037v.061h.014c0,.013-.026.021-.014.05a.2.2,0,0,1,.025.012v.051c.007.008.016,0,.026.035h.025l.013.025H60v-.011h.075v.011h.113v.012h.028v.012l.062.013v.014c.03.008.035-.014.051-.014.016.022.036.042.051.061s.037-.014.051-.012v.012h.027v.016c.016,0,0,0,.012-.016.031,0,.025.016.025.016h.063s.009.015.015.023H60.6l.012.024h.026l0,.013h.014v-.013c.015,0,.026.009.04.013a.044.044,0,0,1,.061-.025v.012h.027a.151.151,0,0,0,.024.027.114.114,0,0,0,.066.01.048.048,0,0,1,.062.025c.026-.008.05,0,.075-.008s.048.033.092.02v-.012h.023v-.014h.055l.01-.025h.039v-.01a.874.874,0,0,0,.1.01v-.01c.023-.013.021-.019.05-.025v-.026l.038-.009v-.016h.026V653.4l.051.012c.022-.074.056-.029.076-.061v-.025h.039v-.012H61.6c.007-.017.017-.015.024-.025v-.023l.051-.038v-.037h.011c.005-.015.009-.033.014-.05l.078-.061v-.012a.554.554,0,0,1,.1-.025s0,.015.026.012a.019.019,0,0,1,.025-.012c.017,0-.006.018.014.012a.215.215,0,0,1,.023-.026c0,.014.01.026.014.039.025,0,.05-.007.078-.013v-.012c.017,0,.013.021.023.025a.038.038,0,0,0,.039-.013c.027.006.051.009.078.013,0,.041.008.082.013.123a.072.072,0,0,0-.013.024.033.033,0,0,1,.013.039h-.013v.06Zm-2.092-1.459h.1v.014h.049v.012c.027.006.062-.03.1-.012.006,0,0,.016.037.024v.025s.033-.022.053-.012v.012c.016.014.032.023.051.037.009-.01.034-.045.064-.037a.084.084,0,0,0,.012.023.357.357,0,0,1,.049.014c.014-.023.019-.019.029-.049a.2.2,0,0,1,.1,0v.012h.024c0,.008.011.015.015.023s.025-.008.037-.009v.009h.027v.014c.021.006.021-.014.024-.014h.064v.014l.064-.014v.014c.018,0,.02-.019.051-.014v.014h.012a.038.038,0,0,1,.037-.014v.014h.016a.2.2,0,0,1,.039-.014v.014h.01l.039-.014v.014c.021,0,.029-.01.051-.01.007,0,.016-.013.051,0,.028-.021.05,0,.077-.023a.174.174,0,0,0,.011-.025h.026v-.012l.077-.012,0-.014h.025c.006,0,.01-.017.023-.023V651.8h-.011a.282.282,0,0,0,.011-.035h-.011c0-.051.005-.065-.039-.075h-.038c-.009-.015-.015-.033-.025-.05-.028-.012-.039.017-.051.011v-.011h-.027a.09.09,0,0,0-.012-.024c-.041-.017-.1.032-.129.024v-.012h-.023a.25.25,0,0,1-.027-.037c-.01,0-.025.008-.037.014v-.014h-.039s-.01-.018-.026-.023v.023H61.02s0-.016-.025-.014v.014h-.039v.014c-.021-.006-.043-.01-.064-.014v.014H60.8l.012.011v.012a.121.121,0,0,0-.051-.012v.024h-.014a.134.134,0,0,0-.012-.024l-.037.012v-.012a.142.142,0,0,0-.037-.011v.011h-.053v.012c-.043.006-.025-.029-.063-.023v.011h-.016V651.6h-.227v-.014c-.06-.01-.144.074-.2.025a.128.128,0,0,0-.049.012c-.01.043-.021.1-.051.123v.064c.016.032.071.022.113.036Zm-3.58-.211c.017.049.05.02.025.088.032.018.037.041.078.049v.012c.017.01.006-.02.024-.024a.13.13,0,0,1,.011.024c.024.006.051-.02.091-.012v.012c.027,0,.051-.008.077-.012l0,.012h.053a.114.114,0,0,0,.012.025h.027v.014l.24-.014c.006.01.029,0,.032.012.044.021.037.008.071,0l.039.012v-.012h.025c.014-.006.006-.035.038-.024,0,0,.015.008.031.012s.016.008.02,0c.042-.007.084-.017.127-.025a.289.289,0,0,1,.04.015V651.8h.036v-.012h.051l.013-.023a.132.132,0,0,1,.088-.026V651.7H57.8v-.014a.164.164,0,0,1,.026.014v-.014c.023-.013.019-.007.025-.039.026,0,.011,0,.026-.011h.013v-.049a.156.156,0,0,0,.025-.014l-.013-.009c.005-.014.008-.026.013-.038a.158.158,0,0,1-.038-.048l-.026-.014c-.006,0-.008.021-.039.014v-.014h-.026v-.014c-.016,0,0,0-.012.014s-.025-.014-.025-.014h-.064l-.012-.023c-.021-.006-.024.009-.025.013a.026.026,0,0,1-.027-.013H57.6v.009c-.044,0-.085,0-.126-.009v.013a.342.342,0,0,0-.052.01v.014H57.39v.014c-.052.011-.041-.042-.09-.028v.014h-.051a.145.145,0,0,0-.012.025c-.052,0-.1-.01-.155-.011v-.014h-.015v.014h-.035v.011c-.031.006-.035-.015-.051-.011v.011c-.038,0-.077-.01-.117-.011v.011h-.012v-.011h-.024v-.014c-.025.008-.052.015-.077.025a.112.112,0,0,0-.1-.025v.014h-.027v.011c-.028.01-.033-.011-.051-.011v.011c-.022.014-.026.033-.051.049.005.016.021.022.014.049h-.014v.014a.078.078,0,0,1,.027.011l-.013.035m2.9,3.389h-.064s0,.014-.025.01a.019.019,0,0,0-.027-.01l-.037.049c-.044.018-.057-.021-.063-.025s-.02.011-.051.011a.254.254,0,0,0-.037.088.179.179,0,0,1-.092,0c-.011.022-.016.018-.025.049-.049.006-.038.018-.077-.014l-.011-.023c-.039,0-.079.008-.116.014s-.058-.032-.088-.038c-.011-.037-.056-.056-.052-.087l.014-.014c-.026-.008-.049,0-.078-.01v-.014h-.063L58.534,655c-.019-.008-.036.014-.036.014h-.013V655l-.064.014V655h-.139v.014c-.031.019-.038.053-.064.074v.025a.057.057,0,0,1,.023.012v.012h-.01c0,.025.01.025.01.025s-.008.026-.01.035c0,.028.042.069.024.114h-.014a.339.339,0,0,0-.01.048c.038,0,.042.006.061.024v.014c.033.021.025-.014.04.037a.138.138,0,0,1,.076.035h.013c0,.021.008.043.013.064a.137.137,0,0,0,.075,0,.281.281,0,0,1,.014.035c.016,0,.033-.007.05-.009v.009H58.6a.07.07,0,0,0,.01.026l.052-.012a.037.037,0,0,0,.026.024.027.027,0,0,1,.038-.012c.009.012.015.025.023.037.019,0,.037-.01.052-.012a.094.094,0,0,1,.013.024c.018,0,0,0,.014-.012.027,0,.023.012.023.012h.128v-.024c.026.006.011,0,.026.012h.038v-.012a.263.263,0,0,1,.04.012.425.425,0,0,1,.026-.037c.018.006.032.008.048.012v-.012h.027a.145.145,0,0,0,.011-.026l.028.014.025-.037h.025v-.012l.077-.027c.018-.059.013-.012.049-.037a.371.371,0,0,0,.04-.049h.04a.4.4,0,0,1,.011-.047.48.48,0,0,1,.051-.014.328.328,0,0,1,.014-.062l-.014-.012.051-.025c0-.024-.01-.049-.013-.072h.013l.012-.038c-.049-.025-.108-.082-.165-.087Z" fill="#0070c3"/>
    <path id="Path_1901" data-name="Path 1901" d="M58.918,658.011a.09.09,0,0,1,.012-.024c.015,0,0,0,.01.012l.094-.012a.133.133,0,0,1,.01.024h.015V658h.069v.012A.682.682,0,0,1,59.2,658l.013.023.046-.011.024.035c.019.006.02-.012.023-.012a.221.221,0,0,1,.093.012c.02.076.03.019.081.047v.011l.047.034c0,.025.009.048.012.072h.011c0,.016-.018.018-.011.047h.011v.012s-.013,0-.011.021a.112.112,0,0,1,.011.025s-.014,0-.011.024a.029.029,0,0,1,.011.033h-.011v.014h.011c0,.013-.006.029-.011.045a.03.03,0,0,1,.011.035h-.011a.284.284,0,0,0,.025.033h-.014v.059h-.011v.013h.011v.01h-.011v.047h-.012c0,.014.009.025.012.037h-.012v.035h-.01v.057H59.5v.012h.012v.011a.117.117,0,0,1-.025.012l.013.014v.009h-.013v.045h-.012v.026l-.1.035v.01h-.024v.013c-.013,0-.023-.013-.023-.013s-.018.019-.046.013c0,0,0-.015-.024-.013v.013l-.046-.013v.013c-.04,0-.078.006-.116.012v-.012c-.039-.009-.075.014-.095.012v-.012a.164.164,0,0,0-.033.012v-.012c-.013,0-.025-.008-.035-.013a.142.142,0,0,0-.012.025l-.013-.012h-.058v-.013l-.047.013c-.008,0-.006-.027-.023-.023v.023c-.01,0-.023-.008-.035-.013a.115.115,0,0,1-.011-.022h-.058V658.9c-.054-.033-.012-.029-.036-.082a.105.105,0,0,0-.023-.009c0-.016,0,0,.012-.014v-.164h-.012v-.08s.015,0,.012-.024a.021.021,0,0,1-.012-.025.017.017,0,0,0,.012-.021h-.012v-.047H58.6a.021.021,0,0,1,.012-.024c0-.023-.012-.021-.012-.021-.006-.03.012-.032.012-.047s-.015-.008-.023-.014a.862.862,0,0,1,0-.176H58.6c0-.015.009-.031.012-.045h.012a.083.083,0,0,0,.022-.046h.094c.012-.016.025-.032.035-.047.042,0,.087-.01.128-.012v.012Z" fill="#ffec00"/>
    <path id="Path_1902" data-name="Path 1902" d="M60.776,661.231l-.011-.021.009,0-.021-.017a.11.11,0,0,0,.016-.02.211.211,0,0,0-.028-.025l.022-.012c-.007-.014-.007.008-.017,0-.011-.029-.022-.061-.032-.088h-.026c0-.014,0-.027,0-.043l-.042,0a.443.443,0,0,0-.014-.047l-.008,0L60.6,660.9h-.026c-.006-.011.008-.029-.01-.047h-.028l-.022-.04-.01,0c-.013-.031-.025-.064-.038-.1l-.011,0-.027-.053-.01.006c-.01-.012.01,0,0-.014s-.02-.014-.02-.014l-.033-.064-.027,0c-.006-.018.009-.02.012-.033-.013-.014-.032-.006-.034-.008,0-.018-.006-.031-.011-.047h-.026c-.017-.022-.031-.043-.049-.068l.01,0,0-.01-.011.006-.026-.051-.011,0c-.018-.02,0-.037-.01-.049a.127.127,0,0,1-.027,0,.267.267,0,0,1-.012-.047h-.026l-.006-.01.01,0-.039-.075-.008.008-.011-.021-.011,0a.214.214,0,0,1-.007-.035l-.03-.007.019-.012c-.027-.031-.034-.016-.062-.047l.019-.01-.005-.011a.074.074,0,0,1-.047-.014c0-.01.022-.02.009-.031h-.026a.156.156,0,0,0-.011-.045l-.02.009-.081-.1-.011.006c-.012-.014,0-.024,0-.028l-.016-.031-.01.008,0-.012a.016.016,0,0,0,0-.025.131.131,0,0,0-.028,0l0-.037-.011,0-.005-.01.009,0a.085.085,0,0,0-.021-.016.019.019,0,0,0,0-.027s-.015.006-.023-.016l.012,0c-.008-.018-.017-.01-.021-.014l-.029-.051-.009,0-.011-.02-.01,0c-.012-.011.012,0,.005-.013s-.022-.018-.022-.018l-.032-.06-.011.007-.022-.043-.009,0-.01-.019-.012.006-.023-.043-.008.006c0-.01,0-.026-.008-.036l-.01,0a.216.216,0,0,1-.031-.035l.02-.01-.005-.009a.081.081,0,0,1-.031-.006l.012-.006v0l-.021-.026c-.005-.017-.022-.007-.026-.025H59.35v-.01l-.023.008h0v.006a.178.178,0,0,0-.035-.01v.022c-.016,0-.018-.02-.047-.012v.012c-.039.012-.068-.016-.092-.012v.012l-.048-.012v.012l-.034-.012v.012h-.1v.012c-.021,0-.019-.012-.023-.012a.131.131,0,0,0-.069.012.021.021,0,0,0-.025-.012v.012l-.1.011a.054.054,0,0,1-.014.016v0l0,.01-.005,0,0,0-.022.031-.009-.006-.016.031-.011-.006-.006.01.011.006c-.023.037-.046.072-.071.109l-.009-.006-.011.022-.011-.008-.015.033-.011-.008-.016.034-.012-.006,0,.01a.026.026,0,0,1,0,.027l-.011-.006-.011.02-.009-.006c-.02.027-.037.052-.055.078l-.011-.006c-.011.016.013.025.011.031l-.006.012-.01-.006-.015.031h-.028l-.006.036-.009-.006-.01.021-.012,0-.015.03-.012-.006-.016.031-.009,0-.048.064-.011,0a.36.36,0,0,1-.008.037l-.009-.006-.022.041c-.011.012-.008-.01-.016,0l.012.006a.59.59,0,0,0-.043.056l-.012-.006-.006.036h-.024c-.025.037-.047.072-.07.109l-.011-.006-.026.051-.013,0-.027.051-.008-.006-.03.053-.008,0-.033.06-.011-.006,0,.036-.01,0-.029.05-.01-.005-.033.062-.01,0-.022.039-.011-.006-.03.063-.011,0-.006.01.006.015-.012-.005-.012.021-.01-.006c-.033.057-.066.115-.1.17l-.012,0-.015.029-.01-.005a.244.244,0,0,0-.006.039l-.012-.008-.021.043-.01-.008-.032.062-.01,0-.022.041-.01-.006,0,.011,0,.016-.011-.006c-.029.045-.058.092-.087.139l-.01-.006-.021.041-.01,0a.2.2,0,0,0-.007.035l-.011,0-.015.03-.01,0c0,.013-.008.031-.012.047l-.011-.008-.037.074-.012-.006-.016.031-.009,0a.016.016,0,0,0,0,.025c-.012.016,0,.019-.01.035.035.01-.01.029,0,.037-.008.02.009.022.009.033l.036.028-.021.011.023-.007c.008,0-.005.015,0,.017l.011,0c.011.088.064.078.1.131l0,.045.062.041,0,.023h.013c0,.017-.016.021,0,.046s.049.034.074.053-.006.018-.009.023l.039.043.035,0-.008.035h.013c.014.011,0,0,.023.008.026.082.087.111.114.2.051.008.045.041.1.049.005.015.011.031.015.045h.011c0,.011-.006.023-.007.035h.011c.021.023.04.029.055.062l-.025,0,.077.076.012,0-.012,0a.023.023,0,0,0,.008.02.171.171,0,0,1,0,.025l.008.008v.027l.037.008c.01.076.05.078.082.106,0,.009-.009.013,0,.027h.013v.021l.011.008v.012c.013.008.022.012.033.02l.007.017.015,0,.008,0,0,.02V662.8l0,.015h.012c0,.018-.017.022.006.045s.052.034.077.049,0,.02-.008.026a.385.385,0,0,1,.039.043l.035-.006a.2.2,0,0,0,0,.035h.01c.016.012,0,0,.024.006.03.078.09.109.123.2.051.006.046.037.1.045.007.016.012.029.018.045l.012,0c0,.014,0,.023-.007.035l.011,0c.023.026.041.031.056.065l-.022,0,.08.07h.011c0,.015,0,.031-.005.047.031.019.06.037.091.058,0,.012,0,.024-.007.035a.177.177,0,0,0,.033.018h-.02l.01.008c0,.01.01.021.006.035l.036.023c.021.034-.011.03,0,.057H58.8v.024a.205.205,0,0,1,.035.025c0,.012.025.021.03.033h.025v.024l.045.011v.012h.1v.012h.025v-.012l.046-.035.018-.033h.012v-.026h.012v-.035l.023-.012v-.023a.334.334,0,0,1,.035-.022l0-.023.008,0,0-.035.01,0V663.6h.01l0-.033.024-.01,0-.025.033-.019c.007-.024.013-.045.019-.071l.023-.007c.008-.026.018-.047.027-.071.007,0,.016-.006.024-.01l0-.023h.01v-.024a.21.21,0,0,0,.037-.019l0-.037c.021-.035.042-.027.052-.09l.023,0,.016-.059c.065-.015.01-.015.037-.056l.049-.02c0-.019.009-.039.014-.056h.012l-.01-.036.025,0a.363.363,0,0,1,.012-.035h.011l0-.035.011,0a.167.167,0,0,0-.011-.023h.025v-.012a.086.086,0,0,0,.024-.01c.027-.033.008-.057.062-.066.01-.024.019-.045.027-.069h.024a.105.105,0,0,1,.026-.045h.011l0-.035c.015-.01.031-.019.046-.031l0-.023h0l.024-.01c.009-.029.018-.063.026-.092h0v-.012a.2.2,0,0,0,.026-.01v-.017l.008-.008,0,0,0,0a.109.109,0,0,0,0-.025l.011-.006-.005-.02a.033.033,0,0,0,0-.015l.016,0c0-.01,0-.008-.008-.006l.015-.006c.01-.025.018-.049.026-.07a.062.062,0,0,1,.024-.01v-.025h.012v-.022a.169.169,0,0,1,.037-.021v-.038c.02-.037.041-.029.051-.091l.022,0,.015-.059c.064-.018.01-.016.037-.057l.047-.021c0-.02.008-.039.013-.059l.012,0-.01-.035h.024a.254.254,0,0,1,.013-.033h.01l0-.035h.011a.145.145,0,0,0-.011-.026l.024,0,0-.011a.081.081,0,0,1,.021-.01c.028-.035.01-.055.063-.069.008-.023.017-.046.025-.068h.024a.109.109,0,0,1,.023-.047H60.6l0-.033c.016-.012.033-.023.048-.033v-.024c.01,0,.016-.007.025-.009.008-.036.018-.073.026-.106l.025-.012v-.023h.01a.056.056,0,0,0-.009-.021l0,0,.021-.01,0,0,.027-.016.006-.008" fill="#ffec00"/>
    <path id="Path_1903" data-name="Path 1903" d="M52.839,660.989a.38.38,0,0,1-.016.055l.078.1c-.006.017-.009.037-.013.052a.551.551,0,0,0,.055.053l-.016.018c.012.009.024.021.037.033-.006.008-.011.012-.016.019l.055.049-.017.02.111.062a.107.107,0,0,1-.016.02c.019.015.037.033.056.05l-.018.018a.79.79,0,0,0,.3.231c-.013.013-.023.025-.034.037a1.505,1.505,0,0,0,.813.253c.052.069.1.135.154.2l-.016.019.056.049a.179.179,0,0,1-.016.02l.091.048-.018.018c.039.033.076.066.113.1l.018-.02.018.016a.148.148,0,0,1-.016.019c.024.022.049.043.073.067l.02-.02a.562.562,0,0,0,.019.053l.016-.02c.024.022.018.076.077.1a.133.133,0,0,0,.016-.018.427.427,0,0,1,.039.033l.015-.019c.039.033.075.068.115.1l.016-.018.2.146c.006,0,.01-.011.014-.017a.478.478,0,0,1,.039.031.406.406,0,0,1,.053-.017c.019.013.038.031.056.046,0,0,.01-.011.017-.017.038,0,.008.008.052-.022a.186.186,0,0,0,.125.045.074.074,0,0,0,.018-.017c.093.029.144.2.192.236a.081.081,0,0,0,.015-.018c.133.116.263.233.4.348l.218.094c.011-.01.022-.026.035-.037.012.023.025.045.038.068l.017-.018a.377.377,0,0,0,.038.032c.016-.006.033-.014.052-.02.017.018.037.033.054.051a.515.515,0,0,1,.053-.021c.032.015.061.031.092.046.06-.039.041-.039.106-.006.011-.013.022-.025.034-.037.018.018.037.034.055.051l.033-.039-.066-.226c-.116-.067-.215-.065-.328-.159a.427.427,0,0,1-.036.037c-.011-.009-.023-.021-.037-.031a.122.122,0,0,1-.015.018c-.006-.018-.014-.035-.022-.053a.294.294,0,0,1-.052.021c-.074-.066-.151-.132-.224-.2a.087.087,0,0,1-.018.02l-.073-.067-.018.018a.124.124,0,0,0-.017-.016l-.02-.015a.089.089,0,0,1,.017-.02.328.328,0,0,1-.077-.1c.075-.071.376-.274.42-.4l-.021-.051.082-.1c-.009-.039-.016-.08-.024-.123a.3.3,0,0,0,.033-.037c-.013-.1-.023-.2-.035-.3-.062-.055-.126-.11-.187-.166a.142.142,0,0,1-.016.017.3.3,0,0,1-.039-.033l-.017.022c-.03-.03-.063-.057-.093-.084l-.017.017c-.071-.01-.024.006-.086.024a.232.232,0,0,0-.021-.016.377.377,0,0,1-.03.037.568.568,0,0,0-.056-.014c-.021.036-.042.073-.065.11l-.053-.014c-.035.035-.067.074-.1.112a.112.112,0,0,1,.019.015c-.033.039-.066.076-.1.113.008.018.014.034.021.053-.032.047-.065.1-.1.147l.019.015-.05.094c.006.006.015.01.019.016a.241.241,0,0,0,.014.248c-.016.017-.033.037-.048.054-.066-.035-.074,0-.089-.011-.033-.028-.063-.055-.094-.084l-.018.019c-.025-.023-.049-.043-.075-.066-.005.006-.01.013-.016.019-.043-.039-.086-.078-.131-.117-.016.008-.034.014-.051.022a.1.1,0,0,0-.02-.016.242.242,0,0,0,.016-.021c-.035-.032-.074-.065-.111-.1l-.016.017a.1.1,0,0,1-.02-.015l.018-.02c-.045-.039-.088-.078-.133-.115,0,.006-.01.01-.015.018a.166.166,0,0,1-.02-.018l.018-.018-.171-.183a.953.953,0,0,0,.382-.434c.021-.023.045-.049.066-.074l-.017-.016c.01-.013.021-.025.033-.039a.219.219,0,0,1-.021-.05l.048-.057-.02-.051c.008-.08.051-.017-.005-.1.068-.141-.075-.27-.079-.405l-.167-.148a.153.153,0,0,1-.018.018.411.411,0,0,0-.3.07,1.152,1.152,0,0,0-.282.281.118.118,0,0,0,.018.02.387.387,0,0,0-.034.037c.006,0,.012.011.019.015-.023.037-.042.075-.065.112.007.041.017.082.025.123a.615.615,0,0,0-.048.054c.006.032.013.059.02.088l-.032.037c.007.03.017.057.023.088-.01.024-.021.049-.032.073l.04.035c-.018.017-.034.037-.051.054-.024-.009-.049-.019-.074-.031l-.016.02c-.013-.012-.024-.024-.036-.033l-.053.019c-.037-.033-.075-.064-.112-.1a.185.185,0,0,0-.018.02c-.018-.018-.037-.033-.055-.051a.111.111,0,0,1-.017.02.367.367,0,0,0-.037-.033l-.018.019c-.062-.068-.125-.135-.187-.2l.015-.022c-.043-.037-.088-.076-.131-.115,0-.006.012-.012.018-.019-.051-.057-.1-.112-.152-.168a.122.122,0,0,1,.015-.018c-.018-.027-.039-.059-.058-.086l.017-.019m2.637,1.707.018-.02c-.019-.016-.039-.033-.057-.051-.031-.1.058-.261.031-.375.052-.06.127-.162.186-.17a.382.382,0,0,1,.238.147l-.016.017c.019.03.039.057.059.086-.039.067-.076.135-.115.2a.083.083,0,0,1,.021.016c-.047.1-.185.147-.254.211a.5.5,0,0,0-.072-.031c-.043,0-.02.011-.039-.033m-1.42-.926c.012-.082-.031-.131-.048-.213,0-.027.008-.059.013-.088l-.02-.018c.015-.1.078-.113.038-.232a1,1,0,0,0,.132-.186c.061.012.08-.005.145.028l.016-.018c.017.035.035.039.058.084l-.017.02c.019.015.038.033.056.049a.057.057,0,0,0-.015.019.194.194,0,0,0,.04.1c-.011.011-.021.025-.033.037.012.012.026.023.037.035a.219.219,0,0,0-.029.107.1.1,0,0,1,.02.016.409.409,0,0,1-.034.037l.018.018c-.033.086-.261.2-.321.25-.02-.018-.037-.034-.056-.049" fill="#fff" fill-rule="evenodd"/>
    <path id="Path_1904" data-name="Path 1904" d="M53.25,658.118c-.04.076-.078.153-.118.229l-.024-.008c-.006.025-.013.049-.019.072l-.024-.006c0,.034,0,.067,0,.1a.222.222,0,0,1-.026-.006c-.011.049-.025.1-.04.145.009,0,.017,0,.025.005a.159.159,0,0,0-.008.026.107.107,0,0,1-.023-.008c-.011.031-.019.064-.028.1l.023.007c-.011.014-.025.026-.037.042a.073.073,0,0,1,.024.007c-.009.03-.062.049-.059.114l.023.005c0,.016-.009.034-.013.049l.025.006c-.015.049-.029.1-.043.145a.1.1,0,0,1,.024.007c-.014.082-.029.164-.045.247l.024.007c0,.018-.008.032-.014.049l.041.037c-.006.024-.012.049-.02.073l.023.007c.02.034,0,.01.041.037a.209.209,0,0,0,.014.135.112.112,0,0,1,.024.008c.014.092-.12.215-.131.274a.21.21,0,0,0,.024.005c-.05.17-.1.338-.145.506,0,.08.006.158.007.237l.05.015-.045.065a.092.092,0,0,0,.025.005l-.014.051c.014.012.025.026.04.037-.007.026-.015.049-.02.073.013.011.025.025.041.037,0,.035,0,.07,0,.1.059.037.051.022.051.094.016.006.032.01.047.014-.007.023-.015.047-.021.072.018,0,.033.01.049.014l.175-.159a1.714,1.714,0,0,1,0-.365.362.362,0,0,1-.047-.014.258.258,0,0,0,.012-.046.071.071,0,0,0-.022-.006.545.545,0,0,1,.036-.043.279.279,0,0,0-.04-.037l.082-.289-.022-.008.027-.1a.1.1,0,0,1-.024-.008l.007-.023.006-.024a.113.113,0,0,1,.025.006.323.323,0,0,1,.059-.111,1.825,1.825,0,0,0,.539.207c.014-.014.024-.027.038-.041l.12.035c.034-.025.067-.053.1-.076.016,0,.031.01.049.014l.254-.161c.022-.08.047-.16.07-.242a.115.115,0,0,1-.024-.008l.014-.046-.023-.006c.01-.041.021-.08.033-.121l-.024-.006c-.021-.071-.013-.024-.058-.071a.156.156,0,0,0,.007-.023.213.213,0,0,0-.048-.012.575.575,0,0,1-.008-.058c-.047,0-.087-.006-.131-.01,0-.018-.005-.037-.008-.055L54,659.405l-.008.024c-.049-.016-.1-.03-.143-.043a.41.41,0,0,0-.039.043c-.059-.01-.117-.016-.175-.026a.267.267,0,0,1-.009.026l-.1-.006,0,.025a.3.3,0,0,1-.143.037c-.031.055-.038.045-.075.084l-.071-.023c0-.074-.025-.068-.03-.086.012-.039.025-.078.037-.119l-.025-.006c.01-.033.018-.066.029-.1-.01,0-.016-.006-.024-.008.015-.054.032-.111.048-.168l-.04-.037A.157.157,0,0,1,53.23,659a.148.148,0,0,0,.025.008l.041-.145-.023-.006,0-.025.026.008.049-.17-.025-.006a.113.113,0,0,0,.006-.023l.025.006c.033-.079.063-.155.094-.233a.926.926,0,0,0,.553.158c.033.01.064.02.1.028l.006-.024c.016.006.034.01.049.014.012-.014.026-.028.039-.041.023.008.047.013.071.021a.5.5,0,0,0,.038-.041c.075-.025.038.039.093-.052.156,0,.208-.182.332-.243.019-.07.04-.144.062-.214a.106.106,0,0,1-.025-.01.4.4,0,0,0-.192-.237,1.069,1.069,0,0,0-.378-.134c0,.008,0,.013-.006.023-.017-.006-.034-.01-.049-.014a.1.1,0,0,0,0,.026c-.044-.006-.086-.008-.129-.012l-.1.074-.07-.019-.07.058-.049-.015-.069.06-.08,0c0,.018-.008.033-.012.049-.023-.008-.048-.014-.071-.021a.425.425,0,0,1-.005-.078.13.13,0,0,0-.023-.008c0-.016.008-.034.013-.049l-.04-.037m-.018,2.133a.07.07,0,0,1,.026.005l.02-.072c.075-.072.263-.058.351-.133.08.022.2.043.234.094a.394.394,0,0,1-.028.279l-.025-.007c-.017.029-.033.06-.051.088-.078,0-.153-.008-.231-.014l-.007.025c-.108,0-.211-.1-.3-.139,0-.027,0-.052,0-.08-.019-.035-.019-.011.014-.046m.227-1.682c.076-.024.1-.084.168-.133l.086-.029a.123.123,0,0,0,.006-.022c.1-.035.138.02.228-.066a1.361,1.361,0,0,0,.223.039c.013.059.041.068.039.141a.1.1,0,0,1,.023.007c-.025.032-.022.047-.053.088l-.023-.006c-.007.024-.015.047-.022.071a.111.111,0,0,1-.023-.006.251.251,0,0,0-.075.082l-.05-.014c-.005.016-.01.031-.014.049a.212.212,0,0,0-.109.02l-.006.023-.049-.012a.141.141,0,0,0-.006.024c-.093.006-.289-.153-.365-.184.006-.025.014-.047.022-.072" fill="#fff" fill-rule="evenodd"/>
    <path id="Path_1905" data-name="Path 1905" d="M56.444,663.69l.235.032.023-.045a.768.768,0,0,1,.055.058.17.17,0,0,0,.012-.023l.045.021c.014-.011.029-.021.044-.035a.626.626,0,0,0,.068.035c.014-.011.03-.021.046-.035.031.006.065.016.1.022.047-.053.031-.047.1-.034.007-.013.013-.031.021-.044.022.011.045.023.069.033.007-.014.013-.029.02-.043.135.021.271-.139.392-.17.07-.02.142.041.223.055l.013-.022.112.055a.083.083,0,0,1,.011-.024l.135.069.01-.024.068.033c.015-.011.029-.021.043-.033.035.008.068.016.1.022l.043-.032a.757.757,0,0,1,.1.02c.05-.021.1-.045.146-.068h.057c.008-.014.015-.03.024-.045l.189-.045c.006-.014.014-.029.022-.045h.056c.019-.037.036-.072.055-.111l.023.009c.065-.06.065-.1.145-.123a.206.206,0,0,0,.011-.021l.091.045a.063.063,0,0,1,.009-.024l.045.024a.265.265,0,0,1,.012-.024.617.617,0,0,0,.09.043c.014-.01.029-.021.045-.031l.066.031.012-.021.043.021.013-.021a.308.308,0,0,0,.045.021c.026-.013.051-.029.076-.043a.086.086,0,0,1,.024.01l.022-.045.09-.012c.008-.013.015-.029.023-.045a.077.077,0,0,0,.022.012c.025-.033.053-.066.078-.1l.023.009c.008-.015.014-.029.021-.044h.055c.009-.016.016-.032.024-.045h.056c.021-.028.045-.053.066-.08l.024.011c.006-.015.016-.029.022-.045h.056c.01-.023.022-.045.033-.068.007.006.014.008.022.014.009-.018.015-.032.022-.045a.053.053,0,0,1,.023.011c.048-.06.1-.123.144-.181a.186.186,0,0,1,.024.013c.062-.111.125-.218.187-.328l-.021-.011v0l-.119-.088,0,0a.386.386,0,0,0-.024.045l-.022-.012c-.015.031-.031.06-.044.092a.255.255,0,0,1-.024-.014.454.454,0,0,0-.021.045.168.168,0,0,0-.025-.01c-.025.053-.051.106-.076.156a.148.148,0,0,1-.024-.009c-.01.021-.022.045-.031.066l-.024-.012c-.012.022-.021.045-.033.069h-.056a.4.4,0,0,0-.157.144c-.014-.008-.029-.013-.044-.021-.077.138-.107.093-.189.158-.013.023-.024.045-.035.066a.092.092,0,0,0-.022-.009c-.062.035-.023.005-.089.011l-.012.022-.067-.033-.011.021a.359.359,0,0,0-.045-.021c-.013.011-.029.021-.045.035a.52.52,0,0,0-.066-.035l-.012.021c-.079,0-.067-.039-.09-.043l-.011.022c-.022-.01-.045-.022-.067-.034.026-.109.051-.216.076-.326a.367.367,0,0,1-.031-.043l.021-.047-.023-.007c.015-.032.029-.061.045-.092l-.022-.012c-.02-.072-.038-.148-.058-.225a.182.182,0,0,1-.045-.021l.012-.022c-.032-.048-.049-.023-.068-.089-.051-.026-.1-.051-.157-.077a.112.112,0,0,0-.01.022c-.117-.022-.07.01-.146.068a.081.081,0,0,0-.023-.011L58.9,662a.127.127,0,0,1-.021-.014c-.008.016-.015.032-.023.045l-.024-.01a1.035,1.035,0,0,0-.244.381.161.161,0,0,1,.023.012c-.007.053-.013.1-.021.158a.219.219,0,0,1,.068.088l-.011.022c.025.023.052.044.077.068v.055c.022.013.045.023.069.035a.075.075,0,0,0-.012.021c.085.086.172.063.191.178a.145.145,0,0,0,.022.012l-.033.011c-.014.03-.031.059-.044.09l-.124.022c-.023.027-.045.052-.067.08a.3.3,0,0,0-.168,0c-.015.012-.031.023-.044.035-.024-.012-.046-.023-.067-.035-.015.012-.031.023-.045.035a.32.32,0,0,0-.045-.023.109.109,0,0,1-.013.023l-.457-.145c.015-.056.045-.173.052-.224l.069-.135a.145.145,0,0,0-.023-.01c.007-.052.015-.105.023-.156a.074.074,0,0,0-.023-.012c.007-.015.015-.031.023-.046l-.035-.043.021-.045-.021-.069a.379.379,0,0,1-.045-.023v-.053c-.017-.02-.037-.039-.056-.059l.012-.019c-.039-.059-.067-.02-.091-.1a1.023,1.023,0,0,0-.257-.045l-.166.17c-.016.03-.031.059-.045.09a.1.1,0,0,0-.024-.012l-.032.124-.022-.012c-.026.07-.053.14-.079.213a.074.074,0,0,1,.022.011c0,.014-.015.03-.022.045a.057.057,0,0,1,.022.012.283.283,0,0,1-.021.043c.017.039.038.076.057.113a.112.112,0,0,1-.011.022c.015.006.03.015.045.021V663l.043.023c0,.018,0,.035,0,.055a.274.274,0,0,0,.045.023v.055c.027.047.049.026.068.09.014.039.01.006,0,.057a.878.878,0,0,0-.257.123,1.647,1.647,0,0,1-.358-.067c-.008.016-.016.032-.024.045l-.045-.021-.009.023-.035-.045-.044.033-.271-.132a.067.067,0,0,1-.01.021l-.089-.043-.012.022-.023-.012m1.2-.553a.186.186,0,0,0-.02-.01c.015-.048.027-.1.044-.146l.021.012.012-.024-.022-.01a.3.3,0,0,1,.022-.044.213.213,0,0,0,.078-.047c.135.072.134.129.2.213a.509.509,0,0,0-.034.234c-.022.045-.045.092-.067.135a.894.894,0,0,1-.237-.313m1.692.028c-.2-.1-.2-.182-.293-.313l.1-.2.078.008a.389.389,0,0,0,.046-.034c.06.051.059.079.134.124l-.011.08.023.009c-.008.016-.014.032-.022.045l.022.012c-.007.016-.014.029-.022.045l.022.012c-.025.07-.052.14-.078.211" fill="#fff" fill-rule="evenodd"/>
    <path id="Path_1906" data-name="Path 1906" d="M51.454,655.856l.628-.574.446-.357.466-.037.712.316.363.51.09.447-.467.555-.482.557-.76.144-.709-.2-.628.521v.662l.407.385.414-.025-.392,1.324-1.027-.164-.889-.928-.106-1.486.626-.967.9-.43" fill="#fff"/>
    <path id="Path_1907" data-name="Path 1907" d="M51.046,652.655l.5-.6.688-.08.839.176.468.508-.039.684-.215.486.039,1.17-.74-.117-.644.352-.292-.273-.39-1.094" fill="#ffec00" fill-rule="evenodd"/>
    <path id="Path_1908" data-name="Path 1908" d="M52.665,657.335l.6-.1.8-.662.409.486.588-.117H55.3l.565.332.19.647s.023.516-.094.578-.671.309-.671.309l-.594.357-.936-.215-.858-.973" fill="#ffec00" fill-rule="evenodd"/>
    <path id="Path_1909" data-name="Path 1909" d="M53.92,659.146v.05a2.332,2.332,0,0,0,.4.028l0-.028h.454c.214-.041.428-.086.644-.129a.839.839,0,0,0,.051-.076h.078c.008-.017.018-.033.025-.052a.518.518,0,0,1,.182-.077c-.017-.052,0-.023-.027-.052a.277.277,0,0,1,.156-.079c-.018-.05,0-.021-.026-.05v-.026c.023-.019.11-.021.128-.052s-.035-.092-.026-.1h.079c.04-.031,0-.078.023-.129h.027c.009-.035.018-.068.025-.1h.028v-.157h-.028v-.025a.433.433,0,0,0,.053-.026v-.05h.025c.01-.026.018-.053.026-.078h-.051c.02-.071.006-.059.078-.079l-.1-.437c-.035-.025-.071-.051-.1-.078v-.1h-.028a.358.358,0,0,1-.074-.154h-.1c-.02-.027-.035-.053-.053-.078h-.052l-.051-.053V656.9c-.027-.017-.053-.035-.077-.052v-.026a1.407,1.407,0,0,0-.439-.078.329.329,0,0,1-.027.053c-.038.012-.129-.057-.205-.026-.01.018-.018.034-.026.051h-.1v.026h-.053v.027c-.085.033-.095-.016-.153.051h-.158a.406.406,0,0,0-.025-.051h-.05c-.036-.029,0-.065-.027-.1h-.025c-.034-.043-.071-.086-.1-.128h-.051c-.021-.075-.047-.075-.079-.129l.079-.026c.018-.076.028-.088.1-.1v-.078H54.2v-.077h.1V656.2h.025c-.023-.045-.036-.039-.051-.1h.051c-.009-.1-.018-.207-.025-.311l-.053-.025c.01-.028.019-.053.027-.078h-.027v-.051l-.051-.028c-.007-.041-.018-.084-.025-.129h-.053v-.076c-.027-.021,0,0-.024-.025H54a.5.5,0,0,0-.283-.233v-.05h-.027v-.028l-.128-.023c-.009-.02-.018-.037-.026-.053h-.025c-.028-.074.064-.053.051-.129h-.026v-.08h-.025v-.051h-.028v-.2L53.4,654.5c.008-.051.018-.1.026-.154-.051-.016-.023,0-.051-.026h-.028V654.3h.028c0-.057-.028-.051-.028-.051v-.258c0-.011-.037-.006-.025-.052h.025v-.079h.028v-.1a.478.478,0,0,1,.051-.027v-.051c.05-.043.1-.086.154-.129v-.1l.052-.025v-.1c.025-.017.051-.035.078-.05v-.079l.052-.025c-.009-.051-.018-.1-.028-.154l.053-.026c-.01-.042-.018-.087-.025-.13a.067.067,0,0,0,.025-.079h-.025v-.1a.33.33,0,0,0-.052-.027v-.026h-.053c.038-.055.013-.062,0-.129-.071-.021-.056-.006-.077-.078h-.051c-.01-.025-.017-.053-.025-.076-.028-.02-.053-.035-.078-.053-.008-.027-.018-.053-.026-.078h-.078c-.017-.035-.034-.068-.052-.1h-.05a.428.428,0,0,0-.028-.052l-.23-.051c-.009-.018-.019-.035-.027-.053-.042.01-.085.018-.129.026v-.051h-.078c-.007-.018-.017-.035-.025-.051a.038.038,0,0,0-.051.025.355.355,0,0,1-.18-.025v-.025a.727.727,0,0,0-.079.025v-.025l-.309-.028v.028h-.052l-.024.05h-.027v-.025l-.233.025a.486.486,0,0,1-.026.051l.026.026h-.077v-.026c-.058,0-.1,0-.129.026,0,0,.035.054,0,.078-.071.051-.071-.047-.1.076h-.1v.027c-.053.016-.023,0-.053.026h-.025v.076c-.074.019-.075.047-.13.08v.076c-.088.026-.084.086-.154.129a2.336,2.336,0,0,0-.026.9h.026v.129h.025c.018.078.035.156.051.233h.027v.05h.025c.008.053.018.106.026.157h.026c.009.078.019.154.026.232h.025c.011.051.019.1.027.154h.051v.207l.053.026v.051h.026v.1c.055.164.129.434.257.518v.078l-.078.051c-.009.027-.017.05-.024.078-.053.043-.1.086-.155.129a.764.764,0,0,0-.026.076h-.053a.312.312,0,0,1-.1.156l-.49.18v.053a.391.391,0,0,0-.233.1l-.024.053-.1.025c-.008.018-.018.035-.025.053a.541.541,0,0,1-.234.127c-.011.057-.016.074-.051.1v.028h-.077c-.015.078-.023.107-.1.129-.04.152-.173.2-.207.361-.051.014-.022,0-.051.025h-.026c.008.026.017.051.026.077h-.026v.052l-.052.024v.053c-.016.009-.035.017-.051.025.008.035.016.07.025.1h-.025v.053h-.027v.129l-.051.025a.071.071,0,0,0,.027.079c.006.039-.047.033-.052.05.008.051.015.1.025.155h-.025v.1h-.027c0,.035,0,0,.027.025a.784.784,0,0,1-.027.077h.027v.08h.025c-.01.066-.017.136-.025.2h.025v.053h.027v.127H49.38c.01.052.018.1.027.156.051.015.022,0,.051.025a.344.344,0,0,1,.051.207h.052c.008.053.017.1.026.155l.051.025c.058.094.021.146.156.182,0,.13.023.181.127.2v.052c.018.008.035.018.052.026v.025h.052v.025c.043.036.086.071.13.1v.025h.051v.028c.025-.01.051-.018.078-.028.008.028.016.053.026.079.068.007.137.017.206.025-.029.029,0,.012-.053.025v.028h.026V660h.1v.025h.052v.026c.051-.01.1-.018.154-.026-.029.03,0,.012-.052.026v.025h.027v.028c.1.015.206.033.309.05v-.025h.025v.025h.181c.009.018.018.035.026.053h.155v.025a.076.076,0,0,0,.053-.052l.127.027v-.027h.206v-.026h.157v-.025c.051-.01.1-.018.155-.025.007-.037.017-.071.024-.1h.028c-.01-.025-.02-.053-.028-.078-.091-.02-.156-.111-.285-.076v.023h-.1v.028h-.053v.025a2.77,2.77,0,0,1-.67.025v-.025c-.068-.008-.137-.018-.205-.025v-.028h-.052v-.023h-.079c-.008-.018-.017-.035-.025-.053h-.051l-.053-.051h-.051v-.027c-.051-.018-.1-.033-.155-.051l-.025-.051h-.052l-.025-.052h-.053a.345.345,0,0,0-.026-.051c-.033-.028-.068-.051-.1-.078-.01-.033-.018-.069-.025-.1h-.028v-.051c-.023-.017-.051-.035-.076-.052-.009-.033-.017-.067-.027-.1h-.025c-.009-.025-.017-.053-.027-.076a.306.306,0,0,0-.051-.027v-.1h-.025v-.051l-.051-.025v-.106h-.026v-.05h-.027c.01-.041.018-.086.027-.129h-.027v-.1h-.025v-.23c0-.008-.032-.008-.026-.053h.026c.008-.078.018-.154.025-.232H49.69v-.051c.051-.016.024,0,.051-.028h.027c-.009-.033-.017-.068-.027-.1.008-.02.07-.006.053-.078-.02-.008-.035-.018-.053-.026V657.6h.053c.016-.086.033-.17.051-.258.05-.016.022,0,.05-.025h.026c.024-.032.018-.149,0-.155.041-.033.041.012.079-.051h.025c-.009-.017-.017-.035-.025-.052.025-.008.053-.016.076-.026.011-.043.019-.086.028-.129h.1c-.008-.025-.017-.052-.025-.078.039-.023.043-.051.076-.078v-.023c.027.007.053.017.078.023a.216.216,0,0,0,.025-.1c.073-.018.059-.036.129-.051.009-.035.019-.071.027-.1l.129-.027v-.051a.843.843,0,0,0,.233-.1v-.026l.1-.025c-.008-.018-.017-.035-.026-.053.051-.008.1-.015.154-.025v-.026h.052c.009-.017.019-.035.026-.05l.078.023V656.1h.155c.035-.008-.012-.03.025-.028v.028l.079.023v-.051h.05c0-.1.009-.127.052-.179h.025v-.051l.052-.053h.051v-.025c.025-.018.053-.036.078-.053v-.051h.025c-.007-.016-.017-.035-.025-.053h.051c.008-.023.017-.05.025-.076h.028v-.025c.059-.051.047.027.078-.078h.051c-.009-.026-.019-.051-.027-.077a.829.829,0,0,1,.233-.1v-.076h.076v-.051c.044-.01.088-.018.131-.025v-.051l.231-.053v-.027l.078-.026.025.053c.078-.01.156-.017.233-.027a.508.508,0,0,1,.025.053h.181c.018.042.035.085.052.128.043.01.086.018.129.026v.025h.078c.015.026.033.051.051.078h.077v.026h.025c.01.035.018.068.026.1.051.016.024,0,.051.026.064.041.018.025.053.078l.051.025v.076l.052.028.025.179h.026c-.007.112-.017.225-.026.336H53.9v.1l-.052.025c-.01.033-.016.069-.026.1h-.025l-.025.076c-.018.01-.036.017-.052.027-.008.033-.019.069-.027.1l-.051.025a1,1,0,0,0-.206.258H53.38c-.017.051,0,.021-.028.051-.06.092-.12.051-.206.1-.008.018-.016.035-.026.053h-.051v.025h-.05v.026h-.1v.025h-.1v.026h-.05v.025l-.311.027v-.027a2.027,2.027,0,0,0-.672-.051c-.085.026-.171.051-.255.078-.01.016-.018.035-.028.051-.035.008-.068.018-.1.026a.415.415,0,0,0-.026.052h-.053c-.026.033-.051.069-.077.1h-.052v.025q-.039.024-.078.051v.051c-.033.027-.068.052-.1.078-.016.078-.033.154-.051.232a.5.5,0,0,1-.052.026c.008.017.017.035.027.052a.066.066,0,0,0-.027.076s.036,0,.027.051c0,0-.039.012-.027.053.017.01.036.016.052.027,0,.028-.052.071-.025.127l.076.053v.1h.027c.016.025.033.05.051.076h.051l.1.154h.077c.017.063.028.057.053.1a.405.405,0,0,0,.155-.026c.019.076.013.006,0,.078.126.024.1.028.2-.025a.237.237,0,0,1,.026.1l.129-.026.025.051a.5.5,0,0,0,.053-.025v.025h.053v.027c.092.033.219-.031.283.026a.763.763,0,0,0,.258-.026c-.006-.119-.037-.109-.077-.181a4.163,4.163,0,0,1-.542-.051h-.129a.456.456,0,0,0-.028-.053H51.65v-.025H51.6c-.051-.041-.1-.086-.154-.129V658.5c-.035-.025-.068-.053-.1-.078v-.078h-.027v-.18h-.026c-.025-.1.066-.154,0-.232v-.079h.026a.71.71,0,0,1,.1-.126V657.7h.051c.025-.088.086-.084.128-.154h.052c.026-.088.087-.084.128-.154l.311-.026v.026l.131-.026a.4.4,0,0,0,.025.051h.205v.025h.027v.155H52.5l.026.1a.518.518,0,0,1,.052.028v.05H52.6c.023.036.02.045.025.1h.053c.015.115.065.113.078.23.05.018.021,0,.05.026h.026c-.009.027-.017.054-.026.08a.811.811,0,0,1,.1.025c-.008.026-.016.051-.025.076h.078c.022.176.167.205.205.362h.053a.2.2,0,0,0,.18.156c.029.105.1.1.155.18h.077v.05c.112.024.153.075.283.079m-.645-5.752H53.25v.078c-.06.05-.12.1-.181.154-.008.043-.015.084-.025.129h-.025v.076h-.028v.182h-.024c.009.025.016.051.024.078,0,0-.035.006-.024.051h.024c.008.06.018.121.028.179h.025c.01.061.017.121.025.18H53.1v.105h.025v.1h.026v.025H53.12v.028h.026v.076H53.12v.027c-.041.016-.046-.025-.051-.027l-.542-.053v.03h-.1v.023h-.078v.027H52.27c-.009.016-.017.035-.025.051h-.053l-.051.051-.1.027v.026c-.024.007-.051.017-.077.027a.22.22,0,0,0-.025.051c-.047.029-.058,0-.1.05h-.025c-.03-.046.036-.087.025-.1a.8.8,0,0,0-.078-.027v-.053h-.026c.008-.043.046-.035.051-.051a.788.788,0,0,0-.025-.078H51.7c-.009-.076-.017-.154-.026-.231H51.65v-.052h-.025l-.027-.207-.051-.026v-.076h-.024c.007-.053.015-.1.024-.154a.692.692,0,0,0-.077-.027c-.01-.026-.018-.051-.026-.077h.026c.01-.035.015-.07.025-.1l-.076-.028c.008-.058.016-.119.025-.179l-.05-.026c.007-.033.015-.068.025-.1-.025-.018-.053-.035-.077-.051a.432.432,0,0,1,.026-.053h-.026c-.008-.017-.019-.033-.027-.05h.027c.017-.225-.138-.2-.027-.413-.026-.009-.051-.019-.077-.027v-.1h.051v-.178h.026a.207.207,0,0,1,.027-.131h.026c.043-.064-.027-.051.076-.078v-.051c.106-.029.03-.012.079-.076.013-.022.031-.016.05-.053h.052v-.053c.044-.007.086-.015.128-.025.017-.051,0-.021.025-.051a.859.859,0,0,1,.568-.1v.025H52.5v.027h.078v.024c.035.01.069.019.1.027v.026h.078v.025c.043.01.086.018.128.025l.025.053c.053.018.1.033.155.053v.023c.053.043.077.084.156.1a.752.752,0,0,0,.1.209v.051h.025c.01.093.018.187.028.283h-.028v.232h-.025l-.052.155m.259,5.107v-.053c-.1-.027-.1-.115-.154-.179-.028-.016-.053-.036-.078-.051v-.053l-.052-.027v-.026c-.025-.015-.053-.033-.078-.051-.008-.033-.017-.068-.026-.1-.016-.008-.034-.018-.051-.025v-.1a.9.9,0,0,1-.076-.051v-.05c-.043-.073-.094-.092-.1-.207h-.051v-.1h.026v-.025c.025.007.051.017.078.025.009-.018.016-.033.024-.051h.129c-.014-.052.005-.023-.025-.052.078-.063.127.048.232,0,.018-.026.035-.053.053-.077h.076c.008-.017.018-.035.025-.052h.079l.025-.051h.1c.008-.026.019-.051.027-.078h.024a.362.362,0,0,0,.1-.18h.077v-.027H54v.027h.025v.076h.051c.028.1.075.088.156.131v.025h.1v.026h-.025c.019.027.029.025.052.051l.334-.026v-.025l.1-.026.024-.052.336-.077v.026h.077v.025c.034.006-.01-.021.025-.025l.131.025v.026a.3.3,0,0,0,.128.078.145.145,0,0,0,.128.127c.025.1.048.056.052.181.026.008.053.018.078.028.008.033.018.066.026.1h.027c.018.059-.029.069-.027.1h.027c-.012.154-.02.31-.027.463h-.026v.054h-.025v.077h-.027v.05H55.7v.078h-.025v.051c-.018.008-.034.018-.053.028v.076c-.024.017-.051.033-.076.051v.027h-.053l-.1.129h-.078c-.009.015-.017.033-.027.051l-.257.052v.024h-.078v.027h-.078v.026h-.1v.025h-.155v-.025h-.025c-.039,0-.043.04-.106.025v-.025c-.085.009-.172.019-.257.025-.191-.033-.275-.166-.463-.205v-.053l-.052-.025v-.026h-.053c-.056-.043-.048-.107-.128-.154" fill="#0070c3"/>
    <path id="Path_1910" data-name="Path 1910" d="M66.774,658.991l-.8-.3-.485.053-.608.611-.376.715.179.537.644.522.789.033.824-.25.465-.34.09-.484.018-.75.16-.807-.482-.9-.77-.394-.627-.2-.6.035.222,1.217.233.287" fill="#fff" fill-rule="evenodd"/>
    <path id="Path_1911" data-name="Path 1911" d="M65.193,657.075l.037.119.076.01v.076l.035.3.085.246.017.223-.274-.078-.308-.656-.2-.412" fill="#0070c3"/>
    <path id="Path_1912" data-name="Path 1912" d="M61.181,657.743l.781-.115,1.736.1,1.559.174.155.178v.525l-.585.584-.193.859.215.662.545.43-.088.846-.42.168-3.295.1-1.548-.086-.615-.344-.158-.857.206-1.094,1.043-1.441" fill="#ffec00" fill-rule="evenodd"/>
    <path id="Path_1913" data-name="Path 1913" d="M62.907,657.907v-.025h-.052c.029.029,0,.012.052.025" fill="#0070c3"/>
    <path id="Path_1914" data-name="Path 1914" d="M62.546,659.61c.111.034.166-.05.23,0h.157v-.025h.025c-.025-.035-.051-.068-.078-.106.035-.015.07-.033.1-.05v-.1h.051c-.008-.033-.015-.068-.025-.1h.025l.027-.076h-.027v-.077c-.009-.023-.031,0-.051-.078l-.232-.027v-.051c-.111,0-.35-.031-.412.026h-.025c.007.052.017.1.025.156l-.052.025c-.044.072-.035.123-.1.18a.479.479,0,0,0,.363.31m.025-.388h.053a.521.521,0,0,1,.025-.076.23.23,0,0,1,.1.025c-.024.094-.045.055-.051.182h-.026v.025h-.206c.03-.064.071-.1.1-.156" fill="#0070c3"/>
    <path id="Path_1915" data-name="Path 1915" d="M67.859,658.757h-.027v-.1h-.024V658.6H67.78c-.01-.047.055-.1.028-.182H67.78c-.013-.059-.033-.119-.05-.178l-.1-.051.026-.08h-.026v-.051h-.078c-.017-.05-.033-.1-.052-.154-.043-.008-.084-.015-.127-.025v-.1h-.027a.744.744,0,0,0-.362-.257v-.079H66.9a.753.753,0,0,1-.025-.076h-.026c-.009-.017-.019-.035-.026-.052-.078-.047-.07.046-.1-.077-.123-.015-.168-.082-.259-.1-.042.01-.086.017-.128.025v-.076c-.085.014-.1.043-.155-.027-.173,0-.122.011-.155-.077a5.107,5.107,0,0,0-.847.045.553.553,0,0,0,.076.245c.044,0,.263-.084.306-.084.009.017.016.035.027.052h.179v-.025a.422.422,0,0,1,.285.051h.1v.025h.053v.026c.052.007.105.017.155.025a.732.732,0,0,0,.259.1v.053c.091.026.113.082.206.1v.05l.153.129v.026h.052v.078c.1.027.075.062.129.129.027.008.052.015.077.025.04.031.016.063.078.1.008.058.018.119.026.179h.078a.409.409,0,0,0,0,.233h.025c.018.062-.019.066-.025.078v.025h.025v.078h.027v.051l.051.026-.027.027v.076h-.024v.18c-.019.011-.035.017-.052.027-.023.053.035.082.025.1h-.025c-.021.068-.006.058-.078.076.008.058,0,.068.027.1h.025c.007.053.018.1.026.155h.025v.025h-.025v.207H67.37v.053h.051v.051h-.078a.28.28,0,0,0,.027.128h-.053c-.007.034-.017.069-.025.1h.051a.235.235,0,0,1-.051.051v.129c-.025.017-.053.035-.078.05v.053a.678.678,0,0,0-.1.182c-.051.013-.021,0-.051.025h-.078c.01.018.018.035.026.051-.026.033-.094.029-.127.053s-.035.051-.052.076h-.053v.025h-.05v.026c-.035.025-.046.021-.1.027-.038.123-.025.025-.1.076-.028.035-.053.069-.079.1-.051-.008-.1-.016-.155-.026v.026h-.077v.023h-.18v.029H66v-.029c-.042.012-.085.02-.128.029-.01-.017-.018-.035-.026-.052h-.131v-.026h-.051V661l-.051.025V661l-.334-.053V660.9c-.1-.011-.107-.043-.207-.052-.008-.026-.017-.051-.025-.076H65a.684.684,0,0,1-.053-.079h-.025c-.01-.033-.018-.068-.027-.1a.486.486,0,0,0-.051-.026c-.009-.027-.018-.052-.026-.078H64.79c0-.035.046-.045.025-.1H64.79v-.053h-.026v-.1h-.025c.008-.12.016-.241.025-.362h.026v-.051h.025c.027-.07-.007-.126.026-.179.025-.018.051-.035.078-.053v-.076c.017-.008.033-.018.051-.028.007-.031.017-.066.027-.1a.478.478,0,0,1,.051-.025.659.659,0,0,0,.179-.233.207.207,0,0,0,.1-.051v-.027c.025-.008.053-.018.076-.023s.018-.036.028-.053h.051l.051-.053h.053v-.027h.052c.008-.016.015-.033.023-.049h.1v-.027a1.73,1.73,0,0,1,.544.076v.027h.1v.026h.052v.027c.086.045.126.021.156.127h.051l.025.08c.052.013.024-.006.052.023a.218.218,0,0,0,.155-.05v-.127a.334.334,0,0,0-.051.023c.006-.033.016-.068.026-.1a.313.313,0,0,1-.155-.079c-.01-.015-.018-.033-.027-.05h-.076v-.026h-.053v-.027l-.129-.024v-.027l-.155-.023v-.053c-.052-.01-.1-.016-.155-.027v-.024c-.028-.006-.069.049-.129.024-.007-.016-.017-.036-.025-.051h-.413c.009-.035.016-.069.027-.1,0-.006-.036-.008-.027-.051.027-.1.094-.158-.026-.232v-.025h.077a.275.275,0,0,1-.024-.1.2.2,0,0,1-.1-.051v-.025a1.133,1.133,0,0,0-.413-.1v-.078l-.49-.052V657.7c-.051.01-.1.018-.154.026V657.7h-.053v-.025c-.051.01-.1.017-.154.025v-.025h-.155v-.026H63.86v-.027h-.437V657.6c-.379-.008-.758-.018-1.135-.028a.289.289,0,0,1-.025-.05c-.041-.006-.033.046-.053.05-.1.028-.078-.072-.182-.05v.025c-.067-.008-.136-.018-.2-.025v.025c-.058-.008-.12-.018-.18-.025v.025h-.179v.025h-.313a.406.406,0,0,1-.023.051H61.05v.027c-.056.041-.076.082-.156.1v.076c-.1.016-.11.059-.205.078-.018.145-.059.082-.1.154v.079l-.2.154c-.053.055-.064.115-.131.154l.027.078-.128.026c.007.025.015.051.023.078l-.076.025a.252.252,0,0,0,.025.1c-.025.01-.052.017-.077.027-.011.158-.086.143-.1.285h-.05a2.649,2.649,0,0,1-.1.309h-.052v.1h-.051c-.015.135-.078.155-.1.26h-.052a.236.236,0,0,1-.026.127h-.025c-.01.07-.016.139-.026.207l-.076.026c-.01.045-.018.086-.027.129a.888.888,0,0,1-.078.052c-.009.035-.016.069-.026.1l-.129.076c-.021.045.028.078.028.078-.01.053-.02.1-.028.154h-.076c.008.061.018.122.026.182,0,0-.034,0-.026.051a.046.046,0,0,1,.026.053c0,.007-.036.007-.026.05h.026v.026c-.008.023-.018.052-.026.078h.026v.1h.025a.166.166,0,0,1,0,.159.753.753,0,0,1,.078.023c-.019.061-.009.047-.053.078.014.1.039.1.078.18h.026v.1c.042.073.105-.017.129.155a.35.35,0,0,1,.154.078v.025h.052a.41.41,0,0,0,.026.051l.18.025c.006,0,.006.041.052.028.008-.018.02-.035.026-.053h.053c.014.053,0,.023.024.053v.025h.129c.017.027.035.053.052.078h.1v.024l.207-.024v.02h.172l.352.056h.017v.026h0c.017,0,.1.015.077-.026H61v-.025h.053v.051c.086-.008.172-.016.258-.026v.053h.128v.026h.028c.006-.026.016-.053.023-.079h.028v.053h.076l.026-.053c.072-.015.051.061.153.053H61.8v-.027h.31s0-.033.053-.026v.026h.2v.027s.1,0,.052-.027h-.025v-.026c.182.067.351-.054.542,0a1.009,1.009,0,0,0,.206.053v-.053h.051v.026a.045.045,0,0,0,.051-.026c.051.01.1.018.154.026v.027h.26a.525.525,0,0,1-.027-.053h.206v.026c.087-.008.173-.016.26-.026H64.3v-.025c.1.01.19.016.284.025v-.025c.055-.008.1.049.181.025v-.025h.128v-.027c.052.011.105.019.156.027v-.027H65.1v-.024h.076c.063-.039,0-.094.131-.131v-.127l.078-.027c.015-.043.008-.078.023-.127h.028V661.7l.051-.027c.023-.053-.021-.072-.026-.1h.026a1.158,1.158,0,0,1,.026-.336c.1.01.2.02.308.028v.025h.053v.028h.257l.361-.028c.01-.017.018-.033.028-.053h.129v-.023h.077v-.027H66.8c.009-.018.018-.036.027-.051.077-.026.153-.055.231-.078l.051-.1c.035-.008.071-.015.1-.025a.7.7,0,0,0,.025-.078h.028v-.026h.05c.008-.025.018-.05.026-.076h.052l.1-.154h.052c.008-.035.018-.07.027-.1l.051-.027v-.1h.026v-.05h.027c.009-.026.014-.051.024-.078H67.68a.507.507,0,0,1-.027-.051H67.7c-.01-.051-.015-.1-.024-.155l.05-.025c0-.037-.024-.043-.026-.1h.051c-.008-.172-.018-.344-.025-.516l.05-.025v-.079h.028V659.2h.024c.019-.074-.03-.088-.052-.127.028-.011.052-.019.079-.027-.009-.033-.017-.068-.027-.1h.027Zm-2.708,2.685h-.027v.155H65.1v.05h-.026v.129h-.025v.053c-.028.016-.051.033-.078.051v.051h-.026c-.025.031-.019.048-.052.078-.084.084-.483.076-.67.076h-.18a2.631,2.631,0,0,1-.775.025c-.058,0-.1-.045-.181-.025v.025c-.061.016-.067-.025-.1-.025v.025h-.1a.068.068,0,0,0-.076-.025v.025c-.028.01-.052.02-.078.028a.442.442,0,0,0-.027-.053c-.085.01-.171.018-.258.025v-.025h-.077v-.025l-.05.025H61.77v.053c-.1,0-.263.043-.306,0h-.028v-.028h.051v-.025c-.093.01-.189.018-.283.025-.008.02-.018.036-.025.053h-.028v-.078a.229.229,0,0,0-.1.025v.028c-.121-.008-.242-.018-.361-.028v-.025l-.413-.025v-.026h-.05v-.025c-.02.008-.036.017-.055.025v-.025h-.1v-.026h-.076v-.027h-.155v-.025h-.051l-.027-.051-.128-.027v-.024l-.052-.027v-.051c-.026-.008-.052-.018-.078-.025-.008-.045-.016-.086-.025-.129H59.45v-.155h-.027l-.024-.336a.421.421,0,0,1-.025-.232l.049-.027v-.076h.027c.01-.051.016-.1.026-.155H59.5c.008-.033.018-.068.026-.1h.026v-.053l.078-.051c.008-.043.017-.086.025-.129.035-.025.068-.052.1-.076.01-.043.017-.088.027-.131l.051-.025v-.076h.025v-.106a.805.805,0,0,0,.078-.051c.017-.05.034-.1.052-.154h.051c.009-.033.017-.068.025-.1.019-.008.034-.018.052-.026v-.1a.4.4,0,0,0,.051-.026v-.078H60.2v-.051h.028v-.05l.05-.028c.01-.041.016-.086.025-.127a.357.357,0,0,1,.051-.027v-.051l.053-.025v-.08h.025c.009-.033.018-.069.026-.1h.051c.008-.051.018-.1.027-.154.081-.022.1-.033.1-.131h.078c.049-.172.242-.2.283-.387.07-.017.058-.033.131-.051v-.05h.023c.055-.065.062-.014.079-.129a2.714,2.714,0,0,0,.438-.078H62v-.026c.129.01.26.018.388.026v.025c.048.01.05-.025.05-.025h.1v.025c.064.016.112-.027.131-.025v.025l.258.027v-.027h.179v.027h.053v.026h.18c.007-.018.017-.035.025-.053.045-.012.047.025.053.027h.129v.026h.23v.025h.285v.026H64.2v.027h.336v.025h.181v.026a.075.075,0,0,0,.077-.026c.086.008.17.016.258.026l.025.05a1.158,1.158,0,0,0,.207.051v.131c-.009.035-.031-.01-.027.026h.027v.152c0,.008-.034.01-.027.055h.027v.207c-.123.027-.154.1-.26.127-.017.066-.012.043-.05.076v.027h-.051l-.129.156h-.026v.051h-.13c-.014-.051,0-.023-.026-.051v-.027H64.48c-.008-.018-.018-.033-.026-.051-.056-.019-.072.022-.1.028-.052-.01-.1-.02-.155-.028v.028h-.051v.023h-.051v.027c-.074.067-.024.08-.156.1v-.053c-.043-.01-.086-.016-.13-.027.009-.024.017-.051.026-.074h-.026v-.028H63.6v.028c-.042-.01-.085-.02-.128-.028-.008.018-.018.033-.026.051-.053-.008-.1-.018-.156-.023v.023c-.135.037-.055.117-.1.232h-.025v.051h-.026v.053l-.053.025v.026h.026v.1h.027c.03.1.051.051.1.129.132.008.516.047.593-.025h.026v-.078a.334.334,0,0,1,.13.025v.053h.1v.05a2.526,2.526,0,0,1,.36.053A.946.946,0,0,0,64.4,660c-.067.014-.22.059-.283,0-.111,0-.174,0-.206.076.009.026.018.053.026.078-.008.018-.037,0-.051.077h-.053a1,1,0,0,0-.026-.231h-.153c-.017-.053,0-.023-.027-.053v-.025c-.051-.008-.1-.018-.154-.025v.025h-.026v-.025a.42.42,0,0,0-.309.05c-.025.01-.053.02-.078.028.017.058.008.047.051.076v.051l-.051.027c-.017.041.025.049.025.051-.008.027-.017.051-.025.078-.035.01-.07.016-.1.025v-.025h-.025c.007-.078,0-.07.05-.1-.025-.1-.107-.15-.154-.232h-.154s0-.022-.051-.025v.025H62.6c-.006-.018-.016-.035-.024-.053-.015.01-.033.018-.051.028a.48.48,0,0,0-.027-.051.1.1,0,0,0-.129.051h-.025v-.028l-.233.028v.05h.053c-.01.053-.019.1-.027.155h-.051c-.01.045-.016.086-.026.129h-.027c0,.14-.008.207.1.232v.053l.388.129c.136,0,.225.037.256-.077h.08c.024-.078.051-.156.077-.234h.05c-.015.053,0,.023-.025.053.008.051.018.1.025.154h.026v.027h.077v.077l.337.1c.129,0,.2.031.232-.078.052-.016.022,0,.052-.025s.01-.133,0-.233c.069-.017.058-.035.127-.053-.009.053-.017.1-.026.157h.026v.1a.169.169,0,0,1,.131.076h.206l-.026.053H64.3v.026c.052-.01.1-.018.155-.026v-.078h.026v-.025h.078c.023.087.054.066.076.154.127.019.079.037.156.1v.026h.051l.025.053h.078c.008.017.016.033.026.05a.534.534,0,0,0,.205.078,1.909,1.909,0,0,0,.027.309c-.051.018-.021,0-.051.027m-.7-2.2v.156h-.025c-.009.026-.018.053-.028.076h-.154c-.008-.023-.017-.05-.025-.076a.3.3,0,0,0,.129-.156Zm-1.006.106V659.3h.076v-.026h.028l-.028-.05h.028V659.2c.042.01.084.02.129.028-.01.05-.018.1-.026.154h-.027l-.026.051h-.05v.027h-.129c.016-.035.033-.07.051-.1Zm.774.978v-.076H64.3c-.021.07-.005.059-.077.076m.025.156h-.078v-.078h.078Zm-.955-.027v-.025h-.025v-.079h.025c.022-.068.01-.056.078-.076a.238.238,0,0,1,.053-.129H63.5a.558.558,0,0,1-.052.284c-.019.07-.006.058-.078.078v-.053Zm-.876-.334a.148.148,0,0,0,.1-.053c.084.01.075.024.128.053-.01.053-.024.051-.024.051v.129H62.6a.283.283,0,0,0-.051.1c-.094,0-.117.006-.153-.053h-.027c.017-.041.034-.085.052-.128h.025c-.008-.034-.016-.067-.025-.1" fill="#0070c3"/>
    <path id="Path_1916" data-name="Path 1916" d="M61.745,661.493c-.045-.066.028-.051-.078-.078v-.078c-.05.01-.1.019-.154.027a.042.042,0,0,0-.051-.027v.027h-.026c-.027-.008-.05-.017-.078-.027v.027l-.181.026c-.006-.018-.016-.034-.024-.053h-.206a2.86,2.86,0,0,0-.621,0v.053c-.077-.018-.153-.034-.23-.053-.019-.026-.035-.051-.053-.076a1.078,1.078,0,0,0-.155-.1V661.1c-.051-.007-.1-.015-.155-.025v-.023h-.05v.023c.031.02.025-.01.025.025h-.077c-.032.018.007.014-.026.028.039.066.084.088.1.179.084.028.051.03.1.079v.025c.053.037.146,0,.206.027.009.016.016.034.026.051H60.1c.008.018.016.033.024.053H60.2v.023h.336v-.023c.068-.014.207.064.31.023.008-.015.016-.033.025-.05.01,0,.205.05.205.05.036,0,.043-.041.1-.023v.023h.105v.028h.412s0-.1.026-.051v.023H61.8c-.01-.023-.018-.05-.028-.076Zm-.978-.051c.05.014.021-.006.05.026-.05-.016-.021,0-.05-.026m.953.077h-.077v-.026h.024v-.025h-.024v-.026c.024.008.051.016.077.026Z" fill="#0070c3"/>
    <path id="Path_1917" data-name="Path 1917" d="M62.468,658.706h.052v.025a.973.973,0,0,0,.514.1v-.025a.263.263,0,0,1,.1-.026v-.053c.092-.007.11-.017.129-.1h.1c.02.076.043.062.053.154a.277.277,0,0,1,.129.026v.025h.129v.027l.257.024c.008-.024.018-.051.027-.076h.076v-.026h.026a.192.192,0,0,1-.026-.1c.034-.008.069-.016.1-.026.018.071.006.059.077.076.015.053,0,.024.025.053a1.681,1.681,0,0,0,.414.129c.063-.072.122-.035.154-.156.051-.014.022,0,.051-.026h.028l.023-.152c0-.018-.061-.014-.051-.053l.051-.025-.023-.156h-.028c-.037-.121-.017-.03-.1-.076-.009-.016-.017-.036-.025-.051-.055-.026-.074.021-.1.023-.008-.015-.016-.033-.026-.051a.943.943,0,0,0-.412.051v.028a.287.287,0,0,1-.129.076c.008-.024.016-.051.026-.076-.074-.041-.278-.157-.362-.028h-.024c.026-.052.017-.021,0-.076-.075.018-.087.027-.1.1a.8.8,0,0,0-.179-.028v.08H63.4v.024l-.076-.024c-.015-.121-.082-.125-.129-.209-.095-.008-.189-.015-.283-.025v-.026c-.035.01-.07.018-.1.026h-.1l-.052.078h-.1v.025c-.121.038-.028.022-.076.1-.018.01-.035.016-.052.027-.03.047,0,.055-.05.1v.18h.025c.025.035.05.07.077.1m2.166-.283c-.008.053-.016.1-.026.156-.072.018-.074.045-.128.076a.65.65,0,0,1-.026-.232Zm-1.032.1h.026c.038-.123.065-.039.131-.129h.076v.026h.025v.025h-.025a.382.382,0,0,1-.027.155.881.881,0,0,1-.206.027Zm-.954-.078.128-.025v-.1c.1-.011.207-.017.311-.027v.129h-.053c-.023.094-.086.107-.127.18-.115,0-.208.009-.259-.051h-.024a.209.209,0,0,0,.024-.1" fill="#0070c3"/>
    <path id="Path_1918" data-name="Path 1918" d="M62.958,661.751v-.025h-.051c.028.029,0,.009.051.025" fill="#0070c3"/>
    <path id="Path_1919" data-name="Path 1919" d="M64.972,661.311v-.025c-.116,0-.158-.015-.182.078h-.052c-.014.051,0,.022-.025.051v.025a.5.5,0,0,1-.053-.025v.025h-.1a.4.4,0,0,1,.025-.154h.051v-.051h-.051c.012-.056.016-.074.051-.1-.01-.1-.032-.1-.1-.129v-.051c-.074-.017-.067-.047-.078-.053-.117-.048-.244.034-.336-.052-.173-.006-.324-.043-.361.105-.033.008-.068.016-.1.026V660.9l-.181-.1h-.1c.01.018.018.035.028.051h-.053c-.008-.016-.016-.033-.026-.051-.058-.024-.1.031-.129.025a.4.4,0,0,0-.026-.05c-.067.007-.138.015-.206.025v.051h-.051c-.009.035-.017.07-.027.105h.027v.026L62.88,661c-.018.01-.033.016-.051.025-.023-.078-.009-.05,0-.154-.124-.006-.115-.037-.2-.078v-.025c-.059-.02-.07.021-.1.025-.1-.01-.205-.018-.309-.025v-.028a.735.735,0,0,1-.078.028v-.028c-.209.026-.037.092-.1.209-.023.008-.051.016-.076.026a.232.232,0,0,0-.025.179h.025c.009.215.225.279.412.311.017.06.007.047.052.078v.023h-.128a.207.207,0,0,1-.051.053c.073.1.084,0,.179.051.017.027.036.053.052.078h.051v-.025c.054-.045.019-.053.1-.079.028.03,0,.012.05.026v.053h.206V661.7c.062-.019.068.026.1.026.026-.022.02-.053.053-.079v.053l.594.026V661.7c.077-.031.074-.011.154,0q.012-.041.024-.078c.1.031.044.027.1.078v.026h.13V661.7c.054-.008.051.026.051.026.1.007.206.017.308.025v-.025a.925.925,0,0,0,.285-.026v-.027h.027v-.026h-.1v-.05c.075.006.094.009.13.05.087-.009.083,0,.1-.078l.232-.129c-.008-.043-.017-.084-.026-.129Zm-2.531-.05c-.1-.012-.105-.041-.2-.051v-.078h.051a.335.335,0,0,1,.026-.129c.067.01.138.016.205.025a1.155,1.155,0,0,1-.078.233m.233.258c0-.125.012-.18.077-.233v-.025c.076.017.064.041.156.05-.021.034-.017.034-.052.053.043.055.052.014.078.1-.086.015-.173.033-.259.051m.671-.284a1.032,1.032,0,0,0-.181.026v-.026H63.14c.008-.025.015-.052.024-.078H63.14c-.01-.025-.02-.051-.028-.078.052-.014.024,0,.052-.023h.026v-.078c.06.007.121.015.18.025v.025H63.4c-.018.069-.036.137-.053.207m.515.18c-.086.01-.171.018-.258.025.006-.056,0-.068.028-.1h.025v-.026c.02-.031,0,0,.026-.025v-.025c.076.029.1.078.179.1Zm.336-.129h-.078v-.025c-.043.008-.084.015-.128.025v-.076h.026c.008-.035.018-.07.026-.1h-.026v-.027h.1v.027a.456.456,0,0,1,.181.026c-.023.082-.066.092-.1.154m.155.336c.05.016.023,0,.05.025-.05-.015-.021,0-.05-.025" fill="#0070c3"/>
  </g>
</svg>
