<svg id="Group_201" data-name="Group 201" xmlns="http://www.w3.org/2000/svg" width="45.667" height="39.262" viewBox="0 0 45.667 39.262">
  <path id="Path_1891" data-name="Path 1891" d="M329.13,688.756h-.054v-.06h-.349v.06h-.016v-.027l-.105-.029a.592.592,0,0,0-.089-.009.277.277,0,0,0-.121.025v0l-.04-.078h-.186v-.116h-.318a1.271,1.271,0,0,0-.353-.241c-.054-.027-.1-.051-.148-.078l-.011-.027-.031-.06-.029-.058.069-.138h-.32l-.02-.045-.029-.051-.067-.027-.132-.029v-.179l-.11-.027a.474.474,0,0,1-.317-.32l-.029-.11h-.089v-.051l-.063-.045-.089-.06h0l.027-.078.051-.141-.157-.042-.069-.018c0-.009-.009-.029-.029-.051l-.027-.036v-.143l-.081-.04-.042-.022v-.183l-.081-.038-.04-.018v-.237h-.058V685.8h-.02l.1-.049-.123-.143a.24.24,0,0,1-.025-.141l.022-.025.242-.246h-.259v-.157l.018-.022.136-.134-.174-.092-.063-.031a.237.237,0,0,1,.049-.123.57.57,0,0,0,.06-.123h.114l.031-.1.029-.089.011-.036h.009l.06-.031.081-.038v-.132a.463.463,0,0,0,.1-.06l.821-.054.045.078.143-.029.04-.009.063.013.177.047.029.06.045.081h.141l.043.029.06.049a.693.693,0,0,0,.212.13c.027.092.06.163.152.172v.1h.19l.022.036.235.329.067.087.143-.058a.5.5,0,0,1,.159-.029l.1-.013.027-.1a1.387,1.387,0,0,1,.13-.27l.136-.045.15-.047-.056-.127.029-.009.094-.034v-.081h.06v-.188l.089-.056.025-.018.045-.047a.3.3,0,0,0,.045-.17h.081l.049-.058a.129.129,0,0,0,.047-.013l.1-.025,0-.105a.607.607,0,0,1,.13-.434l.094-.042.078-.045v-.179l.04-.018.08-.042v-.083l.029-.036a.975.975,0,0,0,.177-.306h.132l.022-.116a1.452,1.452,0,0,1,.248-.534,1.49,1.49,0,0,0,.3-.749l.009-.1-.089-.04-.881-.389v-.17h-.255a.978.978,0,0,0-.139-.127.306.306,0,0,1-.141-.217.112.112,0,0,0,.025-.058.2.2,0,0,0,.157-.116l.04.011.19.072v-.42h.06v-.239l.04-.018.067-.031.009-.069.047-.233.058-.029.083-.04v-.121l.038-.018.083-.04v-.06l.161-.083.08-.04v-.188h0l.174.087v-.5l.038-.072h.112l-.1-.2.072-.033v-.3l.038-.022.067-.029.013-.072.038-.188h.085V676.8h.065v-.121h.056v-.172l0,0,.078-.036.042-.114v-.031l.04-.02.081-.036v-.188h.058v-.239h.06v-.183h.063v-.242h.058v-.306h.063v-.121h.027l.029-.105.034-.132h.092v-.121h.06v-.242h0l.04-.083a1.852,1.852,0,0,0,.2-.651l.013-.156h-.257l-.02-.027a.346.346,0,0,1-.025-.051h.047V673h.058v-.118h.063v-.235l.04-.022.081-.038v-.127h.058v-.123h.058v-.179h.063v-.541h.06v-.244h.06v-.36h.087l-.027-.17-.034-.179v-.013h.034v-.183H333v-.481h.058v-.121h.047l.013-.127.029-.306.016-.17h.054l.018-.121a.245.245,0,0,0-.058-.228v-.132h.045l.013-.13.042-.443.011-.094h.069v-.237h.06v-.349H333.4a.63.63,0,0,0,.009-.32l-.016-.06h.018v-.358h.118l-.065-.192-.029-.087-.031-.092.007-.617v-.143h-.06v-.425h-.074l-.007-.056-.022-.2h.045v-.244h.02l.031-.1.089-.266h.089l.009-.132.051-.711h.049l.018-.118.022-.123.022-.121h.078v-.118h.036l.02-.114.031-.152.016-.083.065-.031.074-.04v-.244h.06v-.123h.018l.038-.1.025-.083.034-.1.051-.156-.161-.031-.358-.065-.235-.045-.031-.056-.038-.078H333.3v-.06h-.123v-.063H333l-.02-.038-.04-.081h-.183l-.02-.042-.04-.074h-.132l-.2-.3-.031-.045-.047-.011-.5-.154v-.1H331.6l-.076-.114-.042-.065h-.121v-.06h-.114v-.022l-.1-.031-.083-.025v-.132l-.105-.027a.214.214,0,0,1-.127-.065.514.514,0,0,0-.127-.078v-.188l-.168.027-.049.009-.311.047-.118.022v.027l-.633-.049-.085.013-.145.027v-.04h-.42v-.06H328.6a.228.228,0,0,0-.157.06h-.031v-.031l-.114-.02a.309.309,0,0,0-.089-.013.283.283,0,0,0-.063,0h-.6a1.013,1.013,0,0,0-.134-.054,1.707,1.707,0,0,0-.51-.121,1.23,1.23,0,0,0-.183-.224,4.757,4.757,0,0,1,.143-1.245h.1v-.116h.06v-.183h.06v-.416l.04-.022.081-.038V657.2h.058v-.241h.065v-.121h.058v-.179h.058v-.123h.063v-.232l.043-.025.1-.054-.027-.11-.016-.065h.02v-.179h.063v-.123h.056v-.235h.063v-.192l.114-.074.051-.036.011-.056.045-.237.063-.027.056-.029.013-.063.034-.134h.116l.031-.1.148-.445h.074l.025-.114.038-.188h.013l.054-.065a.731.731,0,0,0,.1-.174h.123l.031-.1.027-.083h.1v-.123h.056v-.192l.185-.136.056-.042v-.1l.04-.018.058-.027.018-.06.027-.078h.159v-.241h.074l.036-.087c.116-.275.244-.467.5-.523l.087-.018.022-.083a.942.942,0,0,1,.613-.5l.087-.013.022-.087c.022-.089.022-.089.074-.123l.06-.045.036-.029h.132l.043-.067.06-.087.025-.042.078-.014.172-.031.063-.018.034-.06.018-.038h.3v-.067h.123v-.078l.3-.045.123-.011v-.045h.362v-.06h.246l.042-.078.018-.04h.3v-.06h.177v-.063h.181v-.06h.3v-.056h1.3l.4.042v.063l.13.011.3.031.172.018v.074h.123v.06h.3v.058h.181v.06h.181v.063h.3c.087.034.17.083.253.121a2.208,2.208,0,0,0,.476.21v.123l.114.025a.811.811,0,0,1,.255.1,1.385,1.385,0,0,0,.3.123h0v.1l.1.036.081.02v.045l.072.038a.342.342,0,0,0,.161.054l.011.047.022.078.083.018a.289.289,0,0,1,.114.049.586.586,0,0,0,.107.047.745.745,0,0,0,.078.163.491.491,0,0,1,.076.179l.02.078.08.029a.283.283,0,0,1,.076.022s.009.027.038.054l.02.029v.072l.069.038.089.065.022.018v.105l.047.045.076.074v.206h.063v.121h.058v.123l.081.045.043.016v.246l.072.034-.065.123.132.065.043.018v.237h.058v.248l.08.038.042.018v.3h.1l.025.083.02.058.056.025.009,0-.02.067-.063.183h.087l-.06.121h.145v.123h.065v.677h-.154l.094.192,0,.065-.049.646h-.067v.3h-.04l-.02.125-.04.241h-.049l-.027.105-.034.121,0,.013h-.092v.174l-.042.022-.058.031-.018.06-.105.481-.058.031-.054.025-.02.058-.027.083h-.1v.244l-.027.018-.089.065-.029.018-.016.027a.44.44,0,0,0-.06.262c-.013,0-.04.018-.1.036l-.1.029v.168l-.031.029-.047.018-.1.027v.221l-.132.105-.179.154-.051.043V660l-.038.051-.06.092-.016.027H339.4l-.04.083-.063.119-.063.051a1.428,1.428,0,0,1-.447.358l-.217.063.177.2a.113.113,0,0,0,.056.045v.132l.114.02a1.555,1.555,0,0,1,.8.559l.027.105h.105l.031.027.313.262v.141l.08.038.036.022v.105l.065.042.141.11.038.027v.315h.089l.033.13.029.11h.029v.183h.058v.179h.007l-.06.183h.2a1.242,1.242,0,0,0,.112.306c.02.047.04.087.058.139l-.009.259v.083l.078.038.045.022v.174h.058v.183h.058v.179h.065v.183h.058v.241l-.092.179h.161l.011.148.031.436h-.139l.1.246a.09.09,0,0,0,.029.038l-.042-.02.025.13h-.04l.011.163.047.382H341.5l.011.159.047.385h-.013l-.029.107a.9.9,0,0,0-.025.371h-.161v.275l.054.04c.112.1.029.311-.08.555a1.128,1.128,0,0,0-.083.2l-.007.262h-.065v.123h-.317l.208.21-.007.029a.349.349,0,0,0,0,.118v.065h-.063v.242h-.06v.183h-.058v.179h-.065v.706l.076.045c.114.06.152.078.17.248l.011.132h.1l-.025.436-.02.423h-.038l-.029.109-.04.174-.011.009-.049.022-.085.04,0,.1a.529.529,0,0,0,.067.192.363.363,0,0,1,.054.13l.022.114h.125l0,.013.034.121.027.105h.029v.306h.058v.3h.058v.546h.065v.239h.058v.481h.058v.123h.065v.682h-.065v.344h.065v.179h.058v.241h.074l.016.1.034.255.016.125h.018a1.242,1.242,0,0,0-.029.563l.029.1h.025v.246h.06v.179h.06v.606h.085a2.625,2.625,0,0,1-.105.921c-.011.049-.022.087-.027.118l-.051.04-.143.107-.06.04v.027l-.132.033-.067.013-.027.058-.018.038h-.177v.063h-.123v.1h-.009l-.074.027-.11.036.013.114a.612.612,0,0,0,.076.266.318.318,0,0,1,.045.161l.016.123h.1v.074l.087.033c.179.081.246.128.279.268l.027.107h.092v.085l.1.029.485.161.038.072.04.078h.094l1.205-.065.107,0,.027-.1c.063-.271.32-.375.91-.375h.071v.06h.239l.018.04.018.038.038.022a.333.333,0,0,0,.168.051h.011l0,0a.3.3,0,0,0,0,.237l.058.143.051-.025v.029h.08l.018.136h-.036v.293l.076.038.06.031v0l-.078,0v.34h.094l-.011.074h-.136l.058.183h-.063v.3h-.067l.076.2c.054.145.038.183,0,.262a.642.642,0,0,0-.063.206h-.009v.143h0v.04h-.058v.239h-.02l-.031.1-.056.163-.038.1h-.1v.3h-.058v.25l-.119.074-.107.074.051.105-.016.009-.02.027a.492.492,0,0,0-.092.192.118.118,0,0,1-.025.056.485.485,0,0,0-.069-.009.18.18,0,0,0-.174.118l-.029.069h-.011l-.038.078-.022.04h-.11l-.042.065-.092.136-.078.02-.11.027-.06.018-.029.056-.02.045h-.244l-.038.069-.029.065-.062.013v0l-.116-.022-.051-.007-.132-.031v-.118l-.119-.027a.5.5,0,0,1-.154-.051l.018-.065.054-.145h.065l-.232-.262-.02-.022.018-.051.038-.118-.107-.056-.049-.018.038-.145.025-.1.043-.174h-.1v-.136h.058v-.344h-.031l0-.027.027-.17.025-.15-.145-.011-1.324-.172v-.042l-.107-.027-.188-.047-.034-.04-.058-.1-.036-.052-.06-.009-.349-.049-.009-.014-.038-.083-.085-.029v-.132h-.262l-.168-.192-.174-.2v-.147h-.163a.389.389,0,0,0-.286-.224l-.007-.031-.034-.121-.018-.083-.087-.018a.5.5,0,0,1-.1-.036.419.419,0,0,1-.031-.1l-.027-.1h-.087v-.058l-.067-.042a.178.178,0,0,1-.072-.072.287.287,0,0,0-.165-.152v-.1l-.065-.042a.707.707,0,0,0-.087-.15l-.027-.031-.04-.016-.112-.04-.036-.11-.036-.1h-.094a.3.3,0,0,1-.051-.13l-.02-.083-.078-.022-.246-.067-.177-.052-.181-.051v.112l-1.022.036-.588.022a4.383,4.383,0,0,0-1.442-.246h-.143v.137L334,682l-.08.118h-.13v.174l-.038.022-.056.027-.018.051-.027.087h-.136l-.02.114-.031.152-.007.036h-.127l-.018.118a.61.61,0,0,1-.429.546l-.237.047.11.132h-.034l-.016.132,0,.056-.007.056h-.11v.25l-.183.139-.058.045v.166h0l-.076.036-.04.107v.054l-.186.134-.058.045v.105l-.04.018-.078.043v.132l-.119.078-.063.042v.105l-.043.022-.02.013-.033.031a1.64,1.64,0,0,0-.347.483h-.195l-.025.114-.027.141-.018.1-.134.087-.045.034-.013.049-.031.121-.013.058-.063.031-.078.038v.123l-.045.022-.051.025-.018.058-.029.078h-.06l-.034.1-.029.087,0,.009a.443.443,0,0,0-.228.107.23.23,0,0,1-.125.067l-.078.022-.022.083a.585.585,0,0,1-.116.212,1.008,1.008,0,0,0-.114.179l-.013.027v.127l-.042.022-.081.038v.118l-.04.022-.06.029-.013.067-.031.13h-.02l-.04.054-.042.047a.845.845,0,0,0-.132.2m20.344-.494a3.633,3.633,0,0,1-.575-.152l-.069-.136-.04-.06H348.6l-.2-.248-.271-.224v-.127l-.063-.043-.136-.092,0-.018-.045-.166-.013-.054-.045-.029-.087-.067-.027-.011v-.11l-.045-.04-.078-.078V686.4h-.063v-.121h-.056v-.118h-.063v-.06l-.078-.04-.045-.027V685.8h-.06v-.119h-.056v-.127l-.078-.038-.056-.027-.049-.467-.016-.123h-.045v-.244h-.058v-.248l-.078-.036-.045-.022v-.476h-.076a4.381,4.381,0,0,1,.154-.921h.1v-.116h.148l-.1-.206.007-.013a2.127,2.127,0,0,0,.06-.233c.016-.092.02-.1.13-.183l.043-.033h.273v.065l.145,0a.253.253,0,0,0,.154-.06.44.44,0,0,1,.212.083.718.718,0,0,0,.333.143v.2h.262a3.578,3.578,0,0,1,.342.655l.02.123.1,0v.06l.074.045a.241.241,0,0,1,.127.125l.043.074h.344v-.1l.083-.027.043-.014.027-.031.212-.271.094-.033.1-.031.036-.1h.054l.042-.051.215-.27.051-.014.087-.031.1-.031v-.121l.083-.031.042-.013.022-.031.074-.083.188-.226h.123l.045-.054.136-.188h.179l.045-.06.089-.118.063-.083.174-.06.148-.045.058-.022.025-.056.02-.036h.177v-.065h.08l.029-.1.034-.092.007-.022.114-.038.054-.013.029-.054.036-.069.123-.043.1-.036v-.087a.3.3,0,0,1,.136-.056l.1-.031.042.022.065-.123.027-.06.235-.049.087-.013.022-.092a.619.619,0,0,1,.018-.065h0l.056-.042.025-.022h.141v-.137a.448.448,0,0,1,.136-.051l.11-.022v-.132l.08-.02.045-.022.029-.04.049-.078.027-.038h.114l.042-.058.123-.148.121-.154a.378.378,0,0,0,.1-.047c.15-.074.25-.148.291-.445l.009-.083-.067-.049-.423-.313V678.3l-.159-.042h-.011l-.016-.067-.013-.042-.036-.031c0-.013-.009-.027-.013-.052l-.029-.1h-.087v-.1a.227.227,0,0,0,0-.078v-.009h0a.123.123,0,0,0-.038-.078l.034-.092.058-.188h-.2l0-.013-.031-.123-.027-.105h-.027v-.3h-.063v-.123H354.1v-.42h-.063v-.257h.063v-.3l.011-.013-.027-.125.074-.04v-.293H354.1v-.253h.145l-.1-.21-.056-.11.009-.038a.24.24,0,0,0-.06-.219v-.432h-.1l-.06-.183.141-.141-.071-.034.013-.009.016-.069.154-.832,0-.016h.212l-.078-.2a.638.638,0,0,1,.072-.568l.011-.022h.136l-.031-.165-.025-.136h.027v-.116h.027l.027-.105a.271.271,0,0,0-.043-.257l.051-.054-.009-.136,0-.011.009-.11.054-.526.007,0,.112-.058v-.132h.009v-.029l.123.06v-.21h.058v-.349h0l.058-.179h-.051a.9.9,0,0,0-.029-.147h0l.069-.036.009-.083.031-.288.02-.183h.333l-.241-.244-.009-.009.036-.232a.292.292,0,0,0,.072-.289l-.022-.116h-.022l.047-.443.016-.156h-.089a3.008,3.008,0,0,1,.181-.812l0-.022.009-.051v-.159h.078l-.02-.157,0-.058-.038-.391h.043v-.237h.118l-.06-.183h0v-.344h-.063a1.281,1.281,0,0,1,.056-.235l.06-.19h-.116v-.116h-.087l-.036-.136-.018-.065-.058-.031-.043-.018v-.1l-.047-.047-.373-.315v-.143l-.076-.04-.045-.02v-.123l-.078-.04-.043-.016v-.128l-.08-.036-.038-.022v-.174h-.11l0-.029-.011-.087-.02-.123H354l-.112-.335-.036-.11-.022-.058-.054-.025-.038-.022v-.174h-.06v-.241h-.089l-.009-.025-.029-.11-.025-.1h-.054l-.04-.188-.009-.058-.054-.034-.112-.078v-.311h-.063v-.179H353.1l-.036-.132-.025-.107h-.029v-.067L353,660.2c-.02-.042-.045-.1-.069-.156a1.411,1.411,0,0,1-.188-.729h.085v-.362l.045-.018.078-.038v-.241l.04-.022.081-.038v-.067h.058v-.179l.018,0,.148-.074.105-.056-.038-.114-.022-.065.013,0,.06-.031.013-.06.031-.136h.04l.038-.074.022-.047h.322l-.1-.2,0-.013.031-.083h.105l.036-.078c.141-.279.282-.461.543-.467l.094,0,.036-.092.049-.145h.134l-.06-.183h.125v-.4h-.094l.027-.047.009-.027v-.13l.116-.08.105-.069-.054-.1.119-.06-.06-.119.072-.038v-.072l.038-.06a.344.344,0,0,0,.051-.105l.029-.009.105-.029.018-.11v-.045h.034l.027-.114a.875.875,0,0,1,.436-.55l.11-.025v-.163l.116-.074.042-.029.011-.04.031-.1.009-.018.042-.009.123-.029.11-.027v-.105a.533.533,0,0,1,.063-.06.469.469,0,0,1,.25-.165l.107-.031v-.092h.087l.04-.156v-.009l.067-.018.04-.013.036-.036.047-.013.076-.02.022-.076.013-.047.011-.013.018-.018h.087l.038-.074.2.1v-.228a.143.143,0,0,0,.036-.065.266.266,0,0,0,.127-.092h.262l.038-.078.022-.04h.123l.04-.083.031-.069.306-.1.045-.018.029-.042.094-.141,1.04-.344,1.075-.045v.054h.347v-.009l.06,0,.315-.045.02.031.034.065.076.009.414.054v.074h.121v.056h.3v.036l.116.027.3.056.19.036v.147l.143,0a.617.617,0,0,1,.431.127l.045.092.038.078h.188v.11l.132.009a.66.66,0,0,1,.344.143.174.174,0,0,0,.013.138l.043.072.071.009v.069l.078.04a1.018,1.018,0,0,0,.1.1l.072.058h0l.087.025.116.04.009.04.029.074.016.056.051.027.042.018v.174h.188l.013.06a.54.54,0,0,0,.069.179l.013.022.02.018.092.06.045.031.045.183.022.078.076.027.025,0-.139.279.315-.1v0h.06v.125l.081.04.042.018v.179h.056v.065l.083.04.058.027.045.23.02.118h.038v.121h.063a.86.86,0,0,1-.043.132l-.072.188.112.022v.087l.081.038.04.022v.233h.06v.2l.094.034a2.1,2.1,0,0,0,.212.049.984.984,0,0,1,.239.056l.085.118.125.152.045.054h.116l.125.156.076.092.034.038.051.009.145.031.036.009v.014l.058.042a.984.984,0,0,0,.306.174v.123l.109.031c.1.027.1.029.145.11a.481.481,0,0,0,.072.13l.042.067h.034l.029.087.029.1h.123a.28.28,0,0,0,.038.078.371.371,0,0,1,.045.156l.016.127h.1v.056l.067.04a.544.544,0,0,1,.2.248,1.281,1.281,0,0,0,.119.192l.206.179.127.109v.2h.063v.119h.058v.183h.06v.121h.083l.04.241.022.116h.033v.123h.092l0,.013.034.123.027.107h.025v.179h.063v.183h.058v.237h.007l-.06.183h.123l.025.528.022.516h-.054v.358H370.7V663h-.02l-.029.1a1.284,1.284,0,0,0-.04.42c0,.152,0,.253-.049.313h0l0,0a.306.306,0,0,0-.051.013l-.105.031v.21a.774.774,0,0,0-.235.3c-.025.045-.047.1-.078.145l-.047.022-.027.013-.065.047-.2.244h-.116l-.047.058-.194.248h-.206l-.056.118h-.1l-.042.051-.123.154-.087.112-.2.049-.06.018-.034.056-.02.045h-.174v.06h-.123v.056h-.179v.063H367.8v.06h-.179v.06h-.183v.063h-.118v.056h-.241v.06H366.9v.063h-.118v.056H366.6v.078l-.957.105-.13.013v.049h-.179v.06h-.244v.056h-1.42l-.025.123-.04.239h-.085v.543h-.056v.423h-.06v1.192h.078a3.714,3.714,0,0,1-.192.961l0,.2h-.038l-.025.114-.045.235-.056.027-.112.056.036.109h-.007v.244h-.058v.36h-.06v.121h-.06v.242h-.06v.295l-.042.022-.06.031-.018.065-.042.237-.058.025-.058.031-.018.069-.217.912h-.092v.123h-.058v.174l-.04.022-.06.027-.018.065-.022.11-.02.069-.063.027-.094.052.02.1.027.17.034.192.009.078h-.013v.058l-.018.061.018.022h0v.2h.058v.3h.022a.192.192,0,0,0-.018.1v.1h0v.183h-.058v.3h-.06v.246h-.058v.362h-.06v.266l-.051.577h-.069v.235l-.04.022-.06.052a1.088,1.088,0,0,0-.127.416h-.116l-.016.127-.056.467-.049.02-.06.036-.013.065a.21.21,0,0,0,.056.228v.105l.123.022.3.042v.078h.116v.058h.177l.022.043.04.078h.3v.013l.089.036a1.263,1.263,0,0,0,.393.114V680h.485v.06l.174,0a.241.241,0,0,0,.121-.034l.045.121.11-.107.034-.013a.412.412,0,0,0,.15.034.249.249,0,0,0,.081-.009l.112-.025v-.022l.21.022.362.029.092.009.009-.009a.263.263,0,0,0,.056,0h.145l.011-.065h.264v-.078l.3-.045.123-.016v-.04h.179v-.06h.1l.154-.045a.549.549,0,0,1,.188-.047,1.8,1.8,0,0,1,.237.029l.125.018.034-.119.016-.051.011-.013.018-.014h.087l.042-.078.025-.056.324-.054.19-.034.06.029a1.234,1.234,0,0,0,.4.114v.074l.069.04.219.13.016.013v.3h.134a.5.5,0,0,0,.06.06l-.013.009v.293h.141l.02.06a.23.23,0,0,0-.036.2l.029.105h.051l0,.013h0l-.025.114-.063.306-.029.17h.092l0,.009c-.016.029-.031.056-.047.091l-.132.3.25-.083.049.022v.449l-.054.04-.1.06.042.11a.209.209,0,0,0,.063.087.341.341,0,0,0-.007.192l.018.1-.018.078-.027.114.018.009-.027.009.042.148.018.031a.228.228,0,0,0-.025.174l.009.069h-.016v.3h-.06v.266h-.17l.112.214a.523.523,0,0,0-.031.123h-.154v.44l-.025.034a.574.574,0,0,1-.083.08.423.423,0,0,0-.1.083l-.087-.027-.145-.049-.04.15c-.013.056-.022.074-.027.074h-.353v-.031l-.107-.025-.134-.036v-.056l-.11-.031-.172-.04h0l-.031-.065-.042-.078h-.119l-.02-.045-.016-.025-.027-.022-.183-.138v-.192h-.1l-.085-.264-.036-.1h-.02v-.183h-.063v-.244h-.06v-.174h-.08c0-.058,0-.114.009-.165a.67.67,0,0,0-.047-.4v-.179l-.163.022-.212.029-.107.013-.011-.027-.027-.052-.051-.018a.351.351,0,0,0-.125-.018,2.453,2.453,0,0,0-.586.123l-1.429.009v-.1l-.172.036-.132.025v-.025h-.3v-.063h-.3v-.06H362v-.06h-.246v-.04l-.121-.022-.195-.025-.1-.013v-.049l-.11-.025-.127-.031h0v-.092h-.181V682h-.123v-.056h-.181v-.06h-.118v-.063h-.237l-.031-.065-.089-.051-.186-.04v-.022l-.074-.042-.087-.049a1.726,1.726,0,0,0-.689-.271l-.092-.009-.047.081a1.637,1.637,0,0,1-.693.469l-.112.027v.127h-.011l-.123.029-.11.031v.031h-.121l-.043.074-.022.04h-.174v.065h-.179v.083l-.19.04-.114.02v.114a.349.349,0,0,0-.034.065,2.236,2.236,0,0,0-.487.228,1.325,1.325,0,0,1-.559.232l-.127.016v.119a1.671,1.671,0,0,0-.469.183l-.072.045v.038l-.083.027-.181.06-.1.031v.027h-.13l-.038.078-.034.065-.163.056-.141.049-.1.031v.06l-.085.031-.054.016-.029.049-.018.04h-.179v.089l-.186.036-.114.022v.183a.744.744,0,0,1-.356.157l-.125.013v.105h-.063l-.042.074a1.539,1.539,0,0,1-.407.42,3.921,3.921,0,0,0-.3.279.5.5,0,0,0-.11.179c-.018.042-.02.052-.123.078l-.105.031v.161l-.031.038-.049.009-.1.036v.078h-.123v.257l-.127.11-.181.154-.051.043v.1l-.038.018-.081.038v.123l-.045.018-.081.042v.132l-.114.078-.065.04v.109l-.04.02-.029.018-.022.027a.341.341,0,0,0-.058.118c-.013,0-.027,0-.049.007l-.078.027-.022.083a.29.29,0,0,1-.3.25l-.127.013v.143a.622.622,0,0,0-.165.1l-.056.042,0,0h-.139v.063h-.42Z" transform="translate(-325.293 -649.639)" fill="#fff" fill-rule="evenodd"/>
  <path id="Path_1892" data-name="Path 1892" d="M330.377,660.547l-1.675,4.31-1.194,2.1.334.38,1.5.681,3.727.786,4.806-.7,1.323-.7-.961-6.8-1.122.017-1.7,3.244-.78,1.362-.572.24-.773.057-.406-.48-.1-.843.441-1.489.906-.122.683-2.074Z" transform="translate(-322.729 -636.456)" fill="#0070c3" fill-rule="evenodd"/>
  <path id="Path_1893" data-name="Path 1893" d="M330.487,655.687H331.8l.865-.319.882-.319.651-.2.288.118,1.865,1.69.679,1.214.216,3.367-.561,4.135.1.532-.015.764-.159.668-.153.148-.467.166h-.5l-1,2.332-.273-.031-1.4-.445.3-1.362.172-.463-.9.044-1.747-.1-1.546-.161-.467-.144.192-1.214,1.039-4.524-.389-2.991Z" transform="translate(-321.339 -643.461)" fill="#ffec00" fill-rule="evenodd"/>
  <path id="Path_1894" data-name="Path 1894" d="M332.567,657.472l.12.782-.12.363-.007.721-.236,1.209-.3,1.446-.328,1.258-.094.494-.784,2.349H330.4l.782-2.048.646-2.288.389-2.227.172-1.76v-.24Z" transform="translate(-319.159 -640.219)" fill="#0070c3" fill-rule="evenodd"/>
  <path id="Path_1895" data-name="Path 1895" d="M332.567,657.472l.12.782-.12.363-.007.721-.236,1.209-.3,1.446-.328,1.258-.094.494-.784,2.349H330.4l.782-2.048.646-2.288.389-2.227.172-1.76v-.24Z" transform="translate(-319.159 -640.219)" fill="none" stroke="#0062af" stroke-width="0.093"/>
  <path id="Path_1896" data-name="Path 1896" d="M339.191,670.4l3.5,1.149,3.671-.436,1.368-5.209.628-2.761,2.486-.239,3.119-1.323.543-1.245.689-1.118-.11-2.6-3.07-3.7s-.385-.306-.335-.06a26.592,26.592,0,0,1-.588,2.8l.338.794.546.883v1.046l-.483.563-.606.3-.964.06-1.259-.183-.753.123-2.846.852-1.842-.009-.836-.6-1.93-1.932-1.178-3.651-.49-.038-.961,1.06-.009.9.89,2.716,1.748,2.4-.378,3.293-1.069,5.99Z" transform="translate(-309.986 -646.04)" fill="#ffec00" fill-rule="evenodd"/>
  <path id="Path_1897" data-name="Path 1897" d="M338.717,650.662v.119c.273.056.362.21.662.244v.123c.065.018.123.036.181.056v.063c.192.105.163-.105.244.179.165.043.134.083.3.121.047.192.134.224.179.425.152.038.1.031.183.118h.058v.121l.183.119v.123l.123.121v.123h.058v.119h.058v.179c.043.022.08.043.121.06v.246a1.028,1.028,0,0,1,.121.06l-.065.119.125.06v.179h.06v.3c.04.022.083.04.121.06v.246h.06c.02.056.038.116.063.179.038.02.078.038.118.06-.02.056-.04.119-.063.179h.125a.8.8,0,0,0-.063.123h.063V655h.054v.964h-.054c.018.04.036.078.054.123h-.054c-.025.262-.045.519-.063.783h-.063v.3h-.056c-.025.123-.042.246-.063.362h-.06c-.02.081-.038.163-.06.242h-.06v.121c-.038.022-.083.045-.121.063-.04.183-.081.362-.121.541a1.194,1.194,0,0,1-.121.06c-.02.058-.04.119-.058.179h-.058v.183c-.067.04-.123.081-.183.123-.123.21.092.266-.244.362v.179h-.058c-.069.072,0,.027-.123.058v.183q-.178.151-.362.3v.116H339.8c-.04.063-.08.123-.121.183h-.123c-.022.04-.038.083-.058.123a2.041,2.041,0,0,1-.6.481c.069.069,0,.025.119.06v.123a1.573,1.573,0,0,1,.908.66h.119v.06c.123.1.241.2.362.306v.114c.043.02.081.047.121.065v.119c.083.06.163.121.239.183v.239h.067a1.793,1.793,0,0,0,.058.241h.058v.183h.06v.179h.06c-.02.065-.04.121-.06.183h.116a1.856,1.856,0,0,0,.186.537v.311a.843.843,0,0,1,.121.056v.118h.06v.183h.063v.179h.056v.183h.063v.3h.063a.761.761,0,0,0-.063.121h.063c.018.279.036.559.054.843-.018.083-.054-.025-.054.058.036.078.071-.022.054.06h-.054c.018.1.036.206.054.3h-.054c.018.183.036.362.054.546h-.054c.018.179.036.358.054.541h-.054a.927.927,0,0,0,0,.485h-.181v.056c.257.224-.042.66-.123.908v.36h-.06v.121h-.121l.06.063v.06h-.06c-.02.118.022.069.06.118v.06h-.06v.118h-.06v.244h-.065v.179h-.056v.179h-.06v.485a.383.383,0,0,1,.241.362h.121c-.02.385-.04.765-.06,1.145h-.06c-.022.078-.038.161-.06.244-.04.018-.081.036-.121.058,0,.087.1.174.121.3h.121l.06.246h.06v.3h.06v.3h.063v.543h.056v.239h.063v.485h.063v.118h.054v.964h-.054v.062h.054v.179h.065v.244h.058c.022.156.045.32.06.481h.063a2.4,2.4,0,0,0-.063.664h.063v.244h.06v.179h.058v.6h.063a3.133,3.133,0,0,1-.121,1.265c-.083.058-.161.118-.242.179V681c-.083.016-.163.038-.244.06-.018.038-.038.083-.056.123h-.123v.056h-.121v.06c-.06.022-.121.045-.186.063.034.262.092.161.125.422h.121v.123a.5.5,0,0,1,.364.358h.118v.123c.181.056.362.116.543.179.02.038.038.078.058.121l1.205-.065c.116-.467.657-.5,1.27-.476v.058h.181l.058.121c.165.092.116-.065.244.119h.058c-.009.074-.112.114-.058.244l.118-.065v.127h.06c.018.139.04.279.058.418h-.058v.063c.04.02.08.042.121.06.029.078.02.239-.063.239v.063h.123c-.02.116-.04.235-.06.362h-.063c.022.06.042.118.063.179h-.121v.183h.121v.119h-.121c.13.331-.056.34-.06.606l.06.056h-.06v.186h-.06v.239h-.058l-.123.362h-.06v.3h-.06v.179c-.058.04-.123.078-.181.119.022.042.04.083.058.121a1.14,1.14,0,0,1-.116.063c-.1.13-.025.2-.181.3v.063h-.06v-.063c-.118-.025-.076.027-.123.063h.123c.045.069-.036.051-.063.06v.06h-.121c-.02.036-.038.081-.06.119h-.121a1.411,1.411,0,0,1-.123.179l-.237.067-.06.116h-.244l-.056.123c-.1.018-.2.04-.3.06v-.06c-.1-.022-.2-.04-.3-.065v-.118a.973.973,0,0,1-.3-.123c.02-.056.04-.116.063-.179h-.123c-.018-.083-.036-.157-.058-.239h.119c-.069-.069,0-.027-.119-.063.022-.056.04-.121.058-.179-.036-.02-.08-.038-.118-.061v-.06h.06c-.011-.087-.047.02-.06-.063.018-.078.038-.161.06-.239h-.123c.018-.11.063-.123.063-.123v-.3h.06v-.06h-.06q.027-.184.06-.362l-1.453-.183v-.056c-.076-.022-.157-.045-.235-.062-.047-.061-.081-.123-.125-.179-.139-.022-.279-.047-.418-.065-.02-.036-.042-.074-.063-.119h-.118v-.123h-.181c-.143-.156-.282-.322-.425-.483v-.058h-.116c-.051-.188-.116-.2-.3-.239-.018-.078-.038-.161-.06-.246-.177-.038-.2-.065-.242-.235h-.121v-.123c-.181-.121-.054-.17-.3-.244v-.119c-.143-.1-.038-.083-.118-.179-.063-.022-.125-.043-.181-.06-.022-.063-.042-.127-.063-.183h-.06a.473.473,0,0,1-.121-.242l-.423-.121v.06c-.581.022-1.165.038-1.746.06a4.527,4.527,0,0,0-1.447-.239v.119h-.06c-.042.06-.08.121-.123.183h-.058v.116c-.042.022-.081.04-.121.063-.022.056-.042.121-.06.183h-.121c-.022.1-.042.2-.058.3h-.125a.737.737,0,0,1-.541.662c.069.072,0,.027.118.063v.121h-.179a.416.416,0,0,1-.06.241h-.058v.183c-.081.056-.165.119-.246.179v.183c-.036.018-.078.036-.116.056v.123c-.081.06-.163.119-.244.183v.118c-.038.022-.081.038-.121.061v.118c-.058.038-.118.083-.181.123v.121c-.04.018-.078.04-.118.058a1.26,1.26,0,0,0-.362.545h-.179c-.022.1-.04.2-.06.3-.063.042-.123.083-.183.121-.022.083-.038.163-.06.242l-.121.065v.118c-.04.022-.083.038-.121.06-.018.06-.04.118-.063.179h-.058c-.02.063-.04.123-.06.179-.293.04-.177.114-.423.183-.045.188-.172.275-.244.425v.179c-.038.022-.078.042-.116.061v.118a.868.868,0,0,1-.123.06c-.018.083-.04.163-.058.246h-.06a.653.653,0,0,0-.181.3h-.3v-.06h-.06v.06h-.3v-.06c-.127-.036-.179.078-.237.06-.022-.038-.042-.083-.063-.121H328.1v-.118h-.239c-.114-.17-.371-.244-.541-.367l-.063-.118h-.121c.02-.038.038-.078.06-.123h-.181c-.022-.038-.04-.078-.06-.116l-.241-.063v-.179a.6.6,0,0,1-.42-.423h-.121v-.123c-.063-.038-.123-.083-.183-.119.02-.06.04-.121.06-.183-.148-.042-.1-.025-.179-.121h-.06v-.179c-.043-.018-.081-.04-.123-.063v-.179c-.04-.02-.078-.043-.121-.06v-.179h-.058v-.123h-.06c-.02-.06-.04-.119-.063-.179.042-.022.081-.038.123-.06,0-.009-.089-.067-.06-.3l.06-.06h-.06c-.02-.063-.04-.123-.063-.179h.063v-.186l.06-.056c-.042-.022-.08-.047-.123-.065-.074-.219.1-.28.123-.481h.121c.018-.06.038-.123.058-.179l.123-.065v-.119c.034-.045.121-.049.179-.118.322-.022.644-.038.966-.06.085.022-.025.051.06.06.056-.022.121-.038.181-.06v.06c.083.018.159.04.241.058.018.043.04.083.06.121h.181v.058a.671.671,0,0,0,.3.183c.069.244.018.074.181.183v.06h.118c.1.139.2.28.3.418a.752.752,0,0,1,.241-.056,1.562,1.562,0,0,1,.181-.362c.06-.022.121-.045.181-.06-.02-.04-.042-.083-.06-.123.06-.018.118-.04.181-.06v-.119h.063v-.123c.056-.038.118-.078.179-.121.056-.087-.027-.188.058-.246h.123c.067-.065,0-.022.116-.056a.751.751,0,0,1,.183-.541c.04-.022.083-.04.121-.063v-.179c.042-.022.083-.042.121-.06v-.118h.06a.821.821,0,0,0,.181-.367h.119c.107-.519.505-.715.548-1.261-.322-.145-.646-.28-.968-.425v-.123h-.181c-.141-.213-.318-.179-.362-.541.072-.065.025,0,.063-.121.168-.04.134-.013.181-.185.058.027.118.045.179.067v-.067c-.038-.043-.094-.029-.06-.179h.06v-.116h.06v-.183l.121-.058c.02-.1.04-.2.06-.3.04-.018.078-.04.121-.058v-.123c.04-.016.081-.038.121-.056v-.065l.241-.118v-.239h.058v-.063a1.048,1.048,0,0,1,.123.063v-.063h-.06v-.06H331v-.06h-.06c.022-.04.038-.08.06-.123h-.06v-.056H331V677.8h.06l-.06-.123c.043-.018.078-.038.121-.056v-.063h-.06v-.06h.06v-.179a1.248,1.248,0,0,1,.123-.06c.018-.1.038-.2.056-.3h.063v-.179h.06v-.123h.058v-.123c.043-.02.083-.038.123-.06v-.118c.04-.02.081-.038.119-.06v-.244h.063v-.241h.058v-.179h.06v-.239h.063v-.3h.06v-.123h.058c.02-.083.04-.161.06-.239h.06V674.6h.06v-.239h.06a1.566,1.566,0,0,0,.181-.6h-.181c-.083-.156-.107-.1-.121-.362h.06v-.423h.06v-.118h.058v-.183c.045-.018.081-.04.123-.058v-.183h.058v-.116h.065v-.179h.058v-.546h.06v-.246h.063v-.358h.058c-.022-.123-.04-.239-.058-.362h.058v-.183h.06v-.481h.06v-.123h.06c.02-.2.04-.4.058-.6h.06c.031-.174-.134-.123-.119-.246h.058v-.239h.06c.025-.224.04-.445.06-.664h.063v-.239h.06v-.063h-.06a.894.894,0,0,0,.06-.423h-.06v-.242h.06v-.362h.058c-.018-.06-.038-.121-.058-.179v-.664h-.06V665.5h-.063c-.02-.179-.036-.362-.06-.541h.06v-.242h.063c.038-.116.081-.244.118-.362h.063c.02-.284.04-.563.058-.843h.06c.022-.121.04-.244.065-.367h.058v-.119h.058c.02-.1.043-.2.063-.3.038-.018.078-.04.121-.063v-.06h-.06c.02-.078.029.022.06-.06v-.183h.06v-.114h.058c.022-.067.043-.123.06-.183l-.662-.123a1.177,1.177,0,0,1-.063-.118h-.181v-.06h-.121V661.7h-.118l-.06-.118h-.181l-.06-.123h-.123c-.078-.119-.156-.239-.239-.362-.2-.06-.4-.123-.6-.179v-.06H331.6c-.04-.062-.08-.123-.123-.183H331.3v-.058h-.116v-.06c-.063-.022-.123-.04-.183-.06v-.123c-.208-.054-.154-.123-.364-.179v-.118c-.119.018-.239.04-.36.058v.06c-.259-.022-.523-.04-.783-.06-.118.02-.244.038-.362.06v-.06h-.423v-.058c-.1-.018-.107.058-.121.058h-.241v-.058c-.145-.038-.154.058-.241.058v-.058h-.481a2.152,2.152,0,0,0-.724-.183,1.323,1.323,0,0,0-.237-.3,4.079,4.079,0,0,1,.177-1.444h.06v-.123h.06v-.183h.06v-.06h-.06v-.058h.06v-.239a.5.5,0,0,1,.121-.06v-.246h.06v-.235h.06v-.123h.063v-.183h.058v-.118h.06v-.183a.96.96,0,0,0,.119-.06c-.018-.078-.04-.156-.058-.242h.058v-.179h.063v-.121h.06v-.246h.058v-.116c.06-.04.123-.08.181-.123.022-.1.042-.2.063-.3.04-.022.078-.043.118-.06.022-.083.04-.161.063-.246h.118c.06-.179.123-.362.181-.541h.06c.02-.1.04-.2.06-.3h.058a.507.507,0,0,0,.123-.242h.121c.02-.06.04-.123.06-.179h.06v-.123h.06v-.121q.117-.094.241-.181v-.121c.04-.018.078-.04.119-.063.022-.056.042-.116.063-.179h.119v-.244h.123a.859.859,0,0,1,.6-.6,1.072,1.072,0,0,1,.724-.6c.047-.17.072-.152.183-.244v-.058h.179c.04-.065.078-.121.121-.183.1-.022.2-.038.3-.06l.06-.118h.242v-.065h.121v-.058c.143-.016.284-.038.423-.06v-.06h.362v-.058h.3l.058-.121h.246V650h.179v-.056h.181v-.065h.3v-.058h.241v-.06c.1-.022.1.056.121.06H335.7v-.06h.058v.06c.181.018.362.04.543.058v.065c.2.018.4.034.608.056v.063h.116v.06h.3v.06h.181v.058h.179v.06h.181a4.471,4.471,0,0,0,.845.362m-6.634,2.656v.239h.181c-.007.136-.049.152-.06.242.022.038.04.083.06.121h-.121c.018.074.114.159.06.3h-.06v.123h-.06c-.018.161-.038.313-.058.478H331.9c.069.067,0,.022.123.063v.239H331.9l.063.063c-.022.116-.043.239-.063.362.018.083.074-.027.063.061H331.9v.179h-.06c0,.083.051-.027.06.06-.02.1-.04.2-.06.3h.123v.241h-.123l.06.239h.063c.069.192-.089.293-.063.425h.063v.6H331.9c.02.078.04.161.063.239a.1.1,0,0,0-.063.123h.063v.123c.04.018.08.038.118.056-.018.083-.038.161-.058.242h.058v.121h.06c.034.1.013.228-.06.242v.06h.121c.011.289.083.441,0,.664l-.121-.06c-.018.042-.038.083-.058.121-.241.08-.485.163-.727.241v.179c.123.105.244.2.362.3v.06h.123l.118.123h.123c.02.038.04.083.058.121h.121c.022.036.04.078.06.119h.241v.06h.058c.031-.025-.013-.1.065-.06.016.045.038.078.058.123h.123v.06h.118v.056h.179c.042.063.085.123.121.183h.123v.063h.121v.06h.183v.06h.116v.058c.081.018.163.043.244.06v.058c.139.025.279.042.42.065a2.22,2.22,0,0,0,1.386.118h.362v-.058c.242-.025.483-.042.729-.06v-.065c.116-.036.237-.076.358-.119v-.058h.121v-.06h.179v-.06h.121v-.063h.123l.058-.121h.121v-.063a.456.456,0,0,1,.241-.116c.085-.3.217-.141.3-.425h.121v-.06c.06-.022.123-.04.181-.06.02-.063.04-.119.06-.179h.06a.63.63,0,0,0,.181-.3h.121a.928.928,0,0,1,.362-.481v-.06c.038.02.081.038.118.06v-.06h-.058l.3-.425c.038-.022.08-.04.121-.06v-.183c.081-.058.159-.119.241-.179v-.42h.058V657.9c.043-.02.081-.038.121-.06v-.3h.06v-.116a1.226,1.226,0,0,1,.123-.058c.018-.105.038-.206.056-.3h.067c-.022-.04-.043-.081-.067-.118l.183-.123-.058-.485h.058v-.362h.06c-.018-.06-.04-.118-.06-.179.06-.022.121-.04.177-.06-.009-.092-.116-.118-.116-.118q.03-.215.06-.423h-.121c.02-.085.043-.168.06-.241h-.06v-.06c.043-.022.08-.045.121-.063-.02-.1-.04-.2-.06-.3h-.06c.02-.045.043-.083.06-.123l-.177.06v-.06a.947.947,0,0,1-.183-.423c.04.02.078.043.116.06a1.247,1.247,0,0,1-.116-.3h-.123v-.179h.123v-.06c-.132-.092-.119.065-.244-.119h-.058v-.244c-.042-.022-.083-.04-.123-.063v-.239h-.058l-.06-.241h-.121a.493.493,0,0,1,.058-.244h-.058c-.047-.161-.016-.132-.181-.179v-.123h-.181v-.056h-.063v-.06h.063v-.063c-.063-.022-.121-.038-.179-.06-.042-.078-.083-.156-.123-.241h-.181v-.056l-.123.056-.058-.183h-.06v.183h.119c-.047.215-.105.237-.36.241v-.06c-.145-.049-.125.1-.179.121-.123.018-.244.045-.362.063v.116c-.123-.018-.244-.034-.362-.056v-.06c-.072-.072-.025,0-.063-.123.2-.141.4-.28.606-.425.212-.092.367.031.483,0l.058-.056v-.06h-.181c-.08-.324-.094-.132-.3-.242v-.056a1.641,1.641,0,0,0-.183-.065v-.123c-.078.022-.154.042-.237.065v-.065h-.121v-.056c-.06-.022-.123-.045-.181-.063v.063h-.183v.056h-.36v.065c-.121.036-.241.078-.36.123v.056h-.123v.063c-.141.016-.282.034-.423.06v.056h-.116v.063h-.183v.06H335.7v.056h-.181v.063h-.179v.065h-.123v.056c-.161.022-.322.04-.481.063-.042.06-.083.118-.121.179-.1.022-.2.038-.3.06l-.121.179h-.123v.062h-.118v.06h-.183c-.018.042-.04.078-.058.123h-.183v.056a1.85,1.85,0,0,1-.239.06v.063c-.161.02-.322.043-.481.06l-.063.123h-.183a.971.971,0,0,1-.058.116h-.123c-.034.022-.045.085-.118.123.027.165.076.347-.06.485-.067-.069,0-.027-.121-.06m31.359-1.328v.118a.739.739,0,0,1,.541.183l.058.116h.063v-.06a1.134,1.134,0,0,0,.181.06v.123a.751.751,0,0,1,.485.239h.058v.063h-.058c-.063.1.087.052.116.06v.118c.08.043.065.078.123.123.042-.022.08-.04.121-.063v.123a1.636,1.636,0,0,0,.179.06c.022.063.04.123.063.179.04.022.078.04.121.063v.121h.123c.069.045.069.228.116.3.065.04.121.078.181.119.018.083.042.161.06.239l.181.067c-.018.038-.04.078-.06.116.06-.02.123-.038.179-.06v.06h.065v.179c.038.018.078.045.118.063v.121h.06v.123a1.239,1.239,0,0,0,.121.058c.02.1.04.2.06.3h.06v.123h.06c.042.127-.067.344-.06.362h.06v.119c.038.022.081.042.118.06v.183H367v.058c-.042.06-.083-.018-.063.06H367v.123a3.207,3.207,0,0,1,.481.121c.085.1.161.2.244.3h.121c.083.1.159.2.239.3.1.022.2.042.3.06v.063a.825.825,0,0,0,.364.183v.116c.226.058.19.136.3.3h.063c.02.06.043.123.06.183h.123c.042.192.087.127.119.358h.118v.123c.2.127.23.3.362.485.121.1.244.2.364.3v.121h.056v.119h.06v.183h.065v.119h.056c.022.119.042.244.063.362h.058v.119h.063c.022.078.038.161.06.244h.063v.179h.058v.183h.063v.239h.056c-.018.063-.038.123-.056.183h.056c.022.438.042.883.06,1.324h-.06v.362h-.056v.241h-.062c-.092.3.054.595-.121.785-.069.067,0,.022-.123.063v.174c-.23.139-.215.284-.358.485-.042.02-.083.038-.121.061-.083.1-.161.2-.244.3h-.119c-.08.1-.161.2-.244.3h-.181l-.056.121h-.123c-.081.1-.161.2-.244.3-.078.022-.159.04-.239.06a1.2,1.2,0,0,1-.062.119h-.116v.065h-.123v.058H368.2v.06h-.179v.06h-.181v.063h-.181v.056h-.121v.063H367.3v.06h-.179v.06H367v.058h-.181v.06c-.362.042-.724.083-1.087.123v.06h-.183v.06h-.239V667h-1.447c-.02.121-.04.239-.06.362h-.06v.541h-.06v.06h.06v.063h-.06v.3h-.06v.724c.018.083.056-.027.06.06h-.06v.123h.06a2.924,2.924,0,0,1-.181,1.143v.3h-.058q-.033.151-.06.3c-.042.022-.083.04-.121.056.022.067.038.123.06.183h-.06v.241H363.2v.362h-.058v.119h-.06v.244h-.063v.239c-.04.022-.078.04-.119.063-.02.1-.04.2-.063.3l-.116.06-.242,1.026h-.063V674h-.06v.121c-.04.018-.08.04-.121.063-.022.078-.04.161-.063.235a.9.9,0,0,1-.118.065c.022.118.04.241.058.364h.06c-.018.06-.038.116-.06.179l.06.06h-.06v.06h.06v.3h.063c.036.145-.063.161-.063.244h.063v.242h-.063v.183h-.06v.3h-.058v.239h-.063v.358h-.058v.063c.027.083.049-.022.058.06h-.058c-.018.239-.04.485-.058.724h-.063v.183c-.038.018-.08.04-.121.058a1.259,1.259,0,0,0-.121.483h-.123c-.018.179-.036.36-.058.543a.979.979,0,0,0-.118.06c-.029.118.034.078.06.118v.06c.139.022.279.04.42.06v.063h.123v.06h.116l.063.119h.362v.06a1.533,1.533,0,0,0,.483.123v.118h.3v-.058h.063v.058h.121v.061a.1.1,0,0,0,.118-.061.1.1,0,0,1,.121.061c.042-.022.081-.04.121-.061a.159.159,0,0,0,.183.061v-.061c.239.02.483.038.724.061.078-.022-.027-.074.056-.061.013,0,.022.087.123.061v-.061h.239v-.058l.425-.06v-.067h.179v-.056h.241a.769.769,0,0,1,.6-.06c.036-.119-.009-.054.058-.119s-.011-.018.063-.06h.06l.06-.123c.241-.036.481-.078.722-.119v.058a1.123,1.123,0,0,0,.483.121v.123c.1.056.206.119.3.179v.241h.058c.092.116.165.148.244.239-.04.018-.081.045-.123.06v.063h.123a1.442,1.442,0,0,0,.058.239s-.076.058-.058.123h.058c.025.1.042.206.063.3h-.062l-.058.3h.121a1.091,1.091,0,0,1-.121.3,1.6,1.6,0,0,1,.183-.056c-.022.034-.043.078-.063.116.04.022.081.04.121.063v.06h-.058v.362h.058v.118c-.058.038-.121.083-.183.123.029.065.125.056.125.056.011.074-.1.105-.063.244h.063c-.022.081-.043.159-.063.242.04.018.081.038.121.06-.013.1-.116.114-.121.119.02.04.04.083.063.123,0,.011-.08.02-.063.121h.063v.241h-.063v.3h-.062v.241c-.025.087-.054-.022-.058.06.038.058.085-.025.058.058h-.058c-.058.17-.029.116,0,.244h-.181v.06h.058c.022.063.043.123.065.179h-.123v.183h-.063c-.078.1-.17.123-.239.241-.058-.022-.121-.04-.181-.063-.051.206-.112.186-.36.186v.056h-.063v-.056h-.241v-.062c-.08-.022-.159-.038-.239-.061v-.063c-.083-.016-.163-.038-.241-.056-.02-.047-.04-.083-.06-.123h-.123l-.058-.121c-.08-.063-.161-.119-.244-.179v-.123h-.056c-.043-.123-.081-.244-.123-.362h-.058v-.179h-.063v-.246h-.06v-.179h-.06c-.072-.221.067-.514-.056-.662v-.058c-.148.018-.284.036-.425.058l-.063-.119a1.788,1.788,0,0,0-.66.119H363.08v-.058c-.1.018-.2.036-.3.058v-.058h-.3v-.06h-.306v-.063h-.239v-.065h-.241v-.056c-.141-.022-.279-.04-.42-.063v-.06c-.081-.018-.161-.04-.239-.056v-.063h-.181v-.06h-.123v-.06h-.183v-.058h-.118v-.061h-.181l-.06-.123c-.1-.022-.2-.038-.3-.056v-.067a1.927,1.927,0,0,0-.724-.3,1.824,1.824,0,0,1-.783.541v.119c-.078.016-.161.042-.239.06v.06h-.183l-.06.119h-.121v.06h-.179v.063c-.105.022-.2.038-.3.056v.065c-.069.072-.025,0-.063.123-.438.083-.673.42-1.142.481v.123a1.113,1.113,0,0,0-.546.179v.06c-.118.04-.241.078-.362.119v.056H355c-.02.049-.042.087-.06.128-.121.038-.241.078-.364.118v.06c-.058.022-.119.038-.179.06l-.063.123h-.118v.056c-.1.022-.2.04-.3.063v.06h.063v.06h-.063a.816.816,0,0,1-.481.242v.121h-.121c-.168.293-.5.476-.722.722-.141.157-.036.23-.3.3v.181h-.06c-.069.069,0,.02-.121.06v.119h-.121v.179c-.121.105-.241.2-.362.3v.123c-.04.018-.081.036-.121.056v.123c-.04.022-.081.04-.121.06v.119l-.181.123v.123c-.04.016-.081.038-.118.056-.1.143.063.109-.181.183a.426.426,0,0,1-.423.358v.123a.537.537,0,0,0-.244.123v.056h-.118v.06h-.423v.067a3.184,3.184,0,0,1-.783-.183c-.04-.062-.083-.123-.123-.186h-.179c-.081-.1-.163-.2-.244-.3-.1-.078-.2-.159-.3-.242v-.116c-.06-.045-.121-.085-.183-.123-.02-.083-.038-.161-.056-.241-.063-.038-.125-.083-.186-.121v-.118l-.116-.123v-.121h-.065v-.118H347.4v-.123h-.06V686.3c-.043-.018-.08-.04-.123-.063v-.179h-.056v-.119H347.1v-.183c-.036-.02-.078-.038-.116-.06-.02-.179-.042-.362-.063-.541h-.06v-.241H346.8v-.3c-.042-.022-.085-.04-.123-.063v-.3h-.06v-.058h.06v-.06h-.06a3.276,3.276,0,0,1,.183-1.205h.058v-.118h.06c-.02-.043-.04-.083-.06-.123h.06c.1-.284.009-.313.246-.483v-.058h.537v.058c.083,0,.105-.105.244-.058.239.074.25.224.606.241v.179h.179a3.046,3.046,0,0,1,.42.785h.121v.123a.416.416,0,0,1,.183.179h.119v-.06c.063-.022.121-.04.181-.063l.241-.3c.06-.022.121-.04.183-.063v-.121h.118c.078-.1.159-.2.239-.3.065-.022.123-.045.181-.063v-.121c.063-.022.121-.04.183-.063.1-.116.2-.239.3-.358h.121c.06-.083.121-.161.181-.239h.183c.058-.083.118-.165.179-.246.121-.038.241-.083.362-.116l.06-.127h.119v-.056h.123c.02-.063.04-.123.06-.179.058-.027.123-.04.179-.063l.063-.121c.058-.022.118-.04.177-.063v-.06a.51.51,0,0,1,.244-.118v-.123c.042.018.081.045.123.063.018-.045.042-.078.058-.123l.3-.056c.038-.154.036-.1.121-.183v-.063h.121v-.06a.482.482,0,0,1,.241-.118v-.121c.06-.022.118-.04.181-.058.043-.06.078-.127.121-.183h.121c.078-.1.161-.2.241-.3.2-.148.315-.087.362-.418-.161-.123-.322-.246-.485-.367v-.118c-.168-.042-.132-.018-.181-.179-.067-.069-.025,0-.058-.123H354.4v-.179h-.063v-.065h.063c.018-.119-.036-.074-.063-.119.022-.06.042-.121.063-.183h-.121c-.02-.078-.04-.156-.06-.239h-.058v-.3h-.063v-.123h-.06v-.422h-.06v-.541h.06v-.058h-.06a.158.158,0,0,1,.06-.183c-.018-.033-.04-.078-.06-.119.043-.02.081-.042.121-.06v-.06h-.06v-.541h.06c-.04-.08-.078-.163-.121-.241h.06c.022-.109-.056-.1-.06-.121V674.3h-.063c-.036-.116-.078-.239-.118-.362l.06-.056c-.009-.027-.1-.014-.06-.123a.986.986,0,0,0,.118-.06c.063-.324.123-.642.183-.961h.121a.922.922,0,0,1,.118-.789h.063c-.02-.1-.04-.2-.063-.3h.063v-.119h.06a.163.163,0,0,0-.06-.183.167.167,0,0,1,.06-.179l-.06-.179h.06c.018-.2.038-.407.06-.6.038-.02.08-.038.121-.06-.018-.06-.04-.123-.063-.179h.063v-.123c.038.018.078.04.118.063v-.063c-.027-.025-.1.018-.058-.06h.121v-.06h-.063l.063-.179h-.063v-.063h.063a.665.665,0,0,0-.063-.3c.042-.016.08-.042.123-.06.022-.2.04-.4.06-.6h.121l-.06-.063c.018-.116.038-.239.06-.362,0,0,.092-.022.06-.179h-.06c.02-.2.036-.4.06-.6h-.06a2.952,2.952,0,0,1,.181-1.024v-.3h.058c-.02-.2-.038-.4-.058-.6h.058v-.239h.06l-.06-.183h.06v-.063h-.06a1.205,1.205,0,0,1,.06-.418h-.06v-.123h-.058c-.02-.078-.042-.156-.063-.244-.04-.018-.083-.04-.119-.058v-.116l-.423-.362v-.118a1.293,1.293,0,0,0-.121-.065v-.118c-.042-.018-.078-.045-.121-.06v-.123a1.277,1.277,0,0,0-.121-.06v-.118h-.06c-.056-.083-.045-.105-.058-.242h-.183c-.063-.183-.121-.362-.181-.545-.042-.018-.081-.038-.118-.056v-.123h-.065v-.244h-.06c-.018-.078-.038-.159-.058-.237h-.06c-.016-.1-.04-.2-.058-.3l-.181-.121v-.246h-.06v-.179h-.063c-.02-.078-.04-.161-.063-.239h-.058v-.183a1.65,1.65,0,0,1-.237-1.082h.056v-.3c.04-.022.081-.045.121-.063v-.244a.835.835,0,0,0,.118-.06V658.5h.063v-.123c.078-.034.161-.078.241-.116-.018-.063-.04-.119-.06-.181.042-.02.081-.042.123-.06.018-.078.042-.161.058-.244h.06c.02-.04.04-.078.058-.118h.183c-.02-.042-.038-.083-.058-.123h.058c.018-.056.042-.116.06-.174h.118c.128-.253.3-.532.664-.545.022-.065.045-.123.063-.183,0,0-.132-.009-.063-.06h.123c-.022-.058-.043-.119-.06-.179h.181v-.123H354.7c.018-.118.058-.114.058-.118.029-.083-.036.022-.058-.06s.029.022.058-.063v-.179c.063-.043.123-.083.183-.121-.02-.04-.038-.078-.06-.118a.87.87,0,0,1,.121-.061c-.02-.04-.042-.083-.06-.123.04-.022.078-.04.121-.06v-.123h.06c.1-.161-.056-.114.179-.174v-.183h.06a.992.992,0,0,1,.546-.664V654.1l.181-.121c.02-.058.036-.123.058-.179.08-.018.159-.04.241-.063v-.06c.139-.114.221-.25.42-.3v-.123h.121c.045-.165.02-.134.179-.183.071-.065,0-.022.123-.06.034-.118,0-.049.063-.118v-.06h.118l.06-.119c.042.018.081.04.123.056v-.056c.067-.069.022,0,.058-.123.181-.042.127-.1.181-.121h.244c.018-.04.036-.078.06-.123h.119c.018-.04.042-.078.06-.119.121-.038.241-.078.36-.121.042-.062.083-.118.123-.179.36-.123.722-.242,1.084-.365.423-.02.845-.038,1.265-.056v.056h.063v-.056a.15.15,0,0,1,.179.056c.141-.02.284-.038.423-.056.018.036.04.078.063.119.179.022.36.038.541.06v.058h.121v.06h.3v.06c.2.045.4.083.606.123m-3.922,1.022c-.051.23-.141.244-.423.244v-.06h-.179v-.06h-.063v.121h.063c.027.17-.248.183-.423.179-.06-.078-.121-.161-.181-.239h-.06v-.183h-.06c-.105.123-.134.051-.241.123-.04.06-.081.121-.121.183h-.181c-.02.06-.042.116-.058.179h-.06c-.11.121-.114.188-.3.239v.119c-.08.027-.159.042-.241.065v.119c-.163.04-.136.083-.3.123-.063.235-.177.19-.244.423h-.118c-.065.311-.288.4-.362.72h-.123c-.078.224-.159.445-.239.664-.038.022-.078.04-.121.06-.04.181-.078.365-.121.543-.056.065-.06-.058-.06-.058-.078-.038-.038.031-.058.058h.058c.107.188-.217.671-.179.908h.058v.056h-.058a.162.162,0,0,0,.058.183c-.018.058-.04.118-.058.179h.121c.025.094-.114.087-.121.123v.06h.058v.181h.063c.1.275-.065.472.118.541,0,.148.045.152.06.244-.04.018-.078.04-.121.063-.022.083.1.078.121.116.045.074-.047.013-.06.062-.085.078.112.056.121.06.027.385.215.514.244.961h.116c-.018.06-.036.121-.06.183h.183v.06c-.067.069-.025,0-.058.118h.118l.121.606h.118v.118c.083.06.163.119.244.183v.118c.043.02.078.038.119.061a.812.812,0,0,1,.241.418h.183v.123h.179v.058c.067.074.025,0,.063.125h.179v.058c.063.016.123.042.181.06a1.411,1.411,0,0,1,.242.485c.136.018.163,0,.244.056v.063h.119c.018.038.042.083.06.121h.121v.063c.121.016.239.042.362.06v.06h.121v.058h.06v-.058c.058.018.118.04.179.058a.114.114,0,0,1,.123-.058,2.578,2.578,0,0,0,.9.058v-.058h.483v-.06h.241v-.06h.481v-.063h.241v-.061h.181v-.06h.179v-.063h.181v-.056c.085-.022.165-.04.244-.063v-.06c.1-.022.2-.038.3-.06l.056-.118c.083-.018.163-.04.241-.06.022-.04.042-.083.063-.123.1-.018.2-.045.3-.06l.181-.241h.058a.91.91,0,0,0,.06-.123h.121l.06-.116c.063-.04.121-.083.179-.123v-.06h.123c.157-.109.1-.223.36-.3v-.123h.125c.018-.06.038-.119.056-.179.042-.022.083-.042.123-.06v-.123c.058-.043.118-.078.181-.123.1-.147.089-.261.239-.358v-.183h.123c.069-.349.338-.541.425-.9-.083.022-.165.04-.248.06v.058a2.065,2.065,0,0,1-.9-.058c-.022-.06-.045-.121-.06-.179h-.065c-.016-.06-.038-.121-.058-.183h.058c.273-.284.382.067.724-.06v-.056a.839.839,0,0,0,.548-.669.534.534,0,0,1-.181-.42h-.427v-.06h-.058v.06c-.121-.038-.244-.078-.36-.123a.547.547,0,0,0-.121-.179c.047-.069-.007-.007.056-.06.076-.119.065-.1.241-.123.02-.2.04-.4.063-.6a.183.183,0,0,1-.063-.188h.063v-.3h.058c-.016-.224-.038-.445-.058-.664h-.063v-.362c-.04-.022-.076-.04-.118-.06v-.123c-.04-.018-.081-.04-.123-.056v-.118a1.283,1.283,0,0,0-.181-.123c-.016-.083-.038-.161-.058-.244-.08-.063-.159-.119-.241-.179-.018-.063-.04-.123-.06-.179h-.123v-.123c-.08-.045-.159-.083-.239-.123v-.121c-.06-.018-.121-.036-.181-.058l-.058-.244H363.5c.02-.1.04-.2.063-.3H363.5c-.067-.069,0-.027-.118-.06a.745.745,0,0,0-.423-.548h-.123v-.056h-.179l-.06-.123h-.119v-.06h-.244v-.06c-.063-.022-.123-.04-.181-.063-.042-.06-.078-.116-.121-.179h-.181v-.06h-.121v-.06h-.118c-.02-.04-.043-.08-.065-.118a3.754,3.754,0,0,0-1.324.118h-.181c-.078.029.022.06-.06.06v-.06h-.063v.06c-.076.022-.161.042-.239.06v.063c-.1.016-.2.038-.3.056-.083.1-.163.2-.244.306h.06c.063.078.188.11.241.179.022.06.04.121.063.179Zm-24.059-.843a.394.394,0,0,0,.06.239h-.06c-.161.179-.2.036-.423.123v.06h-.123v.063a2.285,2.285,0,0,1-.481.116v.123h-.179v-.06c-.06.022-.123.042-.183.06v-.06c-.092-.058-.1-.119-.179-.179.056-.114.08-.1.121-.246a1.98,1.98,0,0,0,.241-.06c.018-.04.038-.078.06-.119.181-.038.362-.078.541-.121v-.062c.1-.018.109.062.118.062.063-.018.123-.04.183-.062v.062c.1.02.2.043.3.06m3.859.3v.121a1.568,1.568,0,0,1-.541.123c-.1-.165-.15-.109-.181-.367a.513.513,0,0,1,.36-.119.747.747,0,0,0,.362.242m-.966,2.053c-.141-.018-.282-.045-.42-.063v-.06c-.062-.049-.06-.074-.121-.123.121-.179.065-.029.179-.116a1.029,1.029,0,0,0,.06-.123h.063v-.119h.056V653.8c.043-.018.083-.04.125-.063v-.3a2.094,2.094,0,0,0-.425-.179v.123c-.1.018-.2.04-.3.056-.034.145-.016.114-.121.183a.64.64,0,0,1-.481.118V653.5c.078-.063.161-.119.241-.179V653.2c.06-.018.121-.04.181-.06v-.063a.98.98,0,0,1,.6-.119c.089-.06.279.036.485.058.049.1.17.143.058.244h.3v.063c-.058.016-.121.038-.181.06v.056h.123c.049.072-.011.013.058.063l-.058.06c.018.06.036.118.058.179h-.058v.063l.058.056c-.058.042-.121.087-.181.123v.244c-.085.139-.217,0-.3.3m20.444-1.388v-.123h-.181v.06h.058c.069.072,0,.022.123.063m-23.1.06v.183h.119v.179c-.242.027-.212.1-.479.118-.087-.154-.107-.1-.123-.358.06-.022.123-.045.181-.063v-.06Zm2.531.06c.072.072,0,.022.121.063-.069-.072,0-.027-.121-.063m23.458.3c.042.165.016.132.183.179.018.1.04.206.058.3h-.058v.06a.4.4,0,0,0-.244.063V654.1c-.282-.114-.519-.349-.78-.423-.025-.1-.042-.2-.065-.3a.73.73,0,0,1,.3-.06v.06c.2.056.4.119.6.179m-2.654.362c.06.32.011.21-.058.481h-.3c-.054-.206-.125-.152-.179-.362h-.241v.06c-.333.083-.356.333-.6.485.02.056.04.119.06.179h.06c.04.114-.031.183-.06.242h.06c.092.107.163.112.364.121v.118h.179v.183h-.06c-.179.21-.5.083-.722.056-.063-.078-.123-.156-.181-.239a3.862,3.862,0,0,1-.246-.72h.065a.741.741,0,0,1,.239-.485h.06v-.119l.241-.183v-.06c.1-.069.139,0,.241-.118a1.638,1.638,0,0,1,.722.06v.058a.88.88,0,0,0,.362.244m1.451.783a2.182,2.182,0,0,0-.123-.3h.06v-.056h.181v.056h.3a.406.406,0,0,0,.179.183v.119a.522.522,0,0,1-.42.121c-.069-.1-.04-.083-.179-.121m-19.6-.179c.067.069.022,0,.058.116h-.058Zm14.231,1.087v.118h.058v-.058h.063c-.069-.074,0-.025-.121-.06m-27.2.179c.031.027.076.11.181.06v-.06Zm.3.239c.069.072,0,.027.121.063-.067-.065,0-.027-.121-.063m10.613.6c-.058.018-.121.04-.181.06l-.058-.06a.991.991,0,0,0,.058.118l-.121.065c-.02.058-.038.123-.058.179h-.063v.063h-.244c.025.038.043.078.063.116h-.118v.063h-.3v.125c-.2-.025-.4-.042-.6-.065-.074-.127-.136-.132-.181-.3-.181-.047-.159-.038-.181-.244h.065v-.058a1.965,1.965,0,0,0,.418.058v.123a1.112,1.112,0,0,0,.423-.058v.058h.06c.02-.058.04-.123.058-.181h.121c.025-.042.043-.083.06-.121h.063c.181-.25-.047-.394.42-.42v.058c.076,0,.107-.105.244-.058v.058c.058.02.118.042.179.06q-.06.184-.121.362m19,.729v-.125c.284-.076.241-.259.6-.3.072.065,0,.022.121.056-.02.04-.038.078-.06.119h.121c.067.078.049.161.058.306-.067.069-.022,0-.058.116H358.5c-.065.264-.277.25-.42.425-.063-.018-.123-.04-.183-.063v.063a1.6,1.6,0,0,1-.843-.123c-.072-.065-.025,0-.063-.118h-.181c-.058-.083-.119-.161-.181-.239h-.056v-.306h-.063a.54.54,0,0,1-.063-.3c.105-.018.2-.04.3-.058.049.065-.009.009.058.058a1,1,0,0,1-.058.121c.358-.127.364.141.481.425a3.5,3.5,0,0,0,.423.06c.02-.045.04-.083.06-.119Zm9.891,4.154c-.042.2-.083.4-.123.606-.139.123-.282.237-.42.362-.022.04-.043.074-.063.118-.081.022-.159.04-.239.06l-.121.123h-.121c-.02.04-.04.083-.063.118H366.4v.06h-.123v.06h-.179v.063h-.242a1.9,1.9,0,0,1-.906.118v-.063c-.159-.042-.315.063-.358.063v-.063h-.244c-.2-.065-.246-.161-.543-.179-.114.161-.262.136-.42.241-.042.06-.083.121-.121.183h-.181c-.02.042-.04.083-.063.121h-.241v.058c-.078.02-.159.038-.239.065v.056l-.425.063v.056h-.121v.06l-2.589.3a4.126,4.126,0,0,0-1.087-.239v-.123c-.1-.018-.2-.04-.3-.056l-.06-.118c-.1-.027-.2-.045-.3-.065-.058-.081-.118-.163-.181-.241q-.121-.027-.241-.061c-.1-.123-.2-.241-.3-.362h-.06v-.179c-.076-.174-.1-.241-.3-.3V662.3c-.342-.038-.2-.148-.36-.239h-.123c-.056-.206-.192-.275-.306-.42h-.056v-.183h-.062c-.016-.06-.04-.119-.06-.179h-.121c-.025-.306-.157-.293-.239-.485l-.063-.423c-.058-.04-.119-.078-.179-.123-.02-.056-.042-.116-.06-.174h-.06c-.022-.183-.043-.362-.06-.546h-.063v-.239c-.04-.022-.081-.045-.118-.062v-.239c-.027-.083-.043.022-.063-.063h.063v-.06h-.063v-.183h-.058v-.239h.058c-.02-.063-.038-.119-.058-.179.038-.018.08-.04.121-.063s-.177-.11-.181-.118c-.031-.056.123-.074-.06-.244v.06h-.121l-.119.123c-.022.06-.042.123-.063.179a1.234,1.234,0,0,1-.121.063v.116c-.04.022-.081.045-.121.063-.04.121-.078.239-.121.362-.038.02-.081.038-.123.06v.183a1.56,1.56,0,0,0-.119.961h.058v.239h.06c.022.083.042.163.065.246h.058v.179h.06l.06.244h.058v.239c.063.04.123.08.183.123v.118h.063c.074.143.045.34.119.481a.667.667,0,0,0,.121.06v.239c.043.027.078.045.121.067.02.078.038.161.058.239.045.022.08.04.123.058v.183c.04.02.08.042.121.06v.118c.038.022.083.038.121.06v.123c.04.018.078.038.121.056v.123a.973.973,0,0,0,.119.061v.123c.042.022.083.038.121.06.114.154-.063.11.181.179a.492.492,0,0,0,.121.241h.06c.02.06.042.121.063.183.038.02.081.038.116.056v.183c.065.04.123.078.183.118v.183h.063l-.063.481h.063v.06h-.063l.063.241h-.063v.3h-.06c.02.141.042.279.06.42h-.06v.3h-.058v.239h-.065v.422h-.06v.183h-.056v.179h-.062c-.06.192.071.286.063.421l-.062.06c.016.031.1.013.063.123l-.123.06v.063h.06v.3h-.121c.022.06.04.116.06.179-.038.02-.078.038-.121.06v.3c-.04.02-.078.038-.121.06.02.156.042.324.06.481h-.06v.123h-.06a1.861,1.861,0,0,1,.06.179h-.06v.183h-.058v.358c-.042.022-.08.043-.121.06v.3c-.04.022-.083.038-.121.06,0,.083.056.105.06.246h-.121a2.18,2.18,0,0,1-.06,1.026v.358h-.06v.179h-.063v.183H354.7v.239h-.06v.485h-.063v.179h-.058v.123a.958.958,0,0,1-.121.056V674h.06c.163.239.6.309.9.418v.065h.3v.058h.179v.06h.423v.063h.181v.06c.262.018.521.038.785.06v.063h.241v.06h.063v-.06h.06v.06h.36v.056c.078-.018.159-.038.241-.056v.056h.241v.062h.239v.06c.042-.022.083-.04.123-.06v.06c.581-.022,1.165-.04,1.746-.06v-.062h.183v-.056c.123-.027.239-.045.36-.06v-.063c.121-.109.054-.134.123-.244.036-.018.078-.04.121-.058l.058-.183h.058l.123-.362h.06v-.121h.06v-.237h.06c.022-.083.042-.161.06-.244h.063v-.179h.058v-.183h.058v-.179h.063v-.181h.058c.022-.083.043-.161.06-.244h.063v-.235h.06v-.188h.06c.018-.163.038-.32.06-.481h.063v-.358h.058v-.123h.06c.078-.362.159-.724.239-1.087h.123a2.4,2.4,0,0,1-.06-.966c.013-.083.065.027.06-.06h-.06v-.6h.06l-.06-.119h.06c.018-.34.042-.684.058-1.026h.063v-.179h.06v-.06h-.06v-.244a1.237,1.237,0,0,1,.722-.118c.2.179,1.364,0,1.57-.06V666.4h.664v-.056h.237v-.063h.183v-.06h.181v-.06h.181V666.1h.241v-.065l.237-.056v-.063c.145-.02.286-.038.427-.06v-.06c.081-.018.159-.04.239-.058v-.06h.121c.02-.045.045-.083.06-.123h.121c.02-.038.043-.083.058-.121h.121c.043-.058.083-.118.123-.179h.121c.02-.045.04-.08.063-.123h.118c.02-.036.038-.078.058-.118a1.742,1.742,0,0,1,.183-.06v-.063a.664.664,0,0,1,.3-.179c.04-.179.065-.2.239-.244.063-.228.177-.188.241-.42h.121c.063-.284.123-.563.179-.845h.065v-.481h.056v-.367h.06c.049-.181-.092-.376-.116-.481.018-.058.038-.118.056-.179h-.056v-.36h-.065v-.422h-.056v-.244h-.06v-.241h-.063v-.183h-.058v-.116h-.063v-.123a.849.849,0,0,1-.119-.06v-.237h-.063c-.018-.083-.038-.161-.06-.244h-.058v-.179h-.063v-.123h-.06c-.022-.056-.04-.118-.058-.179h-.119v-.123c-.085-.06-.163-.123-.246-.183v-.119c-.078-.06-.159-.121-.239-.183-.02-.078-.04-.157-.058-.235-.1-.083-.2-.161-.306-.246v-.121h-.058c-.08-.087-.029-.078-.181-.118v-.123h-.121v-.116c-.1-.022-.2-.04-.3-.058v-.125c-.262-.072-.179-.2-.487-.242v-.121c-.058-.018-.116-.04-.179-.058v.123h-.058v.056h.058l-.058.179h.058v.063h-.058v.06h.058v.481h-.058v.485h.058v.06c-.058.022-.119.038-.181.056l.063.123c-.007.031-.083.013-.063.119H367v.244h-.063c-.02.161-.038.32-.058.485a2.423,2.423,0,0,0-.181.418,1.577,1.577,0,0,1,.6.664c.042.022.085.04.125.063.04.121.078.239.121.362h.058c.04.179.08.362.123.541-.042.018-.083.043-.123.06v.058Zm-1.751-.543h-.121c-.04.168-.076.141-.121.306h-.116c-.025.1-.042.2-.067.3h-.056v.118c-.06.02-.121.038-.183.061-.018.06-.038.118-.06.179h-.06c-.036.065-.08.123-.121.183h-.121c-.018.04-.04.083-.06.123h-.116a1.8,1.8,0,0,0-.121.179h-.183c-.058.206-.071.114-.181.239h-.06v.123h.06v.06h.181c.177-.139.7.114,1.026,0v-.06h.123v-.06h.181a1,1,0,0,1,.056-.123h.183v-.06h.181v-.058h.121v-.06h.118a1.039,1.039,0,0,1,.06-.123c.141-.1.282-.2.42-.3.022-.284.042-.563.063-.847a8.573,8.573,0,0,0-.425-.964c-.118.029-.049-.009-.118.056-.125.105-.148.228-.239.367-.043.018-.081.036-.123.058v.121h-.058l-.063.179m-31.295,1.272a1.5,1.5,0,0,1-.3.9v.183c-.058.04-.119.078-.179.123-.022.3-.042.6-.063.9h-.06v.118h-.058c-.02.143-.042.284-.06.423h.118a.6.6,0,0,0,.06.3h.063v.241h.06v.546h.06v.481h-.06v.239h-.06v.244h-.063v.362h-.06v.481h-.058v.179h-.06c-.02.206-.042.4-.06.608h-.06c-.063.192.02.376-.063.541v.06h.063v.3h-.063v.123h-.058v.546h-.058c-.025.219-.042.436-.065.66h-.06v.123h-.058v.362h-.063v.239h-.058v.362h-.06v.362c-.04.022-.083.04-.123.062.025.038.04.078.06.116h-.121c-.038.2-.08.407-.118.6h-.06v.123h-.06c.02.06.042.121.06.179h-.06c-.022.1-.04.2-.058.3a2.3,2.3,0,0,1,.481.123h.543v.058h1.628v.065c.094.018.076-.105.118-.123h.3v-.06h.058v.06h.362v.058h.724v-.058h.181v-.06c.139-.04.161.051.239.06v-.06c.114-.04.045-.083.121,0s.027,0,.063.119h-.183a.776.776,0,0,1-.058.545v.179a.855.855,0,0,1-.121.06c-.022.183-.04.362-.06.546h-.06a1.089,1.089,0,0,0-.121.481h.06v.06c.226.027.731.2.845.119.288-.069.543-.588.6-.9h.121l.06-.367c.043-.018.081-.04.121-.058v-.244h.06v-.179h.06c-.018-.04-.04-.078-.06-.123h.06v-.121h.058V673.7h.063v-.119h.06c.022-.083.04-.161.06-.244a1.192,1.192,0,0,1,.121-.058v-.121h.058c.022-.123.042-.241.065-.362h.058v-.123c.036-.018.078-.04.121-.058v-.183h.06c.02-.06.04-.116.058-.179h.121c.1-.423.2-.845.3-1.266h.118c0-.362.1-.463.121-.787h.181v-.116c-.119-.036-.051,0-.119-.063h.181a1.566,1.566,0,0,1,0-.664h.06v-.239h.056v-.306h.067v-.418h.058a.148.148,0,0,0-.058-.179c-.02-.105.054-.105.058-.123v-.541h.058v-.123h.06c-.018-.038-.04-.078-.06-.118.007-.011.206.031.121-.065h-.06c-.034-.161-.114-.152-.118-.239.034-.058.112-.018.118-.118h-.06c-.02-.123-.04-.244-.058-.362h.058v-.3h.06v-.06h-.06v-.3h-.058c.018-.1.038-.2.058-.3h-.058a2.05,2.05,0,0,1-.058-.239h-.067c-.076-.206-.007-.288,0-.485-.056-.022-.116-.04-.179-.061a1.509,1.509,0,0,0-.181-.659c.105-.069.081-.04.121-.183H340.4v-.241h-.121c-.02-.121-.04-.239-.06-.362h-.058v-.121h-.06l.06-.181c-.04-.02-.081-.042-.123-.06v-.119c-.058-.02-.119-.042-.181-.06V662.6h-.121c-.018-.06-.038-.118-.058-.179-.081-.065-.161-.123-.239-.179v-.123c-.208-.056-.275-.192-.427-.3v-.06c-.119-.022-.237-.04-.36-.061v-.058a.9.9,0,0,0-.423-.183v.058h-.181c-.06.083-.119.161-.181.244-.1.018-.2.04-.3.06a.828.828,0,0,1-.058.118.745.745,0,0,1-.121-.06c-.02.042-.043.083-.06.125h-.241v.058h-.6v.06c-.042-.022-.083-.038-.123-.06v.06h-.242v.056h-.239v.067a10.193,10.193,0,0,1-1.205,0m3.919,4.82v-.119c.058-.02.118-.038.181-.06v.06h.058c-.051.067.007,0-.058.058v.06Zm-.183-.06c.067.029.107.116.121.121h.244a1.165,1.165,0,0,0,.058.119h.121l-.06.065v.058h-.3v-.058h-.183c.051-.069,0-.011.063-.065a.552.552,0,0,1-.063-.239m.3.423h.121v.06c-.121-.033-.051.009-.121-.06m.181.362h-.118c.049-.069-.011-.009.058-.06v-.06c.069.069.025,0,.06.121m-.118.063h.118c-.049.065.009,0-.06.056v.06c-.069-.065-.027,0-.058-.116m.118.3h-.118c.049-.069-.011-.011.058-.06v-.06c.069.069.025,0,.06.121m-.3,0h.058v.181H338.6Zm2.292.722h.118v-.063h-.06v-.056h-.058Zm-2.475.06H338.3c.047-.065-.011-.009.058-.06v-.063c.069.072.025,0,.06.123m-.06.183h.123v.06c-.125-.034-.054,0-.123-.06m.06.9c.043.04.118.11.121.179,0,0-.078.058-.058.123l.058.06h-.3v-.06c.072-.069.025,0,.063-.123.036.022.078.04.118.063Zm.121.063h.121v.06c-.121-.04-.051,0-.121-.06m-.181.418h.123c-.022.06-.043.123-.063.183H338.3v-.06c.067-.069.027,0,.058-.123m-.121.3h.181a.693.693,0,0,1-.06.306H338.3c-.022-.1-.043-.206-.063-.306m-.118.664h.118v.06c-.118-.033-.051.009-.118-.06m-.063.847v.116a.449.449,0,0,1-.181-.116Zm2.171,1.082h-.118c-.036.293-.112.179-.181.42h.242a2.633,2.633,0,0,0,.42-1.2h-.06v.058c-.139.123-.045.134-.121.3h-.058c-.042.139-.083.284-.123.423m-2.29-.3h-.121c.049-.069-.009,0,.058-.06v-.06c.069.074.025,0,.063.121m1.869-.121c.065.1.036.083.181.121a.5.5,0,0,0-.181-.121m-2.234.121c.063.018.121.04.183.063-.034.121.007.051-.063.121v.058c-.121-.036-.049.009-.121-.058h-.058c.02-.06.043-.121.058-.183m-.179.063h.121v.06c-.121-.036-.051,0-.121-.06m.422.3c-.262.031-.161.089-.422.123.069-.069,0-.027.121-.06V673.4a.536.536,0,0,0,.3-.119Zm-4.646.543c-.038.121-.078.239-.119.362a.654.654,0,0,1-.121.056v.306a.989.989,0,0,0-.118.06c-.02.078-.043.161-.063.241-.04.02-.081.038-.119.06.009.065.119.17.058.3-.043.018-.081.038-.123.056v.123h-.058v.183h-.058v.6h-.065c-.036.118-.078.237-.118.358h-.06v.123h-.06v.179a.762.762,0,0,1-.119.063v.121h-.06c-.063.264-.123.525-.181.783h-.063v.123a1.776,1.776,0,0,0-.242.483h-.118a1.131,1.131,0,0,1-.242.543v.121c-.042.018-.078.04-.121.058v.121h-.06v.123l-.121.119v.116c-.058.045-.121.085-.183.127v.119c-.04.022-.078.042-.119.06v.118c-.04.018-.08.045-.121.06.018.063.04.123.06.179a.772.772,0,0,1,.362.183l.058.123h.244v.058h.123v.06q.6.185,1.205.362v.123a1.48,1.48,0,0,1,.541.121h.3c.018.04.038.078.06.119.078-.009.105-.105.239-.056v.056h.123v.06l1.082.063v.06c.165.018.324.04.485.056v.067c.085,0-.025-.054.063-.067.157-.011.179.067.179.067a.8.8,0,0,0,.362-.067v.067c.266.043.478-.067.6,0,.127-.009.409-.2.6-.123.022.04.04.078.06.123h.121c-.047-.067-.074-.067-.121-.123a3.591,3.591,0,0,0,1.265-.239h.483v-.063h.181v-.065h.241v-.056h.123V681.3h.239v-.06c.159-.018.32-.04.483-.056l.058-.123h.181l.063-.123h.119v-.06h.179v-.06c.235-.114.414-.085.485-.365.177-.179.058-.474.121-.78h.06c-.02-.119-.038-.241-.06-.362h-.06v-.543h-.06v-.478h-.06v-.664c-.1-.351-.141-.847-.242-1.205v-.847h-.058v-.241h-.058v-.6h-.067v-.362h-.056v-.3h-.06V674H340.4c-.1.092-.353.065-.543.06-.02.06-.04.123-.058.179h-.063v.123h-.058v.179h-.06v.123h-.063v.183H339.5v.179h-.058v.121h-.065v.118c-.036.022-.08.04-.118.06-.02.081-.04.163-.06.241a1.031,1.031,0,0,1-.121.06v.242c-.038.02-.081.042-.121.06-.148.235-.045.38-.423.423v1.022h-.058c-.022.085-.043.168-.063.246h-.06v.179H338.3v.123h-.063v.121c-.141.1-.282.2-.42.3v.118a.492.492,0,0,0-.244.121v.058h-.179c-.02.042-.043.083-.06.121h-.121v.063c-.08.022-.163.038-.241.06v.058h-.181v.065h-.3v.056h-.063v-.056h-.06v.056h-.06v-.056c-.121-.027-.074.027-.121.056h-.06v-.056h-.239c-.02-.04-.04-.083-.063-.123-.181-.038-.36-.083-.541-.123v-.121h-.121v-.118a.819.819,0,0,1-.244-.179h.183c.02-.123.043-.244.06-.367-.06-.018-.121-.04-.183-.056a6.792,6.792,0,0,1,.063-.91h.242v-.116c-.085,0,.025.047-.06.061-.054.114-.06-.123-.06-.123h.121a1.167,1.167,0,0,1,.181-.179c-.022-.038-.04-.083-.06-.123h.06c.04-.116.078-.239.118-.362h.181c.047-.165.02-.134.181-.179v-.121c.228-.063.186-.159.483-.181v-.121H336.3v-.123h.121v.065c.04,0,.391-.065.543-.065v-.056c-.165-.123-.094-.2,0-.362h.06v-.062h-.06c.02-.1.04-.2.06-.3a.326.326,0,0,1-.241-.123h.181v-.058h-.121v-.121c.121-.018.241-.04.362-.063v-.116c.06.018.121.033.181.056-.072-.192.058-.161-.242-.179v.06c-.038.018-.081.04-.121.063v-.123c-.161.022-.32.04-.478.06v.063h-.186v.056h-.06v-.056h-.181v-.063a.17.17,0,0,0-.181.063c-.154.025-.181-.063-.181-.063h-.845v-.06c-.579-.018-1.163-.04-1.748-.06m5.791.3c.069.072,0,.027.121.063-.072-.072,0-.027-.121-.063m-.121.365c.1.13.121.121.121.121.045-.056-.1-.109-.121-.121m15.861,0v.6h-.06c-.007.031.1.224.06.362h-.06v.3h-.063v.66h-.058v.065h.058v.3h.063v.056l-.063.063h.063c.018.105.038.2.06.3a1.254,1.254,0,0,1,.181.6H355c.018.1.038.206.06.306.06.016.119.038.181.06v.118c.058.018.118.038.179.061v.06h.121v.058c.286.1.47-.206.6-.3v-.06c.118-.022.241-.045.362-.063a1.009,1.009,0,0,0,.36.241.754.754,0,0,0-.06.244h-.119v.119h-.181v.118c-.063.025-.121.042-.181.065-.063.078-.116.156-.181.239h-.121c-.04.058-.083.119-.118.179-.065.022-.125.045-.181.063v.116c-.168.045-.136.018-.183.179h-.121c-.04.067-.078.127-.121.185h-.121c-.058.083-.119.166-.179.239h-.121c-.022.045-.043.083-.06.123H354.7l-.181.239H354.4c-.02.045-.04.078-.063.123h-.118c-.058.083-.121.161-.181.239h-.123c-.036.063-.078.123-.118.183h-.183c-.078.1-.157.2-.237.3h-.123l-.244.306h-.177c-.022.038-.042.078-.063.116h-.121a1.243,1.243,0,0,1-.058.123h-.123c-.018.04-.04.078-.06.123h-.119c-.02.038-.04.083-.06.119-.06.016-.121.042-.181.06v.06a.483.483,0,0,1-.242.119v.123h-.118c-.206.221-.4.44-.6.664-.166.121-.239.069-.3.3-.284.076-.279.289-.6.362v.123c-.105.058-.206.118-.3.179-.02.058-.042.123-.065.179h-.119v.123l.485.546c.056.018.118.04.179.056.018.1.04.2.058.3h.063a1.036,1.036,0,0,1,.058.123h.181c.083.1.161.2.244.3h.239c.081.029-.018.025.06.06-.022.036-.04.078-.06.118h.06c.067-.054,0-.04.121-.058V686c.076.038.034-.036.06-.058.17-.1.224-.291.362-.423.06-.018.123-.04.181-.06-.022-.04-.04-.085-.058-.123h.058c.04-.056.081-.118.121-.179.078-.022.161-.04.241-.063.04-.078.078-.156.119-.239.241-.188.577-.257.666-.606.338-.072.409-.311.78-.36v-.183h.063c.029.027.076.114.183.063v-.063h.058v-.056h-.058c-.06-.1.085-.051.119-.06v-.063h.181c.018-.038.038-.078.06-.116.121-.022.239-.045.362-.063v-.121c.1-.022.2-.04.3-.063l.063-.121h.179v-.058h.121v-.06h.121v-.06h.118a1.184,1.184,0,0,0,.06-.119h.123v-.063l.724-.244v-.119a.475.475,0,0,0,.239-.121v-.058c.123-.022.244-.043.365-.061a1.049,1.049,0,0,1,.06-.123c.078-.022.161-.038.241-.056.038-.067.078-.123.119-.183h.121v-.063h.121v-.06c.06-.022.123-.04.183-.056.072-.25.038-.083.179-.183.018-.04.04-.083.06-.123h.121c.022-.04.04-.083.06-.119h.119c.262-.279.523-.563.787-.847.139-.116.282-.239.42-.358v-.183c.08-.06.161-.123.241-.179v-.123c.04-.02.08-.038.121-.06v-.119c.06-.038.121-.083.181-.121v-.119c.04-.022.078-.04.118-.065v-.181h.063v-.179h.06v-.121h.06c.022-.118.04-.241.058-.362h.065v-.123c.038-.018.078-.04.116-.056V677.8h.065c.018-.241.036-.481.056-.724h.06v-.179h.063v-.481h.06c.018-.224.04-.447.06-.664h.058l-.058-.425a3.138,3.138,0,0,0-.6.118H358.8v-.056c-.241-.022-.483-.045-.722-.062v-.06h-.425v-.056h-.3v-.063h-.3v-.06h-.425v-.06h-.3v-.062h-.239v-.056h-.362v-.06h-.3v-.063a1.843,1.843,0,0,0-.722-.121m-17.911.06h.125v.06c-.125-.034-.058,0-.125-.06m-.058.183h.119v.118h-.119Zm-.063,1.205v.118c-.195.047-.13.092-.362.121-.029.237-.123.275-.237.425H336v.118h-.06a3.022,3.022,0,0,0-.3,1.389,1.676,1.676,0,0,1,.181.06c.177.206.5.078.785.056.163-.248.528-.275.724-.478-.02-.045-.04-.085-.06-.123l.121-.06c.018-.081.04-.163.058-.241h.063v-.123a.941.941,0,0,0,.121-.056,2.632,2.632,0,0,0,.058-.9h-.121v-.123a1.3,1.3,0,0,1-.541,0v-.123c-.116-.02-.241-.038-.362-.056m-1.567,1.563c.031.031.074.114.181.063v-.063Zm25.81,2.176h-.123c-.031.293-.112.179-.179.418h-.118c-.15.255-.463.36-.546.664-.078.022-.161.04-.241.063-.02.1-.043.2-.06.3h.06c.141.233.362.233.6.362v.063h.121c.02.038.04.078.063.116l.42.067a.938.938,0,0,1,.058.116c.264.04.525.081.785.123a.965.965,0,0,1,.06.118l.666.06v.119a.7.7,0,0,1,.42-.056v.056h.483v.06h.06v-.06h.121v-.056h.961c.022-.04.043-.085.065-.123h.479c.022-.045.04-.078.063-.118.058.022.118.04.179.058v-.058h-.06c-.11-.061.123-.061.123-.061v-.063h.3v-.06c.125-.105.049-.125.125-.239l.116-.063v-.179l.123-.065c.038-.235.078-.481.119-.72h.063v-.063h-.063v-.479h-.3v.116c-.121.022-.237.045-.36.063v.06h-.483v.056h-.063v-.056h-.06v.056c-.085.013.025-.042-.058-.056-.058.018-.123.04-.179.056-.125.013-.125-.056-.125-.056-.058.018-.116.04-.179.056v-.056H363.5v-.06h-.42v-.063H362.9v-.06h-.3v-.056h-.119v-.063H362.3c-.02-.038-.038-.083-.06-.121h-.181v-.058h-.179v-.06h-.183c-.018-.04-.043-.083-.06-.123h-.183v-.06h-.116c-.042-.062-.085-.119-.121-.179-.192-.063-.271.23-.3.362m6.09,4.825c.081.018.159.036.239.056v.063c.163.042.485-.183.606-.242a2.256,2.256,0,0,1,.181-.541v-.423h.058v-.3h.06a1.332,1.332,0,0,0-.06-.541h.06c-.016-.4-.04-.809-.06-1.205h-.058c-.04-.145.058-.163.058-.246h-.058c-.022-.322-.045-.646-.063-.964h-.06c-.02-.105-.04-.2-.058-.3-.04-.022-.083-.04-.121-.061v-.118h-.06l-.063-.183c-.1.022-.2.043-.3.06v.056h-.116c-.022.045-.043.085-.063.127H367v.058c-.04.02-.083.038-.121.061v.239h.058c.083.168-.105.21-.118.3h.06v.183h.058v.058h-.058v.546c-.081.056-.161.121-.241.183v.3c-.011.027-.143.089-.181.183h.06v.063a1.214,1.214,0,0,0-.121.061c.02.074.04.156.06.241l-.06.056h.06v.123h.06c.045.139-.051.165-.06.244h.06v.118h.058v.3h.063v.244h-.063v.056h.063c.029.145-.054.159-.063.242h.063v.121h.06c-.02.123-.04.241-.06.36.045.092.172,0,.241.065a.991.991,0,0,0-.06.119h.06a.491.491,0,0,1,.121.244m-35.757-2.057c-.022.083-.04.165-.06.246h-.063v.179c-.042.02-.078.038-.121.061v.123c-.1.083-.2.161-.3.244v.118c-.04.02-.08.038-.121.06-.02.078-.04.156-.06.239-.04.022-.08.04-.121.063v.118h-.06a.483.483,0,0,0-.121.244h-.121c-.034.288-.112.174-.179.418h-.123c-.038.168-.076.136-.121.306-.078.018-.159.04-.241.056-.018.063-.04.123-.056.186h-.063c-.109.121-.114.183-.3.239v.179c-.016.036-.177.027-.121.183h.06a.449.449,0,0,0,.121.241h.06c.018.083.04.161.06.239h.058c.04.119.08.239.125.362.056.022.118.04.179.061v.179h.058c.042-.087.087-.074.123-.121v-.119l.181-.123v.123c.1-.022.2-.04.3-.06v-.118h.121c.02-.065.04-.123.06-.183.04-.018.08-.04.121-.06v-.179c.1.007.085.1.181,0a1.285,1.285,0,0,0-.063-.123c.063-.022.125-.04.183-.058v-.06h-.058c.018-.06.038-.123.058-.183H331c.038-.188.094-.128.121-.179v-.3c.038.018.083.04.123.062v-.123h.056c.1-.157-.056-.123.181-.183.045-.188.136-.219.181-.42h.123v-.121h.118v-.183a1.193,1.193,0,0,1,.362-.179v-.181h.06c.022-.065.042-.121.058-.183a2.077,2.077,0,0,0,.181-.116l.065-.179h.119c-.018-.083-.04-.163-.06-.246.08-.038.159-.083.241-.121-.054-.089-.118-.058-.118-.058-.036-.065.172-.17.179-.179v-.188c.168-.04.134-.013.179-.179h.123c.056-.11.085-.092.118-.239h.063c.045-.072-.056-.022-.063-.058.02-.061.04-.123.063-.183a3.786,3.786,0,0,0-1.507-.418c-.022.056-.043.116-.063.179-.04.018-.078.038-.118.06v.123c-.04.018-.081.034-.123.056v.123l-.118.119v.121c-.043.022-.081.04-.121.063-.018.029-.042.192-.06.235Zm7.054-.476c.036.163.078.136.118.3.17.049.136.018.183.179.067.074.022,0,.058.127h.123c.042.166.013.13.179.179v.118c.181.121.056.174.3.244.038.161.08.136.118.3.342.092.224.326.546.423v.118c.15.038.094.031.181.119h.06v.121a1.383,1.383,0,0,0,.483.246v.116a.475.475,0,0,1,.241.063v.06h.36v.06h.06c.049-.038-.02-.087.06-.06v.06h.121v.058c.2.018.4.042.6.065.02-.047.04-.083.058-.123h.121l-.058.123h.058v-.065c.183-.1.286.118.3.121.119-.016.239-.038.36-.056.049-.069-.007-.009.06-.065-.02-.1-.04-.2-.06-.3a1.045,1.045,0,0,1,.121-.06v-.3h.121v-.3h.121v-.123a.564.564,0,0,1-.121-.065c.02-.056.038-.118.06-.174h-.06c-.016-.152.107-.188.121-.3h-.06c-.045-.2-.083-.221-.3-.244v.06c-.1-.02-.2-.038-.3-.06v-.061h-.181v-.058h-.239c-.043-.06-.081-.121-.121-.179h-.183c-.02-.043-.04-.083-.058-.123h-.118v-.065a.553.553,0,0,0-.244-.118v-.116h-.121v-.123c-.237-.065-.2-.174-.362-.3V681.9h-.118v-.123a.927.927,0,0,0-.543-.123v.063c-.042-.022-.083-.04-.123-.063-.02.04-.038.08-.058.123h-.3v.056h-.239v.067h-.3v.056h-.362v.06c-.219.04-.443.081-.662.123m19.959-.362c.067.069,0,.022.121.056-.069-.065,0-.02-.121-.056M347.4,684.615h.121a.932.932,0,0,0,.058.423h.058c.031.078.027.3-.058.3v.06h.119c.025.105.042.2.063.3l.119.06c-.02.063-.038.123-.056.183.036.018.078.036.119.058v.123H348v.179h.06v.121h.06v.179a1.219,1.219,0,0,0,.121.063v.121h.058c.06.087.054.15.06.3.25.065.065.036.186.179h.058v.063c.141.116.112-.067.179.183h.063v.174h.239v.125c.11.058.094.085.242.123v.056h.3c.192-.217.514-.2.6-.546h.123c.134-.226.322-.3.36-.659a1.113,1.113,0,0,1-.239-.362v-.183h-.063v-.116c-.078-.063-.161-.123-.237-.181-.022-.083-.045-.161-.063-.244l-.183-.118v-.121c-.056-.04-.121-.085-.179-.123v-.118c-.081-.061-.159-.123-.244-.179a.887.887,0,0,0-.056-.123h-.123c-.02-.038-.04-.083-.06-.121-.1-.083-.2-.163-.3-.242-.018-.078-.038-.161-.056-.239h-.06c-.043-.224-.083-.44-.121-.664h-.063c-.016-.1-.038-.2-.058-.3-.04-.02-.081-.038-.123-.06v-.123c-.163-.293-.306-.619-.722-.664-.029.076-.022.154-.062.246h-.06v.179h-.058c-.022.078-.04.157-.058.239h-.065v.183H347.4c.02.04.038.078.056.123H347.4c-.043.118-.083.235-.123.353h-.06v.065h.06v.241h.063c.013.074-.114.11-.063.239h.063a.565.565,0,0,1,.06.246m-3.258,2.227c.02-.1.04-.2.056-.3h.065v.056h.179c0-.143-.058-.179-.058-.239.038-.069.058.027.058-.06-.034-.049-.087.02-.058-.063.038-.018.08-.034.118-.056-.02-.123-.038-.241-.06-.362h.121v-.063h-.06c.016-.105.11-.092.121-.121v-.119c.063-.018.123-.04.183-.06.036-.365.078-.727.121-1.089h.058v-.121h.058c-.018-.119-.036-.237-.058-.36a3.344,3.344,0,0,0-.058-1.205c-.181.018-.364.04-.543.063-.13.206-.351.208-.423.481-.13.148-.11.449-.181.662h-.06c.02.04.04.085.06.123h-.06c-.02.156-.038.32-.063.481H343.6v.3h-.063v.121h-.063c-.038.123-.078.241-.121.364-.04-.022-.078-.045-.118-.062v.062h-.06v.056h.06v-.056c.1-.072.058.148.06.179-.429.253-.143.432-.241.843H343c.02.042.04.078.06.121,0,0-.076.009-.06.123h.06v.056a.119.119,0,0,0-.06.123h.06v.061H343v.058h.06a.711.711,0,0,1-.06.423h.123v-.06c.119-.022.237-.04.358-.058.022-.038.043-.083.063-.121h.362v-.063c-.121-.033-.054.009-.121-.056l.362-.065m5.245-3.018v-.118h-.06v.063h-.06c.067.069,0,.025.121.056m-22.432.065h.116v.063c-.116-.036-.047,0-.116-.063m18.331.3h-.121c.049.065-.009.009.06.058v.065h.06Zm-18.215,3.559c.065-.022.125-.04.186-.065v.065c.069.069.022,0,.063.119a1.547,1.547,0,0,1,.418.183c-.016.2-.063.239.123.358v-.056H327.8c-.188,0,.183-.062.183-.062v.062c.118.016.239.038.36.056v.06a.4.4,0,0,1-.241-.06v.06h.063v.067h.478c.043-.067.083-.127.123-.183h.06v-.123a1.225,1.225,0,0,0,.121-.063v-.116a2.08,2.08,0,0,1,.181-.118c.018-.083.04-.165.06-.248a.832.832,0,0,0,.121-.058v-.239h.063v-.06h-.125v-.063c-.118-.1-.239-.2-.36-.3v-.121a1.218,1.218,0,0,1-.121-.058v-.239l-.123-.065V686.3c-.056-.081-.136-.009-.237-.063-.183-.083-.3-.139-.362-.358h.121c-.072-.119-.081,0-.121-.06v-.063h.058v-.3h-.058v-.123h-.06c-.02-.1-.04-.2-.063-.3-.058-.047-.121-.083-.181-.123-.118-.165-.067-.239-.3-.3v-.123c-.264-.065-.282-.17-.664-.179-.139.148-.139.038-.3.119v.06h-.121v.06c-.165.141-.016-.009-.121.179h-.058v.123h-.063v.481h-.06a2.352,2.352,0,0,0,.123,1.087c.038.018.076.04.121.058v.121c.058.045.119.083.179.123v.119c.063.042.118.083.186.121.018.085.036.163.056.242.042.022.081.042.121.06a1.021,1.021,0,0,1,.237.485m16.165-3.018c.069.072,0,.022.118.063-.067-.069,0-.022-.118-.063m2.05.548c-.038-.145-.02-.114-.121-.186v.063h.06v.061h-.06c-.058.1.085.049.121.062m6.815.056c-.018.038-.04.083-.06.123,0,0,.174-.1.121-.123Zm-6.875.244v-.121h-.06v.06h-.058c.067.065,0,.027.118.06m-.42,0c.065.067,0,.022.121.058-.072-.067,0-.022-.121-.058m-.06.362c.069.067,0,.022.119.058-.067-.069,0-.022-.119-.058m-1.871,1.447c.069.069,0,.027.121.056-.069-.065,0-.02-.121-.056" transform="translate(-325.371 -649.755)" fill="#0070c3" fill-rule="evenodd"/>
</svg>
