<svg xmlns="http://www.w3.org/2000/svg" width="78.787" height="91.289" viewBox="0 0 78.787 91.289">
  <g id="Group_187" data-name="Group 187" transform="translate(-387.207 -82.372)">
    <path id="Path_1475" data-name="Path 1475" d="M413.255,123.1c.17-.017.347-.029.517-.044-.006-.058-.006-.116-.015-.172l.346-.031c0-.06-.01-.114-.014-.168.178-.017.346-.031.521-.044-.008-.062-.01-.12-.015-.18.234-.017.461-.035.7-.054-.008-.058-.012-.116-.014-.174.114-.008.232-.017.344-.029,0-.054-.006-.118-.015-.174.176-.012.347-.027.523-.042-.008-.056-.013-.116-.017-.172.176-.014.347-.027.527-.039a1.344,1.344,0,0,1-.015-.178l.346-.029c.044-.118.1-.237.143-.359.114-.006.23-.015.349-.027.1-.183.2-.365.3-.55.12-.015.23-.019.349-.029,0-.058-.008-.114-.014-.17.116-.006.23-.017.346-.027l.322-.376c.108-.014.226-.019.34-.031.208-.305.419-.614.625-.919.319-.317.649-.641.967-.956.1-.18.207-.363.307-.544.118-.014.236-.021.346-.029.05-.124.1-.241.147-.361a5.632,5.632,0,0,1,1.3-1.154l-.039-.519c-.12.012-.234.019-.349.027-.075-.166-.145-.336-.214-.5-.054,0-.116.008-.174.014-.012-.12-.021-.236-.031-.347-.118-.052-.239-.1-.359-.149-.029-.344-.056-.695-.083-1.039-.12-.048-.241-.093-.365-.145a4.168,4.168,0,0,0-2.2-1.392q-1.332,1.853-2.67,3.706c-.112.012-.232.017-.346.025,0,.062.012.12.013.178-.222.079-.452.151-.678.23.006.056.01.114.014.174-.172.012-.344.027-.523.042.008.058.013.112.017.172-.172.017-.346.031-.521.046-.1.18-.2.361-.3.544-.284.085-.568.16-.851.245a1.707,1.707,0,0,0,.015.174c-.116.01-.234.017-.349.031.008.058.01.114.014.168-.116.014-.23.017-.346.029.006.056.01.118.014.174l-1.015.434c.006.054.012.112.016.172-.4.031-.809.066-1.21.1.006.056.01.116.015.17-.347.031-.695.058-1.04.087a1.355,1.355,0,0,0,.015.174c-.284.083-.571.158-.853.243.1.967.492.917.817,1.5.013.172.027.346.041.519.06-.006.116-.01.176-.014.085.344.172.685.257,1.027.124.046.243.095.365.143.006.118.021.232.027.347.324.38.645.763.961,1.143.176-.015.349-.027.521-.042,0-.056-.008-.112-.014-.174l1.7-.486C413.265,123.22,413.257,123.159,413.255,123.1Z" transform="translate(19.728 27.557)" fill="#fff"/>
    <path id="Path_1476" data-name="Path 1476" d="M414.831,117.332c.214.181.006.069.361.145.013.174.025.347.042.519.517.079.583.151.751.641.43.06.4.149.72.29,0-.058-.008-.116-.015-.176a3.329,3.329,0,0,0,.207-1.757.465.465,0,0,1-.216-.51c.058-.008.12-.012.174-.014-.013-.176-.031-.349-.042-.525l.176-.012q-.1-1.21-.2-2.425l-.679.23c0,.056.008.118.013.174-.583-.014-1.166-.025-1.747-.031a1.276,1.276,0,0,0-.386-.494c-.006-.058-.012-.116-.015-.172.056,0,.112-.012.17-.015.322-.614.473-.394.988-.776.046-.124.1-.241.145-.363.172-.015.344-.025.515-.042.1-.183.207-.365.307-.548.172-.015.344-.029.521-.042.1-.181.2-.361.3-.546.116-.008.23-.019.346-.027.261-.373.523-.743.784-1.112l.168-.017c-.006-.11-.017-.23-.027-.344.12-.008.236-.019.349-.029a3.241,3.241,0,0,1,.6-1.268c.11-.071.22-.135.33-.2a6.741,6.741,0,0,0-.093-3.309c-.058.008-.116.012-.172.015-.012-.118-.023-.234-.031-.347-.058,0-.114,0-.172.012-.071-.168-.143-.336-.216-.5a2.2,2.2,0,0,0-1.346.633c-.118.008-.23.017-.351.029.006.06.015.11.019.174a2.544,2.544,0,0,1-.984.774c-.042.237-.075.473-.116.71-.118.01-.232.019-.348.027.087.34.172.687.261,1.027l-.178.014c.006.058.01.114.017.172q-.515.127-1.029.263c-.039.23-.079.471-.118.7-.116.068-.22.137-.332.2.013.17.031.346.039.515-.052,0-.108.012-.166.017.01.116.015.228.025.346-.058,0-.112.012-.176.015.01.114.023.23.031.346-.056,0-.114.008-.176.014.01.116.021.232.031.346-.056.008-.12.012-.178.015.041.4.068.809.1,1.214C413.457,113,413.414,116.552,414.831,117.332Z" transform="translate(24.561 19.89)" fill="#fff"/>
    <path id="Path_1477" data-name="Path 1477" d="M422.352,115.639c.12-.008.234-.015.344-.025,0-.058-.006-.114-.008-.172.11-.069.22-.137.332-.2-.023-.288-.046-.577-.073-.865.06,0,.118-.008.176-.012-.019-.178-.031-.349-.044-.525-1.658.17-3.662.508-5.054.064a10.086,10.086,0,0,1-.778-.986c.027-1.8.052-3.612.083-5.415-.056.008-.118.008-.176.015a1.6,1.6,0,0,0,.017.174c-.649.678-.168.874-.38,1.774l-.174.014c.012.174.029.347.042.521l-.176.015c.046.575.095,1.156.141,1.734a14.77,14.77,0,0,0-.222,3.679c.118.751.239,1.494.357,2.243-.058,0-.118.008-.178.012a1.447,1.447,0,0,0-.114.71c.178.044.355.085.535.129.062.11.135.224.2.332.855.357,2.224,0,3.133-.079.1-.181.2-.365.3-.55.062,0,.122-.008.176-.015-.008-.108-.015-.228-.031-.342.118-.071.224-.137.336-.2-.012-.114-.017-.23-.027-.347.108-.066.224-.135.33-.2-.01-.112-.019-.232-.029-.346.116-.071.226-.131.336-.2C421.933,116.258,422.142,115.949,422.352,115.639Z" transform="translate(27.133 23.379)" fill="#fff"/>
    <path id="Path_1478" data-name="Path 1478" d="M416.466,130.433c.344-.089.687-.174,1.027-.259,0-.056-.01-.116-.012-.172.114-.012.228-.021.348-.029-.008-.058-.014-.12-.016-.176.168-.015.344-.027.515-.041,0-.062-.01-.12-.013-.174.228-.077.456-.151.681-.234,0-.054-.006-.11-.015-.17.172-.014.349-.027.521-.042,0-.06-.01-.112-.013-.176.114-.006.234-.015.346-.023-.006-.062-.01-.122-.014-.174.172-.015.344-.027.517-.044,0-.058-.01-.114-.014-.172l.344-.025c0-.064,0-.122-.008-.18.172-.012.344-.027.519-.039,0-.058-.006-.118-.01-.174.106-.012.226-.019.342-.029,0-.058-.01-.118-.013-.176.112-.008.232-.015.344-.025a1.721,1.721,0,0,0-.013-.176c.34-.141.676-.29,1.013-.429q0-.087-.012-.174c.34-.089.683-.172,1.025-.257l.143-.361,1.015-.432c.046-.118.1-.237.143-.363.116-.01.232-.015.346-.027,0-.06-.01-.116-.013-.174q.51-.214,1.013-.432c.046-.118.1-.237.143-.361.118-.008.234-.017.349-.027.044-.118.1-.241.145-.363.11-.008.226-.015.344-.027.315-.432.627-.863.946-1.3.22-.131.444-.266.662-.4-.006-.114-.017-.23-.027-.347.116-.01.234-.017.344-.027-.01-.112-.021-.232-.031-.346.12-.01.237-.021.353-.025.044-.181.083-.361.127-.539.328-.315.645-.631.973-.952-.01-.116-.019-.23-.031-.346.114-.012.234-.019.344-.029a1.4,1.4,0,0,1,.3-.718c.056-.008.116-.012.174-.015-.01-.114-.017-.23-.027-.349.108-.066.224-.129.328-.2,0-.058-.012-.112-.015-.174.118-.062.224-.133.336-.2-.01-.116-.019-.234-.029-.347.22-.2.434-.382.652-.577.039-.234.079-.475.12-.708.16-.129.326-.261.488-.384-.006-.12-.015-.234-.027-.349.11-.068.22-.135.336-.2.031-.3.066-.589.1-.882.058,0,.114-.006.176-.012-.01-.12-.015-.23-.031-.344.058-.006.116-.014.172-.017-.01-.116-.019-.232-.031-.346.118-.07.222-.137.334-.2.039-.293.069-.585.106-.876.106-.07.222-.135.332-.2-.008-.116-.019-.234-.029-.349l.176-.012c-.012-.176-.031-.351-.044-.525.06-.006.118-.01.174-.014.041-.236.075-.469.116-.7.058-.006.12-.008.172-.014l-.052-.693c.056-.006.114-.01.172-.017-.01-.118-.021-.232-.029-.342.06-.006.116-.01.178-.014-.017-.178-.031-.351-.046-.527.112-.064.222-.133.338-.2-.013-.116-.021-.228-.031-.346l.168-.015c-.017-.23-.037-.456-.052-.689.06-.008.116-.012.172-.017l-.027-.349c.058-.006.116-.006.176-.01l-.046-.521c.06,0,.116-.008.176-.014-.01-.114-.019-.232-.027-.349.054,0,.112-.01.174-.014-.019-.174-.033-.347-.044-.521.056,0,.114-.012.172-.012.044-.93.081-1.867.122-2.8.058,0,.116-.012.174-.012-.048-.637-.1-1.27-.152-1.911,0,0,.222,0,.145-.353-.058,0-.122.006-.178.014.033-.351.06-.708.091-1.062-.054.006-.118.014-.176.017-.042-.575-.095-1.156-.137-1.734-.06.008-.114.012-.172.015-.031-.347-.058-.695-.087-1.037l-.172.01c-.031-.405-.066-.809-.1-1.208l-.178.01c-.091-.463-.187-.913-.282-1.373-.056,0-.118.012-.174.014-.008-.114-.017-.23-.025-.346l-.176.014c-.017-.172-.033-.346-.044-.519-.058.006-.11.01-.172.014-.1-.458-.193-.917-.286-1.373-.122-.046-.245-.095-.363-.147-.073-.224-.151-.454-.232-.68-.116-.048-.241-.1-.359-.145-.071-.224-.153-.452-.23-.678-.116-.052-.239-.1-.361-.147-.008-.114-.017-.23-.025-.347-.06,0-.118.012-.176.015-.013-.112-.017-.234-.027-.346-.185-.1-.365-.2-.546-.307a5.444,5.444,0,0,1-1.187-1.647c-.78-.143-.494-.38-.934-.8l-.546-.307c-.008-.116-.021-.23-.027-.346l-.55-.305c-.008-.058-.015-.114-.019-.174-.11.008-.228.019-.344.029-.127-.166-.255-.324-.382-.49a9.523,9.523,0,0,1-.929-.625l-3.313.095a1.34,1.34,0,0,0-.012-.174c-.17.012-.346.029-.517.042a1.5,1.5,0,0,0-.015-.17c-.23.019-.459.037-.689.054,0-.054-.012-.116-.014-.178-.12.014-.234.021-.349.031-.068-.112-.135-.22-.2-.332-.176.014-.347.029-.521.041,0-.058-.006-.114-.01-.17-.32-.05-.272.178-.334.2-.863.191-1.716.375-2.575.564a1.372,1.372,0,0,1-.01-.174c-.454.208-.9.421-1.347.631l-1.558.124c0,.06.008.12.012.176l-.521.042c.006.058.01.118.014.172-.17.017-.349.029-.517.044,0,.06.01.116.013.172-.691.114-1.376.232-2.065.347.006.056.01.116.013.17-.176.014-.347.027-.521.042,0,.06.008.116.015.176-.122-.052-.245-.1-.365-.151,0,.06.01.12.015.178-.745.116-1.49.237-2.236.357-.008-.06-.012-.116-.017-.172-.23.017-.459.037-.693.056,0-.06-.01-.118-.014-.178-.172.071-.338.145-.5.22-.124.678-.467.583-.6,1.266-.112.008-.226.019-.344.027a2.26,2.26,0,0,1-1.983,1.38c-.353-.405-.151-.208-.707-.112-.042.174-.089.351-.133.529-.114.012-.23.021-.346.031-.112.635-.413.587-1.174.618-.28-.282-.49-.288-1.066-.261a2.428,2.428,0,0,1-1.392,2.206c0,.06.008.116.015.174-.456.257-.8-.477-1.386.112-.06,0-.118.012-.172.015.01.172.025.347.041.521-.114.066-.224.133-.336.2.01.116.025.234.031.346l-.322.375c.012.116.023.234.029.349q-.168.1-.33.2c.012.17.023.344.039.517-.056,0-.11.008-.168.014-.5.7-.228.085-.836.415,0,.064.008.118.01.174-.116.012-.232.019-.347.029.008.058.01.114.017.176-.112.066-.224.135-.336.2-.3.55.344.417-.459.737a4.388,4.388,0,0,1-.57,1.614c-.541.027-1.293.023-1.546.3-.06.008-.114.012-.176.015.013.174.033.346.041.521-.056,0-.114.008-.172.008-.033.241-.073.475-.12.71-.052.006-.11.01-.168.014-.124.347.008,1.048-.253,1.243-.114.012-.23.019-.344.029-.181.208.006.068-.326.2-.129.652-.249,1.3-.373,1.95-.216.2-.434.388-.649.581.006.112.017.234.029.344-.058,0-.12.008-.18.014-.029.351-.054.707-.087,1.054-.056,0-.114.012-.17.017-.027.347-.062.7-.089,1.054a10.284,10.284,0,0,0,1.867-.674l.865-.075c0-.06-.01-.112-.013-.176.461-.035.921-.071,1.386-.11a17.621,17.621,0,0,0,1.776.378c.013.178.027.349.041.523-1.809.112-2.376.707-3.911,1.189-.261.429-.517.859-.776,1.288-.01.585-.019,1.164-.029,1.745a9.377,9.377,0,0,1,.459,1.361c.444.226.3.471.575.649.112-.008.228-.017.346-.027.008.058.013.118.017.174.222.151.344.095.544.307.4-.095.8-.185,1.2-.276l-.012-.174c.114-.008.23-.019.347-.027,0-.056-.008-.116-.015-.17.695-.062,1.388-.116,2.077-.172a2.242,2.242,0,0,1,.253.851,2.831,2.831,0,0,0-.99.776,9.819,9.819,0,0,1-2.776.226,1.639,1.639,0,0,0-.013-.168c-.405-.027-.82-.054-1.224-.075-.012-.122-.021-.234-.027-.351a3.809,3.809,0,0,1-2.969-2.2c-.035-.4-.066-.807-.1-1.21l-.185-.162a2.339,2.339,0,0,1-1.176.622c.461,1.3.911,2.6,1.367,3.9.062-.01.114-.014.176-.017.093.459.191.915.284,1.374.118.05.239.1.357.149.017.168.035.346.044.519.058,0,.116-.014.17-.015.083.222.156.454.236.68.058,0,.12-.012.172-.015.158.51.315,1.025.473,1.535l.178-.014c.071.22.152.448.228.68l.172-.014c.019.23.041.461.058.693.056,0,.114-.012.172-.015.147.334.29.674.432,1.008.122.052.237.1.361.149.073.226.156.454.228.678.118.052.241.1.361.145.077.288.164.573.247.851.172-.014.344-.025.517-.037.01.114.021.232.025.344.239.164.208.3.4.49l.17-.014c.01.116.017.232.029.349.3.147.606.3.909.45,0,.058.008.112.014.172.118.05.235.093.361.145.01.114.015.234.027.346.185.1.367.207.546.3,0,.058.008.12.014.174.112-.008.23-.019.347-.029.151.1.156.336.39.492.015.232.035.458.056.695a8.323,8.323,0,0,1,2.629.135c.068.11.135.22.2.332l.348-.027c0,.054.01.114.013.17.23-.015.461-.033.695-.056.008.064.01.118.014.176l.346-.027c.006.058.012.112.015.172l.867-.069c.006.058.012.114.015.172.172-.012.346-.027.519-.042.006.06.008.114.01.172.3-.025.583-.046.876-.069,0,.056,0,.118.01.174.17-.012.346-.027.519-.041,0,.056.01.114.013.172.239.041.477.079.7.122.008.052.013.108.019.17.172-.012.342-.027.515-.041.008.056.01.112.014.176.237.037.471.071.712.114,0,.052.01.114.015.168.172-.01.348-.021.517-.041.006.062.01.114.013.178.114-.012.232-.021.344-.031.008.06.014.114.019.17.17-.015.344-.027.519-.041.008.06.008.116.012.172.359.091.714.174,1.07.264,0,.058.01.118.013.178.118-.012.236-.019.347-.031.006.056.01.116.017.174.353.087.712.174,1.062.261.071.112.137.224.2.34.116-.012.232-.023.346-.033a6.4,6.4,0,0,0,1.8.726c-.012-.174-.025-.347-.039-.521A7.981,7.981,0,0,0,416.466,130.433ZM427.823,109.1c-.625.452-.243.237-.448.9-.064.008-.122.014-.178.017.017.228.039.461.052.691-.054.008-.116.012-.172.015.013.114.023.23.031.347-.114.064-.22.135-.332.2.014.174.027.347.044.519-.062.008-.12.012-.176.019-.05.116-.1.237-.147.355-.6.417-.6-.4-.824.589-.525.172-.322.288-.49.394l-.7.056a1.723,1.723,0,0,1,.019.174c-.266.2-.226.187-.519.042,0,.052.012.112.013.176s.008.11.015.17c-.06.006-.118.008-.178.014.006.058.013.116.015.172-.118.012-.232.021-.346.029.006.054.008.114.012.174-.118-.046-.241-.1-.359-.145.006.056.008.116.012.174-1.012.436-2.558-.042-3.668-.05-.01-.116-.021-.234-.027-.347-.483-.075-.413-.2-.9-.278-.079-.228-.154-.452-.23-.68-.062,0-.118.012-.172.015-.052-.633-.106-1.274-.154-1.907.172-.071.336-.145.5-.214.255-.28,1.008-.272,1.546-.3q.162.857.315,1.722c.734.326,1.046.753,2.15.7,0-.062-.01-.12-.017-.172.234-.023.467-.041.695-.058.052-.124.1-.243.147-.365l.351-.029c-.006-.058-.015-.116-.023-.17a1.912,1.912,0,0,1,.828-.593,1.559,1.559,0,0,1,.292-.722c.06-.006.116-.01.172-.014.037-.3.073-.587.108-.88l.172-.014c-.106-.575-.212-1.147-.313-1.718.392-.095.8-.183,1.2-.276-.006-.056-.013-.112-.015-.17.355.029.7.056,1.056.087A4.675,4.675,0,0,1,427.823,109.1Zm-4.289-14.135a2.138,2.138,0,0,1-.649-1.521,8.155,8.155,0,0,1,2.249-.185,1.88,1.88,0,0,1,.234.681C424.686,94.422,424.788,94.847,423.534,94.961Zm-2.013-5.423a10.692,10.692,0,0,1,4.454-1.064,4.809,4.809,0,0,0,1.407.237c.013.172.029.344.042.519-.052,0-.116.012-.174.015-.178.212.014.068-.326.2.008.116.017.234.027.344-.351.029-.695.06-1.042.083-.234.075.089.2-.158.193,0-.058-.01-.116-.014-.176-.407-.023-.82-.048-1.228-.075,0,.058.008.116.012.174-.172.015-.344.027-.517.042,0,.06.006.114.015.174-.122.01-.23.017-.346.029,0,.056,0,.114.01.174l-1.747-.033a2.255,2.255,0,0,0-.577-.651c-.006-.058-.01-.116-.013-.176Zm-4.3,9.422c1.492-.905,1.513-1.873,4.019-2.071a3.243,3.243,0,0,1,1.573.046c.317.324.635.649.952.971l.029.347c.058-.006.116-.012.172-.015.027.288.048.573.071.867.013.05.239.029.2.33l-.174.014c-.033.3-.07.589-.1.884l-.334.2c.015.176.029.347.042.519a1.6,1.6,0,0,1-.168.014c-.264.371-.527.739-.786,1.11-.118.008-.232.021-.348.029.006.056.008.118.016.178-.118-.05-.241-.1-.363-.147.006.056.012.114.015.176-.118.006-.23.015-.349.023.008.058.01.116.014.174-.353.135-1.052-.185-1.411-.234-.077-.224-.152-.452-.23-.681.274-.195.548-.39.82-.589.054-.12.1-.241.149-.361.164-.071.336-.145.508-.214.168-.264-.021-.407.286-.722a6.762,6.762,0,0,0-.3-1.546,1.719,1.719,0,0,0-.7-.118c0,.054.012.118.015.172-.234.021-.467.037-.7.06.006.06.01.114.017.176-.185.21-.069,0-.152.355-1.031.361-.651.9-2.178,1.05,0-.058-.008-.114-.014-.17-.116.01-.232.017-.346.029-.133-.164-.259-.33-.388-.494.054,0,.11-.012.172-.014C417.242,99.19,417.237,99.077,417.225,98.961ZM412.241,97.8c-.4.288-1.676.346-1.919-.017-.037-.467-.077-.927-.112-1.392.286-.075.566-.16.853-.241,0-.058-.006-.114-.015-.172l1.05.085c.317.452.514.39.625,1.174l-.494.388C412.235,97.677,412.237,97.737,412.241,97.8Zm.979-5.141c-.17.012-.342.025-.523.041.008.062.012.116.017.174-.633.05-1.266.1-1.905.154.008.06.012.114.016.178-.226.071-.452.153-.678.226-.05.122-.1.237-.147.359-.118.012-.23.021-.349.029-.046.122-.1.237-.143.365-.548.3-1.542.017-1.919-.021-.012-.114-.021-.234-.029-.347l-.172.012c.041-.172.085-.349.127-.531.17-.071.334-.143.51-.216-.006-.058-.008-.116-.015-.176.11,0,.228-.015.344-.027-.006-.058-.008-.112-.013-.17.172-.015.347-.027.519-.044.05-.12.1-.237.147-.361.114-.008.232-.019.351-.027-.006-.058-.01-.116-.014-.174.286-.023.573-.048.859-.069,0-.06-.008-.116-.01-.174l1.21-.1c.315-.048.33-.2.33-.2.585.014,1.17.023,1.753.037,0,.056.008.114.013.17l.172-.015c.015.174.029.349.041.525-.164.07-.334.139-.5.214A1.711,1.711,0,0,1,413.219,92.656Z" transform="translate(1.616 2.241)" fill="#fff"/>
    <path id="Path_1479" data-name="Path 1479" d="M427.035,116.462c-.017-.23-.035-.463-.058-.691-.056,0-.112.008-.17.008-.006-.108-.017-.23-.027-.344-.249-.154-.49-.309-.737-.463-.015-.176-.027-.346-.042-.519-.12-.05-.243-.1-.359-.147-.013-.11-.019-.232-.029-.344-.06,0-.116.008-.176.014-.029-.349-.058-.7-.085-1.039-.056,0-.11.008-.172.008-.035-.405-.068-.8-.095-1.21-.06,0-.122.006-.178.012-.05-.631-.1-1.268-.154-1.9l-.176.014c-.012-.116-.019-.23-.029-.347-.118-.048-.239-.095-.357-.143-.44-.589-.278-.973-.979-1.32-.044.18-.093.355-.131.537-.064,0-.12.012-.178.015-.066.234.114-.075.189.158a1.244,1.244,0,0,1,.014.172c-.058,0-.114.012-.174.017.013.176.027.347.044.521-.058.006-.118.01-.174.014.042.515.085,1.039.124,1.554-.056.006-.112.01-.174.017.01.06.014.118.017.174.056-.008.118-.012.176-.015.013.176.027.347.041.521-.06.008-.116.008-.176.014.012.116.021.232.031.349-.06.006-.12.014-.172.014.062.11.133.214.2.332q-.064,1.4-.122,2.8c-.166.45-.676.61-.969.952-.207.307-.415.614-.622.923-.112.068-.224.135-.332.2.008.118.015.234.025.351-.112.064-.224.131-.336.2.008.116.023.234.029.349-.214.191-.432.382-.649.575.008.112.015.23.029.346-.058.006-.114.012-.176.015.014.114.017.234.031.347-.114.068-.222.129-.332.2-.1.88-.212,1.761-.307,2.639.06-.008.114-.012.17-.014.085.28.162.571.247.851.118.048.235.095.357.143.016.176.029.349.044.523.247.154.49.309.736.461a1.269,1.269,0,0,0,.015.174c.288-.025.573-.044.865-.069.139.218.272.444.407.668.114-.008.228-.021.34-.031.008.056.01.118.014.176a12.37,12.37,0,0,0,3.338.249c.1-.18.208-.365.309-.544l.172-.015c-.01-.118-.021-.232-.031-.344.11-.075.224-.135.336-.207-.012-.114-.019-.23-.027-.344q.322-.292.651-.577c-.01-.12-.021-.234-.029-.351l.317-.373c-.008-.116-.017-.23-.023-.347a1.657,1.657,0,0,1,.166-.014c-.008-.114-.015-.232-.025-.346.062-.006.112-.01.176-.014-.01-.118-.021-.234-.027-.347l.168-.014c-.019-.232-.037-.465-.054-.695A8.287,8.287,0,0,0,427.035,116.462Z" transform="translate(29.712 23.888)" fill="#fff"/>
    <path id="Path_1480" data-name="Path 1480" d="M414.58,149.194c-.021-.232-.039-.461-.062-.693l.176-.014c-.021-.23-.039-.463-.058-.695.062,0,.12-.008.178-.013-.012-.114-.017-.23-.027-.344.056-.008.112-.012.172-.017-.069-.112-.137-.22-.2-.332.058,0,.112-.008.172-.013.013-.527.031-1.05.042-1.573.064-.006.118-.008.172-.013-.017-.292-.042-.583-.066-.871.944-4,.869-8.988,1.357-13.366a10.185,10.185,0,0,1,2.093,0c.01.118.017.232.029.347.4-.033.809-.068,1.216-.1.195.324.6.66.774.985.017.174.031.344.046.517l.17-.012.041.517c.12.052.243.1.361.147.081.226.156.452.234.681l.361.143c.01.114.015.232.025.346.185.1.365.207.546.3.081.226.156.458.23.683.187.1.367.2.548.3.008.118.021.234.031.351l.921.62c.075.172.147.334.22.508.112-.008.23-.017.342-.029a4.657,4.657,0,0,0,1.187,1.651c.176.1.363.2.544.305.143.336.288.67.432,1.01.18.1.361.2.55.305.01.116.015.23.027.344.182.1.363.2.55.305.008.118.017.232.023.347.43.255.857.51,1.286.77.008.112.019.23.027.346.639.114,1,.6,1.471.929a1.318,1.318,0,0,1,.012.174c.12-.014.235-.019.347-.031.135.166.263.332.394.5.531.129,1.067.259,1.6.39,0,.058.01.116.013.174.116-.012.23-.019.346-.031,0,.06.01.12.012.176.174-.014.349-.031.521-.044.068.116.137.226.2.336.116-.01.228-.017.346-.029,0,.056.01.116.013.172.174-.01.346-.025.523-.041.064.11.131.218.2.33.411.027.822.054,1.228.077a13.567,13.567,0,0,0,5.27.444c.465-.037.927-.077,1.39-.114,0-.056-.012-.116-.016-.172.174-.015.344-.029.521-.042-.008-.058-.01-.116-.017-.176.23-.075.454-.149.683-.23,0-.054-.01-.114-.017-.17.346-.091.685-.174,1.029-.261,0-.056-.012-.114-.015-.174.226-.075.459-.151.678-.222,0-.062-.006-.122-.01-.178.172-.015.346-.027.521-.042,0-.06-.008-.116-.013-.174.224-.075.45-.152.674-.232a1.728,1.728,0,0,0-.012-.174c.228-.075.456-.154.676-.23.05-.118.1-.241.149-.361.12-.01.23-.017.347-.031.044-.174.089-.351.131-.529.108-.068.22-.135.33-.2,0-.122-.019-.234-.027-.351.164-.131.328-.259.49-.39-.008-.116-.015-.228-.025-.346.214-.193.432-.38.651-.575-.012-.118-.017-.232-.027-.348.108-.066.222-.137.328-.2-.008-.116-.015-.228-.025-.344.112-.071.222-.135.334-.2.031-.293.066-.587.1-.882.056,0,.114,0,.172-.01-.01-.12-.017-.234-.029-.349l.176-.012c-.013-.116-.019-.234-.029-.347.06,0,.118-.01.174-.015-.008-.116-.019-.232-.031-.346.06,0,.122-.012.174-.012.042-.237.077-.475.114-.708.062-.008.12-.012.181-.015.039-.18.083-.357.127-.535l.334-.2c.068-.593.133-1.178.2-1.764.06-.006.116-.008.172-.012.031-.355.058-.707.089-1.056.058-.008.116-.012.172-.015-.008-.114-.017-.23-.027-.347.058-.006.12-.01.176-.012-.023-.29-.046-.577-.069-.871a1.553,1.553,0,0,0,.168-.013c-.019-.288-.044-.577-.069-.869.064,0,.118-.008.178-.012-.023-.288-.046-.577-.071-.869a1.67,1.67,0,0,0,.172-.014c-.015-.224-.037-.459-.056-.689.06-.006.116-.012.176-.015.191-.743-.212-2.2.124-2.8-.062,0-.12.008-.176.014-.008-.062-.01-.114-.013-.17-.346.025-.7.056-1.044.085a21.584,21.584,0,0,0-2.652-.485,8.535,8.535,0,0,1-.268,3.16c-.023.409-.052.82-.073,1.23l-.18.013c-.037.237-.075.471-.116.708-.052,0-.114.008-.17.015q-.11.791-.222,1.585c-.056.006-.114.01-.176.017a2.842,2.842,0,0,1-.317.371c.015.12.025.236.029.349-.114.064-.216.135-.33.2.008.114.017.232.029.349-.114.066-.222.133-.336.2-.042.18-.083.355-.129.533-.116.01-.232.023-.349.029-.1.181-.2.365-.3.548-.176.014-.347.031-.521.041,0,.058.008.116.015.17-.12.014-.234.021-.351.031.006.062.008.118.015.178-.172.014-.347.027-.519.042a10.266,10.266,0,0,1-4.639.9c-.006-.058-.01-.112-.014-.174-.465.039-.927.075-1.386.116-.006-.058-.01-.12-.014-.178q-.539-.127-1.069-.264a1.631,1.631,0,0,1-.015-.17c-.11.068-.218.137-.334.2,0-.052-.008-.114-.015-.17-.168.015-.346.029-.514.042-.008-.058-.01-.114-.019-.172-.176.012-.346.027-.519.039,0-.056-.008-.112-.013-.174-.116.008-.234.019-.346.031,0-.06-.012-.116-.017-.174-.114.012-.226.019-.34.029-.133-.164-.259-.326-.392-.492l-.519.041a1.241,1.241,0,0,1-.015-.172c-.176.01-.348.025-.521.041,0-.056-.006-.114-.013-.172-.118.01-.23.021-.349.025,0-.056-.012-.114-.014-.17-.112.01-.23.019-.342.031-.071-.114-.137-.224-.2-.336-.116.01-.234.017-.347.029-.066-.112-.135-.224-.2-.33-.114.008-.234.013-.351.025-.189-.218-.38-.434-.577-.652-.108.012-.228.019-.342.031-.384-.376-.759-.751-1.141-1.127-.122-.048-.239-.1-.357-.149-.01-.112-.021-.228-.031-.347-.181-.1-.369-.2-.55-.3,0-.114-.019-.23-.027-.347-.49-.361-.994-.732-1.485-1.1-.012-.114-.017-.23-.025-.347-.129-.044-.243-.1-.369-.139-.21-.513-.423-1.017-.643-1.521-.056,0-.114.01-.174.013-.073-.166-.145-.34-.214-.51-.181-.1-.367-.2-.55-.3-.013-.174-.029-.347-.041-.521-.118-.046-.239-.1-.363-.143-.071-.17-.141-.336-.21-.51-.062,0-.118.008-.176.015-.081-.286-.162-.569-.243-.853-.062.006-.12.014-.174.017-.015-.174-.033-.347-.042-.523-.056.006-.118.01-.17.017-.149-.338-.292-.68-.432-1.012l-.178.012c-.006-.112-.021-.234-.027-.346-.181-.1-.369-.2-.55-.307-.006-.114-.017-.23-.027-.349-.12-.044-.241-.095-.361-.143-.008-.11-.017-.234-.027-.346l-.17.014c-.012-.114-.021-.23-.033-.346-.06.01-.116.01-.172.017-.015-.174-.027-.351-.042-.525-.06,0-.12.012-.174.015-.006-.114-.019-.232-.027-.344-.12-.052-.243-.1-.363-.147q-.012-.171-.029-.347l-.172.012c-.01-.114-.019-.232-.031-.342l-.17.01c-.071-.168-.147-.336-.216-.506-.183-.1-.367-.2-.548-.305-.017-.172-.027-.346-.042-.519-.12-.048-.239-.1-.359-.143-.077-.226-.154-.454-.234-.681-.12-.05-.239-.1-.361-.145-.141-.34-.288-.674-.429-1.012-.182-.1-.367-.2-.55-.307-.071-.17-.143-.332-.214-.506-.371-.255-.737-.517-1.108-.782-.012-.114-.017-.234-.027-.347-.125-.044-.243-.1-.365-.143-.006-.116-.023-.234-.029-.347-.12-.048-.237-.1-.359-.145-.012-.114-.021-.23-.031-.347l-.172.014c-.006-.112-.017-.224-.027-.346-.156-.174-.753-.178-.894-.278a6.884,6.884,0,0,1-.622-1.166c-1.122-.106-1.585-.676-2.508-.846-.008-.12-.021-.232-.027-.349-.181-.042-.359-.085-.537-.131-.008-.056-.01-.11-.015-.17-.11.068-.222.135-.332.2-.068-.108-.133-.22-.2-.33-.118.01-.234.017-.342.029-.133-.166-.264-.328-.392-.494-.293-.035-.589-.068-.878-.1-.01-.056-.015-.118-.019-.174-.114.008-.23.021-.34.031-.071-.114-.141-.226-.207-.336-.353-.089-.716-.174-1.069-.263a1.584,1.584,0,0,1-.016-.17c-.228.014-.461.037-.687.056-.07-.116-.137-.222-.207-.336-.118.014-.234.021-.346.031,0-.06-.008-.118-.012-.17l-.353.025c0-.06-.01-.118-.015-.172-.222.015-.458.033-.685.054-.006-.058-.01-.118-.013-.176-.122.012-.232.023-.347.031-.008-.056-.012-.12-.017-.174-.174.014-.346.031-.517.041,0-.058-.012-.112-.015-.176-.118.01-.232.017-.349.029,0-.054-.006-.112-.01-.17-.112.008-.232.019-.346.027-.073-.108-.137-.218-.207-.332-.639-.01-1.28-.012-1.923-.017,0-.06-.01-.118-.013-.174-.286.021-.573.048-.865.073-.008-.06-.012-.12-.019-.178-.108.012-.224.021-.338.029a1.708,1.708,0,0,1-.013-.174l-.525.044-.015-.174a4.478,4.478,0,0,0-2.064.344c-.635.048-1.27.1-1.907.151l.012.178c-.282.075-.564.16-.853.241a1.414,1.414,0,0,1-.284.724,1.448,1.448,0,0,0-.17.014c-.041.292-.077.583-.108.882-.058,0-.12.006-.172.012-.031.351-.062.7-.093,1.052-.056.006-.114.006-.172.012.008.12.019.236.027.351-.056,0-.112.01-.174.015.016.174.031.346.042.519a1.221,1.221,0,0,1-.172.012c-.037.3-.068.585-.1.882-.06,0-.114.008-.172.014.01.118.017.232.025.349a1.668,1.668,0,0,0-.172.015c-.087.355-.17.707-.259,1.062-.062.008-.118.014-.178.017-.071.531-.145,1.058-.216,1.589a1.718,1.718,0,0,0-.172.014c.006.114.019.232.023.344-.058.006-.112.008-.178.017-.069.529-.139,1.06-.216,1.589l-.172.014.029.346c-.056.006-.116.008-.17.014-.274,2.351-.552,4.7-.828,7.052-.052,0-.114.006-.172.01.014.176.027.346.041.523-.056,0-.114.01-.172.015.017.226.041.459.058.689-.058.008-.12.012-.172.015.017.23.037.461.056.691-.06,0-.12.01-.178.012.023.293.046.581.071.873-.054.006-.11.008-.174.013.017.228.039.463.054.693l-.168.012c.017.234.035.463.058.7-.062.006-.118.008-.181.015.029.288.048.577.073.863l-.168.014c.025.347.056.7.083,1.042-.062.008-.12.01-.176.015.017.23.037.463.054.689-.054.008-.112.008-.172.015.033.4.068.811.1,1.212-.058.006-.118.01-.176.014-.023.471-.039.936-.058,1.4-.066,0-.12.012-.176.015.012.174.027.347.037.519a1.645,1.645,0,0,1-.168.013c.033.4.068.809.095,1.214-.056,0-.114.01-.166.017.029.4.066.807.1,1.212l-.172.014c.012.23.035.461.052.693.06,0,.118-.012.178-.014,0,0-.023,1.44-.05,1.575l-.172.012c.035.4.068.811.1,1.216-.06.006-.112.012-.176.015.013.17.029.34.044.515-.058.008-.114.012-.168.017-.029.467-.044.934-.068,1.4-.056.006-.114.01-.17.014.149,1.851.3,3.7.448,5.55-.363.23-.336.307-.751.384v.228h26.559v-.272A3.917,3.917,0,0,1,414.58,149.194Z" transform="translate(1.719 23.759)" fill="#fff"/>
    <path id="Path_1481" data-name="Path 1481" d="M436.244,103.471l.172-.012c-.006-.06-.01-.116-.012-.174-.058.006-.12.008-.172.012-.456-1.44,0-3.558-.371-4.508-.336-.855.106-1.633-.846-1.849-.006-.06-.01-.116-.013-.172-.411-.029-.82-.05-1.23-.077a1.669,1.669,0,0,0-.017-.172c-.11.012-.23.019-.344.025,0-.052-.01-.11-.012-.172-.234.021-.463.039-.7.058l-.012-.17c-.172.012-.347.025-.519.039,0-.056-.014-.112-.015-.172-.346.025-.695.052-1.042.081,0-.052-.01-.112-.01-.172l-.523.044c0-.058-.006-.116-.013-.174-.172.012-.346.027-.517.042,0-.06-.014-.114-.019-.174-.168.015-.34.027-.517.041l-.012-.172c-.878-.042-1.757-.093-2.627-.141,0-.054-.008-.108-.017-.168-.118.01-.232.015-.348.025,0-.054-.006-.11-.012-.174l-1.212.1c-.008-.054-.01-.116-.017-.174-.058,0-.114.008-.176.017.008.054.01.11.013.168-.226.019-.459.039-.689.056,0-.054,0-.114-.012-.17-.249-.029.012.015-.162.185-.3-.044-.253-.261-.376-.317-.245.019.081.127-.156.187-.23.019-.463.037-.7.054,0-.054-.006-.114-.013-.174-.108.068-.22.139-.332.2-.12-.046-.243-.1-.361-.149,0,.06.014.118.016.174-.353-.025-.707-.056-1.054-.087l-.012-.174c-.176.073-.34.147-.508.216,0-.054-.012-.118-.019-.174-.114.012-.228.019-.346.027-.006-.058-.01-.11-.013-.17-.461.033-.921.071-1.38.108-.162.247-.315.494-.469.736-.058,0-.118.012-.172.015l-.4,1.606c-.054,0-.112.006-.172.014.006.114.015.23.027.346l-.172.014c-.006.637-.016,1.282-.021,1.921-.054,0-.112.008-.17.014.008.114.021.232.027.347a1.719,1.719,0,0,1-.172.015c-.027.411-.044.819-.075,1.228l-.174.01c.033.349.056.7.085,1.042-.058,0-.116.012-.174.015.052.633.1,1.272.152,1.909-.058,0-.116.008-.172.01.027.292.052.577.071.869l-.176.012c.012.12.019.234.025.346-.052.006-.112.012-.166.015,0,.759,0,1.512.01,2.27-.172.807-.369,1.994-.469,2.828.934.015,1.029.5,1.965.539,0-.06-.012-.116-.015-.174l.174-.014c0-.7,0-1.4,0-2.095.06,0,.116-.008.174-.015-.041-.517-.083-1.041-.129-1.56l.172-.014c-.035-.458-.073-.923-.11-1.386l.176-.012-.012-.174c-.014-.031-.257-.044-.2-.334a1.757,1.757,0,0,1,.176-.014c-.013-.174-.031-.353-.044-.523l.172-.012c-.015-.172-.027-.346-.041-.519.056,0,.114-.006.176-.015q-.061-.692-.11-1.386c.05,0,.112-.01.172-.012-.033-.347-.06-.695-.085-1.041l.172-.017c-.01-.112-.023-.23-.027-.346.056,0,.116-.012.172-.015.044-.178.085-.357.127-.535.346-.085.681-.174,1.029-.255-.006-.062-.008-.122-.015-.176.347-.021.7-.052,1.041-.083,0-.06-.012-.112-.013-.174.347-.027.689-.056,1.039-.085q.006.087.017.174c.056-.006.114-.012.176-.014-.006-.058-.014-.116-.017-.176l2.282.166c0,.054.008.114.012.172.465-.037.923-.075,1.392-.114,0,.062.006.118.01.176.172-.014.351-.027.521-.046,0,.058.01.118.014.178l.523-.041a1.335,1.335,0,0,0,.015.172c.106-.071.22-.135.328-.2.008.058.012.116.016.174.168-.015.346-.029.521-.044a1.031,1.031,0,0,0,.013.172c.114-.01.23-.021.344-.029.008.062.01.118.013.174.332.083.237-.1.336-.2.247.015-.054.108.189.162.168-.015.342-.029.515-.046,0,.058.012.118.014.178.116-.008.232-.019.349-.027.006.054.01.114.013.172.359.095.809-.249.851-.243.071.11.131.22.2.332.239.042-.015-.044.158-.187.243.033-.05.1.185.162.237-.019.463-.039.7-.06a1.348,1.348,0,0,0,.012.176c.118-.012.23-.017.347-.029,0,.054.008.114.01.172.541.133,1.075.263,1.606.4a1.7,1.7,0,0,0,.247.853c.054,0,.114-.012.172-.015a3.407,3.407,0,0,1-.033,1.749c.058.747.122,1.5.183,2.251l-.178.014c.029.347.056.695.087,1.039-.058.008-.118.012-.176.015.008.056.015.114.019.172.056-.006.114-.006.172-.014.068.384-.147.365-.147.365.031.346.058.689.089,1.039-.062,0-.118.012-.178.014.035.465.073.925.114,1.388.06-.008.11-.012.174-.015,0,.062.01.11.015.172-.06.006-.12.014-.178.017.048.577.091,1.152.139,1.732-.052,0-.114.008-.166.014.052.693.11,1.386.166,2.083l-.176.01c-.029.355-.058.71-.087,1.056-.06.006-.114.012-.172.015,0,.052.008.118.013.172l.172-.014c-.014.527-.027,1.052-.046,1.577l-.176.01c.027.291.048.581.07.871l-.166.012c.017.292.042.579.069.873a1.724,1.724,0,0,0-.176.01c.029.4.066.811.1,1.218-.06,0-.12.008-.172.012.021.286.046.573.069.863-.058,0-.118.01-.174.015.037.461.071.929.11,1.388l-.168.012c-.044.237-.081.473-.114.708-.2.122-.241.317-.326.375l-.347.031c.006.054.01.112.012.172-.34.087-.678.174-1.019.257,0,.06.01.116.013.174-.508.218-1.013.43-1.521.647a2.769,2.769,0,0,0,1.21,2c.125.048.243.093.361.143.019.234.041.463.06.695.054-.006.11-.012.17-.014.019.232.039.461.056.693l.178-.014c0,.06.006.114.01.174l-.174.015s.266,1.477.3,1.544c.054,0,.114-.01.17-.015l.029.347c.052.071.257.137.376.317.34-.127.152.008.33-.2.689-.272.21-.095.483-.564l.328-.2c-.012-.174-.025-.347-.042-.521a1.057,1.057,0,0,0,.174-.015c.041-.234.087-.467.116-.7.056-.006.118-.01.174-.017-.021-.286-.044-.573-.066-.865.056,0,.114-.01.172-.017-.006-.054-.012-.114-.015-.174a1.563,1.563,0,0,1-.176.015c0-.056-.01-.114-.013-.172.062,0,.116-.01.174-.017-.021-.284-.044-.577-.068-.863l.172-.015c-.013-.172-.031-.347-.044-.519.062-.008.12-.008.178-.014-.017-.176-.029-.349-.044-.523a1.67,1.67,0,0,0,.172-.015c-.06-.745-.124-1.5-.183-2.251.06,0,.118-.006.176-.014-.019-.232-.037-.461-.058-.693.058,0,.116-.01.176-.017-.052-.633-.1-1.266-.154-1.905l.168-.014c-.029-.4-.064-.811-.1-1.216.062,0,.118-.008.176-.012-.015-.23-.033-.461-.052-.691.052,0,.112-.008.172-.014-.037-.465-.077-.929-.118-1.39.062,0,.122-.008.18-.012-.012-.12-.023-.232-.029-.346.054,0,.116-.012.17-.015q-.093-1.124-.181-2.255c.06,0,.114-.008.176-.014-.025-.288-.048-.579-.073-.869.056,0,.118-.008.172-.015-.015-.226-.037-.459-.054-.691.056,0,.114-.01.174-.017-.031-.342-.06-.689-.089-1.035l.176-.017c-.033-1.1-.062-2.2-.093-3.3.056-.006.114-.012.176-.015-.021-.232-.039-.461-.058-.695l.172-.012c-.042-.519-.085-1.037-.124-1.56.054,0,.112-.012.174-.015-.033-.405-.068-.807-.1-1.21.056-.008.116-.012.172-.017-.031-.4-.066-.809-.1-1.212l.178-.014c-.014-.172-.029-.347-.044-.519l.172-.014C436.379,103.7,436.314,103.585,436.244,103.471Z" transform="translate(27.013 11.743)" fill="#fff"/>
    <path id="Path_1482" data-name="Path 1482" d="M421.682,119.332c-.033-.405-.064-.811-.1-1.214.058,0,.114-.008.172-.014-.025-.292-.042-.579-.071-.867.058-.006.118-.01.172-.014.222-.734.17-1.208.932-1.471.541-.66,1.664-.353,2.579-.384.077.166.149.336.222.506l.16-.193c.176.05.351.091.527.135.133.164.263.328.394.49a1.009,1.009,0,0,0,.17-.014c.019.176.031.346.046.523l.361.143c.087.34.172.683.257,1.025.118.05.239.1.359.149.017.226.037.459.056.689l.176-.014c.014.174.025.349.039.523.06,0,.118-.008.176-.015.149.349.1.7.259,1.025.336-.143.676-.282,1.012-.429.037-.239.077-.477.114-.707.062-.008.114-.014.178-.015.006-.583.017-1.166.031-1.753.058,0,.114-.008.176-.012-.021-.288-.046-.575-.07-.867.052,0,.112-.012.172-.015-.079-.282-.164-.568-.243-.847.058-.008.12-.012.17-.015.033-.355.06-.7.091-1.052.056-.008.118-.014.172-.017-.052-.639-.1-1.27-.156-1.905.06-.008.12-.01.176-.015-.006-.116-.015-.23-.029-.344.06-.01.116-.014.172-.019-.023-.347-.056-.691-.083-1.037.06-.006.116-.014.176-.017-.079-1.681-.162-3.359-.239-5.04.058,0,.12-.012.176-.012-.071-.17-.143-.34-.214-.506.054-.008.114-.012.17-.015-.033-.407-.068-.811-.1-1.212.06,0,.112-.01.176-.014-.1-.515-.2-1.033-.3-1.548a13.557,13.557,0,0,0,.081-3.322q-1.946-.284-3.884-.556c0-.06-.012-.12-.017-.174-.114.012-.23.021-.342.029-.01-.06-.012-.12-.017-.174-.461.033-.925.075-1.384.112,0-.06-.01-.116-.017-.172-.174.012-.346.025-.519.042,0-.058-.008-.12-.013-.174-.463.039-.921.073-1.388.112a1.6,1.6,0,0,0-.012-.17c-.29.019-.577.041-.869.068,0,0,.023-.189-.357-.147,0,.056.006.116.01.176-.243,0,.058-.131-.181-.16-.579.1-1.152.207-1.726.313q-.182,2.021-.367,4.048l-.172.012c.1.57.208,1.147.309,1.716-.054,0-.116.012-.17.015.013.174.023.346.042.519-.058.008-.116.012-.176.015.035.407.064.811.1,1.21a1.236,1.236,0,0,1-.172.015c.013.174.027.351.044.523-.06,0-.12.006-.172.012-.015.583-.025,1.164-.033,1.749-.058.006-.12.008-.174.015.013.17.031.344.044.519-.062.006-.118.008-.18.012.017.234.037.465.052.695.066,0,.122-.012.181-.014.006.06.013.12.017.172-.062.008-.12.012-.18.015.021.288.042.577.07.865-.058.006-.108.01-.172.017.056.633.106,1.266.16,1.905-.062.006-.12.01-.178.014.021.29.048.577.073.867-.062,0-.12.008-.176.015.027.344.056.691.087,1.037-.06.006-.118.012-.176.014.006.817.017,1.633.025,2.446l-.172.014c.046.577.091,1.154.141,1.732a8.031,8.031,0,0,0-.346,2.3q1.743-.145,3.473-.284A7.316,7.316,0,0,1,421.682,119.332Z" transform="translate(28.637 14.91)" fill="#ffec00"/>
    <path id="Path_1483" data-name="Path 1483" d="M403.908,94.014c.114-.012.23-.019.346-.029.006.056.01.112.014.17,1.527-.152,1.147-.689,2.178-1.05.083-.351-.033-.145.152-.355-.008-.062-.012-.116-.017-.176.232-.023.465-.039.7-.06,0-.054-.014-.118-.015-.172a1.719,1.719,0,0,1,.7.118,6.762,6.762,0,0,1,.3,1.546c-.307.315-.118.458-.286.722-.172.069-.344.143-.508.214-.05.12-.095.241-.149.361-.272.2-.546.394-.82.589.077.23.153.458.23.681.359.048,1.058.369,1.411.234,0-.058-.006-.116-.014-.174.12-.008.232-.017.349-.023,0-.062-.01-.12-.015-.176.122.046.245.1.363.147-.008-.06-.01-.122-.016-.178.116-.008.23-.021.348-.029.259-.371.521-.739.786-1.11a1.6,1.6,0,0,0,.168-.014c-.013-.172-.027-.344-.042-.519l.334-.2c.033-.3.07-.589.1-.884l.174-.014c.039-.3-.187-.28-.2-.33-.023-.293-.044-.579-.071-.867-.056,0-.114.01-.172.015l-.029-.347c-.317-.322-.635-.647-.952-.971a3.243,3.243,0,0,0-1.573-.046c-2.506.2-2.527,1.166-4.019,2.071.012.116.017.23.029.347-.062,0-.118.01-.172.014C403.649,93.684,403.775,93.85,403.908,94.014Z" transform="translate(15.178 8.043)" fill="#0070c3"/>
    <path id="Path_1484" data-name="Path 1484" d="M406.319,88.607l1.747.033c-.006-.06-.008-.118-.01-.174.116-.012.224-.019.346-.029-.01-.06-.012-.114-.015-.174.174-.015.346-.027.517-.042,0-.058-.01-.116-.012-.174.407.027.82.052,1.228.075,0,.06.01.118.014.176.247.012-.075-.118.158-.193.347-.023.691-.054,1.042-.083-.01-.11-.019-.228-.027-.344.34-.133.149.012.326-.2.058,0,.122-.012.174-.015-.014-.176-.029-.347-.042-.519a4.809,4.809,0,0,1-1.407-.237A10.692,10.692,0,0,0,405.9,87.77l-.176.012c0,.06.008.118.013.176A2.255,2.255,0,0,1,406.319,88.607Z" transform="translate(17.233 4.01)" fill="#0070c3"/>
    <path id="Path_1485" data-name="Path 1485" d="M412.116,96.633c0,.058.01.114.015.17-.4.093-.8.181-1.2.276.1.571.207,1.143.313,1.718l-.172.014c-.035.293-.071.583-.108.88-.056,0-.112.008-.172.014a1.559,1.559,0,0,0-.292.722,1.912,1.912,0,0,0-.828.593c.008.054.017.112.023.17l-.351.029c-.048.122-.095.241-.147.365-.228.017-.461.035-.695.058.008.052.013.11.017.172-1.1.054-1.417-.373-2.15-.7q-.154-.866-.315-1.722c-.539.029-1.292.021-1.546.3-.168.069-.332.143-.5.214.048.633.1,1.274.154,1.907.054,0,.11-.012.172-.015.075.228.151.452.23.68.483.079.413.2.9.278.006.114.017.232.027.347,1.11.008,2.656.486,3.668.05,0-.058-.006-.118-.012-.174.118.048.241.1.359.145,0-.06-.006-.12-.012-.174.114-.008.228-.017.346-.029,0-.056-.01-.114-.015-.172.06-.006.118-.008.178-.014-.008-.06-.012-.116-.015-.17s-.01-.124-.013-.176c.293.145.253.162.519-.042a1.723,1.723,0,0,0-.019-.174l.7-.056c.168-.106-.035-.222.49-.394.226-.986.228-.172.824-.589.05-.118.1-.239.147-.355.056-.008.114-.012.176-.019-.017-.172-.031-.346-.044-.519.112-.066.218-.137.332-.2-.008-.118-.017-.234-.031-.347.056,0,.118-.008.172-.015-.013-.23-.035-.463-.052-.691.056,0,.114-.01.178-.017.2-.666-.178-.452.448-.9a4.675,4.675,0,0,0-.635-1.347C412.819,96.689,412.471,96.662,412.116,96.633Z" transform="translate(15.632 13.269)" fill="#0070c3"/>
    <path id="Path_1486" data-name="Path 1486" d="M409.009,89.864a1.88,1.88,0,0,0-.234-.681,8.155,8.155,0,0,0-2.249.185,2.138,2.138,0,0,0,.649,1.521C408.429,90.775,408.327,90.35,409.009,89.864Z" transform="translate(17.975 6.313)" fill="#0070c3"/>
    <path id="Path_1487" data-name="Path 1487" d="M401.848,90.664l-1.05-.085c.01.058.012.114.015.172-.288.081-.568.166-.853.241.035.465.075.925.112,1.392.243.363,1.523.305,1.919.017,0-.06-.006-.12-.012-.176l.494-.388C402.362,91.054,402.165,91.116,401.848,90.664Z" transform="translate(11.866 7.637)" fill="#0070c3"/>
    <path id="Path_1488" data-name="Path 1488" d="M465.9,115.52c-.06.008-.118.014-.172.017.044-.118.1-.239.143-.359-.056,0-.116.01-.174.012-.017-.23-.035-.461-.054-.689.054-.006.116-.01.172-.014q-.064-.785-.125-1.564c.031-.351.062-.7.093-1.054a20.092,20.092,0,0,1-.591-2.917l-.174.014c-.008-.058-.01-.116-.015-.174a1.057,1.057,0,0,0-.015-.174c-.178-.1-.361-.2-.546-.3-.222-.2-.33-.483-.573-.652,0-.054-.012-.112-.015-.174q-.617-.035-1.228-.075c-.068-.108-.135-.224-.2-.33-.707-.06-1.411-.118-2.11-.181-.008-.054-.01-.11-.015-.17-.235-.042-.475-.075-.712-.118,0-.056-.01-.112-.013-.176l-1.039.085c0-.054-.01-.112-.015-.174-.17.015-.342.031-.517.042,0-.052-.01-.114-.014-.174-.234.021-.463.042-.691.056-.006-.056-.012-.114-.019-.168l-.861.068c-.008-.058-.012-.114-.019-.174-.288.023-.577.044-.863.071-.006-.056-.013-.114-.017-.176-.164.077-.334.141-.5.216-.006-.054-.01-.112-.017-.172-.114.006-.228.017-.344.025-.006-.056-.013-.112-.015-.172-.23.021-.461.041-.693.06-.01-.062-.012-.118-.017-.172l-3.145-.1c-.519.041-1.039.083-1.562.125-.006-.056-.01-.114-.017-.174-.164.073-.332.149-.5.214,0-.052,0-.114-.01-.172-.519.044-1.044.085-1.566.125,0-.056-.01-.112-.012-.172-.405.037-.811.068-1.212.1,0-.058-.01-.118-.013-.176-.077,0-1.145.257-1.548.3-.093.438-.064.288-.3.544.006.06.01.122.017.178-.118.008-.237.019-.348.027l-.467.734c-.058,0-.114.012-.17.017.01.12.015.232.025.346-.054,0-.112.012-.172.015.012.114.021.23.027.346-.056,0-.112.008-.172.014.013.172.033.346.044.519-.112.068-.22.133-.336.207-.041.232-.077.467-.114.7-.11.062-.224.135-.338.2,0,.637-.01,1.282-.013,1.919l-.174.015c.027.347.052.689.083,1.041-.056.006-.114.01-.172.014.015.176.027.347.039.517-.054.008-.112.012-.172.017.056.693.114,1.386.168,2.079-.06.008-.118.01-.172.014.031.405.064.813.1,1.216-.058.006-.114.01-.172.014.01.172.029.346.042.517-.062,0-.116.008-.172.015.023.347.052.7.085,1.042-.062,0-.122.01-.176.014.025.344.052.689.083,1.041a7.885,7.885,0,0,0-.048,3.666,4.249,4.249,0,0,0-2.317,1.583c-.06.008-.118.012-.176.017.012.114.017.232.033.346-.22.191-.436.382-.654.575.01.116.019.234.025.347-.27.2-.542.4-.824.593-.029.29-.066.587-.1.88l-.172.012c.01.12.019.232.025.347-.052.008-.112.014-.17.017.006.112.015.23.027.346-.06.008-.116.01-.17.014-.091.355-.176.71-.264,1.068l-.172.015c.012.174.025.347.039.521l-.17.01c.006.114.019.234.029.347a1.694,1.694,0,0,0-.176.019l.023,2.436c-.056,0-.118.008-.176.014.031.347.058.7.085,1.04-.058,0-.11.01-.172.014-.286,1.429,1.162,4.179.9,4.637.012.12.027.234.033.349-.112.068-.222.137-.332.2a2.937,2.937,0,0,0-.768,1.284c-.11.01-.23.017-.348.027-.116.718-.5.649-.782,1.114.008.116.019.23.029.346l-.322.375c-.114.01-.228.017-.344.025-.1.185-.2.369-.3.552-.224.075-.45.151-.678.23-.05.122-.1.239-.145.357-.506.22-1.012.438-1.519.649,0,.06.008.118.013.174l-.347.027c0,.064.01.118.014.176-.174.014-.346.031-.519.041.008.062.012.116.017.176l-.508.214c-.05.118-.093.241-.143.359-.232.021-.465.039-.7.06.006.058.01.112.017.17-.687.12-1.376.23-2.07.346,0,.058.012.114.017.174-.18-.044-.359-.091-.542-.131-.066-.17-.133-.338-.21-.506-.058,0-.112.012-.172.015-.01-.12-.021-.234-.033-.351-.054.008-.112.012-.168.015-.008-.112-.019-.23-.031-.349-.245-.149-.49-.3-.734-.461-.075-.226-.152-.452-.234-.678-.116-.05-.237-.1-.359-.145-.077-.228-.153-.452-.228-.681-.118-.048-.241-.095-.361-.143-.008-.118-.019-.232-.029-.347-.054,0-.118.01-.176.015-.008-.118-.015-.234-.025-.349-.247-.153-.49-.309-.736-.465-.012-.114-.021-.23-.033-.346-.3-.208-.608-.413-.919-.622-.008-.116-.017-.232-.025-.347-.125-.05-.243-.093-.363-.149l-.027-.344c-.185-.1-.371-.2-.548-.305-.077-.226-.158-.448-.234-.678-.3-.151-.6-.3-.907-.454-.01-.114-.019-.226-.027-.342-.183-.1-.367-.2-.55-.311-.008-.11-.015-.226-.027-.344-.122-.046-.239-.093-.361-.147a1.344,1.344,0,0,0-.014-.17c-.535-.129-1.066-.263-1.6-.394-.006-.058-.012-.116-.015-.174-.122.014-.23.021-.351.029-.06-.114-.127-.22-.2-.332-.176-.044-.355-.089-.533-.135,0-.056-.01-.108-.013-.174-.056.008-.114.012-.176.017,0-.054-.008-.116-.014-.172.349-.029.693-.056,1.042-.087q-.006-.081-.017-.174c.12-.008.234-.015.349-.029a1.645,1.645,0,0,1-.013-.166c.346-.089.681-.178,1.025-.263,0-.054-.012-.114-.017-.172.124-.012.234-.021.353-.027-.006-.06-.012-.12-.015-.176l1.2-.274a1.294,1.294,0,0,1-.012-.176c.112-.006.228-.017.346-.025-.006-.058-.01-.116-.019-.17.122-.01.236-.019.351-.031-.006-.06-.012-.116-.015-.174.118-.01.234-.017.351-.029-.006-.058-.012-.112-.016-.174l.521-.042c-.008-.056-.015-.116-.017-.17.114-.008.234-.017.347-.029,0-.056-.01-.116-.015-.172.114-.01.234-.021.347-.029-.008-.06-.01-.116-.012-.174.328-.147.674-.288,1.01-.432,0-.056-.013-.12-.015-.174.568-.16,1.137-.326,1.7-.486.048-.116.1-.241.145-.359.118-.01.232-.019.349-.031-.008-.06-.012-.112-.017-.17.116-.014.232-.021.347-.031,0-.062-.01-.114-.015-.17.174-.015.349-.029.525-.046a10.409,10.409,0,0,1,2.324-1.409c-.006-.116-.014-.234-.025-.348a1.5,1.5,0,0,0,1.012-.429c-.006-.06-.01-.118-.019-.174.125.042.241.093.365.145.042-.183.089-.361.131-.539.869-.174.541-.39.983-.776.166-.071.342-.143.512-.21-.015-.12-.023-.234-.033-.351.112-.066.218-.135.33-.2,0-.06-.008-.116-.013-.176.116-.008.23-.019.349-.029.3-.168.349-.423.461-.734.114-.012.228-.021.347-.027.187-1.013,1.174-1.374,1.753-2.066a10.529,10.529,0,0,0,.751-1.456c.22-.191.436-.384.653-.577-.01-.114-.019-.234-.027-.346.114-.066.22-.137.332-.2-.008-.11-.019-.23-.029-.34.218-.195.436-.386.651-.579-.006-.118-.015-.23-.027-.349.112-.064.226-.133.336-.2.328-.958.652-1.917.984-2.872l.32-.375c-.01-.118-.015-.232-.025-.347.108-.07.218-.137.326-.2-.008-.118-.017-.23-.025-.346.058-.006.116-.014.174-.014-.015-.178-.027-.346-.044-.523.114-.068.224-.133.334-.2.075-.525.149-1.052.22-1.585l.178-.014c.035-.178.083-.357.125-.535.11-.064.224-.133.334-.2-.025-.291-.048-.577-.071-.865.058-.008.114-.012.174-.015-.01-.112-.021-.23-.029-.346.058,0,.118-.01.174-.012.027-.413.048-.824.073-1.232.062,0,.118-.006.178-.014-.014-.174-.027-.347-.046-.519l.176-.014c-.021-.29-.046-.579-.07-.865.056-.008.116-.014.168-.017-.023-.347-.052-.693-.081-1.039.056,0,.116-.012.176-.017-.031-.346-.058-.689-.083-1.037.056-.006.112-.014.172-.017-.042-.459-.077-.925-.116-1.384l.172-.015-.185-.158c.048-.12.1-.241.143-.357a.347.347,0,0,1-.2-.336c.046-.124.1-.241.141-.363l-.172.012q-.09-1.123-.183-2.251c-.06,0-.112.012-.172.015-.044-.517-.085-1.041-.127-1.556-.054,0-.116.006-.174.012-.015-.232-.039-.465-.054-.695a1.745,1.745,0,0,1-.176.015c-.106-.575-.21-1.151-.313-1.72-.054.006-.116.008-.172.012-.017-.172-.027-.346-.044-.517-.058,0-.114.008-.174.014q-.035-.437-.07-.869c-.058.006-.114.012-.174.015-.143-.34-.286-.676-.43-1.013l-.172.014c-.008-.11-.017-.23-.033-.342-.056,0-.116,0-.172.01-.141-.334-.286-.67-.43-1.013-.12-.048-.239-.093-.363-.143-.006-.114-.015-.234-.023-.344-.187-.1-.369-.2-.552-.305-.008-.118-.015-.234-.029-.347-.116-.048-.239-.1-.357-.149-.01-.114-.021-.228-.031-.346-.181-.1-.369-.2-.546-.305-.012-.112-.019-.232-.029-.346-.12-.046-.237-.093-.357-.145-.015-.116-.023-.232-.033-.349-.371-.259-.741-.521-1.112-.778-.01-.116-.015-.232-.023-.349-.373-.259-.739-.523-1.112-.782-.01-.116-.021-.232-.027-.342a3.547,3.547,0,0,1-1.473-.932c-.07-.108-.135-.22-.2-.332-.116.01-.232.019-.349.027-.006-.054-.01-.118-.013-.17-.187-.106-.363-.2-.548-.3-.127-.17-.257-.33-.388-.5-.116.008-.228.019-.346.029-.068-.112-.135-.222-.207-.332-.114.01-.234.021-.344.027-.131-.164-.257-.326-.39-.488-.114.008-.228.017-.346.029a1.752,1.752,0,0,0-.015-.178c-.174.017-.346.029-.517.046,0-.062-.012-.118-.015-.181-.118.012-.234.023-.351.031,0-.052-.01-.114-.013-.17l-.342.027c-.07-.112-.133-.224-.2-.336l-.347.029c-.129-.158-.257-.324-.39-.488-.112.008-.228.017-.344.029,0-.06-.012-.118-.014-.178l-.346.031c0-.062-.01-.12-.012-.17-.18.014-.349.027-.525.037,0-.056-.006-.114-.013-.17-.234.017-.463.035-.693.056,0-.062-.01-.12-.015-.174l-.346.031c-.006-.066-.01-.12-.013-.178-.288.021-.579.046-.867.07,0-.056-.008-.118-.013-.172l-.344.025c-.008-.054-.01-.11-.013-.17-.3.021-.581.046-.873.071-.006-.06-.008-.118-.014-.174-.232.019-.461.041-.691.056-.008-.06-.012-.118-.013-.174l-.336.2c0-.058-.006-.118-.01-.176-.293.023-.583.05-.873.069,0-.058-.006-.114-.012-.172-.11.008-.23.019-.346.027,0-.054-.012-.116-.015-.172-.585-.014-1.162-.023-1.749-.031-.006-.06-.008-.118-.012-.172a9.464,9.464,0,0,0-3.961.67c-.861.068-1.732.139-2.6.21,0,.054.008.116.012.174-.347.025-.691.052-1.04.083,0,.052.01.112.014.174-.346.027-.693.052-1.039.085.006.058.01.11.013.174-.4.031-.813.066-1.212.1,0,.06.008.114.013.17-.288.027-.579.048-.865.071,0,.056.008.118.01.176-.288.021-.579.044-.867.068a1.708,1.708,0,0,1,.013.174c-.174.012-.347.025-.519.042,0,.064.012.118.015.178-.172.012-.344.025-.515.039,0,.058.006.116.01.178-.17.01-.349.025-.517.037-.05.125-.1.237-.147.367-.176.006-.349.025-.523.037,0,.056.01.118.016.178-.114.008-.23.017-.348.027.006.056.012.114.016.172q-.689.142-1.373.288c-.048.12-.093.241-.147.357-.344.087-.685.174-1.021.261-.1.18-.208.363-.3.548-.122.014-.235.021-.353.031l-.317.371c-.114.01-.234.019-.347.027.006.06.012.118.015.174-.116.014-.232.021-.351.029-.042.122-.093.241-.141.359l-.5.218c0,.054.01.114.012.17-.4.154-.79.3-1.185.45-.046.118-.1.237-.145.361-.116.006-.232.019-.346.027,0,.056.008.12.012.176-.166.069-.334.139-.5.212-.149.693-.023.226-.479.566,0,.052.006.114.013.174-.116.01-.234.017-.349.025.006.056.014.116.016.174-.11.008-.23.015-.346.027-.1.187-.2.369-.3.546-.116.012-.234.021-.346.031-.05.122-.1.241-.147.357-.118.012-.234.023-.348.031-.046.12-.093.241-.145.359-.411.353-.319-.156-.477.568a1.3,1.3,0,0,0-.664.4c0,.06.006.116.013.174-.114.008-.235.019-.347.027,0,.06.01.114.015.174-.234.259-.234.106-.309.55-.116.008-.23.015-.346.027a2.1,2.1,0,0,1-.419,1.257c-.11.07-.226.133-.334.2-.042.176-.091.357-.133.535-.158.125-.324.257-.49.386.01.116.019.236.027.347-.058.006-.114.01-.172.014-.1.183-.2.367-.3.546-.22.193-.44.388-.654.581.008.116.013.232.027.342-.216.195-.434.386-.652.581.01.114.021.23.027.344-.052.008-.108.012-.17.015.033.409.064.809.1,1.214-.056,0-.114.01-.176.01-.033.237-.075.475-.112.71-.112.068-.226.135-.334.2.01.114.017.23.025.347l-.172.014c-.083.353-.174.714-.261,1.068-.056,0-.118.008-.172.015.033.4.064.807.1,1.214l-.18.012c.013.174.025.346.042.519l-.172.015.041.521a1.7,1.7,0,0,1-.174.014c.027.349.056.693.085,1.042l-.17.014c.01.114.016.228.029.347l-.178.012c.066.11.133.222.2.328-.11.071-.218.141-.332.2-.008.645-.01,1.282-.013,1.925-.062.006-.116.008-.178.014l.012.17c.06,0,.118-.008.18-.012-.046.18-.089.353-.137.537.062-.008.116-.012.18-.015.075.678-.29,2.612.106,3.481.06,0,.114-.012.172-.012.01.114.023.23.031.342.06,0,.11-.006.172-.012.014.174.031.347.041.517.058,0,.118-.01.172-.012.019.232.041.461.058.695.058-.008.114-.01.176-.015l.027.346c.058,0,.116,0,.174-.01.031.4.066.805.1,1.212.06,0,.114-.008.176-.014.01.11.017.23.029.346.054-.006.114-.01.17-.014l.029.342c.058,0,.116,0,.178-.01.01.112.017.228.023.346.06-.006.116-.012.172-.015.015.174.031.349.044.523.058-.006.114-.01.174-.014.012.11.019.23.031.344.052,0,.112-.008.17-.015.015.174.029.351.041.523.068,0,.12-.01.174-.014.025.286.048.577.07.867.064,0,.12-.014.18-.015.015.17.029.347.041.521l.17-.015c.015.176.029.347.044.521.056-.006.114-.012.172-.014.149.332.29.672.429,1.008q.1-.009.174-.012.356,1.1.7,2.214c.062,0,.116-.012.178-.014.147.334.29.67.434,1.01.052-.006.114-.01.168-.014.075.226.154.454.232.676.122.052.235.1.359.147.01.114.014.232.027.347.12.048.241.1.363.145.013.116.021.232.027.346.243.154.494.311.736.467.012.114.021.23.031.344.118.048.237.1.357.145.01.118.017.232.027.349.251.151.494.307.739.463.068.106.135.22.2.332.118-.01.236-.019.349-.031.253.272.51.542.763.815.118-.01.232-.019.347-.031.143.66.253.463.427,1.015-.34.027-.689.052-1.035.083-.166.234-.293.2-.492.39.006.054.01.112.017.176-.118,0-.237.013-.351.025.008.058.01.116.015.176-.168.125-.33.255-.492.386.012.114.017.23.029.347l-.176.012c.01.114.019.234.031.347-.114.068-.222.135-.33.2,0,.114.014.226.025.347-.162.127-.332.259-.494.384-.031.3-.068.593-.1.884l-.172.014c-.044.234-.077.469-.122.71-.056.006-.114.01-.17.013.012.172.023.346.042.519-.114.064-.224.133-.332.2.006.116.017.234.029.347-.06,0-.12.008-.178.014.014.118.023.23.033.347-.06,0-.118.008-.174.015.013.172.021.342.039.517-.056.006-.118.01-.172.014.013.17.029.344.044.517-.064,0-.118.014-.178.015.013.176.029.349.041.527l-.17.012c.014.174.023.348.042.515-.114.069-.22.137-.332.2-.073.531-.151,1.066-.224,1.591l-.172.012c.01.122.021.234.031.347l-.176.015c-.025.411-.05.817-.071,1.226-.06.008-.118.01-.178.017.023.288.048.577.071.863l-.174.015c.01.118.017.234.027.347-.056.008-.112.012-.17.015-.023.467-.039.932-.062,1.4-.054,0-.118.008-.17.012.014.174.029.347.041.525-.062,0-.12.006-.176.012.012.172.027.346.042.517-.058.008-.114.01-.174.014.029.286.05.585.071.873-.058,0-.114.006-.176.012.008.114.017.23.031.347l-.172.012c.017.234.037.465.056.695-.06,0-.114.008-.176.014.035.461.073.925.112,1.386-.054,0-.116.008-.174.014.025.29.048.581.073.867l-.174.014c.027.29.052.581.071.869-.06,0-.116.008-.176.015.016.172.027.348.044.521-.058,0-.12.01-.172.015.015.228.037.457.052.689l-.172.015c.025.286.048.577.071.867l-.174.015c.012.112.019.23.033.344l-.183.014c.019.23.042.463.056.7-.05.006-.114.008-.166.014a1.612,1.612,0,0,0,.243.851c-.114.064-.226.135-.334.2.014.176.027.351.041.523-.054,0-.114.008-.174.015.023.29.052.577.071.865-.012.071-.234.058-.147.361.06,0,.116-.008.174-.014.006.058.012.118.015.176-.054.006-.116.006-.172.014.025.288.048.577.071.867a1.744,1.744,0,0,0-.176.015c.01.11.017.228.027.344l-.17.012c.021.293.044.581.068.869-.058.006-.114.01-.174.014.012.174.027.347.041.523a1.292,1.292,0,0,0-.17.015c-.093.407.264.936.257,1.023-.056.006-.118.01-.172.013.042.463.077.929.116,1.386-.062.006-.118.014-.18.017.035.4.068.8.1,1.21-.06.006-.118.012-.172.019.035.459.073.919.108,1.382-.058,0-.112.012-.17.015.033.4.066.807.1,1.216a1.187,1.187,0,0,0-.17.014c.008.114.017.23.025.344-.058,0-.118.014-.174.014.031.405.07.809.1,1.212-.058.006-.116.01-.176.019-.013.577-.021,1.162-.033,1.747.07.166.143.334.216.5a.319.319,0,0,0-.147.367c.066.108.133.218.2.328a.459.459,0,0,0-.135.531c.058,0,.118-.008.178-.014.154.531-.187,1.243-.222,1.589.079.232.156.456.232.68.114-.008.23-.019.344-.027.012.116.015.23.031.349l.691-.054c.133.031.106.376.376.317,0-.058-.01-.116-.013-.174.741-.1.579-.156,1.01-.431-.145-1.851-.3-3.7-.448-5.55.056,0,.114-.008.17-.014.023-.465.039-.932.068-1.4.054-.006.11-.01.168-.017-.015-.176-.031-.346-.044-.515.064,0,.116-.01.176-.015-.029-.405-.062-.813-.1-1.216l.172-.012c.027-.135.05-1.575.05-1.575-.06,0-.118.01-.178.014-.017-.232-.041-.463-.052-.693l.172-.014c-.031-.405-.068-.809-.1-1.212.052-.008.11-.013.166-.017-.027-.405-.062-.813-.095-1.214a1.636,1.636,0,0,0,.168-.014c-.01-.172-.025-.346-.037-.519.056,0,.11-.012.176-.015.019-.465.035-.93.058-1.4.058,0,.118-.008.176-.013-.035-.4-.069-.809-.1-1.212.06-.008.118-.008.172-.015-.017-.226-.037-.459-.054-.689.056-.006.114-.008.176-.015-.027-.344-.058-.695-.083-1.042l.168-.014c-.025-.286-.044-.575-.073-.863.064-.008.12-.01.181-.015-.023-.234-.041-.463-.058-.7l.168-.012c-.015-.23-.037-.465-.054-.693.064-.006.12-.008.174-.014-.025-.291-.048-.579-.071-.873.058,0,.118-.008.178-.012-.019-.23-.039-.461-.056-.691.052,0,.114-.008.172-.015-.017-.23-.041-.463-.058-.689.058-.006.116-.012.172-.015-.013-.178-.027-.347-.041-.523.058,0,.12-.008.172-.01.276-2.355.554-4.7.828-7.052.054-.006.114-.008.17-.013l-.029-.346.172-.014c.077-.529.147-1.06.216-1.589.066-.01.12-.012.178-.017,0-.112-.017-.23-.023-.344a1.714,1.714,0,0,1,.172-.014c.071-.531.145-1.058.216-1.589.06,0,.116-.01.178-.017.089-.355.172-.707.259-1.062a1.668,1.668,0,0,1,.172-.015c-.008-.118-.015-.232-.025-.349.058-.006.112-.01.172-.014.037-.3.068-.587.1-.882a1.221,1.221,0,0,0,.172-.012c-.012-.174-.027-.346-.042-.519.062-.006.118-.012.174-.015-.008-.116-.019-.232-.027-.351.058-.006.116-.006.172-.012.031-.353.062-.7.093-1.052.052-.006.114-.008.172-.012.031-.3.068-.591.108-.882a1.445,1.445,0,0,1,.17-.014,1.414,1.414,0,0,0,.284-.724c.29-.081.571-.166.853-.241l-.012-.178c.637-.046,1.272-.1,1.907-.151a4.478,4.478,0,0,1,2.064-.344l.015.174.525-.044a1.708,1.708,0,0,0,.013.174c.114-.008.23-.017.338-.029.008.058.012.118.019.178.292-.025.579-.052.865-.073,0,.056.012.114.013.174.643.006,1.284.008,1.923.017.07.114.133.224.207.332.114-.008.234-.019.346-.027,0,.058.008.116.01.17.118-.012.232-.019.349-.029,0,.064.012.118.015.176.172-.01.344-.027.517-.041.006.054.01.118.017.174.116-.008.226-.019.347-.031,0,.058.008.118.013.176.228-.021.463-.039.685-.054.006.054.013.112.015.172l.353-.025c0,.052.008.11.012.17.112-.01.228-.017.346-.031.069.114.137.22.207.336.226-.019.459-.042.687-.056a1.585,1.585,0,0,0,.016.17c.353.089.716.174,1.069.263.066.11.135.222.207.336.11-.01.226-.023.34-.031,0,.056.01.118.019.174.29.035.585.068.878.1.127.166.259.328.392.494.108-.012.224-.019.342-.029.07.11.135.222.2.33.11-.064.222-.131.332-.2.006.06.008.114.015.17.178.046.355.089.537.131.006.118.019.23.027.349.923.17,1.386.739,2.508.846a6.885,6.885,0,0,0,.622,1.166c.141.1.737.1.894.278.01.122.021.234.027.346l.172-.014c.01.118.019.234.031.347.122.046.239.1.359.145.006.114.023.232.029.347.122.046.239.1.365.143.01.114.015.234.027.347.371.264.737.527,1.108.782.071.174.143.336.214.506.183.1.369.2.55.307.141.338.288.672.429,1.012.122.044.241.095.361.145.079.228.156.456.234.681.12.046.239.095.359.143.016.174.025.347.042.519.182.1.365.2.548.305.07.17.145.338.216.506l.17-.01c.012.11.021.228.031.342l.172-.012q.017.177.029.347c.12.046.243.095.363.147.008.112.021.23.027.344.054,0,.114-.012.174-.015.016.174.027.351.042.525.056-.008.112-.008.172-.017.012.116.021.232.033.346l.17-.014c.01.112.019.236.027.346.12.048.241.1.361.143.01.12.021.236.027.349.181.1.369.2.55.307.006.112.021.234.027.346l.178-.012c.141.332.284.674.432,1.012.052-.008.114-.012.17-.017.01.176.027.349.042.523.054,0,.112-.012.174-.017.081.284.162.568.243.853.058-.008.114-.012.176-.015.069.174.139.34.21.51.124.044.245.1.363.143.012.174.027.347.041.521.183.1.369.2.55.3.07.17.141.344.214.51.06,0,.118-.012.174-.014.22.5.432,1.008.643,1.521.125.042.239.095.369.139.008.118.013.234.025.347.49.369.994.739,1.485,1.1.008.118.023.234.027.347.182.1.369.2.55.3.01.12.021.236.031.347.118.05.236.1.357.149.382.376.757.751,1.141,1.127.114-.012.234-.019.342-.031.2.218.388.434.577.652.118-.012.237-.017.351-.025.064.106.133.218.2.33.114-.012.232-.019.347-.029.068.112.133.222.2.336.112-.012.23-.021.342-.031,0,.056.01.114.014.17.12,0,.232-.015.349-.025.008.058.01.116.013.172.174-.015.346-.031.521-.041a1.24,1.24,0,0,0,.015.172l.519-.041c.133.166.259.328.392.492.114-.01.226-.017.34-.029.006.058.016.114.017.174.112-.012.23-.023.346-.031.006.062.01.118.013.174.174-.012.344-.027.519-.039.01.058.012.114.019.172.168-.014.346-.027.514-.042.008.056.012.118.015.17.116-.062.224-.131.334-.2a1.633,1.633,0,0,0,.015.17q.53.136,1.069.264c0,.058.008.12.014.178.459-.041.921-.077,1.386-.116,0,.062.008.116.014.174a10.266,10.266,0,0,0,4.639-.9c.172-.015.347-.029.519-.042-.008-.06-.01-.116-.015-.178.118-.01.232-.017.351-.031-.008-.054-.012-.112-.015-.17.174-.01.346-.027.521-.041.1-.183.2-.367.3-.548.118-.006.234-.019.349-.029.046-.178.087-.353.129-.533.114-.068.222-.135.336-.2-.012-.118-.021-.236-.029-.349.114-.066.216-.137.33-.2,0-.114-.013-.23-.029-.349a2.84,2.84,0,0,0,.317-.371c.062-.008.12-.012.176-.017q.113-.793.222-1.585c.056-.008.118-.012.17-.015.041-.237.079-.471.116-.708l.18-.014c.021-.409.05-.82.073-1.23a8.535,8.535,0,0,0,.268-3.16,21.587,21.587,0,0,1,2.652.485c.346-.029.7-.06,1.044-.085,0,.056.006.108.013.17.056-.006.114-.01.176-.014-.336.6.068,2.06-.124,2.8-.06,0-.116.01-.176.015.019.23.041.465.056.689a1.67,1.67,0,0,1-.172.013c.025.292.048.581.071.869-.06,0-.114.012-.178.012.025.292.05.581.069.869a1.561,1.561,0,0,1-.168.014c.023.293.046.581.069.871-.056,0-.118.006-.176.012.01.118.019.234.027.347-.056,0-.114.008-.172.015-.031.349-.058.7-.089,1.056-.056,0-.112.006-.172.012-.071.587-.137,1.172-.2,1.764l-.334.2c-.044.178-.089.355-.127.535-.062,0-.12.008-.181.015-.037.234-.071.471-.114.708-.052,0-.114.008-.174.012.012.114.023.23.031.346-.056.006-.114.014-.174.015.01.114.015.232.029.347l-.176.012c.012.116.019.23.029.349-.058.006-.116.008-.172.01-.037.3-.071.589-.1.882-.112.069-.222.133-.334.2.01.116.017.228.025.344-.106.066-.22.137-.328.2.01.116.015.23.027.347-.218.195-.436.382-.651.575.01.118.017.23.025.346-.162.131-.326.259-.49.39.008.118.023.23.027.351-.11.064-.222.131-.33.2-.042.178-.087.355-.131.529-.118.014-.228.021-.347.031-.046.12-.1.243-.149.361-.22.075-.448.154-.676.23a1.728,1.728,0,0,1,.012.174c-.224.079-.45.156-.674.232.006.058.01.114.013.174-.176.015-.349.027-.521.042,0,.056.006.116.01.178-.218.071-.452.147-.678.222,0,.06.012.118.015.174-.344.087-.683.17-1.029.261.008.056.013.116.017.17-.23.081-.454.154-.683.23.008.06.01.118.017.176-.178.014-.347.027-.521.042,0,.056.012.116.016.172-.463.037-.925.077-1.39.114a13.567,13.567,0,0,1-5.27-.444c-.405-.023-.817-.05-1.228-.077-.066-.112-.133-.22-.2-.33-.178.015-.349.031-.523.041,0-.056-.012-.116-.013-.172-.118.012-.23.019-.346.029-.068-.11-.137-.22-.2-.336-.172.014-.347.031-.521.044,0-.056-.008-.116-.012-.176-.116.012-.23.019-.346.031,0-.058-.01-.116-.013-.174-.535-.131-1.071-.261-1.6-.39-.131-.164-.259-.33-.394-.5-.112.012-.228.017-.347.031a1.318,1.318,0,0,0-.012-.174c-.471-.332-.832-.815-1.471-.929-.008-.116-.019-.234-.027-.346-.429-.261-.855-.515-1.286-.77-.006-.116-.015-.23-.023-.347-.187-.1-.369-.2-.55-.3-.012-.114-.017-.228-.027-.344-.189-.1-.371-.2-.55-.3-.145-.34-.29-.674-.432-1.01-.181-.106-.369-.207-.544-.3a4.657,4.657,0,0,1-1.187-1.651c-.112.012-.23.021-.342.029-.073-.174-.145-.336-.22-.508l-.921-.62c-.01-.118-.023-.234-.031-.351-.181-.1-.361-.2-.548-.3-.073-.226-.149-.458-.23-.683-.181-.1-.361-.2-.546-.3-.01-.114-.015-.232-.025-.346l-.361-.143c-.077-.23-.152-.456-.234-.681-.118-.05-.241-.095-.361-.147l-.041-.517-.17.012c-.015-.174-.029-.344-.046-.517-.176-.324-.579-.66-.774-.985-.407.031-.813.066-1.216.1-.012-.116-.019-.23-.029-.348a10.189,10.189,0,0,0-2.093,0c-.488,4.378-.413,9.365-1.357,13.366.023.288.048.579.066.871-.054.006-.108.008-.172.014-.012.523-.029,1.046-.042,1.573-.06.006-.114.01-.172.013.064.112.131.22.2.332-.06.006-.116.01-.172.017.01.114.015.23.027.344-.058.006-.116.01-.178.013.019.232.037.465.058.695l-.176.014c.023.232.041.461.062.693a4.058,4.058,0,0,0,1.788.552c.046-.118.1-.239.145-.361.12-.008.226-.019.344-.029.033-.351.066-.7.093-1.052.058,0,.11-.012.174-.015-.023-.288-.044-.581-.069-.867l.17-.015c-.006-.114-.021-.232-.027-.342.058-.006.114-.01.172-.013-.029-.351-.054-.7-.085-1.044.056,0,.114-.012.176-.015-.014-.17-.031-.342-.044-.515.056-.006.116-.01.178-.014-.039-.465-.075-.93-.114-1.39.056-.008.114-.008.168-.013-.015-.232-.035-.461-.054-.695.064,0,.116-.008.172-.015-.019-.226-.037-.459-.056-.689l.176-.015-.021-.348c.05,0,.108-.008.166-.015-.071-.166-.145-.338-.212-.5l.172-.014c-.01-.116-.019-.232-.031-.346.058,0,.116-.012.178-.017-.027-.344-.058-.689-.089-1.039a1.494,1.494,0,0,0,.172-.015c-.048-.633-.1-1.27-.154-1.911.064,0,.12-.008.18-.014-.006-.751-.01-1.51-.016-2.264.062-.006.118-.014.176-.014-.013-.174-.025-.347-.041-.521.06,0,.116-.008.172-.014-.025-.288-.048-.577-.07-.865.058,0,.116-.008.176-.015-.008-.06-.01-.112-.017-.174.058,0,.12-.006.174-.014.332.494.664.994.992,1.488.183.1.367.208.548.305.012.118.021.234.031.351a1.613,1.613,0,0,1,.172-.015c.069.168.145.332.212.506.124.048.245.095.363.143.01.116.019.23.027.348.369.263.743.523,1.114.782.01.116.021.236.027.348.18.1.367.2.548.307.008.114.017.232.029.344.116.048.239.095.359.151.01.108.019.226.029.344l.55.3c.008.118.019.234.025.349.183.1.371.2.552.3.075.226.152.452.226.681.122.046.239.093.361.143.01.118.021.23.031.348l.546.3c.446.427.16.639.942.8.006.116.016.232.021.346.726.156.2.11.562.475.056,0,.12-.01.172-.014.008.06.013.12.017.174.12,0,.234-.019.349-.025.251.27.508.542.764.809.114-.01.23-.015.346-.029.129.166.259.328.386.494.12-.012.234-.019.349-.031.066.114.135.222.2.334.118-.01.23-.017.347-.029l.378.32c.114-.01.228-.015.344-.025,0,.056.01.112.014.172.116-.006.232-.019.346-.029,0,.056.01.114.017.172.114-.01.228-.017.342-.029.071.114.139.222.2.334.17-.014.346-.029.517-.044.008.062.014.122.017.174.114-.008.234-.017.342-.027.01.062.012.116.019.172.234.042.473.081.7.12l.015.174c.3.033.589.068.882.1,0,.058.008.116.01.172.12-.01.234-.017.349-.025.008.056.01.112.015.174.407.021.822.048,1.224.071a1.325,1.325,0,0,1,.015.174c.112-.069.222-.133.334-.2,0,.06.012.116.013.174.172-.013.348-.025.515-.041.008.062.015.118.019.174.347-.029.7-.056,1.039-.087.006.06.01.116.017.174.286-.023.575-.046.863-.068.008.056.01.118.013.17.234-.015.467-.035.7-.056.006.06.01.12.014.174l1.212-.1a1.68,1.68,0,0,1,.015.17c.058,0,.12-.006.172-.014,0-.054-.006-.118-.012-.174,1.212-.042,2.44-.075,3.654-.122,0-.056-.01-.12-.014-.174.114-.01.226-.017.344-.029,0-.052,0-.112-.012-.17.174-.015.346-.031.523-.044a1.6,1.6,0,0,1-.017-.174c.118-.008.23-.019.347-.027,0-.06-.012-.114-.017-.174.174-.015.346-.031.523-.041,0-.058-.013-.114-.013-.174.336-.143.674-.292,1.01-.432-.006-.058-.01-.114-.015-.174.513-.156,1.021-.315,1.533-.473l-.01-.176,1.006-.427c.052-.124.1-.245.151-.363.114-.008.228-.019.344-.027-.006-.06-.012-.114-.019-.174.174-.071.342-.143.512-.218.156-.766.492-.633.784-1.112-.01-.112-.023-.23-.033-.344.116-.071.224-.135.336-.2,0-.056-.012-.116-.015-.174.108-.07.226-.135.336-.2-.012-.118-.017-.234-.027-.347.106-.068.22-.135.332-.2-.01-.112-.021-.232-.029-.347.058,0,.116-.012.17-.012-.006-.114-.015-.232-.029-.347.116-.068.22-.135.336-.2-.01-.12-.017-.234-.029-.351l.32-.376c-.012-.116-.017-.23-.031-.34.056,0,.118-.012.176-.017-.01-.118-.021-.232-.031-.344.114-.071.22-.137.332-.2-.01-.116-.019-.234-.027-.347l.318-.375c-.01-.118-.017-.23-.027-.346.058-.008.116-.008.172-.013-.006-.12-.015-.232-.025-.346l.172-.017c-.01-.116-.017-.232-.027-.347.108-.068.218-.131.336-.2-.023-.234-.044-.459-.06-.695.112-.068.218-.135.332-.2-.015-.174-.029-.351-.041-.525l.172-.01c-.012-.118-.021-.234-.027-.347.054,0,.112-.008.176-.015-.025-.288-.052-.577-.075-.865.056-.006.118-.014.174-.014-.006-.122-.021-.235-.029-.347.062-.008.116-.01.174-.015-.014-.174-.029-.347-.046-.519.068,0,.12-.008.178-.015-.025-.347-.054-.693-.083-1.04l.17-.012c-.012-.12-.017-.23-.027-.349a1.752,1.752,0,0,1,.176-.01c-.033-.409-.068-.813-.1-1.216.054,0,.114-.012.172-.014-.017-.174-.029-.347-.039-.521.056,0,.108-.012.172-.015-.017-.228-.037-.459-.06-.693.06,0,.116-.01.174-.015-.01-.114-.017-.232-.031-.344.062-.008.12-.008.178-.015q-.125-1.558-.251-3.118c.214-.193.429-.386.649-.581-.01-.114-.021-.23-.031-.347.168-.124.33-.257.5-.384q-.02-.174-.029-.348c.156-.131.322-.261.488-.388.039-.237.073-.475.118-.708.11-.068.218-.131.326-.2,0-.116-.012-.23-.025-.342.062-.008.118-.01.181-.014.031-.239.073-.477.114-.71.056,0,.114-.008.176-.014-.021-.232-.042-.461-.058-.691.058,0,.114-.012.172-.015-.023-.292-.052-.581-.073-.869.06-.006.118-.01.174-.014,0-.062-.012-.118-.016-.178.459-.039.925-.073,1.39-.112,0-.054-.008-.114-.013-.172.224-.079.452-.147.678-.23-.01-.116-.017-.23-.027-.346.82-.17.861-.51,1.129-1.135.056-.008.116-.012.172-.015-.017-.234-.039-.463-.054-.695.16-.131.324-.259.492-.39-.015-.234-.037-.461-.06-.691q.09-.012.174-.017c-.017-.172-.025-.348-.039-.517.056-.006.114-.012.172-.015-.027-.344-.058-.7-.083-1.041l.17-.012c-.021-.234-.037-.465-.056-.695.058,0,.118-.01.17-.014-.035-.405-.064-.807-.1-1.214.062,0,.12-.01.176-.015-.031-.4-.062-.807-.1-1.214.058,0,.114-.008.172-.014-.017-.232-.035-.461-.058-.693l.178-.014c-.033-.4-.068-.809-.1-1.216l.172-.014c-.052-.633-.1-1.27-.152-1.9.058,0,.11-.014.172-.014-.023-.293-.044-.585-.075-.871.058-.006.12-.008.176-.015-.073-.224-.154-.448-.23-.676.054-.006.118-.01.174-.014-.01-.12-.019-.234-.033-.347l.174-.014c-.014-.176-.027-.351-.041-.521.062,0,.12-.012.178-.015.025-1.108.054-2.214.081-3.322.052,0,.112-.008.168-.015-.033-.4-.064-.8-.1-1.212.06,0,.118-.006.176-.012-.027-.351-.054-.695-.083-1.041.056-.006.118-.01.17-.015-.039-.519-.083-1.041-.124-1.564.056,0,.114-.008.174-.012-.019-.23-.039-.461-.06-.695l.174-.012c-.027-.349-.056-.693-.085-1.04.066,0,.116-.012.174-.015-.025-.347-.054-.693-.085-1.041.06-.008.118-.012.172-.015-.025-.342-.05-.689-.079-1.035.058-.008.116-.012.168-.021-.031-.4-.066-.8-.1-1.207l.176-.014c-.017-.178-.033-.346-.042-.525.058,0,.114-.008.17-.014C465.965,116.331,465.928,115.927,465.9,115.52Zm-52.267,18.214c-.114.01-.23.021-.346.033-.068-.116-.133-.228-.2-.34-.349-.087-.708-.174-1.062-.261-.008-.058-.012-.118-.017-.174-.112.012-.23.019-.347.031,0-.06-.012-.12-.013-.178-.355-.091-.71-.174-1.07-.264,0-.056,0-.112-.012-.172-.176.014-.349.025-.519.041-.006-.056-.012-.11-.019-.17-.112.01-.23.019-.344.031,0-.064-.008-.116-.013-.178-.17.019-.346.031-.517.041-.006-.054-.013-.116-.015-.168-.241-.042-.475-.077-.712-.114,0-.064-.006-.12-.014-.176-.174.014-.344.029-.515.041-.006-.062-.012-.118-.019-.17-.228-.042-.465-.081-.7-.122,0-.058-.01-.116-.013-.172-.174.014-.349.029-.519.041-.006-.056-.01-.118-.01-.174-.293.023-.579.044-.876.07,0-.058,0-.112-.01-.172-.174.015-.347.031-.519.042,0-.058-.01-.114-.015-.172l-.867.069c0-.06-.01-.114-.015-.172l-.346.027c0-.058-.006-.112-.014-.176-.234.023-.465.041-.695.056,0-.056-.013-.116-.013-.17l-.348.027c-.066-.112-.133-.222-.2-.332a8.322,8.322,0,0,0-2.629-.135c-.021-.237-.041-.463-.056-.695-.234-.156-.239-.394-.39-.492-.118.01-.236.021-.347.029-.006-.054-.01-.116-.014-.174-.18-.1-.361-.2-.546-.3-.012-.112-.017-.232-.027-.346-.125-.052-.243-.095-.361-.145-.006-.06-.01-.114-.014-.172-.3-.153-.6-.3-.909-.45-.012-.118-.019-.234-.029-.349l-.17.014c-.187-.193-.156-.326-.4-.49,0-.112-.015-.23-.025-.344-.174.012-.346.023-.517.037-.083-.278-.17-.564-.247-.851-.12-.048-.243-.093-.361-.145-.071-.224-.154-.452-.228-.678-.124-.05-.239-.1-.361-.149-.143-.334-.286-.674-.432-1.008-.058,0-.116.012-.172.015-.017-.232-.039-.463-.058-.693l-.172.014c-.075-.232-.156-.459-.228-.68l-.178.014c-.158-.51-.315-1.025-.473-1.535-.052,0-.114.012-.172.015-.079-.226-.153-.458-.236-.68-.054,0-.112.012-.17.015-.01-.174-.027-.351-.044-.519-.118-.052-.239-.1-.357-.149-.093-.459-.191-.915-.284-1.374-.062,0-.114.008-.176.017-.456-1.3-.905-2.6-1.367-3.9a2.339,2.339,0,0,0,1.176-.622l.185.162c.037.4.068.807.1,1.21a3.809,3.809,0,0,0,2.969,2.2c.006.118.015.23.027.351.4.021.819.048,1.224.075a1.639,1.639,0,0,1,.013.168,9.819,9.819,0,0,0,2.776-.226,2.831,2.831,0,0,1,.99-.776,2.242,2.242,0,0,0-.253-.851c-.689.056-1.382.11-2.077.172.008.054.012.114.015.17-.118.008-.234.019-.347.027l.012.174c-.394.091-.8.181-1.2.276-.2-.212-.322-.156-.544-.307,0-.056-.01-.116-.017-.174-.118.01-.234.019-.346.027-.272-.178-.131-.423-.575-.649a9.377,9.377,0,0,0-.459-1.361c.01-.581.019-1.16.029-1.745.259-.429.515-.859.776-1.288,1.535-.483,2.1-1.077,3.911-1.189-.013-.174-.027-.346-.041-.523a17.621,17.621,0,0,1-1.776-.378c-.465.039-.925.075-1.386.11,0,.064.01.116.013.176l-.865.075a10.284,10.284,0,0,1-1.867.674c.027-.353.062-.707.089-1.054.056-.006.114-.014.17-.017.033-.347.058-.7.087-1.054.06-.006.122-.01.18-.014-.012-.11-.023-.232-.029-.344.214-.193.432-.384.649-.581.124-.649.243-1.3.373-1.95.332-.129.145.012.326-.2.114-.01.23-.017.344-.029.261-.195.129-.9.253-1.243.058,0,.116-.008.168-.014.046-.236.087-.469.12-.71.058,0,.116,0,.172-.008-.008-.176-.027-.347-.041-.521.062,0,.116-.008.176-.015.253-.278,1.006-.274,1.546-.3a4.388,4.388,0,0,0,.57-1.614c.8-.32.158-.187.459-.737.112-.066.224-.135.336-.2-.008-.062-.01-.118-.017-.176.116-.01.232-.017.347-.029,0-.056-.006-.11-.01-.174.608-.33.336.284.836-.415.058-.006.112-.01.168-.014-.015-.174-.027-.347-.039-.517q.162-.107.33-.2c-.006-.116-.017-.234-.029-.349l.322-.375c-.006-.112-.021-.23-.031-.346.112-.068.222-.135.336-.2-.015-.174-.031-.349-.041-.521.054,0,.112-.012.172-.015.589-.589.93.145,1.386-.112-.008-.058-.012-.114-.015-.174a2.428,2.428,0,0,0,1.392-2.206c.575-.027.786-.021,1.066.261.761-.031,1.062.017,1.174-.618.116-.01.232-.019.346-.031.044-.178.091-.355.133-.529.556-.1.353-.293.707.112a2.26,2.26,0,0,0,1.983-1.38c.118-.008.232-.019.344-.027.131-.683.475-.589.6-1.266.166-.075.332-.149.5-.22,0,.06.01.118.014.178.234-.019.463-.039.693-.056.006.056.01.112.017.172.745-.12,1.49-.241,2.236-.357-.006-.058-.014-.118-.015-.178.12.052.243.1.365.151-.008-.06-.012-.116-.015-.176.174-.015.346-.029.521-.042,0-.054-.008-.114-.013-.17.689-.116,1.374-.234,2.065-.347,0-.056-.01-.112-.013-.172.168-.015.347-.027.517-.044,0-.054-.008-.114-.014-.172l.521-.042c0-.056-.008-.116-.012-.176l1.558-.124c.446-.21.894-.423,1.347-.631a1.372,1.372,0,0,0,.01.174c.859-.189,1.712-.373,2.575-.564.062-.019.014-.247.334-.2,0,.056.008.112.01.17.174-.012.346-.027.521-.041.068.112.135.22.2.332.116-.01.23-.017.349-.031,0,.062.01.124.014.178.23-.017.459-.035.689-.054a1.5,1.5,0,0,1,.015.17c.172-.014.347-.031.517-.042a1.34,1.34,0,0,1,.012.174l3.313-.095a9.523,9.523,0,0,0,.929.625c.127.166.255.324.382.49.116-.01.234-.021.344-.029,0,.06.012.116.019.174l.55.305c.006.116.019.23.027.346l.546.307c.44.415.154.652.934.8a5.444,5.444,0,0,0,1.187,1.647c.181.1.361.208.546.307.01.112.014.234.027.346.058,0,.116-.012.176-.015.008.118.017.234.025.347.122.048.245.095.361.147.077.226.158.454.23.678.118.046.243.1.359.145.081.226.158.456.232.68.118.052.241.1.363.147.093.456.187.915.286,1.373.062,0,.114-.008.172-.014.012.174.027.347.044.519l.176-.014c.008.116.017.232.025.346.056,0,.118-.01.174-.014.095.459.191.909.282,1.373l.178-.01c.033.4.068.8.1,1.208l.172-.01c.029.342.056.689.087,1.037.058,0,.112-.008.172-.015.042.577.095,1.158.137,1.734.058,0,.122-.012.176-.017-.031.353-.058.71-.091,1.062.056-.008.12-.012.178-.014.077.353-.145.353-.145.353.05.641.1,1.274.152,1.911-.058,0-.116.008-.174.012-.041.938-.077,1.874-.122,2.8-.058,0-.116.008-.172.012.012.174.025.347.044.521-.062,0-.12.012-.174.014.008.118.017.236.027.349-.06.006-.116.01-.176.014l.046.521c-.06,0-.118,0-.176.01l.027.349c-.056.006-.112.01-.172.017.015.234.035.459.052.689l-.168.015c.01.118.017.23.031.346-.116.066-.226.135-.338.2.015.176.029.349.046.527-.062,0-.118.008-.178.014.008.11.019.224.029.342-.058.008-.116.012-.172.017l.052.693c-.052.006-.114.008-.172.014-.041.236-.075.469-.116.7-.056,0-.114.008-.174.014.013.174.033.349.044.525l-.176.012c.01.116.021.234.029.349-.11.068-.226.133-.332.2-.037.292-.068.583-.106.876-.112.068-.216.135-.334.2.012.114.021.23.031.346-.056,0-.114.012-.172.017.015.114.021.224.031.344-.062.006-.118.01-.176.012-.035.293-.069.585-.1.882-.116.068-.226.135-.336.2.012.116.021.23.027.349-.162.124-.328.255-.488.384-.041.234-.081.475-.12.708-.218.195-.432.38-.652.577.01.114.019.232.029.347-.112.064-.218.135-.336.2,0,.062.013.116.015.174-.1.073-.22.137-.328.2.01.12.017.236.027.349-.058,0-.118.008-.174.015a1.4,1.4,0,0,0-.3.718c-.11.01-.23.017-.344.029.012.116.021.23.031.346-.328.32-.645.637-.973.952-.044.178-.083.357-.127.539-.116,0-.234.015-.353.025.01.114.021.234.031.346-.11.01-.228.017-.344.027.01.118.021.234.027.347-.218.137-.442.272-.662.4-.319.434-.631.865-.946,1.3-.118.012-.234.019-.344.027-.048.122-.1.245-.145.363-.116.01-.232.019-.349.027-.046.124-.1.243-.143.361q-.5.217-1.013.432c0,.058.012.114.013.174-.114.012-.23.017-.346.027-.046.125-.1.245-.143.363l-1.015.432-.143.361c-.342.085-.685.168-1.025.257q.009.087.012.174c-.338.139-.674.288-1.013.429a1.72,1.72,0,0,1,.013.176c-.112.01-.232.017-.344.025,0,.058.01.118.013.176-.116.01-.236.017-.342.029,0,.056.006.116.01.174-.176.012-.347.027-.519.039,0,.058.006.116.008.18l-.344.025c0,.058.012.114.014.172-.174.017-.346.029-.517.044,0,.052.008.112.014.174-.112.008-.232.017-.346.023,0,.064.01.116.013.176-.172.015-.349.029-.521.042.01.06.012.116.015.17-.226.083-.454.156-.681.234,0,.054.012.112.013.174-.172.014-.347.025-.515.041,0,.056.008.118.016.176-.12.008-.234.017-.348.029,0,.056.008.116.012.172-.34.085-.683.17-1.027.259a7.981,7.981,0,0,1-2.689,1.264c.013.174.027.347.039.521A6.4,6.4,0,0,1,413.631,133.734Zm24.748-2.535c-.035-.405-.062-.811-.1-1.214.058,0,.122-.008.178-.015-.01-.114-.021-.23-.031-.346.062-.006.12-.01.176-.013-.008-.116-.021-.232-.031-.346.064,0,.118-.012.176-.015-.01-.118-.015-.23-.025-.346.058-.006.114-.013.166-.017-.008-.17-.025-.346-.039-.515.112-.068.216-.137.332-.2.039-.234.079-.475.118-.7q.513-.136,1.029-.263c-.008-.058-.012-.114-.017-.172l.178-.014c-.089-.34-.174-.687-.261-1.027.116-.008.23-.017.348-.027.041-.237.073-.473.116-.71a2.544,2.544,0,0,0,.984-.774c0-.064-.013-.114-.019-.174.122-.012.234-.021.351-.029a2.2,2.2,0,0,1,1.346-.633c.073.168.145.336.216.5.058-.008.114-.008.172-.012.008.114.019.23.031.347.056,0,.114-.008.172-.015a6.741,6.741,0,0,1,.093,3.309c-.11.068-.22.131-.33.2a3.241,3.241,0,0,0-.6,1.268c-.114.01-.23.021-.349.029.01.114.021.234.027.344l-.168.017c-.261.369-.523.739-.784,1.112-.116.008-.23.019-.346.027-.108.185-.2.365-.3.546-.178.014-.349.027-.521.042-.1.183-.2.365-.307.548-.172.017-.344.027-.515.042-.046.122-.1.239-.145.363-.515.382-.666.162-.988.776-.058,0-.114.012-.17.015,0,.056.01.114.015.172a1.276,1.276,0,0,1,.386.494c.581.006,1.164.017,1.747.031-.006-.056-.01-.118-.013-.174l.679-.23q.1,1.213.2,2.425l-.176.012c.012.176.029.349.042.525-.054,0-.116.006-.174.014a.465.465,0,0,0,.216.51,3.329,3.329,0,0,1-.207,1.757c.008.06.012.118.015.176-.324-.141-.29-.23-.72-.29-.168-.49-.234-.562-.751-.641-.017-.172-.029-.346-.042-.519-.355-.075-.147.037-.361-.145C437.976,136.442,438.018,132.894,438.379,131.2ZM431.3,151.49c-.172.015-.346.027-.521.042-.317-.38-.637-.763-.961-1.143-.006-.116-.021-.23-.027-.347-.122-.048-.241-.1-.365-.143-.085-.342-.172-.683-.257-1.027-.06,0-.116.008-.176.014-.014-.174-.027-.348-.041-.519-.324-.587-.714-.537-.817-1.5.282-.085.569-.16.853-.243a1.355,1.355,0,0,1-.015-.174c.346-.029.693-.056,1.04-.087-.006-.054-.01-.114-.015-.17.4-.033.807-.068,1.21-.1,0-.06-.01-.118-.016-.172l1.015-.434c0-.056-.008-.118-.014-.174.116-.012.23-.015.346-.029,0-.054-.006-.11-.014-.168.116-.014.234-.021.349-.031a1.707,1.707,0,0,1-.015-.174c.284-.085.568-.16.851-.245.1-.183.2-.365.3-.544.176-.015.349-.029.521-.046,0-.06-.01-.114-.017-.172.18-.015.351-.031.523-.042,0-.06-.008-.118-.014-.174.226-.079.456-.151.678-.23,0-.058-.01-.116-.013-.178.114-.008.234-.013.346-.025q1.341-1.85,2.67-3.706a4.168,4.168,0,0,1,2.2,1.392c.124.052.245.1.365.145.027.344.054.695.083,1.039.12.05.241.1.359.149.01.112.019.228.031.347.058-.006.12-.01.174-.014.07.166.139.336.214.5.116-.008.23-.015.349-.027l.039.519a5.632,5.632,0,0,0-1.3,1.154c-.048.12-.1.237-.147.361-.11.008-.228.015-.346.029-.1.181-.2.365-.307.544-.319.315-.649.639-.967.956-.207.3-.417.614-.625.919-.114.012-.232.017-.34.031l-.322.376c-.116.01-.23.021-.346.027.006.056.012.112.014.17-.12.01-.23.013-.349.029-.1.185-.2.367-.3.55-.12.012-.236.021-.349.027-.046.122-.1.241-.143.359l-.346.029a1.344,1.344,0,0,0,.015.178c-.18.012-.351.025-.527.039,0,.056.01.116.017.172-.176.015-.347.031-.523.042.01.056.012.12.015.174-.112.012-.23.021-.344.029,0,.058.006.116.014.174-.236.019-.463.037-.7.054.006.06.008.118.015.18-.176.014-.344.027-.521.044,0,.054.01.108.014.168l-.346.031c.01.056.01.114.015.172-.17.015-.347.027-.517.044,0,.056.01.118.01.17l-1.7.486C431.294,151.378,431.3,151.434,431.3,151.49Zm17.245,1.739c-.058,0-.116.008-.174.014.008.116.013.236.029.347-.058.006-.118.012-.176.015.019.23.042.461.058.689-.058.008-.114.012-.176.015-.039.237-.073.479-.114.708-.062.006-.116.012-.174.015.023.292.048.579.073.867-.114.069-.226.133-.336.2.01.118.015.232.025.347-.106.071-.218.135-.33.2.01.116.015.232.029.347-.058,0-.114.008-.176.014-.041.174-.089.355-.129.533-.112.068-.224.131-.33.2,0,.118.017.237.027.346-.162.241-.61.241-.842.421-.046.12-.095.241-.145.361-.378.27-.863.05-1.371.288,0,.054.01.112.014.174-.116.006-.232.015-.347.023,0,.058.012.12.015.174a4.214,4.214,0,0,1-1.921-.017c.006.058.01.116.013.172-.06.008-.116.012-.17.015-.006-.058-.013-.118-.019-.174-.174.014-.347.027-.523.046l-.01-.178c-.112.012-.232.023-.346.031-.008-.06-.015-.118-.019-.174-.405-.027-.817-.05-1.226-.077-.062-.11-.133-.224-.2-.33l-.521.042c-.008-.062-.01-.118-.012-.176-.357-.085-.718-.172-1.07-.261-.006-.06-.012-.116-.015-.172-.116.008-.234.019-.349.027a1.565,1.565,0,0,0-.013-.172c-.168.01-.349.027-.515.041-.2-.216-.388-.436-.581-.649l-.7-.122q-1.045-.961-2.077-1.925c-.01-.116-.019-.234-.031-.344-.432-.317-.863-.635-1.3-.944-.008-.118-.015-.234-.025-.344-.06,0-.118.012-.172.013-.189-.2-.156-.326-.392-.492.45-.624,1.595-.683,2.357-1.064,0-.064-.01-.118-.014-.178.17-.012.342-.025.517-.041,0-.056-.01-.114-.015-.17.122-.012.234-.023.355-.031a1.7,1.7,0,0,1-.019-.176c.4-.091.8-.178,1.2-.27l-.012-.174c.222-.075.454-.156.683-.228,0-.056-.014-.118-.019-.176.456-.093.917-.191,1.376-.282.046-.124.093-.241.145-.365.282-.081.562-.162.849-.241-.012-.116-.019-.234-.029-.351.842-.17.631-.438,1.16-.791.222-.075.452-.151.678-.226.207-.311.415-.616.622-.925.172-.073.338-.147.508-.218-.01-.112-.019-.23-.029-.346.116-.008.23-.015.347-.029.2-.3.413-.612.62-.923.17-.075.34-.143.51-.214-.012-.118-.023-.228-.029-.348a3.422,3.422,0,0,0,1.595-1.873c.465.021.934.039,1.4.06a9.611,9.611,0,0,0-.124,2.8c.058-.008.114-.012.17-.013.147.332.288.674.434,1.006a1.636,1.636,0,0,0,.172-.013c.014.118.021.232.033.353.054-.008.108-.014.17-.019.075.226.153.454.226.681l.554.3c.012.116.019.234.031.346l.168-.012c.052.633.1,1.268.156,1.907.035.4.068.809.1,1.214-.052,0-.114.008-.172.012C448.5,152.652,448.524,152.944,448.547,153.229Zm-.019-13.085c.01.114.019.234.029.346-.106.068-.222.137-.33.2.01.118.015.234.027.347-.112.066-.218.131-.336.2.015.114.023.234.031.342-.054.008-.114.012-.176.015-.1.185-.2.369-.3.55-.909.079-2.278.436-3.133.079-.066-.108-.139-.222-.2-.332-.18-.044-.357-.085-.535-.129a1.446,1.446,0,0,1,.114-.71c.06,0,.12-.01.178-.012-.118-.749-.239-1.492-.357-2.243a14.77,14.77,0,0,1,.222-3.679c-.046-.577-.095-1.158-.141-1.734l.176-.015c-.014-.174-.031-.347-.042-.521l.174-.014c.212-.9-.268-1.1.38-1.774a1.6,1.6,0,0,1-.017-.174c.058-.008.12-.008.176-.015-.031,1.8-.056,3.614-.083,5.415a10.088,10.088,0,0,0,.778.986c1.392.444,3.4.106,5.054-.064.014.176.025.348.044.525-.058,0-.116.012-.176.012.027.288.05.577.073.865-.112.068-.222.135-.332.2,0,.058,0,.114.008.172-.11.01-.224.017-.344.025-.21.311-.419.62-.622.925C448.753,140.013,448.643,140.073,448.527,140.145Zm-2.058-23.03L447,113.7a8.1,8.1,0,0,1,1.376-.832l2.467-.2,4.453.6,3.172.541,1.467.365.471,5.807-.288,10.218-.141,4.237-.716,1.019a15.668,15.668,0,0,1-2.7.22c-.015-.156-1.571-3.558-1.571-3.558l-1.311-.855L452.5,131.2l-1.091,1.288-.376,3.315-2.114.566-2.471.2-.917-1.513.195-7.388,1.044-6.892Zm11.046,28.408-.168.014c.006.114.017.23.027.347-.064,0-.114.008-.176.014.01.114.017.232.025.346a1.656,1.656,0,0,0-.166.013c.006.118.015.232.023.348l-.317.373c.008.118.019.232.029.351q-.33.284-.651.577c.008.114.015.23.027.344-.112.071-.226.131-.336.207.01.112.021.226.031.344l-.172.015c-.1.18-.207.365-.309.544a12.369,12.369,0,0,1-3.338-.249c0-.058-.006-.12-.014-.176-.112.01-.226.023-.34.031-.135-.224-.268-.45-.407-.668-.292.025-.577.044-.865.069a1.268,1.268,0,0,1-.015-.174c-.245-.152-.488-.307-.736-.461-.015-.174-.029-.347-.044-.523-.122-.048-.239-.095-.357-.143-.085-.28-.162-.571-.247-.851-.056,0-.11.006-.17.014.095-.878.207-1.759.307-2.639.11-.075.218-.137.332-.2-.014-.114-.017-.234-.031-.348.062,0,.118-.01.176-.015-.013-.116-.021-.234-.029-.346.216-.193.434-.384.649-.575-.006-.116-.021-.234-.029-.349.112-.068.224-.135.336-.2-.01-.118-.017-.234-.025-.351.108-.064.22-.131.332-.2.207-.309.415-.616.622-.923.293-.342.8-.5.969-.952q.058-1.4.122-2.8c-.066-.118-.137-.222-.2-.332.052,0,.112-.008.172-.014-.01-.118-.019-.234-.031-.349.06-.006.116-.006.176-.014-.013-.174-.027-.346-.041-.521-.058,0-.12.008-.176.015,0-.056-.008-.114-.017-.174.062-.008.118-.012.174-.017-.039-.515-.081-1.039-.124-1.554.056,0,.116-.008.174-.014-.017-.174-.031-.346-.044-.521.06-.006.116-.014.174-.017a1.243,1.243,0,0,0-.014-.172c-.075-.234-.255.075-.189-.158.058,0,.114-.012.178-.015.039-.181.087-.357.131-.537.7.347.539.732.979,1.32.118.048.239.095.357.143.01.118.017.232.029.347l.176-.014c.052.635.1,1.272.154,1.9.056-.006.118-.008.178-.012.027.407.06.8.095,1.21.062,0,.116-.008.172-.008.027.342.056.689.085,1.039.06-.006.116-.01.176-.013.01.112.015.234.029.344.116.05.239.1.359.147.015.174.027.344.042.519.247.154.488.309.737.463.01.114.021.236.027.344.058,0,.114,0,.17-.008.023.228.041.461.058.691a8.287,8.287,0,0,1,.714,4.479C457.479,145.058,457.5,145.291,457.516,145.523Zm5.815-29.439-.178.014c.033.4.068.811.1,1.212-.056.006-.116.01-.172.017.033.4.068.805.1,1.21-.062,0-.12.012-.174.015.039.523.081,1.041.124,1.56l-.172.012c.019.234.037.463.058.695-.062,0-.12.01-.176.015.031,1.1.06,2.2.093,3.3l-.176.017c.029.346.058.693.089,1.035-.06.008-.118.015-.174.017.017.232.039.465.054.691-.054.008-.116.012-.172.015.025.29.048.581.073.869-.062.006-.116.01-.176.014q.09,1.132.181,2.255c-.054,0-.116.012-.17.015.006.114.017.226.029.346-.058,0-.118.01-.18.012.041.461.081.925.118,1.39-.06.006-.12.012-.172.013.019.23.037.461.052.691-.058,0-.114.01-.176.012.035.405.07.813.1,1.216l-.168.013c.052.639.1,1.272.154,1.905-.06.008-.118.014-.176.017.021.232.039.461.058.693-.058.008-.116.01-.176.014.06.755.124,1.506.183,2.251a1.666,1.666,0,0,1-.172.015c.015.174.027.348.044.523-.058.006-.116.006-.178.014.013.172.031.347.044.519l-.172.015c.023.286.046.579.068.863-.058.008-.112.014-.174.017,0,.058.01.116.013.172a1.563,1.563,0,0,0,.176-.015c0,.06.01.12.015.174-.058.008-.116.013-.172.017.021.291.044.579.066.865-.056.008-.118.012-.174.017-.029.236-.075.469-.116.7a1.057,1.057,0,0,1-.174.015c.017.174.031.347.042.521l-.328.2c-.272.469.207.291-.483.564-.178.207.01.071-.33.2-.12-.18-.324-.245-.376-.317l-.029-.347c-.056.006-.116.012-.17.015-.037-.068-.3-1.544-.3-1.544l.174-.015c0-.06-.006-.114-.01-.174l-.178.014c-.017-.232-.037-.461-.056-.693-.06,0-.116.008-.17.014-.019-.232-.041-.461-.06-.695-.118-.05-.235-.095-.361-.143a2.769,2.769,0,0,1-1.21-2c.508-.216,1.013-.429,1.521-.647,0-.058-.01-.114-.013-.174.342-.083.68-.17,1.019-.257,0-.06-.006-.118-.012-.172l.347-.031c.085-.058.125-.253.326-.375.033-.236.069-.471.114-.708l.168-.012c-.039-.459-.073-.927-.11-1.388.056-.006.116-.012.174-.015-.023-.29-.048-.577-.069-.863.052,0,.112-.012.172-.012-.033-.407-.07-.815-.1-1.218a1.729,1.729,0,0,1,.176-.01c-.027-.293-.052-.581-.069-.873l.166-.012c-.021-.29-.042-.579-.07-.871l.176-.01c.019-.525.033-1.05.046-1.577l-.172.014c-.006-.054-.01-.12-.013-.172.058,0,.112-.01.172-.015.029-.346.058-.7.087-1.056l.176-.01c-.056-.7-.114-1.39-.166-2.083.052-.006.114-.012.166-.014-.048-.579-.091-1.154-.139-1.732.058,0,.118-.012.178-.017-.006-.062-.012-.11-.015-.172-.064,0-.114.008-.174.015-.041-.463-.079-.923-.114-1.388.06,0,.116-.01.178-.014-.031-.349-.058-.693-.089-1.039,0,0,.214.019.147-.365-.058.008-.116.008-.172.014,0-.058-.012-.116-.019-.172.058,0,.118-.008.176-.015-.031-.344-.058-.691-.087-1.039l.178-.014c-.062-.749-.125-1.5-.183-2.251a3.407,3.407,0,0,0,.033-1.749c-.058,0-.118.014-.172.015a1.7,1.7,0,0,1-.247-.853c-.531-.133-1.066-.263-1.606-.4,0-.058-.006-.118-.01-.172-.118.012-.23.017-.347.029a1.348,1.348,0,0,1-.012-.176c-.236.021-.461.041-.7.06-.236-.06.058-.129-.185-.162-.174.143.081.23-.158.187-.071-.112-.131-.222-.2-.332-.042-.006-.492.338-.851.243,0-.058-.008-.118-.013-.172-.118.008-.234.019-.349.027,0-.06-.012-.12-.014-.178-.174.017-.347.031-.515.046-.243-.054.058-.147-.189-.162-.1.1,0,.286-.336.2,0-.056-.006-.112-.013-.174-.114.008-.23.019-.344.029a1.031,1.031,0,0,1-.013-.172c-.176.015-.353.029-.521.044,0-.058-.008-.116-.016-.174-.108.066-.222.129-.328.2a1.335,1.335,0,0,1-.015-.172l-.523.041c0-.06-.01-.12-.014-.178-.17.019-.349.033-.521.046,0-.058-.006-.114-.01-.176-.469.039-.927.077-1.392.114,0-.058-.01-.118-.012-.172l-2.282-.166c0,.06.012.118.017.176-.062,0-.12.008-.176.014q-.012-.087-.017-.174c-.349.029-.691.058-1.039.085,0,.062.01.114.013.174-.346.031-.693.062-1.041.083.008.054.01.114.015.176-.347.081-.683.17-1.029.255-.042.178-.083.357-.127.535-.056,0-.116.012-.172.015,0,.116.017.234.027.346l-.172.017c.025.346.052.693.085,1.041-.06,0-.122.01-.172.012q.049.695.11,1.386c-.062.01-.12.012-.176.015.013.174.025.347.041.519l-.172.012c.014.17.031.349.044.523a1.757,1.757,0,0,0-.176.014c-.054.29.189.3.2.334l.012.174-.176.012c.037.463.075.929.11,1.386l-.172.014c.046.519.089,1.042.129,1.56-.058.008-.114.012-.174.015,0,.7,0,1.4,0,2.095l-.174.014c0,.058.012.114.015.174-.936-.039-1.031-.523-1.965-.539.1-.834.3-2.021.469-2.828-.006-.759-.01-1.512-.01-2.27.054,0,.114-.01.166-.015-.006-.112-.013-.226-.025-.346l.176-.012c-.019-.292-.044-.577-.071-.869.056,0,.114-.006.172-.01-.05-.637-.1-1.276-.152-1.909.058,0,.116-.012.174-.015-.029-.346-.052-.693-.085-1.042l.174-.01c.031-.409.048-.817.075-1.228a1.719,1.719,0,0,0,.172-.015c-.006-.116-.019-.234-.027-.347.058-.006.116-.012.17-.014.006-.639.015-1.284.021-1.921l.172-.014c-.012-.116-.021-.232-.027-.346.06-.008.118-.01.172-.014l.4-1.606c.054,0,.114-.012.172-.015.154-.241.307-.488.469-.736.459-.037.919-.075,1.38-.108,0,.06.008.112.013.17.118-.008.232-.015.346-.027.008.056.015.12.019.174.168-.069.332-.143.508-.216l.012.174c.347.031.7.062,1.054.087,0-.056-.012-.114-.016-.174.118.05.241.1.361.149.112-.066.224-.137.332-.2.008.06.01.12.013.174.234-.017.467-.035.7-.054.237-.06-.089-.168.156-.187.124.056.081.272.376.317.174-.17-.087-.214.162-.185.008.056.01.116.012.17.23-.017.463-.037.689-.056,0-.058-.006-.114-.013-.168.062-.01.118-.014.176-.017.008.058.01.12.017.174l1.212-.1c.006.064.01.12.012.174.116-.01.23-.015.348-.025.01.06.013.114.017.168.871.048,1.749.1,2.627.141l.012.172c.178-.014.349-.025.517-.041.006.06.015.114.019.174.172-.015.346-.031.517-.042.008.058.01.116.013.174l.523-.044c0,.06.008.12.01.172.347-.029.7-.056,1.042-.081,0,.06.012.116.015.172.172-.014.347-.027.519-.039l.012.17c.236-.019.465-.037.7-.058,0,.062.008.12.012.172.114-.006.234-.014.344-.025a1.669,1.669,0,0,1,.017.172c.409.027.819.048,1.23.077,0,.056.008.112.013.172.952.216.51.994.846,1.849.373.95-.085,3.067.371,4.508.052,0,.114-.006.172-.012,0,.058.006.114.012.174l-.172.012c.07.114.135.224.2.336l-.172.014C463.3,115.736,463.317,115.912,463.33,116.084Z" transform="translate(0)" fill="#0070c3"/>
    <path id="Path_1489" data-name="Path 1489" d="M404.782,88.479l-.172.015c-.006-.056-.01-.114-.013-.17-.583-.014-1.168-.023-1.753-.037,0,0-.015.154-.33.2l-1.21.1c0,.058.006.114.01.174-.286.021-.573.046-.859.069,0,.058.008.116.014.174-.12.008-.237.019-.351.027-.05.124-.1.241-.147.361-.172.017-.348.029-.519.044.006.058.008.112.013.17-.116.012-.234.023-.344.027.008.06.01.118.015.176-.176.073-.34.145-.51.216-.042.181-.087.359-.127.531l.172-.012c.008.114.017.234.029.347.376.039,1.371.317,1.919.021.046-.127.1-.243.143-.365.12-.008.232-.017.349-.029.048-.122.1-.237.147-.359.226-.073.452-.154.678-.226,0-.064-.008-.118-.016-.178.639-.05,1.272-.1,1.905-.154-.006-.058-.01-.112-.017-.174.182-.015.353-.029.523-.041a1.711,1.711,0,0,0-.012-.174c.17-.075.34-.145.5-.214C404.811,88.829,404.8,88.653,404.782,88.479Z" transform="translate(10.506 5.505)" fill="#0070c3"/>
    <path id="Path_1490" data-name="Path 1490" d="M417.42,120.452l.917,1.513,2.471-.2,2.114-.566.376-3.315,1.091-1.288,1.172.064,1.311.855s1.556,3.4,1.571,3.558a15.668,15.668,0,0,0,2.7-.22l.716-1.019L432,115.6l.288-10.218-.471-5.807-1.467-.365-3.172-.541-4.453-.6-2.467.2a8.1,8.1,0,0,0-1.376.832l-.527,3.411.3,3.662-1.044,6.892Zm1.44-1.241c-.05-.577-.095-1.154-.141-1.732l.172-.014c-.008-.813-.019-1.629-.025-2.446.058,0,.116-.008.176-.014-.031-.346-.06-.693-.087-1.037.056-.008.114-.012.176-.015-.025-.29-.052-.577-.073-.867.058,0,.116-.008.178-.014-.054-.639-.1-1.272-.16-1.905.064-.008.114-.012.172-.017-.027-.288-.048-.577-.07-.865.06,0,.118-.008.18-.015,0-.052-.012-.112-.017-.172-.06,0-.116.01-.181.014-.015-.23-.035-.461-.052-.695.062,0,.118-.006.18-.012-.013-.176-.031-.349-.044-.519.054-.008.116-.01.174-.015.008-.585.017-1.166.033-1.749.052-.006.112-.008.172-.012-.017-.172-.031-.349-.044-.523a1.236,1.236,0,0,0,.172-.015c-.033-.4-.062-.8-.1-1.21.06,0,.118-.008.176-.015-.019-.174-.029-.346-.042-.519.054,0,.116-.012.17-.015-.1-.569-.207-1.147-.309-1.716l.172-.012q.185-2.03.367-4.048c.573-.106,1.147-.212,1.726-.313.239.029-.062.156.181.16,0-.06-.008-.12-.01-.176.38-.042.357.147.357.147.292-.027.579-.048.869-.068a1.6,1.6,0,0,1,.012.17c.467-.039.925-.073,1.388-.112.006.054.01.116.013.174.174-.017.346-.031.519-.042.008.056.013.112.017.172.459-.037.923-.079,1.384-.112.006.054.008.114.017.174.112-.008.228-.017.342-.029.006.054.014.114.017.174q1.937.275,3.884.556a13.557,13.557,0,0,1-.081,3.322c.1.515.2,1.033.3,1.548-.064,0-.116.01-.176.014.029.4.064.8.1,1.212-.056,0-.116.008-.17.015.071.166.143.336.214.506-.056,0-.118.008-.176.012.077,1.681.16,3.359.239,5.04-.06,0-.116.012-.176.017.027.346.06.689.083,1.037-.056.006-.112.01-.172.019.014.114.023.228.029.344-.056.006-.116.008-.176.015.056.635.1,1.266.156,1.905-.054,0-.116.01-.172.017-.031.347-.058.7-.091,1.052-.05,0-.112.008-.17.015.079.28.164.566.243.847-.06,0-.12.012-.172.015.023.291.048.579.07.867-.062,0-.118.012-.176.012-.013.587-.025,1.17-.031,1.753-.064,0-.116.008-.178.015-.037.23-.077.467-.114.707-.336.147-.676.286-1.012.429-.158-.32-.11-.676-.259-1.025-.058.008-.116.012-.176.015-.014-.174-.025-.349-.039-.523l-.176.014c-.019-.23-.039-.463-.056-.689-.12-.05-.241-.1-.359-.149-.085-.342-.17-.685-.257-1.025l-.361-.143c-.015-.178-.027-.347-.046-.523a1.009,1.009,0,0,1-.17.014c-.131-.162-.261-.326-.394-.49-.176-.044-.351-.085-.527-.135l-.16.193c-.073-.17-.145-.34-.222-.506-.915.031-2.039-.276-2.579.384-.762.263-.71.737-.932,1.471-.054,0-.114.008-.172.014.029.288.046.575.071.867-.058.006-.114.01-.172.014.033.4.064.809.1,1.214a7.316,7.316,0,0,0-.22,1.587q-1.732.139-3.473.284A8.031,8.031,0,0,1,418.86,119.211Z" transform="translate(28.111 14.604)" fill="#0070c3"/>
  </g>
</svg>
