<svg id="Group_200" data-name="Group 200" xmlns="http://www.w3.org/2000/svg" width="49.038" height="40.815" viewBox="0 0 49.038 40.815">
  <path id="Path_1878" data-name="Path 1878" d="M299.52,689l-.022,0v.009Zm-.212-.013-.268-.078,0,.06Zm2.075.027L299.7,689v.009l.454.025,0,.09.856.047.007-.087.364.022Zm2.325-.957-1.333.82.228.013.007-.1.356.022.034-.054.058-.1.1-.011.279-.054.054-.1.074-.114.125,0,.063-.038a.937.937,0,0,1,.286-.161l.011-.25.282.018.036-.06.067-.114h.013l0-.083.094-.06.192-.11.011-.206.132-.054.063-.025.013-.275.085,0,.011-.188.13-.062.067-.025.013-.264.092,0,.011-.188.094,0,.016-.284.094.009.025-.376.085.009.009-.183.1.009.018-.284.1,0,.047-.838.087,0,.036-.581-.179-.009.112-.266h-.007l.016-.28-.1-.009.025-.4.033-.031c0-.045-.011-.083-.018-.128l-.009-.051-.443,3.135Zm-1.862.961-.362,0,.362.02Zm-2.978-.15-.93-.244-.007.114.349.047.554.083Zm3.459.045-.085.047.08,0Zm-4.854-.411-.271-.069,0,.052Zm31.234-.948-1.35-.843.233.224.219.328.3.016.054.132.022.069.284.013.06.123.02.065.279.013.047.123.049.092.438.1.19.038,0,.058.105.007.051.132.02.06.648.036-.007.143.069.027a.378.378,0,0,1,.221-.065l.224.014.011.105.481.025-.007.087,1.424.085,0-.089.371.022.007-.105.188.013,0-.087.221.013-3.345-.284Zm-30.789,1.071-.25-.069,0,.056Zm-.9-.237-.183-.047v.04Zm39.106-.545-2.533.686.434.022.007-.1.55.034.007-.092.362.018.031-.051.074-.118.195.013,0-.1.181.009,0-.1.371.022a.192.192,0,0,1,.034-.067l.072-.107.286.016.136-.183.065-.087.17.009.034-.065.069-.119.212.013.232-.27.045-.058.065-.011.143-.045.054-.009.051-.1.074-.119.127.009.06-.051a.872.872,0,0,1,.3-.152l.007-.168-.076-.174.241-.065.13-.04.011-.161.127-.051.065-.031.016-.262.174.009a2.139,2.139,0,0,0,.226-.554l.04-.188.181.013a1.385,1.385,0,0,1,.2-.458c.036-.072.069-.132.107-.215l.009-.306.013-.215.089,0,.02-.371.1,0,.013-.275c-.009.165-1.489,2.918-1.489,2.918Zm-44.3-6.915-.076.541.051.02.119.076-.007.1.185.009.078.152a1.411,1.411,0,0,1,.136.83l-.009.219-.06,0,.011.074.018.322-.157-.143.047.235.2.013-.011.174.065,0,.02.181.049.362.089.056.118.065-.011.2.172.132.065.047.016.092.067.293.19.156.094.062-.016.271.063.027.119.074-.011.206.273.23.051.045.016.065.036.132.188.007.04.163a.514.514,0,0,1,.02.074.392.392,0,0,1,.188.118l.042.038.127,0-.018.275.058.036.08.043.025.083.031.136.159.009.054.114.038.069.17.009.06.11.1.192.385.02,0,.092.183.009-.007.127.092.022.273.06.183.04,0,.06.15,0-1.748-1.366-1.348-1.511-.288-1.384s-.356-1.948-.342-2.216.092-.973.092-.973l.59-1.645,1.634-1.391s1.543-.8,1.742-.977.742-.123.742-.123l1.491-.213,1.8.3.854.38,1.243.458,1.091,1.415,1.605,2.227.335,1.323-.011-.1.134.009.007-.1.311.018a5.213,5.213,0,0,0,.029-1.695l-.157-.009.013-.183-.063,0-.016-.2-.054-.651a1.108,1.108,0,0,1-.11-.152,1.315,1.315,0,0,1-.221-.494l-.067-.344.333.078.237.074.233.058.168.038-.009.15a6.136,6.136,0,0,1,1.7.387l.136.072v.02l.271.013,0,.092.376.022,0,.1.186.009-.007.1,1.366.161a2.019,2.019,0,0,1,.326.132,2.312,2.312,0,0,0,.675.208l.291.031-.105.248h.007l-.007.1.517.031.063.069.092.1.085.1-.04.127-.112.367-.051.152-.119-.009a.543.543,0,0,0,.081.3,1.706,1.706,0,0,1,.105.257l.51.2.145.063.029-.049.15-.029.467.025.226.065.018.009.054-.087.172-.056.331.018,0-.049.2-.018.327-.029.326-.036c-.022,0,.022-.027.054-.042a.888.888,0,0,1,.584-.233.7.7,0,0,1,.232.058l.078.042.029.069.034.072.639.034-.007.119.273.04.452.078.092.011.04,0a.5.5,0,0,1,.116,0,.474.474,0,0,1,.273.1l.449-.049.259-.031-.007.127.456.027-.007.1.284.016-.007.1.646.04,0,.087.472.027,0,.1.926.051,0,.092.279.018-.007.1.463.027,0,.087.244.018a.343.343,0,0,1,.1-.013.767.767,0,0,1,.15.029l.15.067,0,.034.373.022,0,.065.016,0a.817.817,0,0,1,.235-.047l.217.013-.009.127c.134.016.271.033.434.047.219.009.445.009.655,0,.246,0,.423,0,.572.013l.089,0,.208.018,0,.083.089,0-.027.454.06.034.125.076,0,.094.089.007-.011.185.1,0-.02.369.058.029.121.069-.016.275.063.04.083.045.009.1a1.645,1.645,0,0,1,.06.28l.087.049.127.069-.011.224.4.4-.731-2.14.2-.554,1.377-.528,1.022-.284-.092-.677-.8-.074-2.891-.275-.013-2.088.195-1.563,2.314-2.728,1.994-.827,1.471-.414,1.185-.141,2.7.389,2.191,1.136.6.508s1.265,3.161,1.4,3.3a29.423,29.423,0,0,1,.255,3.441l.085,0,.027-.458.114,0,.116-.807-.027-.022-.1-.118.078-.134a.284.284,0,0,1,.081-.1l.045-.8-.1,0,.016-.275-.092,0,.025-.463-.085,0,.027-.472-.1,0,.018-.313-.045-.1-.186-.682-.069-.293.3.018a.565.565,0,0,1,.342-.139l.016-.241-.1-.376-.04,0-.072-.109a.713.713,0,0,1-.152-.275l-.15-.007-.058-.123a1.219,1.219,0,0,1-.172-.174l-.034-.058v-.034l-.089,0,.018-.284-.168-.136-.094-.065.013-.206-.1-.083-.358-.344-.036-.031-.029-.04-.107-.257-.266-.018.013-.235a2.335,2.335,0,0,1-.733-.517l-.027-.02-.018-.04-.034-.069-.279-.018-.047-.127-.031-.06-.271-.018,0-.1-.273-.013,0-.092-.19-.011,0-.1-.194-.009-.06-.127-.027-.087-.188-.036-.349-.065-.186-.038,0-.067-.373-.022.007-.092-.369-.02,0-.087-1.116-.067v0a.4.4,0,0,1-.145.013.487.487,0,0,1-.15-.033l-.165-.054,0-.056-.228-.036-.635-.078,0,.074-.458-.022,0,.092-.458-.025-.007.092-.472-.027,0,.092-.465-.027-.007.1-.19-.013,0,.1-.355-.02-.045.069-.058.105-.192-.013,0,.1-.186-.014,0,.092-.367-.022-.034.065-.049.08-.083.025-.139.027,0,.1-.15.045-.282.074-.2.056-.058.1-.074.123-.215-.013-.474.458-.541.519-.069.072h-.065l0,.069-.2.013-.478.009-.262.02-.007.105-.74-.038-.013.23-.264-.148-.38-.022,0,.092-.47-.027,0,.092-.53-.029.007-.127c-.062-.022-.132-.027-.19-.045a2.158,2.158,0,0,1-.273-.042l-.228-.056.092-.3c.06-.188.107-.266.277-.306l.009-.143.362.02.007-.092.409.022-.161.136.394.112a.16.16,0,0,0-.007-.152l-.136-.092.894.052.007-.1.268.013.047-.06.06-.109.492.027a.462.462,0,0,1,.215-.136,1.048,1.048,0,0,1,.168-.262l.06-.083.031-.013.022-.409.105,0a1.508,1.508,0,0,0-.114-.476l-.027-.045-.016-.06c-.038-.206-.078-.253-.286-.315l-.168-.056.013-.192a1.336,1.336,0,0,1-.418-.279.965.965,0,0,0-.577-.275l-.168-.036-.007-.179-.018-.472-.016-.335-.078-.045-.107-.074.007-.105-.239-.013.179-.3.107-.186.1-.2.206.121a1.214,1.214,0,0,1,.17.168l.4.025,0,.1.185.013-.007.091.371.022,0,.083.186.013,0,.1.648.038-.009.136c.051.009.105.018.154.022a1.775,1.775,0,0,0,.309-.022l.123-.013.642.031.713-.257.686-.255.065-.11.067-.121.185.013.036-.071.027-.038.045-.027.331-.244.065-.04.013-.219.125-.051.065-.031.031-.546.089,0,0-.031-.092,0,.045-.812.034,0a.255.255,0,0,1-.025-.127l0-.06.027-.052a.967.967,0,0,0,.078-.516l-.161-.009.013-.28-.219-.009.156-.3,0-.076-.036-.376-.063,0-.043-.15-.087-.284-.022-.13-.163-.009.013-.275-.067-.031-.076-.047-.02-.1-.042-.232-.018-.047-.031-.022-.118-.06-.056-.168.009-.166a1.706,1.706,0,0,0-.17-.136l-.063-.047-.02-.083-.036-.206-.027,0-.058-.092a1.344,1.344,0,0,1-.105-.13.986.986,0,0,1-.246-.456l-.228-.011.013-.224a1.744,1.744,0,0,1-.154-.242l-.011-.007-.188-.013.011-.192-.076,0-.072-.087-.121-.192-.074-.1-.186-.013-.051-.087-.172-.244-.114-.159-.221-.011-.054-.127-.025-.063-.179-.011-.051-.123-.034-.06-.195-.009-.049-.132-.034-.1-.277-.074-.083-.027-.04-.083-.11-.188-.288-.018-.062-.116-.022-.076-.369-.02.009-.163c-.018,0-.034,0-.067-.013l-.107-.011-.195-.04.009-.123a.723.723,0,0,1-.226.018,2.564,2.564,0,0,1-.369-.06,1.906,1.906,0,0,0-.411-.078l-.04,0-.007.121-.53-.029.007-.123a2.514,2.514,0,0,0-.347-.036,5.271,5.271,0,0,0-1.145.063,2.029,2.029,0,0,1-.525.038,6.18,6.18,0,0,1-.852-.139,2.707,2.707,0,0,0-.456-.087l-.288-.031.116-.275.432-1,.054-.141.029,0,.011-.188.121.009.02-.134.072-.324.038-.192.072,0,.013-.275.087,0,.029-.458.1,0,.013-.2.087,0,.02-.371.043,0-.022-.206-.04-.262.172.009a5.24,5.24,0,0,0-.185-1.952l-.043-.367-.007-.136-.078,0-.029-.174-.034-.188-.016-.018-.132,0,.016-.284-.087,0,.013-.27-.065-.029-.121-.083.011-.179-.06-.036-.081-.049-.018-.092-.078-.271-.06-.221-.072-.072-.329-.288-.031-.038-.025-.04-.022-.056-.174-.013-.054-.1-.116-.192-.172-.009-.056-.1-.239-.322-.045-.074-.195-.009-.062-.1-.087-.141-.022-.043-.284-.018.009-.156-.4-.159-.145-.056,0-.065-.371-.083-.181-.045,0-.06-.653-.036,0-.092-1.022-.06,0-.036a.828.828,0,0,1-.3.036,1.218,1.218,0,0,1-.186-.027l-.161-.06,0-.045-.118,0-.007.1-.93-.056,0,.092-.378-.022,0,.083-.195,0-.825.027-.007.114-.183-.013v.034l-.179.049-.266.038-.065.1-.056.118-.105,0-.007.087-.271-.018-.034.067-.069.116-.2-.013-.127.177-.04.047-.049.027-.212.087.027.1.054.215-.21.06-.132.031-.025.431-.441-.027a1.421,1.421,0,0,0-.338.476l-.067.2-.2-.056-.177-.058a4.551,4.551,0,0,0-.838-.174.644.644,0,0,0-.619.228,1.025,1.025,0,0,0-.2.427c-.031.074-.051.145-.076.219l-.016.271.127.051.107.045.027.118c.042.183.1.217.264.3a2.4,2.4,0,0,1,.268.154l.054.034.016.054.031.065.485.027-.045.257-.219,1.04.063,0-.02.376.1,0-.025.463.172.009-.13.326a1.478,1.478,0,0,0-.047.147l.022,0,.022.154a.9.9,0,0,0,.161.389l.2.011-.02.288.174.132.1.074-.013.192.273.237.08.06-.009.192.467.454.078.069.168.275.279.083.085.018.042.074.085.15.029.047.2.009.054.123.047.1.273.092.072.022.045.069.114.2.161.009.168.188.32.018,0,.089.179.009-.007.105.186.013.058.1.105.183.3.018.081.165.027.058.722.2.159.049,0,.047.192.009-.011.161a3.128,3.128,0,0,0,.894.177l.262.013-.074.266a.838.838,0,0,1-.221.4l-.076.083h0l-.011.224-.136-.009-.018.054-.054.23a1.171,1.171,0,0,1-.762.431l-.038.014-.085.346-.036.139-.15.013a1.01,1.01,0,0,0-.546.335,1.43,1.43,0,0,1-.534.385l-.013.246-.239-.013a.493.493,0,0,1-.076.125.571.571,0,0,0-.072.17l-.047.136-.13.022a.9.9,0,0,0-.4.143l-.009.206-.282-.013-.134.174-.069.087-.172-.007-.025.056-.069.128-.212-.014-.136.174-.067.087-.085,0,0,.105-.271-.013-.038.056-.063.114-.284-.018-.007.1-.284-.018,0,.087-.373-.02,0,.092-.369-.022-.007.1-.364-.022-.007.087-.566-.029,0,.1-.181-.009,0,.033-.157.04a.815.815,0,0,1-.186.018,1.571,1.571,0,0,1-.566-.192.488.488,0,0,0-.107-.058l-.865-.047a1.284,1.284,0,0,1-.271-.1,1.355,1.355,0,0,0-.505-.174h-.016l0,.105-.188.02-.541.045-.051.078-.056.11-.134,0-.606.013-.4,0-.007.105-.185-.009-.007.1-.635-.04-.038.06-.063.123-.378-.022-.031.058-.069.116-.192-.013,0,.1-.188-.007,0,.056-.177.022-.389.06-.092.091-.159.192-.072.083-.177-.009-.123.17-.072.1-.217-.014-.056.058-.013.235-.123.058-.157.06a.574.574,0,0,0-.069.1,1.338,1.338,0,0,1-.159.192l-.112.481-.034.183-.136-.009,0,.114.022.577.2.188.262.244.076.074-.029.476a3.5,3.5,0,0,1,.121,1.219l-.013.311-.3-.118-.633-.271-.637-.275-.089-.045-.036-.1-.04-.139-.013-.063-.217-.161-.087-.074v0l-.195-.036-.635-.083-.049.118-.022.056-.051.036a.193.193,0,0,1-.025.083l-.054.152-.047,0,.072.279-.17-.009v.034h.04l.034.17a.375.375,0,0,1-.085.32l.022.253.134.009-.027.467.022,0,.043.145.078.286.034.119.081,0,.047.141a1.466,1.466,0,0,1,.089.362c.011.13.011.13.2.183l.067.027.045.056a.878.878,0,0,0,.579.235l.206.036-.029.532-.159.045-.765.2-.056.1-.069.121-.2-.013-.007.092-.262-.016-.042.065-.049.092-.105.013-.3.047-.009.136-.275-.018-.007.083-.19-.009,0,.036-.21.06-.067.013-.013.248-.3-.016-.069.043a1.042,1.042,0,0,0-.105.136.689.689,0,0,1-.19.221l-.065.04-.076,0-.036.034a.951.951,0,0,0-.112.08c.009,0,0,.034-.02.087l-.04.116-.121.031c-.244.054-.315.174-.452.436-.067.114-.127.237-.215.36l-.04.051-.056.027-.081.038-.1.353-.049.172-.051,0-.022.389-.132.051-.056.022-.013.239a5.184,5.184,0,0,0-.3,1.35l.143.009-.038.235Zm24.455-1.493c.011-.181-.025-2.207-.025-2.207l.7-.476,2.5.018,1.677.1,1.61-.3,3.186.141-.639,2.773.11,1.947-.132.72-5.534-.532-3.009-1.192a4.893,4.893,0,0,1-.443-.99m-12.894-11.3s.067.528-.2.514-.427.2-.883.172a3.771,3.771,0,0,0-1.069.166s-.192-.013-.172-.342a5.383,5.383,0,0,0-.056-.807s.34-.3.5-.293,1.654-.1,1.654-.1l.221.686m2.412,8.2.385-.34,2.45-.054,4.25.241.148,1.3.326,1.138s-.456-.17-.613-.034-5.254-1.163-5.254-1.163Zm-5.4-3.542.253-2.052.905-.06s.633-.078.727.038a10.657,10.657,0,0,0,1.594.476l1.435.174.943.009,1.044-.047-.045-1.887,3.016-.573,4.981-1.851.364.523.224,1.476-.045.778.691,1.471.022.416-.617.961-2.4,1.938-.237.409-1.239-.376-2.2.141-3.792.043-5.131-.941Z" transform="translate(-291.502 -648.597)" fill="#fff" fill-rule="evenodd"/>
  <path id="Path_1879" data-name="Path 1879" d="M307.6,653.853l-1.257-.069-1.176.61-1.572.358-.534.127-1.12,1.1-.143.49.458,1.31.089.092,2.046-1.84,1.458-.479,1.471-.009.843.322.85.66,1.444,2.446.045,1.257-.273.713-1.031.078-3.474-.595-1.2-.519-.391-.132-.885,1.049.823.926,1.619.66,1.887.4s1.78.018,1.914.027,1.681-.027,1.681-.027l1.259.944.919.521.849.28s.6.2.776.042a10.367,10.367,0,0,1,1.46-.61l.937-.532s.034-1.4.047-1.634-.552-2.625-.552-2.625l-1.216-2.332s-2.231-1.782-2.341-1.912a17.355,17.355,0,0,0-1.545-.834l-2.149-.362Z" transform="translate(-279.08 -642.499)" fill="#ffec00" fill-rule="evenodd"/>
  <path id="Path_1880" data-name="Path 1880" d="M311.833,659.013l-3.962.174-2.073-.049-1.16-.042-.427.789-1.341,1.022-.749.778-.628,1.411-.217,1.247.364,1.681.64,1.507,1.775-.313s.369.458.239-.25c-.112-.706-.282-2.375-.282-2.375l1.288-.809,1.315-.112,1.207-.266.729-.045,1.965-.921,1.283-1.608Z" transform="translate(-279.727 -636.009)" fill="#0070c3" fill-rule="evenodd"/>
  <path id="Path_1881" data-name="Path 1881" d="M308.932,651.4a1.48,1.48,0,0,1,.608-.7c.011-.038-.016-.17.094-.1l-.013.192.1.009.022-.376c.094-.025.19-.047.282-.078-.018-.092-.054-.179-.074-.28.123-.056.25-.114.382-.165.065-.092.134-.17.2-.266l.183.009a1.554,1.554,0,0,0,.1-.179l.188.013,0-.1.188.013a1.3,1.3,0,0,1,.11-.181c.123-.025.244-.047.376-.078l0-.087.186.013.007-.092c.338-.018.673-.027,1.02-.038l.007-.089.367.022.007-.092.93.054.007-.1.554.029-.007.1c.3.1.49-.1.657-.056l0,.1,1.017.056,0,.092.655.04,0,.087c.183.04.364.078.554.13l0,.089c.177.069.358.148.543.217l-.007.1.188.013c.058.092.116.192.168.284l.186.013c.121.152.23.318.349.481l.186.013a3.106,3.106,0,0,0,.172.291l.183.009c.016.063.049.132.069.192.152.128.3.262.449.4.056.192.1.38.156.568.067.027.114.069.181.1l-.011.188a1.148,1.148,0,0,0,.179.1l-.011.2.089.009-.016.275.1,0c.027.116.051.248.072.376l.094,0c.007.21.031.438.047.664a4.743,4.743,0,0,1,.154,2.231l-.092,0c.02.168.047.315.067.476l-.094-.009-.022.376-.092-.007-.011.183-.1-.009-.027.467-.087,0-.018.284-.092,0c-.04.212-.083.427-.125.642l-.1-.009-.011.188-.089,0c-.143.327-.291.669-.429.995a5.077,5.077,0,0,0,1.751.2,5.048,5.048,0,0,1,1.777,0l-.007.1.089.009.007-.1c.613-.1,1.1.353,1.4-.009l.083,0-.013.275c.217.045.248.031.371.118l0,.092.286.013c.018.06.049.13.074.192l.279.016c.058.1.121.192.174.293.116.036.244.067.358.114a1.027,1.027,0,0,1,.081.188l.192.013c.027.06.058.123.085.188l.188.013c.027.06.045.13.078.192l.183.009q.171.248.349.483l.179.009c.089.132.172.257.262.389l.186.013-.011.183.092,0a1.89,1.89,0,0,0,.264.389l0,.092.179.009a1.108,1.108,0,0,0,.331.675l.1,0c.016.123.042.25.067.376.083.072.17.132.259.2l-.016.284a1.058,1.058,0,0,1,.188.105c.02.123.047.244.074.376.058.036.125.065.181.1l-.011.183.089.009c.054.188.107.38.157.563l.087.009c.02.179.042.371.067.559l.087,0c-.034.065-.058.121-.1.188l.089,0-.018.275.1,0a1.163,1.163,0,0,1-.047.843c0,.125.136.156.067.371l-.087-.009-.007.1a.153.153,0,0,1,.078.192l-.089,0,0,.092.089,0-.029.463-.087-.009-.027.472c-.069.025-.134.051-.195.074l-.011.188c-.159.119-.324.226-.483.349-.038.06-.067.123-.107.179l-.188-.009c-.027.058-.069.119-.1.179-.51.192-1.022.376-1.525.568l-.648-.034a1.574,1.574,0,0,1-.836-.054l0-.1-.648-.033,0-.1-.186-.009.007-.092-.378-.022.007-.1-.186-.013,0-.083-.275-.018a.937.937,0,0,0-.177-.2c-.038.058-.067.119-.114.183l.1,0-.009.183c.063.036.114.072.181.105.013.311.027.626.038.93.664.123.635.481,1.169.63l-.009.179a.552.552,0,0,1,.445.492,1.438,1.438,0,0,1,.134.848l-.092,0-.02.38-.094-.009a.928.928,0,0,0-.208.367c-.275.04-.228.141-.3.168l-.454-.027c-.038.056-.072.118-.11.174l-.19-.013,0,.1-1.113-.065c-.125-.036.047-.118-.081-.1l0,.092-.186-.009,0,.087-.373-.018,0,.1c-.257.054-.217.009-.3.266.2.04.371.054.644.127l0,.092.087,0,0-.092.458.027,0-.087.476.025,0-.1c.058.031.116.074.186.1l0-.1.731.045.007-.087c.315-.022.628-.036.937-.049l0-.1.186.013c.364-.344.724-.7,1.089-1.057l.188.013.105-.183c.183-.047.369-.1.559-.148l.007-.1c.105-.027.195-.049.282-.074.036-.067.078-.123.1-.179l.284.011,0-.1.186.013.007-.092.282.018a1.862,1.862,0,0,1,.105-.179l.273.018,0-.092.188.009.007-.1.456.027,0-.09.472.027.007-.105.461.027,0-.087.469.027.007-.092c.429.065.865.107,1.288.166l0,.092c.23.078.393-.078.474-.065l0,.092,1.113.06,0,.105.364.022,0,.087.371.02,0,.1.648.132c.027.056.056.127.085.188l.277.013,0,.092.181.014-.007.1.279.011,0,.094.186.007c.031.072.058.136.08.192l.282.018a1.141,1.141,0,0,1,.081.2,1.922,1.922,0,0,0,.812.512l-.011.188.179.007c.058.127.112.255.165.385.186.163.36.324.541.494l-.011.183c.085.074.174.141.264.206l-.011.179.094,0-.009.192c.029.052.123.074.168.2l.186.013a.734.734,0,0,0,.165.371l.1,0c.049.19.1.387.145.57l.1,0,0,.1-.1,0-.022.371c-.262.009-.335.022-.472.163l-.085,0c.069.288.15.559.224.847l-.007.1.1,0-.027.463.089,0-.027.465.087,0-.013.282.1.009-.054.93.087,0c.025.284-.143.172-.2.262l.1.1c-.054.373-.112.742-.166,1.111l-.087,0-.027.467-.089,0-.018.275-.1,0-.02.375-.087,0-.025.367a2.391,2.391,0,0,0-.331.816l-.181-.009a2.289,2.289,0,0,1-.322.729l-.087,0-.011.177c-.069.034-.13.06-.192.087l-.011.188c-.1.029-.188.047-.284.074a1.545,1.545,0,0,0,.083.188l-.094,0-.011.2a.7.7,0,0,0-.387.161l0,.092-.183-.009c-.036.06-.072.119-.1.179-.092.027-.2.054-.284.078-.1.114-.2.237-.3.351l-.188-.009c-.036.06-.071.121-.109.188l-.186-.013c-.06.083-.13.17-.195.266l-.284-.018a1.029,1.029,0,0,1-.1.179l-.275-.013-.007.087-.183-.009-.007.1-.282-.016c-.031.056-.06.116-.1.183l-.289-.018,0,.091-.369-.022,0,.1-.1-.009.007-.1-.092,0,0,.1-.648-.034,0,.087-.186-.009-.007.092-.376-.022-.007.092-1.856-.105,0-.1-.461-.027,0-.092a.176.176,0,0,0-.2.083c-.114-.038-.237-.074-.364-.112l.007-.092-.557-.031c-.022-.06-.051-.132-.081-.192l-.186-.009.007-.1c-.181-.042-.369-.083-.55-.121-.038-.067-.054-.132-.083-.192l-.282-.018c-.027-.065-.06-.123-.081-.188l-.291-.018a1.016,1.016,0,0,0-.078-.192l-.266-.018c-.1-.13-.179-.253-.268-.385-.235-.23-.463-.458-.7-.689l.009-.188c-.058-.04-.123-.069-.181-.105-.025-.123-.047-.253-.072-.38-.054-.031-.118-.065-.181-.109l.011-.271a1.571,1.571,0,0,0-.172-.1l.018-.28-.107,0,.011-.188-.085,0,.011-.183c-.058-.042-.121-.074-.181-.11l.022-.371-.092,0,0-.092a10.352,10.352,0,0,1-1.947-.107l0-.092c-.118,0-.239.139-.467.065l0-.092-.373-.022.007-.1c-.21-.069-.271.1-.376.074l0-.1-.277-.011,0-.1-.467-.027.007-.087-.273-.018,0-.1-.932-.051.007-.09-.089-.007c-.018,0-.045.13-.192.078l0-.087-.186-.009,0-.1-.653-.04,0-.083-.275-.018,0-.1-.467-.029.007-.087c-.181.016-.376.034-.552.056,0,0-.058-.139-.282-.11a.158.158,0,0,1-.19.083l.007-.092c-.317-.047-.622-.1-.928-.139l0-.1-.55-.031c-.027-.06-.054-.13-.085-.192-.34-.152-.595.174-.753.246-.224.013-.443.029-.66.047l-.007.092-.554-.029c-.038.06-.072.116-.105.179-.125-.04-.241-.076-.362-.109l-.472-.027c-.02,0-.027.114-.188.074-.275-.1-.543-.212-.821-.322-.085-.394-.255-.38-.228-.948l.19.013c.038-.118.074-.246.112-.367l-.085-.1-.646-.04,0-.083-.1,0a3,3,0,0,1,.112-.284,3.478,3.478,0,0,1-1.013-.335c-.525-.063-1.046-.119-1.572-.179l0-.1-.186-.009,0-.083-.371-.022.007-.1-.275-.013,0-.1a5.685,5.685,0,0,0-1.842-.385l.009-.192c-.147-.038-.3-.078-.454-.116.06.3.25.44.326.68.02.21.04.434.058.642l.094,0-.011.2.1,0a5.154,5.154,0,0,1-.034,2.14l-.279-.013-.007.09-.094-.007c.018.21.063.132.085.2l-.1.085,0,.087.094.007-.018.28.1.009c-.04.083-.074.179-.112.266l.094.009-.058,1.02-.094-.007-.049.838-.094,0-.013.275-.085,0-.011.188-.1,0-.022.367-.092,0-.016.275-.089,0-.011.188-.094,0-.011.183c-.065.027-.125.06-.19.087l-.016.275-.092,0-.011.183c-.067.027-.132.054-.188.083l-.011.192a2.675,2.675,0,0,0-.291.17l-.011.174-.1,0c-.034.056-.067.125-.105.179l-.179-.009-.013.188a.791.791,0,0,0-.385.165l0,.1-.186-.009a1.14,1.14,0,0,0-.1.179c-.134.018-.253.045-.38.065-.025.063-.072.123-.1.179l-.286-.011-.007.1-.275-.018,0,.092-.461-.031-.007.092-.467-.027-.007.1-.373-.02-.007.1-1.3-.078,0-.1-.087,0,0,.1c-.219.018-.271-.107-.271-.107-.1.02-.192.051-.284.078l0-.1-.465-.031,0-.092c-.364-.056-.731-.105-1.111-.156l.007-.087-.277-.018.007-.1-.47-.027,0-.092-.371-.022,0-.092-.275-.016.007-.087-.286-.018.007-.1c-.177-.045-.364-.087-.55-.123l.007-.1-.188-.013.007-.092-.273-.013c-.051-.1-.114-.192-.174-.3l-.183-.007a1.971,1.971,0,0,1-.08-.188l-.186-.013c-.027-.092-.06-.179-.081-.279a2,2,0,0,0-.177-.1l.011-.192-.1,0,0-.092c-.2-.192-.165.087-.257-.293l-.188-.009a2.743,2.743,0,0,1-.074-.288c-.128-.1-.242-.2-.356-.3l.011-.185c-.067-.031-.121-.076-.183-.1l.013-.275c-.089-.067-.181-.141-.266-.206-.02-.127-.045-.259-.067-.376-.085-.067-.186-.132-.273-.2l.011-.188c-.062-.036-.118-.065-.174-.1-.027-.161-.051-.32-.071-.476l-.1-.009.011-.183-.089,0c-.043-.143.1-.174.1-.183.031-.123-.058.036-.085-.092-.016-.217-.031-.436-.058-.655l.1,0a1.181,1.181,0,0,0-.143-.756l-.284-.013.011-.188c-.056-.034-.118-.074-.179-.107.049-.342.1-.673.152-1.015l-.092,0a4.062,4.062,0,0,1,.275-1.57l.018-.371a1.312,1.312,0,0,0,.2-.087l.027-.463.089,0c.047-.152.08-.306.118-.454a.86.86,0,0,0,.192-.087c.275-.353.286-.774.8-.879.074-.235.06-.143.2-.275l.007-.1.188.013c.1-.06.177-.266.3-.349l0-.1.282.018.009-.183c.1-.031.19-.054.291-.078l0-.1.179.009.007-.1.277.016,0-.087c.157-.02.315-.043.472-.065.036-.065.069-.123.1-.179l.19.013,0-.092.273.014c.034-.058.072-.119.105-.188.284-.069.566-.154.856-.228l.011-.183a1.093,1.093,0,0,1-.731-.318c-.472-.154-.264-.284-.422-.673l-.094,0c-.054-.2-.105-.389-.154-.572l-.094,0,.025-.467-.092,0c-.018-.192-.042-.38-.056-.559,0-.018.121-.04.1-.188l-.087,0,.027-.463.089,0c-.027-.1-.056-.188-.074-.28l.181.009c.069-.179-.009-.083.1-.179.036-.1.074-.192.107-.275.4.056.8.1,1.2.156l0,.087c.092.074.183.145.275.21.02.1.054.192.078.279.42.183.841.362,1.268.545a3.808,3.808,0,0,0-.112-1.218l.02-.371c-.181-.165-.358-.331-.534-.494,0-.344-.022-.684-.031-1.031l.183.009c.047-.183.085-.367.123-.55a4.248,4.248,0,0,0,.3-.358c.063-.027.127-.051.186-.078l.009-.188.2-.174.192.014c.074-.092.132-.179.2-.271l.183.009c.105-.114.2-.237.3-.351.157-.02.309-.047.467-.069l.007-.087.188.009,0-.1.279.013c.036-.058.067-.114.1-.179l.371.022a1.278,1.278,0,0,1,.109-.177l.557.031,0-.1.183.013,0-.1c.407,0,.807-.014,1.214-.018.031-.056.067-.123.1-.179.224-.018.443-.042.653-.06l0-.087a1.68,1.68,0,0,1,1.015.244l.926.054c.136.051.474.3.733.226l0-.1.192.009,0-.083.559.031.007-.1.36.016,0-.087.376.022.007-.092.371.022,0-.1.277.013,0-.087.373.02c.038-.065.076-.121.105-.183l.186.013,0-.1.186.014c.067-.1.136-.183.2-.275l.192.013.1-.183.181.009c.069-.083.134-.17.2-.262l.188.009.007-.087a1.093,1.093,0,0,1,.57-.246c.076-.257.134-.21.215-.458l.183.009.009-.183c.55-.127.653-.673,1.254-.765.042-.152.083-.3.118-.454.23-.078.639-.152.767-.34.04-.154.078-.3.125-.454l.089,0,.011-.183.092,0a.731.731,0,0,0,.2-.362,2.688,2.688,0,0,1-1.1-.248l0-.087-.19-.013.007-.1c-.271-.078-.548-.152-.827-.235-.025-.067-.045-.119-.072-.192l-.284-.013c-.054-.1-.114-.2-.165-.284l-.284-.018.007-.092-.183-.009.007-.1-.192-.009-.165-.2-.188-.007c-.063-.1-.118-.2-.17-.288-.125-.045-.253-.076-.371-.118-.029-.06-.054-.132-.083-.192l-.188-.009-.168-.288c-.118-.033-.241-.074-.364-.118-.056-.092-.114-.192-.17-.282-.206-.2-.409-.4-.619-.6l.011-.183c-.114-.1-.239-.206-.36-.3l.009-.188c-.078-.065-.172-.136-.259-.2l.011-.183-.087,0a1.1,1.1,0,0,1-.255-.577s-.364-.069-.183-.1l.094,0a2.081,2.081,0,0,1,.116-.375l-.094,0,.027-.463-.094,0,.022-.371-.087,0c.078-.429.165-.865.255-1.286l-.373-.02c-.02-.072-.054-.132-.076-.192-.288-.21-.546-.2-.626-.6-.085-.038-.174-.074-.268-.11l.02-.376-.094,0,.007-.087.094,0c.1-.248.143-.577.318-.729.429-.559,1.252-.248,1.865-.078m4.206-.224c-.145-.675-1.19-.583-1.507-1.118-.646.009-.742.376-1.156.586l-.013.2c.1-.161.756.118,1.013.143l-.007.1.1.009a2.02,2.02,0,0,1-.136.637c-.407-.047-.8-.1-1.2-.152l0-.1c-.092-.033-.183-.078-.277-.105l.007-.092-.092,0-.007.092-.186-.013a.747.747,0,0,1-.2.355l-.092,0-.018.284-.094-.009-.011.192-.089-.009c-.043.148-.081.3-.123.458l-.092-.009c-.047.188-.087.371-.13.563l-.087,0-.025.458-.1,0-.009.183-.089,0-.034.554c-.025.152-.1.174-.1.174a1.916,1.916,0,0,0,.219,1.035c.089.389.025.127.259.3.027.06.056.132.085.192.329.179.863-.065,1.1.161.1.027.181.069.275.1-.022.411-.056.508-.315.633l-.007.1c-.15-.038-.3-.087-.456-.121l0,.1-.371-.022-.007.087.087,0a.764.764,0,0,0,.168.385l.1,0c.022.094.056.19.074.284l.188.007c.027.072.058.132.083.2l.089,0c.063.092.116.188.17.284l.185.013c.027.06.058.123.083.192.121.036.239.074.371.109.054.1.114.2.17.293a1.8,1.8,0,0,1,.266.11c.031.065.058.125.089.185l.277.018c.029.063.054.127.081.188l.275.018c.022.065.058.132.083.192l.279.018,0,.1.183.009c.025.06.06.125.089.2.3.065.61.152.912.235l-.007.092.279.013,0,.087.282.018,0,.1c.579.065,1.172.125,1.751.192l.007-.087.841.042,0-.092.284.014,0-.087c.219-.027.434-.036.651-.054a1.011,1.011,0,0,1,.105-.179c.123-.02.253-.051.373-.078.034-.056.067-.121.105-.179.21-.11.57,0,.76-.143.452-.237.353-.481.6-.892l.092,0,.011-.192.094,0,.018-.275c.067-.027.125-.06.19-.087l.011-.183.089,0,.013-.275.1,0c.195-.7.393-1.4.59-2.108-.19-.063-.085.009-.188-.1-.246-.083-.21-.036-.257-.3l-.188-.013c-.022-.123-.047-.248-.065-.376a1.324,1.324,0,0,1-.552-.311l0-.087-.637-.038,0,.091-.1-.009c-.089-.04-.177-.074-.268-.105l0-.087-.279-.018c-.049-.262-.007-.224-.259-.3-.105-.112,0-.043-.181-.11l0,.1-.1-.007c.04.579.174.771.034,1.113l-.018.284-.1,0-.011.188-.089,0c-.159.174-.631.574-.944.217-.181-.069-.083.009-.181-.109l.092.009c-.025-.06-.054-.125-.083-.183l.094,0a.617.617,0,0,1,.481-.253,9.8,9.8,0,0,0-.127-1.026c-.152-.045-.3-.083-.456-.123l0,.1c-.311-.038-.342-.018-.454-.217l-.092-.009,0-.087a2.27,2.27,0,0,1,.669-.342.758.758,0,0,0-.168-.288c-.085-.371-.018-.121-.266-.293l.007-.094-.181-.009,0-.092-.286-.018q-.429-.537-.863-1.071c-.183-.047-.369-.087-.552-.125l.007-.183a6.274,6.274,0,0,1-1.011-.342m-3.589.912a.521.521,0,0,0,.382-.161,1.476,1.476,0,0,1,.552.119l-.016.275-.089,0c-.022.344-.009.432-.217.55-.186.11-.378-.051-.653-.125a2.572,2.572,0,0,0-.065-.375l.087,0,.018-.279m-1.76-.195c-.087.116-.067.107-.192.179.065.344.264.353.427.579a.95.95,0,0,0,.382-.074c0-.485-.141-.4-.338-.668Zm18.888,10.213a1.681,1.681,0,0,1-.63-.32,1.1,1.1,0,0,1-.083-.188l-.19-.011c-.027-.063-.058-.123-.085-.192-.174-.072-.36-.141-.541-.219-.027-.056-.06-.132-.085-.188-.123-.04-.246-.074-.362-.11l0-.092-.369-.022,0-.1-.838-.042.007-.087-.1-.009-.089,0,0,.087-.458-.027-.007.1a4.164,4.164,0,0,1,1.127,1.465c.06.034.118.065.179.1l-.011.183c.15.134.291.27.447.4l-.009.183a2.945,2.945,0,0,0,.264.206l-.011.183.094.009-.018.271a2.016,2.016,0,0,1,.179.109l-.011.188.275.2-.011.192c.036.061.121.074.168.2a2.857,2.857,0,0,0,1.118.06c-.031-.411-.165-.344-.347-.581l-.089,0,.016-.284c.335-.013.644-.134.928.054.027.065.058.134.083.192.172.116.114-.078.277.112.257-.051.21-.112.472-.156-.034-.523-.4-.756-.586-1.151l-.188-.009c-.051-.324-.21-.425-.525-.5l.011-.188m-4.5-1.187c-.094-.045-.181-.078-.277-.114l.007-.087-.183-.013c-.031-.06-.054-.132-.081-.192l-1.026-.06c-.335-.054-.682-.1-1.017-.145l0,.087-.369-.02-.007.1c-.058-.042-.123-.074-.177-.107l0,.1c-.1.025-.186.042-.286.074-.038.087-.074.183-.105.27-.13.042-.228.027-.387.074l0,.092-.277-.018-.007.1c-.188.049-.373.105-.566.159l-.007.083-.369-.018-.007.087-.177-.009,0,.1-.749-.042a2.03,2.03,0,0,0-1.091,1.055,1.96,1.96,0,0,0-.244.921,2.156,2.156,0,0,0,.3-.083l0-.087.277.018.007-.1a.667.667,0,0,1,.474-.148,2.551,2.551,0,0,1-.08-.288c.159-.083.32-.17.481-.259.038-.087.069-.174.107-.266.1-.025.188-.047.282-.078.069-.092.136-.174.208-.271l.275.018,0-.092.089,0,.181.105.016-.279c.286-.018.561-.031.841-.049l.007-.1.279.018,0-.092,1.022.06a3.3,3.3,0,0,1,1.654.376l0,.092.188.013c.112.163.228.324.344.49.087.06.181.132.266.2.022.121.054.248.078.376l.089.009c.06.092.105.192.168.284l.188.011a1.367,1.367,0,0,0,.34.577l.1,0c.049.192.1.385.143.572.065.036.127.065.188.1l-.016.284.085,0-.011.183c.069.036.125.069.186.1l-.022.371.094.009c.007.4.013.8.029,1.21l-.1-.009-.034.563-.092-.009c-.152.188-.347.248-.494.436-.427.013-.865.018-1.3.022l0-.1-.749-.043,0-.1a.268.268,0,0,0-.286.078,2,2,0,0,1-.825-.145c-.072.049-.011.145-.19.087l0-.1-.467-.025,0-.083-.275-.018.007-.1c-.277-.045-.55-.092-.834-.145l0-.092-.181-.009,0-.1-.371-.02,0-.087c-.241-.114-.481-.215-.727-.32a1.594,1.594,0,0,1-.583.514c.165.237.346.463.512.691l.367.109c.063.1.116.192.174.293l.275.018,0,.087.186.013c.029.06.056.13.083.19.309.076.61.154.91.241l0,.087.284.018,0,.1,1.576.092,0-.1c.123-.018.154.165.373.116l.007-.1.275.014,0-.087,1.668.1a5.123,5.123,0,0,1,1.127-.121c.083.112.288.2.355.3l-.011.183c.179.172.358.338.534.494l.19.009a4.438,4.438,0,0,0,.25.4l.282.018,0,.087.177.011,0,.1c.273.045.559.089.834.136l0,.1.089,0,.007-.1c.246,0,.273.114.273.114.315-.018.622-.022.937-.045.038-.056.069-.121.1-.179.194-.047.376-.1.561-.152a2.753,2.753,0,0,0,.206-.275l.19.013c.031-.054.069-.114.1-.177l.181.009,0-.1.107,0,.013-.271c.067-.025.121-.06.188-.087l.025-.371.089,0,0-.092-.089,0,.054-.921.089,0-.085-.1c.027-.056.069-.119.1-.179l-.089,0,.018-.279-.1-.009c-.063-.436-.143-.863-.21-1.315l-.092,0c-.016-.1-.045-.188-.069-.284l-.186-.1.009-.19a2.735,2.735,0,0,0-.416-.671l.007-.092c-.165.083-.324.161-.485.239.045.293.094.577.136.856-.2.1-.212.2-.485.248-.107.1,0,.045-.19.074-.19-.262-.378-.308-.519-.666-.615-.076-1.234-.141-1.851-.206-.217-.1-.338-.32-.626-.411a.9.9,0,0,0-.159-.559.7.7,0,0,0-.177-.11c-.022-.125-.051-.248-.067-.373-.06-.04-.123-.076-.186-.11l.011-.177c-.087-.069-.174-.138-.266-.2-.022-.136-.047-.259-.074-.385-.2-.192-.411-.389-.61-.59l.009-.183-.094-.009a1.758,1.758,0,0,1-.434-.68l-.177-.009c-.047-.259-.116-.219-.163-.472m-.1,3.354a.712.712,0,0,0-.165-.389l-.087-.009c-.029-.092-.058-.188-.083-.28-.058-.04-.116-.069-.177-.109l.011-.174c-.063-.036-.13-.069-.192-.11a2.971,2.971,0,0,0-.063-.38l-.089,0c-.031-.06-.063-.13-.089-.192l-.186-.007c-.087-.128-.168-.255-.255-.389l-.188-.013,0-.087-.646-.036,0-.1a2.814,2.814,0,0,0-1.6.188l-.277-.013,0,.092c-.19.054-.376.1-.566.154l-.007.087-.186-.009c-.358.389-.727.765-1.089,1.151-.224.136-.454.279-.677.425-.038.127-.076.244-.114.371-.219.139-.452.284-.684.418l-.013.188a.933.933,0,0,1-.186.085c-.172.217.087.165-.291.262l-.011.183a11.287,11.287,0,0,1-1.25.588l0,.087c.389.255.512.731.883.988l0,.087c.148.027.114-.145.2-.174l.282.013,0-.1.179.011,0-.083c.089-.029.192-.056.282-.083l.011-.183s.715-.4.776-.418l.007-.183.186.009.009-.188.188.009c.1-.365.318-.476.418-.818.286-.011.563-.025.841-.042a.338.338,0,0,0,.179.2c-.049.179-.085.362-.125.55a5.75,5.75,0,0,1,.727.23c.06.1.11.2.179.288.3.058.606.1.917.15l0,.092.284.016,0,.089c.367.051.736.107,1.1.161.13-.014-.033-.114.1-.092l0,.1a9.166,9.166,0,0,0,2.037.116l.007-.1.1,0c.042-.275.089-.55.143-.83l-.1,0,.027-.463a8.433,8.433,0,0,1-.487-1.326l-.183-.009m-8.362-.389c-.092.022-.19.042-.282.069-.036.063-.074.123-.11.183a1.677,1.677,0,0,1-.671.432.867.867,0,0,1-.783.595c-.038.1-.069.183-.105.28l.089,0-.007.092c.774-.047,1.022-.628,1.724-.738.076-.266.112-.3.391-.344l.018-.284a2.738,2.738,0,0,1-.277-.114Zm-.89,4.038c.069-.174,0-.074.105-.174-.038-.633-.619-.711-.863-1.169a4.411,4.411,0,0,0-1.333.485l-.188-.009c-.034.065-.06.114-.094.179l-.284-.018,0,.092c-.13.022-.253.054-.38.074l0,.092-.843.136-.007.092-.557-.036,0,.1-.559-.034,0,.092-.277-.018-.007.1-.653-.036,0,.087-.83-.047-.007.1-.378-.022,0,.092c-.188.027-.364.042-.554.06l-.007.092c-.134.031-.255.049-.382.074l-.007.094-.186-.013c-.069.087-.134.179-.2.275l-.192-.013c-.056.034-.069.118-.192.174-.063.519-.237,1.4.08,1.777.092.375.181.2.347.485l.655.034c.157-.546.575-.8.637-1.453.1-.027.2-.051.288-.074l.007-.1.188.013a1.644,1.644,0,0,0,.094-.177l.282.018,0-.1.277.013,0-.087.279.014,0-.092c.288-.018.566-.031.838-.042l0-.1.566.029,0-.087.371.022,0-.1.559.036.007-.1.181.007a1.415,1.415,0,0,0,.1-.174l.561.031,0-.1.284.018.007-.087c.049.029.114.065.179.1l0-.087c.179-.018.371-.04.557-.067a1.888,1.888,0,0,0,.105-.179l.371.022a1.453,1.453,0,0,1,.1-.179c.313-.036.626-.092.935-.136m-9.118-.148c.125-.027.257-.047.376-.069.04-.065.072-.123.1-.179.161-.031.313-.045.469-.069l0-.094.38.022,0-.092.284.018,0-.1.456.027.007-.092c.4-.092.85.092,1.125-.118l.092,0,0-.1a14.029,14.029,0,0,0-2.77-.445,1.759,1.759,0,0,1-.483.353l-.022.371-.089,0c.016.183.04.371.058.559m4.436-.952-.371-.02,0,.092.371.02Zm8.485,4.677c.438.056.867.11,1.295.165l-.007.1,1.031-.038-.007.1a.179.179,0,0,0,.19-.083c.121,0,.143.156.367.116l.007-.1.463.027,0-.092c.315-.009.624-.022.928-.042l0-.087.478.025,0-.1.373.018.007-.092c.275-.009.55-.031.827-.045.136.031-.045.1.092.1l.007-.092.467.027,0-.087.648.04,0-.092.1,0c-.022-.159-.049-.324-.074-.472-.06-.036-.114-.067-.177-.11l.016-.27-.094-.009c-.02-.123.286-.241.293-.257-.022-.1-.051-.192-.069-.288l.087,0,0-.092-.085,0c-.029-.1-.056-.2-.081-.288a8.043,8.043,0,0,0-2.891.116c-.25-.051-.5-.087-.745-.139l-1.391-.078,0-.1-.463-.027,0-.087-.19-.013,0-.087-.279-.018.007-.1-.277-.015.007-.087c-.118-.036-.241-.076-.364-.118l0-.087-.277-.018c-.056-.1-.116-.192-.17-.293-.123-.038-.25-.065-.369-.11-.025-.06-.058-.13-.08-.2l-.181-.009.007-.087-.188-.009,0-.1a1.331,1.331,0,0,0-.543-.407,4.368,4.368,0,0,1-.572.44l-.188-.013-.007.092c-.105.022-.192.049-.288.076a1.056,1.056,0,0,1-.094.179l-.192-.009c-.069.092-.139.179-.2.271-.282.069-.568.152-.854.221l0,.1-.19-.014a1.105,1.105,0,0,1-.1.177l-.561-.031-.007.1-.186-.009,0,.1-.275-.018-.007.092-.188-.014,0,.1-.275-.013-.007.087-.369-.02-.007.1-.376-.018,0,.087-.555-.031-.007.1-.277-.018a3.263,3.263,0,0,1-1.221.206l-.371-.022,0,.094-.1,0,0-.092-.085,0a1.976,1.976,0,0,1,.067.286l.1,0-.016.275.092,0-.031.559.094,0,0,.092c-.112.275-.217.543-.333.827-.463.034-.926.074-1.4.094-.248-.033-.4-.326-.733-.217a1.56,1.56,0,0,1-.105.17,3.611,3.611,0,0,1-1.4.11l0-.092-.192-.009.007-.1c-.181-.061-.369-.134-.543-.21l.007-.1-.186-.009.007-.087-.47-.029.007-.105c-.434.018-.867.022-1.3.034l.007-.1-.186-.014c-.038-.018-.083-.132-.186-.188a2.655,2.655,0,0,0-.17,1.393l.087,0c-.049.458-.107.921-.165,1.38a9.963,9.963,0,0,1,2.48.61l.749.045,0,.087,1.013.06,0,.087,1.026.063a11.029,11.029,0,0,0,2.611-.031l1.116.06,0-.087.736.045,0-.1.657.038,0,.092a6.855,6.855,0,0,0,2.142.031c.1-.32.208-.23.3-.545l.195.013a.5.5,0,0,1,.481-.436,1.888,1.888,0,0,1,1.176-.961l.011-.188a1.224,1.224,0,0,0,.778-.507l.087,0,0-.105-.445-.3.022-.374-.089,0c-.029-.127-.051-.259-.078-.375l-.092-.009.022-.376c-.06-.036-.123-.062-.181-.1l.031-.559a12.66,12.66,0,0,1-.288-1.507c.246-.049.279-.083.389-.261l.19.009c.025.1.049.192.074.293l.1,0-.018.273.089.007-.011.183.092,0c.011.315.029.63.04.939l.1,0-.009.188.092,0c.056.5.125,1,.186,1.5m-9.238-4.541c-.188.042-.087-.009-.194.087.19-.049.085.022.194-.087m-4.349,1.149c-.469-.036-.986-.1-1.216.116a1.992,1.992,0,0,1-.286.074c.02.192.043.38.06.572a4.461,4.461,0,0,1,1.306-.112l.007-.1.1,0,.034-.559m-.145,2.511c.034-.472.134-.407.116-.461a1.608,1.608,0,0,0-.181-.1c-.02-.183-.038-.376-.06-.568-.085-.036-.179-.076-.275-.11a2.2,2.2,0,0,0,.13,1.131l0,.087.275.018m4.154.61c.043-.188.083-.371.125-.555-.089-.069-.087-.114-.177-.2l0-.087-.367-.022,0-.092c-.517.027-.212.022-.393.346l-.1-.009c-.034.125-.063.253-.105.371a4.484,4.484,0,0,0,1.006.244m15.756,2.956c.235-.042.215-.092.391-.165.152-.563.476-.943.277-1.668l.022-.367-.092,0c-.085-.074.043-.123-.085-.1l0,.092a3.893,3.893,0,0,0-.847.138l-.655-.038a11.334,11.334,0,0,1-4.934,0l-.1.083-.029.559c-.094.022-.19.049-.282.074-.065.092-.136.179-.2.27-.1.027-.2.049-.293.081-.293.291-.59.588-.885.876l-.186-.009-.194.17-.009.188c-.127.083-.264.172-.4.262l-.011.19c-.089.051-.2.107-.284.161-.036.121-.083.239-.119.367l-.083,0c-.045.152-.094.306-.128.454l-.094,0c-.081.315-.161.619-.237.917l.1.009c.016.219.031.434.051.651l.094.009-.027.467.1,0-.011.188c.06.031.107.074.172.105l-.016.275.085,0-.011.188a2.028,2.028,0,0,1,.186.1c.031.125.054.257.078.38a1.615,1.615,0,0,1,.183.107c.042.215.094.434.145.653a9.858,9.858,0,0,0,1.127-.219c.036-.174.085-.358.125-.541l-.094-.009.009-.183-.092,0,.027-.463-.087,0,.016-.284-.1,0c.04-.157.078-.311.125-.467a.139.139,0,0,1-.087-.188l.1,0c.038-.15.072-.3.114-.449.226-.15.449-.3.675-.434l.011-.183c.255-.051.215-.009.3-.271a1.989,1.989,0,0,0,.279-.069l.007-.1.183.009.007-.092.47.027,0-.085.461.027c.031,0,.029-.123.183-.087a.27.27,0,0,0,.282.114l0-.1,1.766.105,0-.092c.195-.018.371-.045.568-.063a2.074,2.074,0,0,0,.1-.183c.161-.02.311-.038.472-.069l.013-.271c.36-.022.264-.1.572-.148l.018-.284.279.013a1.259,1.259,0,0,1-.083-.192l.174.013.011-.183c.13-.027.259-.058.376-.072l.011-.188m-25.942-.751c.036-.583.029-1.306-.286-1.6l.013-.183-.094-.007-.069,1.214.092,0c.056.19.112.376.154.561l.19.009m40.956,3.848c-.029-.1-.045-.192-.076-.279-.094-.042-.183-.078-.277-.114-.018-.091-.049-.188-.074-.284-.118-.105-.235-.2-.355-.3l.011-.181c-.06-.034-.121-.074-.181-.107l0-.087-.275-.018,0-.1-.188-.013.007-.1-.275-.018,0-.087-.186-.013.007-.092-.657-.038,0-.087-.458-.031,0-.087-.282-.018.007-.092-1.581-.092c-.177-.045-.369-.092-.552-.123l0,.092c-.083-.038-.183-.078-.271-.11l0,.094-.463-.027,0,.1c-.154.013-.309.038-.478.06l-.007.087-.085,0a1.8,1.8,0,0,1,.069.288l.1,0-.011.188c.069.036.116.074.174.105.031.156.045.311.072.467l.1.009-.022.371.1.009-.011.174.085,0-.016.284.092,0a3.413,3.413,0,0,1,.069.375l.1.009-.025.467.089,0c.022.121.051.239.078.378l.085,0c.018.215.042.429.051.65l.094,0c.031.163.051.315.078.472l.094,0a2.3,2.3,0,0,0-.112.27l.177.009-.018.284c.19-.038.085.018.192-.087l.1,0c.045-.152.083-.3.114-.454l.1,0,.018-.275.087,0,.013-.284.087.009.009-.188.1,0c.049-.215.087-.429.132-.642l.1.009.02-.38.087,0c.056-.393.112-.8.17-1.194.051-.025.121-.06.19-.087.034-.156.074-.3.119-.458l.087.009.009-.188c.031-.038.13-.065.2-.174a1.254,1.254,0,0,1,.548.132c-.047.271-.092.545-.136.825l-.19.078-.022.376-.1-.009-.011.188-.085-.009c-.016.054.143.271.06.467l-.087,0-.016.284-.092,0c-.04.118.027.009.085.1l0,.087-.092,0-.022.367-.092,0-.009.183-.1,0-.018.28-.087,0c-.045.188-.092.371-.121.554l-.1,0-.011.186-.087-.007-.022.375-.1-.009-.011.188-.087,0-.025.458q-.1.04-.195.087l-.027.467-.1,0-.018.266.1.009,0,.1c.282-.083.572-.152.856-.237a1.8,1.8,0,0,1,.1-.17l.177.009.007-.1.19.009.007-.1c.237-.105.5-.042.749-.134l0-.1.2.007,0-.1.371.022,0-.092c.188-.047.378-.1.563-.152l.007-.087.279.018,0-.1c.224-.018.447-.04.655-.058.036-.051.072-.121.11-.179l.183.009.007-.1.282.018,0-.087c.505-.219.85-.233,1.154-.682l.1,0c-.058-.192-.1-.38-.157-.559-.15-.11-.3-.212-.452-.313l.011-.186c-.094-.074-.179-.13-.266-.208l.011-.179-.089,0,.011-.188c-.034-.049-.127-.092-.177-.2l-.188-.009.011-.188Zm-7.345-1.916c-.212.016-.244,0-.376.074l0,.1-.19-.014,0,.092-.188-.013,0,.1c-.282.074-.561.148-.856.224a2.452,2.452,0,0,1-.2.271l-.174-.009c-.17.174-.338.349-.505.528a1.949,1.949,0,0,1-.186.078l-.011.2-.194.078-.011.183c-.06.027-.125.054-.192.081l-.007.188a1.25,1.25,0,0,0-.194.087l-.016.275c-.065.029-.123.052-.192.083-.036.1-.067.174-.112.27l-.089,0a.722.722,0,0,0-.224.454,2.836,2.836,0,0,1,.282.109l-.007.1.284.013a1.491,1.491,0,0,1,.083.2l.186.009,0,.089c.186.067.369.141.543.215l0,.092.277.013-.007.1.279.013-.007.087.288.018-.007.1.273.013,0,.089c.127.036.246.076.371.119l0,.092.27.013,0,.1.188.013,0,.087.186.009c.025.06.056.13.083.192l.177.009,0,.1.282.018c.033.065.056.121.083.183l.277.016-.007.1.186.013,0,.1.286.018,0,.1c.266.148.53.179.716.407l.087,0c-.013-.159-.04-.315-.06-.463-.063-.036-.116-.072-.181-.11l.02-.376-.089,0,.016-.271-.1-.009.022-.371-.089-.009c-.025-.127-.047-.253-.074-.376l-.083,0c-.031-.248-.036-.494-.056-.751-.056-.036-.127-.065-.188-.11-.016-.275-.027-.55-.045-.829a1.675,1.675,0,0,0-.181-.105l.022-.371c-.054-.034-.114-.074-.179-.11-.02-.152-.043-.3-.067-.467-.051-.029-.118-.074-.179-.1l.027-.463-.092-.007.011-.185-.1,0c-.016-.25-.022-.5-.045-.751m-5.136,1.76c-.15.02-.306.042-.465.06l0-.087-.461-.027-.007.087-.371-.02-.007.092-1.113-.067-.007.1c-.3-.038-.613-.087-.928-.148l0,.1-.186-.013,0,.1c-.215.056-.246-.118-.358-.118l0,.1-.286-.018,0,.1c-.4,0-.812.013-1.212.022l0,.092-.094,0,0-.092-.651-.038,0-.089-.557-.034s.031-.118-.179-.1l-.007.1-.092-.009c-.063-.047,0-.139-.188-.1l0,.1c-.581.109-1.214-.226-1.581.092-.065.031-.127.049-.192.083-.056,1.433.449,1.943.467,3.2l.926.138,0,.1.179.009-.007.092.472.027a4.3,4.3,0,0,0,1.467.367l-.009.179.094.009c0-.143.161-.092.286-.065.311.038.61.087.928.134l-.007.1,1.011.058,0-.1,1.026.056a6.26,6.26,0,0,0,1.932.4c-.009-.315-.018-.624-.04-.939l-.083,0,.022-.463-.092,0c.049-.34.1-.673.152-1.013,0-.224-.159-.517-.045-.838a6.7,6.7,0,0,0,.273-1.663m-12.822-.555q-2.559-.087-5.1-.2l-.007.1-.273-.018-.007.1a.234.234,0,0,1-.183-.105,2.705,2.705,0,0,0-.291.078l-.007.087c.3.083.409.3.631.407.181.036.369.083.554.128l-.007.087.465.025-.007.1.373.018,0,.092.369.018,0,.1.463.027,0,.094.563.031a1.632,1.632,0,0,0,.076.192c.34.17.586-.047.834.049l0,.092c.277.042.559.092.832.143l0,.087.552.036c.029.06.054.121.083.192a.262.262,0,0,0,.284-.083c.063.034.125.074.181.107a.819.819,0,0,0,.118-.367l-.186-.011a16.179,16.179,0,0,0-.286-1.6m-9.491,1.507c-.371-.105-.38-.268-.631-.4l-.275-.018c-.036-.069-.056-.138-.087-.192-.364-.143-.722-.3-1.087-.445l-.559-.031a6.242,6.242,0,0,0-3.179.2l-.009.192c.537.161.376.476.6.87a2.068,2.068,0,0,1,.183.1l-.011.183.089,0-.011.188.1,0c.022.161.042.317.069.474l.085,0c.022.1.056.183.08.284a1.837,1.837,0,0,0,.188.1c.1.224.036.543.143.756l.089,0-.011.188a3.278,3.278,0,0,1,.409.957c.181.06.081-.009.179.11l.1,0c.034-.192.08-.367.121-.555l.186.014c.112-.28.215-.543.322-.818l.1,0,.007-.1-.1,0,0-.1.1,0,.031-.559.087,0c.045-.125.08-.235.121-.367l.089,0c.076-.27.147-.541.233-.82.058-.027.13-.051.194-.083l.011-.183.092,0c.067-.092.136-.179.2-.271l.367.02c.127-.016-.029-.112.1-.083l0,.087.183.014c.027.1.054.188.074.284a1.547,1.547,0,0,1-.188.078l-.016.284-.094,0-.011.188-.094,0c-.038.114-.076.242-.105.362l-.1,0-.016.275-.087,0-.018.275-.1,0-.027.463-.094,0-.036.572c-.228.559-.648.876-.742,1.619.429-.056.789-.248,1.12-.121.038-.118.081-.246.114-.36.188-.016.378-.042.563-.065l.085.105c.036-.065.072-.127.11-.192l.275.018,0-.092.188.013,0-.087.371.016c.034-.065.074-.121.1-.179.186-.016.38-.042.561-.065.072-.092.139-.179.2-.271a1.165,1.165,0,0,1,.74.045c.1.038.183.074.275.107-.031.123-.076.255-.116.367-.085.027-.188.054-.275.085l-.007.087-.28-.013c-.033.056-.071.121-.105.179-.127.022-.25.051-.385.074l-.007.087c-.561.161-1.129.315-1.7.467l0,.087c-.344.11-.693.21-1.033.315l0,.1.268.013c.027.065.056.125.083.195.125.04.246.072.367.11l0,.1.275.018-.007.087c.1.036.183.069.279.114.018.051.056.123.076.192l.371.022c.065.092.114.183.174.284l.186.007-.007.094a2.706,2.706,0,0,0,.371.107l0,.1.36.022,0,.087.195.009-.007.1.284.018a2.605,2.605,0,0,0,1.087.436,5.623,5.623,0,0,0,.112-1.947l-.1-.009.027-.458-.083,0,.009-.188-.1,0a.754.754,0,0,1-.067-.38l.273.018,0-.087c.112-.109.051,0,.11-.192-.262-.38-.514-.773-.769-1.163l.016-.275a1.459,1.459,0,0,1-.177-.107,1.435,1.435,0,0,1-.432-.664l-.19-.013a1.621,1.621,0,0,0-.423-.682l-.1-.009.011-.183c-.027-.06-.112-.083-.17-.2l-.195-.013.011-.183-.174-.011.009-.183m-6,.68c-.016-.206.007-.244-.069-.371l-.1,0,.011-.188-.1,0,.016-.288c-.058-.029-.112-.06-.172-.1l0-.094c-.069-.119,0-.009-.087-.1l0-.1c-.1.02-.186.056-.288.078l0,.092-.188-.013,0,.1-.177-.009c-.038.056-.074.123-.107.179l-.19-.009c-.065.087-.132.179-.2.266l-.181-.013c-.139.15-.268.3-.4.447l-.183-.009-.2.166-.011.2a.664.664,0,0,0-.192.083c-.19.226-.241.467-.5.619l0,.1a2.251,2.251,0,0,1,.262.11l0,.083.192.009c.031.069.054.132.087.21l.188.009-.007.083.456.027-.007.087.284.016-.007.1.277.013,0,.092.188.013,0,.1.19.009,0,.1.177.013,0,.087c.19.069.367.147.543.219l0,.087c.215.051.436.1.646.134l-.007.1.181.009,0,.087.19.009-.007.092c.157.04.3.087.463.127l0,.087c.177.038.362.087.55.13-.025-.161-.036-.318-.058-.467-.1-.074-.188-.139-.279-.212l.011-.181c-.056-.038-.118-.069-.174-.1l.011-.188-.1,0c-.1-.407-.2-.818-.3-1.227-.058-.036-.116-.065-.186-.109l.013-.183-.085,0,.011-.179-.1,0c-.069-.132-.054-.166-.072-.38l-.183-.014m42.4,1.406c-.188.056-.378.11-.566.152-.076.19.009.089-.107.183l0,.1-.465-.029c-.029.056-.065.114-.1.183-.1.022-.188.047-.293.069l-.007.087c-.273.054-.554.1-.843.148a1.087,1.087,0,0,1-.1.172c-.219.025-.436.042-.651.06-.036.069-.076.119-.105.188l-.279-.018,0,.087-.188-.013-.007.1-.087-.009.007-.1c-.156.022-.318.049-.474.072-.034.056-.072.121-.105.179l-.279-.013c-.067.083-.127.17-.2.266l-.275-.018,0,.1c-.1.022-.188.049-.291.078.266.351,1,.456,1.462.64l.371.02-.007.087.186.013-.007.1.277.013-.007.1.188.013,0,.087.282.018,0,.1.177.013,0,.087.284.016-.007.087a3.138,3.138,0,0,0,.367.119l0,.1.642.123a2.646,2.646,0,0,0,.825.327,5.8,5.8,0,0,1,.318-.72l.038-.66.094.009.031-.559.094,0,0-.1-.092,0,.083-1.48-.092,0c-.025-.192-.045-.38-.06-.568m-9.737.943c-.282-.114-.554-.228-.823-.34l0-.087-.288-.018a.913.913,0,0,0-.083-.192c-.262-.074-.548-.156-.812-.237l0-.083c-.127-.038-.248-.083-.371-.116l0-.094-.279-.011c-.029-.072-.051-.132-.085-.2-.118-.036-.239-.072-.358-.119-.11-.1,0-.036-.186-.1-.2.271-.4.541-.6.8-.157.373.105.735.132.943l-.007.087-.092,0-.043.742a7.2,7.2,0,0,0,2.5.143c.181.042.373.087.559.123l0-.092c.872-.009,1.744-.018,2.611-.036l.007-.1-.085,0c-.038-.065-.056-.123-.087-.183-.548-.228-1.1-.436-1.637-.655l.011-.179m-36.578-2.2-.105,0-.009.188.1,0Zm22.736,1.494c-.208.025-.19.087-.2.087l-.461-.027,0,.087c-.959-.06-.682.11-1.239.4l-.009.174a.96.96,0,0,0-.686.619l-.089-.009-.007.1.092.009,0,.087a11.478,11.478,0,0,0,1.773-.083l.007-.1.186.013c.036-.051.067-.114.107-.179l.179.009.007-.087.192.009a1.414,1.414,0,0,1,.105-.179l.181.009,0-.1.089,0c-.074-.275-.154-.559-.224-.847m-18.043,2.6s.038-.353.105-.179l0,.1.094.009.011-.192c-.2-.105-.434-.192-.635-.311l0-.1-.186-.013.007-.1-.19-.009,0-.087-.369-.027a1.4,1.4,0,0,0-.087-.185c-.268-.085-.548-.163-.814-.232l.007-.1c-.127-.036-.241-.074-.376-.114l.007-.087-.186-.009.007-.1-.277-.011,0-.1-.183-.013,0-.087c-.3-.076-.613-.163-.923-.241-.025-.069-.054-.121-.076-.192l-.188-.009c-.058-.038-.056-.121-.177-.2a2.872,2.872,0,0,0-.195,1.67l-.1,1.755.1,0-.009.188a1.425,1.425,0,0,0,.736.147l.007-.1.188.013,0-.092.373.022c.065-.1.132-.179.192-.275l.284.018,0-.089c.253-.089.266-.047.467.027.036-.087.074-.183.112-.271.523-.1,1.058-.188,1.6-.279a1.572,1.572,0,0,0,.094-.183l.563.031m40.155,1.655c-.067.132-.8-.06-.93-.148-.018-.063-.054-.123-.076-.192-.152-.04-.309-.08-.463-.114l.007-.1-.188-.013.007-.087c-.058.027-.121.047-.186.078-.092-.127-.177-.257-.259-.38l-.563-.034,0-.1-.367-.022,0-.1-.369-.022.007-.087-.186-.013,0-.087-.371-.022,0-.1-.461-.025c.042.125.009.212.065.376l.1,0-.022.376.092,0-.009.186.087.007-.011.183c.06.036.123.067.183.1l-.043.742.092.009-.009.183.085.009-.011.183.1,0a4.7,4.7,0,0,1,.273,1.6l.19.009c.018.156.047.32.069.467.056.036.112.074.172.105-.027.06-.067.121-.1.183l.089,0-.007.1a1.719,1.719,0,0,0,.961-.324l.181.009c.076-.087.134-.17.2-.262.195-.051.376-.1.568-.156.072-.087.143-.179.2-.262l.186.007a1.371,1.371,0,0,0,.107-.188c.132-.074.257-.17.387-.257l.011-.183.1.009.009-.188.089,0a2.493,2.493,0,0,1,.508-.711l.022-.371-.1-.009,0-.091c-.148-.04-.3-.087-.449-.119Zm-5.511-1.525,0,.092c-.051.022-.123.049-.179.078a1.364,1.364,0,0,0,.083.2l-.1-.009-.009.181-.1,0-.013.28-.1,0-.016.275-.089,0-.016.284a1.809,1.809,0,0,0-.192.078l-.02.371-.089,0-.011.188-.1-.009-.025.463-.092,0c-.036.123-.076.248-.112.367l-.085,0-.027.458c-.1.063-.2.123-.3.179l-.031.559-.094-.009-.009.179-.085,0-.033.559s-.074.016-.11.179c.13.038.244.083.371.116l0,.087.921.058-.007.1a3.344,3.344,0,0,0,1.791-.183l.081.105c.136-.013-.018-.054.105-.092l.266.011.007-.087.1,0c-.047-.313-.094-.633-.136-.939l-.271-.2.027-.472c-.056-.027-.118-.067-.172-.092l.031-.563-.183-.013a.816.816,0,0,0-.081-.371l-.087,0,.027-.467c-.06-.036-.123-.065-.186-.1l.029-.463c-.063-.04-.121-.074-.181-.109l.025-.467-.188-.009c-.007-.248-.022-.494-.047-.742Zm-32.589-1.78c-.19.038-.076-.013-.194.078.188-.045.081.016.194-.078m31.366,2.173c-.154.022-.309.045-.478.063l-.007.1-.461-.025,0,.087-.192-.013,0,.1-.545-.031,0,.092-.749-.042-.007.1-.378-.022,0,.087-.461-.027a1.385,1.385,0,0,1-.1.188,1.776,1.776,0,0,1-.767.425,1.078,1.078,0,0,0,.233.847c.058.029.112.065.174.1l-.009.185.17.192-.011.2.1,0-.009.179c.058.04.123.067.188.109l-.011.183c.17.1.344.206.534.311l-.011.183a3.072,3.072,0,0,1,1.082.711l.273.018a2.169,2.169,0,0,0,.317-.633l.186.009c-.016-.284-.1-.333.036-.642l.094,0,.027-.472.1,0,.025-.458.087,0,.02-.369.1,0,.011-.188.085.009.016-.275.092,0,.018-.284.1,0,.011-.179.1.009.047-.843m-28.929.847c-.861-.1-1.037-.7-1.925-.751.027.092.06.183.083.28l.1,0-.009.179a1.325,1.325,0,0,0,.179.11l-.016.275c.058.04.121.074.181.119.022.119.049.235.076.367.047.031.114.074.181.11l-.013.183.168.2-.009.179.094,0-.013.188.179.107-.016.275c.056.031.127.076.188.105l-.011.188.087,0-.018.275c.063.036.121.076.186.11.022.127.036.248.069.371a1.409,1.409,0,0,0,.181.1l-.013.188.1,0-.011.188.089,0-.016.27.094.009-.011.183c.025.056.132.083.165.2a7.618,7.618,0,0,0,.95-.224c.127-.418.266-.226.5-.436a1.174,1.174,0,0,1-.081-.2l.279.013a.766.766,0,0,1-.08-.188c.156-.114.315-.224.476-.342l.011-.183.094,0c.188-.349-.056-.436.409-.541a1.106,1.106,0,0,1-.074-.472c-.069-.034-.317-.078-.365-.11-.022-.069-.056-.121-.085-.192l-.186-.007.007-.092-.177-.013c-.034-.067-.058-.128-.087-.188-.219-.045-.429-.092-.648-.136l0-.087c-.42-.152-.85-.306-1.272-.454l.011-.188m-3.588-.847-.841.04,0,.092-.186-.009-.007.1-.284-.018a1.047,1.047,0,0,1-.1.17c-.19.031-.378.049-.563.069l0,.087-.378-.02,0,.1-.277-.018,0,.092-.279-.018-.007.105-.268-.013,0,.078-.19-.009-.007.1-.279-.016,0,.1c-.127.018-.25.045-.38.067l-.007.1-.362-.022,0,.092c-.156.022-.322.047-.474.065.007.215,0,.246.067.376l.1,0-.009.188c.058.036.119.069.181.105.022.118.047.248.074.376.112.1.23.2.344.3l-.011.188.183.2.181.009c.112.195.228.387.34.579a2.742,2.742,0,0,1,.271.114c.025.06.056.123.083.192l.192.014.172.183.179.013a1.505,1.505,0,0,1,.083.188c.067-.022.13-.049.2-.074l0,.087.275.011c.027-.157.118-.327.112-.353l-.085-.105c.094-.051.2-.116.284-.165l0-.1.19.013c-.018-.065-.054-.127-.078-.192.069-.025.13-.051.188-.078l.018-.275c.058.036.125.065.181.1-.076-.244,0-.132-.076-.38a.667.667,0,0,0,.3-.17l.094,0a.949.949,0,0,1-.06-.651l.1,0,.027-.463c0-.009.054.02.1-.179l.186.009.029-.461.19.013c.118-.317.223-.619.331-.917m-1.111,4.773c.177.047.172.109.172.109l.655.038c.027.063.058.118.083.188.125-.029.253-.051.382-.074l-.007.1.646.04a1.991,1.991,0,0,0,.834.134l0-.087.738.132a4.178,4.178,0,0,1,.753-.145c-.143-.221-.279-.449-.432-.671l.022-.373-.092-.007c-.02-.127-.045-.25-.069-.375-.089-.067-.181-.136-.262-.206-.027-.15-.049-.306-.072-.463-.065-.045-.118-.074-.179-.11l.009-.188-.092,0,.011-.183-.094-.009.011-.174-.174-.206.009-.188c-.065-.036-.123-.065-.19-.1-.02-.087-.045-.188-.072-.279l-.087,0c-.025-.157-.042-.318-.072-.476-.143-.125-.3-.262-.44-.4l.007-.1,0-.087-.1-.009c-.036.087-.074.183-.107.27l-.087,0c-.042.161-.085.315-.125.458l-.087,0-.013.192-.1-.009-.016.284-.089,0-.011.179-.092-.009c-.047.188-.087.376-.127.555l-.1-.009-.009.188-.089,0-.016.284-.089,0c-.04.119-.078.242-.123.362l-.085,0-.016.275-.105,0c-.038.125-.074.239-.109.367l-.1,0-.018.275c-.056.034-.123.051-.183.087l-.027.458" transform="translate(-291.638 -648.724)" fill="#0070c3" fill-rule="evenodd"/>
  <path id="Path_1882" data-name="Path 1882" d="M298.644,656.845l-.022.371-.1,0-.007.1a3.5,3.5,0,0,0-1.5.284,2.4,2.4,0,0,0-.519,1l.089,0-.018.275.089,0a.673.673,0,0,1,.165.38c.116.038.246.078.369.114l-.007.1c.335.235.293.078.246.664l.1.007-.025.367a.487.487,0,0,0-.2.179c-.159-.134.047-.02-.076-.19-.074-.1-.195-.081-.271-.206-.664.069-.881.248-.9,1.073l-.089-.009-.045.742.089.009c.058.25-.116.443-.121.55l0,.092.087,0a4.7,4.7,0,0,1-.08,1.393l.092,0,0,.1-.367-.02c-.105-.11,0-.036-.181-.105.047-.306.089-.617.139-.921l-.085,0,.036-.655.087,0,.065-1.118-.085,0,.029-.554-.092,0,.022-.367-.094,0,.027-.467c-.067-.036-.125-.063-.186-.1l.011-.188c-.255-.083-.2-.04-.255-.3l-.1-.009.031-.55.1,0c.376-1.192,2.238-1.847,3.559-2.035" transform="translate(-287.541 -638.688)" fill="#ffec00" fill-rule="evenodd"/>
  <path id="Path_1883" data-name="Path 1883" d="M307.489,661.091a7.082,7.082,0,0,0-1.491.1L306,661c.418-.237.53-.975.554-1.648l.279.018,0,.1c.094.036.181.072.277.105l.094-.087a1.882,1.882,0,0,0-.1.188l.275.013-.007.083.094.009c-.038.065-.065.127-.105.188.089.069.181.132.273.2l-.011.179.092,0c.11.358-.165.514-.23.738" transform="translate(-273.892 -635.585)" fill="#ffec00" fill-rule="evenodd"/>
  <path id="Path_1884" data-name="Path 1884" d="M310.137,661.307l-.478.067c-.031.065-.065.121-.1.188l-.273-.018-.007.092-.192-.013-.007.1c-.13.074-.157.047-.369.065l-.009.179-.188-.013-.011.2c-.369.067-.293.2-.494.44-.125.076-.25.163-.387.246-.2.275-.076.362-.411.537l.018-.275.094,0c.047-.179.087-.367.127-.545l.1.009c.145-.279.15-.485.393-.642.125-.1,0-.031.2-.072l.011-.183c.391-.217.434-.588.968-.693l.011-.183a1.974,1.974,0,0,0,.668-.248c.034-.058.074-.123.1-.181l.371.022c.045-.1.08-.174.118-.271.056.036.112.065.172.105l0-.1.183.013.007-.1.371.022,0-.087.378.02,0-.1.467.027a3.816,3.816,0,0,1,1.762.009l0,.092.646.036.007-.087a.251.251,0,0,1,.282.1c.056-.02.123-.051.19-.078l0,.092c.206.04.429.092.635.132l0,.092c.163-.022.317-.04.476-.06a.939.939,0,0,1,.076.188l.463.025-.007.1c.134.031.248.072.376.105l0,.1.282.013,0,.1c.217.123.418.206.631.315l-.007.1-.284-.018c-.233-.275-.72-.206-1.1-.349l0-.09-.834-.047a8.792,8.792,0,0,0-4.2.04l-.358-.022,0,.1-.188-.009,0,.087c-.192.027-.38.042-.57.065l0,.087c-.11.1-.04,0-.1.179" transform="translate(-272.39 -635.007)" fill="#ffec00" fill-rule="evenodd"/>
  <path id="Path_1885" data-name="Path 1885" d="M294.376,661.027c.06-.534-.02-1.066.011-1.769a1.757,1.757,0,0,1,.635.221,1.853,1.853,0,0,1,.219,1.035c-.228.183-.237.367-.579.443l-.007.087Z" transform="translate(-288.254 -635.705)" fill="#ffec00" fill-rule="evenodd"/>
  <path id="Path_1886" data-name="Path 1886" d="M307.542,661.636a6.487,6.487,0,0,0-.937.034c-1.024.114-2.276-.28-3.161-.083l-1.207-.069,0,.087c-.653,0-1.3,0-1.956-.013a.263.263,0,0,0-.273-.114l0,.1c-.4.009-.807.013-1.21.027-.076.32-.1.161-.022.458l-.1-.009c-.139-.161-.168-.092-.362-.206l0-.092-.367-.02a1.765,1.765,0,0,1-.085-.186c-.181-.078-.369-.143-.552-.221l.007-.092-.183-.009.007-.1-.188-.009.007-.087-1.1-.436c-.025-.092-.056-.188-.083-.284l.1.009,0-.1.655.038c.19.206.434.119.733.233l0,.1.463.027-.007.087.461.025-.007.1,1.022.058a2.048,2.048,0,0,0,1.008.244l.007-.1.467.031c.13.029.3.179.552.125l.007-.1a2,2,0,0,1,.921.15c.23.074.342-.065.469-.069.1.074-.045.125.092.1l0-.1c.311-.009.619-.022.932-.031.123-.031-.034-.127.1-.092l0,.1.273.018,0,.083c.347-.036.693-.083,1.04-.123l-.007.1.085,0,.007-.1.376.022,0-.087c.3.042.615.092.919.139l0-.087a.143.143,0,0,1,.179.1c.165.036.2-.074.2-.074l.087,0,0,.087c.132-.009-.034-.06.1-.083.315-.049.458.123.635.221-.036.089-.076.183-.11.273" transform="translate(-286.521 -634.522)" fill="#ffec00" fill-rule="evenodd"/>
  <path id="Path_1887" data-name="Path 1887" d="M310.227,661.118c-.038.152-.083.3-.13.458l-2.5-.054,0,.1-.367-.022,0,.1-.291-.016,0,.083-.463-.027-.007.1c-.145-.045-.3-.083-.456-.123l0,.1-.371-.022-.007.092a3.4,3.4,0,0,1-1.386-.17l.007-.1a1.512,1.512,0,0,0,.66-.047l0-.092c.159-.022.308-.045.467-.069l0-.094.192.009.007-.1.181.009.007-.083a2.3,2.3,0,0,1,.367-.069c.034-.06.076-.132.107-.188l.186.009,0-.1a4.127,4.127,0,0,1,1.013.253c.065-.034.136-.06.192-.087l0,.1.186.013-.007.1a5.1,5.1,0,0,0,.941-.141,5.3,5.3,0,0,1,1.485.09" transform="translate(-276.079 -633.807)" fill="#ffec00" fill-rule="evenodd"/>
  <path id="Path_1888" data-name="Path 1888" d="M303.245,663.226l.19.013-.011.183.186.013a1.608,1.608,0,0,0,.34.669c.054.033.11.069.179.107l-.011.183a1.4,1.4,0,0,0,.181.1c.027.127.047.25.069.38.065.031.123.067.179.1.078.288.154.577.226.861l-.087,0c-.224-.358-.452-.715-.689-1.067-.141-.134-.291-.261-.443-.4l.011-.183a1.359,1.359,0,0,0-.179-.11l.011-.188-.094,0c-.183-.248-.253-.4-.622-.5-.049-.192.013-.083-.085-.192l0-.092-.271-.018c-.031-.065-.065-.125-.092-.188-.116-.034-.241-.083-.358-.116a1.7,1.7,0,0,1-.087-.192l-.275-.018a6.5,6.5,0,0,0-2.564-.7c-.409-.063-.809-.114-1.207-.168-.342.078-.845.168-1.225.215l-.009.179a4.463,4.463,0,0,0-1.321.3,1.8,1.8,0,0,0-.094.183l-.195-.013,0,.1-.284-.018c-.031.06-.063.119-.1.174-.156.031-.311.049-.465.072l-.007.094a1.288,1.288,0,0,1-.581.333c-.118.349-.21.235-.4.449l-.085,0-.016.284c-.338.063-.277.152-.49.335l-.094,0,.007-.1c-.1-.1-.04,0-.076-.183a2.366,2.366,0,0,0,.514-.9l.186.009c.163-.21.331-.414.5-.619l.1,0a1.6,1.6,0,0,1,.1-.183l.186.013c.1-.123.208-.241.306-.355l.179.009a1.512,1.512,0,0,1,.107-.179l.179.009c.038-.06.074-.123.112-.179.273-.074.566-.157.852-.23l0-.092.183.007.007-.094.174.007,0-.087.194.009.007-.1c.192-.043.376-.105.57-.152l0-.083c.156-.027.311-.049.465-.078a1.7,1.7,0,0,0,.107-.172l.277.013,0-.1.378.022a1.576,1.576,0,0,1,1.033-.132l0,.1.268.018c.06.092.119.192.17.284.279.083.546.156.827.241l0,.083q.235.057.463.121l0,.092c.118.036.246.08.36.118l0,.087.282.018c.027.065.06.132.08.2l.183.013,0,.087.186.013,0,.1.282.018c.018.052.051.116.08.19.085.031.183.072.268.105.094.123.17.255.259.385l.194.013c.02.06.049.123.078.192.087.027.179.069.266.105Z" transform="translate(-290.811 -634.279)" fill="#ffec00" fill-rule="evenodd"/>
  <path id="Path_1889" data-name="Path 1889" d="M306.319,663.957c.047.262.224.432.239.673-.049.1-.116-.013-.195.27-.235.045-.183.013-.293.165-.28-.112-.548-.212-.827-.322.036-.063.072-.123.107-.183l-.1,0c-.288-.27-1.138-.192-1.561-.375l.007-.087-.277-.018.007-.092-.461-.022,0-.1-.467-.029,0-.1-.282-.013.007-.092-.465-.027,0-.087-.275-.018.007-.1-.378-.022.007-.087c-.293-.105-.474.1-.651.054l0-.092-.371-.018.007-.1-.188-.009,0-.092-.371-.022,0-.1-.188-.013a1.853,1.853,0,0,1-.076-.179l-.376-.025.007-.092-.185-.014.007-.1-.282-.014.007-.092a1.229,1.229,0,0,1-.7-.792c-.219-.06-.2-.1-.356-.2l.007-.1.644.038c.183.17.5.11.736.237l-.007.087.186.013,0,.092c.179.069.367.143.546.217l0,.092.555.031-.007.1.185.009-.007.092a1.846,1.846,0,0,1,.2-.078l0,.092.1,0,.181.013-.007.087.651.034a1.565,1.565,0,0,0,.083.192l.271.018,0,.1c.054.013.271-.136.474-.069l-.007.1.376.02-.007.1.369.022-.007.092.277.013,0,.087c.555.105,1.113.192,1.666.288l-.007.1c.15.036.3.074.458.114l-.007.1c.125.038.246.074.369.107l0,.094.369.02.007-.092c.094.04.183.072.275.1" transform="translate(-284.481 -633.173)" fill="#ffec00" fill-rule="evenodd"/>
  <path id="Path_1890" data-name="Path 1890" d="M302.929,663.731c.042-.127.078-.244.116-.367.246-.018.5-.036.745-.049l0,.092.282.013,0,.1.279.018,0,.087.461.027,0,.092c.373.047.738.11,1.109.161l-.007.087.183.013-.007.1c.141.022-.027-.078.107-.092l.55.031,0,.1.282.018,0,.094.463.027,0,.092c.584,0,1.181,0,1.766.009l0,.092.93.054,0,.1.555.029,0,.092c.128.013.161-.139.38-.065l0,.087.648.04,0,.087.094,0,0-.089,1.109.063s-.02.119.181.1l.007-.087c.156.038.306.083.458.114l0-.09.465.027,0-.092.1.009,0,.087c.264.069.42.078.642.127l-.007.1-.286-.013.007-.1-.083,0-.1,0-.007.1-.277-.013-.007.1-.548-.031,0,.09-.288-.018,0,.092-1.576-.092-.007.1-1.3-.081,0,.092-.1-.007,0-.087-.465-.027,0-.1c-.458-.092-.917-.183-1.375-.257l0-.1-.284-.018.007-.1c-.49-.054-.979-.114-1.478-.174l.007-.087c-.253-.045-.494-.1-.74-.141l0-.092c-.063.027-.127.054-.19.078-.206,0-.181-.1-.181-.1l-1.485-.083,0-.1-.648-.038.007-.1c-.161-.04-.309-.078-.463-.114" transform="translate(-277.685 -630.692)" fill="#ffec00" fill-rule="evenodd"/>
</svg>
