<svg xmlns="http://www.w3.org/2000/svg" width="79.703" height="57.467" viewBox="0 0 79.703 57.467">
  <g id="Group_210" data-name="Group 210" transform="translate(-49.327 -93.205)">
    <path id="Path_1952" data-name="Path 1952" d="M88.318,103.251l1.646-9.636h4.08l8.672.679,4.7.964,6,.908,8.5,1.473,5.367.556-.608,1.767-1.641,10.149-2.1,13.261-1.7,10.257-1.65,9.029-.785,4.347-6.69-1.13-8.952-.74c-10.167-.747-11.008-3.973-19.611,1.87l-.895.3-1.565-.522c-5.383-1.013-13.47-1.193-18.8.247l-2.639,1.159-4.152,1.2-1.522-4.381c-1.175-10.748-3.408-21.476-4.4-32.06l1.134-1.112L51.484,115c1.668,8.425,2.771,17.414,4.246,25.951l1.049,6.336,4.675-1.565,2.814-.816,4.291-.639,2.814.318,3.39.139,3.065.408,2.973.612,2.139.316,3.652-2.2c4.545-1.973,9.629-4.083,14.685-3.383l3.571.365,2.767,1.179.661-.726.2-2.181-1.424-11.291L104.743,115.1l-1.85-12.145-2.894-.4h-4.28l-4.163.462-3.354.749" transform="translate(0.315 0.509)" fill="#ffec00" fill-rule="evenodd"/>
    <path id="Path_1953" data-name="Path 1953" d="M50.3,108.606v-1.3l1.646-1.02c7.212-2.957,16.183-4.32,23.74-1.782l1.256.648,1.076-1.361,4.139-2.1,5.811-1.753,4.217-.91,2.383-.283.738-2.1h4.419l3.116.621s2.323.229,2.666.343,4.02.4,4.02.4l5.219.509,2.32.451.852.233-1.249,7.93-7.538-.677-3.4-.738-3.054-.509.619,3,1.13,7.257,1.421,8.387,1.7,10.089.173,2.722-.684,1.491-1.7-.639-2.493-.442-2.888-.352-3.628-.058-3.175.41L88.79,138.89,83.457,141.2l-1.641,1.02c-6.309-.764-12.777-2.95-19.1-.908l-3.063.908-4.074,1.415" transform="translate(1.208 4.277)" fill="#fff" fill-rule="evenodd"/>
    <path id="Path_1954" data-name="Path 1954" d="M66.429,142.133l.849-1.079,2.949-.674h1.756l5.215.875,5.953.879h5.211l5.557,1.1,3.967.6,3.056-17.008,2.612-15.924,1.754-10.827.624-3.91,1.3,1.85-1.69,10.79L103.665,120l-2.209,15.952-1.075,8.275-.909,1.758h-1.08l-9.294-1.25-6.916-.962-6.345-.847-5.213-.456-2.38-.451" transform="translate(21.241 3.681)" fill="#fff" fill-rule="evenodd"/>
    <path id="Path_1955" data-name="Path 1955" d="M99.631,93.956v.166c.274-.011.522-.1.583-.085v.085h.327v.085h1.168v.081h.5c.114-.022-.034-.1.078-.081v.081h.415v.085c.166.04.112-.045.17-.085.1.009.119.07.334.085.063.249.052.217.332.249v-.083c.085-.027.166-.058.253-.085v.168c.11-.029.137-.128.327-.083,0,0,0,.11.173.083v-.083h.332s-.011.092.166.083v-.083c.359.054.717.11,1.081.166v.087h.166v.078c1.137.139,2.278.278,3.415.415v.17a3.24,3.24,0,0,1,1.747.166V95.7h.751v.085h.253v.083h.33v.083h.5v.083h.168v.085c.164-.029.336-.056.5-.085.025.085.052.17.081.251a18.292,18.292,0,0,1,1.832.164v.17a.427.427,0,0,1,.419,0V96.7c.054-.029.105-.054.166-.083V96.7h.915l.083.166c.078.027.152-.141.332-.085v.085h.251v.083l.585.085v.081c.083-.027.164-.056.249-.081.029.054.054.11.081.164a1.289,1.289,0,0,1,.5-.083V97.2h.415v.085h.087c.027-.054.054-.11.078-.168h.085V97.2h.334v.168a1.1,1.1,0,0,1,.749,0h.417v.085l.5.081V97.7a4.558,4.558,0,0,1,1.832.083v.083h.166v.085c.11-.009.215-.148.417-.085v.085h.168v.085h.5c.027.054.056.108.081.166a.2.2,0,0,0,.251-.166h.085v.081c.083-.027.164-.056.244-.081v.081h.424a.763.763,0,0,0,.164.166v-.166c.222.027.444.054.668.085.025.056.054.11.081.168h.253c.027.052.052.108.078.164h.253c.025.056.054.108.081.168l.251.078v.085a.723.723,0,0,0,.334.168c.054.166.108.332.17.5h.076v.417s.085-.018.087.168c-.052.058-.126-.031-.087.081.058.031.114.058.17.085.025.193.052.386.083.583h.081v.334h.083v.5h.083v.417h.087v.415h-.087c.031.087.058.17.087.251h-.087v.417h-.083v.332h-.083c-.045.161.038.114.083.168v.083h-.083v.5H128.7c.027.056.054.108.081.168H128.7v.5h-.083v.253h-.083v.5h-.087v.917h-.076v.085h.076c-.072.164-.065-.022-.164.081a1.463,1.463,0,0,0,.087.166h-.087v.251H128.2v.334h-.085v.083h.085c.027.2-.085.249-.085.249.027.108.054.224.085.332h-.085v.168h-.085v.753h-.078v.164h-.085c-.025.119.016-.013.085.081-.022.126-.119.137-.085.334a.153.153,0,0,1,.085.168h-.085v.5h-.081v.5H127.7v.166h-.085c-.027.581-.056,1.164-.081,1.744h-.087v.417h-.081v.336h-.085v.253H127.2v.244h-.087v.5c-.029.112-.081-.038-.083.078.063.078.119-.029.083.083h-.083v.251h-.083c.029.278.056.556.083.834h-.083v.249l-.164.081v.834s-.092-.018-.085.166h.085v.087H126.7v.413h-.085v.251h-.078c-.027.307-.061.612-.087.917h-.081c-.029.139-.058.276-.085.415H126.2v.168h-.083v.085h.083c-.011.164-.083.164-.083.164v1h-.081v.5h-.085c.029.056.054.11.085.168h-.085v.413h-.087v.5h-.078v.417h-.087v.334h-.085c-.022.444-.047.89-.081,1.329h-.081v.249h-.083v.5h-.085v.5h-.085v.33h-.078v.419h-.087v.668h-.081v.164h-.085v.083h.085c-.031.253-.058.5-.085.751h-.081v.585H124.7v.244h-.085c.029.061.054.112.085.168h-.085v.251h-.081v.081h.081v.087h-.081v.583h-.085v.083c.025.054.054.11.085.168h-.085v.332h-.085v.164h-.083c.027.083.056.168.083.249h-.083v.5H124.2c-.056.2.094.318.081.417H124.2v.661h-.085v.583h-.085c-.025.157.175.4.085.67h-.085v.166h-.078v.5h-.087v.912h-.081v.583H123.7v.5h-.083v.332h-.081v.168h-.09c-.027.72-.045,1.442-.078,2.166h-.085v.334c-.034.11-.078-.036-.083.081.058.076.117-.029.083.081H123.2c-.027.2-.052.392-.078.587h-.085c-.027.336-.054.666-.081,1h-.087c.027.2.056.39.087.587h-.087v.334h-.087v.5H122.7v.251h-.081c.025.054.058.11.081.166h-.081c-.045.209.045.188.081.247v.087h-.081v1c-.054.027-.112.052-.17.083.034.083.058.168.09.249h-.09v.751s-.09-.013-.078.164c.063.1.094-.034.078.085s-.078-.031-.078.083h.078v.085h-.078v.249h-.085v.417H122.2v.081h.085v.251H122.2v.332h-.081v.085h.081c-.025.085-.049.166-.081.251h.081v.083h-.081v.332h-.087v.251h-.081c.029.054.056.112.081.166h-.081v.251h-.083c-.027.276-.058.556-.085.832h-.164c-.034.3-.1.253-.166.5h-.166c-.027.054-.058.108-.085.164l-.5-.083v.083h-.173c-.025.056-.056.11-.081.164-.117.007.031-.067-.085-.081h-.249v.081c-.135-.025-.28-.054-.413-.081v-.083h-.417v-.083h-.168c-.027-.054-.058-.112-.085-.164-.085.027-.166.052-.251.083v-.083h-.249v-.087h-.5v-.081h-.164v-.085h-1.087c-.022.007-.022.114-.168.085v-.085h-.334v-.081h-.5v-.085h-.5v-.083H115.2a.232.232,0,0,1-.247.083v-.083h-.332v-.083c-.063.027-.112.056-.168.083v-.083h-.915v-.087H113.2v-.078h-.168v-.085h-.249v-.083c-.058.027-.11.054-.166.083v-.083h-1.085v-.083c-.108.027-.22.056-.334.083h-.081v-.083H110.2v-.083h-.661c-.036-.056-.058-.112-.087-.166-.121-.04-.424.175-.668.083-.029-.056-.052-.114-.078-.168-.117,0,.034.072-.087.085-.2.022-.209-.065-.33-.085h-.5v.085a.229.229,0,0,1-.247-.085h-.085v.085c-.164.018-.164-.085-.164-.085-.083.031-.168.054-.249.085v-.085h-1.087v-.085h-.327v-.081c-.117.027-.229.058-.336.081v-.081h-.334v-.085c-.081.031-.164.058-.249.085v-.085H104.3v-.081h-.839v-.085c-.388-.029-.778-.056-1.166-.081v-.085c-.078.029-.166.054-.247.085v-.085l-.336-.083v-.085l-.332.085v-.085h-.33v-.078h-.341v-.085h-.33v-.083H98.962v-.085h-.415v-.081h-.583v-.085h-.251v-.085h-.668v-.081H96.8v-.085c-.339-.027-.668-.049-1-.081v-.085c-.251.031-.5.056-.751.085v-.085h-.081v.085c-.058-.029-.114-.054-.173-.085a.133.133,0,0,1-.161.085v-.085h-.419c-.083.031-.168.056-.247.085v-.085h-.334v-.081c-.056-.009-.3.141-.5.081v-.081h-.417v-.085h-.334v-.085h-.164v-.081H91.8v-.083a.211.211,0,0,0-.251.083c-.525-.029-1.051-.054-1.581-.083v-.085c-.083.027-.17.056-.247.085v-.085h-.334v-.081h-.336v-.085c-.39-.119-.491.213-.919,0-.164.054-.33.112-.5.166v-.081c-.17-.11-.188-.191-.417-.253v.085H86.97c-.027.056-.054.11-.085.168h-.168c-.11.137-.217.276-.33.415-.141.029-.278.058-.417.085-.054.081-.114.166-.164.247-.168.031-.336.056-.5.085-.083.112-.164.224-.249.332a2.751,2.751,0,0,1-1.083.666v.085c-.5-.054-1-.114-1.5-.166v-.168a.662.662,0,0,1-.332-.085v-.078c-.087.027-.17.052-.251.078v-.164h-.332v-.083a2.658,2.658,0,0,1-.341.083v-.168c-.318.025-.343.105-.661,0v-.081l-.668.081v-.081c-.164-.027-.332-.058-.5-.085l-.078.085c-.027-.058-.054-.114-.081-.17h-.749v-.081c-.256-.029-.5-.054-.753-.085v.085c-.11.027-.22.056-.336.081-.025-.054-.052-.11-.078-.166h-.334v.166a.674.674,0,0,1-.419-.166v-.081c-.222.031-.439.054-.661.081v-.081h-.417v-.085a1.136,1.136,0,0,0-.5.085v-.166h-.081v.081h-.249v.085h-.251v.081c-.28-.027-.554-.049-.832-.081v.081H73.48v-.081h-.251v-.085c-.139.013-.157.166-.164.166-.146-.027-.28-.049-.419-.081v.166h-.5v-.085c.17-.047.078.013.17-.081-.585.031-1.168.054-1.753.081-.022-.049-.049-.11-.081-.166-.018,0-.251.139-.41.085a.971.971,0,0,1-.085-.166c-.128-.036-.117.137-.168.166h-.168v.081c-.28.105-.563-.076-.753-.081a.18.18,0,0,0-.166.081c-.112.018.036-.058-.078-.081H67.98v.081c-.2.054-.217-.072-.334-.081v.081h-.168v.085h-.747c-.02,0-.025.105-.166.081v-.081H65.9v.081h-.166v.085h-.5v.085h-.166v.081a1.322,1.322,0,0,1-.747-.081c-.038.383-.177.345-.583.334v.164c-.2-.052-.155-.025-.249-.164-.114.078-.224.164-.33.247v-.168h-.175c.029.085.058.168.09.253-.3.045-.159.081-.421,0,.029.052.054.112.087.166h-.087v.081h-.417v.166c-.182.034-.473.269-.581.085v.168c-.175-.018-.081,0-.168-.083H61.4v.083h-.249v.083H60.9v.083a1.386,1.386,0,0,0-.67,0c-.025.056-.052.11-.081.166-.182.078-.238-.105-.334-.083v.083c-.11.025-.224.056-.33.085a1.677,1.677,0,0,0-.087.166h-.251v.083h-.168l-.078.168h-.17v.081l-.081-.081a2.283,2.283,0,0,0-.747.166c-.094.094-.038,0-.085.168-.139.027-.278.052-.417.083v.081c-.112-.027-.226-.054-.332-.081v.164h.078v.083h-.078v.334h-.334v-.085h-.083v.085c-.5-.027-1-.056-1.5-.085v-.083c-.2-.1-.119.031-.249-.166-.209-.238-.058-.491-.166-.832h-.081v-.417h-.085v-.166h-.085v-.5H54.4v-.578h-.085v-.334h-.076v-.336h-.087v-.581h-.085v-.251h-.081v-.585h-.083v-.164h-.081c-.092-.244.1-.639.081-.751h-.081c-.029-.137-.061-.28-.087-.415h-.083v-.5s-.108.013-.083-.168a.21.21,0,0,0,.083-.247h-.083v-.17h-.087v-.5h-.078v-.085c.056-.076.117.031.078-.081h-.078v-.253H53.32c-.022-.249-.056-.5-.081-.747h-.085V140.6h-.083V139.43h-.083v-.583H52.9v-.5h-.081v-1h-.083v-.832h-.087v-.251h-.078c-.061-.193.1-.231.078-.336h-.078v-.249h-.085c-.029-.247-.056-.5-.081-.749h-.085c-.027-.585-.056-1.164-.087-1.749h-.081v-.251h-.083v-.417H51.99V132.1h-.085c.027-.139.058-.276.085-.415h-.085v-.5h.085V131.1h-.085v-.166h-.081V130.6h-.087v-.251h-.083v-.085h.083v-.081c-.052-.031-.11-.058-.164-.085v-.251h-.083c-.123-.37.159-1.087,0-1.583h-.085v-.251h-.081c-.031-.247-.054-.5-.087-.749h-.078V127.1h-.085v-.415h-.085c-.029-.139.081-.146.085-.166-.029-.361-.054-.724-.085-1.083h-.081v-.251h-.085v-.334h-.081c-.025-.3-.058-.61-.085-.915h-.083c-.029-.417-.058-.832-.085-1.249h-.081v-.67c-.058-.022-.11-.054-.166-.081v-.413h-.085v-.836h-.085v-.081a.237.237,0,0,0,.085-.253h-.085v-.249h-.081v-.166H49.9c.031-.527.058-1.056.087-1.583H49.9v-.415h-.081c-.027-.114-.052-.224-.083-.336h-.081q.04-.706.081-1.417h-.081v-.5h-.085v-1h-.083v-.415s-.105.018-.085-.166a.136.136,0,0,0,.085-.168h-.085c-.052-.159-.034-.211-.078-.334.2-.135.049-.065.164-.251h.083v-.166l.33-.247c.031-.141.058-.28.087-.417l.5-.334c.128-.191-.027-.253,0-.334h.085v-.249h.083c.061-.083.11-.168.166-.249.137-.029.276-.056.415-.085-.013-.074-.168-.184-.078-.332.22-.112.442-.222.666-.332.027-.056.052-.114.081-.168h.33v-.083c.112-.027.224-.056.339-.083v-.085h.249l.081-.166c.168-.054.336-.11.5-.166v-.083l.5-.168v-.083c.278-.052.556-.11.832-.168l.085-.166h.417a1.782,1.782,0,0,0,.076-.164h.17v-.085h.247v-.081h.253v-.085h.251V108.7c.469-.058.939-.112,1.417-.166v-.087c.108-.025.22-.058.332-.083v-.081h.166v-.087h.334v-.083h.332v-.083c.471-.027.946-.058,1.415-.083.48-.146,1.112-.269,1.587-.415h.917v-.081h1v-.085h.583v-.081c.612-.031,1.222-.058,1.832-.087.022,0,.022.11.168.087V107.2h.668v-.083h1.164s-.013-.11.159-.083v.083c.179.027.309-.143.585-.083v.083c.11.013.143-.137.339-.083v.083h.332v.083h.749v.087h.581v.081h.415v.085h.921v.081h.083v-.081h.081v.081h.332v.083c.139-.029.28-.054.419-.083v.083h.164v.083h.5s-.016.087.168.083c.087-.058-.029-.114.083-.083v.083h.166v.083c.3.031.612.054.915.083l.085.166c.193.031.388.056.581.083v.087c.112.025.224.052.334.081v.083h.336l.078.168H76.8l.09.166c.159.1.341.058.578.085v.081h.083v-.081h.085c-.027-.085-.054-.166-.085-.251h.085c.056-.081.11-.168.164-.251h.168c.085-.11.17-.22.249-.334h.17c.025-.058.058-.112.085-.166.108-.027.22-.054.33-.083.029-.054.056-.11.085-.166h.164c.027-.054.061-.11.083-.164h.168v-.085h.166v-.081c.117-.081.146-.061.332-.087v-.166c.276-.139.556-.278.836-.417H80.8c.034-.058.061-.112.085-.166h.253c.027-.056.054-.112.076-.168.114-.025.229-.052.341-.083.022-.054.054-.108.078-.166h.17v-.085h.419v-.081h.247v-.085h.166V105.7h.249c.027-.054.061-.112.083-.164h.583c.029-.056.054-.114.081-.168h.253v-.085c.11-.025.222-.054.33-.081v-.085h.251v-.081h.253v-.087h.332v-.081h.417c.027-.056.056-.11.085-.168h.251c.022-.054.049-.108.078-.166h.251v-.081H86.3v-.087h.251v-.081c.114-.025.224-.054.334-.085v-.081h.251v-.083h.417c.341-.126.408-.2.415-.666.222-.265-.027-.863.083-1.251h.081v-.5h.085v-.5H88.3v-.5h.085v-.5h.085v-.332h.083v-.67h.081v-.5h.083V98.2H88.8v-.749h.087v-.5h.081v-.5h.083v-.415a8.835,8.835,0,0,0,.419-2.585c.244-.081.5-.164.747-.247v.083h.168v.083c.525.029,1.051.061,1.581.081a3.679,3.679,0,0,1,.751-.164c.027.056.056.112.083.164h.583v.087h.081v-.087H93.8v.087c.487.135,1.231-.038,1.664.083h1.583V93.7h.5v.085h.419v.083h.5v.083c.085-.027.173-.058.251-.083v.083H98.8v-.083c.276.025.554.056.832.083m-8.833.5c-.078.556-.164,1.114-.249,1.668a4.31,4.31,0,0,0-.332,1.5h-.168a1.168,1.168,0,0,1,0,.832v.415h-.081v.249h-.083c-.02.1.137.146.083.336h-.083v.334H89.8v.081c.025.04.143.016.087.166-.061.031-.11.054-.164.085-.074.186.076.229.076.33h-.076c-.031.253-.058.5-.087.753H89.47a1.373,1.373,0,0,1,.078.5h-.161v.251h.083c-.061.5-.112,1-.166,1.5a1.583,1.583,0,0,0,.581.081c.213-.2.35-.065.664-.164v-.083h.5V103.2h.417v-.083c1.249-.168,2.5-.334,3.744-.5.17-.5.336-1,.5-1.5.092-.253.025-.634.253-.751h.417a1.6,1.6,0,0,1,.912-.081v.081c.2-.027.39-.052.583-.081v.081c.724.031,1.444.061,2.17.083a2.869,2.869,0,0,1,.912.168h.919v.085h.661v.083h.336v.083h.334v.083h.247v.083c.056-.027.112-.058.17-.083v.083h.415v.083h.33v.085h.256v.083h.249v.083h.247v.085c.085-.027.168-.061.253-.085.332.025.664.058,1,.085v.081h.919v.085c.078-.031.164-.056.249-.085v.085h.247v.081h.67v.166a8.99,8.99,0,0,1,1.747,0h.585v.085h.168v.085h.33v.081h1.249v.083h.17v.085h.249v.081l.917-.081,1.415.081v.085h1.164v.081c.085-.027.166-.049.249-.081v.081h.336v.087h.417v.083h.5v.081h.415v.085h.249v.081h.415c.027.058.058.112.085.168h.247v.083c.175.152.056.164.339.251.045.22.045.374.078.666h.085v.081h-.085v.253H119.7v.749h-.087v.666h-.081v.583h-.083c.027.054.049.108.083.166h-.083v.332h-.087v.419h-.078v.581H119.2c-.018.1.132.141.085.336H119.2v.664h-.083v.17h-.085c.027.164.058.33.085.5h-.085v.251h-.085v.5h-.081v.251h-.085v.5c-.049.027-.11.054-.164.081v.251h-.085v.085l.085.083h-.085v.249h-.081c-.027.087-.058.168-.083.253q-.918-.087-1.834-.166v-.087c-.085.029-.168.054-.253.087l-.078-.173c-.061.029-.112.058-.166.085v-.085h-.919v.085c-.139.025-.143-.076-.164-.085h-1V111.7c-.117-.022-.065.108-.334,0v-.085h-.664v-.083h-.334v-.085l-.751-.081v-.085h-.5v-.085h-.67v-.081c-.159-.038-.108.04-.164.081h-.085v-.081h-.083v.081c-.054-.027-.108-.054-.168-.081h-.585v-.081h-.413v-.085h-.419v-.081c-.356-.031-.717-.058-1.076-.087V110.7h-.341v-.085c-.2-.056-.188.043-.247.085-.117-.009.038-.063-.081-.085h-.749v-.085c-.2-.029-.392-.054-.585-.083-.029-.056-.054-.11-.081-.166h-.336v-.085a2.068,2.068,0,0,1-.334.085v.334h.085v.5h-.085c.027.222.061.446.085.664h.081v.419h.085c.027.3.054.61.083.915h.085v.168h.085v.666h.078v.666h.087v.668h.081v1h.085v.749h.081v.336h.081v.334h.085v.332h.085v.332h.081v.751h.087v.744h.078v.253h.085v.915l.666,2c.058.193-.1.229-.081.336h.081v.33h.085c-.031.083-.058.166-.085.251h.085v.5h.083v.834h.078v.666c.036.114.074-.034.085.085-.025.11-.052.222-.085.332h.085v.168h.085c.054.444.112.888.17,1.329.076.5.164,1,.242,1.5h.087v.666h.081v.083h-.081v.085h.081v.91h.083v.67h.087v.332h.081v.083h-.081c0,.256.173.433.081.583.007.179.085.166.085.166v.417h.083c-.029.085-.056.168-.083.253h.083a1.98,1.98,0,0,1,.081,1c.058.28.114.56.166.836h.087v.581h.083v.081a.128.128,0,0,0-.083.17c.052.027.11.054.164.083v.751h.085v.249h.083v.83c.034.114.07-.034.087.087-.049.052-.132-.029-.087.081.056.027.11.056.161.085v.834h.087v1.078h-.087c.034.085.058.173.087.253h-.087c.058.249.117.5.175.744h-.087v.173h-.087v.413h-.074c-.094.1,0,.034-.17.085v.249h-.166v.168h-.249v.417c-.206.135-.054.061-.168.249h-.083v.164c-.085.056-.166.114-.253.168v.166c-.222.114-.442.224-.664.336v-.083h-.5v-.085h-.164v-.083h-.253c-.029-.058-.056-.112-.087-.166h-.166v-.085c-.552-.054-1.11-.112-1.664-.168-.027-.052-.058-.108-.081-.164h-.085v.081c-.177-.007-.17-.081-.17-.081H103.8v-.083h-.339v-.085c-.083.029-.159.054-.247.085v-.085h-.334v-.081h-.251v-.085h-.334v-.081c-.061-.011-.213.121-.413.081-.025,0-.029-.117-.17-.081v.081h-.166v.085a.223.223,0,0,1-.251-.085c-.2.027-.386.056-.585.085,0,0,.009-.11-.166-.085v.085c-.083-.029-.164-.058-.247-.085v.085h-.247v.081h-.5s.016.105-.164.085v-.085h-.087v.085h-.415v-.085c-.361.029-.72.054-1.078.085v.083l-.253-.083c-.025.056-.056.108-.083.164h-.5v.083h-.251v.087c-.251-.031-.5-.056-.749-.087-.336.114-.67.226-1,.334v.085c1.554.3,3.107.612,4.663.917h1.581v.081h1.081v.085h.334v.081h.419v.085h.664v.081h1v.085c.388.031.778.054,1.166.085h.917c.7.2,1.621.2,2.332.413h.5v.085c.114-.025.229-.056.339-.085v.085h1.664v.083h.332v.085h.668v.083h.5v.081h.33v.085h.334v.083c.361.027.724.054,1.081.085v.081c.587.056,1.17.114,1.749.168v.081h.339v.085h.327v.085h.17v.081h.249v.085h.5v.081h.085v-.081h.5c.085-.5.166-1,.251-1.5h.085v-.166h.083v-.419h.085V143.76h.078v-.415h.087v-.751h.083v-.251h.081v-.417h.087v-.5h.078c.029-.356.054-.715.085-1.081h.081v-.164h.085v-.668h.083c-.027-.054-.054-.11-.083-.164h.083v-.419h.085c.027-.417.052-.832.083-1.247h.081v-.334h.085v-.168h.081v-.332h.083v-.417h.09v-1.249h.081v-.251h.083v-.249h.083c.029-.363.054-.722.083-1.081h.087v-.339h.078v-.247h.085v-.583h.083V132.1h.083v-.585h.083v-.5h.083v-.664h.087V130.1h.076v-.251h.085v-.5h.083c.029-.446.056-.89.081-1.336h.087V127.6h.081v-.5h.085c-.027-.083-.058-.164-.085-.251h.085v-.5h.085V126.1h.078v-.253h.09v-.413h.081v-.419h-.081v-.081h.081v-.749h.081v-.832c.363-1.195.278-2.417.668-3.666.034-.39.052-.778.078-1.168h.09v-.332h.081v-.334h.083c.029-.359.058-.722.085-1.085h.081v-.913h.087v-.253h.078v-.33h.085v-.585c.054-.027.11-.054.166-.083v-.5h.083v-.417h.085v-.5h.085v-.417h.081v-.247h.085v-.753h.083v-.744h.081v-.085c0-.117-.135-.135-.081-.332h.081v-.419h.085v-.332h.081v-.334h.087c.027-.388.054-.78.078-1.166h.085c-.027-.056-.054-.11-.085-.168h.085v-.415h.085v-.666h.083v-.249h.081v-.417h.081v-.417h.085c.031-.527.058-1.056.087-1.581h.078v-.334h.087a.141.141,0,0,0-.087-.17c.031-.276.061-.552.087-.83h.085c-.031-.081-.056-.168-.085-.249h.085v-.417h.081V102.2h.083c.016-.1-.155-.143-.083-.334.056-.025.114-.054.166-.081,0-.11-.143-.208-.083-.417a8.6,8.6,0,0,0,.168-2.166c-.278-.027-.554-.056-.836-.085v-.081h-.081v.081c-.332-.025-.666-.052-1-.081v-.083h-.585v-.085h-.33v-.085h-.415V98.7a.241.241,0,0,0-.253.078h-.087V98.7h-.5v-.087h-.666v-.081h-.583v-.083h-.33v-.081c-.253-.031-.5-.058-.756-.087V98.2h-1.081v-.085h-.415v-.081h-.334v-.085h-.334v-.085c-.274-.027-.556-.054-.83-.083V97.7c-.419-.027-.834-.056-1.251-.081v-.085h-.249v-.081H115.2v-.085c-.5-.058-1-.112-1.5-.168-1.058-.318-2.285-.43-3.334-.751-.666-.052-1.334-.11-2-.164-.621-.184-1.457-.3-2.078-.5h-.5s.013-.087-.166-.085v.085h-.087V95.7h-.5v-.081H104.3c-.641-.186-1.623-.15-2.251-.336h-.581v.085h-.087v-.085h-.583v-.076h-.336v-.085h-.244v-.085h-.339v-.083H98.462a9.583,9.583,0,0,0-2.751-.251h-1.5v-.083H93.8v-.083h-.251v-.085H93.3v-.081H91.88c-.016-.007-.027-.108-.164-.085v.085h-.749s-.011.054-.17.081m36.733,6.663c-.027.193-.058.39-.087.583h-.081v1.249h-.085c-.027.392-.052.778-.078,1.168h-.087c.029.112.054.222.087.334h-.087c.029.052.054.108.087.164h-.087v.332h-.083v.5h-.083v.666h-.081c-.029.114.052-.031.081.081-.027.112-.056.224-.081.332a.156.156,0,0,1,.081.17h-.081c-.029.193-.056.386-.083.585H126.7v.247h-.085v.581h-.078v.17h-.087c.027.081.061.164.087.251h-.087c-.027.215-.054.439-.081.661h-.085c.027.166.056.334.085.5h-.085v.334H126.2v.085l.083.081H126.2v.334h-.083v.749h-.081v.751h-.085v.085l.085.081h-.085v.581h-.087v.417h-.078v.166h-.087c.031.058.058.112.087.17h-.087v.253h-.085v.41h-.081v.417h-.081c-.031.28-.056.558-.083.832h-.085c-.027.112-.054.226-.085.336h-.078c-.029.276-.061.554-.087.834a.235.235,0,0,1,.087.247h-.087v.417h-.081v.668h-.085a1.035,1.035,0,0,0,0,.581H124.7v.332l.083.085c-.056.027-.114.054-.168.083-.067.191.092.226.085.334h-.085c-.027.166-.056.334-.081.5l.081.087c-.056.029-.112.052-.166.083v.332h-.085v.334h-.083v.085s.105.074.083.166h-.083v.334H124.2v1c-.056.186-.108.433-.17.67h-.078c.027.081.054.166.078.249v.083h-.078v.085h.078c-.025.164-.052.33-.078.5h-.087c-.054.2.094.224.087.336h-.087v.33h-.081c.027.083.054.17.081.253v.166h-.081v.583H123.7v.583h-.083c-.025.193-.052.386-.081.583h-.09c.031.112.061.22.09.332-.058.029-.117.056-.168.083.034.083.052.166.078.249h-.078v.253h-.085c-.031.11.063-.034.085.081v.085h-.085v.583H123.2l.083.168H123.2l-.078.832.078.083h-.078v.166h-.085c-.054.359-.112.72-.168,1.081h-.087v.668H122.7v.334a1.366,1.366,0,0,0-.161.083v.085h.081c-.029.22-.054.442-.081.661-.056-.027-.117-.054-.168-.081v.081c.052.031.112.058.168.085v.083h-.09v.581h-.078v.424h-.085v.332H122.2v.327h-.081v.251h-.087v.168h-.081c.029.085.056.166.081.251h-.081v.5h-.083c.031.054.058.11.083.164h-.083c-.058.307-.112.612-.161.917l.076.081H121.7v.17h-.087v.5h-.083v.247h-.083c.027.087.054.168.083.251h-.083v.5h-.083c-.029.444-.056.89-.083,1.334H121.2c.027.054.058.108.085.166-.058.027-.11.054-.164.083v.083h.078c.031.155-.07.132-.078.168v.417h-.087v.166h-.083c-.027.087.128.148.083.332h-.083c.029.081.054.166.083.247h-.083v.253c-.038.112-.072-.036-.083.085l.083.083h-.083c-.027.307-.061.608-.083.917H120.7v.081h.081v.085H120.7v.33h-.09v.17h-.083c-.069.208.085.527.083.583h-.083v.332h-.081c-.058.415-.11.832-.166,1.249h-.168c.141.379.027.509-.083.832v.419h-.085c.034.112.056.22.085.332h-.085c-.027.137-.052.278-.081.417.3.175.35.421.5.747h.085v.419h.081c.029.083.056.166.083.249.1-.094.034,0,.09-.166h.081c.022-.166.056-.336.083-.5h.083v-.415h.083v-.085h-.083v-.078h.083v-.419h.087c-.031-.085-.061-.166-.087-.251,0,0,.1-.04.087-.247h-.087v-.085h.087v-.249h.078c.058-.191-.105-.233-.078-.334h.078v-.166h.085v-.583c-.074-.1-.108.031-.085-.083h.085c.027-.168.054-.334.083-.5h.083c-.027-.085-.056-.166-.083-.251,0-.121.056.029.083-.083v-.417h.083v-.834h.083v-.33h.087c.018-.119-.018.011-.087-.085v-.081h.087v-.5h.076v-.332h.085a.133.133,0,0,0-.085-.164c-.02-.155.085-.166.085-.166a.228.228,0,0,0-.085-.253l.085-.744h.083v-.173h.081c-.007-.114-.061.036-.081-.081.029-.224.056-.444.081-.67h.087v-.578h.081v-.5h.085v-.081H122.2v-.253h.085c-.027-.054-.058-.108-.085-.166h.085c.029-.361.058-.717.085-1.081h.078v-.583h.09v-.253h.081v-.247h.081v-1.166h.081c.047-.161-.034-.108-.081-.168a1.048,1.048,0,0,0,.081-.168H122.7v-.081h.081V133.6h.087v-.419h.087v-.417h.081c-.027-.054-.054-.11-.081-.166h.081v-.666h.085v-1h.078c-.027-.054-.052-.11-.078-.166h.078v-.332h.083v-.247h.085V129.1h.078v-.5h.09v-.415h.081V127.6h.083v-.253h.085c.027-.332.054-.664.081-1h.087c.007-.117-.063.031-.087-.083v-.583h.087c.027-.222.054-.446.078-.668h.085v-.247h.085v-.417h.081v-.5h.083v-.5h.085v-.5h.085v-.417h.081v-.5h.085v-.832h.083c.007-.11-.139-.139-.083-.332h.083v-.336c.166-.516.258-1.215.413-1.747v-.666h.085v-.251h.085v-.249h.083c.027-.224.054-.444.081-.668h.081v-.419h.085v-.493h.087v-.668h.078v-.334h.087c.029-.278.054-.556.085-.832h-.085v-.085h.085c.02-.222.054-.444.081-.668h.083v-.166h.083v-.585h.085v-.247h.081a.208.208,0,0,0-.081-.247c-.029-.173.081-.166.081-.166v-1.17h.087v-.249h.078c.029-.222.056-.444.085-.666h.085c.074-.256-.1-.74-.085-.832h.085v-.251h.083c-.029-.112-.056-.222-.083-.334h.083v-.164h.081c.029-.2.056-.388.083-.585h.083c-.027-.166-.052-.332-.083-.5h.083v-.332h.087c-.034-.056-.058-.112-.087-.166.054-.031.114-.058.166-.085.072-.182-.052-.206-.078-.251v-.083h.078v-.915h.085v-.332h.081v-.253h.087v-.249h.081v-.415h.085v-.083h-.085v-.415c.029-.061.058-.112.085-.168h-.085a2.382,2.382,0,0,1,.17-.832v-.583h.081V101.7h.085v-.081h-.085a.692.692,0,0,1-.166-.5Zm-30.565.168c-.027.083-.061.168-.085.249h.085v.251H96.88c-.052.251-.112.5-.166.747.807-.027,1.608-.049,2.415-.081v.081l2.164.087v.083c.892.193,1.778.386,2.663.583v.334c.061-.029.114-.061.168-.087v.415c-.291.249-.056.3-.081.585h-.087v.083a.147.147,0,0,1,.087.166h-.087v.585h.087v.168h.081c0,.117-.018-.018-.081.083q.04.121.081.249h.085v.415h.087v.168h.076c-.025.054-.054.108-.076.166h.076v.417h.087v.083c-.067.094-.11-.031-.087.083h.087v1c.083.287.188.7.249,1a6.712,6.712,0,0,1,1.585.334h.83v.083h.5v.083h.578v.085h.583v.083h.251v.081c.417.031.836.058,1.253.085v.085h.413v.081h.67v.085h.578v.083h.753v.083h.33v.083h.332v.085h.749v.085h.919a5.991,5.991,0,0,1,1.664.166c.256.065.466,0,.67.081v-.081c.26-.191.137-.354.251-.67h.081v-.5h.083v-.415h.087v-.747h.083v-.422h.081v-1.166a12.436,12.436,0,0,0,.417-3.163l-.581-.083v-.081h-.59v-.087H116.12v-.081c-.083.029-.17.056-.253.081v-.081c-.307-.027-.61-.056-.912-.083v-.083a1.364,1.364,0,0,0-.585.083v-.083h-1c-.112-.036.038-.081-.081-.085v.085H113.2V103.2h-.249v-.083c-.083.025-.168.056-.249.083v-.083h-.917v-.081h-.334v-.087c-.161-.04-.114.056-.168.087H111.2v-.087h-1v-.081h-.5v-.085h-.5V102.7c-.7-.054-1.388-.112-2.083-.17v-.081a1.464,1.464,0,0,1-.168.081v-.081h-.076a.222.222,0,0,1-.253.081v-.081h-.419v-.085h-.413v-.081c-.121-.018.029.065-.085.081l-.915-.081V102.2l-.334-.083v-.081h-.336v-.085H103.8v-.085h-.751v-.081h-.168V101.7h-.417v-.081h-.415v-.085c-.2.029-.39.054-.581.085v-.085h-.67v-.081c-.056.025-.114.054-.166.081v-.081h-.919v-.085h-.493a7.069,7.069,0,0,0-2.251-.083M78.477,109.28a4.789,4.789,0,0,0,.33,1.334h.085v.664h.085v1.251h.078v.417h.083v.664h.087v.836h.081v.581h.078v.751h.087v.661h.083c-.027.085-.056.173-.083.253.056.027.114.058.166.081.058.152-.047.126-.083.168v.083h.083v.417h.085v.166H79.8v.917h.083v.332h.087v.253h.081v.334h.083c.029.5.054,1,.085,1.5h.085c.007.108-.141.137-.085.334h.085v.332h.081v.413h.083c.043.164-.036.112-.083.17.013.117.058-.034.083.081v.836h.083v.415h.085v.417h.081l.081,1.583h.085v.33h.085v.419h.081c.031.529.058,1.054.087,1.581h.076v.336H81.3c.011.1-.143.213-.087.415H81.3v.251h.083v.583h.085c.025.139.054.276.085.415h.078c-.025.085-.056.168-.078.251h.078v.085c-.025.04-.139.013-.078.166l.166.081c.07.182-.094.466-.087.5h.087v.166h.083c.045.164-.049.117-.083.173.007.112.065-.036.083.081-.031.058-.056.112-.083.164h.083v.17h.083v.415h-.083c-.027.143.074.143.083.166v.751h.081v.332h.083v.339h.087v.413h.085v.415h.081q-.044.087-.081.168s.094.052.081.249c-.067.1-.108-.031-.081.085h.081v.166h.083c-.027.083-.058.164-.083.251.056.027.108.054.166.083v.164h-.166v.168c.083.029.166.052.249.081v.251h-.083c-.02.119.056-.031.083.085.029.39.052.776.083,1.168h.083v.493h.085v.419h-.085v.085h.085c-.031.081-.058.166-.085.251l.166.081c.074.186-.09.229-.081.334h.081v.251h.083v.751a3.827,3.827,0,0,1,.168.664c-.027.11-.054.22-.085.332h.085c.025.166.052.33.085.5H83.3c.036.135-.081.155-.081.168-.027.137.078.146.081.164v.085h-.081v.085H83.3c-.027.078-.054.164-.081.247H83.3c.027.112.056.22.087.336h.078v.912h.083v.917c0,.02-.114.027-.083.166h.083v.166h.081v.5h.087v.083h.332v-.166c.164-.029.334-.061.5-.083-.027-.054-.056-.112-.087-.17l.334-.081v-.085h.251l.249-.332h.253v-.083h.164v-.083c.11-.027.224-.054.336-.083v-.085c.168-.027.332-.052.5-.081v-.085h.166v-.081h.339l.081-.168c.11-.025.222-.054.334-.083.027-.058.054-.112.083-.166H87.8v-.085h.166v-.081h.164v-.087c.168-.052.339-.108.5-.164v-.083c.2-.031.395-.056.585-.085v-.081h.168a.955.955,0,0,1,.083-.166h.251l.076-.166h.251c.029-.058.058-.117.083-.17.112-.027.226-.054.334-.083v-.085c.168-.054.332-.105.5-.164v-.085H91.3v-.083h.168v-.081c.217-.029.444-.058.666-.083v-.085h.5v-.081h.336v-.09c.081.034.166.061.249.09v-.173a1.766,1.766,0,0,0,.666-.166v-.081h.5c.029-.054.058-.112.083-.166a4.013,4.013,0,0,1,.67-.166v-.083a1.475,1.475,0,0,1,.578.083c.029-.054.058-.112.087-.166.184-.074.24.112.334.083a1.243,1.243,0,0,1,.083-.164h.664v-.087h.085v.087h.749a1.159,1.159,0,0,1,.578-.087v.087c.148.022.148-.085.17-.087h1.412v.087h.919v.081h1.166v.083h.747v.083c.17-.027.339-.054.5-.083v.083h.664v.083h.668v.083h.251v.078c.11-.007.137-.137.33-.078v.078h.253v.087h.164v.081h.334v.085h.166v.081h.417v.083h.168v.09c.139.025.276.052.417.081v.085c.139-.011.148-.164.166-.166.074-.022.56.155.832.166.135-.26.159-.15.164-.585h.087c-.027-.278-.058-.556-.087-.832h-.083v-.751h-.081a.136.136,0,0,1,.081-.164.179.179,0,0,0-.081-.168V139.1h.081c.022-.168-.081-.168-.081-.168a.63.63,0,0,1,.081-.417h-.168a2.361,2.361,0,0,0-.166-.83v-1h-.076c.025-.054.052-.108.076-.161-.052-.031-.105-.058-.161-.085v-.417c-.13-.395-.215-.933-.334-1.332v-.749h-.083v-.5h-.085v-.417h-.081c-.052-.166.087-.406.081-.417l-.168-.085c-.074-.186.094-.444.087-.5h-.087v-.83h-.076c-.029-.168-.063-.334-.087-.5h.087c.016-.141-.083-.141-.087-.164v-.749h-.081v-.5a1.494,1.494,0,0,1-.173-.081c-.1-.244.117-.525.087-.664h-.087v-.168h-.081c-.02-.119.027.02.081-.085l-.244-1.834h-.087c.031-.081.061-.164.087-.247l-.168-.083a.874.874,0,0,1,.081-.583h-.081v.083c-.076.157-.085-.166-.085-.166h.085v-.087h-.085c.031-.081.054-.164.085-.249h-.17c.121-.33-.007-.368-.081-.666.027-.108.054-.22.081-.332h-.081v-.5h-.081v-.415h-.085v-.415h.085c.161-.047-.166-.085-.166-.085-.029-.251-.056-.5-.087-.751l-.164-.081c-.031-.251-.061-.5-.085-.751h-.083v-.166h-.085c.029-.058.058-.114.085-.166,0,0-.092-.011-.085-.166h.085v-.085h-.085c-.027-.085-.054-.168-.081-.251.054-.027.11-.056.166-.083l-.085-.249h-.081c-.025-.28-.058-.554-.085-.832h.085v-.085a.14.14,0,0,1-.085-.168h.085c-.025-.108-.058-.22-.085-.332,0,0,.159-.152.166-.166h-.247l-.168-.917c-.058-.027-.108-.054-.166-.081-.076-.182.092-.231.085-.336h-.085c-.029-.251-.056-.5-.083-.749h-.087c.031-.361.063-.722.087-1.085h-.087v-.332H104.3v-.249h-.087c-.027-.276-.052-.556-.085-.827a.144.144,0,0,0,.085-.173h-.085v-.166h-.081v-.334h-.087v-.334l-.081-.081h.168v-.087h-.087v-.159h-.081v-.419H103.8c.025-.224.052-.446.078-.666H103.8v-.17c-.058-.027-.117-.054-.168-.081-.052-.11.061.011.081-.081-.029-.058-.054-.114-.081-.166.027-.307.052-.61.081-.921h-.166l.085-.081c-.029-.056-.058-.114-.085-.168.049-.049.123.029.085-.083-.058-.027-.114-.056-.17-.083v-.249h-.083v-.415s.17-.007.083-.085H103.3c.022-.081.047-.166.076-.247H103.3v-.422h-.087c-.011-.114.072.036.087-.083.011-.182-.087-.166-.087-.166v-.5h-.085v-.419h-.081v-.417h-.087v-.413h-.081v-.251h-.085c-.063-.208.09-.437.085-.5h-.085c.027-.085.058-.166.085-.251h-.085c-.025-.386-.052-.776-.085-1.168-.193-.052-.383-.108-.581-.164V103.7c-.278-.029-.556-.054-.834-.081v-.087H99.631v-.081h-.917v.081h-2v.087H95.295v.081c-.135.036-.146-.081-.161-.081h-.085c-.258.094-.558,0-.834.081v.083h-.5v.085h-.749v.078h-.336v.087h-.5v.083h-.5v.081H91.3v.085H91.05v.081h-.332v.087h-.17v.081c-.087.027-.146-.132-.332-.081v.081h-.583v.083H89.3v.083c-.253.031-.5.058-.751.083v.085h-.421v.081h-.164v.087h-.332v.081H87.47v.085c-.168.027-.334.056-.5.081v.085H86.8v.085c-.166.027-.334.054-.5.083v.083h-.33c-.027.056-.054.11-.085.164-.247.056-.5.114-.747.166v.085h-.166v.085l-.417.081v.083l-.834.168v.081c-.114.027-.22.058-.33.085v.085c-.168.025-.339.054-.5.081v.085h-.332v.081c-.112.027-.224.056-.33.085v.083H81.97v.083c-.164.056-.334.11-.5.168v.085H81.3v.081c-.11.029-.22.054-.332.083v.083c-.085.029-.17.054-.251.083l-.081.166c-.11.025-.222.056-.332.083-.056.083-.117.166-.17.253-.164.052-.334.105-.5.164-.11.141-.215.28-.332.419h-.168c-.022.054-.056.108-.083.166h-.164v.085h-.166v.078c-.085.031-.166.056-.249.085M51.99,111.7v.583h.081a1.427,1.427,0,0,0,0,.747h.083l-.083.083c.061.361.112.724.164,1.083h.087c.025.28.052.556.085.834h.081v.251h.085c.027.415.052.83.078,1.247h.087v.249h.083v1H52.9v.334h.085v.5h.083v.5h.083v.664h.085v.583h.081v.585h.085c-.027.081-.056.166-.085.247.058.029.112.056.164.087.031.276.061.552.087.83h-.087v.085h.087v.249h.083v.083h-.083v.085h.083v.666h.083v.249h.087v.668h.081v.664h.083v.085h-.083v.249h.083v.083h-.083c.022.056.056.114.083.168-.065.092-.11-.036-.083.083h.083l.081.749h.085v.251h.087c.027.3.052.61.076.917H54.4v.332h.083v.247h.085v.336h.085v.5h.081v.583h.085v.247H54.9c.029.419.056.836.083,1.249h.087v.583h.078v.585h.087v.832c.137.473.271.948.417,1.415.027.612.049,1.224.076,1.834h.09c.027.278.054.556.078.834h.085v.251h.083v.747h.083v.836h.085v.417h.083v.327H56.4v.587h.083v.827h.083v.507h.087c.025.3.052.608.083.915h-.083v.085h.083v.247h.081q.044.669.085,1.334h.083v.415h.085c.011.114-.027-.016-.085.085.007.173.085.166.085.166v.5h.078v.747h.087v.168h.081c.027.3.058.612.085.917.554-.018.787-.332,1.164-.5l.5-.081v-.083c.081.029.168.054.251.083v-.083h.168v-.085h.41v-.081h.253l.081-.168c.28-.054.558-.11.836-.166.027-.056.052-.112.083-.168h.415v-.083h.253v-.085h.164v-.081c.274-.058.552-.112.832-.166v-.083h.5v-.083h.664v-.085h.247v-.085h.5v-.081h.33v-.085l.753-.081v-.085h.413v-.081h.251v-.085h1.166c.123-.016.126-.1.334-.083v.083h.081v-.083H69.4v.083h.5v.085l.249-.085v.085c.206.056.325.016.5.081v-.166c.193.029.388.054.583.085v-.085c.419.029.83.054,1.251.085v.081c.244-.029.5-.054.749-.081v.081c.832.031,1.664.058,2.5.085v.081h.166v.085c.076-.027.166-.056.247-.085v.085h.415v.081h.59v.085h.327v.085c.2.054.215-.085.332-.085v.085h.417v.083h.339v.083c.388.054.771.108,1.164.166l.081-.083v.083h.17v.081h.334v.085h.413v.083h.419a5.219,5.219,0,0,0,1.332.334c-.029-1.051-.058-2.114-.083-3.166-.058-.027-.112-.054-.164-.081v-.417h-.085a1.868,1.868,0,0,1,.085-.253s-.123-.043-.085-.249c.016-.112.1.034.085-.083h-.085v-.5h-.087c.031-.054.058-.108.087-.166h-.087c-.025-.247-.054-.5-.083-.747H81.89v-.085h.081c.034-.213-.081-.244-.081-.244-.049-.2.1-.231.081-.339H81.89a1.227,1.227,0,0,1,.081-.5H81.89v-.583h-.083v-.17h-.083c-.025-.276-.056-.554-.087-.83h-.078v-1.587h-.085v-.415h-.085v-.247H81.3V135.1h-.087v-.751h-.076v-.327h-.087v-.756h-.081V132.6h-.085v-.747H80.8c.034-.058.061-.117.085-.168H80.8v-.334h-.081v-.585c-.126-.422-.206-1.011-.332-1.412v-.5h-.081V128.6h-.085v-.666h-.085v-.166h-.083c-.031-.419-.054-.832-.081-1.249h-.087V126.1H79.8v-.083h.083v-.085H79.8v-.415h-.081v-.334h-.085v-.668h-.083c-.072-.258.123-.433.083-.581h-.083v-.168h-.083v-.915h.083v-.081h-.083v-.336h-.087v-.249h-.078v-.251h-.081v-.332h-.087c-.173-.545.128-.881,0-1.334h-.083v-.5h-.078v-.415h-.085c-.029-.141-.056-.278-.085-.417h-.081c.025-.085.049-.166.081-.249h-.081v-.834h-.085v-.583H78.56v-.417h-.083v-.419h-.085c.025-.164.058-.332.085-.493h-.085c-.027-.339-.054-.668-.083-1h-.087v-.583h-.078v-.249h-.085v-1.253h-.085v-.164h-.081v-.415H77.8q-.04-1-.081-2h-.083c-.054-.166-.112-.336-.168-.5-.3-.2-.608-.39-.917-.585l-.5-.078c-.029-.058-.061-.114-.09-.17h-.242v-.081h-.251v-.085h-.417V108.7h-.168v-.085h-.585v-.081h-.5v-.087h-.33v-.083c-.608-.184-1.229.175-1.832,0v-.081h-.419v-.087h-.336v-.083h-.5v-.083h-.327v.083c-.285-.025-.561-.056-.836-.083v-.083h-.087v.083c-.081-.027-.166-.058-.251-.083v.083H68.48v-.083a.221.221,0,0,0-.247.083c-.117-.027-.224-.058-.339-.083v.083H66.815v.083h-1s.009.1-.168.083v-.083c-.175-.025-.168.083-.168.083l-1.747.087v.081h-.919c-.717.211-1.563.291-2.253.5h-.744v.081c-.33.056-.668.112-1,.17v.078h-.166v.085h-.415v.081h-.251v.085h-.251v.083l-.917.083v.083h-.251v.085l-.33.083v.081c-.168.031-.336.058-.5.085v.085h-.164v.081c-.193.027-.388.061-.583.085v.083h-.249v.083c-.166.054-.334.112-.5.168v.085c-.114.025-.226.054-.336.078-.031.056-.056.114-.081.168h-.17v.085h-.17v.081h-.244v.081h-.251v.085c-.166.056-.336.112-.5.166q-.044.087-.081.168l-.417.085m46.645-.751H98.8c-.069.085-.105.081-.164.166h.242v.332h-.164a1.845,1.845,0,0,0-.078.168c-.282-.054-.56-.11-.836-.168v.085c-.294.065-.5-.1-.67-.085v.085c-.15.02-.164-.085-.164-.085-.2-.036-.215.067-.339.085-.285.04-.419-.1-.578-.085v.085c-.316.047-.238-.206-.5-.166v.081h-.253v.085h-.327v.083h-.334v.085H93.8c-.029.054-.054.108-.083.164H93.3v.087h-.085l-.083-.087v.087h-.166v.081h-.5v.085l-.334-.085v.085H91.88v.081c-.356-.027-.715-.056-1.083-.081v.247a4.221,4.221,0,0,0-.749.087c-.049-.034,0-.13-.164-.087v.087h-.251v.081h-.583v.078H88.3v.087h-.083l-.085-.087v.087h-.247a1.105,1.105,0,0,1-.83.081v.251H86.97v-.081c-.2-.132-.274-.007-.419.081v.083h-.327v.168c-.168.027-.339.058-.5.081-.029.058-.054.112-.081.17-.251.054-.5.11-.753.166-.029.056-.049.11-.083.166l-.661.083v-.083h-.253v-.078c-.056-.031-.112-.061-.166-.087v-.166h-.087c-.072-.117-.058-.146-.081-.336.3-.108.61-.222.915-.334v-.083h.253a1.669,1.669,0,0,0,.081-.168h.336v-.078H85.3v-.081h.253v-.087h.251v-.081h.249v-.085h.332v-.081h.164v-.085h.334v-.081h.334v-.087h.417v-.085H88.3a2.456,2.456,0,0,1,1.334-.078v-.085h-.085v-.083h.336v-.085c.581-.054,1.166-.11,1.749-.166v-.085h.415v-.081h.668v-.081h.251v-.085h.581v-.081H93.8v-.087c.056.029.11.056.168.087a5.619,5.619,0,0,1,2.415-.251v.085h.081v-.085h.583v-.085c.083.029.168.052.249.085v-.085h.5v.085h.078v-.085a1.66,1.66,0,0,1,.67.249c.1.094.029,0,.087.168m-46.4,16.322h-.164c.094.094,0,.034.164.083.067.087.1.087.173.168h-.085v.332h-.087v.085c.087-.027.173-.058.253-.085v.751c-.108.184.128.276.085.583h-.085c-.025.141.078.139.085.168v.583h.078v.166h.087v.581h.083v.415H52.9v.253h.085c.027.085.056.164.083.251h-.083v.166H52.9a4.374,4.374,0,0,0,.168.832c.063.2-.063.3-.083.417.056.029.112.054.166.081l.251.751H53.32c-.022.166-.056.332-.081.5h.166c-.043.2-.069.065,0,.336h.078c-.022.083-.052.168-.078.249.027.166.056.334.078.5h.087l-.087.166c.052.074.148.034.17.161-.056.031-.11.058-.17.087-.047.175.105.029.17.081.009.047-.123.226-.083.419h.083c-.025.083-.056.168-.083.249h.083v.251h.083a.218.218,0,0,1-.083.251c-.02.112.061-.034.083.081-.027.085-.054.168-.083.253.056.025.11.054.17.081v.168h.081v.415h-.081c-.022.114.061-.034.081.081v.087h-.081c.025.081.049.166.081.247h-.168a.685.685,0,0,0,.168.17v.332h.083v.417h.081v.081l-.081.081h.081c.025.1-.148.15-.081.336.054.027.114.056.166.083-.027.278-.052.554-.085.834.011.143.085.161.085.161a.132.132,0,0,1-.085.168c-.018.121.058-.031.085.085v.583h.164c.029.168.085.168.085.168-.025.085-.056.164-.085.249l.168.083v.17h-.168a.737.737,0,0,0,.085.332h.083c-.025.081-.052.166-.083.249h.083c.054-.168-.011-.076.085-.168v.332a1.324,1.324,0,0,0-.168.168h.168l.085.166h-.17c.09.341.15.13.251.253v.083h-.081a1.426,1.426,0,0,1,.081.166s-.121.061-.081.166l.166.083c.029.278.054.556.081.834-.052-.031-.11-.054-.166-.085v.085c.166.143.072.186.166.332.083.056.17.11.249.166a.213.213,0,0,1-.078.251c-.029.146.072.135.078.166v.417h.087v.166h.076v.332h-.076c.027.085.056.166.076.251h.09c.043.126-.092.327-.09.334h.17c-.056.3-.11.61-.17.915h.09c.1-.094,0-.029.164-.085-.027.17-.058.336-.083.5h.083v.083h.253l.078-.249h.168v-.083h-.083c.054-.114.117-.222.166-.334h.085v-.166h.083a2.023,2.023,0,0,0-.251-1.249c.034-.13.213-.038.168-.166-.085-.056-.168-.112-.251-.17v-.5H55.9v-.085h.085v-.081H55.9v-.583h-.078c-.016-.108.146-.143.078-.336h-.078v-.166h-.09v-.247h-.076c.027-.278.049-.558.076-.834h-.076c-.034-.141-.061-.276-.087-.415.022-.058.191-.038.164-.17h-.076v-.164h-.087v-.751s-.085.018-.083-.164c.063-.1.11.029.083-.085h-.083v-.249h-.081v-.168h-.09c.031-.2.061-.388.09-.587-.058-.025-.11-.052-.166-.078-.058-.473-.112-.944-.166-1.417H54.9a8.619,8.619,0,0,0-.247-2.749v-.415c-.058-.029-.11-.056-.17-.083-.04-.123.15-.336.085-.585h-.085v-.5H54.4V135.1h.083v-.415H54.4v-.5h-.085a1.257,1.257,0,0,1,0-.664c-.049-.027-.11-.054-.164-.083v-.17h-.085V132.6h-.081v-.915h-.083v-.415h-.081c-.065-.209.087-.316.081-.419h-.081c-.029-.247-.061-.5-.087-.749h-.083c.029-.193.056-.39.083-.583h-.083v-.253h-.083v-.332h-.087v-.168h-.078v-.413H53.32v-.085s.117-.065.085-.166H53.32v-.166h-.081v-.585h-.085v-.413h-.083c.029-.087.056-.166.083-.251h-.083c-.027-.114-.056-.224-.083-.334H52.9c.027-.083.061-.166.085-.249H52.9v-.253h-.081v-.581h-.083v-.083h.083v-.5h-.083v-.668h-.087v-.334h-.078c-.02-.1.132-.143.078-.33h-.078v-.836h-.085l.085-.166h-.085c-.029-.251-.056-.5-.081-.749h-.085v-.419h-.087v-.166h-.081c-.067-.2.067-.312.081-.413-.052-.029-.1-.058-.164-.085v-.085h.083c-.022-.054-.058-.108-.083-.166l.083-.083h-.083v-.166H51.99c.027-.083.054-.17.081-.251H51.99c-.027-.166-.058-.33-.085-.5l.085-.085h-.085c-.029-.11-.054-.222-.081-.334h-.087v-.417h.087c.027-.143-.078-.135-.087-.166v-.578h-.083c-.009-.058.137-.224.083-.419h-.083v-.5h-.081v-.161h-.083c.025-.087.056-.173.083-.251l-.168-.085c.031-.085.058-.168.085-.249h-.085v-.249h-.081v-.417h-.087v-.334h-.078v-.249h-.085c.025-.278.054-.556.085-.834-.061-.027-.114-.056-.17-.083.031-.078.056-.166.085-.251h-.085c-.056-.17-.034-.28-.081-.417-.056.027-.114.058-.166.085a.917.917,0,0,1-.168.166v.251h-.085a1.919,1.919,0,0,0,.085.915v1.083h.083c-.027.085-.056.168-.083.253h.083v.493h.085v.334h.081c.058.2-.1.231-.081.334h.081c.029.226.058.446.085.668h.081a1.6,1.6,0,0,1-.081.749.232.232,0,0,0,.081.251c-.029.081-.056.166-.081.249h.081a1.129,1.129,0,0,1-.081.5h.081v.33c.056.031.11.058.17.087v.415h.078v.334h.087v.332h-.087v.085h.087v.912h.081c-.027.117-.054.224-.081.336h.081v.251h.085c-.027.083-.054.168-.085.249.058.025.11.056.168.085v.83h.081v.419h.083v.081h-.083v.085h.083v.417h.087c-.031.056-.061.108-.087.166h.087v.249h.081v.164h.085v.753h.081v.5h.083c-.022.056-.058.11-.083.168.061.027.112.054.164.078v.087h-.081a1.212,1.212,0,0,1,.081.33m20.83-12.822v.164a1.1,1.1,0,0,1,.164-.078c.025.049.052.108.078.161.224.139.166-.078.253.251h.083v.247a1.227,1.227,0,0,1-.5.087c-.3-.327-.383-.047-.583-.087v-.081h-.332v-.083H71.81v-.083h-.085v.083h-.581v-.083c-.128-.043-.222-.013-.251.083h-.081v-.168a2.757,2.757,0,0,1-.581.085v-.166l-1.5.081v.085H68.4c-.027.054-.058.112-.09.166h-.247v.081c-.056.02-.381-.2-.583-.164v.083c-.049-.027-.11-.054-.166-.083a5.85,5.85,0,0,1-.91.083v.081h-.085v-.081a1.538,1.538,0,0,0-.749.081h-.5v.087h-.33v.083h-.417v.081h-.334v.085a.47.47,0,0,1-.417-.085v.166H63.4c-.108-.038.034-.054-.078-.081v.081c-.087.029-.164.061-.249.085v.085h-.09v-.17c-.253.043-.5.229-.661.253v-.168l-.253.085v.083c-.083-.031-.166-.058-.247-.083v.083h-.168v.085c-.085-.031-.168-.058-.251-.085v.085h-.166v.081h-.417v.081l-.256-.081v.081h-.493v.083h-.087l-.083-.083v.083c-.166-.025-.33-.052-.5-.083v.083c-.112.031-.217.056-.332.085v-.168c-.087.031-.166.058-.251.083v.085h-.166v.085l-.251-.085v.085c-.359.078-.72.164-1.083.251v-.087c-.345-.029-.466-.152-.5-.5a2.28,2.28,0,0,0,.836-.249v-.085c.22-.025.446-.056.661-.085v-.081c.363-.027.729-.056,1.085-.085v-.081h.417v-.083h.5v-.087h.244v-.081h.59v-.083h.164v-.083c.336-.025.668-.054,1-.085v-.081h.417v-.085h.244v-.083H63.4v-.078h.585v-.085h.581v-.085h.5v-.083h1.166v-.085c.274-.074.527.11.668.085v-.085h.581v-.081h.5v-.085h.253v-.083h.83v-.083c.143-.025.143.076.168.083H69.9v.083c.193.027.386.056.581.085v.081c.168-.025.334-.054.5-.081v.081h.33v.085c.585.056,1.173.11,1.758.168m-2.419.5c.056.029.108.054.166.083v.083h-.334v-.083c.17-.049.072.009.168-.083m28.733,2.751a.707.707,0,0,1-.087.332h.166v-.083h.251c.027.222.058.442.085.664-.291.034-.251.105-.5.168v-.168h-.657v.085h-.087v-.085h-.256v.085h-.327v.083c-.1.018-.141-.132-.339-.083v.083h-.5l-.083-.083c-.027.056-.054.11-.081.164l-.415-.081c-.029.054-.061.11-.087.166-.09.031-.334-.139-.583-.085v.085c-.137.031-.148-.081-.168-.085-.114-.022.036.067-.083.085s.036-.052-.081-.085l-.166.085v-.085q-.131-.04-.249-.081v.166a.618.618,0,0,0-.5,0v.083c-.1-.011-.224-.161-.419-.083-.027.054-.056.11-.083.168-.361.025-.72.056-1.083.081a1.314,1.314,0,0,0,.085.168H92.8v.085c-.083-.029-.168-.056-.249-.085v.085h-.168v.081c-.164-.027-.334-.056-.5-.081v.164c-.164.027-.332.054-.5.085v-.085H91.3v.085c-.1.011-.143-.159-.332-.085-.027.054-.058.112-.085.166h-.249v.081h-.168v.087a2.517,2.517,0,0,0-.334-.087v-.081c-.067-.159-.083.168-.083.168-.081.029-.164.052-.251.083a.134.134,0,0,0-.164-.083s-.013.083-.164.083c-.061-.031-.112-.054-.166-.083v.083h-.417v.166H88.47c-.031.056-.058.11-.085.166h-.168v.083h-.085v-.083c-.108.029-.215.058-.33.083-.027.085-.054.17-.087.251-.72,0-.614.184-1.247.251v.166c-.2.056-.386.11-.583.168v.166h-.247v.166l-.251-.081v.247h-.168l-.081.166c-.253.1-.583-.052-.751-.081-.121-.206-.26-.235-.334-.5.11-.056.11-.132.164-.17h.17c.052-.081.112-.166.168-.247.11-.029.224-.058.33-.083.036-.056.058-.112.087-.168l.747-.251v-.083c.087-.025.166-.056.251-.083.027-.056.054-.108.085-.166l1.081-.253v-.081l.334-.081v-.085h.244c.034-.054.061-.11.087-.164l.668-.085c.6-.206,1.379-.316,2-.5h.749v-.081h.253v-.083H91.8v-.085h.419v-.083h.413v-.085h.585v-.081h.166v-.085c.081.031.166.058.251.085v-.085H93.8v-.081h.664v-.083h.419v-.083h.33v.083h.083v-.083h.5v-.083h.827v-.085H96.8v-.083c.137.025.274.054.413.083.123-.009.128-.117.332-.083v.083h.081v-.083h.585v-.081h.251v-.087c.307.029.612.054.917.087m-.334.164c.1.1,0,.031.17.085-.1-.094,0-.034-.17-.085m-24.738,5.331c-.081.025-.168.056-.247.083v-.083c-.278-.029-.556-.056-.832-.083-.224.027-.444.054-.668.083v-.083c-.139-.038-.5.092-.5-.085h-.083v.168a9.013,9.013,0,0,0-1.908,0h-.421v-.083l-.753-.085v.085h-.659v.083h-.085c-.137.02-.226.029-.253-.083h-.078v.166c-.256-.027-.5-.058-.753-.083a.178.178,0,0,1-.166.083c-.052-.027-.112-.058-.166-.083v.083h-.166v.085c-.058-.031-.112-.058-.164-.085h-.417v.085c-.061.007-.222-.135-.417-.085v.085a.22.22,0,0,1-.253-.085c-.143-.025-.141.078-.166.085H64.23v.081h-.164v.083c-.038.007-.233-.135-.419-.083v.083h-.415v.083h-.5v.083h-.753c-.031.056-.054.112-.083.166-.128.04-.334-.146-.585-.083v.083c-.2.058-.314-.087-.413-.083v.083h-.166v.085H60.4v.083h-.33v.083h-.251v.085h-.33v.081c-.141.027-.278.058-.419.085l-.087.164a1.35,1.35,0,0,1-1.076-.33v-.168c.336-.072.487-.3.747-.417H58.9c.027-.054.054-.11.078-.166h.256v-.081c.278-.031.554-.058.832-.085v-.083h.164v-.083h.585c.621-.188,1.372-.314,2-.5.895-.027,1.78-.058,2.666-.085h.836a7.784,7.784,0,0,1,2.164-.251c.22.029.444.058.664.085.244-.025.937-.085,1.5-.085H71.81v-.081c.139-.027.152.081.166.081.058-.027.117-.054.166-.081v.081h.5v-.081h.078v.081c.307.029.614.058.919.085.242.35.632.242.664.834m25.74,3v.166h.247c-.027.137-.052.276-.081.419-.087-.031-.166-.058-.251-.085v.085h-.087c.067.078.1.078.173.166h-.5c-.152-.206-.094-.105-.415-.087v.168H98.8c-.058-.018-.045-.2-.164-.168v.087c-.087.027-.173.054-.253.081v.083a.223.223,0,0,1-.253-.083.145.145,0,0,0-.164.083c-.235.022-.323-.289-.419-.251v.087h-.083v.081h.083v.083h-.251v.083c-.054-.025-.11-.054-.166-.083,0,0-.027.128-.249.083,0,0-.009-.092-.166-.083v.083c-.112,0-.2-.132-.417-.083v.083h-.332V127.1h-.417c-.027.058-.058.112-.085.166a.127.127,0,0,1-.168-.083c-.157-.02-.161.083-.161.083-.2.038-.224-.045-.339-.083.034.058.058.114.087.166H94.55a6.452,6.452,0,0,1-1.751.168c.025.058.058.112.083.166H92.55v.085c-.184.074-.211-.139-.332-.166-.058.081-.114.166-.17.247h-.415v.085h-.166v.081h-.253c-.112.036.038.078-.078.085,0,0-.07-.119-.168-.085-.027.056-.058.112-.085.17-.085-.031-.164-.058-.249-.085-.027.054-.054.112-.085.166-.108.034.038-.065-.083-.081l-.5.081v.17h-.083v-.085c-.072-.161-.087.168-.087.168h-.41c-.029.052-.056.112-.083.164h-.336v.081c-.3.094-.549-.087-.668,0h-.083v.087H88.3v.081h-.415a1.485,1.485,0,0,1-.332.251v.081h-.334v.087c-.11.025-.224.054-.334.083v.083h-.168c-.025.056-.052.112-.081.164a1.761,1.761,0,0,1-.917-.081c-.029-.083-.054-.166-.081-.249H85.47c.063-.233.025-.188.249-.253v-.166c.137-.027.278-.056.417-.081v-.087h.251c.027-.052.052-.11.081-.164h.168v-.081h.334v-.083h.166v-.085c.11-.031.222-.056.334-.085v-.081H87.8V128.1h.166v-.085l.5-.081v-.085h.164v-.081c.141-.029.28-.058.417-.085V127.6c.2-.027.388-.056.583-.085v-.081h.334v-.087H90.3v-.083c.224-.025.444-.054.666-.083V127.1h.247v-.083c.085.029.168.056.253.083v-.083c.235-.1.408-.072.666-.168v-.078h.417v-.085h.081v.085h.085v-.085h.332V126.6h.334v-.083c.585-.058,1.168-.112,1.751-.168v.168c.334-.188.323-.168.747-.087v-.164h1.166v-.083l.5.083v-.083H97.8V126.1c.2-.061.444.09.493.083V126.1h.343v-.083h.327v.083c.139-.029.278-.061.417-.083v.083c.191.043.238-.105.33-.083v.083c.114.027.222.056.339.083M75.061,130.6v.413c-.087-.025-.168-.054-.251-.085v.085c-.081.029-.166.056-.251.081-.029-.052-.054-.105-.081-.166h-.251v-.081c-.278-.067-.26.193-.417.166v-.085h-.5v.085h-.078v-.085c-.1-.094-.034,0-.085-.166H72.98v.166c-.083-.025-.17-.054-.256-.081v.081h-.666v-.081h-.083v.081h-.5c-.139,0-.59.067-.587-.081h-.081v.166h-.417c-.027-.054-.056-.11-.083-.166-.092-.02-.5.2-.834.081v-.081c-.081-.029-.166-.054-.247-.085l-.253.085v-.085h-.5v-.083H68.4c-.027.056-.058.114-.09.168H67.9v.081h-.164v.085c-.108.016-.137-.137-.332-.085v.085a1.69,1.69,0,0,1-.834,0v.168h-.417V131.1h-.085c-.027.058-.052.117-.078.173-.074,0-.217-.137-.417-.085v.085c-.087-.031-.168-.056-.253-.085v.085c-.141.022-.28.054-.417.081v-.081c-.509-.117-.464.3-1.083.081,0,.119.013-.013.085.085.094.13-.2.074-.253.078v-.078H63.4c0,.114.013-.013.087.078.094.135-.206.081-.253.087v.166a1.965,1.965,0,0,0-.834,0v.085c-.054-.029-.105-.058-.166-.085l-.083.166-.5.081v.085c-.123-.02-.056-.224-.168-.166v.081c-.094.1-.031,0-.083.168-.249.031-.5.056-.751.083v.083a1.457,1.457,0,0,1-.751-.083c-.1-.177-.186-.179-.249-.413l.249-.085c.034-.058.056-.112.083-.166.058.027.112.054.17.083.029-.056.056-.112.081-.17.307-.052.61-.105.919-.164v-.081H61.4v-.085h.251V131.1q.373-.037.747-.081v-.085h.339v-.081H62.9v-.085h.5v-.083h.168V130.6h.917v-.085h.251v-.085h.5v-.081h.419v-.085h.415v-.081h.668a2.522,2.522,0,0,1,1.666-.168h.666v.083h.249v.085a.207.207,0,0,0,.251-.085h.583v.085q1.288-.087,2.578-.168v.083c.085-.029.173-.058.256-.083v.083h1.159v.085h.59v.081h.164v.085a.7.7,0,0,0,.334.166c-.1.1,0,.031-.166.085m21.985,4.412c.029-.085.056-.166.083-.251h-.083c-.226.372-.726.339-1.166.166v.085h.085c.157.072-.166.081-.166.081v-.081c-.058.027-.112.058-.17.081v.085h-.081v-.166h-.415v.166c-.28.083-.558.164-.834.251-.027-.056-.056-.112-.085-.168h-.332v.251h-.419v.083h-.081v-.083h-.5v-.083H92.8c-.027.054-.056.108-.083.166-.112.027-.222.056-.334.081V135.6a.346.346,0,0,0,.168-.166h-.083v.083c-.15.074-.26-.061-.334-.083v.083a.336.336,0,0,1,.166.164h-.166a1.149,1.149,0,0,1-.666.168,1.444,1.444,0,0,0-.168-.168v.081c.094.1.031,0,.083.168-.2.031-.388.058-.585.085v.166c-.267-.1-.2-.049-.5,0-.031.085-.058.168-.085.251-.11-.027-.224-.058-.332-.083v.083h-.251v.085c-.164.025-.33.054-.5.081-.031.058-.058.114-.085.166-.083-.027-.164-.052-.251-.085v.17a3.1,3.1,0,0,1-.583.083,2.5,2.5,0,0,1-.085.249,3.6,3.6,0,0,1-1.161,0c-.027-.11-.054-.222-.085-.332.11-.085.224-.17.334-.251v-.081c.166-.031.334-.058.5-.085v-.083h.17c.031-.056.056-.11.083-.168.112-.027.226-.054.332-.085a1.436,1.436,0,0,0,.085-.166h.249v-.081c.114-.029.222-.056.334-.087v-.081c.137-.025.278-.054.419-.081l.083.081c.027-.054.052-.11.078-.164.141-.029.276-.056.419-.083v-.087h.581v-.081c.11-.029.229-.056.334-.083V135.1h.253v-.081H91.3v-.085h.334v-.081h.415v-.085a2.887,2.887,0,0,1,1.085,0v.166h.083v-.081H93.3c-.067-.085-.1-.083-.168-.168h.415s-.02-.081.168-.085c.054.031.112.056.166.085V134.6h.164v-.083h.587v-.081h.249v-.087h.33v-.081c.2-.058.323.094.417.081v-.081a2.088,2.088,0,0,1,.921,0V134.1h.664c.112-.02-.038-.087.081-.081v.081h.67c.083-.027.164-.056.247-.081v.081c.141-.027.28-.056.424-.081v.081h.581a7.235,7.235,0,0,1,1.661.081h.415c.027.058.061.114.085.166l.253-.081v.081c.5.157.661-.009.91.419l-.249-.083v.083c.267.175.146.092.087.332h.161v.085h-.081v.083h-.334v-.083c-.081.027-.166.054-.247.083-.031-.056-.058-.108-.085-.168-.274-.132-.379-.022-.67,0,.027-.054.063-.11.087-.166h-.834v.085c-.251-.058-.5-.112-.747-.166v.081l-.339-.081v.081l-.578-.081v.081c-.1,0-.258-.137-.5-.081-.11.022.038.09-.083.081a.142.142,0,0,0-.164-.081v.081l-.5-.081v.081c-.139.027-.278.056-.417.085m-.664-.166c.092.09,0,.034.168.081-.1-.092,0-.034-.168-.081m6.078.415c.094.1.036,0,.081.168h-.081Zm-24.238,2.581c-.025.081-.054.166-.078.251h-.085c.027.081.054.168.085.249h-.587v-.081c-.052.027-.108.052-.168.081v-.081h-.078v.081c-.3.067-.639-.054-.832.085H76.39c-.047-.011-.04-.186-.164-.166v.081c-.28.027-.554.056-.834.085.027-.058.056-.114.085-.166h-.585v.081h-.164v-.081h-.59v-.087h-.078v.087H73.81v.081h-.085v-.081h-.33v.081c-.141-.029-.278-.054-.415-.081v.081h-.334v.085c-.28-.029-.554-.058-.836-.085v.085c-.137-.029-.278-.058-.417-.085v.085h-.249v-.085l-.251.085c-.112-.013.034-.058-.081-.085h-.334v.085c-.2-.029-.388-.058-.581-.085v.166c-.274-.065-.184-.126-.5-.166v.166h-.5c-.117-.013.034-.085-.081-.081v.081h-.164v.085c-.049.011-.229-.137-.415-.085v.085h-.587v.085a1.6,1.6,0,0,1-.749-.085v.166c-.3.027-.614.058-.912.085-.087-.027-.168-.058-.253-.085v.085l-.583.081v.085c-.2.054-.22-.092-.336-.085v.085h-.249v.083h-.081v-.083c-.182-.029-.166.083-.166.083a.992.992,0,0,1-.583-.083c0,.117.011-.016.081.083.1.13-.2.076-.249.083-.2.168-.563-.045-.83.085-.058.083-.114.166-.168.247h-.336c-.092.043.013.184-.249.168v-.087h-.249c-.029.058-.056.112-.083.168h-.336v.085a.728.728,0,0,1-.413.083v-.083h-.253v-.085c-.173-.141-.215-.11-.251-.413.339-.112.67-.226,1-.334v-.085l.334-.081v-.085h.249v-.081c.222-.027.446-.058.666-.085v-.085H62.9v-.081h.332v-.085h.334v-.081H63.9v-.087l1.33-.081v-.085c.392-.025.782-.054,1.173-.085l.078.085c.027-.054.056-.108.085-.166.5-.025,1-.054,1.5-.083v-.081h.247v-.087c.063.031.117.056.173.087a1.049,1.049,0,0,0,.5-.087h1.09s-.013.105.164.087v-.087c.052.031.108.056.164.087v-.087h.417v.087h.081v-.087h.415v-.081a.229.229,0,0,1,.256.081h.085v-.081h.493v-.081h1v-.085h.417v.085h.832v.081h.085v-.081h.664c.056.025.114.054.173.081v-.081h.912v.081c.265.074.426-.117.578-.081v.081c.09.027.17.054.256.081v-.081h.664c.027.054.054.112.081.168h.168v.081c.085.029.17.058.249.083m19.743,3.415c-.267.215-.863-.029-1.251.081v.083h-.5v.09h-.168v.081h-.5v.085h-.253v.083h-.327v.081c-.173.029-.334.058-.5.083v.085H94.3v.085h-.253v.078h-.164v.085c-.222.029-.444.056-.666.083v.085c-.334.027-.666.054-1,.085v.081h-.17a1.43,1.43,0,0,1-.083.166c-.193.056-.386.112-.583.166v.085l-.247.083c-.031.056-.058.112-.085.164H90.8v.087l-.332.081v.085h-.249v.081h-.168v.085H89.8v.083H89.47a1.458,1.458,0,0,0-.083.168c-.083.027-.168.049-.251.081v.085H89.8a1.439,1.439,0,0,1,.087-.166h.332v-.083h.249v-.085h.253v-.083h.249v-.085h.247v-.081h.334v-.085h.168v-.081h.249v-.087h.168v-.083h.249v-.081h.168v-.083h.332v-.085h.334v-.081h.5v-.085h.251v-.081h.666c.892-.269,1.681-.247,2.5-.5h.417V142.1h1.332v-.085h.415v-.085h1.668v-.083h1.085c.711.22,1.61.372,2.327.585h1v.085c.5.166,1,.332,1.5.5a.542.542,0,0,1,.244-.251c-.094-.094,0-.034-.168-.081a4.738,4.738,0,0,0-1.912-.917h-.334v-.083h-.585v-.085c-.161-.043-.105.045-.168.085h-.081v-.085c-.24-.045-.2.047-.247.085h-.085v-.085h-.751v-.081h-.666v-.09h-1.249v-.083c-.722-.02-1.439-.054-2.164-.081v.081h-.078v-.081Zm-3.246,2.251c.094.09,0,.034.164.081-.1-.094,0-.031-.164-.081m-5.919.583v.081h-.083c-.094.132.206.078.251.085v-.085h.083v-.081Zm.336,1v.168l.334.083v.083h1.164a3.209,3.209,0,0,0,1,.164c.114-.025.22-.052.332-.081v.081h.417v.085h.249v.083h1.085v.085q1.039-.044,2.083-.085v.085h.249v.083c.334.022.666.056,1,.081v.085h.5v.083c.419.054.836.112,1.253.166v.085h1.327v.083c.222.027.446.056.668.081v.085h.166v.085h.332v.081h.417v.085h.5v.081h.493v.085h.921c.5.146,1.159.182,1.664.332h.5v.085c.2.052.191-.047.247-.085h.085v.085h.917s.031-.117.249-.085v.085c.114,0,.137-.132.334-.085v.085h.747v.083h.585v.085h.749v.078h.419v.085h.578v.083h.085v-.083c.191-.025.231.094.332.083v-.083h.253s0,.1.161.083v-.083l1,.083v.085h.251v.081h.753c.648.191,1.583.226,2.244.417.637.031,1.278.054,1.917.085v.083l.917.166v.083h.249v.083h.334v.085c.17.02.1-.04.164-.085h.087v-.332c-.231-.13-.251-.22-.251-.585a3.491,3.491,0,0,1-1.166-.249h-.081v.083h-.083v-.083c-.061.027-.114.056-.17.083v-.083c-.191-.058-.388-.112-.583-.164l-.083.078c-.029-.052-.056-.112-.081-.164-.141.025-.28.052-.419.085v-.085H116.2v-.083h-1v-.085h-.166v-.081c-.034-.011-.233.13-.413.081-.8-.217-1.735-.354-2.5-.583h-1.751v-.081c-.471-.027-.946-.056-1.415-.085v-.085H108.2v-.081h-.33a6.652,6.652,0,0,0-1.834-.168v-.166c-.1.094-.027,0-.085.166a4.512,4.512,0,0,1-.832-.166H104.3v-.083h-.668v-.085h-.583v-.081c-.5-.029-1-.056-1.5-.083v-.085h-1.329v-.083h-.834v-.085h-.417v-.081h-.67v-.083c-.049.025-.105.056-.164.083v-.083c-.191-.029-.39-.056-.583-.083v-.083c-.386-.029-.778-.061-1.164-.083v-.085h-.166v-.085h-.587v-.081c-.247-.027-.5-.056-.747-.085v-.081h-.249v-.085h-.587v-.081c-.078.027-.164.052-.247.081v-.081h-.666v.081c-.139.031-.15-.078-.166-.081a.225.225,0,0,0-.251.081l-.166-.081v.081h-.917c-.027-.054-.054-.112-.085-.166h-.081v.085H90.8c-.02.052-.052.112-.078.166h-.587c-.025.054-.054.11-.083.166-.056-.027-.108-.056-.164-.085-.031.058-.061.112-.087.166a1.435,1.435,0,0,1-.661.085m-1.917-.251c.1.094,0,.036.166.085-.1-.094,0-.034-.166-.085m-.668.251c.043.038.108.155.251.085v-.085Zm-.327.168c-.031.056-.061.11-.087.166.007,0,.24-.132.164-.166ZM59.4,147.84v.168h-.419c-.013,0-.025.114-.164.081v-.081c-.11-.031-.222-.056-.332-.085v.251c-.058-.027-.11-.054-.17-.085-.052.085-.108.166-.164.251h-.166v.081c-.112-.022-.224-.054-.332-.081v.081c-.1.1-.031,0-.087.17-.164.054-.33.11-.5.166v.083h.749v-.083l.5-.083v-.083h.17v-.085c.166-.054.332-.108.5-.166v-.085h.256v-.081h.332v-.085h.33v-.081h.253v-.085h.334v-.083h.164v-.085c.193-.027.388-.052.585-.078v-.085H61.4v-.083h.251v-.085h.168v-.081c.132-.027.274-.058.413-.085v-.085c.2-.025.39-.054.583-.081v-.085h.166v-.081h.251v-.085h.334v-.081H63.9v-.085h.5v-.085h.5v-.081h.332v-.083h.251v-.085c.39.027.78.056,1.166.085v-.085h.5v-.081h.585v-.085h.83v-.083h1v.083a.218.218,0,0,0,.251-.083c.143-.025.141.078.168.083.473.114.957-.04,1.161.085h.085v-.085H72.81a10.45,10.45,0,0,1,2.832.085h1.668v.081H78.56v.085h.247v.083h.578v.081h1v.085h.332v.085h.332v.081h.419v.085h.417v.081h.251a.9.9,0,0,0,.085.166h.33c.092.04.478.345.5.336v-.085c.229-.094.352-.15.417-.417h.164v-.081c-.164.031-.33.054-.5.081v.085c-.251-.029-.5-.054-.749-.085v-.081h-.164v-.085h-.5v-.081h-.251v-.085h-.256v-.085l-.827-.081v-.083c-.415-.029-.834-.058-1.251-.085v-.081h-.332v-.085h-.33v-.083h-.5v-.085h-.5v-.081h-.747v-.083h-.249v-.085H76.06v-.083h-.419v-.085a17.543,17.543,0,0,0-1.917,0v-.081H71.144c-.406-.112-1.121.043-1.581-.083v-.083H68.149v.083H67.063v.083h-.417v.081H66.48v.085h-.417v.083c-.247.027-.5.056-.749.085v.083c-.361.022-.72.056-1.085.081v.085c-.217.029-.446.056-.664.083v.085h-.247v.081H63.07v.085h-.256v.083H62.4v.081h-.332v.085h-.247v.085h-.253v.081h-.332v.085h-.251v.081h-.334l-.087.166c-.41.085-.83.17-1.242.251v.085h-.17l-.081.168-.251.078v.085h.332c.119-.016-.034-.087.087-.085v.085Zm24.57-1.415v.249h-.164v.085h.164c.5-.554,1.529-.581,1.915-1.251h-.078v.081h-.251c-.029.061-.058.114-.085.168h-.251v.085h-.166v.083h-.168c-.029.056-.049.112-.083.166h-.166v.083h-.168v.085H84.3v.081c-.112.076-.143.058-.332.085M63.319,147.84h.247v.083h-.247Zm-6.248,2.751h.166v.081c-.168-.049-.072.009-.166-.081" transform="translate(0 0)" fill="#0070c3" fill-rule="evenodd"/>
  </g>
</svg>
