<svg id="圖層_1" data-name="圖層 1" xmlns="http://www.w3.org/2000/svg" viewBox="0 0 20.05 21.71"><defs><style>.cls-1{fill:#0070c3;}</style></defs><path id="Path_2" data-name="Path 2" class="cls-1" d="M63.84,9.87V22.35h-1V12.15a1.68,1.68,0,0,0-.46-1.22,1.71,1.71,0,0,0-1.3-.49H54.24V25.77h3v-.54h6.21v.11s-.29,2.8-4.12,3.31h-.06v2.92h.11c4.3-.31,6.84-2.94,7.55-7.81a.8.8,0,0,0,0-.11h4.35v4.18H69.7v3.49h2.83a1.72,1.72,0,0,0,1.76-1.68v-18a2,2,0,0,0-.5-1.27,1.87,1.87,0,0,0-1.37-.49H63.84m-3.91,6.57H57.11V13.31h2.82Zm0,5.91H57.11v-3h2.82Zm11.35-7.1H66.87V12.83h4.41Zm0,3v2.41h-4.4V18.24Z" transform="translate(-54.24 -9.87)"/></svg>