<svg id="圖層_1" data-name="圖層 1" xmlns="http://www.w3.org/2000/svg" viewBox="0 0 10.46 10.35"><defs><style>.cls-1{fill:#0070c3;}</style></defs><path id="Path_16" data-name="Path 16" class="cls-1" d="M8.78,25.76V29a1,1,0,0,0,.21.74,1.17,1.17,0,0,0,.84.25h3.65c.75,0,1.29,0,1.5-2V27.9l-1.48-.44v.1c-.06.6-.14,1.09-.54,1.09H10.72q-.45,0-.45-.48v-.26h.08c.75-.05,4.07-.74,4.22-.77h0L14,25.82l-.06,0a11.75,11.75,0,0,1-3.56.77h-.1v-.44a.39.39,0,0,0-.45-.43h-1m-2.92,0v1.78H4.55V29H5.86V31.1l-1.34.36.15,1.43,1.19-.31v1.59c0,.23-.09.32-.34.32H4.64l.22,1.61H6.2c.4,0,1.07,0,1.07-1.18V32.13l1.08-.4V30.29l-1.08.38V29h1V27.56h-1v-1a.81.81,0,0,0-.2-.61.69.69,0,0,0-.52-.16Zm7.75,4.84H8.89v5.49h1.5v-.38h2.55v.38h1.55V31.44a.83.83,0,0,0-.21-.58,1,1,0,0,0-.67-.24m-.67,2H10.39v-.82h2.55Zm0,1.9H10.39v-.81h2.55Z" transform="translate(-4.52 -25.76)"/></svg>