<svg id="圖層_1" data-name="圖層 1" xmlns="http://www.w3.org/2000/svg" viewBox="0 0 21.56 21.69"><defs><style>.cls-1{fill:#0070c3;}</style></defs><path id="Path_6" data-name="Path 6" class="cls-1" d="M149,9.88h-2.61V11H142v2.2h8.5v.65h-7.34V16h7.34v.65h-9.31v2.2h18.21l-1.63,1.5.05.06c.63.58,1.68,1.65,2,2h-3.6V19.54h-3v2.92h-4.59v-.73h3.13V19.52h-9.35v2.21h3.23v.73h-4.46v2.2h4.46v1.2l-4.4.33h-.07v2.2L145.6,28v1.14h-3.23v2.26h4.47a1.71,1.71,0,0,0,1.75-1.67V27.84l3.3-.24V25.45l-3.3.23v-1h4.61a7.47,7.47,0,0,0,1,3.08,22.42,22.42,0,0,1-3.8,1h-.07l.41,2.37h.07a23.92,23.92,0,0,0,5.11-1.48,10.78,10.78,0,0,0,6.69,1.91h.07v-3h-.07a10.08,10.08,0,0,1-3.49-.55,14,14,0,0,0,2-1.47l.05-.05-1.62-1.77-.05.05A15.11,15.11,0,0,1,157,26.49a4.21,4.21,0,0,1-.75-1.83h6.47v-2.2h-2.61L161.66,21l0-.06a18.13,18.13,0,0,0-2-2.07h3.11v-2.2h-9.25V16h7.73V13.8h-7.73v-.65h9.07V11h-4.62V9.89h-2.82a1.71,1.71,0,0,0-.62.15,1,1,0,0,0-.55.92h-3.74a1.06,1.06,0,0,0-.3-.73,1.39,1.39,0,0,0-.91-.34" transform="translate(-141.13 -9.88)"/></svg>