<svg id="圖層_1" data-name="圖層 1" xmlns="http://www.w3.org/2000/svg" viewBox="0 0 10.4 10.34"><defs><style>.cls-1{fill:#0070c3;}</style></defs><path id="Path_18" data-name="Path 18" class="cls-1" d="M25.94,27.09l.44.18L28,28l.54-1.31-.06,0a20.74,20.74,0,0,0-2-.83l-.07,0-.56,1.3m-.13,2.75h1.07v.88a4.71,4.71,0,0,1-1.17.92l-.06,0,.56,1.43h-.4v1.15h2.28l-.95.46.09.08a14,14,0,0,1,1.3,1.26l0,0h.05l1.38-.7-1.06-1.13H33v.41c0,.06,0,.25-.36.25H31.31v1.21H33.5c1,0,1-.62,1-.81v-1H36V33.1h-1.5v-.48h1.34v-1H29.69c-.76,0-1.16-.12-1.36-.42,0,0,0-1.7,0-2.34a.35.35,0,0,0-.17-.34.36.36,0,0,0-.2-.06H25.8Zm1.79,2.11.06.06a2.47,2.47,0,0,0,1.85.63H33v.48H26.2l1.39-1.17" transform="translate(-25.64 -25.77)"/><path id="Path_19" data-name="Path 19" class="cls-1" d="M36,27.28v-1H34.76v-.51h-1a.78.78,0,0,0-.48.17.65.65,0,0,0-.15.34H31.72a.53.53,0,0,0-.15-.34.69.69,0,0,0-.47-.18h-1v.52H28.7v1h2.9l-.18.3a.59.59,0,0,1,0,.08H29.19v3.66h6.42V28.39a.74.74,0,0,0-.18-.55.94.94,0,0,0-.66-.2H33l.2-.36H36m-1.86,3.45H30.55v-.51h3.63Zm0-1H30.55v-.52h3.63v.52m0-1H30.55v-.53h3.63Z" transform="translate(-25.64 -25.77)"/></svg>