<svg xmlns="http://www.w3.org/2000/svg" xmlns:xlink="http://www.w3.org/1999/xlink" width="80.635" height="127.383" viewBox="0 0 80.635 127.383">
  <defs>
    <clipPath id="clip-path">
      <rect id="SVGID" width="80.635" height="127.383" fill="none"/>
    </clipPath>
    <clipPath id="clip-path-2">
      <path id="SVGID-2" data-name="SVGID" d="M213.385,103.46a36.047,36.047,0,1,1,36.049,36.047A36.045,36.045,0,0,1,213.385,103.46Z" transform="translate(-213.385 -67.413)" fill="none"/>
    </clipPath>
  </defs>
  <g id="Group_81" data-name="Group 81" transform="translate(-209.474 -61.179)">
    <g id="Group_80" data-name="Group 80" transform="translate(209.474 61.179)" clip-path="url(#clip-path)">
      <g id="Group_79" data-name="Group 79" transform="translate(6.008 9.577)">
        <g id="Group_71" data-name="Group 71" transform="translate(8.274 7.646)">
          <path id="Path_1323" data-name="Path 1323" d="M234.678,180.214l-3.56-.534,1.065-5.513-.71-5.694.357-3.377-.357-3.026-.888-4.814h16.592l-.255,5.056-1.575,11.3v6.6Z" transform="translate(-212.435 -26.877)" fill="#fff" fill-rule="evenodd"/>
          <path id="Path_1324" data-name="Path 1324" d="M261.47,78.97v.359a1.489,1.489,0,0,1,1.068,1.065c.882.258.84.733,1.243,1.423h.177v.358c.177.12.358.238.535.355v.89h.177v.358c.124.057.241.117.358.177.121.355.238.71.355,1.065h.18v.359c.12.058.235.115.356.178.118.59.241,1.183.353,1.779h.178v.353h.177v.89h.178v.71h.181v.536h.175v.71h.178v.713c.117.06.238.118.358.18.16.389-.189.968-.178,1.065h.178c.058.418.12.833.177,1.247h.174q.094,1.777.183,3.557h.178v1.068h.177v1.066h.18v.713h.175c-.057.177-.115.355-.175.532h.175v.713h.177c.192.648-.234,1.842-.177,2.135h.177v.535h.181c-.06,1.065-.121,2.135-.181,3.2h-.352v.356c-.356.058-.717.12-1.068.177-.058.12-.12.237-.178.358-.118-.061-.243-.121-.358-.181v.181q-1.6-.092-3.2-.181a4.274,4.274,0,0,0-.535,1.249h-.352v.535h-.358v.533c-.969.6-1.215,2.149-2.49,2.489a1.343,1.343,0,0,1-1.068,1.071v.353H258.8v.356c-.489.112-.406.234-.891.356-.218.78-.418.472-.893.886v.177h.184c.4.436.361.144.885.359v.175h.533v.181h.889v.177h.891v.178h.532v.175h.536c.058.12.117.238.177.356h.714v.18h.352v.18h.71v.177h.358v.178h.353c.061.118.12.235.181.355.238.057.478.12.711.18.061.115.121.235.177.353h.178c.063.12.12.235.18.358h.356c.178.237.353.473.532.708h.355c.12.18.241.356.356.535.627.436,1.2.392,1.424,1.247.578.527.083,1.452.355,1.954h-.175c-.235.418-.473.83-.717,1.246h-.35q-.445.535-.893,1.066h-.355c-.115.18-.235.358-.353.536.979.146.516.227.889.89h.175v.353c.178.118.358.24.536.359v1.243h.177v.178H267.7v.178h.177v.533h.174v.355h.183v1.244h.178v.358h.177v1.244h.18v1.426h.175v1.065h.177v.714h.181c-.06.3-.121.59-.181.886h.181v.536h.18v1.6a18.8,18.8,0,0,1-.18,4.269v1.6h-.181v1.068h-.177v.358h-.175v.53c-.081.24-.161-.071-.18.178l.18.178h-.18v.889h-.177q-.085,1.334-.178,2.669h-.183v.356h-.174c-.057.295-.118.595-.177.886h-.178v1.247h-.18v.355h-.178v.535h-.175c-.061.478-.123.948-.181,1.423-.178.12-.355.241-.533.359-.112.591-.235,1.184-.353,1.774h-.181v.535h-.175v.356h-.18v.713c-.117.057-.234.117-.355.177v.714h-.177c-.057.235-.12.47-.181.71h-.177c-.117.533-.238,1.065-.358,1.6h-.177v.355h-.177v.358l-.358.177c-.055.295-.114.593-.172.891h-.18v.355h-.177c.052.355.117.713.177,1.065.118.061.238.12.352.181.063.53.12,1.065.181,1.6h.177v.711h.177c.171.579-.227,1.125-.177,1.426h.177c.063.595.121,1.186.177,1.779h.181v1.066h.177v.713h.177c.061.771.124,1.539.181,2.312h.177V177.7h.177c.046.252-.129-.069-.177.183.061.59.121,1.184.177,1.779h.178v.532h.18v1.066h.175c-.055.355-.115.714-.175,1.071.12.058.235.118.356.174v1.6h.178v1.244h.175v.355h.178v.893h-.178v.178h.178v1.246h.177c-.055.117-.115.237-.177.355v.177h.177v.889h.178v.535h.181v3.378h.175c.06.475.115.948.178,1.426h.18a.3.3,0,0,1-.18.355c-.077.446.18.532.18.532-.063.356-.118.716-.18,1.071h.18c.058.593.12,1.184.178,1.776h-.178c.058.18.12.358.178.535h-.178c-.063.6-.118,1.186-.18,1.781-.189.1-.3.326-.353.355h-.536c-.058.12-.115.238-.178.356h-.535v.177h-2.486c-1.965.489-5.664.607-8.009,1.246-.429.114-.415-.1-.532-.181-.121.06-.24.118-.356.181-.057.177-.118.353-.177.53h.353c.149.919.069.475-.177,1.241v1.423h-.177v.355H254v.18h.178c-.061.828-.117,1.661-.178,2.489h-.18c.058.359.12.716.18,1.069a5.464,5.464,0,0,0-.358,1.421h-.355a4.512,4.512,0,0,1,.18,2.135h-.18v.356h-.18c.061.295.12.593.18.89-.118.057-.238.117-.356.177-.058.166.278.335.177.714h-.177c.063.177.118.353.177.528h-.177v.36h-.177c-.051.2.275.31.177.708h-.177c.06.3.118.6.177.894-.177.057-.359.117-.53.177-.068.092.3.386.171.711-.115.06-.23.118-.353.177v.178h.183v2.134h-.183c-.052.295.174.318.183.356-.06.535-.124,1.068-.183,1.6-.295.06-.591.12-.885.177v.356c.114-.06.233-.118.35-.177v-.18l.535.18c-.192.525-.18.366,0,.891,1.672.12,2.685,1.215,4.1,1.6v.356q.887.62,1.774,1.243v.533h.177a3.827,3.827,0,0,1,.356,1.959,8.025,8.025,0,0,1-1.779.89v.353c-.355.063-.711.121-1.063.18l-.181-.18v.18c-.238.06-.475.117-.71.177v.178c-.535.061-1.071.12-1.6.181v-.359c-.4.066-.688.3-1.246.178,0,0,.006-.227-.358-.178a.449.449,0,0,1-.53.178c-.061-.118-.121-.238-.18-.355q-.712.265-1.421.536c-.674.2-1.983-.238-2.314-.181v.181a3.646,3.646,0,0,1-1.957-.181c-.057-.118-.117-.238-.18-.355h-.353v-.18l-1.957.716v.172a.719.719,0,0,1,.353.36h-.353v.178h-.536c-.115-.178-.235-.358-.353-.538l-2.309.18c-.06.118-.123.238-.181.358-.358.058-.714.114-1.071.177-.2-.2,0-.069-.352-.177v.355a3.921,3.921,0,0,0-1.605-.178c-.031.009-.06.264-.352.178-.061-.115-.121-.241-.181-.355h-.53v.177c.2.206.066,0,.177.356a5.334,5.334,0,0,1-1.246-.178v-.713H233.9c.058.238.115.472.177.713h-.535v-.178c-.181-.118-.358-.235-.532-.355v.355a1.215,1.215,0,0,1-.716-.177V233.2h-.532v-.18c.2-.2.071,0,.177-.352-.553.22-.705.343-1.066-.181H230.7c-.061-.413-.12-.831-.181-1.246.5-.324.386-.737.713-1.246h.181a1.46,1.46,0,0,0,.353-.71h.352c.121-.18.24-.356.361-.535.177-.06.356-.117.535-.18.187-.2,0-.459.174-.711.177-.057.358-.114.536-.174.057-.121.12-.241.18-.358h1.6v-.177h-.353v-.177c-.183.057-.359.117-.535.177V226.8c.175-.061.352-.118.535-.177.117-.178.235-.358.353-.535h.353c.06-.12.12-.238.181-.358h.533v-.177h.356v-.177c.178-.06.359-.12.533-.18a4.151,4.151,0,0,0-.174-.713h.174a6.009,6.009,0,0,0,0-2.129,2.735,2.735,0,0,1,1.065-.181c.206.2,0,.071.358.181a1.807,1.807,0,0,1,.177.708h-.177c.058.237.121.475.177.711h-.177c-.061.238-.118.473-.18.71h.18v.183h1.065v-.183h.358V224.3h3.2s.035-.124.355-.177c.08-.192.077-.492.18-.711l.353-.178c0-.247-.28-.283-.177-.713h.177v-.711c-.117-.057-.235-.117-.353-.178v-.355h.177V221.1h.535a1.72,1.72,0,0,0-.358-.713h-.177a.455.455,0,0,1,.177-.535v-.175h-.177v-1.243c.043-.25.189.072.177-.178h-.177v-1.247h-.177v-1.065h-.18v-.181h.18v-.71c.118-.057.237-.118.353-.178.154-.39-.167-.493-.177-.711h.177c.04-.249-.134.072-.177-.18-.085-.535.275-.27,0-.711h.358V213.1h-.358c.075-.418.493-.811.358-1.244-.121-.063-.24-.118-.358-.181.118-.177.237-.355.358-.535h-.181c.06-.118.118-.238.181-.352-.077-.19-.51-.077-.358-.713,0,0,.181,0,.177-.355-.066-.066-.3.04-.177-.177.1-.175.548-.074.535-.359,0,0-.4-.057-.177-.18h.71v-.175h.177V209h.178c-.06.18-.117.356-.178.539h.356v-.359h.178v.536h-.178c.058.293.118.591.178.888v1.066h-.178v.181h.178v.886c-.323.169-.283.247-.711.358a1.823,1.823,0,0,0,.177.71c.118-.061.238-.118.356-.178v1.781h-.178c-.12.29.175.329.178.353v2.672h.178v.177c-.24.83-.473,1.661-.711,2.489.118.058.238.118.355.178.04.209-.253.307-.178.711h.178c-.117.416-.237.831-.355,1.246l.533.178v1.6l1.424-.18v.18h1.6v-.18c.174-.025.661.381,1.069.18.063-.18.118-.355.177-.538l.536.183a3.1,3.1,0,0,0,0-1.247h.353v.355h.18v-.178c.2-.2.072,0,.18-.355-.241-.058-.476-.121-.713-.178-.035-.376-.4-1.29-.358-1.424.177-.118.358-.235.532-.355-.008-.21-.307-.585-.174-1.068h.174a4.684,4.684,0,0,0,0-1.776c.933-.141.332-.2,1.074.177-.014-.323.115-.636-.184-.714v-.177c.235-.057.475-.115.717-.18v-.175c-.547-.366-.08-.33-.359-.713h-.174v.356c-.209.2-.077,0-.184.356h-.35v.532h-.18v-1.065h.18a4.044,4.044,0,0,1-.18-.711h.18v-.177l.708.177c-.25-.295-.645-.415-.888-.711h.53v-.356c-.117-.057-.237-.118-.35-.178.114-.948.233-1.9.35-2.851h.184c.031-.244-.112.068-.184-.171v-.716h.184c.218.341.174.3.7.358v-.358h.359v-.352c-.238-.063-.475-.12-.713-.18v.18a.681.681,0,0,1,.353.352h-.7a2.155,2.155,0,0,0-.184-.886h.888v-.178c-.261-.151-.624-.4-.7-.714.015-.06.241-.041.174-.356a.461.461,0,0,1-.174-.53h.174v-.533h.177v-.177h-.177v-1.249c.117-.063.235-.12.359-.177-.06-.12-.124-.24-.183-.359h.183c.055-.292.115-.59.171-.885a.474.474,0,0,1-.171-.53h.171c.061-.238.121-.476.183-.713.433.1.392.187.713.355-.253-.435-.558-.493-.713-1.063a20.74,20.74,0,0,0-6.4.353.977.977,0,0,1-.358.71c-.2-.2,0-.068-.356-.177v.353h.356a1.292,1.292,0,0,0,.178.711h-.178c-.2.206,0,.071-.356.175v.359h.356a4.719,4.719,0,0,1-.711,2.665h.533v-.177c.16-.333.178.356.178.356h-.178v.177c-.356.058-.713.12-1.066.178v-.178h-.177v-1.068h-.181c0-.25.141.069.181-.178v-.533h.177l-.177-.533h.53v-.178h-.353c-.138-.572-.269-.381-.358-1.066h.181v-.178h.53v-.352c-.433.1-.39.184-.711.352v-1.065h-.177c-.137-.178-.217-.175-.356-.355l-5.69.178a3.156,3.156,0,0,1-.356.355c.057.235.118.476.178.708h-.178a1.442,1.442,0,0,0-.356.891l.713.177c-.118.59-.238,1.186-.356,1.777h.356c.058.358.118.711.174,1.068h-.352a2.3,2.3,0,0,1,.178.893c.174.057.352.114.53.177a2.3,2.3,0,0,0-.178,1.243h.178c.006.147-.16.333-.178.711h.358c-.166.32-.246.281-.358.711.252-.009-.069-.131.178-.177.157-.338.18.358.18.358h-.358c.1.492.137.015,0,.533-.18-.137-.177-.217-.352-.358.058.178.118.358.174.533h-.174v.177h-.713c.035-.808.252-.76.535-1.243-.121-.058-.238-.118-.358-.183-.166.367-.141-.1-.177-.352h-.174v-.711c.114.058.233.12.35.177-.2-.3-.111-.241-.532-.352v-.358c.237-.061.472-.118.711-.177-.06-.24-.123-.475-.18-.71h-.177a.754.754,0,0,1-.355.356v-.539a1.186,1.186,0,0,0,.532-.532h-.35v-.711c-.535-.141-.473-.111-.539-.713h.18c-.058-.175-.118-.356-.18-.533.121-.063.238-.118.358-.177.058-.18.118-.356.181-.535h-.539c.061-.241.121-.473.18-.708-.427-.109-.33-.06-.538-.358.363-.1.157.023.358-.178-.762-.71-.025-.505-.177-1.065h-.181c-.054-.177-.115-.355-.175-.532q-.975-.092-1.957-.177v-.177c-.175.057-.352.115-.532.177v-.177h-1.244v-.181h-1.066v-.174h-1.784v-.178h-2.487v-.178h-.359v-.181c-.765-.057-1.541-.115-2.311-.177v-.177c-.651-.117-1.307-.234-1.956-.353-.249-.465-.316-.3-.359-1.072a3.407,3.407,0,0,1,0-1.777s.224.04.177-.352h-.177c.117-.716.24-1.424.359-2.139h.18v-.175h-.18V194.6h.18v-.353h.172v-1.424h.358v-.53h-.358v-.539h.358c.06-.177.121-.355.178-.535h-.178c-.061-.174-.12-.352-.178-.53h.178v-1.246h.178c.06-.476.115-.951.178-1.421h.353c-.2-.2,0-.074-.353-.178.117-.716.238-1.426.353-2.139h.359v-.177c-.572-.4-.108-.834,0-1.6h.535c-.14-.571-.27-.383-.358-1.069H225v-.177h-.177c.114-.18.238-.353.353-.535h-.535c-.06-.175-.115-.355-.177-.535h.177c.061-.413.117-.828.181-1.243h.53v-.358c-.177.061-.353.118-.53.18v-.355h.353a2,2,0,0,1,0-1.246h.177v-.18h-.177v-.53h.177c-.06-.183-.118-.359-.177-.536h.177c.115-.946.238-1.9.356-2.845h.356a10.464,10.464,0,0,1-.177-1.249h.353a2.3,2.3,0,0,1,0-1.42h.18V171.3h.174v-1.244c.118-.061.241-.12.356-.177l-.177-.177c.061-.356.118-.714.177-1.068.183-.118.359-.238.536-.356.312-.673-.26-1.691-.177-2.137.071-.386.424-.823.533-1.244-.627-.453-.857-1.581-1.249-2.314h-.174v-.355h-.18v-.71h-.177v-.355h-.177c-.06-.359-.12-.714-.18-1.068h-.177v-.358c-.12-.058-.24-.12-.356-.178v-.532H225c-.063-.24-.118-.479-.177-.713h-.181V157.6h-.177v-.71h-.177v-1.071h-.178v-.711h-.181c-.094-.341.109-.24.181-.358-.022-.247-.115.066-.181-.177v-.71h-.174v-.533h-.18c.057-.121.117-.24.18-.359h-.18v-1.066H223.4V151.2h-.178v-.177a.507.507,0,0,0,.178-.535h-.178c-.061-.651-.12-1.3-.178-1.957h-.18v-1.241h-.172c.058-.241.114-.478.172-.714h-.172v-.355h-.18V144.8c-.12-.06-.243-.118-.359-.18v-1.244h-.175v-.714h.175v-.177h-.175v-1.957H221.8v-.177h.178c-.06-.178-.118-.356-.178-.535a.346.346,0,0,1,.178-.355c-.06-.177-.118-.353-.178-.533h.178v-.177c-.1-.129-.27.057-.178-.177.118-.063.238-.121.353-.18.135-.495-.4-.356-.353-.713h.178v-1.246h.352c-.134-.18-.217-.175-.352-.355.117-.058.238-.117.352-.178v-1.424h.183c.061-.355.117-.711.18-1.066h.352c-.02-1.684.558-2.567.714-3.913h.355c.034-.366-.008-.522.178-.713h.353c.046-.06-.366-.579-.177-.89h.177v-.177c.5-.364.464.318.711-.533h-.177a1.791,1.791,0,0,0-1.247-1.247v-.888c-.174-.121-.353-.24-.532-.356v-.355h-.178v-.18h.178c.054-.343-.227-.584-.178-.711h.178a1.811,1.811,0,0,0,.358-.711c.6-.177.34-.215.71-.535v-.175h.358v-.358a4.044,4.044,0,0,0,1.243-.711c.06-.12.117-.238.177-.356h.533l.359-.535h.353q.09-.175.18-.355h.352c.121-.175.244-.356.361-.533h.532c.235-.3.473-.593.71-.888h.533c.12-.178.237-.355.356-.535.181-.06.358-.118.532-.18V117.4h.541c.057-.117.114-.235.175-.353.295-.058.591-.12.89-.178v-.177h.358c.117-.181.237-.356.35-.535h.539v-.181c.249-.155.309-.12.71-.177v-.356c-.475-.352-.948-.71-1.426-1.065-.117-.178-.234-.356-.352-.532h-.356q-.359-.447-.713-.893h-.353c-.3-.355-.6-.71-.894-1.068h-.356c-.12-.178-.237-.355-.353-.535h-.356l-.355-.352v-.358c-.178-.118-.355-.24-.533-.355v-.355c-.24-.178-.479-.358-.713-.536v-.356c-.12-.057-.237-.117-.356-.177-.28-.489.163-.312-.353-.711v-.181h-1.069c-.489-.415-1.774-.123-2.49-.353v-.175q-1.685-.357-3.381-.713c-.18-.238-.355-.475-.533-.713h-.174v-.535c-.12-.061-.243-.12-.361-.178v-.355h-.181v-.711h-.177q.184-.887.358-1.779h.18v-1.781h.181v-.532h.174v-.535h.178V98.72h.175v-.358h.18v-.532h.18V96.762c.12-.057.237-.12.355-.18.058-.472.12-.946.178-1.423h.177V94.8h.178v-.711h.178v-.355h.177c-.057-.18-.117-.358-.177-.538.12-.055.237-.117.356-.177.06-.293.118-.593.178-.888h.175V91.067h.177v-.533c.126-.058.244-.118.363-.177.058-.415.114-.831.172-1.247.121-.058.238-.115.358-.178v-.71h.178v-.353c.115-.061.235-.121.358-.18V86.8h.174c.065-.293.121-.593.181-.89h.178v-.353h.177v-.538h.177c.117-.355.24-.71.358-1.065h.177V83.6c.117-.061.237-.12.356-.178.177-.535.356-1.069.533-1.6h.356c.272-.505.7-.509,1.066-.886-.06-.121-.12-.24-.177-.358.177-.12.356-.238.533-.358.057-.175.118-.352.175-.528h.361c.055-.241.115-.476.177-.716h.355v-.355h.533V78.26a5.394,5.394,0,0,0,1.779-1.068c.181-.24.359-.473.535-.711.177.06.352.118.532.177V76.3c.3.057.593.118.889.177-.174-.548-.164-.169,0-.713.237.058.478.12.716.18.058-.18.115-.356.177-.535.118.057.237.117.355.178v-.178h.353v-.177h.713v-.178c.3-.061.59-.121.886-.18V74.7c.238-.061.479-.118.716-.18v-.178h.532c.057-.118.12-.237.18-.352h1.066c.058-.12.121-.238.177-.358.237.058.479.12.713.177.175-.057.353-.118.533-.177l.181.177c.057-.118.117-.234.177-.355h.886v-.178h.358V73.1q1.159-.09,2.312-.183v-.177h1.423v-.178h.714V72.39c.708.057,1.423.117,2.137.175v.178c.6.172,1.231-.283,1.6-.178.061.121.117.238.178.355l1.605.183v.175c.232.061.473.118.7.178v.178h.359c.063.12.118.238.177.358.359.057.713.115,1.071.174.058.12.12.241.177.356l1.6.356c.055.118.115.24.175.358h.356c.237.293.473.59.716.886h.708c.057.12.118.238.177.358h.356c.114.177.235.355.358.535.234.06.472.118.708.177.061.118.118.237.178.356.469.438,1.125,1.24,1.781,1.421Z" transform="translate(-218.771 -72.39)" fill="#0070c3" fill-rule="evenodd"/>
          <path id="Path_1325" data-name="Path 1325" d="M231.831,78.532v.359h-.177c-.3.356-.595.708-.889,1.066-.18.057-.355.12-.532.175v.358h-.358c-.121.177-.24.353-.358.535h-.174v.355c-.178.117-.358.237-.535.356-.063.235-.121.475-.181.71h-.18v.714h-.175v.71H228.1v.177h.177v.178H228.1v.356h-.175v.536h-.178c-.063.65-.124,1.3-.181,1.953h.181v1.959h-.181v.89h-.181v3.2h-.174q-.09.979-.177,1.957h-.181v.536h-.175V97.39h-.181V99.7s-.206-.026-.175.356h.175v.177l-.175.178.175.178h-.175c.055.355.115.711.175,1.065v2.672c.015.048.23.055.181.355h-.181v.711c-.539.23-.81.329-.886,1.066.306.2.24.114.353.536.8.229.452.588.89,1.068.725.785,2.178,1.109,2.495,2.311a3.544,3.544,0,0,1,1.421.89c.055.12.117.24.178.359h.352c.121.175.241.353.359.532.3.058.59.115.888.178.121.177.237.356.356.535.238.055.476.118.716.175.055.12.114.24.174.353h.886c.06.121.121.24.178.356h.358a3.688,3.688,0,0,0,1.781.716v.355l2.669.353v.178h.358v.18h1.243v.18a4.552,4.552,0,0,0,2.49-.359h1.421v-.178c.421-.058.83-.117,1.246-.178v-.175h.536v-.178h.713v-.177h.35v-.181l1.247-.175c.063-.118.118-.24.177-.359.3-.055.595-.117.893-.177.061-.117.117-.237.178-.356.235-.057.472-.118.711-.177.058-.12.117-.235.181-.353h.352v-.18h.358c.117-.177.232-.355.352-.533h.356c.06-.117.12-.238.181-.353a8.457,8.457,0,0,1,2.307-1.782c.132-.49.051-.395.535-.533.224-.845.833-.751,1.066-1.6.661-.192.63-.694,1.069-1.069v-.533l-1.957-.359c-.215-.375-.4-.384-.535-.886a3.471,3.471,0,0,1,0-1.781h.18q.09-2.841.177-5.692h-.177c.06-.828.12-1.662.177-2.49h.178c-.06-.237-.117-.475-.178-.713h-.177V92.054h.177v-.178h-.177v-.535h-.18v-.178h.18V89.919h-.18V87.96h-.178v-1.6h-.174c.058-.178.118-.356.174-.533h-.174v-.533h-.181V84.226h-.177v-.711h-.18v-.533h-.177V81.56h-.177v-.716h-.181c-.057-.293-.117-.59-.177-.886h-.175V79.6h-.175c-.063-.177-.123-.352-.184-.532a2.069,2.069,0,0,1-.888-.536v-.177h-.533v-.178h-.356V78h-.353v-.175h-.358v-.177h-.532v-.177a4.071,4.071,0,0,0-1.782-.356v-.359h-2.134c-.046-.008-.058-.226-.353-.178a12.231,12.231,0,0,1-3.738.178v-.178a3.984,3.984,0,0,0-1.779.178h-3.022v.18h-.893v.18h-1.781v.175h-.708v.181c-.356.117-.711.234-1.069.353V78h-.358v.18h-.352v.178c-.181.06-.353.118-.535.177Z" transform="translate(-215.105 -70.173)" fill="#fff" fill-rule="evenodd"/>
          <path id="Path_1326" data-name="Path 1326" d="M243.718,79.116v.713h-.356c.177.547.164.169,0,.711a15.547,15.547,0,0,0-3.381,0c-.3-.505-.616-.485-.711-1.246.2-.2.071,0,.177-.358h1.962c.04-.008.055-.224.353-.175v.175c.636.144,1.453.088,1.957.18Z" transform="translate(-207.778 -68.977)" fill="#0070c3" fill-rule="evenodd"/>
          <path id="Path_1327" data-name="Path 1327" d="M235.456,79.3v.535a2.953,2.953,0,0,0-.53.535c-.653.057-1.3.12-1.96.177v.178h-.356v.18c-.708.115-1.416.235-2.132.352-.246-.464-.315-.3-.356-1.063a3.487,3.487,0,0,0,.533-.535c.539-.061,1.069-.12,1.6-.181V79.3h.356v-.177c.416-.134.476.186.714.177v-.177a5.453,5.453,0,0,1,2.132.177Z" transform="translate(-212.684 -68.808)" fill="#0070c3" fill-rule="evenodd"/>
          <path id="Path_1328" data-name="Path 1328" d="M231.741,81.653h1.423c.1.194.482.373.361.714h-.181c-.3.521-.576.548-1.423.533a3.52,3.52,0,0,1-.18-1.247Z" transform="translate(-211.815 -67.422)" fill="#0070c3" fill-rule="evenodd"/>
          <path id="Path_1329" data-name="Path 1329" d="M240.081,81.653c.532.061,1.068.118,1.6.178-.058.356-.114.713-.177,1.069h-.177v.177h-.886a2.267,2.267,0,0,1-.358-1.424Z" transform="translate(-207.343 -67.422)" fill="#0070c3" fill-rule="evenodd"/>
          <path id="Path_1330" data-name="Path 1330" d="M238.616,83.335v.536c-.177.118-.352.238-.533.356V84.4h-.533a1.884,1.884,0,0,0-1.421,2.135,2.256,2.256,0,0,0,1.421.356c.533-.518,1.559-.008,1.957.177l-.533,1.069c-.472.06-.949.117-1.424.178v-.178h-.178v.178h-.888v-.178h-.713c-.318-.475-.708-.409-.888-1.069-.424-.407-.379-1.284-.353-2.134h.711V84.76h-.358c.244-.937,1.065-.989,1.6-1.6a10.831,10.831,0,0,1,2.132.178Z" transform="translate(-210.328 -66.616)" fill="#0070c3" fill-rule="evenodd"/>
          <path id="Path_1331" data-name="Path 1331" d="M242.7,89.644v1.068h-.18c-.167.687-.406.541-.889.888-.177.238-.353.476-.532.71-.293.061-.6.12-.891.181-.06.117-.115.237-.174.356h-1.071v.177c-.358-.061-.71-.118-1.066-.177-.226.012-.459.321-.893.177-.972-.329-2.437-1.581-2.486-2.848a3.373,3.373,0,0,1,1.241-.18c.358.3.713.6,1.068.893.061.177.118.355.177.532.3.06.6.121.893.18v-.18h1.423v-.177c.51-.235.581-.063.888-.532.2-.2.072-.006.177-.358h.353c.068-.178.121-.358.183-.535.6-.057,1.184-.118,1.779-.175Z" transform="translate(-210.323 -63.137)" fill="#0070c3" fill-rule="evenodd"/>
          <path id="Path_1332" data-name="Path 1332" d="M224.564,106.535c1.249.045,1.615.816,2.669,1.065v.356a1.894,1.894,0,0,1,.888.533v.178h.359c.057.121.114.24.175.356h.352c.18.238.361.476.538.711.235.06.475.118.708.18.117.177.238.355.359.532h.356c.058.178.118.355.175.535h.18c.117.178.237.356.353.533h.359c.117.18.235.356.353.533.524.378.877.335,1.068,1.068.61.155.459.369,1.066.535v.533h.536c.289.5.716.605.886,1.244h.539c.174.238.349.478.527.713.18.06.361.121.538.178v.533c.293.178.593.353.886.536v.353l.358.355h.353c.243.3.476.593.717.89h.353v.181h.177v.352c.181.2.358.129.711.181.06-.12.118-.24.177-.356-.292-.177-.59-.358-.888-.532v-.893h-.358a9,9,0,0,0-.533-2.134c-.094-.3.226-.653.18-.713l-.536-.178v-.533h-.178v-.533h-.175c-.057-.773-.121-1.542-.18-2.314h-.178v-.355c-.069-.134-.395-.075-.352-.358h.175a5.853,5.853,0,0,0-.71-2.134c.06-.178.117-.355.177-.536h-.353a1.649,1.649,0,0,0-.181-.886h-.18v-.71c-.118-.063-.232-.12-.353-.18v-.533h-.174v-.535H236.3v-.713c-.121-.057-.238-.117-.358-.177v-.711h-.177c.058-.177.121-.353.177-.533a3.717,3.717,0,0,1,.888-.355c.06.177.118.355.178.535h.18v.353h.181v1.246h.177v.355h.177c.058.356.117.713.18,1.068.118.06.237.117.353.18V107.6h.177c.06.3.118.595.178.89h.18c.061.24.118.476.175.713h.178c.061.415.12.831.178,1.244h.178c.386.355,1.791.2,2.49.178a4.279,4.279,0,0,0,2.315.177v-.177c.178.058.356.12.533.177v-.177h1.424c.075-.719.344-.731.533-1.246.063-.472.118-.946.177-1.423.117-.058.233-.12.355-.177v-.355h.181c.06-.656.118-1.307.174-1.959h.18v-.356h.18v-.889h.18c.057-.356.114-.71.177-1.066-.2-.151-.031.021-.177-.178a18.681,18.681,0,0,0-1.959.535h-1.6v.177h-.714v.177H240.93v-.177h-.353c-.181-.3-.358-.593-.539-.888H238.97v-.178h-.355v.178h-.888v-.178h-.353v-.177c-.12.057-.237.117-.361.177v-.177h-.353v-.18h-.532c-.685-.293-2.077-1.314-3.384-.89v.178h-.53v.175h-.536c-.058.12-.117.238-.175.356h-.533c-.061.12-.118.24-.177.359h-.358v.177c-.358.117-.71.238-1.066.355-.121.178-.24.358-.361.535-.234.058-.47.115-.705.177-.063.12-.124.235-.181.358h-.355c-.06.117-.12.237-.177.353-.241.06-.473.12-.713.177-.061.118-.117.238-.178.358h-.356c-.06.118-.115.238-.177.355h-.356v.178h-.355c-.121.178-.24.356-.359.535-.178.06-.356.117-.53.177v.358Z" transform="translate(-215.664 -56.901)" fill="#fff" fill-rule="evenodd"/>
          <path id="Path_1333" data-name="Path 1333" d="M238.227,118.714h.891c.126-.5.046-.4.532-.538.158-.628.607-.837.889-1.423h.536c.243-1.118.493-.525,1.062-1.066.183-.3.359-.593.536-.891h.359v-.178h.353c.12-.177.241-.355.358-.533h.177v-.355c.117-.06.235-.12.356-.178v-.18h.532V113.2h.18c.37-.5-.317-.453.535-.713v-.353c.115.058.234.118.358.177v-.356l.355-.353h.35l.359-.535h.352V110.7h.535c.321-.473.711-.409.889-1.066h.535V109.1h.181a1.448,1.448,0,0,1,.883-.535v-.355h.358v-.181c.175-.057.358-.114.535-.175.181-.237.358-.475.533-.711h.358c.175-.238.356-.476.533-.71h.533v-.18h.53a2.877,2.877,0,0,0,.535-1.246c-.415-.235-.828-.473-1.246-.711v-.353a1.622,1.622,0,0,1-.885-.181v-.177h-.891v-.177h-.359v-.177c-1.062-.24-2.132-.475-3.2-.713v-.356c-.83-.06-1.659-.118-2.49-.18v-.178c-.177-.058-.356-.117-.528-.178v-.175h-.181v.175a5.359,5.359,0,0,0-1.6.716,4.687,4.687,0,0,1-.533,1.776v1.068h-.183v.713h-.171v.71c-.124.058-.243.12-.359.181v.708h-.174v.532h-.184v.536h-.174c-.063.416-.12.833-.177,1.247h-.18c-.061.473-.121.946-.18,1.423h-.18v.89c-.114.058-.235.118-.355.177v.711c-.281.807-.608,1.876-.886,2.67v.71c-.178.12-.361.24-.533.356v.889H238.4c-.058.355-.12.713-.177,1.071Z" transform="translate(-208.337 -56.803)" fill="#fff" fill-rule="evenodd"/>
          <path id="Path_1334" data-name="Path 1334" d="M255,104.7c-.192.71-.673.936-1.246,1.244H253.4c-.177.238-.353.473-.535.71h-.352c-.06.12-.124.24-.177.358h-.356c-.058.118-.12.237-.177.355a7.877,7.877,0,0,1-2.139,1.6c-.249.856-.16.2-.711.536-.117.177-.237.356-.356.533-.178.058-.352.118-.533.177v.18a3.042,3.042,0,0,1-1.243.888c-.129.493-.052.4-.536.535a2.889,2.889,0,0,1-2.489,1.959c-.135.558-.395.65-.535,1.243h-.533v.178c-.435.367-.174.5-.886.711-.143.562-.359.579-.717.89v.181c-.174.057-.35.117-.53.174v.533c-.18.12-.359.238-.533.358v.355h-.181c-.241.264-.086.241-.532.356v.177h-.533c-.066.69-.275.739-.355,1.424h.172c.539-.634,1.274-.771,1.962-1.246.115-.178.237-.355.356-.533l.708-.178c.123-.178.238-.355.353-.532.243-.061.478-.12.716-.181.118-.175.233-.352.355-.533h.358c.061-.117.117-.237.178-.355h.353c.118-.177.24-.356.358-.535l.71-.177V115.9a1.425,1.425,0,0,1,.716-.353v-.358h.355c.292-.482.71-.458.885-1.068.24-.057.476-.12.711-.177v-.358l.711-.175c.132-.495.051-.4.535-.536.2-.2,0-.069.359-.177v-.356c.851-.172,1.048-.685,1.776-.89V111.1h.358v-.359c.237-.057.475-.115.708-.177v-.356c.181-.058.358-.118.538-.177.292-.356.59-.711.883-1.069h.358v-.355l.535-.177c.061-.117.121-.237.177-.355.178-.061.358-.12.533-.18.455-.324.307-.691,1.068-.888.181-.707.478-.645.535-1.6a.838.838,0,0,1-.535-.71Z" transform="translate(-208.212 -55.064)" fill="#ffec00" fill-rule="evenodd"/>
          <path id="Path_1335" data-name="Path 1335" d="M223.18,107.294h.356v.356c.533.418,1.066.83,1.6,1.246.117.178.237.356.356.533h.352c.244.3.476.595.716.889h.355c.118.177.24.353.355.536h.535c.115.175.24.353.356.53.175.06.356.118.533.18v.178c.235.058.473.117.714.178.175.24.352.473.527.71h.538v.178a2.048,2.048,0,0,0,.889.533v.358c.358.12.71.238,1.068.355v.178a1.453,1.453,0,0,0,.711.353v.358c.634.424.521.936,1.6,1.066v.358a1.317,1.317,0,0,1,.71.358v.174h.358c.06.12.115.238.178.358h.174c.06.117.121.237.178.356.24.057.479.118.716.177.235.3.475.595.707.888.524.455.628-.2.893.714.538.146.685.419,1.068.71v.177h.532c.065.12.12.24.178.356h.361c.057.118.115.238.172.359h.358v.177c.3.177.6.356.888.533v-.177c.206-.206.075,0,.181-.356-.535-.355-.081-.163-.358-.536-.356-.293-.711-.593-1.069-.886v-.356q-.62-.537-1.243-1.069v-.356c-.358-.3-.71-.593-1.068-.886V116.9h-.353v-.355c-.482-.293-.459-.71-1.069-.89V115.3c-.8-.218-.409-.53-.893-.893-.53-.4-.862-.267-1.065-1.068a3.128,3.128,0,0,1-.89-.355v-.533h-.356V112.1c-.253.011.069.135-.177.178-.157.336-.181-.355-.181-.355-.909-.246-.442-.558-.89-.891h-.352c-.313-.184-1.1-.724-.71-1.068h-.716v-.353a1.011,1.011,0,0,1-.889-.893h-.532v-.177c-.2-.2-.069,0-.175-.355h-.541c-.29-.515-.568-.564-1.063-.891-.061-.117-.117-.237-.178-.355H227.1c-.121-.177-.237-.356-.356-.535-.177-.057-.355-.118-.532-.177v-.181c-.3-.057-.6-.114-.893-.175v-.177h-.536c-.058-.121-.115-.24-.177-.355-.177-.061-.353-.123-.533-.18v.18c-.641.163-.751.6-1.243.888.117.355.235.711.353,1.066Z" transform="translate(-216.596 -54.816)" fill="#ffec00" fill-rule="evenodd"/>
          <path id="Path_1336" data-name="Path 1336" d="M234.694,108.286c-.353.94-.077.611.181,1.246v.713c.118.057.235.118.358.177q.175.979.353,1.957h.177v.355h.177v.535h.181c.058.238.118.473.177.711h.178v.355h.175v.535h.18c.061.238.118.475.177.713h.178c-.06.237-.117.475-.178.71a3.064,3.064,0,0,0,.893,1.6c.151.2-.023.025.175.18q.18-1.159.356-2.317h.177v-.533h.18v-1.066h.178V113.8h.178v-.713h.178v-.533h.177V112.2h.177v-.535h.18v-.533h.181V110.6q.26-.8.532-1.6h-.181c-.154-.6-.327-.542-1.065-.53v.177h-1.247v-.177h-1.6v.177l-1.782-.356Z" transform="translate(-210.321 -53.139)" fill="#fff" fill-rule="evenodd"/>
          <path id="Path_1337" data-name="Path 1337" d="M253.383,109.826v.533c-1.573.135-1.879,1.423-3.2,1.779v.356c-1.175.309-1.171,1.423-2.492,1.6v.355h-.536v.18c-.4.284-.516.556-1.063.713v.352a2,2,0,0,0-.891.535v.178h-.535c-.118.178-.238.356-.355.533-.18.06-.358.118-.533.178v.178c-.24.06-.473.118-.713.175l-.183.359h-.353c-.235.295-.473.591-.708.89h-.356c-.061.118-.121.237-.18.356h-.353c-.716.478-1.141,1.189-2.132,1.421-.06.24-.121.475-.181.711.181.061.355.117.532.178.515,1.155,1.353,2.131.893,3.736v1.6h-.178c-.063.353-.118.711-.178,1.065-.172.384-.836.734-.536,1.6h.181c.058.24.117.478.172.714h.183c.06.472.115.945.178,1.423h.178v.535h.177c-.061.234-.121.472-.177.71h.177v.355h.177v.711h.178c-.061.18-.117.355-.178.536.117.057.233.118.355.177v1.424h.181v.355h.174v.177h-.174c-.493,2.3.73,5.354-.713,6.76v.177c-.3.061-.595.12-.888.178.154.31.017.061.355.18v.175h-.355c-.12.492-.235.409-.358.894-.522.12-.584.2-.711.71l-.533-.178c-.06.118-.12.238-.178.356-.22.1-.519.1-.713.18v.177c.916-.166.765-.011,1.6.178v-.355c.939.049.662.284,1.6.355v-.355c.353.057.708.117,1.063.177.277-.439.184-.114.539-.356.057-.118.114-.238.177-.356.174-.06.358-.117.532-.177.5-.631.272-1.338,1.246-1.6a13.349,13.349,0,0,1,.533-2.489h.358v-.711h.353c.058-.3.118-.591.18-.888.178-.12.359-.24.532-.358-.057-.12-.118-.235-.172-.355l.352-.178v-.71c.12-.061.237-.12.358-.178v-.891c.117-.057.232-.12.352-.178v-.71c.12-.061.237-.12.356-.18v-.713h.181v-.353h.174c.063-.415.118-.833.177-1.247h.184V132.24h.175v-.71h.175v-.713h.177v-.535l.358-.175v-.358h.177c.014-.065-.29-.667-.177-1.068h.177v-1.066h.18c-.06-.177-.117-.356-.18-.535h.18v-.353h.177v-.714h-.177v-.177h.177v-.713h.533v-.178c-.6-.157-.545-.33-.533-1.068h.181V122.1h.174v-.178c0-.029-.234-.065-.174-.358h.174v-.355h-.174c0-.4.078-.146.174-.355.254-.521-.1-.344.535-.535v-.353h.711v.353c.121.058.24.12.355.178v.535h.177v.177h-.177v1.6h-.175v3.023h-.18v1.956h-.175v.536h-.177v.175h.177a6.549,6.549,0,0,1-.358,2.314h-.178v1.247h-.177v.71h-.18v1.6h-.178v.532h-.174v.714c-.123.058-.244.117-.358.175-.177.771-.356,1.542-.533,2.314h-.181q-.175.535-.352,1.066h-.175v.358h-.184v.353h-.177c-.174.535-.355,1.069-.528,1.6-.124.061-.243.12-.358.18-.06.295-.123.593-.177.89h-.181v.533c-.12.058-.238.12-.356.177v.71c-.118.061-.237.12-.353.181-.061.237-.118.473-.178.713-.121.058-.24.118-.356.177-.057.295-.118.593-.177.891-.238.177-.476.355-.711.533v.353c-.12.06-.24.12-.359.181v.352h-.177v.358l-.359.356v.355h-.171a1.474,1.474,0,0,0-.359.71c-.6.175-.341.218-.708.535v.177h-.359v.356h.359v.358a2.168,2.168,0,0,1,1.238.533l.183.355c.278.171.525-.055.713.18.538.677-.123.894,1.244,1.065v.178c.051,0,1.114-.464,1.421-.532.144-.607.455-.77,1.072-.891a1.376,1.376,0,0,1,.708-1.065c.3-.155.525.058.71-.181.058-.295.121-.59.181-.886.118-.06.233-.118.352-.181v-.353c.12-.061.24-.118.356-.18v-.353H250a1.519,1.519,0,0,0,.358-.711h.355c.154-.611.367-.459.532-1.068h.353c-.129-.181-.214-.175-.353-.356.625-.446.061-.313.353-.889.12-.06.241-.117.359-.178v-.356c.117-.06.238-.117.358-.178v-.355h.175c-.058-.3-.118-.595-.175-.891h.175v-.177h.714c-.058-.355-.118-.711-.181-1.066h.358v-.356l.533-.18c-.061-.293-.118-.59-.181-.888h.181c.06-.595.117-1.186.177-1.779l.535-.178c-.221-.619.034-.923.177-1.6.177-.057.358-.118.535-.177v-.356c-.117-.057-.234-.12-.358-.177.061-.3.124-.593.181-.893h.177v-.708h.177c.061-.355.123-.711.178-1.071h.18v-.355h.175c.06-.413.118-.828.181-1.241h.178v-.711h.175c.063-.358.12-.714.178-1.071h.177v-.175h-.177q.092-1.157.177-2.315c.12-.06.237-.118.359-.177.06-.711.118-1.424.175-2.134h.178v-1.247h.18c-.063-.177-.118-.356-.18-.533,0,0,.235-.041.18-.358h-.18c.061-.53.117-1.065.18-1.6-.063-1.246-.118-2.487-.18-3.733h-.178c.06-.241.115-.475.178-.714h-.178c-.057-.711-.115-1.421-.175-2.135h-.181v-1.066h-.178c.065-.12.12-.235.178-.355h-.178v-.359h-.177c.061-.175.121-.353.177-.533h-.177v-.532h-.178c-.057-.355-.112-.713-.175-1.068h-.178c.058-.12.118-.237.178-.356-.241-.83-.475-1.661-.714-2.489h-.532c-.181.238-.358.472-.535.713h-.358v.175a1.842,1.842,0,0,1-.886.535Z" transform="translate(-209.082 -53.077)" fill="#fff" fill-rule="evenodd"/>
          <path id="Path_1338" data-name="Path 1338" d="M230.084,148.068h.352v.353c.519.343.533.92.9,1.426.174.117.35.237.532.356v.177h.358c.115.237.235.473.352.711.358.284.765.344,1.069.71a5.748,5.748,0,0,0,3.914-1.6v-.356h.177v-.181c.4-.346.332.2.53-.53h.358a1.765,1.765,0,0,0-.18-.891h.18v-.177h-.533c-.3-.358-.593-.711-.889-1.068v-.358h-.18a2.283,2.283,0,0,1-.53-1.066h-.356c-.177-.7-.475-.647-.53-1.6h-.539c-.12-.536-.237-1.068-.358-1.6-.115-.061-.234-.12-.352-.178v-.532c-.121-.063-.237-.12-.353-.18v-.711c-.12-.058-.24-.121-.358-.177v-.536h-.177c-.207-.2-.006-.072-.359-.177a11.127,11.127,0,0,0-.533-1.779v-.891H232.4c-.061-.237-.118-.475-.177-.711h-.18v-.538h-.178v-.352h-.181c-.058-.358-.114-.713-.177-1.066-.117-.06-.234-.12-.352-.178v-.713h-.18V133.3H230.8v-.89h-.181v-.53h-.18v-1.069c-.117-.058-.234-.12-.352-.178.057-.178.118-.355.177-.535h-.177v-.533h-.175v-1.246h-.178c.055-.117.117-.235.178-.355h-.178V126.9h-.181v-.353h-.181v-1.068h-.174c-.207-.6-.055-.558,0-1.071h.174a.713.713,0,0,0,.363.356V124.4c-.181-.117-.363-.235-.536-.355.058-.12.118-.235.174-.356h-.174V122.45h.174v-.356h.181l-.181-.714a1.578,1.578,0,0,1,1.247-.355c-.058.473-.118.949-.18,1.426-.175-.06-.352-.117-.527-.178v.178h.352c.476.581.521.068.536,1.243-.209.147-.181.384-.361.533-.175.061-.352.12-.527.178.057.24.114.475.175.713-.118.061-.237.12-.353.18v.178h.353c.126-.493.046-.4.532-.536,0,.536.313,1.436,0,1.6h.358c-.014,1.589.614,2.289.708,3.735h-.528v.177h-.18c-.217.336-.045.759,0,1.068.2-.151.025.023.18-.177h.178l-.178-.177a1.36,1.36,0,0,1,.178-.714c.355.1.151-.021.35.178h.181c.057.355.12.713.178,1.066.18.06.356.118.532.181v1.42h.18c.055.415.117.833.178,1.247l.352.177c.132.372-.112.508-.177.714h.536a3.328,3.328,0,0,0,.177,1.6l.353.178v.358h.181c.055.415.118.831.177,1.244h.175v.353h.181v.359c.238.175.476.355.716.532q.083.622.174,1.244h.177v.359c.12.057.237.115.358.177.06.413.115.83.178,1.243h.174c.06.238.121.475.178.71.178.061.358.12.535.181a1.252,1.252,0,0,0,.181.713h.177v.532h.181c.289.386.556.53.707,1.069,1.81.336,3.174-.154,4.982-.178v-.355c-.519-.124-.584-.2-.71-.713-.771-.06-1.542-.117-2.317-.178-.41-.473-.833-.951-1.241-1.426-.121-.058-.24-.117-.356-.178a12,12,0,0,1-.358-2.844s.234.029.181-.356h-.181a.3.3,0,0,1,.181-.356v-.175h-.181c.031-.252.123.063.181-.178v-.891h-.181c.061-.473.118-.949.181-1.424h.177V136.5h.177v-.538h.18v-1.241h.178v-.532h.175V133.3h.177v-.355h.178v-.711h.18c.061-.416.118-.83.175-1.246h.356a9,9,0,0,1,.358-1.423,2.279,2.279,0,0,0-.89-.177c-.129-.492-.052-.4-.535-.538v-.532l-.533-.175c.058-.355.117-.713.18-1.069-.121-.058-.24-.118-.356-.178-.034-.221.281-.3.177-.71h-.177v-1.426h.177v-.535h.18v-.533h.178v-1.065c.115-.061.23-.118.352-.178v-.535h.178c.058-.178.123-.356.18-.536h.532c.065-.293.12-.591.178-.888l-.535-.178c-.057-.12-.114-.235-.175-.355h-.535c-.117-.177-.235-.353-.353-.533h-.356c-.06-.12-.12-.238-.177-.353-.181-.063-.361-.121-.539-.18v-.18a1.458,1.458,0,0,0-.707-.356V118c-.618-.111-.923-.295-1.068-.891-.238-.058-.479-.117-.713-.178v-.355c-.174-.058-.355-.117-.533-.178v-.178c-.18-.058-.356-.12-.538-.178-.054-.12-.115-.235-.175-.353-.238-.061-.475-.12-.711-.181v-.175a1.981,1.981,0,0,0-.888-.532v-.358c-.383-.217-.389-.4-.889-.535v-.355c-.178-.061-.359-.12-.536-.177-.174-.24-.352-.476-.532-.716h-.538c-.175-.234-.352-.472-.527-.71-.536-.177-1.072-.353-1.6-.535v-.355c-1.126-.135-1.446-1.141-2.492-1.423v-.356c-.608-.152-.461-.369-1.066-.536v.183c-.482.419-.444.926-.713,1.6h-.177v.533h-.18v.355H223.5v.713h-.177c-.063.595-.118,1.184-.177,1.779h-.181v.711h-.177v.713h-.177v.533h-.178v.711h-.181q-.083,2.761-.174,5.515h-.18v.178h.18v1.244h.174v.888h.181v.713h.178v.89h.177v.889h.177v.711h.181a2.991,2.991,0,0,1-.181,1.243h.181c.114.774.238,1.544.353,2.318h.177c.129.427-.209.688-.177.886h.177v.711h.18v.533h.177v.536h.18c.177,1.3.353,2.606.533,3.914h.174v.355h.18v.533h.177c.063.3.121.593.183.891.115.057.234.118.353.175v.535c.12.061.237.118.356.178v.71h.175v.358h.178v.535c.12.058.238.115.359.177v.533h.178c.055.237.118.475.177.71h.178v.355h.178v.536c.117.061.237.118.353.178.06.18.12.356.18.535h.178c.055.237.115.473.175.713.12.057.237.117.356.177v.356h.181v.353c.117.06.235.12.35.181.061.177.121.352.181.533h.181a1.472,1.472,0,0,1,.353.711Z" transform="translate(-217.093 -52.892)" fill="#fff" fill-rule="evenodd"/>
          <path id="Path_1339" data-name="Path 1339" d="M234.655,118.749H234.3c-.058.834-.117,1.664-.178,2.493h-.178c.063.591.118,1.186.178,1.779.625.37.7.948,1.6,1.066v.178h.891v.175c.791.214,1.547-.389,2.134-.532.055-.971.395-1.094.713-1.776h.178c.143-.4-.135-.455-.178-.536v-.178h.178v-1.068h.177c.06-.177.115-.356.177-.535h-.177v-.353h-.177c-.063-.415-.12-.831-.178-1.244-.178-.118-.356-.238-.536-.356-.054-.3-.114-.595-.177-.893-1.145.049-1.845.346-3.2.358-.321.542-.727.681-.893,1.421Z" transform="translate(-210.636 -48.482)" fill="#ffec00" fill-rule="evenodd"/>
          <path id="Path_1340" data-name="Path 1340" d="M227.175,120.819c.175.057.352.118.527.177-.117-.415-.234-.831-.352-1.244H227a2.933,2.933,0,0,1,.178,1.068Z" transform="translate(-214.359 -46.991)" fill="#0070c3" fill-rule="evenodd"/>
          <path id="Path_1341" data-name="Path 1341" d="M245.29,119.751v.355h.359v-.355Z" transform="translate(-204.549 -46.991)" fill="#0070c3" fill-rule="evenodd"/>
          <path id="Path_1342" data-name="Path 1342" d="M227.691,122.414c.2.2,0,.069.356.18-.2-.206,0-.074-.356-.18Z" transform="translate(-213.987 -45.563)" fill="#0070c3" fill-rule="evenodd"/>
          <path id="Path_1343" data-name="Path 1343" d="M236.335,122.939c-.058.178-.117.356-.177.533h-.177v.358c-.12.058-.237.118-.353.177-.06.237-.123.473-.181.711h-.177v.888c-.12.06-.238.121-.353.178v1.069h-.181V128.1h-.18v.535h-.178v.533H234.2v.533h-.178q-.085,1.424-.175,2.847h.175v.178h-.175a3.537,3.537,0,0,0,.175,1.957,2.051,2.051,0,0,0,1.607,1.423c.187-.226.313-.184.53-.358v-.177h.358c.292-.413.593-.83.886-1.243v-.356h.178v-.358c.117-.058.237-.115.356-.177v-1.781h.178v-1.065h.18v-.71h.175v-.893h.181q-.092-1.244-.181-2.492a5.569,5.569,0,0,0,.181-2.131,6.025,6.025,0,0,1-.356-1.6h-.714v.177a.3.3,0,0,1-.355-.177l-.891.177Z" transform="translate(-210.716 -45.376)" fill="#ffec00" fill-rule="evenodd"/>
          <path id="Path_1344" data-name="Path 1344" d="M236.49,135.5c.865-.04.6-.19,1.246-.355.121-.521.2-.584.711-.714V133.9h.711v-.178h.177l.181.178v-.355h-.358c.057-.3.118-.595.177-.888h.181c-.063-.3-.12-.6-.181-.891h.181v-.356h.172c.068-.244-.131.069-.172-.178-.054-.287.172-.321.172-.355-.055-.237-.114-.475-.172-.714l.355-.177c-.061-.355-.115-.71-.183-1.066h-.172a.292.292,0,0,1,.172-.355c-.055-.24-.114-.476-.172-.714h.533v-.177c-.178-.057-.361-.12-.533-.178a1.01,1.01,0,0,0,.172-.89h-.172c.058-.117.117-.237.172-.358h-.172c-.063-.234-.12-.472-.181-.708-.2.147-.023-.023-.177.177h-.174c.058.355.114.714.174,1.069h-.174v1.957H238.8v.533h-.18v1.956h-.177v.711h-.177v.355h-.178v.714c-.118.058-.238.115-.356.177v.356h-.18v.532c-.114.063-.237.12-.352.177-.061.178-.121.358-.181.533h-.175a1.482,1.482,0,0,0-.358.714Z" transform="translate(-209.269 -43.886)" fill="#ffec00" fill-rule="evenodd"/>
          <path id="Path_1345" data-name="Path 1345" d="M238.807,126.121c.2.2,0,.069.355.175-.2-.2,0-.071-.355-.175Z" transform="translate(-208.026 -43.575)" fill="#0070c3" fill-rule="evenodd"/>
          <path id="Path_1346" data-name="Path 1346" d="M247.492,131.453h.356v-.178h-.18V131.1h-.177v.355Z" transform="translate(-203.368 -40.906)" fill="#0070c3" fill-rule="evenodd"/>
          <path id="Path_1347" data-name="Path 1347" d="M247.793,132.381v-.356c-.177.06-.358.123-.533.18v.177Z" transform="translate(-203.493 -40.409)" fill="#0070c3" fill-rule="evenodd"/>
          <path id="Path_1348" data-name="Path 1348" d="M234.119,134.529a3.668,3.668,0,0,1-.178,1.954h.535v.181c.23.166.19.4.361.532h.353v.178c.29.278.289.144.358.711h.353v.355h.353v.358c.372.194.316.286.891.353a.722.722,0,0,1,.355-.353v-.536a2.955,2.955,0,0,0,1.246-.888c.063-.12.123-.235.177-.356h.536v-.177l.532-.177v-.538h.361v-.355l.886-.175c.115-.181.237-.356.356-.535h.177c.118-.356.238-.711.355-1.068h-4.269c-.422.373-2.971.4-3.738.535Z" transform="translate(-210.636 -39.353)" fill="#fff" fill-rule="evenodd"/>
          <path id="Path_1349" data-name="Path 1349" d="M245.639,134.342v.353h.175v-.353Z" transform="translate(-204.362 -39.166)" fill="#0070c3" fill-rule="evenodd"/>
          <path id="Path_1350" data-name="Path 1350" d="M224.39,149.986c-.06.24-.117.478-.177.713h-.18v2.134h-.177v1.246h-.18v1.246H223.5v.355h-.177v1.246h-.177c-.065.771-.12,1.541-.181,2.312h.181v1.068h-.181v.888h-.177v.358h-.177v.891h-.178V164.4h-.181v.359h-.174c-.131.369.111.509.174.71H221.9v.177h.18v.891a7.189,7.189,0,0,0,1.421.175c-.06.12-.115.24-.177.359h.177v-.183h.177v.183c.6.057,1.186.115,1.782.175v.358h.353v-.358c.206.2.077,0,.18.358.607-.155.456-.37,1.068-.533a28.784,28.784,0,0,0,.355-3.028h.532v-.177h-.532c.048-.312.178-.353.178-.353v-1.249h.177c-.06-.353-.115-.71-.177-1.068h.177v-.708h.177c-.057-.18-.117-.356-.177-.536h.177V156.4h.18c.127-.438-.191-.676-.18-.893h.18v-.533h.178V153.19c.115-.06.24-.118.356-.18v-1.246h.175V150.7h.181a3.077,3.077,0,0,0,0-1.6c.177-.055.35-.115.532-.174.131-.2-.34-.31-.355-.356v-.893h.174v-.532h.181c-.06-.12-.12-.241-.181-.356.121-.714.238-1.424.363-2.135.117-.061.235-.118.353-.175v-.716c.118-.057.235-.114.352-.177v-.177h-.175c-.058-.321.155-.283.175-.356V141.98h.18c.06-.177.118-.356.181-.532h.177c-.06-.178-.123-.355-.177-.532h-.181c-.074-.3.174-.324.181-.358.046-.247-.148.071-.181-.178-.049-.336.373-.163,0-.711h.181v-.178c.31-.218.505.08.885-.355-.593-.373-.94-1.106-1.421-1.6-.177-.121-.352-.238-.53-.356v-.535c-.241-.177-.478-.353-.713-.535v-.356c-.12-.057-.241-.117-.356-.177-.3-.409.187-.321-.535-.535v-.353h-.711a1.4,1.4,0,0,1-.355.353v.893h-.178v.71h-.177v.535h-.183v.71h-.178v.536h-.175c-.164.521.272.988.175,1.244-.175.118-.352.237-.532.355v.356h-.177c-.318.69.117,1.662-.177,2.492h-.183v.353H225.1c-.061.773-.117,1.546-.18,2.314h-.174v.178h.174c-.057.593-.115,1.183-.174,1.779l-.356.177c-.094.28.336.71.177,1.249h-.177v.71c-.117.058-.237.118-.356.177v.177Z" transform="translate(-217.093 -38.98)" fill="#fff" fill-rule="evenodd"/>
          <path id="Path_1351" data-name="Path 1351" d="M251.747,137.536h-.356c-.2.481-.315.745-.889.889v.353h-.353c-.218.381-.4.389-.533.891h-.175c.055.175.117.355.175.532h-.359c.152.2-.018.026.184.18.155.2.456.25.527.356a7.146,7.146,0,0,1,.181,2.135l-.181.177c.121.058.238.118.358.177.089.3-.171.326-.177.356a.479.479,0,0,0,.177.532c-.058.3-.12.595-.177.891.118.06.237.121.353.18a2.961,2.961,0,0,1,0,1.6c-.029.4.18.356.18.356v1.065h-.18v.18h.18v.355h.177c.058.181.121.355.181.535a4.286,4.286,0,0,1-.714-.18c-.058.118-.12.238-.177.356-.218.108-.524.1-.708.18.008-.413.138-.458.175-.71h-.175a1.685,1.685,0,0,1-.184-.716c.307-.2.244-.111.359-.533l-.536-.177v-.533h-.174c-.181-.578-.031-1.47-.181-1.959h.355c.043-.189-.24-.32-.174-.713a.26.26,0,0,0,.174-.353h-.174a1.654,1.654,0,0,1-.355-.713h.528v-.53c-.32-.169-.278-.246-.711-.356v-.891l.183-.178h-.183a1.623,1.623,0,0,1-.175-.711h.358v-.178a1.891,1.891,0,0,0-.716-.18v.18h-.528a5.58,5.58,0,0,1-1.6,4.269c-.18.058-.359.121-.536.178-.117.177-.238.356-.359.533-.171.058-.353.118-.53.178v.355h-.358v.359c-.53.235-1.068.47-1.6.71.061.3.117.591.178.888-.009.023-.664.27-.532.355h.353v.889h.178c-.061.478-.117.954-.178,1.426h.355v1.068c-.026.249-.166-.075-.177.175.121.057.237.12.358.178v.889h-.181a.467.467,0,0,0,.181.536v.352h-.181v.18h-.886a2.429,2.429,0,0,0-.533-.71v-.358c.419-.16.639-.164.888-.535-.177.061-.355.12-.533.181V152.3c.4-.7-.536-.347-.355-1.243h.172c-.055-.12-.114-.24-.172-.356.138-.172.359-.129.533-.358-.605-.058-.567-.006-.714-.532.361-.3.312-.1.181-.533-.026-.081-.23-.031-.181-.353h.181v-.536h.172v-.18c0-.091-.412-.1-.353-.355.118-.058.24-.121.353-.178V147.5h-.353v.177l-2.131.356v.177h-.714v-.177h-.178v.177h-1.243v.18h-.535v.18H234.49c-.06.886-.115,1.774-.178,2.667h-.175c-.028.22.34.313.175.71-.114.06-.232.12-.355.178v.358h.355c-.057.532-.114,1.065-.175,1.6-.18.063-.358.12-.535.178v.18a1.669,1.669,0,0,1,.71.178,5.985,5.985,0,0,0-.355,2.311H233.6c-.02.564-.346.333.177.535v.352h-.352v.18c.175.063.352.12.53.178-.118.536-.238,1.071-.355,1.6h-.353v.358c.118.058.237.12.353.177v.711h-.353a1.336,1.336,0,0,0,.178.713h.175c.167.412-.2.693-.175.888h.175a2.677,2.677,0,0,1-.175,1.071h.175v.708h-.175v.711h-.178v.18h.178V166h.175v.886h-.175c-.141.7.277.541.352.716v.886h.178v-.177h.889v-.177a.438.438,0,0,1,.533.177h2.67c.051.012.057.24.356.177v-.177h.711v-.177c.682-.229,1.762.21,1.956,0,.407-.253.312-.562.536-.711h.533v-.18h-.355v-.358h.355v-.177c-.177-.057-.355-.115-.533-.175-.061-.295-.115-.591-.183-.891.487-.052.284.094.539-.177h-.178v-.178a.279.279,0,0,1,.355.178c.169.309.177-.53.177-.536h-.177v.178h-.533c-.061-.533-.115-1.068-.183-1.6l.183-.178h-.183c-.055-.18-.114-.355-.172-.539.172.063.355.12.533.184-.063-.184-.118-.36-.178-.535h-.355v-.713h.172v.355h.361v-.533h-.178c-.2-.2,0-.071-.355-.177v-.358h.533v-.177h-.178c-.187-.32.152-.547.178-.711-.118-.058-.24-.118-.361-.18v-.533h-.172c-.063-.175-.12-.355-.181-.53h.181c.118-.522.2-.584.711-.716v-.358c-.178.061-.356.121-.539.18.068-.18.121-.353.183-.532l.533.178v-.356c-.533-.138-.469-.111-.533-.711.3-.2.24-.111.356-.535h-.539a6.962,6.962,0,0,1,.361-1.957h.178c.2.2,0,.072.353.178a1.651,1.651,0,0,0,.71.89,2.825,2.825,0,0,1-.532,1.066c.177.063.358.121.532.183-.055.175-.114.353-.174.53H242.5v.356h.358v1.6c-.475-.063-.953-.121-1.429-.18v.355H242.5a.7.7,0,0,0,.358.355c-.121.355-.237.713-.358,1.069h-.532v.355h.532v.535h.177c-.055.235-.121.475-.177.71.121.06.237.12.358.177v1.959h.174a.3.3,0,0,1-.174.355c.06.355.118.713.174,1.068h-.174v.711c.121.442.419.923.533,1.424.591.058,1.188.12,1.777.18v.177c.307.054.3-.161.356-.177h.891v-.18h1.244s-.031-.224.358-.177a.3.3,0,0,0,.352.177V167.6h.711v-.178h1.246s.017-.117.356-.18c.114-.415.235-.83.358-1.244h.352c-.128-.555-.4-.807-.533-1.424h.355v-.355h.358v-.71h-.532v-.358h-.358c-.052-.519-.492-1.019-.356-1.423.049-.143.533-.123.356-.889h-.18V159.77h.18v-.71c.009-.02.3-.1.358-.355h-.181a1.583,1.583,0,0,1-.356-.894c.12-.057.24-.115.356-.174v-.178c.121.06.24.12.355.178.117-.178.237-.356.358-.536h.177v.18h.178c.217.386-.2.911-.178,1.065h.178v.891l.358.178a.279.279,0,0,1-.177.355c.055.178.115.358.177.535h-.177c-.061.3-.121.591-.181.888h.358a6.357,6.357,0,0,1-.177,1.424h.352v.893c-.06.241-.2-.075-.175.178h.175v.708c-.008.051-.249.054-.175.359h.175v.352h.18c.078.295-.172.326-.18.358a3.432,3.432,0,0,0,.355,1.42v.183h.893c.332-.3,2.764-.372,3.556-.359.061-.175.121-.355.177-.533.545-.576.181-2.983.178-4.268a10.371,10.371,0,0,0-.355-2.847v-2.135h.177v-.177h-.177c-.06-.353-.117-.713-.177-1.069H256.9v-1.065h-.177c.061-.714.12-1.424.177-2.135h-.353a16.033,16.033,0,0,0-.535-2.67v-1.423h-.177v-1.423h-.181v-.893h-.172a2.573,2.573,0,0,1,0-1.421h-.18v-1.424h-.177v-.53h-.181c-.042-.207.27-.313.181-.716h-.181c.063-.235.123-.472.181-.71h-.181c-.057-.237-.118-.475-.175-.711H254.6a.47.47,0,0,1,.177-.535v-.18H254.6v-1.42h-.181v-.536h-.175c-.063-1.065-.12-2.135-.177-3.2h-.358c-.12.22-.284.246-.358.353v.356c-.117.063-.234.121-.358.178v.358c-.117.058-.232.117-.352.175a2.334,2.334,0,0,0-.891,1.426Z" transform="translate(-211.007 -38.98)" fill="#fff" fill-rule="evenodd"/>
          <path id="Path_1352" data-name="Path 1352" d="M231.723,143.485v.536c.845.27.167.181.53.711.178.061.356.12.536.178.593.441.08.633,1.243.713.422.381,1.3,0,1.957.175v.18c1.072.286,2.234-.527,3.025-.714.063-.177.123-.353.18-.532h.177v-.355h.178v-.356c.117-.057.237-.12.356-.178v-.535h-.178c.058-.177.118-.356.178-.533h-.178c-.061-.475-.118-.948-.178-1.424-.178-.115-.355-.235-.535-.355-.055-.177-.117-.355-.175-.533H238.3v-.177h-.177v-.177h-.177v-.358h-.18v-.535H237.6a2.122,2.122,0,0,1-.539-.888H236.7v-.358c-.831-.515-.928-1.621-2.134-1.777-.24.355-.476.711-.716,1.066h-.349c-.06.121-.123.238-.181.358-.238.06-.476.117-.714.175-.057.12-.115.237-.178.358h-.352v.178h-.356v.177h-.53v.178c-.773.32-.928-.147-1.072.89.323.383-.009,1.019.175,1.6h.181c.057.416.12.833.177,1.246.121.06.238.12.358.18.064.123.114.559.181.71.174.06.35.118.53.177Z" transform="translate(-212.684 -38.173)" fill="#fff" fill-rule="evenodd"/>
          <path id="Path_1353" data-name="Path 1353" d="M237.431,137.855v.535h-.177c-.2.2,0,.072-.356.178-.058.3-.118.593-.175.889.552.367.078.25.356.713.238.177.472.355.71.533v.713a4.683,4.683,0,0,1,0,3.914h.71c.283-.436.163-.111.535-.359.057-.115.118-.235.177-.355h.893c.055-.12.115-.235.177-.355h.532c.12-.18.241-.356.355-.535h.359c-.061-.118-.121-.238-.18-.358.24-.058.473-.117.71-.177.061-.117.123-.237.184-.356h.35c.229-.189.006-.444.183-.71.171-.057.353-.114.53-.177-.058-.12-.117-.238-.177-.356.2-.387.959-1.335.713-2.135h-.18c.06-.118.118-.237.18-.356-.359-.237-.713-.47-1.066-.711-.06-.177-.124-.355-.183-.535h-.885c-.12-.178-.241-.353-.359-.532h-.353c-.121-.18-.237-.358-.358-.535a2.885,2.885,0,0,0-1.424-.356v.18h-.35c-.06.117-.121.238-.181.353a3.01,3.01,0,0,1-1.247.89Z" transform="translate(-209.144 -38.057)" fill="#fff" fill-rule="evenodd"/>
          <path id="Path_1354" data-name="Path 1354" d="M228.733,138.51v.358h.175v-.18h.18c-.2-.2,0-.072-.355-.178Z" transform="translate(-213.428 -36.931)" fill="#0070c3" fill-rule="evenodd"/>
          <path id="Path_1355" data-name="Path 1355" d="M229.441,141.87h-.358a3.075,3.075,0,0,1,0,1.6h-.174v.711h-.178v1.068h-.18v1.779c-.123.063-.24.121-.358.18.06.353.118.708.181,1.066h-.181v1.066h-.18v.893h-.175v.711h-.177v1.6h-.175c-.061,1.126-.123,2.254-.178,3.377h-.181a2.378,2.378,0,0,1,.181,1.069h-.181c.057.418.118.833.181,1.247h-.181v.888a13,13,0,0,0-.532,4.8c-.061.355-.12.714-.181,1.069h.181c.356.421.436.318.891.178v.533c.567-.138.376-.267,1.065-.356v.356l.18-.177c.47.177.945.353,1.42.53v-.177h-.175c-.561,0,.533-.177.533-.177.449.352.983-.267,1.774,0v.177h.358v.177c.83.061,1.659.12,2.493.177.055-.177.115-.353.177-.53a4.409,4.409,0,0,0,.355-2.847h-.174v-.18c.117-.058.23-.117.349-.178.035-.249-.137.071-.175-.174V160.02h.175v-.181h-.175c.057-.177.121-.353.175-.532a.288.288,0,0,1-.175-.355h.175v-.358h.178c-.06-.768-.118-1.542-.178-2.311h.178c.253-1-.075-1.724.361-2.493-.12-.237-.237-.47-.361-.71.124-.06.241-.118.361-.178-.063-.355-.12-.71-.181-1.068h.535v-.178c-.177-.057-.353-.117-.535-.178v-1.243h.181v-.359h.177c-.06-.177-.12-.355-.177-.533h.177v.178h.535v-.353h-.535v-.178h-.177v-1.071h.177c-.06-.177-.12-.355-.177-.532h.177a.291.291,0,0,0-.177-.356c.057-.356.117-.711.177-1.066-.77-.18-1.544-.356-2.317-.535-.115-.178-.237-.355-.352-.533h-.358l-.35-.355v-.358c-.181-.117-.359-.235-.539-.352v-.359c-.12-.057-.237-.115-.358-.177v-.356l-1.24-1.069v-.353h-.183V140.8h-.177c-.175-.53-.353-1.068-.533-1.6h-.175v.889c-.118.06-.237.118-.356.18.057.117.12.24.18.353-.123.058-.238.118-.358.177,0,.253.16-.069.178.18-.058.3-.121.593-.178.886Z" transform="translate(-214.672 -36.558)" fill="#fff" fill-rule="evenodd"/>
          <path id="Path_1356" data-name="Path 1356" d="M223.289,141.636v.356h.18v-.356Z" transform="translate(-216.348 -35.254)" fill="#0070c3" fill-rule="evenodd"/>
          <path id="Path_1357" data-name="Path 1357" d="M245.029,144.3c.06.18.114.356.177.533h.181c-.06.178-.123.355-.181.536h.355c.06.177.117.356.178.533h-.178v.71c.011.051.237.057.178.356h-.178v1.069h.178c.058.413.12.831.18,1.246h-.18c-.1.359-.031.957.18,1.066v.177c-.215.277-.336-.192-.532.533h.708v.713a1.8,1.8,0,0,1-.708.177c-.2-.2,0-.071-.358-.177v.177c.2.2.069,0,.177.358h-.533a4.319,4.319,0,0,0-.177-.711h.177v-1.069H244.5c-.06-.177-.118-.355-.181-.533.121-.061.238-.118.358-.177v-.178H244.5c.057-.177.118-.355.177-.535h-.358c-.312-.187.358-.178.358-.178v-1.068h.533c-.063-.234-.117-.472-.177-.713-.177.061-.356.12-.533.181v-.181h-.181v-.177h.181c.2-.2,0-.071.353-.178v-.353c-.3.061-.592.118-.886.175.057-.295.118-.59.175-.886h-.175c-.058-.356-.12-.714-.175-1.069h.175v-.177c.352-.058.71-.117,1.066-.18Z" transform="translate(-205.355 -33.826)" fill="#0070c3" fill-rule="evenodd"/>
          <path id="Path_1358" data-name="Path 1358" d="M238.691,146.5v.358c.178-.06.356-.118.533-.18V146.5Z" transform="translate(-208.088 -32.646)" fill="#0070c3" fill-rule="evenodd"/>
          <path id="Path_1359" data-name="Path 1359" d="M239.038,146.848c.2.2,0,.068.355.175-.2-.2,0-.069-.355-.175Z" transform="translate(-207.902 -32.459)" fill="#0070c3" fill-rule="evenodd"/>
          <path id="Path_1360" data-name="Path 1360" d="M232.9,150.668c.2.2,0,.071.353.178-.2-.2,0-.072-.353-.178Z" transform="translate(-211.193 -30.411)" fill="#0070c3" fill-rule="evenodd"/>
          <path id="Path_1361" data-name="Path 1361" d="M238.923,153.449c.2.2,0,.069.353.178-.2-.209,0-.075-.353-.178Z" transform="translate(-207.964 -28.919)" fill="#0070c3" fill-rule="evenodd"/>
          <path id="Path_1362" data-name="Path 1362" d="M244.711,154.722c.2.2.072,0,.181.356h-.181v-.356Z" transform="translate(-204.86 -28.237)" fill="#0070c3" fill-rule="evenodd"/>
          <path id="Path_1363" data-name="Path 1363" d="M237.184,156.574c.206.2,0,.071.358.177-.2-.2,0-.069-.358-.177Z" transform="translate(-208.896 -27.243)" fill="#0070c3" fill-rule="evenodd"/>
          <path id="Path_1364" data-name="Path 1364" d="M230.932,159.58v.356h.177v-.356Z" transform="translate(-212.249 -25.631)" fill="#0070c3" fill-rule="evenodd"/>
          <path id="Path_1365" data-name="Path 1365" d="M240.707,161.2c-.183.544-.171.167,0,.714h.171a1.807,1.807,0,0,1,.183-.714Z" transform="translate(-207.078 -24.762)" fill="#0070c3" fill-rule="evenodd"/>
          <path id="Path_1366" data-name="Path 1366" d="M241.006,161.432v.359h.356v-.359Z" transform="translate(-206.847 -24.638)" fill="#0070c3" fill-rule="evenodd"/>
          <path id="Path_1367" data-name="Path 1367" d="M231.164,162.359a2.045,2.045,0,0,0,.178.89h.178v-.89Z" transform="translate(-212.125 -24.141)" fill="#0070c3" fill-rule="evenodd"/>
          <path id="Path_1368" data-name="Path 1368" d="M240.955,163.864c-.061.118-.121.237-.183.355.183-.058.359-.118.536-.175v-.18Z" transform="translate(-206.972 -23.334)" fill="#0070c3" fill-rule="evenodd"/>
          <path id="Path_1369" data-name="Path 1369" d="M232.415,165.227c-.18.057-.358.115-.536.175v.18c.178-.061.356-.118.536-.18.058.3.121.591.177.891a1.536,1.536,0,0,1-1.243.353c-.171-.32-.247-.28-.356-.71h-.174c.055-.355.114-.71.174-1.069h.356v-.355c.811-.031.762-.257,1.243-.532v.352h-.177v.894Z" transform="translate(-212.31 -23.271)" fill="#0070c3" fill-rule="evenodd"/>
          <path id="Path_1370" data-name="Path 1370" d="M236.258,163.981h.356v.175c-.356-.1-.154.021-.356-.175Z" transform="translate(-209.393 -23.271)" fill="#0070c3" fill-rule="evenodd"/>
          <path id="Path_1371" data-name="Path 1371" d="M235.565,164.906v.356h.177v-.356Z" transform="translate(-209.765 -22.775)" fill="#0070c3" fill-rule="evenodd"/>
          <path id="Path_1372" data-name="Path 1372" d="M240.194,164.906v.356h.358v-.356Z" transform="translate(-207.282 -22.775)" fill="#0070c3" fill-rule="evenodd"/>
          <path id="Path_1373" data-name="Path 1373" d="M232.23,166.9h-.358v-.356h-.53v-.18h-.178v-.175h.178v-.177h.708v-.177h.18v.528h-.18c.061.18.118.36.18.536Z" transform="translate(-212.125 -22.277)" fill="#0070c3" fill-rule="evenodd"/>
          <path id="Path_1374" data-name="Path 1374" d="M240.661,165.834v.353h.171v-.353Z" transform="translate(-207.032 -22.277)" fill="#0070c3" fill-rule="evenodd"/>
          <path id="Path_1375" data-name="Path 1375" d="M230.932,166.064c.2.2.075,0,.177.355h-.177v-.355Z" transform="translate(-212.249 -22.154)" fill="#0070c3" fill-rule="evenodd"/>
          <path id="Path_1376" data-name="Path 1376" d="M231.872,166.527v.356h-.708v-.178h.178v-.178Z" transform="translate(-212.125 -21.906)" fill="#0070c3" fill-rule="evenodd"/>
          <path id="Path_1377" data-name="Path 1377" d="M232.355,166.873c-.061.18-.118.356-.18.536h.18v1.423c-.118.058-.237.12-.358.178v.353c.178.063.358.123.535.18-.055.177-.118.36-.177.535.121.058.237.115.358.177.075.3-.171.315-.181.356.06.12.12.237.181.355h-.181c-.055.178-.118.356-.177.535a3.025,3.025,0,0,1-1.423-1.246c.545-.349.3-.831.177-1.423h.536v-.177c-.206-.2-.072,0-.178-.356-.564.023-.335.347-.535-.177h.356c.077-.94.177-.542-.18-1.249h.358v.18c.3-.057.593-.115.888-.18Z" transform="translate(-212.249 -21.72)" fill="#0070c3" fill-rule="evenodd"/>
          <path id="Path_1378" data-name="Path 1378" d="M231.4,170.464c.2.2,0,.072.352.178-.2-.2,0-.071-.352-.178Z" transform="translate(-212 -19.794)" fill="#0070c3" fill-rule="evenodd"/>
          <path id="Path_1379" data-name="Path 1379" d="M232.733,173.626H232.2v.177c-.2.2-.072,0-.18.358h-.71c-.436.74-.363.207-.888.532v.178c-.123.058-.237.118-.359.175v.358c-.117.061-.237.121-.353.177-.481.493-.23.521-1.247.533-.2.207,0,.069-.352.18.055.235.118.475.178.713-.241-.061-.481-.118-.716-.178.054.934.287.659.358,1.6a14.53,14.53,0,0,0,3.38.18h1.249v-.18h.886v-.177c.349-.069.668.338,1.244.177,1.117-.307,2.719-.487,3.914-.711a2.324,2.324,0,0,0,.358-1.423h.174v-.18a13.528,13.528,0,0,1-.174-3.378h-.358V172.2h-.181v.177c-.353-.057-.711-.115-1.068-.177v.177c-.355.061-.71.123-1.063.181a.493.493,0,0,0-.356-.358c-.06.12-.12.238-.177.358h-.714c-.057.118-.117.237-.174.356-.3.094-.332-.172-.358-.18H233.8v.18c-.748.247-.851-.066-1.065.711Z" transform="translate(-214.051 -18.863)" fill="#0070c3" fill-rule="evenodd"/>
          <path id="Path_1380" data-name="Path 1380" d="M239.751,172.789h.361c-.152.2.022.025-.178.178v.177c-.355-.061-.713-.118-1.068-.177h-.18v.177c-.77-.061-1.541-.118-2.312-.177q.088,2.046.178,4.091h.889v.178l1.068.178v-.178h1.957v.178l1.6-.178c1.966-.012,4.907.209,5.334-1.249-.35-.217-.43-.41-.528-.888-.65-.161-.854-.552-1.6-.714a4.191,4.191,0,0,0-.18-.708h.18v-.353h-.18v.177c-.2.2-.069,0-.177.356h-.355V173.5c-.18.057-.358.12-.533.177V173.5c-.591-.151-.885-.243-1.426-.356v-.355l-1.779-.18v.358a5.407,5.407,0,0,1-1.071-.535v.356Z" transform="translate(-209.331 -18.738)" fill="#0070c3" fill-rule="evenodd"/>
          <path id="Path_1381" data-name="Path 1381" d="M230.121,172.665c.224.34.18.292.713.355v-.177c-.237-.06-.476-.121-.713-.178Z" transform="translate(-212.684 -18.614)" fill="#0070c3" fill-rule="evenodd"/>
          <path id="Path_1382" data-name="Path 1382" d="M227.806,176.9c.2.2.072,0,.18.355h-.18V176.9Z" transform="translate(-213.926 -16.344)" fill="#0070c3" fill-rule="evenodd"/>
        </g>
        <g id="Group_77" data-name="Group 77">
          <path id="Path_1383" data-name="Path 1383" d="M213.385,103.46a36.047,36.047,0,1,1,36.049,36.047A36.045,36.045,0,0,1,213.385,103.46Z" transform="translate(-213.385 -67.413)" fill="#ffec00"/>
          <g id="Group_74" data-name="Group 74">
            <g id="Group_73" data-name="Group 73" clip-path="url(#clip-path-2)">
              <g id="Group_72" data-name="Group 72" transform="translate(-4.313 -3.419)">
                <line id="Line_39" data-name="Line 39" y2="80.54" transform="translate(40.27)" fill="none" stroke="#fff" stroke-width="0.299"/>
                <line id="Line_40" data-name="Line 40" x2="20.843" y2="77.803" transform="translate(29.85 1.369)" fill="none" stroke="#fff" stroke-width="0.299"/>
                <line id="Line_41" data-name="Line 41" x2="40.273" y2="69.746" transform="translate(20.134 5.397)" fill="none" stroke="#fff" stroke-width="0.299"/>
                <line id="Line_42" data-name="Line 42" x2="56.953" y2="56.951" transform="translate(11.795 11.798)" fill="none" stroke="#fff" stroke-width="0.299"/>
                <line id="Line_43" data-name="Line 43" x2="69.753" y2="40.27" transform="translate(5.394 20.137)" fill="none" stroke="#fff" stroke-width="0.299"/>
                <line id="Line_44" data-name="Line 44" x2="77.793" y2="20.843" transform="translate(1.376 29.85)" fill="none" stroke="#fff" stroke-width="0.299"/>
                <line id="Line_45" data-name="Line 45" x2="80.542" transform="translate(0 40.27)" fill="none" stroke="#fff" stroke-width="0.299"/>
                <line id="Line_46" data-name="Line 46" y1="20.843" x2="77.793" transform="translate(1.376 29.85)" fill="none" stroke="#fff" stroke-width="0.299"/>
                <line id="Line_47" data-name="Line 47" y1="40.267" x2="69.753" transform="translate(5.394 20.137)" fill="none" stroke="#fff" stroke-width="0.299"/>
                <line id="Line_48" data-name="Line 48" y1="56.953" x2="56.953" transform="translate(11.8 11.792)" fill="none" stroke="#fff" stroke-width="0.299"/>
                <line id="Line_49" data-name="Line 49" y1="69.748" x2="40.273" transform="translate(20.134 5.396)" fill="none" stroke="#fff" stroke-width="0.299"/>
                <line id="Line_50" data-name="Line 50" y1="77.797" x2="20.849" transform="translate(29.85 1.369)" fill="none" stroke="#fff" stroke-width="0.299"/>
              </g>
            </g>
          </g>
          <g id="Group_75" data-name="Group 75" transform="translate(44.98 54.411)">
            <path id="Path_1384" data-name="Path 1384" d="M247.032,103.657l-2.755,7.05,1.4.547,3.3-8.424Z" transform="translate(-241.798 -102.83)" fill="#0067b1" stroke="#0067b1" stroke-linejoin="round" stroke-width="0.409"/>
            <path id="Path_1385" data-name="Path 1385" d="M252.693,110.453l-7.045-3.594-.68,1.337,5.929,3.021Z" transform="translate(-241.428 -100.67)" fill="#0067b1" stroke="#0067b1" stroke-linejoin="round" stroke-width="0.409"/>
            <rect id="Rectangle_172" data-name="Rectangle 172" width="1.502" height="10.603" transform="translate(0 3.069) rotate(-23.184)" fill="#0067b1" stroke="#0067b1" stroke-linejoin="round" stroke-width="0.409"/>
          </g>
          <g id="Group_76" data-name="Group 76" transform="translate(32.76 59.079)">
            <rect id="Rectangle_173" data-name="Rectangle 173" width="1.502" height="10.608" transform="translate(0 0)" fill="#0067b1" stroke="#0067b1" stroke-linejoin="round" stroke-width="0.409"/>
            <path id="Path_1386" data-name="Path 1386" d="M237.732,105.869h-2.241v1.5h2.241a3.845,3.845,0,0,1,0,7.606h-2.241v1.5h2.241a5.332,5.332,0,0,0,0-10.608Z" transform="translate(-234.29 -105.869)" fill="#0067b1" stroke="#0067b1" stroke-linejoin="round" stroke-width="0.409"/>
          </g>
          <path id="Path_1387" data-name="Path 1387" d="M233.354,105.918l-4.994,3.5-.036-6.093-1.5-.776.053,8.122-1.571,3.027,1.332.689,1.566-3.023,6.66-4.659Z" transform="translate(-206.995 -48.571)" fill="#0067b1" stroke="#0067b1" stroke-linejoin="round" stroke-width="0.409"/>
        </g>
        <g id="Group_78" data-name="Group 78" transform="translate(8.576 13.937)">
          <path id="Path_1388" data-name="Path 1388" d="M229.541,108.74a27.966,27.966,0,0,1-1.632-3.326c0-.387-1.1-4.924-1.1-4.924l-.049-3.894-4.176-.991-1.02-2.675L221.944,91l2.426-1.884,3.733.284s2.251-4.524,2.3-4.744,8.433-5.584,8.433-5.584,10.2-.123,10.745-.132S258.5,81.68,258.5,81.68l5.271,5.2,1.658,5.517,1.63-.733a16,16,0,0,1,1.513,2.341c.061.384.042,3.237.042,3.237l-3.212,1.9-1.254.4-2.086,4.521-2.245,5.291-4.506,3.673-5.3,2.039-6.134,1.28-7.694-1.882-4.208-3.458Z" transform="translate(-217.574 -75.171)" fill="#fff" fill-rule="evenodd"/>
          <path id="Path_1389" data-name="Path 1389" d="M260.135,80.221c0,.108.006.22.006.33a8.935,8.935,0,0,1,2.355,2.134c.171.112.335.221.5.33,0,.164.006.333.006.5.172.108.335.218.505.329,0,.161,0,.333.006.5.052,0,.108,0,.164,0,.057.111.117.22.172.332.106,0,.223,0,.332-.006.214.183.015.4.178.665l.326.164c.009.111.009.221.012.333.275.218.558.435.839.651,0,.169,0,.335,0,.5l.168,0c0,.108,0,.22,0,.33h.167c0,.166,0,.333,0,.5.058,0,.112,0,.172,0,.06.444.121.886.183,1.33.051,0,.106,0,.164,0v.333h.169q.177.913.352,1.824h.168c0,.221,0,.442.009.664.061.129.21.006.343.5a3.652,3.652,0,0,1,1.827-.022q0,.249,0,.5c1.066.215.716.595,1.18,1.317.114.054.223.111.338.164,0,.111,0,.22,0,.333l.164,0a3.786,3.786,0,0,1,.358,1.994l-.169,0c-.051.33-.1.664-.152,1-.055,0-.111,0-.168,0,0,.111,0,.221,0,.333-.057,0-.111,0-.163,0,0,.108,0,.22,0,.332h-.169c-.164.226-.326.449-.493.673-.109,0-.217,0-.327,0-.275.395-.548.785-.819,1.175-.169,0-.33,0-.5.008-.055.111-.108.221-.161.335-.112,0-.223,0-.332,0v.167c-.873.343-1.129-.292-1.659.518l-.161,0c-.055.332-.106.664-.158,1-.109.057-.218.117-.332.174-.045.444-.1.888-.147,1.329a1.549,1.549,0,0,1-.169.006c0,.166,0,.333,0,.5-.051,0-.106,0-.164,0,0,.166.006.333.008.5-.164.112-.329.226-.5.338-.051.39-.1.777-.152,1.166l-.166,0a5.888,5.888,0,0,0-.645,1.507c-.114,0-.223,0-.336,0,0,.167.009.332.009.5l.831.158v.164c.449.051.891.1,1.341.152v.164c.332.109.667.215,1,.323v.167c.112,0,.224,0,.332,0,0,.055,0,.112,0,.163.167.054.335.111.5.161,0,.169,0,.335.009.5l.164,0v.166l.5,0c0,.111.006.223.006.335.223-.006.444-.009.667-.009.422.661,1.267.611,1.519,1.478.049,0,.1,0,.158,0,0,.171.006.336.006.5.462.115.376.04.507.493.057,0,.111,0,.167,0,0,.223,0,.444,0,.665-.109,0-.221.006-.33.006,0,.112,0,.221,0,.332.109,0,.221,0,.332,0,.061.5.121,1,.183,1.5-.109.057-.217.112-.329.167.058.166.115.333.171.5l-.166,0c0,.164.006.333.009.5.459.114.375.04.505.492-.224,0-.446.008-.665.008l-.323,1c-.226,0-.446.006-.664.006,0,0,0,.341-.167.171,0-.112,0-.224,0-.335-.111,0-.221,0-.336,0,.209.353.381.359.51.827q-.412.092-.828.177v-.164h-.167c0,.058,0,.115,0,.171q-.588.085-1.168.178v-.167l-.167,0v.164c-.332,0-.664.011-1,.014,0-.055,0-.112,0-.167-.109,0-.22,0-.329,0,0-.057,0-.112,0-.166l-2.008-.642c-.109-.166-.224-.333-.336-.5-.111,0-.22,0-.33,0-.115-.218-.232-.439-.343-.661-.109,0-.221,0-.336,0-.052-.109-.111-.218-.166-.33-.055,0-.111,0-.166,0-.117-.33-.232-.661-.347-.994-.167-.108-.335-.218-.5-.327,0-.111-.008-.221-.008-.335l-.333-.16c0-.112,0-.223,0-.333l-.166,0c-.057-.221-.115-.442-.177-.662-.055,0-.109,0-.167,0-.008-.833-.02-1.667-.026-2.5-.114,0-.223,0-.333,0a1.287,1.287,0,0,1-1.152,1.014c-.115.462-.041.373-.5.505,0,.111,0,.221,0,.332a4.646,4.646,0,0,0-1.486.684c-.112.169-.218.335-.324.5-.175,0-.338,0-.5.008-.052.112-.112.223-.163.333-.169,0-.332,0-.5,0-.052.111-.108.226-.161.336-.169,0-.332,0-.5.006-.111.164-.221.333-.329.5-.276,0-.553,0-.833.011,0,.055,0,.112,0,.167-.221.055-.444.114-.665.172v.167c-.33.06-.664.118-.994.177-.055.112-.108.226-.16.336-.223,0-.446,0-.671.009-.049.112-.1.221-.16.335-.389,0-.774.009-1.163.014v.164c-.111,0-.221,0-.333,0,0,.058,0,.111,0,.169-.164,0-.329,0-.5.006,0,.055,0,.109,0,.166-.283-.054-.559-.1-.834-.158-.057.114-.114.224-.167.335-.653.383-1.255.184-2.157.361v.166l-.164,0v-.166l-.667.008c0-.055,0-.111,0-.164q-.5.088-1,.177v-.166c-.226-.011-.275.286-.668.175,0-.058,0-.112,0-.167-.108,0-.22,0-.333,0v-.166c-.218-.02-.272.267-.664.172,0-.054,0-.112,0-.166l-2.662-.134c-.058-.112-.118-.223-.169-.332a4.644,4.644,0,0,0-1.509-.647c0-.167,0-.333,0-.5-.344.1-.315.226-.664.008,0-.054,0-.111-.006-.164l-.5-.16c-.054-.111-.112-.221-.172-.332l-.33.171v-.166c-.224-.055-.444-.106-.671-.16-.058-.166-.114-.33-.169-.5l-1-.155c0-.111,0-.221,0-.332-.169-.054-.341-.108-.505-.161,0-.055,0-.111,0-.166-.452-.384-.86-.991-1.507-1.146a1.524,1.524,0,0,1-.006-.166c-.226-.074-.022.068-.161.167-.862.412-.407.336-.82,1.008-.114.057-.223.114-.332.172,0,.109,0,.223,0,.332-.054,0-.108,0-.164,0,0,.109,0,.22,0,.33l-.161,0c-.114.171-.22.336-.333.5-.108,0-.221.006-.33.006-.054.167-.106.333-.16.5-.109,0-.223,0-.335,0,0,.112.006.224.006.335l-.169,0c-.286.329-.378.146-.659.34-.111.167-.221.338-.326.5-.114,0-.223,0-.335,0-.055.111-.106.224-.163.336-.109,0-.221,0-.332,0v.167c-.166,0-.33,0-.5.008-.1.166-.215.332-.321.5-.333.061-.665.12-1,.178,0,.055,0,.111,0,.166-.332.117-.665.23-1,.347,0,.055,0,.111,0,.167-.223,0-.444,0-.665,0v.167c-.492.078-.4-.3-.5-.327a8.788,8.788,0,0,1-2,.191c-.671-.212-1.338-.426-2.006-.639a4.259,4.259,0,0,1-1.022-2.318c.051,0,.108,0,.163,0,.049-.28.1-.556.154-.834.055,0,.112,0,.169,0-.006-.166-.006-.333-.006-.5.108-.06.22-.117.333-.174l-.009-.5.167,0c0-.164,0-.333-.006-.5.111-.057.221-.117.327-.174.306-.47.192-.667.827-.84,0-.109,0-.221-.006-.333.22-.112.441-.224.662-.341.055-.166.106-.332.161-.5l.327-.336c.112,0,.223,0,.332,0,.166-.221.327-.449.492-.67.112.054.226.108.332.163,0-.166,0-.335,0-.5.112,0,.223,0,.332,0,0-.111,0-.22,0-.33a4.97,4.97,0,0,0,1.49-.687v-.164q.408-.092.828-.177a6.522,6.522,0,0,1,2.821-.7c-.115-.5-.237-1-.35-1.5l-.166,0c0-.115-.006-.226-.006-.335-.054,0-.109,0-.164,0l-.187-1.5a.285.285,0,0,0,.163-.336c-.055,0-.111,0-.164,0,0-.28-.009-.556-.009-.834-.112-.054-.224-.108-.336-.163a.242.242,0,0,1,.164-.335q-.26-.744-.519-1.49c.055,0,.111,0,.166,0,0-.278-.008-.555-.009-.833-.057,0-.112,0-.166,0q-.007-.664-.015-1.332h.161a.942.942,0,0,0-.171-.831l.33,0c0-.166,0-.33,0-.5-.241.014.065.128-.167.169-.14.316-.171-.332-.171-.332.187-.19.065,0,.166-.333a4.333,4.333,0,0,1-2.329.359v-.163c-.166.055-.333.114-.5.171,0-.055,0-.111,0-.166a2.323,2.323,0,0,1-1.685-1.813c-.221,0-.442.008-.667.009v-.166c.055,0,.115,0,.166,0,.1-.189.008-.332-.171-.33v-.166c.109,0,.218,0,.33,0,0-.112,0-.223,0-.333-.163.006-.332.006-.5.008-.011-.665-.015-1.335-.023-2,.164,0,.333,0,.5,0,0-.054,0-.111,0-.166-.194-.187-.069,0-.169-.332.1,0,.217,0,.33,0v-.167h.163c0-.169,0-.333-.008-.5h.166c0,.112,0,.223,0,.333l.34.16c-.058-.163-.118-.327-.172-.495.163-.054.329-.115.495-.172,0-.055,0-.111,0-.166.166,0,.333,0,.5-.008,0-.054,0-.112,0-.166-.054,0-.108,0-.163,0,.051-.224.1-.447.158-.668l.5-.172a1.463,1.463,0,0,0-.006-.164c.112,0,.217,0,.33-.006V90.13c.556-.061,1.106-.123,1.662-.187v-.166c.446.049.888.1,1.332.152v.164c.114,0,.226,0,.333,0,0,.058,0,.115,0,.169l.833-.178c.114-.461.042-.373.495-.5-.057-.166-.115-.332-.174-.5l.169,0c0-.221-.009-.442-.009-.667.054,0,.108,0,.163,0,0-.167-.006-.33-.006-.5.057,0,.114,0,.169,0,.049-.221.1-.444.155-.665.058,0,.112,0,.172,0-.006-.109-.006-.22-.006-.333.106-.058.218-.114.329-.169,0-.112,0-.221,0-.333.167-.111.326-.227.495-.338,0-.057,0-.109,0-.169-.054,0-.111,0-.164,0,.049-.389.1-.777.148-1.166l.336,0c.206-.39.579-.524.825-.84.051-.169.106-.338.158-.5.112,0,.221,0,.332,0,0-.114,0-.226,0-.335.112,0,.221,0,.332,0,.055-.166.106-.335.161-.5l.164,0c0-.054,0-.111,0-.166l.836-.011c-.058-.111-.115-.221-.172-.332.166-.112.33-.226.5-.34q0-.083,0-.166l.335,0c0-.057,0-.112,0-.167.111,0,.221,0,.332-.006.112-.169.218-.333.327-.5.277-.06.553-.121.831-.178.161-.224.326-.446.492-.673q.493-.173,1-.344c.054-.112.106-.223.161-.335.109,0,.221,0,.33,0v-.167c.166,0,.332,0,.5,0,.051-.111.1-.221.161-.336.112,0,.221,0,.333,0,0-.055,0-.111,0-.164.109,0,.221,0,.333,0l.329-.34c.111,0,.223,0,.333,0,.051-.114.106-.224.161-.336.277-.006.559-.008.831-.009v-.167c.164,0,.333-.006.5-.006v-.166c.109,0,.221,0,.33,0v-.166c.275-.006.556-.008.828-.011v-.167c.057,0,.112,0,.167,0a.272.272,0,0,0,.333.166v-.167c.221,0,.446,0,.665-.009v-.166c.055,0,.108,0,.166,0a.269.269,0,0,0,.332.164v-.166c.495-.008,1-.015,1.5-.02,0-.055,0-.109,0-.166.223,0,.442,0,.665-.008a1.534,1.534,0,0,1,.006.167c.051,0,.106,0,.163,0v-.167c.387,0,.776-.009,1.163-.012V76.7c.161.054.333.109.5.16,0-.052,0-.111,0-.164.333,0,.667-.006,1-.012v-.167l.335.163c.233-.015.263-.263.664-.174a.433.433,0,0,0,.5.161c0-.057,0-.111,0-.167.39,0,.78-.008,1.171-.015,0,.055,0,.111,0,.167.714.209.994-.34,1.662-.02-.051.111-.106.221-.163.335.5.1,1,.21,1.5.312.115.167.226.333.341.5.167,0,.333,0,.5,0v.166c.057,0,.109,0,.164-.006.083-.065-.043-.269.169-.167.055.112.117.223.166.333.112,0,.224,0,.335,0a1.506,1.506,0,0,0,.006.166c.106,0,.22,0,.332,0v.166c.166,0,.33-.006.5-.008.118.166.227.332.34.5a9.039,9.039,0,0,0,1.344.817V79.9a1.387,1.387,0,0,0,.667.324Zm-30.34,23.164c.175,1.054.356,2.106.535,3.156.115.055.224.111.335.164,0,.167,0,.332.008.5l.164,0c.006.111.006.221.006.332h.167c0,.111,0,.22,0,.332.169.109.332.218.5.326,0,.111,0,.223,0,.333.171.109.338.22.5.329v.332l.172,0c.06.278.115.553.174.83.112,0,.223,0,.338,0,.246.879.859.633,1.015,1.653.783.163.836.595,1.344.985,0,.052,0,.109,0,.164.108,0,.221,0,.332,0,0,.167,0,.332,0,.5a1.368,1.368,0,0,1,.673.323v.169c.112,0,.223,0,.335,0,.054.108.114.22.167.33l.665.157c.06.111.115.22.174.33.164,0,.332,0,.5-.006v.166c.172.054.34.108.5.161.058.111.117.221.172.332.277.054.555.1.833.157.06.111.115.22.171.33.224.052.444.106.67.158,0,.054,0,.111,0,.166l.332,0c.055.111.115.22.175.332.383.048.774.1,1.163.152v.166l2.331-.2v.169q1.254.067,2.5.137v-.171c.278,0,.556,0,.831-.006v-.164c.495-.065.994-.123,1.5-.186.051-.112.1-.224.16-.336.111,0,.223,0,.333,0V115.8l2.323-.53c.052-.111.108-.223.161-.333.223,0,.447,0,.67-.006a1.627,1.627,0,0,0-.006-.171c.277-.057.555-.114.83-.177v-.163c.111,0,.221,0,.332,0,0-.057,0-.111,0-.167.169,0,.333,0,.5-.008.054-.108.1-.221.16-.333.114,0,.227,0,.336,0,.054-.109.109-.223.161-.333.109,0,.22,0,.332,0,0-.057,0-.112,0-.169l1-.344c.055-.112.108-.223.163-.333.111,0,.22,0,.333,0,0-.057,0-.111,0-.167l.333,0c.273-.335.544-.673.817-1.008.169-.057.332-.115.5-.172,0-.112,0-.223,0-.335.307-.421.651-.332.822-1.006.111,0,.223,0,.332-.008v-.163a3.75,3.75,0,0,0,.49-.671c.058,0,.109,0,.169,0,0-.112-.006-.224-.006-.335.112,0,.223,0,.332,0,0-.111,0-.223,0-.332.111,0,.223,0,.332,0,0-.164,0-.333-.008-.5h.169c.258-.379.513-.492.653-1.006.111,0,.221,0,.332,0,.038-.7.313-.744.484-1.172-.057-.109-.112-.221-.171-.332h.167c.109-.332.214-.67.321-1l.167,0c0-.111,0-.221-.006-.332.111-.057.224-.112.333-.169.134-.22.392-1.092.149-1.168l.668-.008c0-.112,0-.221,0-.335-.055-.131-.359-.057-.34-.326.055,0,.112-.006.172-.006,0-.108,0-.221-.008-.332h.169c0-.111-.006-.223-.006-.332.057,0,.114,0,.167,0,0-.444-.012-.886-.014-1.332.109-.057.217-.112.332-.167-.008-.332-.017-.667-.017-1,0,0,.106-.008.163-.336.111,0,.221,0,.332,0-.057-.221-.114-.441-.171-.664.187-.141.023.021.161-.166.515.155.163.152.667-.009-.192-.189,0-.066-.336-.164,0-.166,0-.332-.006-.495-.167,0-.332,0-.495,0,.046-.891.085-1.777.132-2.667.163-.111.33-.227.493-.338.191-.533-.284-.533-.338-.664,0-.22,0-.444-.006-.664h-.171c-.252-.839.269-1.1.309-1.831-.164-.055-.33-.108-.5-.161-.063-.278-.115-.553-.177-.833.111,0,.224,0,.333,0,0-.111,0-.217,0-.329l-.5,0c-.186-.344-.273-.29-.343-.83a1.785,1.785,0,0,1-.839-.32v-.167c-.109,0-.221,0-.333,0,0-.052,0-.111,0-.166-.247-.22-.23-.077-.336-.495-.169-.052-.333-.106-.5-.16,0-.057,0-.111,0-.166-.111,0-.223,0-.332,0l-.171-.332c-.335-.106-.67-.212-1-.321-.226-.273-.453-.548-.673-.822l-.333,0c-.06-.109-.114-.218-.175-.33-.278-.051-.558-.1-.833-.157,0-.055,0-.111,0-.166-.164,0-.333,0-.5.006V85.07c-.115,0-.224,0-.333,0v-.166c-.115,0-.224,0-.338.006-.054-.111-.111-.223-.169-.333-.166,0-.333.006-.5.008,0-.055,0-.114,0-.167-.109,0-.221,0-.33,0,0-.055,0-.112,0-.167-.223-.054-.446-.1-.668-.16v-.164c-.281-.051-.559-.106-.834-.157,0-.055,0-.111,0-.166-.109,0-.221,0-.333,0v-.167c-.275,0-.556.009-.834.012,0-.058,0-.112,0-.167-.221,0-.442,0-.664.006,0-.057,0-.111,0-.163-.779.006-1.556.017-2.329.023,0-.052,0-.111-.006-.164-.221,0-.441,0-.661.009a1.55,1.55,0,0,1-.006-.167q-1.081.094-2.16.192c0-.054,0-.112,0-.166-.277,0-.556.009-.833.011,0-.055,0-.112,0-.167l-.5,0v-.166c-.224,0-.445.008-.664.009,0-.057,0-.112,0-.166a3.823,3.823,0,0,0-2,.356c-.444,0-.883.009-1.332.017a1.438,1.438,0,0,0,.006.164c-.172,0-.34,0-.5.008,0,.054,0,.111,0,.166-.166,0-.332,0-.5.008v.164c-.1,0-.22,0-.327,0v.171q-2.081.272-4.154.548v.164l-.333,0v.166c-.163,0-.329.006-.5.008-.161.223-.329.449-.487.67l-.67.011c-.054.111-.1.223-.16.333l-.5.172v.167c-.273.058-.553.117-.828.177-.111.167-.22.335-.326.5l-.335,0c-.217.283-.439.562-.656.843h-.163c0,.167,0,.335.006.5-.115.058-.226.115-.332.172,0,.111,0,.22,0,.332-.057,0-.112,0-.166,0-.054.277-.1.558-.155.834-.111.055-.224.112-.332.171,0,.275,0,.555.011.83-.277.226-.55.452-.825.678a1.65,1.65,0,0,1,.178.828c-.057,0-.114,0-.169,0-.049.389-.1.776-.154,1.166l-.167,0c0,.223.008.444.014.667l-.169,0c0,.112,0,.224,0,.33-.055,0-.112,0-.167,0,0,.221,0,.444.006.665-.054,0-.108,0-.163,0v.332c-.055,0-.106,0-.166,0-.045.777-.089,1.553-.138,2.332-.057,0-.108,0-.164,0a17.42,17.42,0,0,0,.038,3.16q.007.915.02,1.83l.167,0c.26.811-.2,1.114.35,1.326Zm33.9-18.048c0,.111,0,.221,0,.333.057,0,.114,0,.167,0,0-.109,0-.221-.006-.33Zm.846,1.154c0,.167,0,.332.006.5.054,0,.109,0,.166,0,0-.221,0-.444-.006-.665-.221,0-.444,0-.671.009,0,.055,0,.111.008.166l.5-.006Zm-33.285.4c.194.184,0,.065.338.16-.194-.187,0-.066-.338-.16Zm5.841,1.261c0-.166,0-.336,0-.5a2.538,2.538,0,0,1,1.5-.349,4.844,4.844,0,0,1,2.828-.2c.057.111.109.223.167.329.108-.054.223-.109.33-.166.066.538.157.489.341.828l-.33,0c-.054.112-.108.223-.161.333-.779.009-1.553.022-2.329.029a2.268,2.268,0,0,1-1.5.186c-.055-.109-.111-.221-.169-.332-.223-.054-.446-.1-.671-.157Zm17.3-.71c0,.277.006.556.011.833-1.062.232-3.5.369-4.165-.284-.229-.19-.257-.3-.34-.662.343-.186.29-.269.828-.341.323.221.968-.253,1.665-.02.121.041.074.37.338.329a.514.514,0,0,1,.658-.341c0,.055,0,.111,0,.166a1.319,1.319,0,0,0,1,.321Zm-28.014,9.491c0,.112,0,.223.008.333.109,0,.223,0,.332,0,0-.055,0-.111,0-.166a4.6,4.6,0,0,0,.667.158c.055-.164.108-.335.163-.5-.481-.532.53-3.248.618-4,.111,0,.221-.006.335-.006,0-.109-.006-.221-.006-.332l.166,0c.025-.234-.117.066-.171-.166,0-.223,0-.444,0-.665-.3-.154-.264-.227-.671-.323,0-.115,0-.224,0-.336-.381-.015-.436-.132-.668-.155,0,.054,0,.111,0,.164a10,10,0,0,0-1.326.516v.164c-.111,0-.221,0-.329,0v.166c-.244.141-.668.131-.83.343,0,.112,0,.223,0,.333l-.166,0c.006.115.006.221.006.336-.115.055-.22.114-.336.169q-.071.417-.157.833c-.051,0-.111,0-.16,0,.172.664.346,1.33.519,1.994.224.161.45.326.67.49,0,.055,0,.111,0,.166a3.641,3.641,0,0,0,1.338.482Zm13.744-5.99c.389.052.777.1,1.169.154.223.275.449.547.673.82-.054,0-.108,0-.164,0-.326.386-.925.361-1.662.35-.057-.163-.112-.332-.171-.493h-.167c-.2-.4.226-.648.323-.836Zm11.653.192c.387,0,.777-.011,1.164-.014v.332c.227.109.45.218.676.326a1.722,1.722,0,0,0-.163.668c-.443,0-.885.011-1.327.014-.338-.493-.472-.149-.677-.822.287-.191.224-.108.327-.5Zm13.144-.158c.112,0,.223,0,.333,0,0,.112,0,.223.008.333-.114,0-.223,0-.333,0,0-.111,0-.223-.008-.333Zm1.933,8.3c.28-.055.555-.115.828-.175.232-.916.807-.484.828-.505.172-.183-.147-.217.327-.5l-.171-.166v-.167h.167c-.006-.278-.006-.555-.012-.833.167,0,.335-.006.5-.006v-.166c.055,0,.106,0,.161,0,0-.169,0-.333,0-.5l-.164,0c-.06-.386-.124-.774-.186-1.161-.227-.527-.811-.739-1.012-1.487a1.945,1.945,0,0,0-.831.178,2.075,2.075,0,0,1,.015,1.164c-.057,0-.112,0-.167,0,0,.39.011.776.012,1.165l-.166,0c-.14.539.234.827.183,1.161-.057,0-.112,0-.167,0q-.071,1-.143,2Zm-20.032-4.75c.006.111.006.224.008.335-.055,0-.112,0-.167,0,.055.112.114.22.172.33l-.167.166h.335v.164c-.055,0-.109,0-.167,0,0,.057,0,.111,0,.167-.278.057-.556.117-.831.177-.052.111-.109.223-.163.335-.111,0-.22,0-.335.006-.052.109-.1.221-.161.333-.054,0-.109,0-.164,0,0,.111,0,.221,0,.332l-.166,0c.109.581.19.458.009,1,.221.052.447.106.67.157,0,.057,0,.111,0,.167.055,0,.109,0,.166,0,0-.057,0-.112,0-.167.218,0,.441,0,.667-.009,0-.052,0-.109,0-.166.224-.057.446-.117.664-.174v-.166c.275,0,.556-.006.828-.012.058.166.118.333.174.5.112,0,.226,0,.332,0a1.29,1.29,0,0,1-.484,1.006v.164a9.507,9.507,0,0,1-2.827.2v-.167c-.111,0-.221,0-.336,0v-.167c-.164,0-.332.006-.5.008-.114-.166-.224-.33-.341-.495-.169-.055-.336-.108-.5-.16v-.335c-.369-.3-.358-.791-.352-1.495.453-.418.232-.8.988-1.009.094-.335-.021-.144.161-.335.495-.627,1.324-.7,2.486-.7Zm18.051,6.108c0,.111,0,.221,0,.33.169-.055.329-.112.495-.172,0-.051,0-.108,0-.163-.163,0-.329,0-.495,0ZM250.591,102.8c.055.28.117.555.177.83-.4.267-.1.189-.329.507l-.658.5v.333c-.052,0-.109,0-.164,0-.111.167-.215.335-.329.5-.108.006-.218.006-.329.008v.166c-.332.192-.4.035-.662.341a9.521,9.521,0,0,1-2.659.031c0-.057,0-.108,0-.166-.166,0-.333,0-.5.006,0-.055,0-.111,0-.167-.109,0-.221,0-.333,0v-.166c-.281-.051-.561-.1-.834-.157,0-.055,0-.111,0-.166a1.414,1.414,0,0,0-.67-.326c0-.109,0-.22-.006-.332l-.332-.164c0-.221,0-.444-.008-.665.186-.14.023.023.164-.169.164.054.332.108.5.16.112.167.229.332.338.5.223,0,.444-.006.671-.008v.164c.166,0,.332,0,.495,0,.058.112.114.218.174.327.665.051,1.334.1,2,.144.29-.447.662-.389.82-1.008.111,0,.223,0,.336,0,.157-.664.677-.82.979-1.341a8.161,8.161,0,0,0,1.171.315Zm18.419,9.1c.111,0,.217,0,.33,0,0-.055,0-.112,0-.166-.191-.141-.025.02-.166-.166-.057,0-.111,0-.166,0,0,.112,0,.223,0,.332Zm2.063,5.635c.111,0,.22,0,.332,0,0,.052,0,.108,0,.164-.335-.091-.143.025-.335-.161Z" transform="translate(-218.967 -76.485)" fill="#0070c3" fill-rule="evenodd"/>
        </g>
      </g>
    </g>
  </g>
</svg>
