<svg xmlns="http://www.w3.org/2000/svg" width="86.13" height="150.421" viewBox="0 0 86.13 150.421">
  <g id="Group_29" data-name="Group 29" transform="translate(-1484.12 -445.839)">
    <path id="Path_818" data-name="Path 818" d="M1506.753,510.089c.028.666.519,2.5.188,3.427h.192v-.193c.163-.361.19.381.19.381-.125.066-.254.126-.382.194v.188h.192v.569h.19v1.717h.191v.379c.125.064.254.129.38.189-.011.275-.145-.072-.194.194a4.121,4.121,0,0,1-.568,1.522,1.376,1.376,0,0,0,.761-.19v.19c.5.505.232,1.169,0,1.715h.569v1.33c.876.4.663.629,1.142,1.333h.193a1.339,1.339,0,0,1,.38.954,4.264,4.264,0,0,1,1.335.758c.062.13.123.256.189.384h.382c.126.189.253.38.378.566h.385v.2h.378v.194c.75.406,1.47.4,1.714,1.33.885.254,1.779.505,2.666.762.065.124.129.255.191.384h.379v.189c.508.06,1.018.125,1.526.186v.193h.759v.19h.573v.191h.76v.193a.31.31,0,0,0,.383-.193h.189v.193h2.094v.185h.764v.193h.376v.189q1.244-.188,2.477-.381v.193h2.283v-.193h1.909V529.7h1.332v-.193h.764v-.191h.377v-.19c.383-.066.764-.126,1.144-.193v-.186c.637-.065,1.27-.126,1.9-.189v-.191h.378c.066-.129.134-.259.2-.382h.382l.569-.765h.383c.189-.254.378-.505.568-.758h.383c.193-.254.382-.513.57-.768.562-.4.938-.355,1.141-1.136h.384a1.909,1.909,0,0,1,.573-.951h.188v-.382c.124-.067.255-.129.381-.194v-.19l.38-.189v-.38c.126-.061.254-.126.38-.191.126-.383.256-.762.38-1.142.129-.062.255-.128.38-.189v-.573h.191c.063-.256.127-.509.189-.764h.191c.066-.254.126-.5.19-.759.13-.06.255-.129.382-.19v-.573h.19v-.378h.189v-.764a11.637,11.637,0,0,0,.764-3.429c-.383-.063-.764-.124-1.143-.193-.043.016-.058.283-.382.193v-.193h-.382c-.061-.121-.126-.254-.189-.377h-.952v-.189a5.459,5.459,0,0,1-.951-.759h-.191v-.383c-.656-.746.243-1.088.191-1.335h-.191v-.757h.191c.117-.447-.23-.529-.191-.765h.191v-.761h.19v-.952h.19v-.575h.19c-.064-.378-.128-.758-.19-1.138h.19v-.2h-.19v-.756h.19q-.1-.859-.19-1.717c-.232-.752-.714-2.755-.38-3.424-.191-.511-.379-1.016-.572-1.527h.192c-.1-.292-.309-.259-.381-.378v-.379h-.191a5.4,5.4,0,0,1-.571-1.526h.187v-.383h-.381c-.064-.505-.123-1.018-.185-1.521-.193-.126-.382-.255-.574-.379-.062-.256-.127-.509-.189-.764-.189-.125-.382-.255-.569-.38v-.379c-.2-.131-.385-.256-.574-.383v-.193h-.572v-.188c-.254-.065-.505-.125-.759-.191v-.186h-.574c-.062-.129-.126-.259-.192-.383-.441-.131-.887-.255-1.331-.384v.191c-.891-.063-1.78-.129-2.665-.191v.191c-.448-.063-.889-.129-1.332-.191v-.189c-.191-.061-.382-.129-.575-.193v.193h-.758v.189a3.091,3.091,0,0,1-1.715,0c-.1.059-.082.3-.38.384v-.193h-.191v.193c-.57-.066-1.145-.131-1.715-.193v.193a13.1,13.1,0,0,1-4-.193,3.311,3.311,0,0,1-.764.193c-.443-.066-.887-.131-1.331-.193v.193c-.442.06-.885.124-1.332.186v.2c-.411.305-.564.606-1.142.758-.062.189-.126.383-.193.572h-.191V492c-.126.064-.255.121-.379.189v.383c-.126.06-.257.125-.383.188v.573c-.123.064-.253.124-.38.191v.567h-.189v.383h-.191c-.066.255-.124.509-.191.763h-.188v.573h-.191v.378c-.126.063-.259.129-.382.194-.062.313-.126.632-.188.95-.127.065-.253.129-.38.189v.574h-.194c-.065.253-.127.507-.189.757h-.189c-.067.383-.13.764-.191,1.147h-.189v.763h-.2v.758h-.187v1.332h-.191v.952h-.189v.764h-.193v.188l.193.189h-.193v1.333c-.194.643-.686,3-1.141,3.242h-1.332v-.189h-.573c-.153-.078-.072-.411-.38-.385-.047.006-.054.439-.382.385v-.194h-.379v-.191h-2.284a2.288,2.288,0,0,0-.19.953c-.031.026-.359-.021-.192.189Zm29.131-11.424c-1.137.32-.513.672-2.094.384a1.462,1.462,0,0,0-.379-.575,2.47,2.47,0,0,0,.188-.952,1.65,1.65,0,0,1,1.333-.378c.215.215,0,.072.38.189v.383a1.888,1.888,0,0,1,.76.186C1536.009,498.156,1535.945,498.411,1535.884,498.665Zm-3.426-5.52c.443-.065.884-.128,1.332-.189.124-.194.254-.382.382-.572h.568v-.193c.445-.068.887-.125,1.333-.189v-.191a3.254,3.254,0,0,1,1.524.191c.061.121.125.253.189.382.378.063.766.124,1.145.19-.162.214.026.028-.189.188-.653.737-1.359.239-2.287.573v.191h-.382v.188h-.569v.193h-.572v.186a2.772,2.772,0,0,1-1.9.191v-.191c-.557-.129-.62-.209-.76-.758C1532.481,493.17,1532.295,493.356,1532.458,493.145Zm-7.045,6.091c.952-.6.184-.947,1.9-.949v.379l.76-.191v.191c.32.061.638.13.954.188v.383h.569v.193h.191V500h.568c.067.124.133.251.2.379h.189v.188h-.189v.2h-.954a2.555,2.555,0,0,0-1.524-.763c-.259.494-.336.321-.382,1.146-.384.4-.1,1.049,0,1.522.648.129.88.423,1.525.568v.569h-1.711v-.188h-.384a5.933,5.933,0,0,0-1.33-.764,1.774,1.774,0,0,0-.38-.759h-.191v-.761h-.191Q1525.22,500.284,1525.413,499.235Zm-.57,14.089h.188c-.066.193-.124.381-.187.575a10.432,10.432,0,0,0,.95,2.284h1.33c.356-.6.237-.508.764-.378.125-.2.255-.384.38-.575.38-.126.762-.254,1.142-.379.065-.128.13-.255.189-.384.191.065.383.129.574.189-.062-.248-.129-.505-.191-.757h.191v-.383c.126-.063.253-.13.38-.193v-.378h.189c.179-.258.128-.336.192-.762a10.957,10.957,0,0,1,2.094.382v.38c.191.064.384.125.572.185v.385a3.946,3.946,0,0,0-.952,1.14h-.189v.574a3.156,3.156,0,0,0-1.333.953c-.065.125-.13.254-.191.379h-.38v.19c-.38.129-.763.256-1.144.383v.191h-.762v.19a11.51,11.51,0,0,1-3.235,0v-.19h-.57v-.191h-.574v-.194a1.661,1.661,0,0,0-.76-.379c-.066-.189-.129-.379-.193-.575h-.189v-.378h-.194c-.062-.251-.128-.505-.188-.758h-.189c-.064-.764-.131-1.527-.194-2.285.217-.159.027.022.194-.193A3.672,3.672,0,0,1,1524.843,513.324Zm-4.575-21.892a4.628,4.628,0,0,1,2.666.952h.383c.064.124.126.25.193.378.705.447,1-.212,1.142.952a3.876,3.876,0,0,1-1.523.193v-.193l-1.526-.188v-.191l-1.333-1.143Zm-.376,5.712h.185c.333-.5.539-.4,1.337-.379v.183h.761a.721.721,0,0,0,.383.385c-.107.383.021.164-.194.383-.129.554-.211.619-.762.758v.379h-.952c-.323-.557-.547-.546-.573-1.52h-.185Z" transform="translate(5.034 9.818)" fill="#fff"/>
    <path id="Path_819" data-name="Path 819" d="M1498.26,479.092c-.218-.215,0-.077-.381-.194v.194h-.19c-.361.164.384.188.384.188C1498.229,479.065,1498.045,479.256,1498.26,479.092Z" transform="translate(3.054 7.495)" fill="#fff"/>
    <path id="Path_820" data-name="Path 820" d="M1547.338,534l.018.018.25.048C1547.581,534.043,1547.583,534.079,1547.338,534Z" transform="translate(14.332 19.988)" fill="#fff"/>
    <path id="Path_821" data-name="Path 821" d="M1489.288,475.054v.191h.382c.06-.126.131-.251.191-.379h-.191C1489.451,475.079,1489.667,474.94,1489.288,475.054Z" transform="translate(1.172 6.581)" fill="#fff"/>
    <path id="Path_822" data-name="Path 822" d="M1489.2,460.929c-.22-.216,0-.075-.38-.188C1489.04,460.959,1488.824,460.815,1489.2,460.929Z" transform="translate(1.067 3.379)" fill="#fff"/>
    <path id="Path_823" data-name="Path 823" d="M1487.219,463.845l-.571.186v.19h.571Z" transform="translate(0.574 4.082)" fill="#fff"/>
    <path id="Path_824" data-name="Path 824" d="M1493.514,473.934c-.064.126-.126.253-.191.379.012,0,.552-.3.38-.379Z" transform="translate(2.087 6.37)" fill="#fff"/>
    <path id="Path_825" data-name="Path 825" d="M1500.559,555.963l.064-.232h-.47C1500.23,555.8,1500.343,555.975,1500.559,555.963Z" transform="translate(3.635 24.914)" fill="#fff"/>
    <path id="Path_826" data-name="Path 826" d="M1496.207,452.387v-.194a5.51,5.51,0,0,0,.764.194v-.57h.38a5.739,5.739,0,0,1-.189-1.905c-.383-.063-.764-.126-1.145-.194-.119.226-.318.28-.383.38v.386h-.186v.379h-.194a1.4,1.4,0,0,0-.379.953,2.376,2.376,0,0,1,.759.57Z" transform="translate(2.439 0.879)" fill="#fff"/>
    <path id="Path_827" data-name="Path 827" d="M1516.089,522.552h-.57v.189h.191v.194a1.282,1.282,0,0,0,.57-.575h-.191Z" transform="translate(7.119 17.348)" fill="#fff"/>
    <path id="Path_828" data-name="Path 828" d="M1516.521,552.974c-.216-.218,0-.077-.38-.191C1516.36,553,1516.141,552.86,1516.521,552.974Z" transform="translate(7.259 24.246)" fill="#fff"/>
    <rect id="Rectangle_138" data-name="Rectangle 138" width="0.192" height="0.379" transform="translate(1511.405 525.623)" fill="#fff"/>
    <path id="Path_829" data-name="Path 829" d="M1541.047,532.294h-.2c-.059.126-.123.254-.184.383C1540.678,532.664,1541.217,532.373,1541.047,532.294Z" transform="translate(12.82 19.601)" fill="#fff"/>
    <path id="Path_830" data-name="Path 830" d="M1547.718,533.884c-.216-.222,0-.079-.38-.194C1547.559,533.908,1547.34,533.766,1547.718,533.884Z" transform="translate(14.332 19.917)" fill="#fff"/>
    <path id="Path_831" data-name="Path 831" d="M1539.491,508.617v-.38c-.216.158-.027-.024-.189.189h-.19C1539.333,508.642,1539.112,508.5,1539.491,508.617Z" transform="translate(12.468 14.147)" fill="#fff"/>
    <rect id="Rectangle_139" data-name="Rectangle 139" width="0.186" height="0.383" transform="translate(1511.787 532.664)" fill="#fff"/>
    <path id="Path_832" data-name="Path 832" d="M1522.85,523.759c-.06.126-.126.254-.189.379.013-.009.548-.3.382-.379Z" transform="translate(8.738 17.666)" fill="#fff"/>
    <path id="Path_833" data-name="Path 833" d="M1531.425,489.37c.159.216-.026.031.186.189v-.569c-.186.06-.381.126-.572.188C1531.258,489.4,1531.042,489.251,1531.425,489.37Z" transform="translate(10.638 9.783)" fill="#fff"/>
    <path id="Path_834" data-name="Path 834" d="M1490.252,477.011h.763a7.976,7.976,0,0,1,1.332-.572v.572h.192c.168-.671.52-.746,1.333-.762.217.221,0,.075.378.19v-.38h.383v.38c.191-.061.379-.126.57-.19.265.029-.075.237.189.19v-.19h.763q.287-.475.572-.951h.381v-.191c.188-.124.382-.254.568-.384v-.378c.13-.061.253-.124.383-.188v-.383h.189v-.569c.126-.066.255-.129.382-.2v-.57h.19c.269-.779-.248-1.757-.19-2.284h.19c.055-.314-.179-.331-.19-.379.065-.189.128-.38.19-.572h-.19v-.953h-.191v-1.141h-.191v-.193h.191v-.189l-.38-.191c-.064-.251-.13-.5-.19-.759-.127-.063-.253-.125-.379-.191v-.762c-.129-.064-.256-.124-.382-.194v-.377c-.191-.126-.381-.255-.57-.381v-.379c-.191-.065-.383-.128-.574-.194-.062-.126-.125-.252-.192-.377-.251-.069-.5-.13-.76-.193v-.19h-.569v-.189h-.385v-.194a8.229,8.229,0,0,0-2.85,0v.194h-.956v.189c-.252.065-.51.128-.759.19v.193c-.194-.069-.382-.13-.574-.193.064.124.129.255.193.378-.193.126-.384.258-.569.385-.067.188-.13.379-.194.565-.126-.06-.252-.124-.38-.186v.568c-.127.07-.254.131-.382.19v.379c-.126-.059-.253-.121-.382-.185a1.629,1.629,0,0,0-.38.953h.189v.189c-.124.066-.253.129-.38.191v.379h.38c-.228.407-.427.417-.568.953h.379c-.216.369-.507.451-.76.76h.569v.188c-.458.464-.3,1.145-.188,1.716h-.57v.191l.57.191v.193h-.193c.066.516.384,1.292.193,1.522a1.547,1.547,0,0,1-.57.38v.186h.949a1.513,1.513,0,0,0,.38,1.146h.19v.57c.126.061.255.129.38.186v.384h.193c-.061.32-.127.638-.193.952h.193c.064.19.129.38.191.573l.568-.193v.381c.521.305.465.523,1.335.577C1490.123,477.267,1490.188,477.138,1490.252,477.011Z" transform="translate(0.398 3.672)" fill="#fff"/>
    <path id="Path_835" data-name="Path 835" d="M1488.085,463.191v-.378a1.905,1.905,0,0,0,.757-.758c-.191-.152-.184-.237-.38-.381a1.6,1.6,0,0,1-.57.381c.19.58.069.388,0,1.136Z" transform="translate(0.855 3.59)" fill="#fff"/>
    <rect id="Rectangle_140" data-name="Rectangle 140" width="0.188" height="0.382" transform="translate(1489.509 483.158)" fill="#fff"/>
    <path id="Path_836" data-name="Path 836" d="M1553.854,537.418v.189c-.38.063-.76.128-1.142.189-.066.131-.127.256-.193.382-.318.064-.633.128-.949.189-.065.128-.129.255-.19.38-.318.066-.636.129-.952.193-.067.129-.129.255-.193.379h-.76c-.249.1.06.094-.191.193-.059.382-.125.758-.187,1.141,0,0,.227.036.188.384h-.187v.19a.31.31,0,0,1,.188.38h-.187v1.521h-.192v1.146h-.192c.065.314.13.632.192.952-.127.061-.254.124-.384.189-.232.574.017,1.74-.188,2.283h.379c-.062.381-.125.762-.191,1.143h-.188v.953a2.583,2.583,0,0,0,0,1.332c-.6-.022-.358-.374-.573.194h.38a8.53,8.53,0,0,1-.185,2.09h-.383v.38h.383v.954h-.383c.063.126.126.253.188.38h.2c.092.253-.093.042-.2.191a1.437,1.437,0,0,1-.571.38v.191h.571a9.339,9.339,0,0,0-.383,2.093c-.25.065-.505.126-.76.191v.38l.572-.19v.948c-.189.064-.379.126-.572.193.068.189.128.38.193.577h-.193v1.9h-.189v.568h-.193v.191l.193.191h-.193v.38h.193c.031.258-.574.762-.574.762-.372.069.381.193.381.193v.57h-.381c.194.591.109.287,0,.949h-.379v.384c.394.2.339.305.953.378.595-.85,1.768-.794,2.667-1.333.188-.254.379-.508.572-.757.126-.069.25-.131.379-.191v-.954h.189c.125-.635.254-1.272.382-1.9h.188v-.195h-.187v-.187h.188v-.762h.2v-1.335h.188v-.38h.191v-.19h-.191v-.19h.191v-.764h.19v-.758h.19v-.383h.191v-1.142h.189v-.19l-.189-.19h.189c.061-.381.127-.757.192-1.141h.187v-1.719h.193v-.759h.189v-1.332h.193c-.066-.19-.126-.381-.193-.568h.193V547.7h.191v-1.52h.189v-.763h.191v-.572h.189v-.952h.191V543.7h-.191a.315.315,0,0,1,.191-.379c-.064-.379-.127-.763-.191-1.145.064-.256.128-.507.191-.759h-.191c.064-1.33.128-2.669.191-4Z" transform="translate(13.911 20.762)" fill="#fff"/>
    <path id="Path_837" data-name="Path 837" d="M1534.853,560.157h-.385c.066-.13.129-.256.19-.379h-.568v-.384h-.763c-.061-.193-.125-.378-.189-.569h-.578v-.385c-.12.064-.249.13-.378.193v-.193h-.38c-.149-.065-.072-.416-.377-.379v.191c-.287.325-.2,1.105-.2,1.715a17.166,17.166,0,0,1-.19,3.424v1.524a2.938,2.938,0,0,0,1.52.2v-.2c.2.065.388.127.578.2v-.2a.882.882,0,0,0,.569-.759c.189-.065.383-.128.572-.194v-.185h.574v-.191h-.2c.2-.509.383-1.018.575-1.524h.189c.015-.1-.326-.658-.381-.954h.381v-.19h-.569C1534.772,560.373,1534.643,560.569,1534.853,560.157Z" transform="translate(10.638 25.442)" fill="#fff"/>
    <path id="Path_838" data-name="Path 838" d="M1492.859,494.112c.216.215,0,.075.381.19C1493.021,494.086,1493.24,494.225,1492.859,494.112Z" transform="translate(1.981 10.944)" fill="#fff"/>
    <path id="Path_839" data-name="Path 839" d="M1498.757,561.357h.19c.043.043.067.07.083.09l.078-.282h-.352Z" transform="translate(3.319 26.146)" fill="#fff"/>
    <path id="Path_840" data-name="Path 840" d="M1546.071,531.485c-.2-.066-.38-.128-.573-.189v.381h-.189c-.065.188-.131.38-.193.567a1.557,1.557,0,0,0-.758.383v.191c-.308.177-.552-.049-.763.193-.062.185-.126.378-.194.567-.189-.061-.38-.125-.569-.189v.383c-.247.251-.593.22-.953.378v.194c-.429.15-.533-.243-.762-.194v.194h-.382v.188h-.19v-.188l-.57.188c-.023-.044.026-.354-.189-.188v.188a1.461,1.461,0,0,0-.38.569c-.359-.09-.911-.081-1.526-.187v.379q-1.33.094-2.666.187c-.275.006-.773.139-.76-.187h-.195v.383a16.405,16.405,0,0,0-3.612-.383v.187h.187c-.145.292-.4.305-.761.383v-.383c-.442-.06-.889-.124-1.33-.187,0,0-.033.249-.385.187v-.187h-1.523c-.128-.193-.253-.379-.377-.572-.7.066-1.4.126-2.1.193v-.383c-.191.064-.383.126-.568.19v-.378h-.192c-.065.125-.126.251-.189.378h-.193v-.378c-.843.134-.612.1-1.337-.194h-.569c-.06-.126-.123-.253-.189-.378h-.38v-.194h-.762v-.189l-1.144-.378v-.193h-.378v-.191h-.575v-.19a1.738,1.738,0,0,0-.76-.379c-.129-.559-.212-.624-.763-.762-.062-.193-.125-.38-.192-.573-.249.064-.5.125-.757.193-.194-.773-.086-.245-.575-.575v-.186c-.263-.189-.475-.179-.949-.193.063-.189.129-.38.19-.568h-.762V529h-.569v-.185a.773.773,0,0,0,.382-.38c-.191.063-.382.128-.576.189v-.189c-.315-.254-.632-.51-.952-.764v-.57c-.382-.107-.161.025-.378-.186a.793.793,0,0,0,.378-.382h-.568v.185h-.569c-.111-.227-.336-.292-.383-.379v-.379h-.191c.039-.271.05.039.191-.2-.064-.377-.129-.759-.191-1.138h-.187c-.19-.581.23-1.438.187-1.714h-.187c-.066-.319-.129-.634-.194-.952h-.19v-.57c-.13-.064-.253-.126-.38-.193-.283-.553.048-1.165,0-1.332h-.191c-.127-.634-.251-1.271-.382-1.906-.126-.06-.25-.124-.376-.189.06-.189.126-.38.184-.568-.124-.068-.249-.128-.376-.194v-.189h.192c-.065-.193-.132-.385-.192-.57h-.192c-.061-.7-.124-1.4-.191-2.093-.126-.066-.252-.131-.379-.193-.022-.266.039.032.189-.188v-.194h-.189v-.57c-.13-.064-.253-.123-.383-.188v-.764h-.189v-.572h-.191v-.953h-.193v-1.331c-.088-.294-.654-.894-.376-1.526a2.043,2.043,0,0,0,.376-.38h-.758q-.576-2.475-1.143-4.946h-.194v-.384h-.191v-1.143h-.187v-.378h-.191v-1.332h-.189v-.764h-.191c-.042-.266.037.027.191-.191-.064-.125-.123-.25-.191-.38.069-.125.127-.255.191-.383h-.191v-.379c-.036-.064-.272-.179-.38-.379h.38a1.541,1.541,0,0,0-.38-.761h-.193v-.763h-.187v-.379h-.19v-.575h-.193c.063-.188.126-.38.193-.566-.13-.067-.258-.129-.384-.2-.065-.442-.126-.888-.187-1.331-.126-.065-.255-.126-.381-.189-.13-.255-.264-1.438,0-1.522h-.382q-.187-1.051-.38-2.1h-.378c.061-.191.127-.38.188-.569h-.381c-.065-.315-.128-.637-.19-.953h-.19c-.089-.245-.077-.774.19-.761v-.189h-.382c-.064-.383-.128-.763-.191-1.146h-.19c-.141-.439.13-.464.19-.57v-.191h-.19v-1.714h-.189v-.382h-.189v-.378h-.191c.064-.2.129-.38.191-.572h-.383q-.285-.955-.573-1.905l.191-.574a31.874,31.874,0,0,0-.763-3.613c-.819-.065-1.649-.129-2.473-.188v.188h-.379v.19c-.255-.064-.507-.128-.767-.19v.19a3.223,3.223,0,0,1-1.519,0v.188a9.655,9.655,0,0,1-2.287.764v.569h-.379v.572c.529-.107.017-.147.57,0v.193c-.108.107-.745.026-.57.379h.189a.907.907,0,0,0,.763.573c.063.185.128.382.19.568h-.572v.191h.382c.174.206-.029.037.19.19v-.19h.193v.95h-.193a4.677,4.677,0,0,1,.193.766c.526.14.92.353.759,1.14-.052.245-.291-.06-.194.193.126.064.258.128.385.189v.191h-.191c.217.234.009.06.38.193.128.566.251,1.141.383,1.714h-.191v.378h.378c-.026,1.194.4,2.146,0,3.048h.385c-.065.189-.127.378-.192.569.128.066.255.125.38.193v.379h.19l-.19.379h.19v.382h.193v1.331a12.044,12.044,0,0,1,.571,2.673h.382a5.02,5.02,0,0,0,.379,1.9v1.143c.029.078.665.293.379.95a4.825,4.825,0,0,0-.57.572c.667-.1.352-.184.952,0-.062.191-.125.383-.192.573h.192v.383h.191a5.087,5.087,0,0,1,0,2.09c.124.064.256.131.383.194-.063.253-.126.507-.192.757h.192v.764h.189c.064.381.13.762.19,1.146h.191c-.065.19-.128.383-.191.57h.191c.215.214,0,.077.382.188.063.319.126.637.186.952h.193v.763h.19v.954h.189v.951h.191v.569h.191q.1.953.19,1.9h.191v.384h.191c-.062.124-.128.251-.191.379h.191c.162.384.445,1.619.189,1.713h.379c.064.572.128,1.142.191,1.717.129.06.254.12.382.188v.952h.19v.759c.13.066.255.126.381.194-.06.126-.126.251-.187.379h.188c.06.445.128.891.19,1.331l.38.2c.1.362-.114.255-.19.378v.379h.381c-.238.577-.53.943,0,1.144a1.569,1.569,0,0,0,.19.761h.188v1.142c.13.063.255.128.381.194v.569h.192v.193c-.026.047-.281.168-.379.378h.572a7.352,7.352,0,0,0,.569,1.9v.952h.191v.57h.189c.069.574.127,1.146.191,1.719h.189v1.522c.191.125.378.249.569.38-.062.189-.123.381-.191.573h.191a1.519,1.519,0,0,1,.194.758h.378c.069.315.131.635.194.951l-.194.194.194.188-.194.19h.194v.764c.083.254.156-.08.188.187l-.188.193c.127.063.252.126.383.187v1.526c.063.266.148-.075.189.191-.063.117-.28.015-.189.381h.189c.061.509.126,1.013.189,1.522h.193v.381h.189c-.065.125-.126.255-.189.382h.189c.062.827.126,1.649.188,2.477h.193v2.284h.191q.1,3.809.189,7.617h-.189v.188h.189v9.9h-.189v.762h-.191c-.021.132.313.5.191.953-.307,1.129-.717,2.625-.953,3.81l1.9.186v.2h.76v-.2c.7.068,1.4.13,2.1.2a5.138,5.138,0,0,0,1.9.375c.064.251.125.508.19.762a6.1,6.1,0,0,1,3.62.381h.566c.063.126.133.258.2.382.168.059.361-.292.759-.191v.191c.315.078.346-.189.379-.191h.2v.191h1.9v.189c.324.056.326-.18.379-.189h1.521v.189c.182.031.557-.41.954-.189v.189c.22.217.076,0,.189.382h.575v-.382c.254.065.507.125.76.19v.191c.716.191.682-.469,1.523-.382.191.065.38.125.574.19v-.19h1.141s.071.224.571.19c.127-.065.255-.125.383-.19v.19c.443.034.71-.359,1.332-.19v.19h.949v.191c.255-.063.51-.129.76-.191v.191h.574v.191h.951v.188c.125-.062.256-.125.38-.188.411,0,.383.188.383.188l2.666-.188c.06-.127.129-.254.191-.383h.189c.064-.443.13-.889.191-1.332h.193v-.763h.188v-.951h.191v-.57h.188c.14-.46-.213-.732-.188-.951h.188v-1.717h.194v-.757h.191V562.9h.191c.06-.444.12-.884.185-1.331h.192v-1.142h.19v-.763h.19v-.384h.191v-1.14h.187v-.763h.194c.125-1.139.252-2.283.378-3.426q.767-2.473,1.523-4.951h.766c.044-.43.019-.5.19-.763h.189v-.376h.189v-.954l.38-.19v-.381h.194c.063-.191.126-.377.189-.569h.574c.183-.786.254-.235.569-.572-.064-.129-.125-.254-.189-.386h.189c.126-.184.25-.375.381-.567h.382c.063-.127.121-.255.185-.381h1.146c.215.218,0,.077.38.194.27.729.119.6,1.522.57v.184c.318-.06.634-.121.952-.184v.184h.762v-.184c.319.063.634.124.953.184v.2h-.19c.119.27.221.143.379.38.384-.11.166.023.379-.189s.079,0,.2-.386c.667.148,1.275.666,2.092.575l.19-.189v.189c.448.151.411.177.572,0h.191v-.759h.19c-.317-.764-.638-1.524-.953-2.284h-.19c-.129-.383-.253-.764-.377-1.146-.2-.125-.384-.25-.577-.38v-.376h-.189v-.574c-.19-.126-.38-.256-.569-.382-.068-.254-.133-.51-.2-.762-.184-.129-.38-.251-.567-.38v-.379c-.127-.062-.255-.125-.382-.193a3.6,3.6,0,0,1-.764-1.335c-.734-.188-.593-.553-1.331-.758v-.383l-2.474-1.9c.064-.126.126-.251.192-.378h-.381c-.128-.384-.254-.767-.382-1.142h.19c.021-.061.04-.124.062-.186a2.183,2.183,0,0,1-.278-.386h-.355Z" transform="translate(1.131 6.511)" fill="#fff"/>
    <path id="Path_841" data-name="Path 841" d="M1553.393,544.543c.523-.14.426-.054.568-.572.219-.162.032.026.191-.189h-.379C1553.593,544.123,1553.51,544.08,1553.393,544.543Z" transform="translate(15.705 22.205)" fill="#fff"/>
    <path id="Path_842" data-name="Path 842" d="M1552.926,545.867c.187-.061.382-.126.573-.188v-.19h-.573Z" transform="translate(15.599 22.592)" fill="#fff"/>
    <path id="Path_843" data-name="Path 843" d="M1549.925,561.392c-.188-.06-.377-.129-.569-.193v.193h.193v.189h.573v-.57h-.2Z" transform="translate(14.79 26.111)" fill="#fff"/>
    <rect id="Rectangle_141" data-name="Rectangle 141" width="0.187" height="0.377" transform="translate(1490.271 485.066)" fill="#fff"/>
    <path id="Path_844" data-name="Path 844" d="M1491.929,489.454c.212.221,0,.075.378.191C1492.09,489.427,1492.307,489.572,1491.929,489.454Z" transform="translate(1.771 9.888)" fill="#fff"/>
    <path id="Path_845" data-name="Path 845" d="M1489.443,477.656c.216.218,0,.077.383.2C1489.607,477.63,1489.826,477.774,1489.443,477.656Z" transform="translate(1.207 7.213)" fill="#fff"/>
    <path id="Path_846" data-name="Path 846" d="M1488.549,476.917h.188c-.118.271-.222.144-.38.382h.763v-.19l-.571-.379Z" transform="translate(0.96 7.003)" fill="#fff"/>
    <path id="Path_847" data-name="Path 847" d="M1490.478,481.732v-.2h-.568C1490,481.619,1490.148,481.893,1490.478,481.732Z" transform="translate(1.313 8.093)" fill="#fff"/>
    <path id="Path_848" data-name="Path 848" d="M1493.24,455.5c-.22-.216,0-.077-.381-.194C1493.075,455.525,1492.859,455.386,1493.24,455.5Z" transform="translate(1.981 2.146)" fill="#ffec00"/>
    <path id="Path_849" data-name="Path 849" d="M1496.391,455.833c.126-.759.25-1.519.379-2.283-.189-.063-.379-.128-.572-.19-.357-.372-.958-.39-1.712-.38a2.44,2.44,0,0,1-.761.956,11.114,11.114,0,0,1,0,3.237h-.191c.065.312.128.632.191.948-.191.128-.379.256-.57.381v.19c.078.123.286.014.191.382h-.191v1.142h-.19v.573h-.193c-.125.313-.255.632-.378.948h.185a2.984,2.984,0,0,0,2.1.764c.162-.217-.025-.028.191-.19.129-.574.254-1.146.38-1.712h.19v-.383h.191c.063-.887.129-1.776.188-2.667h.194c.063-.573.126-1.143.186-1.716Z" transform="translate(1.876 1.618)" fill="#ffec00"/>
    <path id="Path_850" data-name="Path 850" d="M1499.278,561.545v-.381h-.22l-.078.282C1499.048,561.523,1498.974,561.454,1499.278,561.545Z" transform="translate(3.369 26.146)" fill="#ffec00"/>
    <path id="Path_851" data-name="Path 851" d="M1500.65,555.927v-.2h-.1l-.064.232A.453.453,0,0,0,1500.65,555.927Z" transform="translate(3.71 24.914)" fill="#ffec00"/>
    <path id="Path_852" data-name="Path 852" d="M1500.619,556.044v.378c.216-.161.028.023.189-.19H1501C1500.783,556.017,1501,556.162,1500.619,556.044Z" transform="translate(3.741 24.985)" fill="#ffec00"/>
    <path id="Path_853" data-name="Path 853" d="M1535.823,567.589h.188c.031-.264-.144.076-.188-.188.063-.51.124-1.018.188-1.527a.516.516,0,0,1-.188-.572h.188c.066-1.96.127-3.934.194-5.9a8.078,8.078,0,0,1-.382-1.525h.382v-.187c-.223-.175-.226-.139-.382-.384h.188v-.378h-.379a1.978,1.978,0,0,1,.191-.957h-.191c-.431-.733-1.5-.6-2.666-.568v.19c-.309.135-.353-.182-.38-.19h-.954v-.19l-.569.19-1.715-.19c-.062-.19-.126-.38-.192-.572-.508.065-1.013.126-1.525.191v-.191h-.377v-.194c-.324-.072-.333.183-.379.194h-.951v-.573h-.194v.379h-.764v.194h-.187v-.194h-.954c-.046.01-.059.264-.378.194v-.194h-.381v-.186h-.191v.186h-.573v-.186c-.266-.031.078.139-.191.186h-.952v-.186a.773.773,0,0,0,.386-.383h-.386v.19c-.212.216-.073,0-.189.379q-.856-.092-1.712-.186v.186q-1.237.1-2.474.194c.061-.194.124-.38.189-.573h-.189v.193h-.189a.313.313,0,0,1-.38-.193c-.383.069-.763.126-1.145.193-.063-.124-.126-.255-.189-.383a1.368,1.368,0,0,0-1.145.383v-.383l-1.714-.568h-.19v.188c-.389-.012-.382-.188-.382-.188l-.569.188v-.188c-.218-.218-.075,0-.2-.383-.922-.041-.638-.2-1.33-.379v.189h.378c.341.2-.378.19-.378.19v.191c-.179.351-.19-.381-.19-.381-.636-.063-1.27-.13-1.9-.189v-.191c-.372-.094-.254.105-.382.191-.275-.017-.3-.274-.758-.191a.347.347,0,0,1-.384.191v-.191H1504.6v-.19c-.44-.108-.529.227-.761.19-.02,0-.075-.308-.381-.19-.062.126-.126.257-.189.381h-.383c-.062.634-.125,1.27-.194,1.9-.123.068-.254.131-.378.194v.952c-.126.065-.257.125-.385.191.129.186.259.379.385.568-.126.068-.257.132-.385.191-.022.24.362.335.191.762h-.191a2,2,0,0,0-.187.953l-.76.19v.379c.189-.128.38-.253.569-.379v.573c-.128.06-.253.128-.38.188.069.128.128.253.192.383h-.192v.38h-.189v.762h-.192c.065.193.128.384.192.573h-.192c-.064.254-.126.5-.192.761h-.569v.189c.042.022.692.275.569.38h-.187c-.217.221,0,.076-.383.194v.378h.383v.381h-.383a.477.477,0,0,0,.193.379c.055.3-.34.25-.384.383a.291.291,0,0,0,.191.379c-.065.259-.125.509-.191.764h-.382l.194.19v.188h-.194v.954c-.187-.061-.378-.129-.569-.191v.191h.381c-.065.573-.126,1.143-.19,1.711a4.148,4.148,0,0,0-1.224.41l-.491,1.782h38.272c0-.087,0-.183,0-.285C1536.12,569.884,1535.639,568.469,1535.823,567.589Z" transform="translate(3.002 24.1)" fill="#ffec00"/>
    <path id="Path_854" data-name="Path 854" d="M1499.532,559.769c.218.216,0,.073.383.191C1499.7,559.742,1499.915,559.882,1499.532,559.769Z" transform="translate(3.494 25.83)" fill="#ffec00"/>
    <path id="Path_855" data-name="Path 855" d="M1551.425,534.8l-.638-.123c-.007.032-.016.071-.032.123Z" transform="translate(15.107 20.141)" fill="#ffec00"/>
    <rect id="Rectangle_142" data-name="Rectangle 142" width="0.188" height="0.377" transform="translate(1556.911 557.609)" fill="#ffec00"/>
    <path id="Path_856" data-name="Path 856" d="M1538.024,535.556c.221.213,0,.072.383.186C1538.192,535.529,1538.407,535.669,1538.024,535.556Z" transform="translate(12.221 20.34)" fill="#ffec00"/>
    <path id="Path_857" data-name="Path 857" d="M1547.025,538.613h-.764v-.189h-.765v-.188h-.754v-.194h-.577v-.189c-.569-.065-1.138-.128-1.714-.189v-.194h-.757v-.19h-.766v-.188a.319.319,0,0,0-.382.188c-.4.053-.38-.188-.38-.188h-1.9a19.066,19.066,0,0,0-3.235-.762c-.164.214.023.027-.2.186a7.176,7.176,0,0,1-.568,1.906v.954h-.194v.569h-.189c-.063.443-.124.89-.191,1.335h-.189v.953h-.189c-.063.952-.129,1.9-.19,2.853h-.191c-.063.256-.13.507-.2.763h-.187c.066.19.126.38.187.572h-.187v.569h-.191v.951h-.189v.381h-.191c.066.19.133.38.191.572h-.191v.576h-.19v.947h-.186v.38h-.2v.767h-.19v.949h-.189c.066.19.126.382.189.569h-.189c-.125.891-.253,1.776-.381,2.668l-.383.19v1.521l.383.19v2.284h.189v.388h.193c-.065.124-.125.25-.193.375h.193v.19h.574v.384l.757-.194c.791,1.3,2.992,1.2,3.429,2.861h.574c.063.185.121.378.185.57.128.06.255.123.382.191.064.189.129.379.194.57h.19v.187h1.332c.062.126.126.256.19.382.189-.064.38-.125.569-.189.13.189.257.379.38.569.32.065.638.127.953.194v.378q.857-.092,1.714-.189v.189h2.475v-.189h.953v-.189q.287.094.57.189v-.189c.371-.431.177-1.107.384-1.713h.191v-.762h.188v-.764h.191v-1.143h.187v-1.143h.194V559.37c.406-1.39.548-3.379.951-4.761v-1.9s.245.025.19-.381a.331.331,0,0,1-.19-.378h.19V550.8h.19v-.949h.189V548.9h.189v-.762h.192v-2.093h.193v-1.716h.189v-1.713h.193c.062-.951.125-1.905.19-2.856-.19-.064-.383-.125-.572-.193C1549.374,539.09,1547.763,538.86,1547.025,538.613Z" transform="translate(10.461 20.516)" fill="#ffec00"/>
    <path id="Path_858" data-name="Path 858" d="M1552.632,535.035l-.326-.063v.147Z" transform="translate(15.459 20.208)" fill="#ffec00"/>
    <path id="Path_859" data-name="Path 859" d="M1530.423,555.6v-.125l-.011.127Z" transform="translate(10.495 24.856)" fill="#ffec00"/>
    <path id="Path_860" data-name="Path 860" d="M1547.715,534.188c-.077-.076-.1-.109-.112-.121l-.25-.048C1547.537,534.2,1547.351,534.075,1547.715,534.188Z" transform="translate(14.336 19.992)" fill="#ffec00"/>
    <path id="Path_861" data-name="Path 861" d="M1552.927,535.092h0Z" transform="translate(15.599 20.235)" fill="#ffec00"/>
    <path id="Path_862" data-name="Path 862" d="M1552.052,534.949v-.026l-.3-.059A.283.283,0,0,0,1552.052,534.949Z" transform="translate(15.333 20.183)" fill="#ffec00"/>
    <path id="Path_863" data-name="Path 863" d="M1548.927,535.425v-.19h-.763v-.193h-.57v-.191h-.955v-.185h-.757v-.193h-.763v-.188q-.765-.1-1.525-.191V533.9h-.382v-.189h-1.335v-.19h-.758v-.19h-.953v-.191h-.952v-.191h-.763v-.185c-.633.059-1.268.123-1.9.185-.128.191-.254.383-.382.573h-.38c-.067.19-.129.379-.2.573h-.185c-.334.385-.357.607-.952.757v.191c.378.064.759.131,1.137.193.066.128.128.253.2.385.315-.067.634-.132.951-.2.126.2.254.38.38.572.255-.066.509-.124.762-.191v-.185c.632.06,1.27.122,1.9.185q2.668.576,5.334,1.145c-.062.123-.127.253-.191.376h.191v-.186h.19v.186h.764v.2h.76v.19h.38v.189c.142.01.357-.185.76-.189v.377c.568.065,1.142.129,1.714.19.184.081,0,.469.57.383v-.189h.573v-.194h.572v-.19a2.946,2.946,0,0,1,1.712-.377v-.386c.188-.062.384-.124.572-.186v-.19h.572c.064-.128.126-.256.191-.382h.568v-.192c-.214-.158-.026.027-.187-.187a11.609,11.609,0,0,1-2.287-.569c-.129.06-.253.122-.379.185v-.185Q1550.544,535.519,1548.927,535.425Z" transform="translate(11.412 19.707)" fill="#ffec00"/>
    <path id="Path_864" data-name="Path 864" d="M1544.856,537.26c.214.216,0,.076.38.194C1545.019,537.235,1545.236,537.375,1544.856,537.26Z" transform="translate(13.77 20.727)" fill="#ffec00"/>
    <path id="Path_865" data-name="Path 865" d="M1529.955,555.421c.091.081.234.343.561.191l.011-.126v-.065Z" transform="translate(10.392 24.844)" fill="#ffec00"/>
    <path id="Path_866" data-name="Path 866" d="M1502.266,587.5h-.19v-.193h.352l1.767-6.433c-.216.012-.329-.166-.406-.232h.47l1.654-6.018,16.363,3.129,14.938.713,2.83-.217.443-5.758,4.128-17.786,3.7-3.274,13.377,2.577-.019-.018c.245.075.243.039.269.066l3.955.761c.047-.207-.03-.071.157-.261v-.185c.192.06.379.129.572.185v-.565h-.193V553.8c-.251.063-.507.126-.759.191v-.385h-.572v-.189c-.384.065-.76.128-1.142.189v-.379h-1.526v-.19h-.566v-.191c-.2.066-.383.126-.578.191v-.191h-.76v.191h-.189v-.191c-.319-.059-.635-.125-.953-.191v-.378h-.38c.113-.379-.026-.163.19-.383q-.093-.953-.19-1.905c-.125-.061-.253-.126-.38-.191-.062-.38-.125-.758-.191-1.138-.127-.066-.255-.129-.383-.191.064-.129.128-.258.194-.382-.194-.126-.38-.254-.572-.381v-.568c-.128-.066-.255-.13-.379-.189v-.385c-.193-.126-.384-.255-.573-.378v-.763h-.19c-.128-.191-.255-.382-.38-.572-.2-.062-.383-.128-.573-.188-.185-.277.065-.579-.191-.765h-.569q-.193-.572-.382-1.14h-.19v-.193c-.354-.118-.272.109-.379.193-.38-.115-.168.026-.38-.193h.184c-.059-.124-.123-.253-.184-.379h.184V541.8h-.38c-.117-.481-.093-.315-.379-.572v-.19h-.379v-.188c-.193-.067-.378-.128-.574-.194-.129-.519-.258-.429-.379-.953-.19-.059-.382-.123-.572-.185v-.193h-.572c-.125-.191-.252-.382-.38-.574-.124.066-.254.126-.38.193a1.873,1.873,0,0,1-.191-.759,7.051,7.051,0,0,1-1.52-.382c-.068.189-.128.382-.191.573h-.19c.128.375.254.758.382,1.142h.381c-.066.126-.129.251-.192.378l2.474,1.9v.383c.738.2.6.57,1.331.758a3.6,3.6,0,0,0,.764,1.335c.126.068.254.13.382.193v.379c.187.129.383.252.567.38.064.252.129.508.2.762.189.125.379.255.569.382v.574h.189v.377c.193.13.381.255.576.38.124.381.248.763.377,1.146h.19c.315.76.636,1.52.953,2.284h-.19v.759h-.191c-.161.177-.124.151-.572,0v-.189l-.19.189c-.817.091-1.424-.427-2.092-.575-.118.386.028.169-.2.386s0,.078-.379.189c-.158-.237-.26-.11-.379-.38h.19v-.2c-.319-.06-.634-.121-.953-.184v.184h-.762v-.184c-.318.063-.634.124-.952.184v-.184c-1.4.029-1.252.158-1.522-.57-.38-.117-.166.024-.38-.194h-1.146c-.064.126-.123.254-.185.381h-.381c-.131.191-.255.383-.382.567h-.189c.064.132.125.258.189.386-.315.336-.386-.215-.569.572h-.574c-.062.193-.126.378-.189.569h-.194v.382l-.38.19v.954h-.189v.377h-.189c-.172.265-.146.333-.19.763h-.765q-.758,2.482-1.524,4.951c-.126,1.143-.253,2.288-.378,3.426h-.194v.763h-.187v1.14h-.191v.384h-.19v.763h-.19v1.142h-.192c-.065.447-.125.887-.185,1.331h-.191v.575h-.191v.757h-.194v1.717h-.188c-.026.218.328.491.188.951h-.188v.57h-.191v.951h-.188v.763h-.193c-.061.443-.127.889-.191,1.332h-.189c-.062.129-.131.255-.191.383l-2.666.188s.028-.188-.383-.188c-.124.063-.255.125-.38.188v-.188h-.951v-.191h-.574v-.191c-.25.063-.505.129-.76.191v-.191h-.949v-.19c-.622-.169-.889.224-1.332.19v-.19c-.127.065-.255.125-.383.19-.5.034-.571-.19-.571-.19h-1.141v.19c-.194-.065-.383-.125-.574-.19-.841-.087-.807.573-1.523.382v-.191c-.253-.065-.505-.125-.759-.19v.382h-.575c-.113-.382.031-.164-.189-.382v-.189c-.4-.221-.773.22-.954.189v-.189h-1.521c-.053.009-.055.245-.379.189v-.189h-1.9v-.191h-.2c-.033,0-.064.27-.379.191v-.191c-.4-.1-.591.25-.759.191-.064-.124-.134-.255-.2-.382h-.567a6.1,6.1,0,0,0-3.62-.382c-.065-.254-.126-.51-.19-.762a5.14,5.14,0,0,1-1.9-.375c-.7-.068-1.4-.13-2.1-.2v.2h-.76v-.2l-1.9-.186c.237-1.185.646-2.682.953-3.81.121-.449-.212-.821-.191-.953h.191v-.762h.189v-9.9h-.189v-.188h.189q-.092-3.809-.189-7.617h-.191v-2.284h-.193c-.061-.828-.126-1.65-.187-2.477h-.189c.063-.126.124-.256.189-.382h-.189v-.381h-.192c-.062-.509-.128-1.013-.189-1.522h-.189c-.091-.367.126-.265.189-.382-.041-.266-.126.075-.189-.191V541.99c-.131-.06-.255-.124-.383-.186l.188-.193c-.032-.266-.1.067-.187-.187v-.764h-.194l.194-.19-.194-.188.194-.194c-.063-.315-.125-.635-.194-.951h-.378a1.519,1.519,0,0,0-.194-.758h-.191c.069-.191.129-.384.191-.573-.191-.131-.378-.255-.569-.38V535.9h-.189c-.064-.573-.123-1.145-.191-1.719h-.189v-.57h-.191v-.952a7.37,7.37,0,0,1-.569-1.9h-.572c.1-.21.353-.331.379-.378v-.193h-.191v-.569c-.126-.066-.251-.131-.382-.194v-1.142h-.187a1.566,1.566,0,0,1-.19-.761c-.53-.2-.238-.568,0-1.144h-.381V526c.076-.123.289-.016.19-.378l-.38-.2c-.062-.44-.13-.886-.19-1.331h-.188c.061-.128.128-.253.188-.379-.126-.067-.252-.128-.382-.194v-.759h-.19v-.952c-.127-.067-.253-.128-.381-.188-.064-.575-.128-1.146-.192-1.717h-.379c.257-.093-.027-1.329-.189-1.712h-.191c.064-.128.129-.255.191-.379h-.191v-.384h-.191q-.094-.949-.19-1.9h-.191v-.569h-.191v-.951h-.189v-.954h-.19v-.763h-.193c-.06-.315-.124-.633-.186-.952-.382-.11-.167.026-.382-.188h-.191c.064-.188.126-.38.191-.57h-.191c-.06-.384-.126-.764-.19-1.146h-.189v-.764h-.191c.065-.25.129-.5.191-.757-.126-.063-.259-.13-.383-.194a5.087,5.087,0,0,0,0-2.09h-.191v-.383h-.192c.067-.19.131-.382.192-.573-.6-.184-.285-.1-.952,0a4.83,4.83,0,0,1,.57-.572c.286-.656-.349-.871-.379-.95v-1.143a5.019,5.019,0,0,1-.379-1.9h-.382a12.057,12.057,0,0,0-.57-2.673V496.1h-.193v-.382h-.19l.19-.379h-.19v-.379c-.125-.067-.253-.126-.38-.193.065-.191.128-.38.192-.569h-.385c.4-.9-.026-1.855,0-3.048h-.378v-.378h.191c-.131-.573-.255-1.148-.383-1.714-.372-.133-.163.042-.38-.193h.192v-.191c-.128-.061-.259-.125-.385-.189-.1-.253.141.053.194-.193.161-.786-.233-1-.759-1.14a4.652,4.652,0,0,0-.193-.766h.193v-.949h-.193v.19c-.219-.153-.016.016-.19-.19h-.381v-.191h.572c-.062-.186-.127-.383-.19-.568a.907.907,0,0,1-.763-.573h-.189c-.174-.353.462-.272.571-.379v-.193c-.553-.147-.042-.107-.571,0v-.572h.379V482.4a9.657,9.657,0,0,0,2.287-.764v-.188a3.221,3.221,0,0,0,1.519,0v-.19c.26.063.511.126.767.19v-.19h.379v-.188c.824.059,1.654.123,2.473.188a31.875,31.875,0,0,1,.763,3.613c-.065.2-.128.383-.191.574q.287.951.573,1.905h.383c-.062.191-.127.377-.191.572h.191v.378h.189v.382h.189v1.714h.19v.191c-.06.107-.331.131-.19.57h.19l.192,1.146h.381v.189c-.267-.014-.279.515-.19.761h.19c.063.316.125.638.19.953h.382c-.06.189-.126.378-.188.569h.378q.192,1.047.38,2.1h.382c-.264.085-.13,1.267,0,1.522.126.063.255.124.382.189.061.443.123.889.188,1.331.126.067.254.129.384.2-.066.185-.13.378-.193.566h.193v.575h.19v.379h.187v.763h.192a1.541,1.541,0,0,1,.38.761h-.38c.108.2.345.315.38.379v.379h.191c-.064.128-.123.258-.191.383.069.13.128.255.191.38-.155.218-.233-.075-.191.191h.191v.764h.189v1.332h.191v.378h.187v1.143h.191v.384h.194q.567,2.475,1.143,4.946h.758a2.033,2.033,0,0,1-.376.38c-.277.632.289,1.232.376,1.526v1.331h.193V518h.191v.572h.189v.764c.13.065.253.124.383.188v.57h.189v.194c-.15.22-.211-.078-.189.188.126.061.253.126.379.193.068.694.13,1.395.192,2.093h.191c.06.185.127.378.192.57h-.192v.189c.127.066.253.126.376.194-.058.188-.124.379-.184.568.126.065.25.129.377.189.13.635.254,1.272.381,1.906h.192c.048.167-.283.779,0,1.332.127.066.25.129.38.193v.57h.19c.065.318.127.633.194.952h.187c.044.276-.377,1.132-.187,1.714h.187c.063.379.127.762.191,1.138-.141.234-.152-.076-.191.2h.191v.379c.047.087.272.152.383.379h.569v-.185h.568a.791.791,0,0,1-.378.382c.217.211,0,.08.378.186v.57c.32.254.636.51.952.764v.189c.2-.061.385-.126.576-.189a.771.771,0,0,1-.381.38v.185h.569v.389h.762c-.061.188-.127.379-.19.568.475.013.686,0,.949.193v.187c.49.33.382-.2.575.575.253-.067.508-.129.757-.193.066.193.13.38.191.573.551.137.634.2.763.762a1.738,1.738,0,0,1,.76.379v.19h.575v.191h.378v.193l1.143.378v.189h.762v.194h.38c.066.125.129.252.189.378h.569c.725.3.494.328,1.337.194v.378h.193c.063-.126.124-.253.189-.378h.191v.378c.185-.064.376-.126.568-.19v.383c.7-.066,1.4-.126,2.1-.193.124.193.249.379.377.572h1.523v.186c.352.063.385-.186.385-.186.44.063.888.126,1.33.186v.383c.365-.077.616-.091.76-.383h-.187V541.8a16.4,16.4,0,0,1,3.612.383V541.8h.2c-.014.325.484.193.759.186.892-.06,1.779-.124,2.666-.186v-.379c.615.106,1.167.1,1.526.187a1.456,1.456,0,0,1,.38-.569v-.188c.214-.167.166.144.189.188l.571-.188v.188h.19v-.188h.382v-.194c.229-.049.333.344.762.194v-.194c.361-.158.707-.126.953-.378V539.9c.189.064.38.128.569.189.067-.189.131-.381.194-.567.211-.242.455-.016.763-.193v-.191a1.557,1.557,0,0,1,.758-.383c.061-.186.127-.379.193-.567h.189v-.382c.193.061.378.123.573.189v-.189h.38v-.193c.634-.356,1.126-.546,1.332-1.331.477-.126.313-.1.569-.379h.191v-.389h.189c.13-.185.258-.377.38-.566h.383c.2-.756.664-.84.762-1.717h.569c.141-.275.956-1.309.764-1.712h-.19v-.19c.19.066.379.125.572.19.077-.411.18-.356.187-.379V530c.129.066.258.125.38.191.129-.38.256-.763.385-1.144.126-.065.253-.128.38-.188.071-.177-.329-.366-.19-.762h.19v-.384h.189c-.063-.251-.126-.505-.189-.759h.189v-.573h.193c-.064-.189-.129-.379-.193-.575,0,0,.224.037.193-.378h-.193v-.188c.193-.13.381-.253.576-.385V523.9c.146-.363.569-.772.755-1.141.575.064,1.146.125,1.717.185v-.185c.633-.069,1.267-.128,1.9-.191a1.741,1.741,0,0,1,.763-.948c-.065-.321-.128-.639-.193-.953h.193a2.315,2.315,0,0,0-.193-1.332c.59-.124-.373-.187-.57-.189v-.194c.189-.065.378-.125.57-.191-.064-.315-.126-.632-.192-.949h-.189l.189-.191c-.06-.379-.122-.764-.189-1.147h-.569v-.186c-.214-.164-.028.026-.19-.194h.38c-.142-.564-.307-.467-.38-1.138-.19.064-.38.125-.572.188.283-.8-.093-1.71-.189-2.661h-.38V512.1c-.379-.112-.167.027-.379-.189h-.191c.124-.318.251-.635.379-.948h-.188c-.148-.525-.046-.442-.575-.579V510h.191c.188-.482-.443-.7-.761-.759a5.5,5.5,0,0,0-.189-.763l.189-.191-.572-.188v-.953h-.381c-.093-.73-.235-.529-.38-1.143h-.381c-.144-.562-.307-.467-.379-1.142h-.379v-.572c-.255.068-.511.13-.763.193.063-.255.128-.51.187-.762-.35-.239-.023-.265-.187-.38l-.572.188c.183-.34.272-.294.379-.758-.379-.066-.757-.129-1.142-.194a4.817,4.817,0,0,1-.572-1.141h-.57v-.572a2.056,2.056,0,0,0-.763.189c-.125-.381-.254-.762-.38-1.143h-.569c-.078-.044-.159-.268-.381-.379v-.38c-.254-.061-.509-.129-.76-.193-.063-.128-.131-.249-.19-.379-.35-.153-.664.266-.76.191v-.38c-.233-.227-.423-.026-.763-.189.35-.382-.041-.411-.382-.577v-.38c-.253-.064-.507-.121-.762-.189a.272.272,0,0,1-.383.189c-.125-.189-.253-.377-.38-.569-.189.063-.378.125-.568.193-.065-.13-.127-.256-.191-.383-.2.038-.218.52-.383.383v-.383c-.227-.226-.433-.018-.762-.19-.061-.128-.125-.251-.186-.383-.2.067-.385.131-.574.19v-.382h-.382v.382c-.107-.031-.568.126-.383-.19h.194v-.191h-.194c-.54-.811-1.65-.492-2.279-.379v-.379c-.384-.067-.764-.126-1.144-.193v.193c-.319.061-.638.124-.955.188v-.38a3,3,0,0,1-1.331-.38c-.126.189-.259.38-.383.573h-.189c.065-.193.13-.384.189-.573-.38.064-.761.126-1.144.189v-.189h-1.141v.189h-1.521v.191c-.237.007-.489-.344-.95-.191v.191c-.26.066-.51.125-.765.193v-.384c-1.623.026-2.331.44-4,.572-.06.191-.123.379-.185.57-.758-.147-1.179-.222-1.526,0-.191-.061-.384-.124-.57-.191v.191h-.191c-.268.3.353.157.378.191v.19c-.186.065-.378.13-.569.193v.38h-.189c.12-.45.056-.355.38-.573v-.19h-.572c-.065.19-.123.383-.189.573h-.383c-.215-.215,0-.079-.379-.19-.234.4-.44.411-.569.95h-.574v.38a2.442,2.442,0,0,0-1.521.383c-.061.128-.129.254-.193.383h-.574v.189c-.4.2-.462.037-.758.379h-.19v.193h.568v.189c-.378.129-.757.253-1.138.384v-.193h-.194c-.057.193-.125.379-.186.575h-.953v.566c-.6.161-.688.439-1.335.575-.065.189-.126.379-.19.57-.549.145-.041.106-.573,0l-.187.189c.064.193.125.383.187.57-.047.065-.309-.051-.568.383h-.569v.569h-.383v.193h.19c-.033.691-.259.563-.382,1.141h-.57v-.379c-.153-.223-.19.188-.19.188-.177.4-.24.309-.763.383v.378h-.377c-.12,1.135-.514.861-.954,1.527h-.191c-.266.3.354.153.38.189v.189c-.189.063-.38.128-.572.194-.118-.3-.059-.568-.189-.951h-.191v-.953h-.193v-.383h-.187c-.065-.444-.126-.886-.189-1.336h-.192v-.567h-.189c-.063-.509-.126-1.018-.189-1.524h-.2v-1.146h-.187V500.3h-.194c.069-.186.131-.383.194-.569h-.194v-.573c-.123-.061-.254-.129-.378-.193-.194-.823-.385-1.651-.572-2.473h-.38V496.1c.086-.134.275-.006.189-.382-.128-.061-.253-.124-.38-.191v-.759h-.189V494.2c-.126-.065-.255-.128-.384-.191q-.094-.572-.187-1.142h-.574v-.191h.384c-.13-.948-.258-1.905-.384-2.853h-.382c.032-.828.289-.981,0-1.716h-.187v-.569h-.19l-.191-.574c-.125-.061-.253-.125-.38-.191q.1-.857.19-1.709h-.19c.064-.2.128-.382.19-.574h-.19v-1.333h-.19v-1.332h-.188v-.569h-.194c.063-.255.13-.512.194-.764h-.194v-.381h-.19v-.951c-.009-.049-.285-.055-.19-.382.126-.064.252-.124.38-.19v-.38h.382a2.041,2.041,0,0,1,.19-.952h.19v-.194h-.19c-.032-.45.174-.488.19-.757h-.19q.1-.477.19-.952c-.01-.036-.344-.079-.38-.381h.19v-.38h.19c-.063-.189-.126-.381-.19-.573h.19v-1.142c-.126-.061-.253-.13-.38-.186V472.5h.19c.028-.474-.19-.573-.19-.573.06-.314.127-.633.19-.951h-.19v-.383h-.188c-.259-.524,0-.475,0-.759-.194-.062-.384-.125-.574-.191-.359-.334-.012-.437,0-.761h-.383a3.835,3.835,0,0,0,.192-.765h-.382c-.063-.313-.125-.635-.189-.947h-.189v-.57c-.127-.069-.255-.13-.383-.193-.2-.462.172-.916.191-1.14h-.191c.063-.256.127-.512.191-.764h.191c.059-.57.125-1.144.189-1.716h.379a2.388,2.388,0,0,0-.19-.949h.382c.105-.945.483-1.876.191-2.667h.38q.383-2.283.762-4.569l.381-.19v-.379h.19c-.065-1.018-.126-2.035-.19-3.051h.19c.126-.619-.444-.606-.382-.948h.191c-.064-.129-.127-.254-.191-.385h.191c.064-.378.125-.759.19-1.137h-.19c-.127-.449-.256-.889-.381-1.335-.38-.126-.762-.253-1.142-.384v-.377c-.128.06-.255.12-.383.19v-.383l-.759.193c-.064-.193-.129-.38-.191-.573h-.762v.193h-.19c.06.123.126.253.19.38h-.19a4.8,4.8,0,0,0-.952,1.522h-.379v.573c-.126.063-.259.125-.383.184a2.53,2.53,0,0,0-.763,1.72c-.685.178-.656.385-.949.953h-.193c.067.123.126.252.193.379-.125.06-.255.126-.385.189v.38h-.185v.76h-.193v.385c-.19.125-.378.248-.57.379v.761h-.193v.57h-.186v1.717h-.191v2.09h-.192v.572h-.189v1.333l-.385.189v.573h-.188c-.062.256-.127.509-.192.764h-.185v.569c-.193.125-.383.254-.573.379-.082.259.059.059.19.194v.19a4.832,4.832,0,0,0-2.1,0c-.062.123-.124.254-.185.38l-.574.188v.193h-.382v.191c-.417.254-.272-.088-.573.38h-.189c-.266.3.352.157.38.193v.188c-.315.061-.634.124-.952.194v.185h.193c-.064.125-.128.254-.193.383h.193v.19h-.381v.193c-.124.063-.251.125-.383.185v.385c-.254.188-.507.379-.76.565v.382h-.19v.384c-.128.064-.253.126-.38.185v.577h-.188v.38h-.2c.068.129.129.251.2.38h-.2c.068.444.129.888.2,1.333a5.184,5.184,0,0,0-.383,2.287h.188c.015.315-.394,1.45-.187,2.093h.188v.759h.2c.06.256.123.508.188.764h.189v.573h.191v.379h.19c.062.186.125.38.19.57.19.066.378.131.571.191l.194-.191a.757.757,0,0,1-.386.382c.13.231.31.267.386.383v.378c.126.064.253.129.378.19v.572c.129.063.258.128.38.189.066.256.128.512.191.763.316.255.635.508.951.764v.953l.573.188c.02.026-.308.628-.189.952h.189v.378h.194v1.146h.376v.378h-.191q.383,1.148.765,2.287v.191c.189-.063.38-.126.569-.191v.384c-.126.063-.254.128-.38.188.06.632.126,1.27.191,1.9.126.065.25.13.379.19.063.189-.309.351-.19.765h.19v.951h.192v.569h.191v.193h-.191v.189h.191v.953l.573.188c.162.216-.152.166-.193.191a6.065,6.065,0,0,0,.193,1.714v.189h.378c-.116.38.027.167-.192.38a1.6,1.6,0,0,0,.38,1.146h.194a2.49,2.49,0,0,0,0,1.522h.192c.093.367-.13.265-.192.379v.193h.192v.762h.189c.064.38.128.763.192,1.145h.378c-.276.758-.054,1.013,0,1.9l.573-.188v.379h-.38v.382c.128.064.255.128.38.188-.065.258-.125.509-.188.767.047.119.52.252.571.564-.138.175-.351.068-.383.385h.383c.05.242-.419,1.172-.193,1.716.082.191.5-.018.378.759a.29.29,0,0,0-.185.379h.185v.379c.13.068.26.133.385.2v.758h.19a1.409,1.409,0,0,1,.191.762h.379q.1.856.189,1.712h.19c-.062.256-.121.508-.19.762h.19v.384h.189v.761h.192v.572h.191v.954h.191v.379h.191c-.063.191-.126.379-.191.57h.191c.213.562-.033.207.57.19-.065.19-.127.38-.191.572.379.115.163-.027.379.194h-.379v.947c.126.065.255.126.379.194.065.758.131,1.521.194,2.282.126.064.251.123.379.191v.57h.19c.125.826.253,1.652.38,2.471h.191c.065.255.128.513.19.765h.191v1.142c.129.066.25.129.38.193.064.635.126,1.267.189,1.905h.19v.573h.192v.378h.191v.569h.19v.379h.19v1.338h.194c.128.761.248,1.519.378,2.283a3.718,3.718,0,0,1,.949.38c.068.256.13.509.194.762h.188c-.065.126-.126.253-.187.379h.188v.383h.191c.063.442.126.886.193,1.335h.19c.142.449-.209,1.021-.19,1.138h.19v1.147h.187v1.136c.072.263.148-.074.192.2h-.192v.186h.192v.572h.191c-.064.255-.126.512-.191.763h.191v1.9c.472,1.564.486,3.594.947,5.141v1.9h.191a.533.533,0,0,1-.191.573c.069.255.129.509.191.764h-.191v.949h.191v.19h-.191v4.189h.191v4.568h.194q-.092,2.379-.194,4.761h-.191a2.424,2.424,0,0,0,.191,1.14h-.191c-.06.384-.124.765-.187,1.144h-.191c-.128,1.461-.253,2.918-.38,4.383h-.189v.569h-.191v.763h-.192c-.063.508-.125,1.013-.187,1.52h-.19v.379h-.193v.385c-.125.065-.256.129-.379.19-.064.57-.126,1.141-.194,1.717-.124.06-.252.124-.378.188v.378h-.191v.953c-.292.866-.66,2.006-.952,2.859v.757h-.19v.762h-.19v1.146h-.191v.759h-.192v1.143c-.127.06-.253.125-.379.188v.763h-.189a4.666,4.666,0,0,0,0,2.094,1.463,1.463,0,0,1,.568.384,2.724,2.724,0,0,0,.682-.166l1.5-5.458A1.142,1.142,0,0,0,1502.266,587.5Zm59.785-33.7c-.378-.118-.16.025-.38-.194C1562.051,553.722,1561.835,553.579,1562.051,553.8Zm-8.38-1.906h.2c.169.078-.369.37-.38.383C1553.549,552.149,1553.613,552.021,1553.671,551.895ZM1523.78,577.22c-.379-.114-.161.023-.38-.191C1523.78,577.143,1523.564,577,1523.78,577.22ZM1511.6,526h-.192v-.378h.192Zm.375,7.046h-.185v-.384h.185Zm10.856,7.235v-.194h-.191V539.9h.57v-.193h.191A1.281,1.281,0,0,1,1522.829,540.283Zm8.57,1.521c.063-.125.129-.253.189-.379h.193C1531.947,541.5,1531.413,541.8,1531.4,541.8Zm20.371-19.231c.162-.213-.027-.031.189-.189v.38c-.379-.115-.158.024-.379-.191Zm-9.521-23.8v.569c-.212-.158-.027.027-.186-.189-.383-.119-.167.027-.385-.193C1541.868,498.9,1542.063,498.833,1542.249,498.773ZM1511.6,519.718a2.288,2.288,0,0,1,.19-.953h2.284v.191h.379v.194c.328.054.335-.379.382-.385.308-.026.227.307.38.385h.573v.189h1.332c.455-.242.947-2.6,1.141-3.242v-1.333h.193l-.193-.189v-.188h.193v-.764h.189v-.952h.192v-1.332h.188v-.758h.2v-.763h.189c.061-.383.124-.764.191-1.147h.189c.061-.25.124-.5.189-.757h.194v-.574c.127-.06.253-.124.38-.189.061-.318.125-.637.188-.949.123-.065.255-.131.382-.194v-.378h.191v-.573h.188c.067-.254.125-.508.191-.763h.191v-.383h.189v-.567c.128-.068.258-.128.38-.191v-.573c.126-.062.256-.128.383-.188v-.383c.124-.067.252-.125.379-.189v-.382h.191c.066-.189.131-.383.193-.572.578-.152.731-.453,1.142-.758v-.2c.447-.063.89-.126,1.332-.187v-.193q.666.092,1.331.193a3.3,3.3,0,0,0,.764-.193,13.1,13.1,0,0,0,4,.193v-.193c.57.061,1.145.126,1.715.193v-.193h.191v.193c.3-.088.276-.325.38-.384a3.091,3.091,0,0,0,1.715,0v-.189h.758v-.193c.194.064.384.131.575.193v.189c.443.063.885.129,1.332.191v-.191c.885.063,1.774.129,2.665.191v-.191c.444.129.889.253,1.331.384.065.124.129.254.191.383h.574v.186c.254.066.505.126.759.191v.188h.572v.193c.189.126.379.252.574.383v.379c.188.125.38.255.569.38.061.255.126.508.189.764.193.124.381.253.574.379.063.5.121,1.016.185,1.521h.382v.383h-.187a5.388,5.388,0,0,0,.571,1.526h.191v.379c.072.119.277.086.381.378h-.192c.192.512.38,1.016.572,1.527-.334.669.148,2.672.38,3.424q.094.859.19,1.717h-.19v.756h.19v.2h-.19c.063.38.126.761.19,1.138h-.19v.575h-.19v.952h-.19v.76h-.191c-.039.237.308.319.191.766h-.191v.757h.191c.052.247-.848.589-.191,1.335v.383h.191a5.459,5.459,0,0,0,.951.759v.189h.952c.063.123.127.255.189.377h.381v.193c.324.091.339-.177.382-.193.379.069.76.13,1.143.193a11.637,11.637,0,0,1-.764,3.429v.764h-.189v.378h-.19v.573c-.126.061-.251.13-.382.19-.064.255-.124.505-.19.759h-.191c-.062.255-.126.508-.189.764h-.191v.573c-.125.061-.252.126-.38.189-.124.38-.254.759-.38,1.142-.126.065-.254.13-.38.191v.38l-.38.189v.19c-.126.065-.258.126-.381.194v.382h-.188a1.91,1.91,0,0,0-.573.951h-.384c-.2.781-.579.734-1.141,1.136-.189.255-.378.514-.571.768h-.383c-.19.253-.379.5-.568.758h-.383l-.569.765h-.382c-.062.123-.13.253-.2.382h-.378v.191c-.632.063-1.265.124-1.9.189v.186c-.38.066-.762.126-1.145.193v.19h-.377v.191h-.764v.193H1537.3v.185h-1.909v.193h-2.283v-.193q-1.233.191-2.477.381V539.9h-.376v-.193h-.764v-.185H1527.4v-.193h-.189a.31.31,0,0,1-.383.193v-.193h-.76v-.191h-.573v-.19h-.759v-.193c-.508-.061-1.018-.126-1.526-.186v-.189h-.379c-.062-.129-.126-.26-.191-.384-.887-.256-1.781-.508-2.666-.762-.244-.935-.964-.924-1.714-1.33v-.194h-.378v-.2h-.385c-.125-.185-.251-.377-.378-.566h-.381c-.066-.128-.128-.254-.189-.384a4.263,4.263,0,0,0-1.335-.758,1.339,1.339,0,0,0-.38-.954h-.193c-.479-.7-.266-.935-1.142-1.333v-1.33h-.569c.232-.546.5-1.209,0-1.715v-.19a1.377,1.377,0,0,1-.762.19,4.122,4.122,0,0,0,.568-1.522c.049-.266.183.081.194-.194-.126-.06-.255-.125-.38-.189v-.379h-.191v-1.717h-.19V523.9h-.192v-.188c.128-.067.257-.128.382-.194,0,0-.027-.742-.19-.381v.193h-.192c.332-.924-.159-2.761-.187-3.427h-.383C1511.238,519.7,1511.567,519.744,1511.6,519.718Zm-10.855-33.131h.19v-.194c.382.117.163-.021.382.194-.215.164-.031-.027-.188.188C1501.126,486.774,1500.382,486.751,1500.742,486.587Zm-9.9-4.761h-.382v-.191c.379-.114.163.026.382-.188h.191C1490.973,481.574,1490.9,481.7,1490.842,481.826Zm4.568-1.143c.065-.126.128-.253.191-.379h.189C1495.962,480.378,1495.422,480.679,1495.41,480.683Zm2.284-28.939h.194v-.379h.186v-.386c.065-.1.264-.155.383-.38.38.067.762.131,1.145.194a5.745,5.745,0,0,0,.189,1.905h-.38v.571a5.5,5.5,0,0,1-.764-.194v.194h-.572a2.375,2.375,0,0,0-.759-.571A1.4,1.4,0,0,1,1497.694,451.743Zm-2.445,2.007,5.211.767-2.454,11.649-5.67-2.606Zm-4.978,10.557c-.38-.114-.164.031-.38-.188C1490.269,464.232,1490.051,464.091,1490.271,464.307Zm-1.525,1.338a1.6,1.6,0,0,0,.57-.382c.2.145.189.229.38.382a1.9,1.9,0,0,1-.757.758v.378h-.194C1488.815,466.033,1488.936,466.226,1488.746,465.646Zm-1.524,2.468.571-.187v.377h-.571Zm1.9,12.379v-.381l-.568.193c-.063-.193-.128-.383-.191-.573h-.193c.065-.314.131-.632.193-.952h-.193v-.384c-.125-.058-.254-.125-.38-.186v-.57h-.19a1.513,1.513,0,0,1-.38-1.146h-.95v-.186a1.546,1.546,0,0,0,.571-.38c.191-.231-.126-1.006-.193-1.522h.193v-.193l-.571-.191v-.191h.571c-.112-.572-.27-1.252.188-1.716v-.188h-.569c.254-.309.544-.391.76-.761h-.379c.141-.536.34-.546.568-.953h-.38v-.379c.128-.062.256-.125.38-.191v-.189h-.189a1.629,1.629,0,0,1,.38-.953c.129.064.255.126.382.185V468.3c.128-.059.254-.12.382-.19v-.568c.129.063.254.126.38.186.063-.186.126-.378.194-.565.185-.128.376-.259.569-.385-.063-.123-.129-.254-.193-.378.193.063.38.124.574.193V466.4c.249-.063.507-.125.759-.19v-.189h.956v-.194a8.228,8.228,0,0,1,2.85,0v.194h.385v.189h.569v.19c.255.063.508.124.76.193.067.125.131.25.192.377.191.066.383.129.574.194v.379c.189.126.379.255.57.381v.377c.125.07.253.13.382.194v.762c.126.066.251.129.379.191.06.255.126.508.19.759l.38.191v.189h-.191v.193h.191v1.141h.191v.953h.19c-.063.191-.125.383-.19.572.011.048.246.065.19.379h-.19c-.058.528.459,1.505.19,2.284h-.19v.57c-.127.066-.256.129-.382.2v.569h-.189v.383c-.13.064-.253.126-.383.188v.378c-.186.13-.38.26-.568.384v.191h-.381q-.283.477-.572.951h-.763v.19c-.264.047.076-.161-.189-.19-.191.064-.379.129-.57.19v-.38h-.383v.38c-.378-.115-.161.031-.378-.19-.813.016-1.166.091-1.333.762h-.192v-.572a7.976,7.976,0,0,0-1.332.572h-.763c-.064.128-.129.256-.19.386C1489.59,481.015,1489.647,480.8,1489.125,480.492Zm.572,2.666v.382h-.188v-.382Zm.383,1.143h-.763c.158-.238.263-.11.38-.382h-.188v-.188l.571.379Zm.378,1.142h-.187v-.378h.187Zm.192-.574c.383.118.165-.026.383.2C1490.651,484.947,1490.866,485.088,1490.65,484.869Zm1.141,4.956c-.33.161-.477-.113-.568-.2h.568Zm1.908,9.517c.378.118.161-.027.378.191C1493.7,499.417,1493.912,499.563,1493.7,499.342Zm1.141,5.714c.382.113.162-.026.382.19C1494.841,505.131,1495.057,505.271,1494.841,505.056Z" transform="translate(0)" fill="#0070c3"/>
    <path id="Path_867" data-name="Path 867" d="M1518.142,497.448h.952v-.379c.551-.139.633-.2.762-.758.215-.218.087,0,.194-.383a.722.722,0,0,1-.383-.385h-.761v-.183c-.8-.021-1-.12-1.337.379h-.185v.189h.185C1517.6,496.9,1517.818,496.891,1518.142,497.448Z" transform="translate(7.542 11.222)" fill="#0070c3"/>
    <path id="Path_868" data-name="Path 868" d="M1553.006,534.933l-.434.11.434.085Z" transform="translate(15.519 20.199)" fill="#0070c3"/>
    <path id="Path_869" data-name="Path 869" d="M1552.222,534.5v-.185h-.38C1552.055,534.524,1551.838,534.395,1552.222,534.5Z" transform="translate(15.354 20.059)" fill="#0070c3"/>
    <path id="Path_870" data-name="Path 870" d="M1551.773,534.778h-.472l.551.105C1551.813,534.834,1551.794,534.782,1551.773,534.778Z" transform="translate(15.231 20.164)" fill="#0070c3"/>
    <path id="Path_871" data-name="Path 871" d="M1552.376,534.778H1552v.164l.38.073Z" transform="translate(15.389 20.164)" fill="#0070c3"/>
    <path id="Path_872" data-name="Path 872" d="M1559.591,545.557l.191-.188v-.379h.38v-.954h-.38c.065-.25.126-.505.193-.759h.188v-1.524c-.123-.064-.254-.129-.38-.19v-.191h.193v-1.143c-.014-.063-.249-.052-.193-.383h.193c.092-.5-.193-.572-.193-.572-.255-.877.111-.834,0-1.713-.031-.264-.184.079-.191-.187.129-.064.257-.124.384-.189a1.664,1.664,0,0,0-.384-1.337h-.188v-.379a1.683,1.683,0,0,0-.952-.377l-6.554,5.073-4.411,27.46-9.674,1-2.278-4.269-4.855-2.366-.551,6.349-.57,6.262h-1c.008.67.123.9.764,1.049v.379a7.54,7.54,0,0,0,1.521-.193c.061-.25.125-.5.189-.758.129-.065.257-.13.381-.2-.065-.314-.125-.633-.192-.949h.192c.192-.676.061-.57,0-1.142a.744.744,0,0,0,.379-.383c.638.068,1.27.128,1.908.192.064-.124.128-.254.189-.38h.38v.38c.32-.064.634-.124.951-.192v-.189h.953v-.189h.574v-.19c.185.064.38.125.567.19.063-.126.129-.253.194-.379h.763c.061-.128.124-.254.188-.381l.762-.194c.126-.187.254-.379.38-.57h.38l.381-.382h.38v-.189h.382c.066-.125.13-.255.191-.38h.38v-.19h1.521v-.194h2.288c.056-.015.051-.254.378-.185v.185h1.339c.251.32.505.639.757.953.308.123.365-.189.383-.189.129.063.254.129.382.189.065-.126.125-.253.19-.381.353-.085.241.489.76.381v-.189c.318-.064.638-.125.956-.193v-.378h.567s.032-.74.2-.379v.185h.188v-.377a1.9,1.9,0,0,0,.76-.194v-.189c.13.063.256.129.384.189.063-.189.125-.379.191-.569a9.257,9.257,0,0,0,2.093-.379c.061-.193.126-.381.191-.574h.19c-.065-.124-.129-.253-.19-.378.19-.129.381-.258.572-.384.061-.315.125-.635.189-.95h.192v-.379h.187c.065-.191.126-.384.193-.577h-.379c.213-.562-.033-.207.568-.185.066-.321.126-.636.192-.956l-.192-.191h.192c.061-.188.128-.381.191-.568-.191-.066-.384-.129-.573-.193v-.19h.573c.065-.569.014-.521.38-.763-.145-.19-.236-.186-.38-.38h-.191v-.188h.191v-.384h.189v.2h.191v-.2h.189v-.951h.191c.073-.263-.063.012-.191-.19v-.19h.191v-.766h.19c.144-.461-.181-.708-.19-.949h.19v-.379h.189v-1.142h.19v-.953h.187c-.06-.191-.123-.375-.187-.573l.382-.187c-.064-.259-.125-.513-.2-.765h.386V552.6h-.573v-.193h.573a2.731,2.731,0,0,0-.573-.759v-.191c.187.064.382.131.573.191a3.062,3.062,0,0,0,.188-1.522c-.011-.054-.273-.054-.188-.378h.188c.261-.708.522-1.34,0-1.716v-.19h.572c.065-.573.126-1.142.193-1.714h.188C1560.248,545.4,1559.856,545.8,1559.591,545.557Zm-23.607,20.756h-.382c.055.3.4.85.382.954h-.189c-.193.505-.381,1.014-.575,1.524h.195v.191h-.574v.185c-.189.066-.383.129-.572.194a.881.881,0,0,1-.569.759v.2c-.19-.069-.382-.131-.578-.2v.2a2.938,2.938,0,0,1-1.52-.2V568.6a17.148,17.148,0,0,0,.19-3.424c0-.61-.092-1.39.2-1.715v-.191c.3-.037.229.314.377.379h.38v.193c.129-.063.258-.129.378-.193v.385h.578c.064.191.128.377.189.569h.763v.384h.568c-.061.123-.124.249-.19.379h.385c-.209.412-.081.216,0,.759h.57Zm18.852,1.143h-.573v-.189h-.192v-.193c.192.064.381.133.569.193v-.382h.2Zm3.045-25.513c-.063.253-.127.5-.191.759l.191,1.145a.315.315,0,0,0-.191.379h.191v.191h-.191v.952h-.189v.572h-.191v.763h-.189v1.52h-.191v1.529h-.192c.066.186.126.378.192.568h-.192v1.332h-.189v.759h-.193v1.719h-.187c-.065.384-.131.759-.192,1.141h-.189l.189.19v.19h-.189v1.142h-.191v.383h-.19v.758h-.19v.764h-.191v.19h.191v.19h-.191v.38h-.188v1.335h-.2v.762h-.187v.187h.188v.2h-.187c-.127.629-.256,1.266-.381,1.9h-.189v.954c-.129.06-.253.123-.379.191-.193.249-.384.5-.572.757-.9.54-2.072.483-2.667,1.333-.615-.072-.56-.174-.954-.378v-.384h.379c.109-.663.194-.358,0-.95h.381v-.57s-.753-.124-.381-.193c0,0,.6-.5.574-.762h-.193v-.38h.193l-.193-.191v-.191h.193v-.568h.188v-1.9h.193c-.065-.2-.125-.388-.193-.577.193-.066.383-.129.572-.193v-.948l-.572.19v-.38c.254-.065.51-.126.76-.191a9.339,9.339,0,0,1,.383-2.093h-.571v-.191a1.438,1.438,0,0,0,.571-.38c.1-.15.287.061.195-.191h-.195c-.062-.127-.125-.254-.188-.38h.383v-.954h-.383v-.38h.383a8.54,8.54,0,0,0,.185-2.09h-.38c.214-.568-.029-.216.573-.194a2.586,2.586,0,0,1,0-1.332v-.953h.188q.1-.572.192-1.143h-.379c.205-.543-.044-1.709.188-2.283.13-.065.256-.128.384-.189-.063-.32-.128-.638-.192-.952h.192v-1.146h.191v-1.521h.188a.31.31,0,0,0-.187-.38v-.19h.188c.04-.348-.187-.384-.187-.384.063-.383.129-.76.188-1.141.252-.1-.058-.09.191-.193h.761c.063-.124.125-.25.192-.379.315-.064.634-.126.952-.193.061-.125.125-.253.19-.38.316-.061.632-.125.949-.189.065-.125.126-.25.193-.381.381-.061.761-.126,1.142-.189v-.189h.191c-.063,1.328-.127,2.668-.191,4Zm1.142,6.093c-.191.061-.386.126-.573.188v-.378h.573Zm.568-2.1c-.142.518-.045.432-.568.572.117-.462.2-.419.38-.76h.379C1559.623,545.967,1559.811,545.779,1559.591,545.941Z" transform="translate(10.075 20.235)" fill="#0070c3"/>
    <path id="Path_873" data-name="Path 873" d="M1530.306,495.854c-.38-.117-.166.026-.38-.189a1.65,1.65,0,0,0-1.333.378,2.466,2.466,0,0,1-.188.952,1.465,1.465,0,0,1,.379.575c1.581.288.957-.064,2.094-.384.061-.254.125-.509.189-.763a1.889,1.889,0,0,0-.76-.186Z" transform="translate(10.04 11.296)" fill="#0070c3"/>
    <path id="Path_874" data-name="Path 874" d="M1528.233,493.6v.191a2.773,2.773,0,0,0,1.905-.191v-.187h.572v-.193h.569v-.188h.381v-.191c.927-.334,1.634.164,2.287-.573.215-.159.027.026.189-.188-.379-.066-.767-.128-1.145-.19-.064-.129-.128-.26-.189-.382a3.252,3.252,0,0,0-1.523-.191v.191c-.447.064-.888.121-1.333.189v.193h-.568c-.128.19-.258.378-.381.572-.448.061-.889.124-1.332.189-.163.211.023.026-.191.19C1527.613,493.391,1527.675,493.471,1528.233,493.6Z" transform="translate(9.828 10.311)" fill="#0070c3"/>
    <path id="Path_875" data-name="Path 875" d="M1521.764,500.4h.191a1.773,1.773,0,0,1,.38.759,5.923,5.923,0,0,1,1.33.764h.384v.188h1.711v-.569c-.645-.145-.877-.439-1.525-.568-.1-.474-.384-1.125,0-1.522.046-.824.123-.651.382-1.146a2.555,2.555,0,0,1,1.524.763h.954v-.2h.189v-.188h-.189c-.062-.128-.128-.255-.2-.379h-.568v-.572h-.191v-.193h-.569v-.383c-.316-.058-.634-.126-.954-.188v-.191l-.76.191V496.6c-1.717,0-.949.353-1.9.949q-.195,1.049-.383,2.1h.191Z" transform="translate(8.491 11.507)" fill="#0070c3"/>
    <path id="Path_876" data-name="Path 876" d="M1519.4,508.307c.063.758.13,1.521.194,2.285h.189c.06.253.126.507.188.758h.194v.378h.189c.064.2.126.386.193.575a1.66,1.66,0,0,1,.759.379v.194h.574v.191h.57v.19a11.51,11.51,0,0,0,3.235,0v-.19h.762v-.191c.38-.126.763-.254,1.143-.383v-.19h.38c.061-.125.126-.254.191-.379a3.157,3.157,0,0,1,1.333-.953V510.4h.189a3.95,3.95,0,0,1,.952-1.14v-.385c-.187-.06-.38-.122-.572-.185v-.38a10.953,10.953,0,0,0-2.094-.382c-.064.426-.012.5-.191.762h-.189v.378c-.128.063-.254.13-.38.193v.383h-.191c.063.251.129.509.191.757-.191-.06-.383-.124-.574-.189-.059.129-.124.256-.189.384-.38.125-.762.253-1.142.379-.125.191-.255.379-.38.575-.528-.13-.409-.22-.764.378h-1.33a10.42,10.42,0,0,1-.951-2.284c.064-.194.121-.383.188-.575h-.187a3.671,3.671,0,0,0-2.285-.951C1519.426,508.33,1519.616,508.148,1519.4,508.307Z" transform="translate(7.998 14.076)" fill="#0070c3"/>
    <path id="Path_877" data-name="Path 877" d="M1519.024,493.1l1.526.188v.193a3.876,3.876,0,0,0,1.524-.193c-.143-1.164-.437-.505-1.142-.952-.066-.128-.129-.254-.193-.378h-.383a4.626,4.626,0,0,0-2.666-.952v.759l1.333,1.143Z" transform="translate(7.611 10.241)" fill="#0070c3"/>
    <path id="Path_878" data-name="Path 878" d="M1498.941,453.055l-5.211-.767-2.912,9.81,5.67,2.606Zm-5.238,3.128c-.381-.113-.166.026-.381-.194C1493.7,456.105,1493.484,455.967,1493.7,456.183Zm2.472,1.522c-.059.891-.124,1.78-.188,2.667h-.191v.383h-.19c-.126.567-.251,1.138-.38,1.713-.216.162-.029-.027-.191.19a2.983,2.983,0,0,1-2.1-.764h-.185c.123-.317.252-.635.378-.948h.193v-.573h.19V459.23h.191c.094-.368-.113-.259-.191-.382v-.19c.191-.125.379-.254.571-.381-.064-.317-.126-.637-.192-.948h.192a11.131,11.131,0,0,0,0-3.237,2.442,2.442,0,0,0,.76-.956c.754-.01,1.355.009,1.712.38.193.063.383.128.572.19-.129.764-.253,1.524-.379,2.283h-.193c-.06.573-.124,1.143-.186,1.716Z" transform="translate(1.519 1.462)" fill="#0070c3"/>
    <path id="Path_879" data-name="Path 879" d="M1537.111,564.768l.551-6.349-.98-.478.269-3.49-2.83.217-14.937-.713-16.363-3.129-1.654,6.018h.1v.2a.447.447,0,0,1-.166.036l-1.766,6.433h.22v.381c-.3-.092-.231-.022-.3-.1l-1.5,5.458a4.147,4.147,0,0,1,1.224-.41c.063-.568.125-1.138.19-1.711h-.381v-.191c.191.063.381.13.569.191v-.954h.194v-.188l-.194-.19h.381c.066-.255.126-.505.192-.764a.291.291,0,0,1-.192-.379c.044-.133.439-.086.384-.383a.477.477,0,0,1-.192-.379h.383v-.381h-.383v-.378c.383-.118.166.027.383-.194h.187c.123-.105-.528-.358-.569-.38v-.189h.569c.066-.256.129-.507.192-.76h.192c-.064-.189-.126-.38-.192-.573h.192v-.762h.189v-.38h.191c-.063-.13-.122-.255-.191-.383.128-.06.252-.128.38-.188v-.573c-.189.126-.38.251-.569.379v-.379l.76-.19a2,2,0,0,1,.187-.953h.192c.17-.427-.214-.521-.192-.762.129-.059.259-.124.385-.191-.126-.189-.257-.382-.385-.568.129-.066.259-.126.385-.191v-.952c.124-.063.255-.126.378-.194.069-.629.131-1.265.194-1.9h.383c.062-.124.126-.255.189-.382.307-.118.362.188.381.19.232.037.321-.3.761-.19v.19h1.142v.191a.347.347,0,0,0,.384-.191c.458-.082.483.174.758.191.127-.086.01-.286.382-.191v.191c.634.059,1.267.126,1.9.189,0,0,.01.732.19.382v-.191s.719.01.378-.19h-.378v-.189c.692.177.407.339,1.33.379.12.383-.023.164.195.383v.188l.569-.188s-.007.175.381.188v-.188h.19l1.714.568v.383a1.367,1.367,0,0,1,1.144-.383c.063.128.125.259.189.383.382-.066.762-.124,1.145-.193a.313.313,0,0,0,.38.193h.189v-.193h.189c-.065.193-.128.379-.189.573q1.237-.094,2.474-.194v-.186q.858.1,1.713.186c.117-.378-.023-.163.189-.379v-.19h.386a.775.775,0,0,1-.386.383v.186h.952c.27-.048-.075-.217.191-.186v.186h.573v-.186h.191v.186h.381v.194c.319.07.333-.184.378-.194h.954v.194h.188v-.194h.764v-.379h.194v.573h.951c.047-.011.055-.266.379-.194v.194h.377v.191c.512-.065,1.017-.126,1.525-.191.065.191.13.382.191.572l1.715.19.569-.19v.19h.954c.027.008.071.325.381.19v-.19c1.17-.036,2.235-.166,2.665.568h.191a1.98,1.98,0,0,0-.191.957h.379v.378h-.188c.156.245.158.209.382.384v.187h-.382a8.081,8.081,0,0,0,.382,1.525c-.066,1.966-.127,3.94-.194,5.9h-.188a.517.517,0,0,0,.188.572c-.064.509-.125,1.017-.188,1.527.044.264.219-.076.188.188h-.188c-.184.88.3,2.3-.191,2.858,0,.1,0,.2,0,.285h1Zm-37.177-2.971c.383.113.166-.027.383.191C1499.937,561.87,1500.152,562.013,1499.934,561.8Zm1.522-4.382c-.161.213.027.029-.189.19v-.378c.38.118.165-.027.38.188Z" transform="translate(3.092 23.802)" fill="#0070c3"/>
    <path id="Path_880" data-name="Path 880" d="M1551.715,534.665c-.364-.113-.178.014-.362-.169l-13.377-2.577-3.7,3.274-4.127,17.786-.443,5.758,1.062-.082-.187,2.16v.124l-.011,0-.153,1.764,4.855,2.366,2.278,4.269,9.674-1,4.411-27.46,6.554-5.073h0l-.434-.085-.326.085v-.147l-.38-.074v.026a.283.283,0,0,1-.3-.085l-.551-.106h-.67c.016-.052.025-.091.032-.123l-3.955-.761A1.612,1.612,0,0,0,1551.715,534.665Zm-1.33,8.949h-.193v1.713H1550v1.716h-.193v2.093h-.192v.762h-.189v.953h-.189v.95h-.19v1.147h-.19a.33.33,0,0,0,.19.378c.055.406-.19.382-.19.382v1.9c-.4,1.382-.545,3.371-.951,4.761v1.521h-.194v1.143h-.186v1.143h-.192v.764h-.187v.762h-.191c-.207.606-.013,1.282-.384,1.713v.189c-.189-.064-.379-.126-.571-.189v.189h-.953v.189h-2.475v-.189q-.858.1-1.714.189v-.378c-.315-.066-.633-.129-.953-.194-.123-.19-.25-.38-.38-.569-.189.064-.38.125-.57.189-.063-.125-.127-.255-.19-.382h-1.332v-.187h-.19q-.1-.287-.194-.57c-.126-.069-.254-.131-.381-.191-.064-.193-.123-.385-.185-.57h-.574c-.437-1.659-2.637-1.565-3.428-2.861l-.757.194v-.384h-.574v-.19h-.193c.067-.125.127-.252.193-.375h-.193v-.388h-.189v-2.284l-.383-.19v-1.521l.383-.19c.129-.892.256-1.777.382-2.668h.189c-.062-.188-.123-.379-.189-.569h.189v-.95h.19V551.8h.2v-.38h.186v-.947h.19V549.9h.191c-.059-.191-.125-.381-.191-.572h.191v-.381h.189v-.951h.191v-.569h.187c-.06-.191-.12-.382-.187-.572h.187c.066-.256.134-.507.2-.763h.191c.061-.952.128-1.9.19-2.853h.189v-.953h.189c.068-.445.128-.892.191-1.335h.189v-.569h.194v-.954a7.159,7.159,0,0,0,.568-1.906c.219-.159.031.027.2-.186a19.083,19.083,0,0,1,3.235.762h1.9s-.02.24.38.188a.318.318,0,0,1,.381-.188v.188h.766v.19h.757v.194c.575.061,1.145.124,1.713.189v.189h.577v.194h.755v.188h.765v.189h.764c.739.248,2.349.477,2.854.952.189.068.381.129.572.193C1550.511,541.708,1550.447,542.663,1550.386,543.614Zm-10.476-7.233c.383.113.168-.027.383.187C1539.91,536.453,1540.131,536.594,1539.91,536.381Zm6.666,2.09v-.378h.187v.378Zm1.715,0c.38.115.163-.024.38.194C1548.291,538.547,1548.5,538.687,1548.291,538.471Zm5.332-2.659a11.609,11.609,0,0,0,2.287.569c.161.213-.027.028.186.187v.192h-.568c-.065.125-.127.254-.191.382h-.572v.19c-.188.063-.384.124-.572.186v.386a2.946,2.946,0,0,0-1.713.377v.19h-.572v.194h-.573v.189c-.574.086-.386-.3-.57-.383-.572-.061-1.146-.125-1.714-.19V537.9c-.4,0-.618.2-.761.189V537.9h-.38v-.19h-.76v-.2h-.764v-.186h-.19v.186h-.192c.064-.124.129-.254.192-.377q-2.667-.572-5.334-1.145c-.633-.064-1.271-.125-1.9-.185V536c-.252.067-.507.125-.761.191-.126-.191-.254-.377-.38-.572-.317.063-.635.128-.951.2-.067-.132-.129-.258-.195-.385-.378-.061-.76-.129-1.137-.193v-.191c.595-.15.618-.372.952-.757h.185c.066-.194.128-.383.195-.573h.381c.128-.19.254-.381.381-.573.632-.063,1.267-.126,1.9-.185v.185h.763v.191h.952v.191h.953v.19h.758v.19h1.334v.189h.382v.194q.76.094,1.525.191v.188h.763v.193h.757v.185h.955v.191h.57v.193H1550v.19q1.618.094,3.238.2V536C1553.369,535.933,1553.493,535.872,1553.622,535.812Z" transform="translate(10.335 19.515)" fill="#0070c3"/>
    <path id="Path_881" data-name="Path 881" d="M1530.061,555.808h.572v.065l.187-2.16-1.062.082-.268,3.49.98.478.153-1.764C1530.3,556.152,1530.152,555.889,1530.061,555.808Z" transform="translate(10.286 24.457)" fill="#0070c3"/>
  </g>
</svg>
