<svg xmlns="http://www.w3.org/2000/svg" width="81.2" height="58.415" viewBox="0 0 81.2 58.415">
  <g id="Group_195" data-name="Group 195" transform="translate(-238.136 -543.036)">
    <path id="Path_1653" data-name="Path 1653" d="M286.993,544.093l5.356,2.157,3.4,2.432,1.739,3.961,2.431.419.975,2.5-1.321,2.5-1.6.9-2.362,7.58-4.032,4.586-1.531,1.249,1.74,1.671,1.808,5.767.833,6.257,2.293.488,2.573-1.183,1.319-3.477-.275-3.683,1.6-2.991,2.847-1.249,2.854.209,2.987,3.266-.485,4.937-3.615,1.249-1.391.695-5.352,7.786-5.978.976-4.31-3.825-1.182,3.126-1.739,7.163H269.2l1.484-8.758-4.406,3.126-4.033,1.877-5.075-.7-3.89-3.2-1.81-1.666-8.062-1.043L239.1,569.466l3.961-.277,10.218.138,9.383.14,3.337.209,1.946,4.449,1.529,5.769,1.253.14,6.674-8-4.8-2.5-3.335-7.369-.419-6.81-1.32-1.391.071-2.017,1.875-.694,3.2-3.131,4.035-3.723,4.236-.027" transform="translate(0.132 0.144)" fill="#fff" fill-rule="evenodd"/>
    <path id="Path_1654" data-name="Path 1654" d="M299.134,557.493l-1.111,7.648L309.7,563.4l.14-.905" transform="translate(8.149 1.967)" fill="#ffec00" fill-rule="evenodd"/>
    <path id="Path_1655" data-name="Path 1655" d="M265.985,566.677l-26.762-.557.767,4.8L243.4,586.21l2.778.623,5.214.142.487-2.782,2.92-1.877,2.569.626,2.714,1.669.415,2.3,5.492.415,3.268-.488.553-2.086,1.115,1.948,7.994-3.894-1.528-1.043-7.718-.832-2.082-10.5" transform="translate(0.148 3.141)" fill="#ffec00" fill-rule="evenodd"/>
    <path id="Path_1656" data-name="Path 1656" d="M286.347,543.546a.645.645,0,0,0,.371,0v-.124l.248-.062c.023.04.043.081.066.125h.31v.061c.137.041.275-.068.31-.061v.061c.1.023.206.042.309.063v.062h.25v.061c.083.023.164.042.246.062v.063h.312v-.062c.065.023.125.04.184.063.022.063.041.124.065.186.226-.023.41-.114.62,0l.06.124h.066v-.061c.082.022.164.042.249.061v.125c.189.073.247.028.308.25a.54.54,0,0,1,.249.123v.061h.5v.065c.039.018.081.04.124.058v.128h.065c.019.04.041.08.061.123h.184c.042.061.084.122.125.186h.126v.059c.307.12.459-.17.556.065h.249c.076.253.044.084.189.186.019.044.041.084.063.124h.122c.043.063.084.125.126.188h.248c.083.124.167.248.248.375h.189v.059l.123.063v.126l.309.247c.024.062.043.126.065.186.082.023.165.042.249.063v.064h.248c.043.123.081.244.124.374h.06c.09.1.055.117.251.122l.065-.062v.063a.636.636,0,0,0,.246.124v.247c.186.133.026.107.126.253.057.019.122.038.183.058.019.064.042.126.061.186l.251.191c.02.059.041.122.06.186h.126c.019.1.039.2.06.308.128.036.056-.009.127.065h.059c.023.1.041.2.064.308h.062c.022.065.042.127.062.186a1.156,1.156,0,0,0,.124.06c.04.209.083.415.125.624h.122a.876.876,0,0,0,.249.684l.126.061c.042.125.082.249.124.373h.062c-.022.083-.043.167-.062.251.041.018.082.038.124.06v.31c.252.03.264.133.5.184.023.065.04.125.065.186a1.078,1.078,0,0,1,.556-.061v.061h.126v.065h.25v-.065c.014,0,.454.107.494.13.024.04.041.08.064.119h.123v.065c.085.058.11.042.248.064v.123h.314v.064c.2.146.112.232.435.311v.122c.174.044.177.111.309.184a1.132,1.132,0,0,0,0,.437h.312c-.022.1-.043.207-.062.309.062.022.123.047.184.064.024.186.044.375.064.56h-.064v.186h-.061c.02.082.043.166.061.248h-.061v.125c-.042.022-.082.04-.123.061-.027.078.143.493.062.684-.043.023-.084.042-.127.063-.04.186-.082.373-.124.557-.039.022-.081.042-.123.066v.123h-.061c-.023.166-.042.333-.062.5-.084.06-.166.125-.25.188v.124c-.082.063-.167.124-.25.184v.126c-.1.085-.207.167-.308.249v.124c-.126.16-.219-.008-.312.314-.123.042-.248.08-.373.122l-.059.123h-.189v.061c-.209.111-.236-.028-.31.251-.143.158-.05.331-.126.559h-.06v.247h-.062v.065a.105.105,0,0,1,.062.122h-.062v.065c.024.04.042.084.062.122h-.062v.127h-.061v.308h-.06v.124l-.19.127v.126h-.064c-.019.306-.041.619-.058.929-.042.021-.084.044-.125.063.02.063.041.122.06.184-.06.042-.124.084-.186.124-.018.1-.041.209-.062.314h.062v.065h-.062v.122c-.04.02-.082.04-.124.065,0,.073.119.108.064.243-.043.025-.083.043-.122.065-.025.1-.042.209-.066.309h-.124c-.082.25-.165.5-.25.747-.062.019-.122.042-.186.059v.125c.045.022.084.042.124.065-.019.082-.04.164-.059.248h-.065v.251h-.062v.119h-.059a.553.553,0,0,0-.127.251h-.122a1.251,1.251,0,0,0,.061.247h-.061v.126h-.125c-.043.207-.085.415-.126.619h-.059a.567.567,0,0,0-.187.437c.207.073.37.073.435.31a.768.768,0,0,1,.311.188v.059h.245v.062h.126v.065h.123c.04.061.083.124.126.186h.127c.039.059.078.124.122.186h.185v.061a1,1,0,0,0,.435.186v.125a1.891,1.891,0,0,0,.371.186c.042.2.224.3.126.437l.248.059c.02.06.041.125.061.184.065.044.127.085.186.127v.124c.041.018.083.04.125.062.022.082.044.164.061.247h.064v.25l.186.125v.119h.061c.019.089.043.172.064.251h.059c.024.231.044.454.065.683h.062v.125h.059v.249h.064v.186h.064c.022.1-.1.237-.064.436h.064c.019.107-.058.1-.064.125v.373h-.064c-.014.056.09.077,0,.251-.041.017-.082.038-.122.057-.039.116.181.331.122.5h-.059v.126l-.127.06v.126h-.059v.309h-.064v.126c-.041.018-.084.042-.125.06v.126c-.042.02-.082.042-.123.06v.126l-.125.06v.126c-.042.018-.084.042-.125.065-.019.058-.04.122-.059.184-.127.018-.249.04-.375.06-.041.064-.083.126-.124.189h-.126c-.02.04-.042.08-.06.122a1.048,1.048,0,0,1-.56,0v-.122c-.186-.02-.375-.04-.558-.062a.167.167,0,0,1-.186.063V575.6h-.248c-.019-.042-.042-.086-.065-.126h-.122v-.06c-.1.018-.21.04-.311.06v-.06H296.6v-.062h-.123v-.064h-.064v.064h-.31c-.082-.144-.168-.291-.251-.434-.061-.023-.123-.043-.187-.065.024-.06.045-.122.065-.186-.041-.018-.082-.042-.122-.06-.15-.173-.371-.317-.437-.561.072-.069.025,0,.065-.122-.084.019-.169.04-.251.061v-.061a1.539,1.539,0,0,1-.5-.5c-.019-.084-.044-.168-.064-.251-.041-.017-.083-.04-.124-.057.02-.087.041-.169.06-.251h-.06v-.123h-.061v-.312l-.065-.065c-.059-.019-.123-.037-.184-.059a2.156,2.156,0,0,0-.185-.437v-.186h-.062c.02-.081.04-.165.063-.249h-.062V571.2h-.065c-.074-.233.015-.475-.124-.624-.07.069,0,.025-.122.058-.023.067-.043.131-.062.191h.062v.184c-.145.107-.294.209-.435.314h-.186c-.062.079-.126.166-.187.245-.194.123-.156-.108-.25.19h-.122q-.218.245-.435.5h-.25c-.041.063-.081.122-.122.186h-.186v.063h-.127v.061h-.122v.063c-.173.107-.116-.056-.186.186.1-.019.259-.131.308-.124v.064h.127v.06h.122v.063h.31v.064h.251v.058h.122c.063.083.124.169.189.251h.122v.065h.186c.044.057.083.122.125.184h.126v.059l.122.065v.373c.107.082.206.165.314.247.02.124.041.249.06.375.064.042.126.082.185.125.019.082.045.164.062.248h.065c0,.04-.109.223-.065.373h.065v.249c.042.023.083.042.124.063v.182h.063v.315h.06v.189h.064v.123h.061c.022.206.041.412.061.621h.064v.869h.059v.311h.065v.245h.061v.372h.06v.191h.064c-.02.124-.041.248-.064.37h.064v.126h.064v.619h.064v.747h.061v.559h.062v.125h.06v.743h.064v.31h.06v.249h.06c.022.251.045.5.065.745h.061v.19c.042.019.082.042.125.061.019.207.042.411.065.619a.1.1,0,0,0-.065.124h.065c.019.1.04.209.06.311.04.022.082.044.124.065v.124h.062v.184c.061.042.126.084.183.126v.123c.065.04.126.082.187.126.02.084.041.165.065.249.063.019.123.04.186.063.02.037.041.082.06.122h.5c.247-.084.5-.165.745-.249.041-.059.082-.124.123-.184h.126c.061-.086.127-.166.185-.249h.124c.044-.064.083-.126.125-.186.042-.024.084-.042.124-.064v-.123h.065c.039-.061.081-.126.122-.186h.125c.023-.042.041-.084.065-.126h.122v-.065c.062-.04.123-.077.185-.122v-.123h.064V584.3c.062-.04.124-.084.186-.126v-.119h.064v-.127h.06c.057-.086.044-.11.061-.251h.127c.086-.15.193-.173.245-.373h.064v-.373l.186-.061v-.06a.258.258,0,0,1-.125-.373h.061v-.311h.064v-.312h-.064v-.122h-.061v-.063H299.7c-.1-.146-.206-.291-.308-.437-.023-.165-.044-.328-.065-.494.016-.087.074.024.065-.062h-.065a6.3,6.3,0,0,1,0-1.429h.065v-.437h.062v-.122h.059v-.189h.064v-.125h.061v-.186h.061c.024-.082.041-.164.064-.245h.061v-.311c.061-.044.125-.084.186-.124.083-.353.167-.706.25-1.059.059-.018.123-.04.186-.058a.472.472,0,0,1,.059-.25h.064c.019-.167.042-.331.062-.5.143-.126.29-.249.436-.37.019-.047.04-.086.061-.128h.123c.064-.083.124-.165.189-.249.223-.151.339-.028.434-.373H302c.02-.062.043-.125.06-.186a.5.5,0,0,0,.376-.123v-.064h.123c.019-.041.041-.083.061-.123l.373-.126v-.06h.5v-.06h.371v-.061c.229.017.457.04.685.061.051-.073-.008-.01.062-.061v-.373c0-.02.078-.025.061-.13h-.061v-.244a1.161,1.161,0,0,1,.123-.064,1.769,1.769,0,0,1-.061-.559h.061c.023-.184-.114-.151-.123-.189-.03-.1.057-.1.061-.12v-.315l.123-.06V571.5h.063c-.02-.127-.041-.251-.062-.373h-.061c.019-.147.041-.289.061-.435h.063c-.02-.167-.041-.331-.062-.5.042-.019.086-.042.126-.064v-.619c.042-.023.084-.042.125-.065.01-.119-.194-.1-.125-.31.042-.021.084-.041.125-.062v-.308h-.125a2.6,2.6,0,0,1,.186-1.119l.122-.062c-.014-.173-.219-.394-.122-.683h.061v-.186h.06V566.6h.062v-.373h.065v-.31h.062v-.186h.062v-.186h.06c-.02-.1-.039-.209-.06-.311h.06v-.248h.061v-.065h-.061v-.247h.061c.023-.1.042-.208.065-.312.041-.018.078-.04.122-.058-.019-.189-.043-.375-.061-.563.042-.02.084-.042.126-.06.022-.231.041-.457.061-.682h.061v-.126h.061v-.251h.061V562.5h.064c0-.026-.1-.231-.064-.373a2.293,2.293,0,0,0,.125-.619v-.685h.064v-.127h.063v-.867c.015-.088.036.022.061-.063v-.249h-.061c-.02-.109.056-.1.061-.124v-.373a.74.74,0,0,1,.621-.186v-.063c.168.019.329.04.5.063v.061h.248v.065c.084.017.166.042.248.06.065.082.127.166.186.245.126.042.251.085.373.127.064.082.127.166.186.245a2.194,2.194,0,0,0,.872.437v.125c.143.042.289.084.434.122v.065h.25c.02.042.04.084.06.122.06.025.126.044.184.065v.061q.375.063.749.123v.065h.124c.022.04.04.082.06.124h.125v.063c.19.019.374.04.56.061v.06h.126v.065c.122.017.244.04.373.059v.063c-.075.074-.028,0-.065.126h.186c.049-.017.026-.137.124-.126v.065c.084.019.168.04.249.061v.065h.311v.06h.126v.061h.12c.024.042.045.083.066.125.1.035.114-.06.122-.06.1.018.208.038.31.06v.124h.128V562c.225.061.456.126.682.186v.061c.207.02.412.044.621.063.082.147.166.293.248.437l.064-.065c.078.023.162.042.245.065v-.065h.311c.042.065.085.124.125.189.144.023.289.04.437.063v.122h.183v.129a3.608,3.608,0,0,1,1,.494c.065.1.125.209.185.309h.191c.039.064.078.126.122.186.257.179.409.049.433.5h.126c-.024.219-.079.191-.126.373h-.123c-.044.172-.017.14-.186.186-.161.18-.2.04-.436.125v.061c-.084.02-.165.041-.248.065v.119h-.124v.127a2.415,2.415,0,0,1-.436.063c-.02.061-.04.124-.061.186h-.06v.059h-.189c-.019.042-.039.084-.062.127h-.124v.061c-.118.032-.373-.17-.558-.061v.061c-.072.072-.025,0-.064.125a13.072,13.072,0,0,0-1.863,0v.064c.083.049.075.04.123.123h-.123v.061h-.186l-.061.125c-.248.019-.5.04-.745.063-.086-.023.023-.06-.061-.063-.064.019-.126.04-.189.063v-.063h-.124v-.062l-.374.062c-.018-.042-.042-.083-.059-.125h-.128v.125a.571.571,0,0,0-.309.063v.059h-.869v.065h-.124c-.019.04-.041.082-.063.122h-.126v.062H310.7v.065h-.312v.059H310.2v.065h-.189v.063h-.5v.061h-.124v.063h-.558v.063h-.25v.061h-.122v.063c-.214.072-.417-.056-.561-.062l-.991.127c-.024.06-.045.119-.065.182h-.065v.437h-.061v.184h-.061c.023.27.042.539.061.812a12.711,12.711,0,0,0-.123,1.672c-.022.107-.041.209-.061.314h-.062v.37h-.063c-.02.082-.042.166-.061.249h-.062c-.027.084.023.01.063.066.066.127.1.107.124.309-.319.212-.068.359-.124.623h-.062v.5a.451.451,0,0,1,.124.122c.227.023.454.044.684.065v.065c.081.017.164.04.25.061v.06c.185.023.369.04.557.06v.065h.124c.023.04.042.082.065.122h.122v.063h.186v.064h.126c.019.04.04.083.06.123.16.115.116-.065.186.186a.953.953,0,0,1,.56.373l.126.065c.059.093-.025.189.059.248h.187v.065h.124c.041.058.085.122.125.184h.061v.124c.144.125.291.247.434.372v.064h.124a.5.5,0,0,0,.128.375h.059v.123c.043.019.083.04.126.061v.247c.061.044.124.084.186.127.019.1.042.206.061.308h.063c.022.063.041.126.06.186.044.023.084.04.126.065v.373l.186.124v.311h.061v.124h.064v.435h-.064v.058c.041.024.084.044.124.064-.04.065-.083.127-.124.186h.064v.311h-.064c.022.146.041.291.064.435,0,0-.067.015-.064.126,0,.089.064-.026.064.06h-.064v.681h-.061c-.022.086-.041.169-.064.251h-.06v.251h-.063c-.022.04-.042.082-.061.122H311.2c-.018.026.1.142.06.251l-.06.063c-.111.055-.1.086-.249.122.023.082.04.166.063.251h.062c.022.115-.051.089-.062.122-.023.084-.04.168-.062.251-.082.059-.164.124-.247.186v.124h-.186a.406.406,0,0,1-.126.123v.312h-.06c-.112.147-.114.175-.375.186a.361.361,0,0,1-.19.308v.063c-.142.023-.285.042-.432.062-.02.042-.041.084-.062.126h-.248v.127c-.147.038-.291.08-.436.119v.065h-.311v.061c-.225.02-.454.039-.682.063-.02.06-.045.124-.061.184a1.363,1.363,0,0,0-.619,0v.062c-.085.022-.168.044-.252.061v.06c-.256.107-.46-.044-.621.191h-.061c.022.04.042.082.061.125-.04.022-.081.04-.123.061v.373c-.083.063-.169.123-.248.184v.314H305.6v.122h-.061c-.02.127-.039.249-.06.375-.042.018-.083.042-.125.06v.127h-.065v.122h-.062v.189l-.122.06c-.051.119.089.206.061.25h-.061v.06h-.186v.126c-.064.018-.126.041-.187.063a.493.493,0,0,1-.061.557c-.2.2-.29-.006-.311.435h-.125c-.018.082-.042.165-.062.251h-.123a.592.592,0,0,1-.123.308H303.8v.065a.629.629,0,0,1-.308.186c.022.1.042.207.064.308-.126.1-.248.209-.374.314v.124h-.064c-.085.091-.03.078-.184.123v.186h-.066a.957.957,0,0,1-.37.5l-.06.123h-.126a3.808,3.808,0,0,0-.374.25,2.326,2.326,0,0,0-.061.435c-.123.04-.25.082-.372.125a.676.676,0,0,1-.312.494v.065h-.245v.059c-.042.023-.086.044-.127.065v.122c-.062.023-.124.043-.186.065l-.062.12h-.186c-.02.044-.041.086-.064.128H300.2V593h-.124v.057H299.7v.065h-.123c-.023.042-.041.084-.064.124h-.122v.065l-.807.122v.065h-.126c-.041.06-.083.122-.127.184H297.9c-.022.042-.043.084-.064.127h-.372v.061h-.934v.062h-.5v-.062c-.06-.024-.123-.042-.187-.061v.061h-.5v-.061c-.142.019-.289.037-.435.061v-.061q-.491-.065-.991-.127v-.063H293.8v-.061h-.251v-.06c-.07-.07-.024,0-.062-.126a1.4,1.4,0,0,1-.681-.125v-.061h-.126v-.062c-.145-.023-.29-.04-.433-.065-.022-.038-.042-.08-.065-.119h-.124v-.065h-.246v-.064h-.187v-.06h-.184v-.06h-.125v-.065h-.126v-.059c-.062-.042-.124-.083-.184-.127-.023-.059-.045-.124-.065-.184h-.064c-.02-.044-.04-.084-.058-.126H290.7a.784.784,0,0,1-.249-.433h-.125c-.02-.065-.044-.126-.061-.189H290.2c-.022-.06-.042-.122-.062-.186-.042-.019-.081-.04-.122-.06-.106-.208-.209-.415-.315-.62-.075.057-.066.137-.123.184-.106.084-.066-.062-.187.126h-.06a.6.6,0,0,1,.06.435c-.06.04-.12.082-.184.122v.314c-.02.047-.137.022-.126.122h.063v.312h-.063v.125l-.125.059.065.065c0,.147-.052.156-.065.247.022.124.041.251.065.373-.065.042-.124.084-.184.124-.043.125.132.353.06.562h-.06v.124h-.065c-.041.331-.085.661-.127.992h-.059v.124h-.065v.435c-.041.02-.082.042-.125.062.024.166.043.331.064.5h-.064c-.019.083-.037.165-.059.251h-.06v.435h-.064c-.024.063-.042.122-.064.186a.174.174,0,0,1,.064.184h-.064v.186c-.041.023-.081.04-.123.065.019.122.042.245.06.37h-.06v.128h-.064v.5H287.9v.119h-.056v.251h-.065c0,.051.111.212.065.373h-.065v.186h-.064a.168.168,0,0,0,.064.186c-.022.08-.042.162-.064.249h-.123c-.022.063-.042.124-.064.184h-.06v.122H287.4c-.018.063.122.178.061.314-.061.042-.124.084-.189.126-.061.268-.125.537-.186.806a3.8,3.8,0,0,0-.5.124v.065c-.227-.022-.456-.042-.685-.065-.057-.112-.085-.1-.123-.248-.148-.036-.115-.02-.186-.123h-.064c-.018-.147-.041-.291-.062-.439h.062v-.246c.085-.06.166-.123.25-.186.106-.291.208-.579.311-.868v-.251c.041-.019.083-.042.125-.061-.02-.207-.042-.416-.064-.617h.064v-.127h.06l.125-.186h-.125v-.126h.125v-.186c-.041-.023-.083-.04-.125-.062V597.6h.125a.993.993,0,0,1,0-.68h.059a.564.564,0,0,0,.127-.251.251.251,0,0,1-.127-.124c.266-.189.072-.189.189-.437.041-.018.082-.04.124-.06V595.8h.064c.014-.058-.08-.062,0-.249h.062v-.309h.059v-.5h.066v-.122h.059V594h.061v-.125h.064c.061-.189.126-.373.189-.559h.061v-.189h.06c.042-.144-.062-.162-.06-.249h.06c.022-.184.042-.37.064-.559h.063c-.02-.124-.042-.247-.062-.373h.063v-.122h.06v-.251h.064v-.123l.12-.061V591.2h.065v-.125h.064c.015-.1-.2-.219-.128-.432h.065v-.127l.124-.06c.026-.064-.117-.117-.06-.25.042-.02.082-.044.123-.062v-.184h.064v-.126h.064c.053-.088.042-.107.06-.247h.123a1.707,1.707,0,0,1,0-.621h.061v-.5h.065v-.122h.059v-.186h.063v-.124c.043-.023.086-.043.129-.065v-.373h.06c-.023-.1-.043-.209-.06-.309q-.032-.748-.065-1.493h.065c.036-.107.023-.16.06-.247.059-.022.124-.042.184-.062v-.064h.126v-.062h.745c.019.042.042.084.064.126h.184v.063h.124v.06c.125-.018.249-.04.374-.06v.06h-.125v.126h.186v-.126a1.867,1.867,0,0,1,.5.126v.249c-.2.112-.249.231-.561.249-.072.068,0,.024-.125.059.023.56.041,1.121.062,1.678h.063c.022.124.04.249.061.375h.186c.019-.065.042-.126.065-.186h.06c.115-.128.077-.153.31-.189a.6.6,0,0,1,.5-.5c.045-.352.157-.2.25-.375v-.122c.084-.021.167-.042.248-.065.085-.3.068-.061.25-.186.019-.059.041-.122.061-.186.064-.018.126-.042.186-.06v-.064a.52.52,0,0,1,.25-.125V586.1h.06c.086-.106.065,0,.125-.059.042-.083.083-.169.126-.251h.186a3.471,3.471,0,0,1,.186-.435h-.062c-.07-.068,0-.024-.124-.06a1.775,1.775,0,0,0-.186-.5v-.373h-.062V584.3H293.3v-.434h-.06v-.251h-.065v-.806h-.06v-.249h-.062c-.019-.207-.042-.415-.061-.621h.061v-.061h-.061c.019-.227.042-.456.061-.686h-.061v-.186h-.065c-.02-.308-.039-.621-.061-.932.023-.1.041-.207.061-.309-.061-.022-.122-.042-.184-.061-.023-.207-.042-.418-.064-.621h-.061v-.127h-.064v-.245H292.5c.019-.1.039-.209.059-.311H292.5v-.186h-.064v-.186h-.064v-.5h-.062c.025-.128.043-.252.063-.377h-.062c-.018-.166-.04-.328-.059-.494h-.065v-.125h-.061v-.184h-.063v-.315H292v-.189h-.059v-.307h-.066v-.25h-.059v-.186h-.061v-.184l-.126-.065v-.122c-.062-.043-.125-.083-.184-.125v-.126h-.065v-.125h-.06v-.184c-.061-.04-.126-.082-.189-.126v-.06c-.122-.022-.25-.042-.373-.061v-.065H290.7c.022-.06.04-.12.061-.182-.04-.025-.081-.042-.124-.065a1.091,1.091,0,0,1-.249-.437c-.442.009-.476.223-.808.314,0,.273-.015.28-.123.435h-.065v.184c-.06.042-.12.086-.184.124-.02.186-.043.375-.064.561l.064.06h-.064v.186l-.123.062c-.222.361-.254.648-.744.743a.823.823,0,0,1-.562.5c-.051.244-.156.3-.308.431v.063c-.062.022-.127.042-.189.065v.122c-.064.022-.125.042-.184.065v.059c-.148.025-.293.042-.436.063-.02.042-.042.084-.064.126-.064.018-.123.041-.185.06v.065c-.186-.025-.371-.042-.559-.065v.065c-.064.019-.124.04-.186.064l-.064.123h-.248v.063h-.062v-.063h-.247v.063c-.208-.023-.417-.043-.621-.063v-.062h-.186v-.06h-.436c-.02-.044-.042-.089-.061-.128-.1-.019-.207-.042-.311-.06a.778.778,0,0,1-.126-.248h-.247c-.1-.147-.206-.291-.311-.435-.062-.02-.123-.042-.186-.065v-.122c-.081-.065-.164-.123-.247-.186-.022-.065-.045-.125-.064-.186H282c-.066.073-.107.068-.186.122v.065c-.206.117-.217-.1-.31.248h-.312v.189a.777.777,0,0,0-.37.185v.059h-.125c-.022.042-.041.084-.064.127h-.186v.059h-.125v.063h-.185v.063h-.123v.064c-.084.018-.166.041-.251.06v.065h-.185v.064h-.245v.06a2.471,2.471,0,0,1-.932,0v-.06h-.253v-.064h-.122c-.02-.042-.042-.084-.062-.125l-.746-.126v-.063c-.125-.04-.248-.082-.371-.124v-.062h-.125c-.1-.124-.206-.244-.308-.373-.065-.018-.13-.037-.19-.06.02-.061.042-.126.06-.184h-.06c-.07-.075,0-.028-.126-.064-.1-.521-.237-.462-.057-.87h-.127v-.062h-.186c-.064.081-.125.162-.185.249h-.065c.022.063.041.125.065.184h-.065v.125h-.061l-.06.124h-.127c-.039.065-.082.126-.124.186h-.122v.128h-.125v.184c-.126.1-.251.207-.373.309v.065c-.062.017-.125.04-.189.059-.019.062-.04.127-.06.186h-.124c-.018.042-.044.085-.061.125h-.065c.022.064.043.124.065.189-.127.107-.251.206-.375.308v.127l-.124.061c-.041.062-.082.125-.125.184h-.061v.127c-.065.042-.126.082-.186.124-.023.06-.041.122-.062.186h-.122q-.128.373-.251.745c-.083.063-.162.123-.249.186-.02.083-.04.167-.06.249h-.065v.123c-.061.042-.125.082-.186.126v.124c-.041.023-.082.04-.123.06v.126c-.061.041-.125.081-.186.125-.024.1-.042.206-.062.306-.06.091-.156.007-.249.065a3.1,3.1,0,0,0-.371.685h-.125c-.02.06-.04.125-.062.188a1.158,1.158,0,0,0-.436-.063.966.966,0,0,0,.125.5c.023.144.041.291.064.435h.063v.621h.06c.02.142.042.291.064.433.206.042.412.084.62.124v.062h.559v.065h.435v.061h.437v.06c.329.022.659.042.991.067v-.067h.065v.067h.309v.057c.415-.019.829-.04,1.242-.057.013,0,.02-.094.125-.067v.067c.082.017.166.038.249.057v.063h.5v.065h.062v-.065h.371v.065h.186v.061h.439v.063h.553c.09.014-.02.065.064.06v-.06h.312v.06h.434a2.756,2.756,0,0,0,.5.124v-.06h.184v.06h.559v.062h.251v.061h.186v.06h.183c.04.065.085.13.126.191.193.1.123-.119.309.125h.061v.434h-.061v.184h-.06v.065q-.465.188-.932.37c-.022.063-.041.127-.064.186a.6.6,0,0,0-.309.063v.062h-.25v.064c-.226.06-.454.125-.684.188v.122c-.056.086-.144.011-.247.062v.061h-.126l-.061.125c-.15.106-.109-.067-.187.186l-.37.124c-.042.065-.084.126-.128.189h-.308v.06c-.1.022-.207.042-.308.065v.122c-.189.042-.375.082-.561.126-.022.04-.041.082-.062.125h-.311c-.042.059-.083.124-.126.184-.082.019-.162.042-.247.061-.022.041-.042.085-.064.13h-.124v.057c-.131.049-.186-.084-.248-.057l-.06.119h-.127c-.061.082-.124.165-.183.251h-.314v.06c-.125.044-.247.084-.371.126v.186a2.069,2.069,0,0,0-.56.186c-.1-.024-.207-.042-.308-.065-.022.041-.043.085-.065.127H273.3c-.017.04-.039.082-.061.124h-.123c-.019.04-.041.08-.063.122h-.185v.065h-.125c-.02.04-.041.082-.064.123h-.123c-.062.082-.123.168-.187.25h-.186c-.02.04-.041.078-.061.123-.083.019-.166.04-.248.064-.024.041-.042.083-.062.123-.083.022-.165.04-.249.064-.022.083-.04.162-.061.244-.125.047-.25.086-.373.127v.064h-.25v.063h-.06v.184h.06v.126h.064c.02.041.042.083.061.125h.125s.107.108.123.122l.061.124h.189a.571.571,0,0,0,.061.251h.062c.094.233-.1.419-.124.5v.31c-.083.06-.167.12-.25.184-.022.049.1.127.061.249h-.061c-.022.124-.04.249-.06.375-.043.018-.083.04-.125.06.019.061.042.124.062.186h-.062v.065a.139.139,0,0,1,.062.186c-.043.017-.083.04-.125.059v.684h-.061v.186h-.064c.02.124.042.249.064.377-.064.04-.124.08-.186.122-.035.081.04-.01.063.06a.174.174,0,0,1-.063.191c.022.058.04.12.063.184h-.063c-.023.123-.041.244-.064.373h-.065v.433h-.06v.311c-.083.042-.165.084-.249.124.022.065.043.126.062.186h.062c.025.1-.057.111-.062.124v.376l.062.064-.125.058a.167.167,0,0,0,.062.186c-.019.1-.041.209-.062.31-.081.063-.165.125-.245.186v.065c-.125.04-.252.084-.375.123v.061h-.126v.065c-.122-.023-.245-.042-.371-.065v-.061a.1.1,0,0,0-.122.061c-.106-.017-.209-.04-.314-.061-.042-.209-.135-.24-.186-.431.064-.023.124-.044.186-.065.023-.4.044-.787.061-1.183.043-.02.084-.04.126-.063v-.186h.062c.009-.08-.1-.1-.062-.249h.062v-.308h.064v-.126h.06v-.186h.061v-.123h.064v-.184h.062v-.128h.06v-.309c.043-.019.084-.04.126-.064-.015-.1-.126-.125-.126-.125-.039-.175.106-.133.126-.186.059-.578.122-1.155.185-1.739h.123c-.019-.122-.039-.249-.059-.373.034-.133.147-.267.186-.435h-.127c-.1.124-.2.251-.308.375h-.126c-.06.084-.123.165-.186.249-.04.019-.082.04-.122.063-.06.1.014.179-.064.245h-.126c-.08.1-.164.207-.247.311-.186.135-.3.115-.375.375-.1.018-.206.04-.309.063v.186c-.062.037-.123.082-.184.122v.065h-.125c-.042.059-.083.124-.126.184l-.372.126v.06c-.127.047-.274-.08-.312-.06v.06c-.058.042-.123.084-.186.124v.186c-.052.081-.233.072-.308.125l-.19.25-.558.123c-.042.065-.082.128-.124.186h-.126v.062h-.433v.064h-.187v.06c-.081.021-.162.042-.248.063v.061c-.028.007-.241-.117-.373-.061-.02.04-.041.082-.062.122h-.124v.128a6.276,6.276,0,0,0-1.3.184h-.064v-.059h-.431v.059c-.141-.022-.131-.226-.311-.184-.023.041-.045.081-.065.125a.916.916,0,0,1-.433-.062v.063a3.262,3.262,0,0,1-.935,0v-.062h-.124v-.062h-.371v.063c-.106.018-.109-.058-.126-.062h-.617v-.064h-.19V596.1l-.748-.122v-.062h-.124v-.06h-.433V595.8l-.436-.062v-.058h-.248c-.023-.047-.043-.084-.062-.128l-.186-.062v-.06h-.187c-.02-.042-.04-.082-.06-.122h-.25v-.065h-.124c-.041-.064-.081-.124-.124-.189-.1-.019-.207-.042-.311-.061v-.062c-.064-.02-.125-.038-.186-.062-.02-.04-.041-.082-.061-.124h-.124v-.06h-.124v-.061h-.127l-.122-.125h-.127c-.041-.065-.082-.124-.122-.189h-.125c-.04-.063-.083-.122-.124-.184h-.123c-.023-.042-.043-.084-.064-.124H254.1c-.022-.063-.04-.125-.065-.186-.042-.02-.083-.043-.122-.065-.019-.062-.042-.125-.062-.186h-.064c-.022-.06-.041-.125-.062-.186H253.6c-.056-.273-.206-.272-.248-.561h-.125c-.082-.1-.165-.2-.248-.307h-.062v-.124c-.106-.083-.2-.169-.309-.251v-.122l-.126-.125h-.124c-.022-.061-.041-.126-.062-.186l-.124-.065v-.124c-.276-.073-.229-.235-.374-.435-.044-.061-.189-.112-.247-.184l-.684-.064a2.435,2.435,0,0,1-.56.126v-.062h-.248v-.064h-.56v-.06h-.31V590.7c-.076,0-.157.1-.309.067V590.7h-.934v-.057h-.558v-.065h-.062c-.066,0-.209.109-.374.065v-.065h-.249v-.062h-.683v-.06h-.435v-.064h-.249v-.06h-.185v-.062h-.251V590.2h-.434v-.062H244.1v.063h-.061c-.249-.083-.5-.165-.748-.247-.04-.173-.079-.142-.124-.314-.332-.094-.226-.194-.371-.436l-.125-.058V588.9a1.222,1.222,0,0,1-.122-.061c-.026-.06-.042-.125-.065-.187h-.061v-.186c-.042-.017-.086-.04-.126-.057v-.251l-.123-.065v-.124c-.064-.04-.125-.082-.185-.124v-.309h-.066v-.189h-.061c-.019-.2-.041-.412-.059-.621h-.064c.022-.122.041-.247.064-.373h-.064v-.122h-.06v-.437c-.044-.02-.085-.04-.125-.06v-.312h-.064v-.87h-.061v-.619c-.042-.019-.082-.042-.126-.061v-.562h-.062v-.434h-.06v-.433h-.064c.024-.083.04-.167.064-.251h-.064V582h-.058v-.122H241v-.374h.064c-.024-.126-.045-.248-.064-.375h.064a.165.165,0,0,0-.064-.182c.018-.21.04-.417.064-.624H241v-.186h-.065c-.018-.168-.042-.333-.061-.5h-.062v-.189h-.061v-.37h-.062v-.191h-.062v-.182h-.06c-.022-.085-.04-.167-.064-.251h-.062V577.9h-.062v-.5h-.061v-.373h-.06v-.557h-.061v-.251h-.062v-.247h-.064c-.02-.166-.041-.331-.062-.5-.041-.021-.084-.042-.124-.06-.02-.1-.041-.207-.062-.312h-.064v-.5h-.062v-.189h-.061v-.186c-.062-.038-.124-.082-.186-.124v-.249h-.062v-.12h-.061v-.434c-.06-.047-.124-.085-.186-.13-.041-.144-.082-.29-.123-.431.05-.075.076.023.06-.064h-.06c-.024-.228-.042-.456-.066-.682h-.06c-.043-.128-.082-.25-.125-.375H238.7v-.375c-.042-.018-.084-.04-.127-.058v-.315h-.061c-.041-.12-.083-.251-.123-.37h-.064c-.018-.167-.043-.331-.062-.5,0,0,.08-.009.063-.124h-.062v-.062h.063c-.062-.186-.123-.375-.186-.557h.064c.1-.34.142-.128.37-.253.022-.04.043-.082.064-.122h.123a1.046,1.046,0,0,0,.061-.124h.124v-.063h.315a6.2,6.2,0,0,1,1.739-.125c.141,0,.161.053.245.06v-.06h.439s-.013-.066.124-.064c.086,0-.028.064.059.064v-.064l.623.064v-.064l.435-.06v.06l1.677.064v-.064h.25v-.06a3.381,3.381,0,0,1,.993,0v.124l.186-.124V568.4c.062.02.125.039.187.063v.06h.124v.064l.744-.064v.124c.25-.04.5-.082.744-.124v.064h.252c.018.041.04.085.058.125.108-.023.211-.04.312-.065v.065h.248v-.065h.251v.065h.372v.063a1.272,1.272,0,0,0,.5-.127v-.06h.625c.023.06.04.125.059.188h.125v-.127h.312c.015.007.018.079.122.065v-.065l.746-.06c.177.016.229.176.436.125v-.065h.187v-.06c.252-.077.483.1.621.125h.06v-.065h.683v.065h.312c.019-.04.042-.084.06-.125a.858.858,0,0,1,.436.06v.065c.124-.023.249-.04.371-.065v.065h.312c.014,0,.018.086.124.063v-.063h.123v-.065h.061v.065h.064v-.065h.189v-.06h.123v-.064c.112-.016.309.175.558.124.379-.073,1.124.014,1.553-.06.023.06.043.125.065.188.186-.107.214-.218.5-.251a1.228,1.228,0,0,0,.5.189v-.125l.367.06v-.06l.376-.064c.018.042.042.084.061.124l.808-.06v.06h.187v.065h.807v.063c.2-.023.414-.046.62-.063v.063h.125c.019.042.044.084.061.124.144-.02.291-.04.435-.062v.063h.128c.016.04.04.082.057.122h.251v.063l.37-.062v-.061h.312v-.06l.5.06c.024.042.043.082.062.124l.125-.062v.063l.37-.062v.063c.074.07.026,0,.064.126H265.1v.186h.189v-.059c.068-.074.022,0,.058-.127.176-.042.167-.112.186-.126a.164.164,0,0,1,.189.063l.124-.062v-.062h.06v-.245c.062-.046.125-.085.189-.127v-.124l.123-.123h.127c.018-.061.037-.124.059-.189a3.132,3.132,0,0,1,.685-.373v-.184h.063c.068-.07,0-.024.125-.062.044-.2.081-.228.309-.248a1.5,1.5,0,0,1,.621-.746c.125-.042.249-.082.371-.126.064-.082.124-.164.186-.247h.124l.064-.126h.126v-.062c.166-.019.329-.042.493-.059v-.063a.487.487,0,0,1,.312-.124,1.641,1.641,0,0,0-.25-.624c-.04-.02-.079-.039-.122-.062l-.062-.247h-.064v-.124h-.06v-.311h-.062v-.186c-.041-.024-.083-.042-.125-.064v-.247h-.06v-.249h-.064v-.249h-.062V563.3h-.064v-.186h-.062v-.249h-.061v-.124H268.7c-.019-.1-.042-.209-.06-.311q-.061-.029-.123-.061v-.127q-.066-.029-.126-.061V562h-.061c-.024-.187-.042-.372-.065-.558h-.06v-.312h-.062c0-.082.1-.1.062-.244h-.062c-.02-.191-.042-.377-.063-.563h-.061v-.494h-.062c-.017-.107.059-.107.063-.125v-.31h.061v-1.054h.063c-.02-.231-.042-.457-.063-.686v-.934a.161.161,0,0,1-.061-.182h.061v-.624c-.246-.228-.5-.457-.746-.683-.019-.085-.04-.169-.059-.251l-.187-.12v-.25l-.125-.06c-.02-.128-.041-.251-.062-.373h-.062v-.128h-.058v-.374h-.065a.92.92,0,0,1-.064-.559h.064c.022-.08.041-.161.065-.244h.058c.041-.189.084-.377.125-.564.042-.017.082-.04.125-.057v-.316h.063v-.122c.063-.042.125-.083.184-.127.022-.057.042-.122.064-.184.041-.022.083-.04.124-.059v-.189l.186-.063c.073-.084.114-.093.249-.124v-.125q.124-.032.249-.061v-.062h.186c.04-.065.082-.125.126-.186h.123v-.062h.5v-.06h.187v-.064h.308v.064h.064v-.064h.5c.041-.078.094-.083.122-.125V550.2c.084-.062.166-.126.249-.189v-.251c.041-.018.083-.038.125-.06v-.186c.064-.042.126-.082.186-.124.042-.126.084-.249.125-.37.136-.2.339-.1.434-.435h.125v-.128c.084-.06.166-.123.249-.186v-.123c.039-.017.082-.04.124-.064v-.06h.186a1.477,1.477,0,0,1,.809-.743c.019-.085.041-.169.064-.251.081-.02.161-.04.244-.062a.663.663,0,0,1,.187-.31h.065c.159-.223.087-.3.432-.37.047-.174.018-.142.189-.189.073-.088.112-.1.248-.125v-.124l.5-.249v-.062h.187v-.061h.122a1.329,1.329,0,0,0,.061-.127c.147-.04.29-.079.435-.124.084-.1.166-.2.25-.311.1-.017.209-.04.31-.061.02-.04.042-.081.06-.123.189-.061.375-.124.562-.184v-.124a.836.836,0,0,0,.5-.186c.02-.044.042-.084.062-.126.136-.09.334-.058.5-.125v-.061h.182v-.063h.376v-.062h.187v-.062h.185v-.061h.561c.018-.042.042-.083.059-.125h.249v-.061h.189v-.063h.247v-.062h.56c.166-.059.331-.122.5-.186v.065h.126v.063c.083-.023.165-.045.246-.062v-.065h.314v.065a2.393,2.393,0,0,0,.806-.128v-.06a.8.8,0,0,1,.436.06v.064c.248-.019.5-.04.745-.064a3.1,3.1,0,0,1,.869.128h.933v.063h.246v.059h.374v.062c.069.072.023,0,.063.124m-5.218-.124v.124h.186v-.061c-.065-.02-.126-.044-.186-.063m-5.777,3.292c-.044.156-.033.1-.127.189v.06H275.1v.063c-.1.082-.206.166-.308.251v.122h-.125c-.065.1-.124.209-.186.31h-.189v.063a.518.518,0,0,1-.245.125v.184c-.148.106-.291.21-.437.312v.124c-.081.065-.165.127-.248.186-.218.225-.312.479-.685.558l-.061.191h-.061c-.018.059-.041.124-.062.186-.04.019-.082.037-.125.059-.02.1-.042.207-.061.311h-.064v.126h-.061c-.02.063-.041.123-.061.184h.932v-.061c.1-.018.109.059.125.061.186-.022.375-.042.56-.061.051-.211.172-.216.247-.376V549.7c.043-.022.082-.04.126-.059v-.314c.041-.019.083-.042.124-.064v-.309l.186-.122c.022-.086.04-.169.062-.249.061-.082.227-.072.311-.128v-.06a2.742,2.742,0,0,0,.249-.184c.229,0,.4.056.557.058.061-.02.125-.039.185-.058v.058l.5-.058v.058l.375-.058v-.065h.932v.065h.062v-.065h.684c.091.016.1.086.248.065a.1.1,0,0,1,.124-.065c.019.042.042.084.062.123h.189v.064h.185v.062c.577.06,1.159.124,1.739.189.058.111.085.1.125.249.081-.025.164-.044.245-.065.024.04.045.082.065.122h.186v.065c.069.069.023,0,.06.125.173.044.14.017.189.184h.061c.02.228.042.459.064.683h-.064v.127h-.061c.018.166.041.331.061.5h-.061v.184h-.062c-.024.1.058.114.062.127-.023.143-.043.287-.062.434a1.152,1.152,0,0,0,.433-.061v-.063c.4-.14.621.217,1,.124v-.061l.373.061v-.061h.684c.083.019.165.04.249.061v-.061h.37v-.063a.169.169,0,0,1,.189.063h.309v-.063a1.7,1.7,0,0,0,.248.063c.022-.063.042-.125.064-.186h.063c.1-.2-.094-.169.186-.249.033-.358.232-.473.31-.745h.124v-.127h.063v-.368h.063a3.453,3.453,0,0,1,.248-.251h.375l-.066-.186h.066c.164-.151.545.009.809-.061v-.06h.617v-.065q.372.031.748.065v.06c.064-.023.124-.043.184-.06,0,0,0,.056.126.06v-.06h.061c.023.038.042.08.062.122.166.02.331.044.5.065v.058h.186v.064c.133.042.19-.082.249-.064.023.044.041.082.062.126h.124v.065h.123v.059c.1.027.115-.059.128-.059.164.017.329.038.494.059v.065h.125v.063h.312c.019.037.039.082.059.119h.31a7.865,7.865,0,0,0,1.121.377c.02.082.041.162.059.247.106.016.127.063.127.063.106.031.219-.083.246-.063v.063h.064c-.024.064-.042.124-.064.186h.064v.061c.117.074.264.018.372,0,.02.06.041.125.06.188h.064V551h.064c-.019.107-.044.208-.064.312h.064c-.019.228-.044.456-.064.684.127.04.251.082.375.124v.063h.246v.065h.125v.057c.086.023.3-.115.494-.057a2.569,2.569,0,0,0,.812.122c-.024-.065-.044-.122-.064-.186h-.064v-.123c-.041-.024-.083-.042-.124-.064v-.127h-.062v-.119c-.04-.023-.078-.044-.124-.067-.018-.082-.041-.161-.06-.243h-.062v-.189h-.065c-.042-.125-.081-.251-.123-.373h-.065c-.017-.085-.039-.167-.057-.249-.042-.02-.086-.04-.126-.062-.022-.1-.042-.207-.062-.31h-.065v-.186h-.059c-.02-.085-.041-.167-.06-.249h-.065v-.184c-.043-.023-.083-.044-.125-.062v-.124c-.041-.023-.081-.044-.126-.065v-.126h-.06v-.123h-.06c-.02-.084-.042-.166-.064-.251-.041-.017-.083-.04-.123-.057V548.7c-.1-.082-.209-.168-.312-.25-.019-.037-.039-.083-.061-.123h-.249c-.074.051.027.065-.061.062v-.062c-.148-.026-.475-.04-.559-.122s-.025,0-.064-.128h-.125v-.247c-.082-.062-.165-.125-.249-.186-.02-.062-.039-.125-.061-.184h-.186V547.4c-.081-.02-.165-.04-.248-.065v-.057c-.144.017-.29.04-.436.057v.065c-.162.049-.3-.06-.371-.065v.065c-.1-.02-.209-.04-.309-.065v.065c-.109.089-.053.111-.061.124a1.515,1.515,0,0,1-.377.186c-.131-.193-.334-.175-.558-.245h-.248V547.4h-.124v-.065h-.5v-.057h-.375v-.065c-.266.018-.537.04-.8.065a2.232,2.232,0,0,0-.562-.129c-.144-.237-.351-.237-.37-.617a.975.975,0,0,0,.184-.312h.186v-.062c.525-.149,1.254.282,1.617-.061-.06-.02-.124-.043-.187-.063v-.062h-.187c-.018-.042-.041-.084-.059-.124h-.311v-.062c-.324-.093-.717.076-.932-.124-.073-.072-.026,0-.062-.125a4.053,4.053,0,0,1-1.305-.189h-.62v-.059h-.126v-.065c-.164.024-.331.044-.5.065v-.065h-.186v-.06c-.143.02-.291.042-.433.06v-.06h-.314V545.1c-.351.017-.7.04-1.057.061a3.438,3.438,0,0,0-1.117.184H281.5v.065h-.373v.063h-.621c-.04.061-.084.124-.123.186h-.314v.061h-.247v.063l-2.551-.124v.061h-.248c-.039.063-.081.125-.124.188-.083.019-.165.042-.248.061l-.061.125h-.184v.061h-.13c-.018.042-.04.084-.06.127-.083.019-.166.038-.248.059-.02.042-.041.083-.062.125h-.126v.064a.557.557,0,0,1-.432.184m3.725-.432h.373a.608.608,0,0,0,.31.248.629.629,0,0,0,.065.309h-.065l-.185.308a3.917,3.917,0,0,1-1.118,0v-.058h-1.119v-.064h-.5c-.023-.04-.041-.084-.062-.123-.062-.022-.125-.047-.186-.064v-.062c-.062-.02-.125-.04-.184-.062a1.4,1.4,0,0,1,.122-.559,4.49,4.49,0,0,1,2.546-.061Zm-3.23,2.978c-.033.348-.174.217-.249.377.02.059.043.119.061.184H275.6v.122c-.041.023-.084.042-.125.065.022.063.041.126.065.189-.043.019-.086.04-.126.06v.124h-.06c-.106.166.059.119-.189.186-.02.084-.041.166-.062.249-.041.019-.082.04-.122.063v.31c-.064.042-.125.082-.186.124l-.065.557h-.06v.191H274.6c-.018.083-.04.162-.059.244h.059c.057.24.145.256.439.251.241.211.546-.082.805,0v.065h.125v.059c.1-.019.206-.042.308-.059v.059h1.247v.06c.059.025.122.042.186.065v.064c.094.032.244-.119.431-.064v.064h.189v.058c.145.025.29.044.434.065v.064c.169-.022.332-.044.5-.064.042-.186.085-.37.127-.561l.122-.06v-.122h.062c.02-.1.042-.211.061-.316a1.14,1.14,0,0,0,.124-.063v-.119h.065v-.189h.062v-.122h.06c.023-.189.042-.375.064-.561h.06v-.249h.063v-.186c.042-.018.083-.042.124-.063-.041-.268-.082-.54-.124-.805-.374-.065-.743-.124-1.117-.189v-.062h-.187v-.064H278.4V549.2h-.317c-.12-.02-.244-.044-.367-.065v.065h-.687c-.016,0-.016-.086-.124-.065v.065h-.185c-.083.024.026.056-.063.058-.067-.044.025-.078-.061-.058v.058h-.374V549.2c-.126.017-.248.04-.373.058m11,4.1h-.126c.02.062.041.122.063.184h.561c.04.062.081.122.124.186.053.025.119-.1.246-.065v.065h.184v.063h.251v.059h.127c.019.043.04.085.06.127h.308v.06h.192v.064h.119v.065h.187v.058c.108.026.106-.056.127-.058h.745c.014,0,.019.077.122.058v-.058h.435c.023.04.041.08.062.122a1.636,1.636,0,0,0,.685-.122c.5-.144.26-.628.681-.745v-.316c.147-.1.292-.206.436-.308v-.375h.064V552.3h.059v-.184h.064c.019-.084.041-.166.061-.251h.064v-.186c.041-.017.081-.037.123-.057v-.5a.559.559,0,0,1-.123-.126h-.311c-.02-.04-.042-.082-.064-.122h-.186v-.062l-1.177-.125v-.061h-.186c-.041-.062-.086-.123-.126-.186h-.435v-.063h-.125v-.062h-.185v-.061l-.5-.06c-.022-.044-.042-.084-.065-.126-.149-.063-.3.049-.37.064h-.744v-.064l-.378.064c-.028.082-.03-.024-.056.063v.433h-.065v.122h-.064v.189l-.123.06v.126c-.042.023-.085.04-.124.063v.124c-.043.02-.084.04-.124.063q-.124.775-.251,1.551h-.059c-.093.193-.154.2-.187.44m-16.589,9.315c.049.193.193.326.251.5.041.131-.084.184-.065.245.041.018.083.041.124.063.047.116.006.342-.059.373v.063h.119v.06c.043.019.087.042.128.064v.123c.04.022.081.04.123.064.02.123.042.247.064.373.17.045.135.018.186.184h.063c.02.065.039.125.06.19-.019.019-.107-.014-.06.061l.247.186c.051.072.049.262.125.311h.124v.249h-.061v.061h.061v.311c.3.086.069.055.187.25.125.1.248.2.37.309.024.063.042.122.064.186.1.082.208.164.31.249v.31h.25c.1.175.215.17.248.433h.249v.126h.186v.184c.083.023.167.042.248.065v.186h.124v.311h.189c.093.15.075.037.184.124.023.04.041.082.064.122h.062v.189c.125.042.249.083.374.127.019.04.04.077.061.119h.309c.006,0-.007.042.124.065.022.059.041.124.065.186h-.065c.142.156.3.177.436.373h.06v.247h.31l.186.25c.193.12.16-.108.251.189a.451.451,0,0,1,.311.12v.065c.208.04.414.079.62.124.039.17.082.14.124.308h.184v.063c.075.074.028,0,.066.124l.308-.059v.059h.125v.065c.187.06.375.125.56.186.019.06.043.123.061.189.065.018.126.037.186.058.022.042.043.084.064.126h.189c.019.042.039.083.061.125h.122v.059h.375l.06.127c.124.022.25.04.371.061.023.063.044.125.066.189.206.018.412.041.62.06v.063h.683v.064h.93v.058h.933a6.977,6.977,0,0,0,1.553.065h.371s0,.08.126.065v-.065h.867v.065h.25v-.065h.189v-.065l.805-.122v-.062c.084-.019.167-.042.249-.06.068-.24.136-.191.314-.312.04-.065.082-.124.119-.186.249-.02.5-.04.748-.062.084-.1.167-.208.248-.312.458-.247.912-.5,1.368-.743.024-.043.042-.085.065-.127.058-.019.122-.042.186-.059.1-.125.2-.249.31-.374h.125c.017-.042.041-.082.059-.126h.125c.083-.1.167-.207.247-.31H292c.167-.186.335-.37.5-.56h.123c.1-.124.206-.243.309-.37.043-.019.084-.042.126-.064v-.125h.063c.017-.061.041-.122.06-.184.042-.019.085-.042.125-.061v-.127c.064-.04.126-.082.185-.124V568.4c.045-.019.084-.042.127-.061v-.127c.042-.017.083-.04.124-.059.02-.083.04-.169.063-.251l.185-.122c.022-.085.041-.167.061-.249l.123-.062v-.124h.065c.023-.063.042-.127.061-.186.06-.044.124-.085.187-.127.04-.122.084-.245.125-.37.082-.062.166-.124.247-.189v-.186c.06-.04.125-.08.186-.122v-.127c.042-.019.082-.042.125-.059v-.311c.042-.022.084-.042.125-.065.022-.059.04-.119.059-.184h.065c.02-.106.041-.208.062-.312h.061c.04-.122.083-.247.122-.37h.065v-.125h.061v-.186h.061V564.3h.065v-.128h.063v-.123h.06v-.312h.064v-.125h.06v-.243c.043-.025.084-.044.126-.065v-.309h.06c.024-.086.041-.168.064-.25h.064c-.024-.065-.044-.127-.064-.186h.064c.019-.228.039-.458.059-.684h.064v-.37h.062v-.253h.062v-.124h.063v-.244h.061v-.128h.06v-.249c.043-.018.082-.038.127-.058v-.438h.059v-.123h.062c.023-.412.045-.827.065-1.243a.159.159,0,0,1-.065-.186h.065v-.186h.059v-.808c-.04-.019-.078-.042-.124-.059a1.351,1.351,0,0,0,.065-.316c.019-.7.04-1.406.059-2.112h-.059v-.12h-.065c-.083-.439-.167-.871-.249-1.307-.225-.022-.456-.042-.683-.062v-.059c-.151-.051-.411.064-.435.059v-.059h-.248v-.062h-.189V553.3c-.35-.019-.7-.037-1.054-.059-.019-.062-.039-.127-.061-.185h-.124c-.043.058-.084.123-.125.185h-.061v.126a.968.968,0,0,0-.124.062c-.023.059-.042.122-.062.184h-.124a1.491,1.491,0,0,1-.186.5h-.062v.123c-.045.022-.083.047-.124.064-.023.083-.043.169-.065.251l-.123.06c-.056.082-.047.25-.126.31-.1.02-.207.042-.309.06-.04.065-.084.126-.123.186h-.127v.065h-.122v.059h-.189v.065H291.5v.063c-.331-.02-.662-.044-.994-.062v-.065h-.932v-.059h-.308v-.065h-.685v-.06h-.126v-.061c-.129-.036-.246.143-.433.061-.023-.044-.044-.082-.064-.126h-.12v-.06h-.128v-.06h-.186v-.066c-.374-.04-.745-.082-1.117-.123v-.061h-.125v-.06H286.1c-.022-.044-.044-.082-.064-.128h-.248v-.058c-.041-.025-.084-.044-.124-.065v-.122c-.084-.044-.167-.084-.249-.128-.086-.088,0-.111,0-.123.034-.107-.115-.1-.187-.124-.018-.209-.041-.415-.06-.621h.06v-.186h.062v-.065h-.062v-.058h.062v-.377c-.249-.037-.5-.082-.745-.122.019.1.042.207.061.31h-.061a1.272,1.272,0,0,1-.5.311v.064a.175.175,0,0,1-.186-.064c-.117-.018-.125.064-.125.064-.144-.022-.29-.044-.434-.064-.023.042-.043.084-.065.122h-.122v.065a.1.1,0,0,1-.125-.065c-.082.025-.164.044-.248.065-.032.112-.047.249-.126.122h-.06v.13a.725.725,0,0,1-.437.308v.186H282c.06.268.123.542.186.808.152.091.173.2.374.247v.065q.342-.061.681-.125v-.06l.935.12a.656.656,0,0,0,.186.31h.062c.019.107.04.209.061.314h.061a1.341,1.341,0,0,0-.061.245c-.124.043-.249.085-.375.127v.063h-.433v.061h-.125v.06c-.166-.018-.331-.04-.5-.06-.039.02-.082.042-.122.06v-.06c-.229-.017-.457-.04-.683-.061-.022-.041-.045-.083-.064-.125h-.126v-.065h-.247v-.059c-.084-.025-.166-.042-.25-.062v-.062h-.124V555.6l-.123-.062v-.124a1.14,1.14,0,0,0-.435-.251c-.041-.122-.086-.247-.126-.373h-.06v-.309c-.04-.126-.1-.415-.123-.559-.208.02-.415.04-.624.063-.02.04-.04.082-.06.124h-.251v.065h-.559v-.065c-.077,0-.157.109-.31.065v-.065h-.186v-.064h-.311v-.06h-.189v-.062h-.31v-.065c-.243-.017-.5-.04-.744-.059a.166.166,0,0,1-.184.059V553.8h-.125v-.062c-.2-.065-.293.074-.437.063h-.06v-.062h-.868v-.065c-.083,0-.106.111-.251.065v-.065c-.082-.017-.165-.04-.247-.059v-.062a.161.161,0,0,0-.186.062c-.209-.023-.415-.042-.62-.062v-.062h-.127c-.042-.059-.083-.122-.124-.189-.1-.019-.207-.037-.308-.059v-.127h-.126c-.082-.226-.166-.452-.249-.683l-.122-.06v-.5c.04-.019.081-.037.122-.059,0-.007-.058-.318-.063-.435-.123-.023-.249-.042-.374-.062v.063h-.123v.065c-.1-.027-.208-.044-.312-.065-.018.037-.04.084-.061.124h-.371v.062h-.125v.065H271.5c-.022.04-.041.08-.064.124h-.125v.06c-.091.084-.083.028-.122.186h-.062c-.02.124-.043.251-.062.373-.04.021-.082.04-.124.06v.25h-.064v.189h-.06v.186h-.063v.123h-.064v.189a.986.986,0,0,0-.125.062c-.02.08-.041.161-.059.243-.043.025-.084.044-.127.065v.309c-.062.044-.124.084-.184.128v.308h-.065v.249h-.059c.019.082.04.167.059.247h-.059v.561h-.064v.186h-.061v.559l-.127.063v.126l-.123.063v.682h-.064v.248h-.062v.063h.062c.022.153-.062.184-.062.184.023.169.044.333.062.5h-.062v.061h.062c-.018.186-.04.373-.062.56h.062v.126h.064c.036.177-.106.133-.126.186.023.14.044.289.062.433,0,0-.075.007-.062.124a.094.094,0,0,1,.062.125c-.04.019-.079.042-.122.061,0,.086.052-.026.059.065.014.122-.035.075-.059.122,0,.084.069.1.059.247-.017.044-.041.084-.059.128h.059v.123c.062.04.126.084.19.122.077.167-.072.626-.064.686h.064v.186h.059c-.019.061-.039.126-.059.186.059.04.123.08.186.124v.309c.061.022.125.042.184.061.059.049.049.13.125.189-.019.063-.041.125-.06.184h-.065v.063Zm11.306-10.87c-.04.348-.172.247-.311.437,0,.061.133.126.065.243-.041.076-.251.081-.31.13l.059.059v.06c.085-.018.167-.04.251-.06v-.124h.123a2.1,2.1,0,0,1,.25-.186V552.3c.072-.047.266-.047.31-.122v-.123a.617.617,0,0,1-.248-.25Zm-12.113.122a.913.913,0,0,0-.561.316h-.062c-.017.122-.039.243-.061.373H268.7v.184h-.06v.122c-.041.025-.082.044-.123.065v.186h-.064c-.023.122-.04.251-.062.373h-.061c-.026.084.049-.026.061.062v.059h-.061c-.048.147,0,.216-.065.314h.065c.031.06.118.111.124.124.016.032.043.2.064.251h.059v-.065h.064c.05-.073.072-.394.123-.5h.061v-.127c.043-.017.084-.04.126-.059v-.125h.062v-.375h.064c.018-.1.04-.206.06-.308h.061v-.125h.064v-.25h.062V552.3c.041-.017.082-.04.124-.057.093-.136.022-.144,0-.316m29.572,5.472c-.148.035-.115.017-.189.122h-.06v.063h.31a1,1,0,0,1,.375-.684c.04-.019.082-.042.123-.06v-.436c.061-.04.123-.083.186-.125.022-.248.041-.5.061-.745h.061v-.124c.041-.02.084-.044.125-.062.03-.084-.036.023-.061-.065v-.37c.012-.089.044.025.061-.06-.041-.25-.084-.5-.125-.748h-.123v-.124c-.148-.086-.684-.568-.934-.5v.063c-.06.02-.123.04-.184.062.02.084.041.164.061.245h.062c0,.181-.178.318-.249.437.186.02.169.007.249.123.061.064.018-.014.06.064h-.06c-.028.1.209.125.186.309h-.064c-.02.126-.04.251-.062.373h.062v.189h.064c.02.166.041.331.062.494h.061c-.041.127-.083.251-.124.376h.062v.494h-.062v.249h.062v.124h.061c-.019.107-.041.211-.061.316m9.506,3.166c-.02.084-.042.166-.061.249h.249c.018-.065.041-.127.059-.187-.081-.022-.166-.044-.247-.061m-.561.373c-.04.144-.082.289-.122.435h-.064c.02.268.041.536.064.805h-.064v.934a1.185,1.185,0,0,0-.124.065c-.02.186-.042.37-.063.554h-.061v.189h-.062v.124h-.062v.808h-.06v.186h-.064v.123h-.064c-.017.315-.042.624-.06.932h.06c-.017.084-.042.168-.06.251h.06v.064h.25c.148-.161.566-.184.87-.189h.31v-.061h.123V566.1h.314v-.062h.122v-.059c.125-.023.251-.043.373-.063v-.062c.273-.044.542-.084.809-.124v.063h.06v-.062c.1-.023.209-.042.311-.062v-.124l.374.059v-.059h.5c.012,0,.023.086.124.059v-.059h.124c.045-.06.085-.125.126-.186h.434v-.062c.441-.128.59.235.994.124v-.061h.621v-.062h.744v-.062l.562.063v-.062h.124c.022-.042.04-.084.06-.126l.683-.06.065-.126c.12-.018.247-.04.371-.06.062-.082.124-.166.189-.249.219-.148.343-.033.432-.373h-.124c.055-.068-.006-.011.062-.064.073-.069,0-.023.124-.06-.019-.062-.039-.126-.062-.186-.164-.023-.332-.04-.5-.062-.057.023-.033.182-.249.123v-.06h-.126v-.062a1.159,1.159,0,0,0-.494-.065c-.1-.168-.152-.106-.186-.37-.306.047-.17.042-.434-.059h-.189V563.3h-.124v-.065h-.123v-.057h-.374c-.02-.045-.041-.085-.061-.129-.189-.019-.374-.04-.558-.058v-.064h-.187v-.062c-.086-.022-.167-.042-.25-.065v-.059h-.249c-.041-.065-.081-.127-.124-.186h-.5V562.5h-.123v-.062h-.122v-.061c-.094-.083-.086-.034-.126-.189-.125.042-.249.082-.37.124v-.063h-.126v-.061h-.189c-.039-.06-.079-.125-.123-.186h-.435c-.022-.041-.042-.083-.061-.123h-.5v-.065c-.1-.019-.209-.037-.31-.059l-.064-.125c-.1-.022-.208-.04-.31-.061-.022-.042-.04-.083-.06-.125-.147-.022-.291-.042-.437-.061v-.065c-.072-.068-.025,0-.061-.122H308.9c-.037-.074-.112-.1-.128-.125v-.184h-.059v.06c-.127-.02-.249-.042-.374-.06v-.064h-.126v-.065h-.186a.492.492,0,0,1-.184.128c.07.069,0,.023.122.06m-26.9.994v.247h.125c-.02.25-.04.5-.06.747-.043.019-.082.04-.124.064v.058h.059a.787.787,0,0,0,.125.316h.061c.024.077.045.161.065.243.117.162.461.139.743.125v-.06c.126-.022.25-.04.374-.065v-.059c.083-.023.166-.042.249-.062.02-.044.042-.084.064-.122h.124V563.3h.124v-.065h.186v-.057q.187-.16.373-.314v-.124c.061-.042.125-.083.186-.127v-.059c.042-.023.085-.042.125-.062v-.124h.062c.042-.065.082-.127.124-.189h.125v-.06l.93.06c.023.042.043.082.064.124h.123a.435.435,0,0,1-.062.251h.062v.059c.074.049.026-.055.064-.059.061.022.122.042.184.059a.714.714,0,0,1-.184.435h-.064c.02.1.04.209.064.316h-.064c-.069.073,0,.019-.123.059-.073.072,0,.025-.126.063-.086.4-.133.209-.371.373-.083.1-.166.207-.248.309h-.127v.064c-.247.083-.5.165-.744.247v.126l-.312.062c-.018.042-.039.082-.06.122h-.31v.065h-.124v.06c-.29-.018-.581-.04-.869-.06v-.065h-.064v.065l-.869-.124v-.062l-.249-.062-.064-.126-.186-.06v-.064l-.186-.058c-.041-.128-.082-.251-.124-.375h-.062V563.8l-.184-.122v-.186c-.042-.022-.084-.044-.127-.062.024-.124.043-.245.065-.375l-.126-.058c.019-.25.041-.5.061-.75h.065a1.291,1.291,0,0,1-.065-.248h.187c.05-.284.145-.323.5-.307v.06h.31c.02.04.04.08.065.124.083.023.164.04.245.063m33.053,4.659c.074.069,0,.025.123.063-.069-.07,0-.024-.123-.062m-43.862.5-.06.124h.246v-.059h.065v-.065Zm-28.08,11.37c.182.044.2.07.249.251a.591.591,0,0,0-.249.059c.02.065.042.123.064.186.059.023.12.042.185.065.018.142.042.289.061.433a1.285,1.285,0,0,0,.125.064v.372h.061v.436h-.061c.02.081.04.162.061.247a.1.1,0,0,0-.061.127,1.224,1.224,0,0,0,.124.057c.11.291-.262.6-.249.624h.065v.065c.081.059.2-.03.247.061v.56c-.073.068-.025,0-.062.122h.124c.018.126.042.251.062.375h.062V583h.061c-.041.147-.083.293-.124.435h.062c.02.126.04.248.061.373h.06c.024.208.042.415.064.621H243.1v.064h.064v.309h.066v.559h.058c.024.167.041.331.061.5h.064c-.019.124-.042.245-.064.373.044.019.085.037.125.059.024.067-.114.114-.061.249.042.025.085.044.127.065.018.226.039.454.059.683h.061v.125h.065v.124c.039.02.081.037.122.06.02.124.044.249.061.373.044.022.085.042.127.065v.124h.061c-.019.06-.042.122-.061.186l.248.122c.039.207.081.418.125.621a2.206,2.206,0,0,1,.809.123v.064h.5v.065h.621v.063h.5v.059h.93v.065c.144-.02.29-.042.435-.065v.065h.5v.063h.5v.059h.684v.065h.248v.06c.152.047.346-.065.371-.06v.06h.251v.063l.308-.062c-.019-.207-.039-.412-.06-.619h-.061v-.126h-.062v-.374c-.022-.082-.057.03-.064-.061l.064-.062h-.064c-.022-.249-.04-.494-.06-.745h.06c.02-.082.043-.165.064-.247.062-.022.124-.044.184-.062-.019-.1-.039-.208-.06-.312.147-.1.135-.247.249-.373.208-.184.415-.373.62-.557V586.1c.065-.022.126-.04.186-.059.064-.083.125-.169.187-.251h.124c.064-.084.124-.165.187-.247l.248-.062c.018-.042.042-.084.061-.126h.125v-.06c.267-.042.538-.082.807-.124v.06h.248v-.06h.375s-.009-.084.124-.062v.063c.162.026.186-.062.186-.062.207.018.414.04.623.063h.808c.039.06.082.124.124.184.144.023.289.042.434.063.02.044.04.084.062.126h.124v.06c.084.022-.006-.014.062-.06h.061v.06h.5v.061h.124c.022.041.04.085.063.125h.248c.018.042.04.082.06.124.085.02.169.044.25.065v.122c.1.023.207.042.311.063.019.084.042.167.063.249l.184.064c-.018.06-.043.125-.06.188h.123v.059h.374c-.007-.2-.12-.117.062-.186v.127c.084.04.164.082.248.122v.124l.186.065v.184A.452.452,0,0,0,260,587.1v.063c.1.063.211.126.316.186.241.307.143.64.62.745-.024.085-.044.167-.064.251h.247c.036.247.081.215.191.37h.059v.437h.065v-.065c.142.042.118.132.12.314h.127l-.064.059a2.028,2.028,0,0,1,.064.251h.556s-.007-.061.126-.065.236.116.434.065v-.065h.684v.065h.809v.06h.058v-.06h.624a9.145,9.145,0,0,0,1.806.06l1.612-.06v-.065h.185c.023-.042.042-.082.064-.122h.247v-.065c.084-.019.167-.042.25-.059.069-.228.06-.111.187-.249h.06c.022-.1.043-.209.064-.312h.062v-.374s.08,0,.059-.122h-.059v-.31a2.225,2.225,0,0,0,.122-.56h-.062c-.017-.292-.041-.578-.059-.869h.059c.02-.127-.059-.125-.059-.125V586.1a6.42,6.42,0,0,0-.126-1.613V583.8h-.06v-.125h-.062v-.186H269.2c-.04-.515-.082-1.031-.122-1.551h-.064v-.435h-.062v-.248h-.064v-.186h-.062v-.316h-.061v-.306H268.7v-.311h-.06v-.25h-.064c-.018-.267-.04-.537-.059-.805h-.064v-.191h-.062v-.244h-.061c-.024-.267-.042-.54-.065-.808h.065v-.065h-.065v-.122h-.06c.02-.107.041-.211.06-.311l-.123-.064v-.806h-.063v-.123c-.041-.024-.082-.044-.124-.064-.042-.186-.083-.375-.123-.559h-.061V575.6l-.125-.062v-.124h-.064c-.019-.231-.04-.457-.062-.683h-.063v-.125H267.4v-.251c-.042-.017-.083-.042-.123-.061v-.249h-.062v-.186h-.062c-.022-.142-.042-.289-.062-.433h-.064v-.251h-.061c-.02-.186-.041-.37-.062-.557h-.062V572.5h-.058v-.311c-.043-.019-.085-.042-.128-.064V572h-.06v-.25h-.063v-.19l-.126-.059v-.127c-.142-.124-.289-.245-.435-.373v-.124h-.062v-.12c-.039-.024-.083-.042-.122-.064v-.125c-.042-.022-.083-.042-.125-.061v-.125c-.042-.019-.082-.042-.126-.064v-.062h-.244v-.06h-.315v-.064h-.309v-.06h-1.055v-.062h-.87s-.006-.051-.124-.064h-.685v-.06c-.12.019-.247.042-.374.06v-.06H261a15.59,15.59,0,0,0-2.545-.124,4.774,4.774,0,0,0-1.364-.063v.063h-5.53c-.211-.023-.416-.043-.621-.063v.063h-.685c-.494-.023-.994-.043-1.492-.063v.063h-.185c-.207-.023-.414-.043-.621-.063v.063a1.335,1.335,0,0,1-.558-.063h-.809v-.062h-.62v-.065h-.435v-.059h-.062v.059h-.684v.065c-.458-.04-.912-.082-1.367-.124a7.147,7.147,0,0,0-1.862.124l-.871.063c-.009,0-.022-.093-.123-.062-.022.042-.04.082-.064.125-.125-.023-.247-.043-.37-.063v.063c-.127.037-.156.024-.25.061a.613.613,0,0,0-.062.249h.062c.06.111-.051.189-.062.247.062.044.123.086.186.124v.251h.062v.124c.042.023.083.042.126.06.055.128-.051.177-.062.251.038.019.08.04.124.064.017.182.039.368.06.558.04.017.083.042.124.061v.309h.062v.126h.064v.186c.06.04.123.084.185.124-.02.063-.044.125-.062.189h.062v.186h.061v.244c.063.044.124.083.189.13v.184h.064v.189h.058v.061s-.091.047-.058.12c.039.02.082.042.122.065v.122h.06c.053.149-.048.237-.06.31.042.023.082.043.123.063.08.247-.268.275-.123.375a.847.847,0,0,0,.31.186c-.019.06-.04.123-.061.186.042.018.084.042.125.065v.184c.061.04.125.082.185.124.022.23.041.456.064.682.04.025.081.04.12.065.059.135-.076.252-.061.308.044.023.084.044.127.065v.184h.06v.559h.061c-.018.1-.041.209-.061.314h.061v.186h.064a1.122,1.122,0,0,1,0,.557m31.188-6.956h-.126a1.3,1.3,0,0,1-.62.5c-.061.237-.182.191-.249.433-.061.02-.125.04-.186.063v.061h-.123v.063h-.125c-.019.042-.042.084-.061.126h-.187v.06h-.124v.063h-.125c-.019.04-.04.082-.061.122h-.185v.065h-.312c-.022.04-.042.082-.06.122-.416.023-.831.044-1.246.065-.075-.014-.111-.114-.245-.065-.022.044-.043.083-.062.13h-.375v.057c-.11.123-.068.524-.062.746h.126c-.022.124-.042.248-.064.373h.064v.186c.043.022.083.044.126.065v.308h.06v.191h.061c.023.1.044.2.064.308h.062v.125c.041.022.082.04.124.063v.119h.062c.041.117-.035.091-.062.128.042.144.081.286.122.433l.19.126v.5l.123.065v.122h.064c.023.084-.145.666-.064.872.041.019.086.04.125.059.049.186-.207.178-.125.437h.064v.125h.061c.02.164.042.329.064.5a1.956,1.956,0,0,1,.184.5h.251c.018-.063.039-.125.059-.187h.125c.023-.064.041-.124.064-.186h.063v-.124h.06c-.022-.1-.042-.209-.06-.315h.06c.02-.1.042-.2.064-.307h.249c.039-.126.081-.251.122-.373h.125a.763.763,0,0,1,.187-.373h.061v-.124c.063-.043.125-.085.187-.125.019-.124.042-.249.061-.375.1-.082.207-.165.309-.249.024-.042.042-.082.064-.124h.126c.02-.062.04-.12.06-.184h.062c.093-.111.074-.142.248-.186a.631.631,0,0,1,.19-.311h.059c.058-.093-.028-.2.063-.25h.123v-.125h.126c.022-.1.042-.2.061-.31.065-.021.125-.042.186-.06-.02-.062-.04-.126-.061-.184h.434c.043-.149.082-.293.126-.437.061-.022.124-.04.184-.061v-.187h.064v-.064h.187V574.3h.124c.135-.5.849-.528.992-1.054h.124a3.744,3.744,0,0,1,.253-.373c.082-.023.162-.04.243-.062.042-.06.084-.124.13-.186h.122l.124-.186c.283-.126.13.226.372-.065h.063v-.122h.066v-.062h-.066c-.116-.164-.275-.142-.434-.25-.02-.041-.041-.083-.061-.123h-.125v-.061h-.189l-.06-.125h-.126v-.065h-.122V571.5h-.125v-.065h-.124l-.125-.122h-.125c-.022-.042-.04-.083-.061-.123-.084-.024-.165-.044-.249-.064-.02-.043-.041-.085-.062-.127-.122-.042-.247-.08-.373-.124-.322-.2-.307-.41-.867-.435v.065H273.8c.056.155.093.144,0,.31h-.06v.249h-.064c-.115.158-.249.219-.31.435m4.474,1.739c-.022.065-.042.122-.066.186h-.122c-.044.062-.083.122-.122.186h-.065v.126H277.4s.119.265.063.369c-.083.042-.167.086-.249.124a1.044,1.044,0,0,0,0,.561h.06c.044.153-.052.228-.06.309h.06v.128h.064v.37s.042,0,.062.125h-.126v.119a1.556,1.556,0,0,1,.625.253c.041.061.082.122.124.186h.122v.064c.27.018.54.04.811.058a.708.708,0,0,1,.374-.308h.369c.061-.1.126-.209.189-.314h.124c.017-.042.041-.082.06-.122h.126c.04-.062.084-.125.122-.189.189-.06.375-.123.561-.186v-.186h.062c.084-.1.214-.156.308-.249.024-.04.045-.082.065-.122h.123l.312-.376h.061v-.124h.064v-.06h-.125v-.064c-.331-.041-.665-.083-1-.123h-.5v-.061h-.186v-.065c-.206-.037-.412-.082-.621-.12v-.061h-.12c-.024-.042-.044-.085-.066-.13h-.123v-.059c-.145-.023-.292-.042-.436-.062v-.065a2.5,2.5,0,0,0-.5-.243v-.065c-.1-.023-.084.1-.128.122-.078.023-.16.044-.244.065m5.714,2.858c.1.019.207.042.311.061v.125c.1.019.207.04.311.064v.058c.391-.018.784-.04,1.18-.058v-.064c.122-.04.248-.085.37-.125V576.1c.1-.023.207-.041.311-.065.042-.06.085-.124.125-.189.064-.018.124-.037.186-.06v-.059h.122c.022-.041.044-.083.064-.125h.125c.02-.062.041-.126.061-.186.063-.044.126-.086.189-.126v-.123c.184-.168.37-.331.559-.5v-.311a12.3,12.3,0,0,1-1.928-.061c-.1-.016-.108.059-.123.061h-.374V574.3c-.06.019-.123.044-.186.061V574.3c-.351-.02-.7-.04-1.057-.062a.95.95,0,0,0-.123.561,1.282,1.282,0,0,0-.064.808h.064c-.041.167-.083.331-.125.5m19.011-.189c-.072.257-.044.064-.186.189v.061h-.062v.125c-.042.019-.082.04-.124.064-.022.083-.043.162-.062.244-.081.065-.165.128-.249.186-.061.186-.123.373-.186.561-.082.06-.167.125-.248.189.006.06.125.13.062.244h-.062c-.072.072,0,.027-.125.065a1.041,1.041,0,0,1-.064.435h-.061v.373c-.042.019-.083.042-.123.063v.245c-.042.023-.083.042-.123.065.017.164.04.331.06.5h-.06v.125h-.064c.022.226.04.454.064.683h-.064v.311h-.064a.94.94,0,0,0,.064.494h.064a1.658,1.658,0,0,0-.064.249c.206.168.412.331.621.5v.308c-.062.023-.127.04-.187.063a.536.536,0,0,0,.06.248h.065c.1.232-.087.682-.125.808v.373c-.085.041-.167.085-.248.125v.253c-.042.017-.083.038-.123.057v.127l-.127.124v.124h-.062v.123c-.061.044-.124.082-.186.122v.13h-.064c-.059.079-.04.112-.123.186v.061h-.123a.352.352,0,0,1-.311.309c-.023.1-.042.208-.064.312h-.123v.184c-.064.044-.125.084-.186.127v.059c-.083.023-.166.042-.25.063v.065a.5.5,0,0,1-.248.122.352.352,0,0,1-.31.314c-.02.082-.039.164-.062.245l-.311.065c-.019.04-.041.082-.064.122h-.123v.063c-.124-.018-.249-.042-.373-.063-.058.1-.124.207-.185.314-.175.089-.312-.084-.434-.065v.065h-.686v.061c-.083.018-.162.041-.247.063v-.062c-.083-.022-.166-.042-.25-.061v-.065c-.187-.019-.375-.042-.558-.06V587.1c-.184-.042-.147-.1-.186-.122h-.311v-.065c-.1-.017-.206-.042-.309-.061-.167.126-.334.248-.5.373v.189c-.079.061-.162.124-.245.184v.065h-.186c-.022.059-.041.122-.065.184l-.186.064v.06c-.082.065-.167.124-.245.189v.186c-.387.082-.487.4-.872.5-.07.252-.024.073-.186.186-.019.042-.04.082-.061.126H292v.058h-.125c-.1.082.007.2-.059.315a1.246,1.246,0,0,1-.371.247v.126h.059a.106.106,0,0,1-.059.125c.017.14.041.289.059.434h.063c.022.06.041.123.062.188.061.04.126.079.187.124v.186l.184.122v.125c.062.04.125.084.186.124v.126l.124.123h.126v.061c.091.088.081.034.123.19.189.04.373.082.561.122v.065h.125v.061h.245v.06h.127v.062c.186.042.371.084.556.124v.065c.087.019.167.04.25.059v.065c.311.02.621.04.93.062v.059h.31v.065c.375-.022.749-.042,1.122-.065v-.059c.2-.023.416-.042.62-.062.022-.042.041-.084.062-.124l.62-.125v-.064l.247-.062v-.06c.166-.024.334-.044.5-.061v-.065h.189v-.06q.092-.032.187-.061c.039-.172.077-.142.122-.314a1.521,1.521,0,0,0,1.057-.81h.123c.036-.191.064-.257.25-.308v-.249h.062v-.06h.187v-.061a.72.72,0,0,1,.31-.189,1.049,1.049,0,0,1,.248-.433c.061-.023.125-.042.189-.062v-.251c.1-.079.207-.164.308-.248.02-.06.043-.125.064-.187q.061-.032.123-.061c.126-.218-.092-.27.25-.373.022-.06.04-.125.062-.184h.061v-.125h.063c.082-.1.03-.086.184-.126a.475.475,0,0,1,.126-.37h.063c.02-.084.042-.169.061-.251l.19-.124c.04-.167.081-.331.122-.5.063-.042.126-.082.186-.124v-.184l.123-.065v-.122h.061v-.127h.064c.023-.144.042-.289.065-.433h.062v-.126h.06c.022-.1.042-.207.061-.308.061-.043.124-.085.186-.125.062-.394.124-.787.187-1.183.215-.119.3-.275.621-.31v.061h.249c.019.044.042.088.062.125.2.084.518-.089.619-.125h.312v-.061h.124v-.06c.145-.02.29-.044.437-.065v-.061h.122v-.06h.185v-.062h.127v-.059c.1-.027.2-.047.309-.067v-.062q.186-.029.371-.061c.023-.041.042-.083.065-.123h.122v-.065h.126l.125-.186c.2-.119.218.1.308-.248h.128c.066-.269.2-.216.307-.37a3.028,3.028,0,0,0,.373-.933l.184-.061c.024-.186.043-.374.065-.56h.064v-.186h.061v-.745c-.007-.018-.079-.021-.061-.126h.061c.022-.269.04-.537.061-.808h-.061v-.311h-.061v-.373c-.04-.017-.085-.04-.128-.059-.016-.063-.04-.125-.059-.185h-.06v-.189l-.127-.064v-.125h-.059v-.186c-.083-.059-.167-.124-.251-.186v-.122c-.207-.251-.412-.5-.621-.747h-.122c-.168-.184-.329-.372-.5-.558h-.122c-.023-.042-.043-.084-.064-.122-.083-.023-.166-.047-.248-.065-.023-.042-.041-.084-.062-.126-.083-.02-.166-.042-.25-.06V574.8c-.249-.022-.5-.04-.744-.061v-.065h-.124v-.06c-.05-.007-.158.093-.312.06-.011,0-.02-.082-.123-.06v.06h-.187v.065c-.272.075-.327-.174-.5-.125-.019.042-.04.082-.06.125h-.123c-.041.061-.083.122-.125.186h-.435v.061h-.25v.06h-.185v.062l-.435.064v.065h-.124c-.023.038-.042.08-.062.122h-.186c-.019.041-.041.081-.061.123a1.381,1.381,0,0,1-.621.435m-4.227-.372h-.123c.053.072-.007.009.065.063v.063h.058Zm-27.208,9.442v.373h.063v.063h-.062v.312c.013.086.07-.026.063.06h-.062v.31c-.007.018-.083.023-.062.127h.062v.184h.063v.808a.169.169,0,0,0-.062.189h.063v.249h.06c-.022.059-.04.122-.06.184a2.551,2.551,0,0,0,.06,1.18c.061-.018.125-.042.186-.06V588.9h.125c.023-.04.042-.082.062-.122.124-.042.249-.086.374-.127v-.061h.184c.022-.04.043-.082.061-.125h.125c.02-.04.043-.082.065-.122h.123v-.065l.248-.061v-.06c.19-.023.374-.042.56-.065.042-.059.083-.124.126-.184.1-.022.2-.044.308-.064.041-.062.082-.125.124-.184h.127c.017-.043.043-.088.061-.125.165-.022.332-.044.494-.062.065-.086.125-.168.19-.25.1-.023.2-.042.308-.062.042-.063.085-.124.124-.184h.127v-.065c.122-.017.246-.042.371-.061v-.062c.082-.018.166-.04.249-.062v-.059h.248c.02-.043.042-.083.06-.127h.189v-.06h.311c.04-.064.081-.126.123-.189h.124a1.257,1.257,0,0,0,.063-.124h.185V586.1h.126c.018-.04.043-.082.063-.122.1-.02.207-.044.308-.065v-.059c.066-.023.128-.041.19-.065v-.125a.872.872,0,0,1-.433-.061c-.022-.04-.045-.082-.065-.123h-.374v-.064h-.247v-.062c-.187.023-.374.042-.562.063v-.062h-.37v-.06h-.062v.06h-.684s0-.08-.122-.06v.06h-.685v-.06h-.374v-.064h-.991v-.06h-.19v-.062h-.186v-.061c-.5-.02-.993-.043-1.489-.065m-17.272,1.553a.549.549,0,0,0-.5.373h-.125c-.059.1-.124.207-.184.311h-.126v.064c-.106.083-.2.165-.309.249.019.082.041.165.06.247h-.06c-.074.073,0,.026-.126.063v.312s-.1.047-.124.122c.064.041.124.085.187.13v.119h.063c.019.209.041.415.06.624h-.06c-.023.058-.043.122-.062.186l.186.122v.562c.061.164.123.331.185.494a.724.724,0,0,0,.251.127c.018.143.039.287.059.432h.189c.04.063.082.125.124.189h.06c.023.1.043.207.061.309.084.061.168.126.251.186v.126c.039.02.08.04.122.06.065.082.125.164.189.249h.126c.038.064.082.124.12.189l.189.059v.127l.122.059c.085.185-.149.053,0,.249.107.084.208.167.314.249a1.05,1.05,0,0,0,.063.124h.124c.041.065.084.125.124.186.094.058.189-.024.248.065v.122c.1.023.209.043.311.063.017.042.043.084.059.127.177.115.256.073.315.31.247.08.5.165.746.249.018.042.04.082.06.124h.19c.04.06.079.125.122.186h.309v.06h.126c.02.042.041.084.061.124h.123v.063c.23-.02.456-.038.685-.062v.063c.089.007-.027-.058.06-.062.14-.007.126.063.126.063h.31v.062h.125v.061h.434v.065c.082-.025.166-.044.247-.065.167.02.336.04.5.065v-.065h.249v.065h.249v.06h.749v-.06h.619v-.065h.434v-.061c.343-.091.424.279.56-.125a1.193,1.193,0,0,0,.62-.124v-.06h.307v-.061h.128v-.065c.1-.02.207-.042.311-.06v-.065a.581.581,0,0,1,.434-.186c.1-.366.115-.115.373-.245.02-.044.042-.083.062-.125h.125c.019-.042.039-.082.061-.126h.06c.167-.186.334-.373.5-.559a3.713,3.713,0,0,0,.5-.311c.124-.164.25-.331.375-.494h.123c.061-.083.124-.169.186-.251h.064c.044-.068.055-.27.125-.308h.308c.044-.172.018-.139.185-.19v-.184h.065v-.061h.31c.018-.149.041-.291.06-.435h-.744l-.062.122c-.083-.019-.164-.04-.246-.061v-.06a2.24,2.24,0,0,0-.56.122l-1.678-.122v.06h-.436s-.025-.091-.184-.06a.181.181,0,0,1-.187.06v-.06c-.267-.023-.537-.044-.809-.062v.063a.161.161,0,0,1-.184-.062h-1.058a9.84,9.84,0,0,1-1.055.247v.251c-.112.058-.1.082-.247.122v.249h.122v.126h-.122a.628.628,0,0,1-.128.433c-.04.023-.08.042-.125.065v.186l-.122.059c-.019.065-.041.125-.062.185-.061.044-.124.086-.186.128v.119h-.062c-.042.065-.082.127-.125.189h-.12c-.159.116-.123.247-.375.311v.124c-.125.025-.249.042-.374.062v.065h-.248v-.065h-.249a.851.851,0,0,1-.621-.87c.144-.124.289-.249.434-.37.023-.084.041-.166.064-.249.084-.064.165-.126.247-.186v-.126l.126-.06v-.061l.125-.065v-.125h.059v-.124c.044-.019.084-.04.127-.06v-.126l.123-.06v-.436h.063c.042-.289.082-.582.125-.868h-.061v-.126h-.064v-.56h-.062V588.9h-.061c-.042-.122-.083-.249-.125-.373h-.064v-.119h-.059v-.13h-.062c-.019-.061-.041-.122-.062-.186H259.2v-.124c-.149-.084-.2-.233-.31-.308h-.123c-.023-.043-.041-.088-.064-.125h-.123c-.02-.044-.043-.084-.065-.124-.1-.025-.2-.042-.31-.065-.041-.06-.081-.124-.124-.186h-.184V587.1h-.126c-.02-.04-.041-.082-.06-.122h-.126v-.065h-.123v-.061h-.122l-.128-.125h-.122c-.044-.059-.085-.122-.126-.186h-.125v-.06c-.207-.042-.414-.082-.621-.126v-.063h-.189v-.059h-.245v-.065h-.373v.065h-.061v-.065a.806.806,0,0,0-.435-.063v.063h-.187v.065H254.6v.059h-.373v.063h-.064a.137.137,0,0,0-.125-.063v.063h-.122c-.019.062-.042.126-.062.186m16.836,4.97h.126c-.023-.06-.041-.122-.063-.186h-.064Zm-.5.435v.126a1.741,1.741,0,0,1,.184-.061v-.125h-.062c-.068.072,0,.023-.122.06" transform="translate(0 0)" fill="#0070c3" fill-rule="evenodd"/>
  </g>
</svg>
