<svg xmlns="http://www.w3.org/2000/svg" width="260" height="40.583" viewBox="0 0 260 40.583">
  <g id="logo" transform="translate(210 -416)">
    <g id="Group_1" data-name="Group 1" transform="translate(-210 416)">
      <path id="Path_1" data-name="Path 1" d="M894.653,787.619a2.382,2.382,0,0,1-2.373,2.376H856.456a2.384,2.384,0,0,1-2.377-2.376V751.8a2.384,2.384,0,0,1,2.377-2.377H892.28a2.382,2.382,0,0,1,2.373,2.377v35.822" transform="translate(-810.182 -749.415)" fill="#ffec00"/>
      <path id="Path_2" data-name="Path 2" d="M931.327,813.98v12.472h-1.015V816.261a1.671,1.671,0,0,0-.462-1.229,1.693,1.693,0,0,0-1.294-.485H921.72v15.327h3v-.539h6.212c-.005.05-.011.107-.011.107,0,.029-.291,2.806-4.114,3.311l-.064.009v2.924l.106-.009c4.308-.312,6.847-2.94,7.551-7.812,0,0,.009-.057.018-.109h4.35v4.184h-1.586v3.486h2.834a1.718,1.718,0,0,0,1.756-1.78V815.736a1.93,1.93,0,0,0-.5-1.267,1.855,1.855,0,0,0-1.373-.489h-8.572m-3.916,6.563h-2.819v-3.13h2.819Zm0,5.911h-2.819v-3.026h2.819Zm11.356-7.094h-4.411v-2.425h4.411Zm0,2.988c0,.138,0,2.271,0,2.408h-4.408v-2.408Z" transform="translate(-867.483 -804.106)" fill="#0070c3"/>
      <path id="Path_3" data-name="Path 3" d="M1181.7,787.619a2.384,2.384,0,0,1-2.383,2.376H1143.5a2.383,2.383,0,0,1-2.375-2.376V751.8a2.383,2.383,0,0,1,2.375-2.377h35.822a2.384,2.384,0,0,1,2.383,2.377v35.822" transform="translate(-1053.348 -749.415)" fill="#ffec00"/>
      <path id="Path_4" data-name="Path 4" d="M1210.03,815.969H1200.4v3.16h6.437a12.709,12.709,0,0,1-1.111,4.247,5.3,5.3,0,0,1-4.941,3.4l-.152.005v3.155l.158-.006a8.538,8.538,0,0,0,7.777-5.183,16.04,16.04,0,0,0,1.434-5.622h2.03V820.4a12.386,12.386,0,0,0,1.315,6.162c1.385,2.377,4.247,3.584,8.5,3.584h.235v-6.136h-3.156v2.829a3.954,3.954,0,0,1-2.856-1.867,9.551,9.551,0,0,1-.884-4.572v-1.275H1223v-3.16h-9.785V809.4a2.13,2.13,0,0,0-.513-1.4,1.691,1.691,0,0,0-1.276-.476l-1.394,0v8.443m8.061-6.8a1.225,1.225,0,0,0-1,.7,17.238,17.238,0,0,0-1.787,4.545l-.036.187h3.135l.038-.1a51.832,51.832,0,0,1,2.341-5.1l.123-.23Zm-15.581.241a51.969,51.969,0,0,1,2.339,5.105l.038.1h3.141l-.037-.186a17.011,17.011,0,0,0-1.783-4.539,1.223,1.223,0,0,0-1-.707h-2.827Z" transform="translate(-1103.558 -798.639)" fill="#0070c3"/>
      <path id="Path_5" data-name="Path 5" d="M1468.747,787.619a2.383,2.383,0,0,1-2.377,2.376h-35.825a2.385,2.385,0,0,1-2.376-2.376V751.8a2.386,2.386,0,0,1,2.376-2.377h35.825a2.383,2.383,0,0,1,2.377,2.377v35.822" transform="translate(-1296.511 -749.415)" fill="#ffec00"/>
      <path id="Path_6" data-name="Path 6" d="M1497.965,814.048h-2.613l0,.079v.991h-4.392v2.193h8.5v.651h-7.337v2.216h7.337v.651h-9.309v2.2h18.21c-.111.1-1.635,1.5-1.635,1.5l.059.056c.63.576,1.671,1.651,2,2.032h-3.6V823.7h-2.995v2.92h-4.59v-.726h3.127v-2.212l-9.347.005v2.207h3.227v.726h-4.454v2.206h4.454v1.2l-4.395.324-.069,0v2.208s4.306-.34,4.464-.357v1.148h-3.23V835.6h4.471a1.709,1.709,0,0,0,1.755-1.775V832l3.295-.237v-2.145l-3.3.222v-1.011h4.617a7.419,7.419,0,0,0,1.006,3.074,21.966,21.966,0,0,1-3.8,1.02l-.073.011.408,2.369.075-.012a24.114,24.114,0,0,0,5.108-1.472,10.8,10.8,0,0,0,6.688,1.905h.074v-2.992h-.074a10.13,10.13,0,0,1-3.485-.544,14.882,14.882,0,0,0,2.028-1.469l.055-.052-1.622-1.774-.057.048a14.741,14.741,0,0,1-2.563,1.712,4.16,4.16,0,0,1-.755-1.824h6.472v-2.206h-2.609l1.578-1.449-.041-.056a17.448,17.448,0,0,0-2.042-2.079l-.005-.006h3.124v-2.2h-9.25v-.651h7.726v-2.216h-7.726v-.651h9.063v-2.193H1506.9v-1.065l-.117,0h-2.7a1.45,1.45,0,0,0-.619.151,1.02,1.02,0,0,0-.553.919h-3.74a1.056,1.056,0,0,0-.3-.731,1.376,1.376,0,0,0-.912-.339" transform="translate(-1349.01 -804.164)" fill="#0070c3"/>
      <path id="Path_7" data-name="Path 7" d="M1755.837,787.619a2.38,2.38,0,0,1-2.372,2.376H1717.64a2.378,2.378,0,0,1-2.373-2.376V751.8a2.379,2.379,0,0,1,2.373-2.377h35.825a2.381,2.381,0,0,1,2.372,2.377v35.822" transform="translate(-1539.72 -749.415)" fill="#ffec00"/>
      <path id="Path_8" data-name="Path 8" d="M1793.471,813.748h-.576v2.05H1790.3v-1.046h-.077l-1.1,0h-2.982a.906.906,0,0,0-.258-.617,1.159,1.159,0,0,0-.781-.291h-1.95v.914h-4.207v2.252h11.031v1.251h2.841a14.437,14.437,0,0,1-.682,3.275c-.365-.332-.725-.644-1.071-.923l-.092-.073-.048.065-1.328,1.96.055.043c.067.058.672.559,1.448,1.316a12.138,12.138,0,0,1-2.222,3l-.069.057.735.613h-1.952v2.433h-7.627v2.255h7.627v.818h-9.126v2.254H1800V833.1l-9.413,0v-.818h8.186v-2.255h-8.186v-1.57c.006.007.078.063.078.063l.047-.038a12.561,12.561,0,0,0,2.124-2.669,14.962,14.962,0,0,1,1.252,1.746l.042.069,1.978-1.387-.037-.062a17.213,17.213,0,0,0-2.037-2.738,17.008,17.008,0,0,0,1.2-5.18h1.316v8.473c0,1.684.974,2.473,3.068,2.489h.075v-2.56h-.724c0-.149,0-9.112,0-9.112a1.753,1.753,0,0,0-.486-1.323,2.176,2.176,0,0,0-1.427-.48h-1.75v-.189a1.754,1.754,0,0,0-.486-1.324,2.043,2.043,0,0,0-1.348-.485m-13.986,3.623v4.411h9.842v-2.558a1.8,1.8,0,0,0-1.76-1.852Zm7.406,2.658H1781.9v-.9h4.992Zm-7.419,2.122v1.9h5.384c-.194.17-.618.543-.647.57-.052,0-5.265.372-5.265.372v2.025s4.91-.348,5.064-.36v.81h-2.944v1.9h3.955a1.212,1.212,0,0,0,1.388-1.294v-1.583c.133-.012,2.917-.207,2.917-.207v-2.023l-2.235.156.947-.812,1.259-1.121c.022-.022.028-.024.028-.147,0-.029,0-.175,0-.175l-.074-.007Z" transform="translate(-1593.26 -803.909)" fill="#0070c3"/>
      <path id="Path_9" data-name="Path 9" d="M2042.882,787.619a2.383,2.383,0,0,1-2.374,2.376h-35.823a2.383,2.383,0,0,1-2.376-2.376V751.8a2.383,2.383,0,0,1,2.376-2.377h35.823a2.383,2.383,0,0,1,2.374,2.377v35.822" transform="translate(-1782.882 -749.415)" fill="#0070c3"/>
      <path id="Path_10" data-name="Path 10" d="M2115.124,831.937a.668.668,0,0,1-.666.666h-2.923a.668.668,0,0,1-.667-.666v-2.919a.668.668,0,0,1,.667-.665h2.923a.668.668,0,0,1,.666.665v2.919m1.816-20.777a.572.572,0,0,0-.58-.66h-6.727a.573.573,0,0,0-.581.66l1.732,13.466a.779.779,0,0,0,.751.66h2.923a.779.779,0,0,0,.75-.66Z" transform="translate(-1873.302 -801.158)" fill="#ffec00"/>
      <path id="Path_11" data-name="Path 11" d="M586.437,767.741a1.147,1.147,0,0,1-1.142,1.143H568.078a1.145,1.145,0,0,1-1.141-1.143V750.528a1.141,1.141,0,0,1,1.141-1.139H585.3a1.143,1.143,0,0,1,1.142,1.139v17.214" transform="translate(-566.936 -749.389)" fill="#ffec00"/>
      <path id="Path_12" data-name="Path 12" d="M586.431,905.684a1.146,1.146,0,0,1-1.14,1.143H568.076a1.147,1.147,0,0,1-1.146-1.143V888.47a1.143,1.143,0,0,1,1.146-1.138h17.216a1.142,1.142,0,0,1,1.14,1.138v17.215" transform="translate(-566.93 -866.245)" fill="#ffec00"/>
      <path id="Path_13" data-name="Path 13" d="M724.395,767.741a1.148,1.148,0,0,1-1.143,1.143H706.036a1.143,1.143,0,0,1-1.14-1.143V750.528a1.139,1.139,0,0,1,1.14-1.139h17.216a1.143,1.143,0,0,1,1.143,1.139v17.214" transform="translate(-683.805 -749.389)" fill="#ffec00"/>
      <path id="Path_14" data-name="Path 14" d="M598.854,779.6l-.009.065a10.767,10.767,0,0,1-1.439,4.1l-.01.018,0,.034.005.015c.046.146.128.612.338,1.808l.027.165s.392-.475.511-.614c0,.111,0,.248,0,.248v4.573h1.4v-7.46c.011-.03.023-.071.049-.15,0,0,.4-1.339.446-1.5l.186,0v9.111h1.417v-.4h4.282v.4h1.523v-9.2a.764.764,0,0,0-.2-.574.886.886,0,0,0-.657-.218h-6.372c.007-.076.045-.423.045-.423h-1.541m7.344,1.788v6.938h-4.551V781.39h1.614v.8h-.983v1.238h.983v.778h-.983v3.4h3.28V784.65a.444.444,0,0,0-.113-.314.545.545,0,0,0-.343-.126h-.527v-.779h.983v-.81a.432.432,0,0,0-.459-.427h-.524v-.8Zm-1.689,3.928v1.216H603.3c0-.036,0-1.134,0-1.216Z" transform="translate(-592.738 -774.983)" fill="#0070c3"/>
      <path id="Path_15" data-name="Path 15" d="M744.447,779.97v8.352c-.012.417-.179.441-.453.441h-1.169v1.551h2.024a.937.937,0,0,0,1.012-1.035v-8.551a.756.756,0,0,0-.181-.55.881.881,0,0,0-.648-.208h-.586m-8.33.339v3.834h1.149c0,.042,0,.093,0,.093-.087,2.648-.41,3.731-1.437,4.831l-.048.049,1.085,1.206.055-.063a6.65,6.65,0,0,0,1.685-3.8s.006-.041.01-.075h1.215c0,.04,0,.091,0,.091a12.076,12.076,0,0,1-.211,2.179c-.059.138-.166.279-.525.279h-.826v1.383h1.512c.985,0,1.152-.462,1.263-.767a24.593,24.593,0,0,0,.343-4.537l0-.079h-2.668l.015-.486s.01-.214.016-.3h2.648v-3.06a.8.8,0,0,0-.2-.585.814.814,0,0,0-.581-.189Zm3.856,2.476h-2.481v-1.121h2.481Zm2.274-2.178v7.109h1.315V781.34a.736.736,0,0,0-.182-.534.841.841,0,0,0-.616-.2Z" transform="translate(-709.965 -775.295)" fill="#0070c3"/>
      <path id="Path_16" data-name="Path 16" d="M600.757,917.9v3.236a.986.986,0,0,0,.214.74,1.141,1.141,0,0,0,.833.256h3.65c.751,0,1.294,0,1.5-2.035l0-.025,0-.037-1.475-.435-.01.1c-.058.6-.138,1.095-.545,1.095H602.7c-.3,0-.456-.168-.456-.487v-.257c.037,0,.083,0,.083,0,.746-.046,4.073-.743,4.215-.771l.056-.013-.63-1.308-.065.027a11.847,11.847,0,0,1-3.561.779l-.1.006v-.438a.434.434,0,0,0-.107-.322.466.466,0,0,0-.336-.108h-1.042m-2.918.015V919.7H596.53v1.48h1.308v2.063c-.064.018-1.341.361-1.341.361l.154,1.424,1.183-.306c0,.05,0,.114,0,.114v1.478c0,.229-.088.312-.335.312h-.882l.223,1.61h1.337c.4,0,1.071,0,1.071-1.177v-2.787l1.083-.405v-1.436l-1.086.383c0-.056,0-.127,0-.127v-1.505h1V919.7h-1v-1.011a.835.835,0,0,0-.193-.607.706.706,0,0,0-.523-.167Zm7.745,4.844h-4.717v5.488h1.5v-.381h2.549v.381h1.546v-4.668a.787.787,0,0,0-.208-.578.981.981,0,0,0-.665-.243m-.673,2.015h-2.55v-.82h2.55Zm0,1.906h-2.55v-.812h2.55Z" transform="translate(-591.977 -892.14)" fill="#0070c3"/>
      <path id="Path_17" data-name="Path 17" d="M724.334,905.667a1.146,1.146,0,0,1-1.137,1.142H705.978a1.15,1.15,0,0,1-1.144-1.142V888.452a1.145,1.145,0,0,1,1.144-1.138H723.2a1.141,1.141,0,0,1,1.137,1.138v17.214" transform="translate(-683.753 -866.229)" fill="#ffec00"/>
      <path id="Path_18" data-name="Path 18" d="M734.954,919.341l.449.185,1.646.711.541-1.306-.066-.031a19.6,19.6,0,0,0-1.947-.837l-.069-.025-.555,1.3m-.131,2.747h1.063v.883a4.868,4.868,0,0,1-1.17.92l-.056.034s.557,1.436.558,1.438h-.395v1.142H737.1l-.947.467.086.075a15.563,15.563,0,0,1,1.3,1.26l.023.025h.047l1.375-.7-1.06-1.128h4.12v.409c0,.058-.025.244-.36.244h-1.354v1.211h2.19c.949,0,1.023-.619,1.023-.808v-1.055h1.5v-1.143h-1.5v-.48h1.337v-1.029h-6.176c-.751,0-1.156-.125-1.353-.422,0-.04-.012-1.7-.016-2.341a.374.374,0,0,0-.165-.346.394.394,0,0,0-.206-.057h-2.144Zm1.79,2.114.061.059a2.438,2.438,0,0,0,1.845.624h3.527v.479h-6.828s1.336-1.113,1.395-1.162" transform="translate(-709.018 -892.256)" fill="#0070c3"/>
      <path id="Path_19" data-name="Path 19" d="M762.023,919.487v-.982h-1.278v-.516h-1.016a.717.717,0,0,0-.477.176.552.552,0,0,0-.151.34h-1.392a.578.578,0,0,0-.151-.344.7.7,0,0,0-.472-.176h-1.023v.519h-1.371v.982h2.9l-.182.3s-.034.062-.043.076h-2.193v3.661h6.426v-2.926a.74.74,0,0,0-.182-.541.931.931,0,0,0-.664-.2s-1.747,0-1.8,0l.207-.366h2.87m-1.864,3.45h-3.627v-.51h3.627Zm0-.99h-3.627v-.517h3.627c0,.03,0,.486,0,.517m0-.991h-3.631v-.524h3.631Z" transform="translate(-725.988 -892.212)" fill="#0070c3"/>
    </g>
  </g>
</svg>
